<svg width="333" height="271" viewBox="0 0 333 271" fill="none" xmlns="http://www.w3.org/2000/svg">
<g clip-path="url(#clip0_746_679)">
<path d="M254.775 219.898C240.836 219.898 229.541 231.193 229.541 245.132C229.541 259.071 240.836 270.366 254.775 270.366C268.714 270.366 280.009 259.071 280.009 245.132C280.009 231.193 268.714 219.898 254.775 219.898Z" fill="#444444"/>
<path d="M131.005 219.898C117.066 219.898 105.771 231.193 105.771 245.132C105.771 259.071 117.066 270.366 131.005 270.366C144.943 270.366 156.239 259.071 156.239 245.132C156.239 231.193 144.943 219.898 131.005 219.898Z" fill="#444444"/>
<path d="M15.8887 15.6216H68.7601L119.829 181.926H275.319L317.376 46.7436H151.071" stroke="#444444" stroke-width="28" stroke-linecap="round" stroke-linejoin="round"/>
</g>
<defs>
<clipPath id="clip0_746_679">
<rect width="332.73" height="270.365" fill="white" transform="translate(0.270508)"/>
</clipPath>
</defs>
</svg>
