<?xml version="1.0" encoding="UTF-8"?>
<svg id="_圖層_1" data-name="圖層 1" xmlns="http://www.w3.org/2000/svg" viewBox="0 0 224.49 389.53">
  <defs>
    <style>
      .cls-1 {
        font-family: KaiseiTokumin-ExtraBold, 'Kaisei Tokumin';
        font-size: 39.84px;
        font-weight: 700;
        letter-spacing: .1em;
      }

      .cls-1, .cls-2 {
        fill: #4f4186;
      }

      .cls-3 {
        fill: #9686be;
      }

      .cls-3, .cls-4, .cls-5 {
        fill-rule: evenodd;
      }

      .cls-3, .cls-4, .cls-5, .cls-2, .cls-6, .cls-7, .cls-8 {
        stroke-width: 0px;
      }

      .cls-4 {
        fill: #e7824e;
      }

      .cls-5 {
        fill: #f29fa7;
      }

      .cls-6 {
        fill: #cebbdb;
      }

      .cls-7 {
        fill: #fff;
      }

      .cls-8 {
        fill: #edd848;
      }
    </style>
  </defs>
  <g>
    <rect class="cls-6" x=".61" y=".31" width="223.26" height="388.91" rx="27.06" ry="27.06" transform="translate(225.2 389.11) rotate(179.79)"/>
    <g>
      <g>
        <path class="cls-3" d="m215.23,114.85c-12.3-.27-24.6-.69-36.9-.81,1.24-13.42,2.48-26.74,3.72-40.16-1.59.74-3.2,1.51-4.79,2.27-1.63.79-3.27,1.57-4.91,2.34-.93.44-1.85.88-2.78,1.32-9.23,4.37-18.46,8.75-27.66,13.19-3.74-10.68-7.45-21.26-11.19-31.93-.19.2-.28.28-.35.37-19.56,28.07-33.99,56.88-44.97,89.31-1.02,3.9-1.94,7.82-2.91,11.73-.21.86-.43,1.71-.64,2.57l52.9,32.55c.05.14.11.28.16.42.21-.23.42-.46.63-.69,11.81-13.64,24.23-27.03,36.78-40.14,10.06-10.52,20.55-20.63,31.19-30.55,3.79-3.53,7.62-7.02,11.42-10.52.38-.35.74-.71,1.24-1.2-.45-.03-.7-.06-.95-.07Z"/>
        <path class="cls-5" d="m178.33,114.04c1.24-13.42,2.48-26.74,3.72-40.16-1.59.74-3.2,1.51-4.79,2.27-1.63.79-3.27,1.57-4.91,2.34-.93.44-1.85.88-2.78,1.32-9.15,4.33-18.29,8.67-27.4,13.07-19.41,33.99-44.53,79.14-44.53,79.14l.22,2.88,19.22,11.83c17.62-18.52,42.07-48.4,61.39-72.69-.05,0-.1,0-.15,0Z"/>
        <path class="cls-4" d="m119.78,188.4l14.98,9.22c.05.14.11.28.16.42.21-.23.42-.46.63-.69,11.81-13.64,24.23-27.03,36.78-40.14,10.06-10.52,20.55-20.63,31.19-30.55,3.79-3.53,7.62-7.02,11.42-10.52.38-.35.74-.71,1.24-1.2-.45-.03-.7-.06-.95-.07-12.3-.27-24.6-.69-36.9-.81.25-2.7.5-5.38.75-8.07l-59.3,82.42Z"/>
      </g>
      <path class="cls-8" d="m84.15,146.36c-8.35,10.16-10.61,11.67-27.66,8.94-6-.96-23.41-7.06-26.35,2.16-4.7,14.73,9.88,31.53,16.78,38.36,1.48,1.46,2,3.65,1.35,5.63-3.42,10.34-8.78,45.48,1.32,52.28,9.88,6.65,25.2-10.53,34.37-14.35,2-.83,4.29-.42,5.87,1.06,7.97,7.46,42.86,36.1,54.56,29.11,11.71-7,11.92-37.35,11.66-47.44-.05-2.01.99-3.88,2.73-4.89,8.42-4.9,32.46-20.03,30.83-32.16-1.83-13.62-31.07-10.14-41.29-13.1-2.03-.59-4.36-15.59-4.71-17.68-1.71-9.98-8.03-38.46-24.81-40.41-10.83-1.26-19.07,9.98-24.27,17.87-2.99,4.53-6.44,9.82-10.38,14.62Z"/>
      <path class="cls-7" d="m47.43,125.33c-.27-.42.14-5.3-.5-5.41-.64-.11-2.29,4.44-2.66,4.67-.74.48-5.19-.11-5.29.5-.11.61,4.1,1.89,4.57,2.61.26.41-.14,5.3.5,5.41.64.11,2.28-4.42,2.66-4.67.71-.46,5.2.1,5.31-.5.11-.61-4.13-1.92-4.58-2.62Z"/>
      <path class="cls-7" d="m56.61,141.88c-3.86-.91-5.27,5.08-1.41,5.99s5.26-5.08,1.41-5.99Z"/>
      <g>
        <path class="cls-2" d="m85.87,195.54c-3.34,3.42-2.98,8.97.88,11.83s9.27,1.41,11.45-2.72l-3.27-.43c.47,2.14,1.48,4.32,3.21,5.72,1.95,1.58,4.59,1.88,6.91.98s4.22-2.74,4.99-5.11.16-5.19-1.15-7.29c-1.22-1.95-4.32-.15-3.09,1.81,1.65,2.63,1.16,6.07-2,7.25s-4.83-1.66-5.42-4.31c-.33-1.49-2.56-1.76-3.27-.43-1.23,2.32-4.1,3.22-6.3,1.62s-2.19-4.57-.41-6.39c1.61-1.65-.92-4.18-2.53-2.53h0Z"/>
        <path class="cls-2" d="m68,179.85c-.08.24-.15.49-.21.74-1.15,4.88,1.88,9.77,6.76,10.91s9.77-1.88,10.91-6.76c.06-.25.1-.5.14-.76l-17.6-4.13Z"/>
        <circle class="cls-7" cx="79.61" cy="186.02" r="2.17"/>
        <path class="cls-2" d="m113.25,190.72c-.08.24-.15.49-.21.74-1.15,4.88,1.88,9.77,6.76,10.91,4.88,1.15,9.77-1.88,10.91-6.76.06-.25.1-.5.14-.76l-17.6-4.13Z"/>
        <path class="cls-7" d="m126.97,197.38c-.27,1.16-1.44,1.89-2.6,1.61s-1.89-1.44-1.61-2.6,1.44-1.89,2.6-1.61,1.89,1.44,1.61,2.6Z"/>
        <path class="cls-2" d="m86.53,181.3c-7.2-1.56-14.31-3.45-21.33-5.66-2.2-.69-3.14,2.76-.95,3.45,7.02,2.21,14.14,4.1,21.33,5.66,2.25.49,3.21-2.96.95-3.45h0Z"/>
        <path class="cls-2" d="m112.4,191.04c6.62,2.31,13.45,3.96,20.4,4.92.96.13,1.92-.23,2.2-1.25.23-.84-.29-2.07-1.25-2.2-6.95-.96-13.77-2.61-20.4-4.92-2.18-.76-3.12,2.7-.95,3.45h0Z"/>
      </g>
    </g>
  </g>
  <text class="cls-1" transform="translate(48.26 321.94) rotate(-.21)"><tspan x="0" y="0">幸運星</tspan></text>
</svg>