<?xml version="1.0" encoding="UTF-8"?>
<svg id="_圖層_1" data-name="圖層 1" xmlns="http://www.w3.org/2000/svg" xmlns:xlink="http://www.w3.org/1999/xlink" viewBox="0 0 394.87 607.59">
  <defs>
    <style>
      .cls-1 {
        fill: url(#linear-gradient);
      }

      .cls-1, .cls-2, .cls-3, .cls-4, .cls-5, .cls-6, .cls-7, .cls-8 {
        stroke-width: 0px;
      }

      .cls-9 {
        font-family: EmilyAustin, 'Emily Austin';
        font-size: 32.82px;
        letter-spacing: .2em;
      }

      .cls-9, .cls-8 {
        fill: #edd848;
      }

      .cls-10 {
        stroke: #4f4186;
        stroke-linecap: round;
        stroke-width: 4px;
      }

      .cls-10, .cls-11, .cls-12 {
        fill: none;
        stroke-miterlimit: 10;
      }

      .cls-13 {
        font-family: KaiseiTokumin-ExtraBold, 'Kaisei Tokumin';
        font-size: 39.84px;
        font-weight: 700;
        letter-spacing: .1em;
      }

      .cls-13, .cls-3 {
        fill: #4f4186;
      }

      .cls-11 {
        stroke: #cebbdb;
        stroke-width: 1.13px;
      }

      .cls-2 {
        fill: #8378b4;
      }

      .cls-4 {
        fill: #b38fc0;
      }

      .cls-5 {
        fill: #cebbdb;
      }

      .cls-6 {
        fill: #fff;
      }

      .cls-7 {
        fill: #e6d2c7;
      }

      .cls-12 {
        stroke: url(#linear-gradient-2);
        stroke-width: 1.81px;
      }
    </style>
    <linearGradient id="linear-gradient" x1="-3113.68" y1="5344.78" x2="-3324.15" y2="5674.51" gradientTransform="translate(3421.6 -5422.85)" gradientUnits="userSpaceOnUse">
      <stop offset="0" stop-color="#9381bb"/>
      <stop offset="1" stop-color="#5a479a"/>
    </linearGradient>
    <linearGradient id="linear-gradient-2" x1="460.17" y1="-3537.96" x2="297.48" y2="-3140.85" gradientTransform="translate(-839.62 3421.2) rotate(10.27)" xlink:href="#linear-gradient"/>
  </defs>
  <g>
    <g>
      <g>
        <path class="cls-1" d="m44.02,8.41h169.15c14.93,0,27.06,12.12,27.06,27.06v334.79c0,14.93-12.12,27.06-27.06,27.06H44.02c-14.93,0-27.06-12.12-27.06-27.06V35.47c0-14.93,12.12-27.06,27.06-27.06Z" transform="translate(276.52 392.1) rotate(174.35)"/>
        <rect class="cls-12" x="16.96" y="8.41" width="223.26" height="388.91" rx="27.06" ry="27.06" transform="translate(-19.33 13.63) rotate(-5.65)"/>
        <rect class="cls-11" x="32.78" y="26.01" width="191.95" height="356.97" rx="24.04" ry="24.04" transform="translate(277 395.33) rotate(174.35)"/>
      </g>
      <path class="cls-5" d="m173.64,194.77c-5.48,2.04-7.34-.81-12.16.51-5.64,1.55-4.16,4.34-8.5,6.96-.98.59-1.96.91-2.94,1.07.28.11.57.2.88.28,5.17,1.27,6.25-1.94,11.73-.93,5.28.97,5.13,3.97,10.93,5.42,5.8,1.45,6.24-3.81,13.05-1.1-6.52-1.19-6.95,3.16-12.45,3.58-5.85.04-6.62-3.27-11.6-3.68-5.83-.47-5.39,2.65-10.37,3.63-1.12.22-2.16.19-3.13,0,.22.2.46.38.73.56,4.42,2.96,6.54.31,11.34,3.13,4.63,2.72,3.46,5.49,8.41,8.83,4.96,3.34,7.16-1.45,12.64,3.43-5.72-3.35-7.61.59-12.92-.89-5.51-1.96-5.1-5.34-9.65-7.43-5.32-2.44-5.97.65-10.99-.13-1.13-.18-2.09-.56-2.94-1.07.14.26.3.52.49.78,3.15,4.29,6.04,2.53,9.58,6.82,3.42,4.14,1.38,6.34,4.89,11.17,3.52,4.84,7.23,1.09,10.7,7.54-4.23-5.1-7.35-2.04-11.83-5.26-4.51-3.73-2.96-6.76-6.52-10.28-4.16-4.11-5.84-1.43-10.28-3.88-1-.55-1.77-1.25-2.4-2.01.04.29.11.59.2.9,1.49,5.11,4.81,4.44,6.67,9.69,1.8,5.06-.88,6.43.77,12.17,1.65,5.75,6.42,3.49,7.48,10.75-2.23-6.24-6.21-4.44-9.32-8.99-2.96-5.05-.47-7.37-2.61-11.89-2.5-5.29-4.99-3.34-8.33-7.16-.75-.86-1.24-1.78-1.57-2.71-.06.29-.1.59-.12.91-.35,5.31,3,5.82,2.95,11.39-.04,5.37-3.02,5.74-3.44,11.7-.42,5.97,4.84,5.48,3.35,12.66.04-6.63-4.32-6.29-5.68-11.64-1.06-5.76,2.08-7.09,1.61-12.07-.54-5.82-3.55-4.85-5.38-9.58-.41-1.07-.56-2.09-.55-3.08-.15.25-.3.52-.43.82-2.15,4.87.83,6.49-1.12,11.71-1.87,5.03-4.8,4.36-7.23,9.82-2.43,5.46,2.67,6.8-1.18,13.04,2.3-6.22-1.91-7.39-1.36-12.88.98-5.77,4.37-5.95,5.64-10.79,1.48-5.66-1.68-5.77-1.77-10.84-.02-1.14.19-2.16.54-3.08-.23.18-.46.39-.68.62-3.68,3.84-1.45,6.38-5.06,10.62-3.48,4.08-6.01,2.46-10.15,6.75-4.15,4.3.18,7.31-5.57,11.85,4.29-5.05.74-7.59,3.12-12.57,2.89-5.09,6.15-4.09,8.99-8.21,3.33-4.81.4-6,2.04-10.79.37-1.08.92-1.96,1.56-2.71-.28.09-.56.21-.85.35-4.77,2.35-3.54,5.51-8.38,8.25-4.67,2.65-6.49.25-11.85,2.87-5.38,2.62-2.33,6.93-9.29,9.23,5.76-3.28,3.29-6.88,7.23-10.74,4.46-3.79,7.18-1.75,11.26-4.64,4.77-3.38,2.42-5.5,5.61-9.45.72-.89,1.53-1.53,2.39-2.01-.3,0-.6,0-.92.04-5.29.58-5.21,3.96-10.7,4.89-5.29.89-6.18-1.98-12.12-1.35-5.95.63-4.56,5.72-11.88,5.5,6.53-1.11,5.45-5.34,10.47-7.62,5.48-2.04,7.34.81,12.16-.51,5.64-1.55,4.16-4.34,8.5-6.96.98-.59,1.96-.91,2.94-1.07-.27-.11-.57-.2-.88-.28-5.17-1.27-6.25,1.94-11.73.93-5.28-.97-5.13-3.97-10.93-5.42-5.8-1.45-6.24,3.81-13.05,1.1,6.52,1.19,6.95-3.16,12.45-3.58,5.85-.04,6.62,3.27,11.6,3.68,5.83.47,5.39-2.65,10.37-3.63,1.12-.22,2.16-.19,3.13,0-.22-.2-.46-.38-.73-.56-4.42-2.96-6.54-.31-11.34-3.13-4.63-2.72-3.46-5.49-8.41-8.83-4.96-3.34-7.16,1.45-12.64-3.43,5.72,3.35,7.61-.59,12.92.89,5.51,1.96,5.1,5.34,9.65,7.43,5.32,2.44,5.97-.65,10.98.13,1.13.18,2.09.56,2.94,1.07-.14-.26-.3-.52-.49-.78-3.15-4.29-6.04-2.53-9.58-6.82-3.42-4.14-1.38-6.34-4.89-11.17-3.52-4.84-7.23-1.09-10.7-7.54,4.23,5.1,7.35,2.04,11.83,5.26,4.51,3.73,2.97,6.76,6.52,10.28,4.16,4.11,5.84,1.43,10.28,3.88,1,.55,1.77,1.24,2.4,2.01-.04-.29-.11-.59-.2-.9-1.49-5.11-4.81-4.44-6.67-9.69-1.8-5.06.88-6.43-.77-12.17-1.65-5.75-6.42-3.49-7.48-10.75,2.23,6.24,6.21,4.44,9.32,8.99,2.96,5.05.47,7.37,2.61,11.89,2.5,5.29,4.99,3.34,8.33,7.16.75.86,1.24,1.78,1.57,2.71.06-.29.1-.59.12-.91.35-5.31-3-5.82-2.95-11.39.04-5.37,3.02-5.74,3.44-11.7.42-5.97-4.84-5.48-3.35-12.66-.04,6.63,4.32,6.29,5.68,11.64,1.06,5.76-2.08,7.09-1.61,12.07.54,5.82,3.55,4.85,5.38,9.58.41,1.07.56,2.09.55,3.08.15-.25.3-.52.43-.82,2.14-4.87-.83-6.49,1.12-11.71,1.87-5.03,4.8-4.36,7.23-9.82,2.43-5.46-2.67-6.8,1.18-13.04-2.3,6.22,1.91,7.39,1.36,12.88-.98,5.77-4.37,5.95-5.64,10.79-1.48,5.66,1.68,5.77,1.77,10.84.02,1.14-.19,2.16-.54,3.08.23-.18.46-.39.68-.62,3.68-3.84,1.45-6.38,5.05-10.62,3.48-4.08,6.01-2.46,10.16-6.75,4.15-4.3-.18-7.31,5.57-11.85-4.29,5.05-.74,7.59-3.12,12.57-2.89,5.09-6.15,4.09-8.99,8.21-3.33,4.81-.4,6-2.04,10.79-.37,1.08-.92,1.96-1.56,2.71.28-.09.56-.21.85-.35,4.77-2.35,3.54-5.5,8.38-8.25,4.67-2.65,6.49-.25,11.85-2.87,5.38-2.62,2.33-6.93,9.29-9.23-5.76,3.28-3.29,6.88-7.23,10.74-4.46,3.79-7.18,1.75-11.25,4.64-4.77,3.38-2.42,5.5-5.61,9.45-.72.89-1.53,1.53-2.4,2.01.3,0,.6,0,.92-.04,5.29-.58,5.21-3.96,10.7-4.89,5.29-.89,6.18,1.98,12.12,1.35,5.95-.63,4.56-5.72,11.88-5.5-6.53,1.11-5.45,5.34-10.47,7.62Zm-27.12,7.76c-.9-9.59-9.4-16.64-18.99-15.74-9.59.9-16.64,9.4-15.74,18.99.9,9.59,9.4,16.64,18.99,15.74,9.59-.9,16.64-9.4,15.74-18.99Zm-5.75.54c-.6-6.41-6.29-11.13-12.7-10.53-6.41.6-11.13,6.29-10.53,12.7.6,6.41,6.29,11.13,12.7,10.53,6.41-.6,11.13-6.29,10.53-12.7Z"/>
      <path class="cls-5" d="m123.71,309.85c.79,8.39,8.22,14.56,16.61,13.77,8.39-.79,14.56-8.22,13.77-16.61-.23-2.46-1.05-4.73-2.28-6.69,4.68,3.38,7.95,8.66,8.53,14.86,1.07,11.39-7.3,21.49-18.69,22.55-11.39,1.07-21.49-7.3-22.55-18.69-.58-6.2,1.65-12,5.62-16.18-.85,2.15-1.23,4.53-1,6.99Z"/>
      <g>
        <path class="cls-5" d="m136.23,291.18l2.65,16.96-.54-17.15c0-.31-.28-.55-.59-.52l-1.04.1c-.31.03-.53.31-.48.62Z"/>
        <path class="cls-5" d="m137.91,286.37l-2.65-16.96.54,17.15c0,.31.28.55.59.52l1.04-.1c.31-.03.53-.31.48-.62Z"/>
        <path class="cls-5" d="m134.65,287.96l-10.95,2.07h11.15c.32,0,.57-.27.54-.59l-.09-1c-.03-.32-.32-.54-.64-.48Z"/>
        <path class="cls-5" d="m139.49,289.59l10.95-2.07h-11.15c-.32,0-.57.27-.54.59l.09,1c.03.32.32.54.64.48Z"/>
      </g>
      <g>
        <path class="cls-5" d="m174.74,302.87l1.49,7.88v-8.01c0-.23-.2-.41-.42-.39l-.72.07c-.23.02-.39.23-.34.46Z"/>
        <path class="cls-5" d="m175.92,299.39l-1.49-7.88v8.01c0,.23.2.41.42.39l.72-.07c.23-.02.39-.23.34-.46Z"/>
        <path class="cls-5" d="m173.59,300.54l-7.88,1.49h8.01c.23,0,.41-.2.39-.42l-.07-.72c-.02-.23-.23-.39-.46-.34Z"/>
        <path class="cls-5" d="m177.07,301.72l7.88-1.49h-8.01c-.23,0-.41.2-.39.42l.07.72c.02.23.23.39.46.34Z"/>
      </g>
      <g>
        <path class="cls-5" d="m102.66,309.62v8.01s-1.49-7.88-1.49-7.88c-.04-.22.12-.44.34-.46l.72-.07c.23-.02.42.16.42.39Z"/>
        <path class="cls-5" d="m100.86,306.41v-8.01s1.49,7.88,1.49,7.88c.04.22-.12.44-.34.46l-.72.07c-.23.02-.42-.16-.42-.39Z"/>
        <path class="cls-5" d="m103.36,307.11h8.01s-7.88,1.49-7.88,1.49c-.22.04-.44-.12-.46-.34l-.07-.72c-.02-.23.16-.42.39-.42Z"/>
        <path class="cls-5" d="m100.16,308.91h-8.01s7.88-1.49,7.88-1.49c.22-.04.44.12.46.34l.07.72c.02.23-.16.42-.39.42Z"/>
      </g>
      <g>
        <path class="cls-5" d="m72.82,289.52c8.01-.75,13.9-7.85,13.15-15.87-.59-6.28-5.09-11.24-10.86-12.74.21-.03.41-.07.62-.09,9.56-.89,18.03,6.13,18.93,15.69.89,9.56-6.13,18.03-15.69,18.93-7.34.69-14.03-3.31-17.15-9.52,2.91,2.57,6.83,3.99,11,3.6Z"/>
        <g>
          <path class="cls-5" d="m69.7,261.83l-.94-6.01.19,6.08c0,.11.1.19.21.18l.37-.03c.11-.01.19-.11.17-.22Z"/>
          <path class="cls-5" d="m69.11,263.54l.94,6.01-.19-6.08c0-.11-.1-.19-.21-.18l-.37.03c-.11.01-.19.11-.17.22Z"/>
          <path class="cls-5" d="m70.27,262.97l3.88-.73h-3.95c-.11,0-.2.1-.19.21l.03.35c.01.11.11.19.23.17Z"/>
          <path class="cls-5" d="m68.55,262.39l-3.88.73h3.95c.11,0,.2-.1.19-.21l-.03-.35c-.01-.11-.12-.19-.23-.17Z"/>
        </g>
        <path class="cls-5" d="m60.85,271.35c.03.3.3.53.6.5s.53-.3.5-.6-.3-.53-.6-.5-.53.3-.5.6Z"/>
        <path class="cls-5" d="m60.12,283.2c.12.28.45.41.73.29s.41-.45.29-.73c-.12-.28-.45-.41-.73-.29s-.41.45-.29.73Z"/>
        <circle class="cls-5" cx="63.91" cy="267.12" r="1.05"/>
        <g>
          <path class="cls-5" d="m60.71,277.16l2.91-.55h-2.96c-.08,0-.15.07-.14.16l.02.27c0,.08.09.14.17.13Z"/>
          <path class="cls-5" d="m59.42,276.73l-2.91.55h2.96c.08,0,.15-.07.14-.16l-.02-.27c0-.08-.09-.14-.17-.13Z"/>
          <path class="cls-5" d="m59.85,277.59l.55,2.91v-2.96c0-.08-.07-.15-.16-.14l-.27.02c-.08,0-.14.09-.13.17Z"/>
          <path class="cls-5" d="m60.28,276.3l-.55-2.91v2.96c0,.08.07.15.16.14l.27-.02c.08,0,.14-.09.13-.17Z"/>
        </g>
      </g>
      <g>
        <path class="cls-5" d="m200.34,277.59c-8.01.75-15.12-5.14-15.87-13.15-.59-6.28,2.91-11.99,8.31-14.53-.21.01-.41,0-.62.03-9.56.89-16.58,9.37-15.69,18.93s9.37,16.58,18.93,15.69c7.34-.69,13.17-5.85,15.08-12.54-2.38,3.07-5.97,5.19-10.14,5.58Z"/>
        <g>
          <path class="cls-5" d="m198.26,249.8l-.19-6.08.94,6.01c.02.11-.06.21-.17.22l-.37.03c-.11.01-.21-.07-.21-.18Z"/>
          <path class="cls-5" d="m199.17,251.37l.19,6.08-.94-6.01c-.02-.11.06-.21.17-.22l.37-.03c.11-.01.2.07.21.18Z"/>
          <path class="cls-5" d="m197.92,251.03h-3.95s3.88-.73,3.88-.73c.11-.02.22.06.23.17l.03.35c.01.11-.08.21-.19.21Z"/>
          <path class="cls-5" d="m199.51,250.14h3.95s-3.88.73-3.88.73c-.11.02-.22-.06-.23-.17l-.03-.35c-.01-.11.08-.21.19-.21Z"/>
        </g>
        <path class="cls-5" d="m208.73,257.51c.03.3-.2.57-.5.6s-.57-.2-.6-.5.19-.57.5-.6.57.2.6.5Z"/>
        <path class="cls-5" d="m211.65,269.02c-.07.3-.36.49-.66.42s-.49-.36-.42-.66.36-.49.66-.42c.3.07.49.36.42.66Z"/>
        <path class="cls-5" d="m205.99,253.83c.05.58-.37,1.09-.95,1.15s-1.09-.37-1.15-.95.37-1.09.95-1.15,1.09.37,1.15.95Z"/>
        <g>
          <path class="cls-5" d="m209.95,263.2h-2.96s2.91-.55,2.91-.55c.08-.02.16.04.17.13l.02.27c0,.08-.06.16-.14.16Z"/>
          <path class="cls-5" d="m211.13,262.53h2.96s-2.91.55-2.91.55c-.08.02-.16-.04-.17-.13l-.02-.27c0-.08.06-.16.14-.16Z"/>
          <path class="cls-5" d="m210.87,263.45v2.96s-.55-2.91-.55-2.91c-.02-.08.04-.16.13-.17l.27-.02c.08,0,.16.06.16.14Z"/>
          <path class="cls-5" d="m210.21,262.27v-2.96s.55,2.91.55,2.91c.02.08-.04.16-.13.17l-.27.02c-.08,0-.16-.06-.16-.14Z"/>
        </g>
      </g>
      <circle class="cls-5" cx="142.35" cy="345.23" r="1.05"/>
      <path class="cls-5" d="m141.49,341.99c.03.3.3.53.6.5s.53-.3.5-.6-.3-.53-.6-.5-.53.3-.5.6Z"/>
      <path class="cls-5" d="m148.55,343.95c.2.55.81.82,1.35.62.55-.2.82-.81.62-1.35-.2-.55-.81-.82-1.35-.62-.55.2-.82.81-.62,1.35Z"/>
      <path class="cls-5" d="m147.87,340.69c.11.29.42.43.71.33.29-.11.43-.42.33-.71s-.42-.43-.71-.33-.43.42-.33.71Z"/>
      <path class="cls-5" d="m155.2,340.75c.34.47.99.59,1.47.25s.59-.99.25-1.47c-.34-.47-.99-.59-1.47-.25-.47.34-.59.99-.25,1.47Z"/>
      <path class="cls-5" d="m153.7,337.77c.18.25.52.31.77.13.25-.18.31-.52.13-.77-.18-.25-.52-.31-.77-.13-.25.18-.31.52-.13.77Z"/>
      <path class="cls-5" d="m160.8,335.94c.45.37,1.11.31,1.48-.14s.31-1.11-.14-1.48-1.11-.31-1.48.14c-.37.45-.31,1.11.14,1.48Z"/>
      <circle class="cls-5" cx="158.93" cy="333.02" r=".55"/>
      <path class="cls-5" d="m164.95,329.84c.53.24,1.15.01,1.4-.52.24-.53.01-1.15-.52-1.4-.53-.24-1.15-.01-1.4.52-.24.53-.01,1.15.52,1.4Z"/>
      <path class="cls-5" d="m162.16,328.01c.28.13.61,0,.73-.27.13-.28,0-.61-.27-.73s-.61,0-.73.27c-.13.28,0,.61.27.73Z"/>
      <path class="cls-5" d="m167.39,322.88c.57.1,1.12-.29,1.22-.86.1-.57-.29-1.12-.86-1.22-.57-.1-1.12.29-1.22.86-.1.57.29,1.12.86,1.22Z"/>
      <path class="cls-5" d="m164.22,321.83c.3.05.59-.15.64-.45s-.15-.59-.45-.64-.59.15-.64.45.15.59.45.64Z"/>
      <circle class="cls-5" cx="167.84" cy="314.47" r="1.05"/>
      <path class="cls-5" d="m164.61,315.33c.3-.03.53-.3.5-.6s-.3-.53-.6-.5-.53.3-.5.6.3.53.6.5Z"/>
      <path class="cls-5" d="m136.02,345.13c-.1.57-.64.96-1.22.86-.57-.1-.96-.64-.86-1.22s.64-.96,1.22-.86c.57.1.96.64.86,1.22Z"/>
      <path class="cls-5" d="m136.08,341.79c-.05.3-.34.5-.64.45s-.5-.34-.45-.64c.05-.3.34-.5.64-.45.3.05.5.34.45.64Z"/>
      <path class="cls-5" d="m128.89,343.21c-.24.53-.87.76-1.4.52-.53-.24-.76-.87-.52-1.4.24-.53.87-.76,1.4-.52.53.24.76.87.52,1.4Z"/>
      <path class="cls-5" d="m129.81,340.01c-.13.28-.46.4-.73.27-.28-.13-.4-.46-.27-.73.13-.28.46-.4.73-.27.28.13.4.46.27.73Z"/>
      <path class="cls-5" d="m122.5,339.52c-.37.45-1.04.51-1.48.14-.45-.37-.51-1.04-.14-1.48.37-.45,1.04-.51,1.48-.14s.51,1.04.14,1.48Z"/>
      <path class="cls-5" d="m124.22,336.66c-.19.24-.54.27-.78.07-.24-.2-.27-.54-.07-.78.19-.24.54-.27.78-.07.24.19.27.54.07.78Z"/>
      <path class="cls-5" d="m117.29,334.3c-.47.34-1.13.22-1.47-.25-.34-.47-.22-1.13.25-1.47.47-.34,1.13-.22,1.47.25.34.47.22,1.13-.25,1.47Z"/>
      <path class="cls-5" d="m119.69,331.98c-.25.18-.59.12-.77-.13s-.12-.59.13-.77c.25-.18.59-.12.77.13.18.25.12.59-.13.77Z"/>
      <path class="cls-5" d="m113.6,327.91c-.55.2-1.15-.08-1.35-.62-.2-.55.08-1.15.62-1.35.55-.2,1.15.08,1.35.62.2.55-.08,1.15-.62,1.35Z"/>
      <path class="cls-5" d="m116.52,326.29c-.29.11-.6-.04-.71-.33s.04-.6.33-.71c.29-.11.6.04.71.33.11.29-.04.6-.33.71Z"/>
      <path class="cls-5" d="m111.69,320.78c-.58.05-1.09-.37-1.15-.95s.37-1.09.95-1.15,1.09.37,1.15.95-.37,1.09-.95,1.15Z"/>
      <path class="cls-5" d="m154.34,288.22c-.58.05-1.09-.37-1.15-.95s.37-1.09.95-1.15,1.09.37,1.15.95-.37,1.09-.95,1.15Z"/>
      <path class="cls-5" d="m114.93,319.98c-.3.03-.57-.2-.6-.5s.19-.57.5-.6.57.2.6.5-.2.57-.5.6Z"/>
      <path class="cls-5" d="m158.34,287.34c-.3.03-.57-.19-.6-.5s.19-.57.5-.6.57.19.6.5-.2.57-.5.6Z"/>
      <path class="cls-5" d="m119.99,291.43c.58-.05,1-.57.95-1.15s-.57-1-1.15-.95-1,.57-.95,1.15.57,1.01,1.15.95Z"/>
      <path class="cls-5" d="m115.9,291.31c.3-.03.53-.3.5-.6s-.3-.53-.6-.5-.53.3-.5.6.3.53.6.5Z"/>
      <g>
        <path class="cls-5" d="m57.95,130.54c8.01-.75,15.12,5.14,15.87,13.15.59,6.28-2.91,11.99-8.31,14.53.21-.01.41,0,.62-.03,9.56-.89,16.58-9.37,15.69-18.93s-9.37-16.58-18.93-15.69c-7.34.69-13.17,5.85-15.08,12.54,2.38-3.07,5.97-5.19,10.14-5.58Z"/>
        <g>
          <path class="cls-5" d="m60.02,158.33l.19,6.08-.94-6.01c-.02-.11.06-.21.17-.22l.37-.03c.11-.01.21.07.21.18Z"/>
          <path class="cls-5" d="m59.12,156.76l-.19-6.08.94,6.01c.02.11-.06.21-.17.22l-.37.03c-.11.01-.21-.07-.21-.18Z"/>
          <path class="cls-5" d="m60.36,157.1h3.95s-3.88.73-3.88.73c-.11.02-.22-.06-.23-.17l-.03-.35c-.01-.11.08-.21.19-.21Z"/>
          <path class="cls-5" d="m58.78,157.99h-3.95s3.88-.73,3.88-.73c.11-.02.22.06.23.17l.03.35c.01.11-.08.21-.19.21Z"/>
        </g>
        <path class="cls-5" d="m49.55,150.62c-.03-.3.19-.57.5-.6s.57.19.6.5-.2.57-.5.6-.57-.19-.6-.5Z"/>
        <path class="cls-5" d="m46.64,139.11c.07-.3.36-.49.66-.42.3.07.49.36.42.66-.07.3-.36.49-.66.42-.3-.07-.49-.36-.42-.66Z"/>
        <path class="cls-5" d="m52.3,154.3c-.05-.58.37-1.09.95-1.15.58-.05,1.09.37,1.15.95s-.37,1.09-.95,1.15-1.09-.37-1.15-.95Z"/>
        <g>
          <path class="cls-5" d="m48.33,144.94h2.96s-2.91.55-2.91.55c-.08.02-.16-.04-.17-.13l-.02-.27c0-.08.06-.16.14-.16Z"/>
          <path class="cls-5" d="m47.15,145.6h-2.96s2.91-.55,2.91-.55c.08-.02.16.04.17.13l.02.27c0,.08-.06.16-.14.16Z"/>
          <path class="cls-5" d="m47.41,144.68v-2.96s.55,2.91.55,2.91c.02.08-.04.16-.13.17l-.27.02c-.08,0-.16-.06-.16-.14Z"/>
          <path class="cls-5" d="m48.07,145.86v2.96s-.55-2.91-.55-2.91c-.02-.08.04-.16.13-.17l.27-.02c.08,0,.16.06.16.14Z"/>
        </g>
      </g>
      <g>
        <path class="cls-5" d="m185.46,118.61c-8.01.75-13.9,7.85-13.15,15.87.59,6.28,5.09,11.24,10.86,12.74-.21.03-.41.07-.62.09-9.56.89-18.03-6.13-18.93-15.69s6.13-18.03,15.69-18.93c7.34-.69,14.03,3.31,17.15,9.52-2.91-2.57-6.83-3.99-11-3.6Z"/>
        <g>
          <path class="cls-5" d="m188.58,146.3l.94,6.01-.19-6.08c0-.11-.1-.19-.21-.18l-.37.03c-.11.01-.19.11-.17.22Z"/>
          <path class="cls-5" d="m189.17,144.59l-.94-6.01.19,6.08c0,.11.1.19.21.18l.37-.03c.11-.01.19-.11.17-.22Z"/>
          <path class="cls-5" d="m188.02,145.16l-3.88.73h3.95c.11,0,.2-.1.19-.21l-.03-.35c-.01-.11-.12-.19-.23-.17Z"/>
          <path class="cls-5" d="m189.74,145.74l3.88-.73h-3.95c-.11,0-.2.1-.19.21l.03.35c.01.11.12.19.23.17Z"/>
        </g>
        <path class="cls-5" d="m197.44,136.78c-.03-.3-.3-.53-.6-.5s-.53.3-.5.6.3.53.6.5.53-.3.5-.6Z"/>
        <path class="cls-5" d="m198.16,124.93c-.12-.28-.45-.41-.73-.29-.28.12-.41.45-.29.73s.45.41.73.29c.28-.12.41-.45.29-.73Z"/>
        <path class="cls-5" d="m195.42,140.91c-.05-.58-.57-1-1.15-.95s-1,.57-.95,1.15.57,1.01,1.15.95,1.01-.57.95-1.15Z"/>
        <g>
          <path class="cls-5" d="m197.58,130.97l-2.91.55h2.96c.08,0,.15-.07.14-.16l-.02-.27c0-.08-.09-.14-.17-.13Z"/>
          <path class="cls-5" d="m198.86,131.4l2.91-.55h-2.96c-.08,0-.15.07-.14.16l.02.27c0,.08.09.14.17.13Z"/>
          <path class="cls-5" d="m198.44,130.55l-.55-2.91v2.96c0,.08.07.15.16.14l.27-.02c.08,0,.14-.09.13-.17Z"/>
          <path class="cls-5" d="m198,131.83l.55,2.91v-2.96c0-.08-.07-.15-.16-.14l-.27.02c-.08,0-.14.09-.13.17Z"/>
        </g>
      </g>
      <g>
        <g>
          <text class="cls-9" transform="translate(67.96 111.73) rotate(-5.65) scale(.86 1)"><tspan x="0" y="0">Stars</tspan></text>
          <g>
            <g>
              <path class="cls-6" d="m87.71,90.93l-2.33-2.14c-.19-.18-.41-.24-.69-.21-.21.02-.41.12-.57.33l-1.87,2.56-4.38.43-.42-4.23,6.87-.68c.42-.04.6-.34.55-.85-.02-.2-.15-.42-.46-.67l-1.72-1.61c-.2-.22-.42-.31-.63-.29-.25.02-.44.16-.63.42l-1.37,1.91-2.77.27-.36-3.6,9-.89c.42-.04.64-.3.6-.77-.02-.2-.22-.45-.53-.74l-2.34-2.18c-.2-.22-.42-.31-.63-.29-.25.02-.44.16-.63.42l-1.83,2.55-3.78.37-.3-3.02s.02-.12.09-.13c.3-.23.41-.52.41-.91-.03-.67-.38-.99-.98-.93l-4.23.18c-.28-.01-.41.16-.37.55l.47,4.74-4.55.45c.41-.87.78-1.82,1.13-2.88.03-.08.09-.13.16-.13.53-.05.81-.36.79-.95-.01-.47-.29-.76-.76-.87l-4.44-.59c-.4-.12-.6.06-.62.54-.12,3.1-.92,6.78-2.44,11.08-.02.12-.05.2-.04.28.03.35.22.41.51.19,2.08-1.51,3.68-3.17,4.81-5.02l5.61-.55.32,3.61-4.8.47c-.42.04-.64.3-.6.77.05.51.32.76.74.72l4.8-.47.42,4.23-9.6.95c-.42.04-.61.3-.56.81s.28.72.7.68l24.17-2.39c.42-.04.61-.3.56-.73-.02-.24-.19-.5-.5-.78Z"/>
              <path class="cls-6" d="m64.63,75.34l3.29-.76c.21-.06.4-.2.55-.49.18-.3.23-.58.17-.81l-.05-.51,9.67-.96.05.87c.02.23.11.42.3.56.16.14.34.2.54.14l2.84-.6c.69-.15,1.02-.81.9-1.99l-.46-6.44.69-.86c.19-.26.27-.46.25-.7-.02-.2-.14-.38-.37-.56l-2.65-2.15c-.19-.14-.41-.24-.66-.21-.32.03-.52.13-.68.3l-1.77,2.15-9.7.96-4.47-1.18c-.07-.03-.14-.03-.25-.01-.32.03-.47.28-.42.71l1.38,11.81c.06.59.33.84.85.71Zm12.97-11.53l.21,2.47.11,1.49.18,2.55-9.67.96-.32-2.54-.18-1.48-.28-2.46,9.95-.98Z"/>
            </g>
            <path class="cls-6" d="m122.02,70.97l.71,8.02c.09,1.28-.34,2.01-1.22,2.24l-2.72.73c-.6.15-.92-.14-.99-.91l-.11-1.09-4.11.41.25,6.32,3.42-.34,1.91-2.3c.22-.3.49-.46.73-.49s.5.09.77.29l2.9,2.33c.22.16.33.43.36.7.03.32-.03.55-.21.76l-.78.86c.1,3.94-.04,7.09-.43,9.33-.18,1.12-.62,2.04-1.29,2.79-.71.76-1.53,1.21-2.5,1.3s-1.58-.21-1.97-.82c-.1-.22-.33-.8-.59-1.78-.23-.71-.56-1.09-1.02-1.14l-2-.26c-.42-.05-.6-.26-.63-.58-.04-.36.15-.57.6-.61l2.48-.25c.61-.06,1.01-.15,1.13-.2.31-.21.48-.55.59-1.07.16-1.26.21-3.65.12-7.14l-3.54.35.07.68c-.14.7-.43,1.1-.87,1.19l-3.11.54c-.53,0-.85-.28-.88-.97l-.47-11.82c-.06-.59.21-.8.72-.62l4.15,1.2,4.03-.4-.67-7.57-8.06.8c-.49.05-.76-.25-.82-.84-.05-.55.16-.84.65-.89l7.74-.76,1.78-2.38c.18-.25.46-.37.78-.4s.62.03.89.23l2.76,2.12c.26.16.41.37.43.65s-.07.56-.29.86l-.69.94Zm15.74,1.53c-.11.1-.18.29-.15.52l2.01,20.31c.09.96,0,1.66-.33,2.1-.33.4-.92.69-1.81.82l-2.75.46c-.28.07-.54-.04-.76-.25-.23-.25-.38-.51-.41-.83l-2.43-24.59c-.04-.36.11-.56.48-.6l5.44-.31c.29-.03.54.08.77.34.24.3.34.56.33.89.04.46-.08.84-.38,1.14Z"/>
            <path class="cls-6" d="m169.85,63.99c.42,6.19.49,11.71.3,16.56-.09,1.46-.41,2.63-1.06,3.62-.68,1.08-1.64,1.65-2.85,1.77-.89.09-1.54-.11-1.95-.64-.09-.12-.4-.84-.91-2.1-.31-.76-.98-1.18-2.01-1.29l-1.63-.19c-.56-.12-.82-.36-.82-.75.04-.4.29-.6.84-.65l3.23-.23c.62-.06,1.08-.24,1.27-.61.21-.28.32-.78.32-1.48.05-5.05-.09-9.69-.44-13.96l-7.42.73c.17,6.04-.72,10.96-2.71,14.66-1.59,2.97-4.45,5.79-8.58,8.48-.55.41-.94.44-1.12.15-.18-.2-.16-.47.04-.75,2.75-3.91,4.58-7.65,5.53-11.17.76-3.02,1.04-6.6.77-10.83l-7.55.7c-.47.05-.7-.28-.76-.98-.06-.57.15-.85.62-.9l7.58-.71c-.22-2.66-.55-5.91-.93-9.78-.05-.52.16-.81.58-.85l5.05-.1c.98,0,1.52.33,1.64,1.07.11.74-.11,1.28-.74,1.61-.11.05-.14.15-.13.28.19,1.91.35,4.31.55,7.19l6.84-.68,2.35-2.87c.17-.24.44-.35.79-.38.43-.04.79.05,1.13.33l2.73,2.19c.25.19.4.44.43.75.03.35-.06.62-.26.9l-.73.91Z"/>
          </g>
        </g>
        <path class="cls-7" d="m97.66,80.98c.01-1.06.78-1.87,1.72-1.79s1.69.99,1.68,2.06c-.01,1.06-.78,1.87-1.72,1.79-.94-.07-1.69-.99-1.68-2.06Z"/>
        <path class="cls-7" d="m97.19,78.84c.09.09.1.24.02.33-.07.09-.2.1-.29.01l-9.44-9.52s0,0,0,0c-.09-.09-.1-.24-.02-.33.07-.09.2-.1.29-.01l9.44,9.52s0,0,0,0Z"/>
        <path class="cls-7" d="m158.79,94.3c-.92-.29-1.46-1.33-1.19-2.33s1.23-1.58,2.15-1.29c.92.29,1.46,1.33,1.19,2.33-.27,1-1.23,1.58-2.15,1.29Z"/>
        <path class="cls-7" d="m156.83,94.25c.1-.07.23-.04.29.06.07.1.04.25-.05.32l-10.33,7.77s0,0,0,0c-.1.07-.23.04-.29-.06-.07-.1-.04-.25.05-.32l10.33-7.77s0,0,0,0Z"/>
        <polygon class="cls-8" points="76.09 67.89 74.07 67.49 74.37 66.24 73.36 66.95 72.75 64.66 72.6 67.02 71.47 66.53 72.02 67.7 70.11 68.48 72.13 68.87 71.83 70.12 72.84 69.41 73.45 71.71 73.6 69.34 74.73 69.84 74.18 68.67 76.09 67.89"/>
      </g>
    </g>
    <rect class="cls-5" x="142.8" y="206.17" width="223.26" height="388.91" rx="27.06" ry="27.06" transform="translate(432.47 840.56) rotate(-169.61)"/>
    <text class="cls-13" transform="translate(187.16 517.87) rotate(10.39)"><tspan x="0" y="0">晨星</tspan></text>
  </g>
  <g>
    <path class="cls-8" d="m244.16,326.93c-1.37,1.69-3.58,2.43-5.69,1.89-10.52-2.69-41.61-9.44-47.58,2.86-6.81,14.01,8.91,36.87,14.81,44.67,1.27,1.67,1.47,3.92.53,5.8-4.9,9.82-18.91,40.09-9.81,48.32,8.89,8.05,36.09,2.01,45.79-.48,2.11-.54,4.34.2,5.7,1.91,6.87,8.58,28.09,33.29,40.77,28,12.69-5.3,17.27-35.53,18.46-45.63.24-2.01,1.55-3.73,3.43-4.48,9.11-3.68,35.26-15.3,35.38-27.62.14-13.85-28.43-27.99-38.19-32.42-1.94-.88-3.2-2.78-3.25-4.91-.27-10.2-2.47-39.51-18.92-43.87-15.44-4.09-34.94,17.94-41.43,25.96Z"/>
    <path class="cls-4" d="m180.54,429.37c7.9,5.89,16.56,2.93,16.56,2.93,0,0-.42,13.23,12.77,17.67,15.02,5.05,23.82-8.16,23.82-8.16,6.91,4.19,12.58-.12,12.58-.12,0,0-4.01,15.56,10.71,22.33,17.64,8.13,27.07-5.81,27.07-5.81,0,0,2.83,7.59,9.17,6.97,7.48-.73,7.14-9.08,7.14-9.08,7.98,6.75,17.25,3.69,20.06-.84,5.6-9.06-4.54-16.2-4.54-16.2,9.99-11.32,2.28-22.05-8.02-24.92-5.32-1.49-11.35-.87-15.96,2.86-.69-3.83-7.12-3.89-7.12-3.89,2.29-7.74-9.43-25.27-26.64-18.7-5.63,2.15-8.7,5.69-10.34,9.34-.03.03-.07.05-.1.08-.68-3.83-7.12-3.89-7.12-3.89,1.41.01-1.02-7.7-1.28-8.26-1.6-3.4-4.22-6.46-7.4-8.6-15.19-10.23-33.48,4.7-29.57,20.86-3.02-3.21-6.63-4.69-10.24-4.87-3.16-.15-6.33.69-9.12,2.26-8.85,4.99-12.03,19.77-2.42,28.04Z"/>
    <path class="cls-3" d="m248.75,380.85c-1.02-1.83-1.18-4.15-.77-5.83.56-2.25,1.79-4.37,3.65-5.99,1.43-1.25,3.45-2.42,5.63-2.4s3.58,1.84,4.08,3.52c1.14,3.87-.11,8.56-3.08,11.4-1.04.99-2.39,1.79-3.95,2.03-2.44.37-4.5-.81-5.56-2.72Z"/>
    <path class="cls-10" d="m227.67,348.07s4.48,17.56,19.26,5.93"/>
    <path class="cls-10" d="m275.99,361.11s1.36,18.07,17.93,9.18"/>
    <g>
      <path class="cls-2" d="m272.41,326.96s22.5-22.09,41.91-19.83c0,0,6.08.86,6.84,7.63.34,3.06-3.13,5.02-5.58,3.16-1.01-.76-2.2-1.76-3.58-3.06,0,0-3.65,18.67-6.39,28.86-2.73,10.2-33.21-16.76-33.21-16.76Z"/>
      <path class="cls-6" d="m265.28,326.91c1.04-1.5,3.11-2.68,4.91-3.25,2.26-.71,5.53,1.22,6.88,2.94.96,1.23,1.11,2.84.08,3.93,1.83-.49,3.24-2.53,5.42-1.99,2.49.62,4.81,2.21,4.95,4.56,1.14-1.47,3.58-1.88,5.38-.91s3.1,4.14,2.41,5.85c2.36-.1,4.42-1.12,6.69-.3s4.31,2.8,4.3,5c1.85-1.31,4.96.05,5.94,2.15.98,2.1.31,4.48-.88,6.33-.44.69-.97,1.35-1.71,1.78-2.58,1.49-6.38-.85-7.31-3.7-2.26,1.18-5.3,1.06-7.63-.3-2.34-1.36-3.87-3.9-3.84-6.37-1.51,1.69-4.36,2.24-6.6,1.17s-3.57-3.71-2.84-5.83c-2.35,2.35-7.55,1.1-8.76-2.11-2.23,2.1-6.82.76-8.22-2.1s.07-6.29,2.79-7.85"/>
    </g>
    <path class="cls-3" d="m321.5,330c2.11-.91,4.42-1.34,6.71-1.31.29,0,.58.02.87.03.32.02.18.02.11,0,.1.02.23.04.33.08-.15-.06.07.07.07.04,0,.03-.11-.2-.1-.18.04.06.15.2.03.03v.15c.03-.15.03-.13,0,.05-.03.23-.14.38-.39.56-.43.32-.9.49-1.34.67-2.19.9-4.18,2.16-5.79,3.9-.87.94-1.67,2.1-1.47,3.45.23,1.51,1.58,2.23,2.99,2.3s2.84-.18,4.19-.41c1.44-.25,2.86-.62,4.25-1.1.76-.27,1.27-1.03,1.05-1.85-.2-.74-1.08-1.32-1.85-1.05-2.34.82-4.84,1.37-7.33,1.41-.1,0-.21,0-.31,0-.45,0,.11.05-.14-.02-.11-.03-.18-.02-.17-.05.07-.12.38.52.27.32.02.03,0,.15-.03.17.03-.03.07-.26.09-.32.03-.06.27-.39.32-.45.69-.81,1.5-1.53,2.35-2.11s1.81-1.06,2.7-1.43c1.19-.49,2.38-1.05,3.07-2.2.65-1.06.76-2.5.05-3.56-.8-1.18-2.19-1.39-3.51-1.43-2.94-.08-5.83.55-8.52,1.71-.74.32-.91,1.41-.54,2.05.45.77,1.31.86,2.05.54h0Z"/>
    <path class="cls-3" d="m339.19,321.99c2.11-.91,4.42-1.34,6.71-1.31.29,0,.58.02.87.03.32.02.18.02.11,0,.1.02.23.04.33.08-.15-.06.07.07.07.04,0,.03-.11-.2-.1-.18.04.06.15.2.03.03v.15c.03-.15.03-.13,0,.05-.03.23-.14.38-.39.56-.43.32-.9.49-1.34.67-2.19.9-4.18,2.16-5.79,3.9-.87.94-1.67,2.1-1.47,3.45.23,1.51,1.58,2.23,2.99,2.3s2.84-.18,4.19-.41c1.44-.25,2.86-.62,4.25-1.1.76-.27,1.27-1.03,1.05-1.85-.2-.74-1.08-1.32-1.85-1.05-2.34.82-4.84,1.37-7.33,1.41-.1,0-.21,0-.31,0-.45,0,.11.05-.14-.02-.11-.03-.18-.02-.17-.05.07-.12.38.52.27.32.02.03,0,.15-.03.17.03-.03.07-.26.09-.32.03-.06.27-.39.32-.45.69-.81,1.5-1.53,2.35-2.11s1.81-1.06,2.7-1.43c1.19-.49,2.38-1.05,3.07-2.2.65-1.06.76-2.5.05-3.56-.8-1.18-2.19-1.39-3.51-1.43-2.94-.08-5.83.55-8.52,1.71-.74.32-.91,1.41-.54,2.05.45.77,1.31.86,2.05.54h0Z"/>
  </g>
</svg>