<?xml version="1.0" encoding="UTF-8"?>
<svg id="_圖層_1" data-name="圖層 1" xmlns="http://www.w3.org/2000/svg" viewBox="0 0 224.49 389.53">
  <defs>
    <style>
      .cls-1 {
        fill: none;
        stroke: #4f4186;
        stroke-linecap: round;
        stroke-miterlimit: 10;
        stroke-width: 4px;
      }

      .cls-2 {
        font-family: KaiseiTokumin-ExtraBold, 'Kaisei Tokumin';
        font-size: 39.84px;
        font-weight: 700;
        letter-spacing: .1em;
      }

      .cls-2, .cls-3 {
        fill: #4f4186;
      }

      .cls-4 {
        fill: #8378b4;
      }

      .cls-4, .cls-3, .cls-5, .cls-6, .cls-7, .cls-8 {
        stroke-width: 0px;
      }

      .cls-5 {
        fill: #b38fc0;
      }

      .cls-6 {
        fill: #cebbdb;
      }

      .cls-7 {
        fill: #fff;
      }

      .cls-8 {
        fill: #edd848;
      }
    </style>
  </defs>
  <path class="cls-6" d="m27.67.31h169.15c14.93,0,27.06,12.12,27.06,27.06v334.79c0,14.93-12.12,27.06-27.06,27.06H27.67c-14.93,0-27.06-12.12-27.06-27.06V27.37C.61,12.43,12.74.31,27.67.31Z" transform="translate(225.2 389.11) rotate(179.79)"/>
  <path class="cls-8" d="m84.65,118.4c-1.05,1.9-3.1,3.02-5.27,2.86-10.82-.79-42.62-1.96-46.33,11.19-4.24,14.99,15.27,34.72,22.45,41.36,1.54,1.42,2.14,3.6,1.55,5.62-3.09,10.53-11.55,42.8-1.15,49.3,10.17,6.36,35.88-4.38,44.99-8.54,1.98-.91,4.31-.56,5.95.87,8.28,7.24,33.52,27.82,45.07,20.38,11.56-7.45,10.74-38.01,10.13-48.17-.12-2.02.87-3.94,2.58-5.02,8.32-5.22,32.01-21.27,29.96-33.43-2.3-13.66-32.91-22.54-43.31-25.18-2.06-.52-3.64-2.17-4.07-4.26-2.06-10-9.39-38.46-26.35-39.85-15.92-1.31-31.24,23.82-36.21,32.85Z"/>
  <text class="cls-2" transform="translate(69.47 321.94) rotate(-.21)"><tspan x="0" y="0">晨星</tspan></text>
  <path class="cls-5" d="m40.07,230.45c8.81,4.4,16.82-.03,16.82-.03,0,0,1.92,13.1,15.68,15.14,15.68,2.33,22.01-12.23,22.01-12.23,7.54,2.91,12.36-2.33,12.36-2.33,0,0-1.21,16.02,14.47,20.1,18.8,4.89,25.62-10.49,25.62-10.49,0,0,4.12,6.97,10.26,5.24,7.24-2.04,5.43-10.19,5.43-10.19,9.04,5.24,17.63.6,19.6-4.37,3.92-9.9-7.32-15.15-7.32-15.15,7.84-12.91-1.64-22.11-12.29-23.12-5.5-.53-11.33,1.14-15.21,5.62-1.35-3.65-7.69-2.57-7.69-2.57.89-8.02-13.73-23.21-29.52-13.71-5.17,3.11-7.56,7.13-8.53,11.02-.02.03-.06.06-.08.09-1.35-3.65-7.69-2.57-7.69-2.57,1.39-.24-2.36-7.4-2.71-7.9-2.18-3.07-5.29-5.61-8.8-7.16-16.75-7.4-32.12,10.53-25.43,25.75-3.54-2.63-7.36-3.45-10.94-2.99-3.14.4-6.11,1.79-8.58,3.83-7.83,6.47-8.36,21.58,2.56,28.03Z"/>
  <path class="cls-3" d="m98.67,170.67c-1.33-1.62-1.89-3.87-1.78-5.61.15-2.31,1-4.62,2.53-6.54,1.19-1.49,2.97-2.99,5.12-3.35s3.85,1.18,4.63,2.75c1.8,3.61,1.4,8.45-1.02,11.76-.85,1.16-2.04,2.18-3.53,2.69-2.33.79-4.57,0-5.95-1.7Z"/>
  <path class="cls-1" d="m72.15,142.11s7.5,16.5,20,2.44"/>
  <path class="cls-1" d="m122,146.44s4.52,17.55,19.27,5.88"/>
  <g>
    <path class="cls-4" d="m112.46,113.45s18.26-25.71,37.76-26.91c0,0,6.13-.23,8.08,6.3.88,2.95-2.19,5.49-4.93,4.1-1.13-.57-2.47-1.35-4.06-2.38,0,0-.31,19.02-1.2,29.54-.89,10.52-35.64-10.65-35.64-10.65Z"/>
    <path class="cls-7" d="m105.44,114.66c.76-1.66,2.59-3.18,4.26-4.06,2.1-1.1,5.66.23,7.29,1.69,1.16,1.04,1.59,2.6.77,3.85,1.71-.81,2.74-3.06,4.98-2.91,2.56.17,5.13,1.32,5.68,3.62.86-1.65,3.19-2.48,5.13-1.84s3.78,3.52,3.4,5.33c2.31-.52,4.16-1.88,6.53-1.47s4.74,2,5.11,4.17c1.59-1.61,4.89-.83,6.22,1.07,1.33,1.9,1.1,4.35.25,6.39-.31.76-.72,1.5-1.37,2.05-2.28,1.92-6.43.28-7.85-2.35-2.01,1.56-5.03,1.97-7.57,1.05-2.54-.93-4.49-3.16-4.91-5.6-1.19,1.93-3.9,2.97-6.29,2.31s-4.17-3.03-3.83-5.24c-1.9,2.73-7.24,2.41-8.99-.53-1.83,2.46-6.58,1.95-8.46-.62s-1.03-6.2,1.36-8.22"/>
  </g>
  <path class="cls-3" d="m161.1,107.95c2-1.33,4.21-2.22,6.58-2.63.4-.07,1-.21,1.35-.11-.16-.05.02.04,0,0-.07-.12-.11-.07-.05-.06.02.1.03.09.01-.03,0,.08,0,.15,0,.23-.03.25.05-.19-.01.06,0,.03-.11.33-.05.19,0,0-.18.26-.27.36-.35.37-.81.63-1.24.9-2.07,1.31-3.85,3.04-5.12,5.14-.65,1.07-1.1,2.43-.52,3.64.65,1.33,2.07,1.61,3.41,1.4,2.77-.44,5.54-1.63,7.97-3,1.68-.95.17-3.54-1.51-2.59-2.14,1.2-4.44,2.11-6.84,2.62-.11.02-.22.05-.33.06.19-.02-.09,0-.1,0-.28.02-.07-.02.05.12.11.14.03.23.09.14.14-.22.13-.42.24-.63.54-.96,1.23-1.81,2.01-2.58s1.61-1.35,2.51-1.93c1.09-.7,2.14-1.54,2.55-2.81.36-1.1.2-2.45-.63-3.3-1.03-1.06-2.44-.98-3.78-.79-2.78.41-5.47,1.47-7.82,3.02-.68.45-.96,1.33-.54,2.05.39.67,1.37.99,2.05.54h0Z"/>
  <path class="cls-3" d="m177.1,96.95c2-1.33,4.21-2.22,6.58-2.63.4-.07,1-.21,1.35-.11-.16-.05.02.04,0,0-.07-.12-.11-.07-.05-.06.02.1.03.09.01-.03,0,.08,0,.15,0,.23-.03.25.05-.19-.01.06,0,.03-.11.33-.05.19,0,0-.18.26-.27.36-.35.37-.81.63-1.24.9-2.07,1.31-3.85,3.04-5.12,5.14-.65,1.07-1.1,2.43-.52,3.64.65,1.33,2.07,1.61,3.41,1.4,2.77-.44,5.54-1.63,7.97-3,1.68-.95.17-3.54-1.51-2.59-2.14,1.2-4.44,2.11-6.84,2.62-.11.02-.22.05-.33.06.19-.02-.09,0-.1,0-.28.02-.07-.02.05.12.11.14.03.23.09.14.14-.22.13-.42.24-.63.54-.96,1.23-1.81,2.01-2.58s1.61-1.35,2.51-1.93c1.09-.7,2.14-1.54,2.55-2.81.36-1.1.2-2.45-.63-3.3-1.03-1.06-2.44-.98-3.78-.79-2.78.41-5.47,1.47-7.82,3.02-.68.45-.96,1.33-.54,2.05.39.67,1.37.99,2.05.54h0Z"/>
</svg>