<?xml version="1.0" encoding="UTF-8"?>
<svg xmlns="http://www.w3.org/2000/svg" viewBox="0 0 224.49 389.53">
  <defs>
    <style>
      .cls-1 {
        mix-blend-mode: multiply;
      }

      .cls-2 {
        font-family: KaiseiTokumin-ExtraBold, 'Kaisei Tokumin';
        font-size: 39.84px;
        font-weight: 700;
        letter-spacing: .1em;
      }

      .cls-2, .cls-3 {
        fill: #4f4186;
      }

      .cls-4 {
        isolation: isolate;
      }

      .cls-5 {
        fill: #4b3f80;
      }

      .cls-5, .cls-6, .cls-3, .cls-7, .cls-8, .cls-9, .cls-10, .cls-11, .cls-12 {
        stroke-width: 0px;
      }

      .cls-6 {
        fill: #8378b4;
      }

      .cls-7 {
        fill: #5c4b90;
      }

      .cls-8 {
        fill: #191a3c;
      }

      .cls-9 {
        fill: #cebbdb;
      }

      .cls-10 {
        fill: #fff;
      }

      .cls-11 {
        fill: #edd848;
      }

      .cls-12 {
        fill: #fbe0de;
      }
    </style>
  </defs>
  <g class="cls-4">
    <g id="_圖層_1" data-name="圖層 1">
      <g>
        <rect class="cls-9" x=".61" y=".31" width="223.26" height="388.91" rx="27.06" ry="27.06" transform="translate(225.2 389.11) rotate(179.79)"/>
        <g>
          <path class="cls-11" d="m72.49,136.57c-.7,2.17-2.6,3.74-4.87,4-11.34,1.34-44.41,6.45-45.64,20.77-1.39,16.33,22.68,32.83,31.41,38.26,1.88,1.17,2.93,3.3,2.72,5.5-1.1,11.49-3.42,46.5,8.62,51.15,11.77,4.55,36.19-11.65,44.77-17.76,1.87-1.33,4.34-1.44,6.32-.28,9.99,5.83,40.16,22.07,50.6,12.09,10.46-9.99,3.54-41.4.89-51.77-.53-2.06.11-4.24,1.67-5.7,7.55-7.05,28.84-28.33,24.3-40.48-5.09-13.65-38.48-16.74-49.74-17.4-2.23-.13-4.19-1.52-5.05-3.59-4.11-9.92-17.35-37.86-35.14-35.92-16.7,1.81-27.53,30.81-30.87,41.13Z"/>
          <g>
            <path class="cls-3" d="m78.11,165.18c3.79,1.81,7.57,3.62,11.36,5.44.82.39,1.83.23,2.32-.61.43-.74.22-1.92-.61-2.32-3.79-1.81-7.57-3.62-11.36-5.44-.82-.39-1.83-.23-2.32.61-.43.74-.22,1.92.61,2.32h0Z"/>
            <path class="cls-3" d="m139.98,163.15c-3.81,1.76-7.62,3.52-11.43,5.28-.83.38-1.04,1.58-.61,2.32.5.85,1.48.99,2.32.61,3.81-1.76,7.62-3.52,11.43-5.28.83-.38,1.04-1.58.61-2.32-.5-.85-1.48-.99-2.32-.61h0Z"/>
            <path class="cls-5" d="m117.02,178.55c.3,3.82-2.55,7.23-6.52,7.15s-6.62-3.68-6.17-7.46c.12-1.01-.95-1.88-1.88-1.88-1.12,0-1.76.87-1.88,1.88-.69,5.88,4.1,11.12,9.94,11.23s10.75-5.05,10.28-10.92c-.08-1.01-.81-1.88-1.88-1.88-.96,0-1.96.86-1.88,1.88h0Z"/>
            <g>
              <path class="cls-3" d="m94.89,174.5c-.03,4.42-3.63,7.97-8.05,7.94-4.42-.03-7.97-3.63-7.94-8.05.03-4.42,3.63-7.97,8.05-7.94,4.42.03,7.97,3.63,7.94,8.05Z"/>
              <path class="cls-10" d="m92.1,171.89c0,1.43-1.18,2.59-2.61,2.58-1.43,0-2.59-1.18-2.58-2.61s1.18-2.59,2.61-2.58,2.59,1.18,2.58,2.61Z"/>
            </g>
            <g>
              <circle class="cls-3" cx="133.62" cy="174.77" r="8" transform="translate(-61.04 277.26) rotate(-80.37)"/>
              <path class="cls-10" d="m138.83,172.21c0,1.43-1.18,2.59-2.61,2.58s-2.59-1.18-2.58-2.61,1.18-2.59,2.61-2.58c1.43,0,2.59,1.18,2.58,2.61Z"/>
            </g>
          </g>
          <g>
            <g class="cls-1">
              <path class="cls-11" d="m118.25,153.07c16.49-4.53,29.43-11.04,39.17-17.92-11.13-7.82-24.67-12.45-39.3-12.55-.1,0-.2,0-.3,0-3.34,1-6.71,1.92-10.08,2.73-6.71,1.61-13.75,3.05-20.74,4.41-12.93,6.39-23.58,16.7-30.4,29.39,15.55,1.74,37.15.67,61.64-6.06Z"/>
            </g>
            <path class="cls-7" d="m33.23,143.18c3.4,8.79,39.39,17.62,86.59,6.12,47.2-11.5,66.19-39.83,64.15-47.73-2.03-7.9-37.87,12.16-73.85,19.7-35.98,7.54-81.48,10.05-76.89,21.91Z"/>
            <path class="cls-7" d="m74.78,133.83l-2.77-41s-6.79,2.48-5.91-2.53c0,0-11.41,9.62-13.95,8.06-2.54-1.56,10-26.15,15.94-30.17,5.94-4.02,29.67-.93,35.08,1.07,5.41,2,35.17,48.42,35.17,48.42,0,0-20.46,20.41-63.56,16.15Z"/>
            <path class="cls-8" d="m131,106.45c-6.31,4.87-25.01,16.54-57.1,14.43l.88,12.96c43.1,4.26,63.56-16.15,63.56-16.15,0,0-3.03-4.73-7.34-11.23Z"/>
            <path class="cls-12" d="m117.83,110.83c-2.04-.64-15.48,3.06-16.32,4.61-.92,1.7,2.76,20.12,5.08,20.27,2.32.15,19.33-4.06,20.03-6.01s-6.91-18.29-8.79-18.88Zm2.78,16.56c-.17.49-9.36,3.81-10.64,3.11-1.27-.7-3.21-10.42-3-11.2.27-1.01,8.22-3.15,9.24-2.9,1,.25,4.57,10.49,4.4,10.98Z"/>
            <path class="cls-6" d="m154.38,130.93c-.29,0-.56-.16-.69-.44-.19-.39-.03-.85.36-1.04,10.46-5.08,19.04-13.62,24.16-24.06.19-.39.65-.54,1.04-.36.39.19.54.65.36,1.04-5.27,10.75-14.11,19.54-24.87,24.77-.11.05-.23.08-.34.08Z"/>
            <g>
              <path class="cls-6" d="m105.07,76.6c-.16,0-.33-.05-.47-.16l-3.9-3.02c-.34-.26-.4-.75-.14-1.09.26-.34.75-.4,1.09-.14l3.9,3.02c.34.26.4.75.14,1.09-.15.2-.39.3-.62.3Z"/>
              <path class="cls-6" d="m102.02,77.91c-.14,0-.29-.04-.42-.13l-2.19-1.43c-.36-.23-.46-.72-.23-1.08.23-.36.72-.46,1.08-.23l2.19,1.43c.36.23.46.72.23,1.08-.15.23-.4.35-.66.35Z"/>
            </g>
            <path class="cls-3" d="m61.16,150.6c-8.24-.06-16.53-2.5-23.47-6.94-.36-.23-.47-.71-.24-1.07.23-.36.71-.47,1.07-.24,6.99,4.48,15.42,6.86,23.73,6.69.43-.01.78.33.79.76,0,.43-.33.78-.76.79-.38,0-.75,0-1.13,0Z"/>
            <g>
              <path class="cls-3" d="m76.48,116.64c-.39,0-.72-.29-.77-.69l-1.01-8.5c-.05-.43.25-.81.68-.86.43-.05.81.25.86.68l1.01,8.5c.05.43-.25.81-.68.86-.03,0-.07,0-.1,0Z"/>
              <path class="cls-3" d="m78.77,115.48c-.43,0-.77-.35-.77-.78l.02-2.98c0-.43.35-.77.78-.77s.77.35.77.78l-.02,2.98c0,.43-.35.77-.78.77Z"/>
            </g>
          </g>
        </g>
      </g>
      <text class="cls-2" transform="translate(48.26 321.94) rotate(-.21)"><tspan x="0" y="0">巫婆星</tspan></text>
    </g>
  </g>
</svg>