<?xml version="1.0" encoding="UTF-8"?>
<svg id="_圖層_1" data-name="圖層 1" xmlns="http://www.w3.org/2000/svg" viewBox="0 0 224.49 389.53">
  <defs>
    <style>
      .cls-1 {
        font-family: KaiseiTokumin-ExtraBold, 'Kaisei Tokumin';
        font-size: 39.84px;
        font-weight: 700;
        letter-spacing: .1em;
      }

      .cls-1, .cls-2 {
        fill: #4f4186;
      }

      .cls-2, .cls-3, .cls-4, .cls-5 {
        stroke-width: 0px;
      }

      .cls-3 {
        fill: #cebbdb;
      }

      .cls-4 {
        fill: #fff;
      }

      .cls-5 {
        fill: #edd848;
      }
    </style>
  </defs>
  <rect class="cls-3" x=".61" y=".31" width="223.26" height="388.91" rx="27.06" ry="27.06" transform="translate(225.2 389.11) rotate(179.79)"/>
  <g>
    <path class="cls-5" d="m74.27,130.74c-.69,2.06-2.51,3.53-4.67,3.76-10.79,1.16-42.28,5.72-43.58,19.32-1.48,15.51,21.25,31.42,29.51,36.66,1.77,1.13,2.75,3.16,2.53,5.25-1.15,10.91-3.68,44.17,7.72,48.7,11.15,4.43,34.52-10.74,42.73-16.47,1.79-1.25,4.14-1.33,6.01-.21,9.44,5.64,37.97,21.36,47.99,11.97,10.03-9.4,3.75-39.32,1.33-49.2-.48-1.97.15-4.03,1.64-5.4,7.24-6.63,27.68-26.67,23.48-38.26-4.71-13.02-36.42-16.27-47.12-17-2.12-.14-3.97-1.49-4.76-3.46-3.82-9.46-16.14-36.15-33.07-34.48-15.9,1.57-26.46,29.03-29.73,38.81Z"/>
    <g>
      <g>
        <circle class="cls-2" cx="84.52" cy="167.11" r="8.77" transform="translate(-55.47 42.72) rotate(-21.55)"/>
        <path class="cls-4" d="m90.26,164.36c-.03,1.57-1.32,2.83-2.89,2.8s-2.83-1.32-2.8-2.89,1.32-2.83,2.89-2.8,2.83,1.32,2.8,2.89Z"/>
      </g>
      <g>
        <circle class="cls-2" cx="135.79" cy="167.96" r="8.77" transform="translate(-51.98 61.22) rotate(-21.43)"/>
        <path class="cls-4" d="m141.54,165.21c-.03,1.57-1.32,2.83-2.89,2.8s-2.83-1.32-2.8-2.89,1.32-2.83,2.89-2.8,2.83,1.32,2.8,2.89Z"/>
      </g>
      <path class="cls-2" d="m123.91,174.49c-7.43.13-14.13,4.86-16.96,11.67-.39.94.42,2.08,1.32,2.33,1.09.3,1.94-.37,2.33-1.32,1.01-2.44,3.04-4.79,5.28-6.29,2.46-1.65,5.17-2.55,8.03-2.6,2.43-.04,2.44-3.83,0-3.79h0Z"/>
      <path class="cls-2" d="m83.51,154.66c-3.25,3.94-8.03,6.2-13.02,6.18-2.44,0-2.44,3.78,0,3.79,5.97.02,11.89-2.67,15.7-7.29.65-.79.77-1.91,0-2.68-.67-.67-2.02-.79-2.68,0h0Z"/>
    </g>
  </g>
  <text class="cls-1" transform="translate(68.47 321.94) rotate(-.21)"><tspan x="0" y="0">煩星</tspan></text>
  <path class="cls-2" d="m175.37,88.51c-6.3-1.31-12.74-1.9-19.17-1.66-5.7.21-12.45.53-17.18,4.13-4.12,3.13-6.14,8.78-3.14,13.39s8.94,5.97,14.25,6.47c6.33.6,12.76.22,18.99-1.07,3.92-.81,9.8-3.52,8.02-8.59-1.64-4.65-7.93-4.86-11.95-4.31-5.32.73-10.43,3.27-13.84,7.49-1.78,2.21-3.13,4.79-3.77,7.56s-.93,6.2,1.66,8.01c2.4,1.68,5.92,2.2,8.77,2.44,3.34.29,6.74-.13,9.93-1.13,1.84-.58,1.05-3.47-.8-2.89-4.67,1.47-9.65,1.48-14.31-.07-.81-.27-1.91-.55-2.37-1.34-.51-.87-.34-2.14-.2-3.08.31-2.11,1.1-4.13,2.22-5.94,2.32-3.73,6.09-6.32,10.29-7.5,2.12-.6,4.37-.91,6.57-.77,1.54.09,3.5.55,4.54,1.79,2.76,3.3-4.03,5.14-6.02,5.53-5.12,1.02-10.37,1.35-15.57,1.04-4.45-.27-9.79-.69-13.02-4.15-3.12-3.34-1.86-7.94,1.58-10.51,4.3-3.22,10.7-3.35,15.84-3.5,6-.18,12,.35,17.88,1.57,1.88.39,2.69-2.5.8-2.89h0Z"/>
</svg>