<?xml version="1.0" encoding="utf-8"?>
<!-- Generator: Adobe Illustrator 28.0.0, SVG Export Plug-In . SVG Version: 6.00 Build 0)  -->
<svg version="1.1" id="圖層_1" xmlns="http://www.w3.org/2000/svg" xmlns:xlink="http://www.w3.org/1999/xlink" x="0px" y="0px"
	 viewBox="0 0 1440 870.1" style="enable-background:new 0 0 1440 870.1;" xml:space="preserve">
<style type="text/css">
	.st0{clip-path:url(#SVGID_00000050642968800681998090000016622873242220311226_);}
	.st1{fill:#97A2CC;}
	.st2{opacity:0.77;fill:url(#SVGID_00000168819024578042980940000000787718752834412958_);enable-background:new    ;}
	.st3{fill:#5C4B90;}
	.st4{fill:#4F4186;}
	.st5{fill:#191A3C;}
	.st6{clip-path:url(#SVGID_00000070110578275003968130000011352824098518980227_);}
	.st7{clip-path:url(#SVGID_00000105425896299240683430000003984338670521211284_);}
</style>
<g>
	<g>
		<g>
			<defs>
				<rect id="SVGID_1_" x="-4" y="-5" width="1445" height="880.6"/>
			</defs>
			<clipPath id="SVGID_00000142152821811309145390000012759703725544990337_">
				<use xlink:href="#SVGID_1_"  style="overflow:visible;"/>
			</clipPath>
			<g style="clip-path:url(#SVGID_00000142152821811309145390000012759703725544990337_);">
				<rect x="-0.8" y="-5" class="st1" width="1436.8" height="925.9"/>
				
					<radialGradient id="SVGID_00000139273261371904486570000017044396837611239056_" cx="-1202.291" cy="-805.0401" r="376.3157" gradientTransform="matrix(3.88 0 0 -2.5823 5366.4902 -1607.3807)" gradientUnits="userSpaceOnUse">
					<stop  offset="0.39" style="stop-color:#211332;stop-opacity:0"/>
					<stop  offset="0.54" style="stop-color:#211332;stop-opacity:0.33"/>
					<stop  offset="0.83" style="stop-color:#211332;stop-opacity:0.82"/>
					<stop  offset="1" style="stop-color:#211332"/>
				</radialGradient>
				
					<rect x="-135.2" y="-91.4" style="opacity:0.77;fill:url(#SVGID_00000139273261371904486570000017044396837611239056_);enable-background:new    ;" width="1698.6" height="1132.7"/>
				<g>
					<g>
						<path class="st3" d="M1441.4-60.2v455.8h-41.2c-68.5-34.6-131-97-179.2-179.1c-45.9-78.3-78.8-174.3-94.8-276.5L1441.4-60.2
							L1441.4-60.2z"/>
						<path class="st4" d="M1437.5,397.5c-66.2-65.6-129.2-120.9-180.3-257c0,0,23.6,86.5,72.2,153.4
							c47.5,65.5,95.9,106.4,95.9,106.4L1437.5,397.5L1437.5,397.5z"/>
						<path class="st4" d="M1305.9,44.4c30.9,128.8,72.5,226.6,135.5,336.9v20.1c0,0-59.8-101.7-91.2-188.4
							C1318,124.1,1305.9,44.4,1305.9,44.4L1305.9,44.4z"/>
						<path class="st4" d="M1364.1-60.2c12.8,107.4,30.1,211.4,54.2,325.2c0,0-43.9-136.6-66.3-325.2
							C1352-60.2,1364.1-60.2,1364.1-60.2z"/>
						<path class="st4" d="M1214.2-60.2c10.6,59.6,19.4,113.3,37.1,173.7c0,0-28.5-70-52.9-173.7
							C1198.4-60.2,1214.2-60.2,1214.2-60.2z"/>
					</g>
					<g>
						<path class="st3" d="M1414.6,401.9h29.8l-0.3,392.8h-100.8C1345.2,558.3,1380.5,462.3,1414.6,401.9z"/>
						<path class="st4" d="M1423.5,401.9h2.2c-23.4,63.8-38.3,144.9-41.1,228.7h-5.7C1381.2,546.2,1397.5,464.3,1423.5,401.9z"/>
						<path class="st4" d="M1437.9,401.9c-19.4,68.1-29.2,151.5-27.2,235l-5.7,1.2c-2.6-84.2,8.7-168.8,30.8-236.2L1437.9,401.9
							L1437.9,401.9z"/>
					</g>
					<path class="st5" d="M1444.4,378.4c0,0-30.1,9.4-41.2,11.9s-2.7,9.9,1.6,10.8c0,0-5.2,2.9-1.4,7.3c0,0-8,6.7-2.3,12
						s43.4-7.2,43.4-7.2L1444.4,378.4L1444.4,378.4z"/>
				</g>
				<g>
					<g>
						<path class="st3" d="M-1.3-65.7v455.8H40c68.5-34.6,131-97,179.2-179.1c45.8-78.4,78.7-174.4,94.7-276.6L-1.3-65.7L-1.3-65.7z
							"/>
						<path class="st4" d="M2.7,392C68.9,326.4,131.9,271.1,183,135c0,0-23.6,86.5-72.2,153.4C63.3,353.9,15,394.8,15,394.8L2.7,392
							L2.7,392z"/>
						<path class="st4" d="M134.2,38.9c-30.9,128.8-72.5,226.8-135.5,337V396c0,0,59.8-101.9,91.2-188.4
							C122.1,118.7,134.2,38.9,134.2,38.9z"/>
						<path class="st4" d="M76.1-65.7C63.2,41.7,46,145.7,21.8,259.5c0,0,43.9-136.6,66.3-325.2L76.1-65.7L76.1-65.7z"/>
						<path class="st4" d="M225.9-65.7C215.3-6.1,206.5,47.6,188.8,108c0,0,28.5-70,52.9-173.7H225.9z"/>
					</g>
					<g>
						<path class="st3" d="M25.5,396.4H-4.3L-4,789.2H96.8C94.9,552.8,59.6,456.8,25.5,396.4z"/>
						<path class="st4" d="M16.6,396.4h-2.2c23.4,63.8,38.3,144.9,41.1,228.7h5.7C58.9,540.8,42.6,458.9,16.6,396.4z"/>
						<path class="st4" d="M2.2,396.4c19.4,68.1,29.2,151.5,27.2,235l5.7,1.2c2.6-84.2-8.7-168.8-30.8-236.2L2.2,396.4L2.2,396.4z"
							/>
					</g>
					<path class="st5" d="M-4.3,373c0,0,30.1,9.4,41.2,11.9s2.7,9.9-1.6,10.8c0,0,5.2,2.9,1.4,7.3c0,0,8,6.7,2.3,12
						s-43.4-7.2-43.4-7.2L-4.3,373L-4.3,373z"/>
				</g>
				<path class="st5" d="M-23.7,708.4v449.5h1512.8V708.4c-174.4-78.2-448.4-128.6-756.4-128.6S150.7,630.2-23.7,708.4z"/>
			</g>
		</g>
	</g>
</g>
<g>
	<g>
		<g>
			<defs>
				<rect id="SVGID_00000068676559246059167320000012594148058116505993_" x="-804.1" y="-4688" width="1473" height="1441"/>
			</defs>
			<clipPath id="SVGID_00000039856374550013452580000003828347946788281994_">
				<use xlink:href="#SVGID_00000068676559246059167320000012594148058116505993_"  style="overflow:visible;"/>
			</clipPath>
			<g style="clip-path:url(#SVGID_00000039856374550013452580000003828347946788281994_);">
				<g>
					<g>
						<g>
							<defs>
								
									<rect id="SVGID_00000075138903497661089030000013061976670950931109_" x="-788.2" y="-4761.7" width="1440" height="4418.5"/>
							</defs>
							<clipPath id="SVGID_00000096773439279401501340000006745950595271420293_">
								<use xlink:href="#SVGID_00000075138903497661089030000013061976670950931109_"  style="overflow:visible;"/>
							</clipPath>
							<g style="clip-path:url(#SVGID_00000096773439279401501340000006745950595271420293_);">
								<g id="bright-light-black-background.tif" transform="translate(-1247.14 -1889) scale(.48)">
								</g>
							</g>
						</g>
					</g>
				</g>
			</g>
		</g>
	</g>
</g>
</svg>
