<?xml version="1.0" encoding="UTF-8"?>
<svg id="_圖層_1" data-name="圖層 1" xmlns="http://www.w3.org/2000/svg" xmlns:xlink="http://www.w3.org/1999/xlink" viewBox="0 0 99.76 172.5">
  <defs>
    <style>
      .cls-1 {
        clip-path: url(#clippath);
      }

      .cls-2, .cls-3, .cls-4, .cls-5, .cls-6, .cls-7, .cls-8 {
        stroke-width: 0px;
      }

      .cls-2, .cls-9, .cls-10 {
        fill: none;
      }

      .cls-3 {
        fill: url(#linear-gradient);
      }

      .cls-11, .cls-8 {
        fill: #040922;
      }

      .cls-9 {
        stroke: url(#linear-gradient-2);
        stroke-width: .8px;
      }

      .cls-9, .cls-10 {
        stroke-miterlimit: 10;
      }

      .cls-4 {
        fill: #cebbdb;
      }

      .cls-5 {
        fill: #fff;
      }

      .cls-6 {
        fill: #e6d2c7;
      }

      .cls-7 {
        fill: #edd848;
      }

      .cls-10 {
        stroke: #cebbdb;
        stroke-width: .5px;
      }
    </style>
    <linearGradient id="linear-gradient" x1="1287.1" y1="7680.66" x2="1194.33" y2="7826" gradientTransform="translate(-1158.18 -7718.24)" gradientUnits="userSpaceOnUse">
      <stop offset="0" stop-color="#9381bb"/>
      <stop offset="1" stop-color="#5a479a"/>
    </linearGradient>
    <linearGradient id="linear-gradient-2" x1="272.66" y1="-3397.36" x2="200.94" y2="-3222.32" gradientTransform="translate(-773.32 3300.82) rotate(10.27)" xlink:href="#linear-gradient"/>
    <clipPath id="clippath">
      <polyline class="cls-2" points="-1587.98 -1905.55 -1587.98 -4115.59 -137.42 -4115.59 -137.42 -1539.95 -1587.98 -1539.95 -1587.98 -1905.55"/>
    </clipPath>
    <clipPath id="clippath-1">
      <rect class="cls-8" x="218.09" y="-4096.69" width="1440" height="1454.47"/>
    </clipPath>
    <clipPath id="clippath-2">
      <rect class="cls-2" x="-522.76" y="-3501.23" width="2921.7" height="1191"/>
    </clipPath>
    <clipPath id="clippath-4">
      <rect class="cls-8" x="216.32" y="-4096.95" width="1440" height="1454.47"/>
    </clipPath>
    <clipPath id="clippath-5">
      <rect class="cls-2" x="-524.53" y="-3501.48" width="2921.7" height="1191"/>
    </clipPath>
  </defs>
  <g>
    <rect class="cls-3" x=".68" y=".54" width="98.41" height="171.43" rx="11.93" ry="11.93" transform="translate(99.44 172.69) rotate(-179.78)"/>
    <rect class="cls-9" x=".68" y=".54" width="98.41" height="171.43" rx="11.93" ry="11.93" transform="translate(.33 -.19) rotate(.22)"/>
    <rect class="cls-10" x="7.57" y="8.3" width="84.61" height="157.35" rx="10.6" ry="10.6" transform="translate(99.43 174.13) rotate(-179.78)"/>
    <path class="cls-4" d="m70,84.73c-2.5.65-3.18-.69-5.36-.32-2.54.42-2.02,1.72-4.04,2.67-.46.21-.9.31-1.34.34.12.06.24.11.37.16,2.21.79,2.83-.57,5.18.12,2.27.66,2.07,1.97,4.55,2.87,2.48.9,2.91-1.39,5.77.1-2.81-.81-3.19,1.07-5.62,1.01-2.57-.25-2.75-1.73-4.92-2.14-2.54-.47-2.48.92-4.71,1.13-.5.05-.96-.02-1.37-.14.09.1.19.19.29.28,1.81,1.5,2.85.43,4.83,1.88,1.91,1.4,1.27,2.56,3.29,4.25,2.02,1.69,3.21-.31,5.39,2.07-2.36-1.73-3.36-.08-5.62-.97-2.33-1.11-2-2.57-3.89-3.69-2.22-1.31-2.65.02-4.81-.55-.49-.13-.89-.34-1.24-.6.05.12.11.24.18.36,1.19,2.02,2.53,1.38,3.89,3.42,1.31,1.97.32,2.84,1.64,5.12,1.32,2.28,3.12.8,4.35,3.79-1.63-2.43-3.13-1.23-4.95-2.84-1.81-1.84-1-3.1-2.4-4.8-1.64-1.99-2.49-.89-4.33-2.17-.41-.29-.72-.63-.96-.99,0,.13.02.26.05.4.42,2.31,1.91,2.16,2.49,4.55.56,2.3-.67,2.78-.21,5.37.46,2.6,2.66,1.82,2.79,5.05-.7-2.84-2.52-2.22-3.68-4.36-1.07-2.35.12-3.25-.61-5.33-.86-2.43-2.04-1.69-3.33-3.52-.29-.41-.46-.83-.57-1.26-.04.12-.07.26-.09.4-.39,2.31,1.05,2.69.78,5.13-.26,2.35-1.58,2.38-2.03,4.98-.45,2.6,1.87,2.62.9,5.7.31-2.9-1.61-2.95-1.97-5.36-.2-2.57,1.23-3.01,1.25-5.22.02-2.58-1.34-2.29-1.93-4.44-.13-.49-.15-.94-.1-1.38-.08.1-.15.22-.22.34-1.16,2.04.07,2.88-1.02,5.08-1.05,2.12-2.3,1.7-3.61,3.98-1.31,2.29.87,3.1-1.1,5.66,1.29-2.62-.5-3.33-.02-5.71.69-2.49,2.19-2.41,2.96-4.48.9-2.42-.48-2.61-.29-4.83.04-.5.18-.94.38-1.33-.11.07-.22.15-.33.24-1.79,1.52-.92,2.73-2.69,4.43-1.71,1.63-2.74.81-4.76,2.5-2.02,1.7-.25,3.21-2.98,4.94,2.11-2.02.66-3.3,1.94-5.37,1.5-2.1,2.88-1.52,4.31-3.19,1.68-1.96.44-2.61,1.38-4.64.21-.46.49-.82.81-1.12-.13.03-.26.07-.39.12-2.2.82-1.8,2.25-4.05,3.24-2.17.95-2.86-.18-5.33.73-2.48.91-1.33,2.93-4.49,3.63,2.67-1.18,1.75-2.87,3.66-4.38,2.12-1.46,3.22-.44,5.14-1.53,2.24-1.27,1.31-2.3,2.88-3.89.35-.36.74-.6,1.14-.77-.13-.02-.26-.03-.41-.02-2.35.02-2.46,1.5-4.91,1.66-2.36.15-2.62-1.15-5.25-1.14-2.64,0-2.25,2.3-5.46,1.88,2.92-.19,2.63-2.1,4.93-2.87,2.5-.65,3.18.69,5.36.32,2.54-.42,2.02-1.72,4.04-2.67.46-.21.9-.31,1.34-.34-.12-.06-.24-.11-.37-.16-2.21-.79-2.83.57-5.18-.12-2.27-.66-2.07-1.97-4.55-2.87-2.48-.9-2.91,1.39-5.77-.1,2.81.81,3.19-1.07,5.62-1.01,2.57.25,2.75,1.73,4.92,2.14,2.54.47,2.48-.92,4.71-1.13.5-.05.96.02,1.37.14-.09-.1-.19-.19-.29-.28-1.81-1.5-2.85-.43-4.83-1.88-1.91-1.4-1.27-2.56-3.29-4.25-2.02-1.69-3.21.31-5.39-2.07,2.36,1.73,3.36.08,5.62.97,2.33,1.11,2,2.57,3.89,3.69,2.22,1.31,2.65-.02,4.81.55.49.13.89.34,1.24.6-.05-.12-.11-.24-.18-.36-1.19-2.02-2.53-1.38-3.89-3.42-1.31-1.97-.32-2.84-1.64-5.12-1.32-2.28-3.12-.8-4.35-3.79,1.63,2.43,3.13,1.23,4.95,2.84,1.81,1.84,1,3.1,2.4,4.8,1.64,1.99,2.49.89,4.33,2.17.41.29.72.63.96.99,0-.13-.02-.26-.05-.4-.42-2.31-1.91-2.16-2.49-4.55-.56-2.3.67-2.78.21-5.37-.46-2.6-2.66-1.82-2.79-5.05.7,2.84,2.52,2.22,3.68,4.36,1.07,2.35-.12,3.25.61,5.33.86,2.43,2.04,1.69,3.33,3.52.29.41.46.83.57,1.26.04-.12.07-.26.09-.4.39-2.31-1.05-2.69-.78-5.13.26-2.35,1.58-2.38,2.03-4.98.45-2.6-1.87-2.62-.9-5.7-.32,2.9,1.61,2.95,1.97,5.36.2,2.57-1.23,3.01-1.25,5.22-.02,2.58,1.34,2.29,1.93,4.44.13.49.15.94.1,1.38.08-.1.15-.22.22-.34,1.16-2.04-.07-2.88,1.02-5.08,1.05-2.12,2.3-1.7,3.61-3.98,1.31-2.29-.87-3.1,1.1-5.66-1.29,2.62.5,3.33.02,5.71-.69,2.49-2.19,2.41-2.96,4.48-.9,2.41.48,2.61.29,4.83-.04.5-.18.94-.38,1.33.11-.07.22-.15.33-.24,1.79-1.52.92-2.73,2.69-4.43,1.71-1.63,2.74-.81,4.76-2.5,2.02-1.7.25-3.21,2.98-4.94-2.11,2.02-.66,3.3-1.94,5.37-1.5,2.1-2.88,1.52-4.31,3.19-1.68,1.96-.44,2.61-1.38,4.64-.21.46-.49.82-.81,1.12.13-.03.26-.07.39-.12,2.2-.82,1.8-2.25,4.05-3.24,2.17-.95,2.86.18,5.33-.73,2.48-.91,1.33-2.93,4.49-3.63-2.67,1.18-1.75,2.87-3.66,4.38-2.12,1.46-3.22.44-5.14,1.53-2.24,1.27-1.31,2.3-2.88,3.89-.36.36-.74.6-1.14.77.13.02.26.03.41.02,2.35-.02,2.46-1.5,4.91-1.66,2.36-.15,2.62,1.15,5.25,1.14,2.64,0,2.25-2.3,5.46-1.88-2.92.19-2.63,2.1-4.93,2.87Zm-12.24,2.18c.04-4.25-3.37-7.72-7.62-7.76-4.25-.04-7.72,3.37-7.76,7.62-.04,4.25,3.37,7.72,7.62,7.76s7.72-3.37,7.76-7.62Zm-2.55-.02c.03-2.84-2.26-5.16-5.1-5.19s-5.16,2.26-5.19,5.1c-.03,2.84,2.26,5.16,5.1,5.19s5.16-2.26,5.19-5.1Z"/>
    <path class="cls-4" d="m42.93,132.94c-.03,3.71,2.95,6.75,6.66,6.79s6.75-2.95,6.79-6.66c0-1.09-.25-2.12-.7-3.03,1.9,1.69,3.09,4.16,3.07,6.9-.05,5.04-4.17,9.09-9.21,9.05-5.04-.05-9.09-4.17-9.05-9.21.02-2.74,1.26-5.19,3.19-6.84-.47.91-.74,1.93-.75,3.02Z"/>
    <path class="cls-4" d="m49.25,125.32l.4,7.55.53-7.55c0-.14-.1-.25-.23-.25h-.46c-.14,0-.25.11-.24.25Z"/>
    <path class="cls-4" d="m50.21,123.28l-.4-7.55-.53,7.55c0,.14.1.25.23.25h.46c.14,0,.25-.11.24-.25Z"/>
    <path class="cls-4" d="m48.7,123.83l-4.9.41,4.89.5c.14.01.26-.09.26-.23v-.44c0-.14-.11-.25-.25-.24Z"/>
    <path class="cls-4" d="m50.76,124.77l4.9-.41-4.89-.5c-.14-.01-.26.09-.26.23v.44c0,.14.11.25.25.24Z"/>
    <path class="cls-4" d="m65.62,132.18l.3,3.52.36-3.51c.01-.1-.07-.19-.17-.19h-.32c-.1,0-.18.08-.17.18Z"/>
    <path class="cls-4" d="m66.29,130.7l-.3-3.52-.36,3.51c-.01.1.07.19.17.19h.32c.1,0,.18-.08.17-.18Z"/>
    <path class="cls-4" d="m65.21,131.11l-3.52.3,3.51.36c.1.01.19-.07.19-.17v-.32c0-.1-.08-.18-.18-.17Z"/>
    <path class="cls-4" d="m66.69,131.78l3.52-.3-3.51-.36c-.1-.01-.19.07-.19.17v.32c0,.1.08.18.18.17Z"/>
    <path class="cls-4" d="m33.71,131.89l-.36,3.51-.3-3.52c0-.1.07-.19.17-.18h.32c.1,0,.18.09.17.19Z"/>
    <path class="cls-4" d="m33.06,130.41l.36-3.51.3,3.52c0,.1-.07.19-.17.18h-.32c-.1,0-.18-.09-.17-.19Z"/>
    <path class="cls-4" d="m34.13,130.83l3.51.36-3.52.3c-.1,0-.19-.07-.18-.17v-.32c0-.1.09-.18.19-.17Z"/>
    <path class="cls-4" d="m32.64,131.47l-3.51-.36,3.52-.3c.1,0,.19.07.18.17v.32c0,.1-.09.18-.19.17Z"/>
    <path class="cls-4" d="m21.53,121.74c3.55.03,6.45-2.82,6.48-6.37.03-2.78-1.72-5.16-4.19-6.07.09,0,.18-.01.28-.01,4.23.04,7.63,3.5,7.59,7.73s-3.5,7.63-7.73,7.59c-3.25-.03-6-2.08-7.09-4.95,1.16,1.26,2.81,2.06,4.66,2.07Z"/>
    <path class="cls-4" d="m21.41,109.45l-.14-2.68-.19,2.68s.03.09.08.09h.16s.09-.04.08-.09Z"/>
    <path class="cls-4" d="m21.07,110.18l.14,2.68.19-2.68s-.03-.09-.08-.09h-.16s-.09.04-.08.09Z"/>
    <path class="cls-4" d="m21.6,109.98l1.74-.15-1.73-.18s-.09.03-.09.08v.16s.04.09.09.08Z"/>
    <path class="cls-4" d="m20.87,109.65l-1.74.15,1.73.18s.09-.03.09-.08v-.16s-.04-.09-.09-.08Z"/>
    <path class="cls-4" d="m17.09,113.23c0,.13.11.24.24.25s.24-.11.25-.24-.11-.24-.24-.25-.24.11-.25.24Z"/>
    <path class="cls-4" d="m16.24,118.39c.04.13.18.2.31.16s.2-.18.16-.31c-.04-.13-.18-.2-.31-.16s-.2.18-.16.31Z"/>
    <circle class="cls-4" cx="18.63" cy="111.51" r=".46"/>
    <path class="cls-4" d="m16.77,115.77l1.3-.11-1.3-.13s-.07.02-.07.06v.12s.03.07.07.06Z"/>
    <path class="cls-4" d="m16.23,115.52l-1.3.11,1.3.13s.07-.02.07-.06v-.12s-.03-.07-.07-.06Z"/>
    <path class="cls-4" d="m16.37,115.92l.11,1.3.13-1.3s-.02-.07-.06-.07h-.12s-.07.03-.06.07Z"/>
    <path class="cls-4" d="m16.62,115.38l-.11-1.3-.13,1.3s.02.07.06.07h.12s.07-.03.06-.07Z"/>
    <path class="cls-4" d="m77.98,122.24c-3.55-.03-6.4-2.93-6.37-6.48.03-2.78,1.82-5.13,4.3-6-.09,0-.18-.02-.27-.02-4.23-.04-7.69,3.36-7.73,7.59-.04,4.23,3.36,7.69,7.59,7.73,3.25.03,6.04-1.97,7.18-4.82-1.18,1.24-2.85,2.01-4.7,1.99Z"/>
    <path class="cls-4" d="m78.32,109.97l.19-2.68.14,2.68s-.04.09-.08.09h-.16s-.09-.04-.08-.09Z"/>
    <path class="cls-4" d="m78.64,110.7l-.19,2.68-.14-2.68s.04-.09.08-.09h.16s.09.04.08.09Z"/>
    <path class="cls-4" d="m78.11,110.49l-1.73-.18,1.74-.15s.09.04.09.08v.16s-.04.09-.09.08Z"/>
    <path class="cls-4" d="m78.85,110.17l1.73.18-1.74.15s-.09-.04-.09-.08v-.16s.04-.09.09-.08Z"/>
    <path class="cls-4" d="m82.56,113.82c0,.13-.11.24-.25.24s-.24-.11-.24-.25.11-.24.25-.24.24.11.24.25Z"/>
    <path class="cls-4" d="m83.32,119c-.04.13-.18.2-.31.15s-.2-.18-.15-.31.18-.2.31-.15c.13.04.2.18.15.31Z"/>
    <path class="cls-4" d="m81.52,112.08c0,.26-.21.46-.47.46s-.46-.21-.46-.47.21-.46.47-.46.46.21.46.47Z"/>
    <path class="cls-4" d="m82.84,116.37l-1.3-.13,1.3-.11s.07.03.07.06v.12s-.03.07-.07.06Z"/>
    <path class="cls-4" d="m83.39,116.13l1.3.13-1.3.11s-.07-.03-.07-.06v-.12s.03-.07.07-.06Z"/>
    <path class="cls-4" d="m83.23,116.52l-.13,1.3-.11-1.3s.03-.07.06-.07h.12s.07.03.06.07Z"/>
    <path class="cls-4" d="m82.99,115.97l.13-1.3.11,1.3s-.03.07-.06.07h-.12s-.07-.03-.06-.07Z"/>
    <circle class="cls-4" cx="49.51" cy="149.29" r=".46"/>
    <path class="cls-4" d="m49.27,147.84c0,.13.11.24.24.25s.24-.11.25-.24-.11-.24-.24-.25-.24.11-.25.24Z"/>
    <path class="cls-4" d="m52.28,149.01c.06.25.32.4.57.33.25-.06.4-.32.33-.57-.06-.25-.32-.4-.57-.33-.25.06-.4.32-.33.57Z"/>
    <path class="cls-4" d="m52.13,147.55c.03.13.17.21.3.18.13-.03.21-.17.18-.3s-.17-.21-.3-.18-.21.17-.18.3Z"/>
    <path class="cls-4" d="m55.34,147.91c.13.22.41.3.63.18s.3-.41.18-.63c-.13-.22-.41-.3-.63-.18-.22.13-.3.41-.18.63Z"/>
    <path class="cls-4" d="m54.82,146.53c.07.12.22.16.33.09.12-.07.16-.22.09-.33-.07-.12-.22-.16-.33-.09-.12.07-.16.22-.09.33Z"/>
    <path class="cls-4" d="m58.01,146.05c.18.18.47.19.66,0s.19-.47,0-.66-.47-.19-.66,0c-.18.18-.19.47,0,.66Z"/>
    <circle class="cls-4" cx="57.32" cy="144.69" r=".24"/>
    <path class="cls-4" d="m60.11,143.56c.22.13.51.06.64-.16.13-.22.06-.51-.16-.64-.22-.13-.51-.06-.64.16-.13.22-.06.51.16.64Z"/>
    <path class="cls-4" d="m58.97,142.64c.12.07.27.03.33-.09.07-.12.03-.27-.09-.33s-.27-.03-.33.09c-.07.12-.03.27.09.33Z"/>
    <path class="cls-4" d="m61.49,140.62c.25.07.5-.08.57-.32.07-.25-.08-.5-.32-.57-.25-.07-.5.08-.57.32-.07.25.08.5.32.57Z"/>
    <path class="cls-4" d="m60.15,140.02c.13.04.26-.04.3-.17s-.04-.26-.17-.3-.26.04-.3.17.04.26.17.3Z"/>
    <circle class="cls-4" cx="62.07" cy="136.95" r=".46"/>
    <path class="cls-4" d="m60.61,137.18c.13,0,.24-.11.25-.24s-.11-.24-.24-.25-.24.11-.25.24.11.24.24.25Z"/>
    <path class="cls-4" d="m46.73,148.96c-.07.25-.32.39-.57.32-.25-.07-.39-.32-.32-.57s.32-.39.57-.32c.25.07.39.32.32.57Z"/>
    <path class="cls-4" d="m46.91,147.5c-.04.13-.17.21-.3.17s-.21-.17-.17-.3c.04-.13.17-.21.3-.17.13.04.21.17.17.3Z"/>
    <path class="cls-4" d="m43.69,147.8c-.13.22-.41.29-.64.16s-.29-.41-.16-.64c.13-.22.41-.29.64-.16.22.13.29.41.16.64Z"/>
    <path class="cls-4" d="m44.24,146.44c-.07.12-.22.15-.33.09-.12-.07-.15-.22-.09-.33.07-.12.22-.15.33-.09.12.07.15.22.09.33Z"/>
    <path class="cls-4" d="m41.06,145.9c-.18.18-.48.18-.66,0-.18-.18-.18-.48,0-.66.18-.18.48-.18.66,0s.18.48,0,.66Z"/>
    <path class="cls-4" d="m41.94,144.72c-.1.09-.25.09-.34,0-.09-.1-.09-.25,0-.34.1-.09.25-.09.34,0,.09.1.09.25,0,.34Z"/>
    <path class="cls-4" d="m39.01,143.37c-.22.13-.51.05-.63-.18-.13-.22-.05-.51.18-.63.22-.13.51-.05.63.18.13.22.05.51-.18.63Z"/>
    <path class="cls-4" d="m40.16,142.47c-.12.07-.27.02-.33-.09s-.02-.27.09-.33c.12-.07.27-.02.33.09.07.12.02.27-.09.33Z"/>
    <path class="cls-4" d="m37.68,140.41c-.25.06-.5-.09-.57-.33-.06-.25.09-.5.33-.57.25-.06.5.09.57.33.06.25-.09.5-.33.57Z"/>
    <path class="cls-4" d="m39.03,139.83c-.13.03-.26-.04-.3-.18s.04-.26.18-.3c.13-.03.26.04.3.18.03.13-.04.26-.18.3Z"/>
    <path class="cls-4" d="m37.16,137.19c-.26,0-.46-.21-.46-.47s.21-.46.47-.46.46.21.46.47-.21.46-.47.46Z"/>
    <path class="cls-4" d="m57.33,124.83c-.26,0-.46-.21-.46-.47s.21-.46.47-.46.46.21.46.47-.21.46-.47.46Z"/>
    <path class="cls-4" d="m38.62,136.99c-.13,0-.24-.11-.24-.25s.11-.24.25-.24.24.11.24.25-.11.24-.25.24Z"/>
    <path class="cls-4" d="m59.12,124.63c-.13,0-.24-.11-.24-.25s.11-.24.25-.24.24.11.24.25-.11.24-.25.24Z"/>
    <path class="cls-4" d="m42.12,124.7c.26,0,.47-.2.47-.46s-.2-.47-.46-.47-.47.2-.47.46.2.47.46.47Z"/>
    <path class="cls-4" d="m40.33,124.46c.13,0,.24-.11.25-.24s-.11-.24-.24-.25-.24.11-.25.24.11.24.24.25Z"/>
    <path class="cls-4" d="m22.16,51.36c3.55.03,6.4,2.93,6.37,6.48-.03,2.78-1.82,5.13-4.3,6,.09,0,.18.02.27.02,4.23.04,7.69-3.36,7.73-7.59s-3.36-7.69-7.59-7.73c-3.25-.03-6.04,1.97-7.18,4.82,1.18-1.24,2.85-2.01,4.7-1.99Z"/>
    <path class="cls-4" d="m21.82,63.64l-.19,2.68-.14-2.68s.04-.09.08-.09h.16s.09.04.08.09Z"/>
    <path class="cls-4" d="m21.49,62.91l.19-2.68.14,2.68s-.04.09-.08.09h-.16s-.09-.04-.08-.09Z"/>
    <path class="cls-4" d="m22.02,63.11l1.73.18-1.74.15s-.09-.04-.09-.08v-.16s.04-.09.09-.08Z"/>
    <path class="cls-4" d="m21.29,63.43l-1.73-.18,1.74-.15s.09.04.09.08v.16s-.04.09-.09.08Z"/>
    <path class="cls-4" d="m17.57,59.78c0-.13.11-.24.25-.24s.24.11.24.25-.11.24-.25.24-.24-.11-.24-.25Z"/>
    <path class="cls-4" d="m16.82,54.6c.04-.13.18-.2.31-.15.13.04.2.18.15.31-.04.13-.18.2-.31.15-.13-.04-.2-.18-.15-.31Z"/>
    <path class="cls-4" d="m18.61,61.52c0-.26.21-.46.47-.46s.46.21.46.47-.21.46-.47.46-.46-.21-.46-.47Z"/>
    <path class="cls-4" d="m17.3,57.24l1.3.13-1.3.11s-.07-.03-.07-.06v-.12s.03-.07.07-.06Z"/>
    <path class="cls-4" d="m16.75,57.47l-1.3-.13,1.3-.11s.07.03.07.06v.12s-.03.07-.07.06Z"/>
    <path class="cls-4" d="m16.9,57.08l.13-1.3.11,1.3s-.03.07-.06.07h-.12s-.07-.03-.06-.07Z"/>
    <path class="cls-4" d="m17.14,57.63l-.13,1.3-.11-1.3s.03-.07.06-.07h.12s.07.03.06.07Z"/>
    <path class="cls-4" d="m78.61,51.87c-3.55-.03-6.45,2.82-6.48,6.37-.03,2.78,1.72,5.16,4.19,6.07-.09,0-.18.01-.28.01-4.23-.04-7.63-3.5-7.59-7.73.04-4.23,3.5-7.63,7.73-7.59,3.25.03,6,2.08,7.09,4.95-1.16-1.26-2.81-2.06-4.66-2.07Z"/>
    <path class="cls-4" d="m78.73,64.15l.14,2.68.19-2.68s-.03-.09-.08-.09h-.16s-.09.04-.08.09Z"/>
    <path class="cls-4" d="m79.07,63.43l-.14-2.68-.19,2.68s.03.09.08.09h.16s.09-.04.08-.09Z"/>
    <path class="cls-4" d="m78.54,63.62l-1.74.15,1.73.18s.09-.03.09-.08v-.16s-.04-.09-.09-.08Z"/>
    <path class="cls-4" d="m79.26,63.95l1.74-.15-1.73-.18s-.09.03-.09.08v.16s.04.09.09.08Z"/>
    <path class="cls-4" d="m83.04,60.37c0-.13-.11-.24-.24-.25s-.24.11-.25.24.11.24.24.25.24-.11.25-.24Z"/>
    <path class="cls-4" d="m83.9,55.21c-.04-.13-.18-.2-.31-.16-.13.04-.2.18-.16.31s.18.2.31.16c.13-.04.2-.18.16-.31Z"/>
    <path class="cls-4" d="m81.97,62.09c0-.26-.2-.47-.46-.47s-.47.2-.47.46.2.47.46.47.47-.2.47-.46Z"/>
    <path class="cls-4" d="m83.37,57.83l-1.3.11,1.3.13s.07-.02.07-.06v-.12s-.03-.07-.07-.06Z"/>
    <path class="cls-4" d="m83.91,58.08l1.3-.11-1.3-.13s-.07.02-.07.06v.12s.03.07.07.06Z"/>
    <path class="cls-4" d="m83.76,57.68l-.11-1.3-.13,1.3s.02.07.06.07h.12s.07-.03.06-.07Z"/>
    <path class="cls-4" d="m83.52,58.23l.11,1.3.13-1.3s-.02-.07-.06-.07h-.12s-.07.03-.06.07Z"/>
    <g>
      <path class="cls-7" d="m36.72,36.74c-.14.06-.3.32-.38.46-.11.19-.3.3-.43.48-.1.16-.24.26-.35.39-.16.2-.46.42-.58.61-.1.19-.21.23-.38.33-.24.13-.39.4-.63.55-.31.2-.3.26-.48.65-.06.14-.13.3-.18.46-.08.25-.1.42-.23.64-.14.23-.23.49-.34.74-.11.23-.53.71-.71.88-.18.16-.75.88-.94.88-.24,0-.44.42-.74.42-.09,0-.49.24-.7.29-.21.04-.45.1-.67.1-.06,0-.11,0-.16-.04-.16-.13-.39-.04-.49-.32-.06-.2-.22-.36-.22-.61,0-.25,0-.56.12-.8.1-.22.19-.49.39-.62.2-.13.24-.4.48-.46.19-.06.34-.2.52-.23.17-.01.39-.17.5-.17.04,0,.08.01.11.02.2,0,.39-.11.57-.11.07,0,.14.01.21.04.16.09.55.15.55.41,0,.19-.03.38-.03.58,0,.04,0,.14.06.14.17,0,.49-.46.54-.63.06-.23.28-.3.33-.58.06-.23.23-.39.28-.62.03-.13.14-.39.14-.49,0-.04-.02-.06-.05-.06-.15,0-.26.16-.54.16-.34,0-.33.27-.49.27-.05,0-.19-.06-.19-.13,0-.2.5-.27.62-.32.16-.07.67-.19.75-.3.14-.19.24-.48.3-.71.09-.25.21-.46.3-.69.26-.65.4-.69.81-1.12.3-.3.67-.49.96-.79.35-.36.47-.24.74-.45.11-.07.23-.17.36-.17.07,0,.14.03.2.06.12.07.29.06.29.26,0,.19-.09.56-.26.64Zm-5.47,6.05c-.16-.12-.29-.15-.39-.35-.1-.2.05-.64-.37-.64-.12,0-.25.01-.37.01-.17,0-.3.17-.47.22-.16.04-.31.14-.47.2-.21.09-.54.37-.58.65-.03.19-.13.35-.13.55,0,.2.16.55.32.67.04.02.1.03.16.03.06,0,.12-.01.16-.01.05,0,.1.02.15.02.12,0,.24-.13.4-.13.2-.03.24-.16.4-.2.17-.03.3-.2.46-.26.12-.03.28-.26.42-.35.12-.07.16-.23.29-.32.01-.01.02-.03.02-.04s-.01-.03-.01-.04Zm4.79-6.11c-.5.01-.41.3-.75.42-.24.09-.29.27-.49.4-.29.2-.51.74-.65,1.07-.05.12-.18.43-.18.53,0,.04.01.07.04.07.15,0,.49-.39.65-.49.16-.09.26-.35.44-.43.17-.09.23-.32.38-.43.17-.13.29-.33.45-.48.09-.09.3-.45.3-.58,0-.07-.11-.09-.19-.09Z"/>
      <path class="cls-7" d="m45.04,40.41c-.12,0-.26-.07-.4-.07-.12,0-.24.03-.39.03h-.1c-.16,0-.32.01-.49.01-.14,0-.27-.03-.41-.03-.22,0-.45.04-.67.04-.14,0-.26-.06-.39-.06-.11,0-.2.04-.31.04-.17,0-.35-.04-.52-.05-.36,0-.72.06-1.08.05h-.35c-.15,0-.4.1-.49.26-.1.17-.31.23-.39.45-.08.23-.4.33-.51.62-.11.3-.39.38-.46.59-.06.2-.23.27-.26.4-.05.16-.06.3-.06.46,0,.29.2.36.41.36.06,0,.14-.01.2-.04.19-.07.39-.07.56-.17.14-.09.29-.11.42-.2s.34-.23.49-.23c.05,0,.14.04.14.12,0,.09-.36.29-.45.32-.16.04-.24.22-.41.24-.17.03-.34.17-.52.2-.21.04-.41.13-.62.13-.25,0-.71-.16-.71-.52v-.43c0-.07,0-.15.04-.2.14-.25.19-.55.4-.71.2-.14.19-.19.3-.38.07-.12.31-.27.4-.42.01-.01.02-.06.03-.1,0-.01-.01-.03-.04-.03l-.04.04c-.06.09-.1.14-.21.2-.34.22-.26.39-.41.49-.17.12-.28.27-.41.43-.14.16-.29.27-.45.37-.12.09-.19.25-.32.3-.15.07-.3.16-.44.26-.08.06-.16.11-.25.11-.05,0-.12-.04-.12-.12,0-.12.5-.4.6-.49.17-.13.33-.3.5-.43.17-.13.33-.33.51-.46.26-.19.39-.49.6-.72.06-.07.53-.63.53-.66,0-.01-.01-.03-.02-.04-.15-.04-.35-.03-.51-.05-.1-.03-.19-.03-.32-.03h-.27c-.1,0-.2.04-.3.04-.05,0-.09-.01-.14-.01-.04,0-.11.04-.16.04-.1,0-.09-.03-.19-.03-.17,0-.34.01-.5.01-.07,0-.19-.02-.19-.13,0-.13.03-.23.16-.23.07,0,.15.03.22.03.21,0,.41-.01.62-.01.26,0,.54.02.81.02.15,0,.3-.07.46-.07.14,0,.29.03.42.03.55,0,.38-.29.7-.43.26-.1.26-.27.44-.35.17-.07.24-.32.43-.42.15-.07.38-.29.52-.29.09,0,.17.1.17.2,0,.12-.26.59-.35.65-.15.12-.3.51-.41.53-.01.01-.05.01-.05.04,0,.09.16.12.31.12.11,0,.22-.01.26-.01.19,0,.39.03.57.03.15,0,.29-.06.44-.06.17,0,.36.04.54.05.12,0,.24-.03.35-.03.16,0,.31.06.47.06.15,0,.29-.04.42-.04.09,0,.16.02.24.02.12,0,.22-.06.34-.06.2,0,.4.04.6.05.15,0,.29-.09.45-.08.09,0,.17.03.17.19,0,.12,0,.25-.13.25Z"/>
      <path class="cls-7" d="m45.65,43.16c-.15.12-.76.42-.95.49-.12.04-.24.13-.35.2-.09.04-.36.1-.46.1-.29,0-.27-.35-.47-.35-.17,0-.33.27-.65.27-.15,0-.29-.04-.42-.09-.24-.07-.35-.13-.35-.45,0-.42.5-.82.79-1.01.24-.14.49-.4.8-.4h.05c.12,0,.24-.06.35-.06.2,0,.26.29.26.48,0,.29-.23.56-.23.77,0,.13.07.32.2.32.1,0,.76-.21.87-.29.11-.07.42-.24.55-.24.05,0,.12.03.12.09,0,.07-.08.14-.11.17Zm-1.97-.83c-.27,0-.73.53-.98.69-.07.06-.15.13-.15.25,0,.13.11.2.21.2.22,0,.6-.36.71-.58.08-.16.33-.25.33-.39,0-.09-.05-.17-.12-.17Z"/>
      <path class="cls-7" d="m52.51,42.96c-.15.13-.55.39-.71.43-.09.03-.16.04-.25.04-.15,0-.31-.04-.45-.13-.22-.15-.15-.23-.31-.36-.05-.04-.06-.09-.06-.15,0-.06.01-.12.01-.19,0-.12.08-.2.08-.32,0-.1-.05-.19-.14-.19-.12,0-.22.23-.27.35-.1.17-.28.27-.44.33-.15.06-.22.22-.36.3-.42.29-.41.59-.71.85-.15.13-.16.35-.5.35-.09,0-.21-.04-.21-.17,0-.17.34-.48.45-.58.15-.13.21-.32.38-.43.14-.1.21-.23.21-.42,0-.06-.05-.09-.1-.09-.19,0-.33.29-.48.29-.11,0-.3.2-.42.24-.13.03-.31.19-.4.19-.06,0-.11-.04-.11-.12,0-.19.4-.29.51-.42.18-.19.44-.3.65-.42.09-.06.5-.4.59-.4.09.03.29.09.29.2,0,.06.02.07.06.07.1,0,.23-.09.3-.16.16-.14.1-.25.34-.3.07-.03.41-.17.44-.17.16,0,.29.3.29.46v.13c0,.17.05.3.05.48,0,.09.01.16.04.26.05.13.17.17.29.17.35,0,.89-.43.95-.43.06,0,.11.07.11.13,0,.07-.05.13-.09.16Z"/>
      <path class="cls-7" d="m56.99,42.05c-.05.13-.42.06-.43.48,0,.13.06.25.06.39,0,.17-.05.43-.15.56-.08.12-.13.3-.24.36-.14.06-.28.22-.4.24-.11.01-.17.06-.27.14-.02.01-.09.03-.15.03-.06,0-.12-.02-.16-.02-.15,0-.26.1-.4.1-.14,0-.36-.19-.36-.36,0-.16.39-.5.53-.5.04,0,.07.01.12.02.06,0,.14-.01.2-.01.09,0,.06.06.19.06.11,0,.21-.01.32-.01.21,0,.31-.64.31-.81,0-.09-.09-.25-.16-.25-.07,0-.18.16-.34.16-.11,0-.4.35-.59.39-.24.03-.75.4-.89.4-.05,0-.14-.02-.14-.1,0-.14.36-.27.46-.36.31-.3,1.42-.67,1.55-1.01.11-.26.19-.22.3-.39.1-.17.34-.24.51-.24.12,0,.37.04.37.25,0,.13-.21.33-.26.49Zm-1.95,1.74s-.14.04-.14.1c0,.04.05.09.09.09.05,0,.12-.07.12-.13,0-.04-.04-.06-.07-.06Z"/>
    </g>
    <g>
      <path class="cls-5" d="m37,35.33l-.93-1.04c-.08-.09-.17-.12-.29-.12-.09,0-.19.03-.26.12l-.93,1.04h-1.94s0-1.88,0-1.88h3.04c.19.01.28-.11.28-.33,0-.09-.05-.19-.17-.31l-.68-.78c-.08-.1-.17-.16-.26-.16-.11,0-.2.05-.3.16l-.69.78h-1.23s0-1.6,0-1.6l3.99.02c.19,0,.3-.1.3-.31,0-.09-.08-.21-.2-.35l-.93-1.06c-.08-.1-.17-.16-.26-.16-.11,0-.2.05-.3.16l-.92,1.04h-1.68s0-1.34,0-1.34c0-.02.02-.05.05-.05.14-.09.2-.21.22-.38.02-.29-.12-.45-.39-.45l-1.86-.11c-.12-.02-.19.05-.19.22v2.1s-2.03,0-2.03,0c.22-.36.42-.76.63-1.21.02-.03.05-.05.08-.05.23,0,.37-.12.39-.38.02-.21-.09-.35-.29-.42l-1.92-.46c-.17-.07-.26,0-.3.21-.19,1.35-.71,2.93-1.57,4.75-.02.05-.03.09-.03.12,0,.16.08.19.22.1.98-.57,1.76-1.23,2.34-1.99h2.48s-.02,1.61-.02,1.61h-2.13c-.19,0-.3.09-.3.3,0,.23.11.35.29.35h2.13s0,1.88,0,1.88l-4.25-.02c-.19,0-.28.1-.28.33s.09.33.28.33l10.71.04c.19,0,.28-.1.28-.29,0-.1-.06-.23-.18-.37Z"/>
      <path class="cls-5" d="m27.58,27.45l1.47-.19c.09-.02.19-.07.26-.19.09-.12.13-.24.11-.35v-.23s4.28.02,4.28.02l-.02.38c0,.1.03.19.11.26.06.07.14.1.23.09l1.27-.13c.31-.03.48-.31.48-.83l.09-2.85.34-.35c.09-.1.14-.19.14-.29,0-.09-.05-.17-.14-.26l-1.07-1.06c-.08-.07-.17-.12-.28-.12-.14,0-.23.03-.31.1l-.87.86-4.3-.02-1.91-.72s-.06-.02-.11-.02c-.14,0-.22.1-.22.29l.07,5.24c0,.26.11.38.34.35Zm6.21-4.47l-.02,1.09-.02.66-.04,1.13-4.28-.02-.03-1.13v-.66s-.02-1.09-.02-1.09l4.41.02Z"/>
    </g>
    <path class="cls-5" d="m52.94,28.12l-.05,3.55c-.02.56-.24.87-.63.93l-1.23.2c-.27.04-.4-.1-.4-.45v-.48s-1.82,0-1.82,0l-.17,2.78h1.52s.94-.92.94-.92c.11-.12.24-.18.34-.18s.22.06.32.16l1.17,1.15c.09.08.13.2.13.32,0,.14-.04.24-.13.32l-.38.34c-.13,1.73-.34,3.1-.61,4.07-.13.48-.36.87-.69,1.17-.34.3-.72.46-1.16.46s-.68-.16-.83-.45c-.04-.1-.11-.36-.18-.81-.07-.32-.2-.5-.39-.55l-.87-.2c-.18-.04-.25-.14-.25-.28,0-.16.09-.24.29-.24h1.1c.27,0,.45-.01.51-.03.14-.08.24-.22.31-.44.13-.54.26-1.59.37-3.13h-1.57s0,.3,0,.3c-.09.3-.24.46-.43.48l-1.39.1c-.23-.02-.36-.16-.34-.47l.33-5.2c0-.26.13-.34.34-.24l1.77.71h1.79s.05-3.34.05-3.34h-3.57c-.22-.01-.32-.16-.32-.42,0-.24.11-.36.33-.36h3.43s.89-.95.89-.95c.09-.1.22-.14.36-.14s.27.04.38.14l1.11,1.05c.11.08.16.18.16.3s-.06.24-.16.36l-.34.38Zm6.83,1.38c-.05.04-.09.12-.09.22l-.03,9c0,.42-.07.73-.24.91-.16.16-.43.26-.83.28l-1.23.08c-.13.02-.23-.04-.32-.14-.09-.12-.14-.24-.14-.38l.04-10.89c0-.16.07-.24.24-.24l2.4.11c.13,0,.23.06.32.18.09.14.13.26.11.4,0,.2-.07.36-.22.48Z"/>
    <path class="cls-5" d="m74.22,27.21c-.1,2.73-.31,5.16-.61,7.27-.11.63-.3,1.13-.63,1.54-.35.44-.79.65-1.33.65-.4,0-.67-.12-.83-.37-.03-.06-.14-.39-.31-.96-.1-.35-.38-.56-.82-.66l-.71-.16c-.24-.08-.34-.19-.33-.37.04-.17.16-.25.4-.25l1.43.04c.28,0,.48-.06.59-.21.1-.12.17-.33.21-.63.25-2.21.39-4.25.44-6.14h-3.29c-.2,2.64-.81,4.76-1.85,6.3-.83,1.23-2.21,2.34-4.14,3.33-.26.15-.43.15-.5.02-.07-.1-.05-.21.05-.33,1.38-1.59,2.35-3.15,2.93-4.65.47-1.29.75-2.85.83-4.71l-3.34-.03c-.21,0-.29-.16-.29-.46,0-.25.1-.37.31-.36l3.36.03c.02-1.17.03-2.62.03-4.33,0-.23.1-.35.29-.35l2.22.18c.43.04.65.21.67.54.02.33-.11.56-.4.67-.05.02-.07.06-.07.12,0,.85-.04,1.91-.08,3.18h3.03s1.16-1.14,1.16-1.14c.09-.1.21-.13.36-.13.19,0,.34.06.48.19l1.1,1.08c.1.1.15.21.15.35,0,.15-.05.27-.16.38l-.36.36Z"/>
    <path class="cls-6" d="m41.8,31.41c.05-.47.43-.78.84-.71s.7.51.64.98c-.05.47-.43.78-.84.71-.41-.07-.7-.51-.64-.98Z"/>
    <path class="cls-6" d="m41.69,30.45s.03.11,0,.15c-.04.04-.09.03-.13,0l-3.71-4.6s0,0,0,0c-.03-.04-.03-.11,0-.15.04-.04.09-.03.13,0l3.71,4.6s0,0,0,0Z"/>
    <path class="cls-6" d="m68.01,40c-.39-.17-.58-.65-.42-1.07s.61-.64,1-.47c.39.17.58.65.42,1.07-.16.43-.61.64-1,.47Z"/>
    <path class="cls-6" d="m67.15,39.9s.1,0,.13.04c.02.05,0,.11-.04.14l-4.88,2.94s0,0,0,0c-.05.03-.1,0-.13-.04-.02-.05,0-.11.04-.14l4.88-2.94s0,0,0,0Z"/>
    <polygon class="cls-7" points="32.94 24.7 32.07 24.44 32.26 23.9 31.78 24.17 31.62 23.13 31.45 24.17 30.97 23.9 31.16 24.43 30.29 24.69 31.16 24.95 30.97 25.49 31.44 25.22 31.61 26.26 31.78 25.23 32.25 25.49 32.07 24.96 32.94 24.7"/>
  </g>
  <g class="cls-1">
    <image id="bright-light-black-background.tif" width="6240" height="4160" transform="translate(1730.07 -2298.64) rotate(113.88) scale(.43 1.03)" xlink:href="../../../../Downloads/bright-light-black-background.png"/>
  </g>
  <rect class="cls-11" x="218.09" y="-4096.69" width="1440" height="1454.47"/>
  <rect class="cls-11" x="216.32" y="-4096.95" width="1440" height="1454.47"/>
</svg>