<?xml version="1.0" encoding="UTF-8"?>
<svg xmlns="http://www.w3.org/2000/svg" xmlns:xlink="http://www.w3.org/1999/xlink" viewBox="0 0 99.76 172.5">
  <defs>
    <style>
      .cls-1 {
        clip-path: url(#clippath);
      }

      .cls-2 {
        fill: none;
      }

      .cls-2, .cls-3, .cls-4, .cls-5, .cls-6, .cls-7, .cls-8, .cls-9, .cls-10, .cls-11, .cls-12, .cls-13 {
        stroke-width: 0px;
      }

      .cls-14 {
        font-family: KaiseiTokumin-ExtraBold, 'Kaisei Tokumin';
        font-size: 18.87px;
        font-weight: 700;
        letter-spacing: .1em;
      }

      .cls-14, .cls-6 {
        fill: #4f4186;
      }

      .cls-15, .cls-13 {
        fill: #040922;
      }

      .cls-16 {
        mix-blend-mode: multiply;
      }

      .cls-3 {
        fill: url(#_未命名漸層_176);
      }

      .cls-17 {
        isolation: isolate;
      }

      .cls-4 {
        fill: #4b3f80;
      }

      .cls-5 {
        fill: #8378b4;
      }

      .cls-7 {
        fill: #5c4b90;
      }

      .cls-8 {
        fill: #191a3c;
      }

      .cls-9 {
        fill: #cebbdb;
      }

      .cls-10 {
        fill: #fff;
      }

      .cls-11 {
        fill: #edd848;
      }

      .cls-12 {
        fill: #fbe0de;
      }
    </style>
    <linearGradient id="_未命名漸層_176" data-name="未命名漸層 176" x1="-.94" y1="112.82" x2="111.46" y2="-20.1" gradientTransform="translate(13.94 22.57) rotate(10.24)" gradientUnits="userSpaceOnUse">
      <stop offset="0" stop-color="#9381bb"/>
      <stop offset=".05" stop-color="#8a78b6"/>
      <stop offset=".23" stop-color="#705da6"/>
      <stop offset=".39" stop-color="#5f4c9d"/>
      <stop offset=".52" stop-color="#5a479a"/>
    </linearGradient>
    <clipPath id="clippath">
      <polyline class="cls-2" points="-1743.98 -1905.55 -1743.98 -4115.59 -293.42 -4115.59 -293.42 -1539.95 -1743.98 -1539.95 -1743.98 -1905.55"/>
    </clipPath>
    <clipPath id="clippath-1">
      <rect class="cls-13" x="62.09" y="-4096.69" width="1440" height="1454.47"/>
    </clipPath>
    <clipPath id="clippath-2">
      <rect class="cls-2" x="-678.76" y="-3501.23" width="2921.7" height="1191"/>
    </clipPath>
    <clipPath id="clippath-4">
      <rect class="cls-13" x="60.32" y="-4096.95" width="1440" height="1454.47"/>
    </clipPath>
    <clipPath id="clippath-5">
      <rect class="cls-2" x="-680.53" y="-3501.48" width="2921.7" height="1191"/>
    </clipPath>
  </defs>
  <g class="cls-17">
    <g id="_圖層_1" data-name="圖層 1">
      <g>
        <path class="cls-3" d="m12.85,1.31h74.06c6.54,0,11.85,5.31,11.85,11.85v146.58c0,6.54-5.31,11.85-11.85,11.85H12.85c-6.54,0-11.85-5.31-11.85-11.85V13.15C1,6.61,6.31,1.31,12.85,1.31Z"/>
        <rect class="cls-9" x="1.01" y=".92" width="97.75" height="170.27" rx="11.85" ry="11.85" transform="translate(99.82 172.1) rotate(179.97)"/>
      </g>
      <g>
        <path class="cls-11" d="m35.34,61.15c-.27.86-1.02,1.48-1.91,1.59-4.47.56-17.52,2.67-17.96,8.32-.51,6.45,9.04,12.9,12.51,15.02.74.46,1.16,1.29,1.09,2.16-.4,4.54-1.22,18.37,3.54,20.17,4.66,1.76,14.26-4.7,17.63-7.13.73-.53,1.71-.58,2.49-.13,3.96,2.28,15.91,8.61,20.01,4.64,4.1-3.97,1.28-16.35.21-20.44-.21-.81.03-1.68.64-2.25,2.96-2.8,11.31-11.26,9.48-16.05-2.05-5.37-15.24-6.51-19.68-6.73-.88-.05-1.66-.59-2-1.4-1.65-3.9-6.95-14.9-13.97-14.09-6.59.76-10.79,12.24-12.08,16.32Z"/>
        <g>
          <path class="cls-6" d="m37.63,72.42c1.5.71,3,1.41,4.5,2.12.33.15.72.09.92-.24.17-.29.09-.76-.24-.92-1.5-.71-3-1.41-4.5-2.12-.33-.15-.72-.09-.92.24-.17.29-.09.76.24.92h0Z"/>
          <path class="cls-6" d="m62.06,71.46c-1.5.71-3,1.41-4.5,2.12-.33.15-.41.62-.24.92.2.33.59.39.92.24,1.5-.71,3-1.41,4.5-2.12.33-.15.41-.62.24-.92-.2-.33-.59-.39-.92-.24h0Z"/>
          <path class="cls-4" d="m53.03,77.6c.13,1.5-.98,2.87-2.55,2.85-1.58-.02-2.63-1.43-2.46-2.92.04-.4-.37-.74-.74-.74-.44,0-.7.34-.74.74-.26,2.32,1.64,4.38,3.95,4.41,2.31.03,4.24-2.02,4.04-4.33-.03-.4-.32-.74-.74-.74-.38,0-.78.34-.74.74h0Z"/>
          <g>
            <path class="cls-6" d="m44.28,76.06c0,1.74-1.41,3.16-3.16,3.16s-3.16-1.41-3.16-3.16,1.41-3.16,3.16-3.16,3.16,1.41,3.16,3.16Z"/>
            <path class="cls-10" d="m43.18,75.04c0,.57-.46,1.02-1.02,1.02s-1.02-.46-1.02-1.02.46-1.02,1.02-1.02,1.02.46,1.02,1.02Z"/>
          </g>
          <g>
            <circle class="cls-6" cx="59.58" cy="76.06" r="3.16" transform="translate(-25.07 122.65) rotate(-80.76)"/>
            <path class="cls-10" d="m61.62,75.04c0,.57-.46,1.02-1.02,1.02s-1.02-.46-1.02-1.02.46-1.02,1.02-1.02,1.02.46,1.02,1.02Z"/>
          </g>
        </g>
        <g>
          <g class="cls-16">
            <path class="cls-11" d="m53.45,67.54c6.5-1.83,11.59-4.44,15.42-7.18-4.41-3.06-9.77-4.85-15.55-4.85-.04,0-.08,0-.12,0-1.31.4-2.64.77-3.97,1.1-2.64.65-5.42,1.24-8.18,1.8-5.09,2.56-9.27,6.66-11.92,11.68,6.14.65,14.67.16,24.32-2.56Z"/>
          </g>
          <path class="cls-7" d="m19.86,63.86c1.36,3.46,15.6,6.85,34.2,2.18,18.6-4.67,26.02-15.9,25.2-19.02-.82-3.11-14.92,4.9-29.1,7.98s-32.14,4.19-30.3,8.86Z"/>
          <path class="cls-7" d="m36.23,60.06l-1.21-16.18s-2.68,1-2.34-.98c0,0-4.48,3.83-5.48,3.22-1.01-.61,3.88-10.35,6.21-11.95s11.71-.45,13.85.33c2.14.77,14.02,19.02,14.02,19.02,0,0-8.02,8.11-25.05,6.55Z"/>
          <path class="cls-8" d="m58.36,49.1c-2.48,1.94-9.83,6.6-22.5,5.85l.38,5.11c17.03,1.57,25.05-6.55,25.05-6.55,0,0-1.21-1.86-2.93-4.41Z"/>
          <path class="cls-12" d="m53.17,50.86c-.81-.25-6.1,1.25-6.43,1.86-.36.67,1.14,7.94,2.06,7.99.92.05,7.62-1.65,7.89-2.43s-2.78-7.2-3.52-7.43Zm1.14,6.53c-.07.19-3.69,1.53-4.19,1.26-.5-.27-1.3-4.1-1.21-4.41.11-.4,3.24-1.27,3.64-1.17.39.1,1.83,4.13,1.77,4.32Z"/>
          <path class="cls-5" d="m67.65,58.7c-.11,0-.22-.06-.28-.17-.07-.15-.01-.34.14-.41,4.12-2.03,7.48-5.43,9.47-9.56.07-.15.26-.22.41-.14.15.07.22.26.14.41-2.05,4.26-5.52,7.75-9.75,9.85-.04.02-.09.03-.14.03Z"/>
          <g>
            <path class="cls-5" d="m48.04,37.38c-.06,0-.13-.02-.19-.06l-1.55-1.18c-.13-.1-.16-.3-.06-.43.1-.13.3-.16.43-.06l1.55,1.18c.13.1.16.3.06.43-.06.08-.15.12-.24.12Z"/>
            <path class="cls-5" d="m46.84,37.91c-.06,0-.11-.02-.17-.05l-.87-.56c-.14-.09-.18-.28-.09-.42.09-.14.28-.18.42-.09l.87.56c.14.09.18.28.09.42-.06.09-.16.14-.26.14Z"/>
          </g>
          <path class="cls-6" d="m30.9,66.72c-3.25,0-6.53-.94-9.28-2.68-.14-.09-.19-.28-.1-.42.09-.14.28-.19.42-.1,2.77,1.75,6.11,2.67,9.38,2.58.17,0,.31.13.31.3,0,.17-.13.31-.3.31-.15,0-.3,0-.44,0Z"/>
          <g>
            <path class="cls-6" d="m36.86,53.27c-.15,0-.28-.11-.3-.27l-.42-3.35c-.02-.17.1-.32.27-.34.17-.02.32.1.34.27l.42,3.35c.02.17-.1.32-.27.34-.01,0-.03,0-.04,0Z"/>
            <path class="cls-6" d="m37.76,52.8c-.17,0-.31-.14-.31-.31v-1.18c0-.17.14-.31.31-.31s.31.14.31.31v1.18c0,.17-.14.31-.31.31Z"/>
          </g>
        </g>
      </g>
      <text class="cls-14" transform="translate(21.57 133.14)"><tspan x="0" y="0">巫婆星</tspan></text>
      <g class="cls-1">
        <image id="bright-light-black-background.tif" width="6240" height="4160" transform="translate(1574.07 -2298.64) rotate(113.88) scale(.43 1.03)" xlink:href="../../../../Downloads/bright-light-black-background.png"/>
      </g>
      <rect class="cls-15" x="62.09" y="-4096.69" width="1440" height="1454.47"/>
      <rect class="cls-15" x="60.32" y="-4096.95" width="1440" height="1454.47"/>
    </g>
  </g>
</svg>