<?xml version="1.0" encoding="utf-8"?>
<!-- Generator: Adobe Illustrator 28.0.0, SVG Export Plug-In . SVG Version: 6.00 Build 0)  -->
<svg version="1.1" id="圖層_1" xmlns="http://www.w3.org/2000/svg" xmlns:xlink="http://www.w3.org/1999/xlink" x="0px" y="0px"
	 viewBox="0 0 1440 870.1" style="enable-background:new 0 0 1440 870.1;" xml:space="preserve">
<style type="text/css">
	.st0{clip-path:url(#SVGID_00000133512644134203435250000006758861877870383755_);}
	.st1{fill:#97A2CC;}
	.st2{opacity:0.77;fill:url(#SVGID_00000044152111888907365920000007804080213157915071_);enable-background:new    ;}
	.st3{fill:#5C4B90;}
	.st4{fill:#4F4186;}
	.st5{fill:#191A3C;}
	.st6{clip-path:url(#SVGID_00000158739645411432412550000015477317119381022366_);}
	.st7{clip-path:url(#SVGID_00000181056267582493149390000001441291949257936046_);}
</style>
<g>
	<g>
		<defs>
			<rect id="SVGID_1_" x="-4" y="-5" width="1445" height="880.6"/>
		</defs>
		<clipPath id="SVGID_00000023267788504350938810000000913983475883640497_">
			<use xlink:href="#SVGID_1_"  style="overflow:visible;"/>
		</clipPath>
		<g style="clip-path:url(#SVGID_00000023267788504350938810000000913983475883640497_);">
			<rect x="-0.8" y="-5" class="st1" width="1436.8" height="925.9"/>
			
				<radialGradient id="SVGID_00000067921859366106137820000011922308315960749753_" cx="-1515.5281" cy="1664.9642" r="376.3157" gradientTransform="matrix(3.88 0 0 2.5823 6581.8501 -3827.9626)" gradientUnits="userSpaceOnUse">
				<stop  offset="0.39" style="stop-color:#211332;stop-opacity:0"/>
				<stop  offset="0.54" style="stop-color:#211332;stop-opacity:0.33"/>
				<stop  offset="0.83" style="stop-color:#211332;stop-opacity:0.82"/>
				<stop  offset="1" style="stop-color:#211332"/>
			</radialGradient>
			
				<rect x="-135.2" y="-91.4" style="opacity:0.77;fill:url(#SVGID_00000067921859366106137820000011922308315960749753_);enable-background:new    ;" width="1698.6" height="1132.7"/>
			<g>
				<g>
					<path class="st3" d="M1441.4-60.2v455.8h-41.2c-68.5-34.6-131-97-179.2-179.1c-45.9-78.3-78.8-174.3-94.8-276.5L1441.4-60.2
						L1441.4-60.2z"/>
					<path class="st4" d="M1437.5,397.5c-66.2-65.6-129.2-120.9-180.3-257c0,0,23.6,86.5,72.2,153.4
						c47.5,65.5,95.9,106.4,95.9,106.4L1437.5,397.5L1437.5,397.5z"/>
					<path class="st4" d="M1305.9,44.4c30.9,128.8,72.5,226.6,135.5,336.9v20.1c0,0-59.8-101.7-91.2-188.4
						C1318,124.1,1305.9,44.4,1305.9,44.4L1305.9,44.4z"/>
					<path class="st4" d="M1364.1-60.2c12.8,107.4,30.1,211.4,54.2,325.2c0,0-43.9-136.6-66.3-325.2
						C1352-60.2,1364.1-60.2,1364.1-60.2z"/>
					<path class="st4" d="M1214.2-60.2c10.6,59.6,19.4,113.3,37.1,173.7c0,0-28.5-70-52.9-173.7
						C1198.4-60.2,1214.2-60.2,1214.2-60.2z"/>
				</g>
				<g>
					<path class="st3" d="M1414.6,401.9h29.8l-0.3,392.8h-100.8C1345.2,558.3,1380.5,462.3,1414.6,401.9z"/>
					<path class="st4" d="M1423.5,401.9h2.2c-23.4,63.8-38.3,144.9-41.1,228.7h-5.7C1381.2,546.2,1397.5,464.3,1423.5,401.9z"/>
					<path class="st4" d="M1437.9,401.9c-19.4,68.1-29.2,151.5-27.2,235l-5.7,1.2c-2.6-84.2,8.7-168.8,30.8-236.2L1437.9,401.9
						L1437.9,401.9z"/>
				</g>
				<path class="st5" d="M1444.4,378.4c0,0-30.1,9.4-41.2,11.9s-2.7,9.9,1.6,10.8c0,0-5.2,2.9-1.4,7.3c0,0-8,6.7-2.3,12
					c5.7,5.3,43.4-7.2,43.4-7.2L1444.4,378.4L1444.4,378.4z"/>
			</g>
			<g>
				<g>
					<path class="st3" d="M-1.3-65.7v455.8H40c68.5-34.6,131-97,179.2-179.1c45.8-78.4,78.7-174.4,94.7-276.6H-1.3L-1.3-65.7z"/>
					<path class="st4" d="M2.7,392C68.9,326.4,131.9,271.1,183,135c0,0-23.6,86.5-72.2,153.4C63.3,353.9,15,394.8,15,394.8L2.7,392
						L2.7,392z"/>
					<path class="st4" d="M134.2,38.9C103.3,167.7,61.7,265.7-1.3,375.9v20.1c0,0,59.8-101.9,91.2-188.4
						C122.1,118.7,134.2,38.9,134.2,38.9z"/>
					<path class="st4" d="M76.1-65.7C63.2,41.7,46,145.7,21.8,259.5c0,0,43.9-136.6,66.3-325.2H76.1z"/>
					<path class="st4" d="M225.9-65.7C215.3-6.1,206.5,47.6,188.8,108c0,0,28.5-70,52.9-173.7H225.9z"/>
				</g>
				<g>
					<path class="st3" d="M25.5,396.4H-4.3L-4,789.2H96.8C94.9,552.8,59.6,456.8,25.5,396.4z"/>
					<path class="st4" d="M16.6,396.4h-2.2c23.4,63.8,38.3,144.9,41.1,228.7h5.7C58.9,540.8,42.6,458.9,16.6,396.4z"/>
					<path class="st4" d="M2.2,396.4c19.4,68.1,29.2,151.5,27.2,235l5.7,1.2c2.6-84.2-8.7-168.8-30.8-236.2L2.2,396.4L2.2,396.4z"/>
				</g>
				<path class="st5" d="M-4.3,373c0,0,30.1,9.4,41.2,11.9s2.7,9.9-1.6,10.8c0,0,5.2,2.9,1.4,7.3c0,0,8,6.7,2.3,12
					s-43.4-7.2-43.4-7.2L-4.3,373L-4.3,373z"/>
			</g>
			<path class="st4" d="M308.1,443.2c-0.2,0-0.4-0.1-0.5-0.4c0-0.1-1.9-6.3-2.9-7.8c-0.9-1.2-4.1-3.5-5.3-4.2
				c-0.1-0.1-0.2-0.3-0.2-0.4s0.1-0.3,0.2-0.4c1.2-0.7,4.5-3,5.3-4.2c1-1.5,2.9-7.7,2.9-7.8c0.1-0.2,0.3-0.4,0.5-0.4
				s0.4,0.1,0.5,0.4c0,0.1,1.9,6.3,2.9,7.8c0.9,1.2,4.1,3.5,5.3,4.2c0.1,0.1,0.2,0.3,0.2,0.4s-0.1,0.3-0.2,0.4
				c-1.2,0.7-4.5,3-5.3,4.2c-1,1.5-2.9,7.7-2.9,7.8C308.5,443.1,308.4,443.2,308.1,443.2z M300.6,430.5c1.3,0.8,4,2.8,4.9,4
				c0.8,1.1,1.9,4.5,2.6,6.5c0.6-2.1,1.8-5.3,2.6-6.5c0.9-1.2,3.6-3.2,4.9-4c-1.3-0.8-4-2.8-4.9-4c-0.8-1.1-1.9-4.5-2.6-6.5
				c-0.6,2.1-1.8,5.3-2.6,6.5C304.7,427.7,301.9,429.6,300.6,430.5z"/>
			<path class="st4" d="M1087.8,439.6c0,0,1.8,8.3,4.1,9.7c2.2,1.3,10.1-1.2,10.1-1.2s-6.1,5.8-6.1,8.4c0,2.7,6.1,8.4,6.1,8.4
				s-7.9-2.6-10.1-1.2c-2.2,1.3-4.1,9.7-4.1,9.7s-1.8-8.3-4.1-9.7c-2.2-1.3-10.1,1.2-10.1,1.2s6.1-5.8,6.1-8.4
				c0-2.7-6.1-8.4-6.1-8.4s7.9,2.6,10.1,1.2C1086,448,1087.8,439.6,1087.8,439.6z"/>
			<polygon class="st4" points="1126.6,289.6 1110.6,317.4 1126.6,345.3 1142.6,317.4 			"/>
			<path class="st4" d="M1155.5,412.7c-0.3,0-0.6-0.2-0.8-0.4l-9.4-16.4c-0.2-0.3-0.2-0.6,0-0.9l9.4-16.4c0.2-0.3,0.4-0.4,0.8-0.4
				s0.6,0.2,0.8,0.4l9.4,16.4c0.2,0.3,0.2,0.6,0,0.9l-9.4,16.4C1156.1,412.5,1155.8,412.7,1155.5,412.7z M1147.1,395.4l8.3,14.5
				l8.3-14.5l-8.3-14.5L1147.1,395.4z"/>
			<path class="st4" d="M257.1,336.6c0,0,3,22.6,7.9,27.8c5,5.1,27,8.1,27,8.1s-22,3.1-27,8.1c-5,5.1-7.9,27.8-7.9,27.8
				s-3-22.6-7.9-27.8c-5-5.1-27-8.1-27-8.1s22-3.1,27-8.1S257.1,336.6,257.1,336.6z"/>
			<path class="st5" d="M-23.7,708.4v449.5h1512.8V708.4c-174.4-78.2-448.4-128.6-756.4-128.6S150.7,630.2-23.7,708.4z"/>
		</g>
	</g>
</g>
<g>
	<g>
		<defs>
			<rect id="SVGID_00000133524300980020824150000011281263910731650469_" x="-804.1" y="-4688" width="1473" height="1441"/>
		</defs>
		<clipPath id="SVGID_00000146462970762761990060000005318831557568546702_">
			<use xlink:href="#SVGID_00000133524300980020824150000011281263910731650469_"  style="overflow:visible;"/>
		</clipPath>
		<g style="clip-path:url(#SVGID_00000146462970762761990060000005318831557568546702_);">
			<g>
				<g>
					<defs>
						<rect id="SVGID_00000103233947977699142790000005203982369074912406_" x="-788.2" y="-4761.7" width="1440" height="4418.5"/>
					</defs>
					<clipPath id="SVGID_00000164500190207853433820000011051612366275473589_">
						<use xlink:href="#SVGID_00000103233947977699142790000005203982369074912406_"  style="overflow:visible;"/>
					</clipPath>
					<g style="clip-path:url(#SVGID_00000164500190207853433820000011051612366275473589_);">
						<g id="bright-light-black-background.tif" transform="translate(-1247.14 -1889) scale(.48)">
						</g>
					</g>
				</g>
			</g>
		</g>
	</g>
</g>
</svg>
