<?xml version="1.0" encoding="UTF-8"?>
<svg id="_圖層_1" data-name="圖層 1" xmlns="http://www.w3.org/2000/svg" viewBox="0 0 255.12 255.12">
  <defs>
    <style>
      .cls-1 {
        font-family: KozGoPr6N-Regular-83pv-RKSJ-H, 'Kozuka Gothic Pr6N';
        font-size: 15.7px;
      }

      .cls-1, .cls-2 {
        fill: #fff;
      }

      .cls-2 {
        stroke-width: 0px;
      }
    </style>
  </defs>
  <g>
    <ellipse class="cls-2" cx="54.05" cy="210.6" rx="2.94" ry="2.83" transform="translate(-37.1 13.2) rotate(-10.39)"/>
    <path class="cls-2" d="m111.34,135.22c1.27.53,1.84,1.95,1.28,3.18-.56,1.23-2.04,1.8-3.31,1.27-1.27-.53-1.84-1.95-1.28-3.18.56-1.23,2.04-1.8,3.31-1.27Z"/>
    <path class="cls-2" d="m151.98,107.19c1.27.53,1.84,1.95,1.28,3.18-.56,1.23-2.04,1.8-3.31,1.27-1.27-.53-1.84-1.95-1.28-3.18s2.04-1.8,3.31-1.27Z"/>
    <path class="cls-2" d="m230.88,61.12c1.27.53,1.84,1.95,1.28,3.18-.56,1.23-2.04,1.8-3.31,1.27-1.27-.53-1.84-1.95-1.28-3.18.56-1.23,2.04-1.8,3.31-1.27Z"/>
    <path class="cls-2" d="m74.99,152.17c2.04.85,2.95,3.13,2.05,5.11-.9,1.98-3.28,2.9-5.32,2.05-2.04-.85-2.95-3.13-2.05-5.11.9-1.98,3.28-2.89,5.32-2.05Z"/>
    <path class="cls-2" d="m191.01,117.53c2.04.85,2.95,3.13,2.05,5.11-.9,1.98-3.28,2.89-5.32,2.05s-2.95-3.13-2.05-5.11,3.28-2.9,5.32-2.05Z"/>
    <path class="cls-2" d="m196.34,26.84c2.04.85,2.95,3.13,2.05,5.11-.9,1.98-3.28,2.9-5.32,2.05-2.04-.85-2.95-3.13-2.05-5.11.9-1.98,3.28-2.9,5.32-2.05Z"/>
    <path class="cls-2" d="m55.71,204.92c-.12.06-.26.07-.39.02-.25-.09-.38-.36-.28-.61l16.01-40.6c.1-.25.38-.37.64-.28.25.09.38.36.28.61l-16.01,40.6c-.05.12-.14.21-.25.26Z"/>
    <path class="cls-2" d="m79.49,152.81c-.24.12-.53.03-.65-.2-.12-.23-.03-.52.22-.64l26-13.09s0,0,0,0c.24-.12.53-.03.65.2.12.23.03.52-.22.64l-26,13.09s0,0,0,0Z"/>
    <path class="cls-2" d="m115.07,135.2c-.21.1-.47.05-.61-.14-.16-.21-.11-.51.11-.66l32.18-22.74c.21-.17.53-.11.69.1.16.21.11.51-.11.66l-32.18,22.74s-.05.03-.07.04Z"/>
    <path class="cls-2" d="m153.65,104.42c-.14.07-.3.07-.45,0-.24-.12-.33-.41-.2-.64l36.89-67.68c.13-.24.42-.33.67-.21.24.12.33.41.2.64l-36.89,67.68c-.05.09-.13.17-.22.21Z"/>
    <path class="cls-2" d="m226.19,59.51c-.18.09-.4.06-.55-.07l-26.59-23.97c-.2-.18-.21-.48-.02-.67.18-.2.5-.2.7-.03l26.59,23.97c.2.18.21.48.02.67-.04.04-.09.08-.14.1Z"/>
    <path class="cls-2" d="m194.25,116.32c-.15.07-.34.07-.49-.02-.23-.14-.29-.44-.14-.66l32.94-48.61c.15-.22.45-.29.68-.14.23.14.29.44.14.66l-32.94,48.61c-.05.07-.12.13-.2.17Z"/>
    <path class="cls-2" d="m183.69,119.09c-.11.05-.24.07-.37.03l-27.03-8.11c-.26-.08-.4-.34-.32-.59.09-.25.36-.39.62-.31l27.03,8.11c.26.08.4.34.32.59-.04.13-.14.23-.25.28Z"/>
  </g>
  <text class="cls-1" transform="translate(63.77 91.36) rotate(-.03)"><tspan x="0" y="0">北斗七星</tspan></text>
</svg>