<?xml version="1.0" encoding="utf-8"?>
<!-- Generator: Adobe Illustrator 28.0.0, SVG Export Plug-In . SVG Version: 6.00 Build 0)  -->
<svg version="1.1" id="_圖層_1" xmlns="http://www.w3.org/2000/svg" xmlns:xlink="http://www.w3.org/1999/xlink" x="0px" y="0px"
	 viewBox="0 0 48.2 48.2" style="enable-background:new 0 0 48.2 48.2;" xml:space="preserve">
<style type="text/css">
	.st0{fill:#ADACAC;}
	.st1{enable-background:new    ;}
	.st2{fill:#FFFFFF;}
</style>
<path class="st0" d="M42.7,22.7c0,10.4-8.5,18.9-18.9,18.9S5,33.1,5,22.7S13.4,3.8,23.9,3.8S42.7,12.2,42.7,22.7z"/>
<g class="st1">
	<path class="st2" d="M22.9,36.9v-1.3c0-2.5-0.3-5.3-0.8-8.3c-0.5-3.1-1.1-5.6-1.8-7.5c-1.6-4.2-3.3-6.3-5.1-6.3
		c-0.8,0-1.5,0.4-2,1.1c-0.5,0.7-0.8,1.6-0.8,2.8c0,1.5,0.5,3,1.5,4.6h-2c-0.9-1.7-1.4-3.3-1.4-4.8c0-1.5,0.4-2.8,1.3-3.9
		c0.9-1,2-1.5,3.4-1.5c2.2,0,4,1.5,5.6,4.4c1.5,2.9,2.5,6.9,2.9,11.8H24c0.3-4.8,1.3-8.8,2.8-11.7c1.6-3,3.4-4.5,5.6-4.5
		c1.4,0,2.5,0.5,3.4,1.5s1.3,2.3,1.3,3.8c0,1.5-0.5,3.1-1.4,4.9h-2c1-1.7,1.5-3.3,1.5-4.8c0-1.2-0.3-2.1-0.8-2.8s-1.2-1.1-2-1.1
		c-1.8,0-3.4,2-4.9,5.9c-0.8,2-1.4,4.6-2,7.8c-0.5,3.2-0.8,6.1-0.8,8.7v1.2H22.9z"/>
</g>
</svg>
