<?xml version="1.0" encoding="utf-8"?>
<!-- Generator: Adobe Illustrator 28.0.0, SVG Export Plug-In . SVG Version: 6.00 Build 0)  -->
<svg version="1.1" id="_圖層_1" xmlns="http://www.w3.org/2000/svg" xmlns:xlink="http://www.w3.org/1999/xlink" x="0px" y="0px"
	 viewBox="0 0 48.2 48.2" style="enable-background:new 0 0 48.2 48.2;" xml:space="preserve">
<style type="text/css">
	.st0{fill:#ADACAC;}
	.st1{enable-background:new    ;}
	.st2{fill:#FFFFFF;}
</style>
<path class="st0" d="M44,23.1C44,33.6,35.5,42,25.1,42S6.2,33.6,6.2,23.1S14.7,4.3,25.1,4.3S44,12.7,44,23.1z"/>
<g class="st1">
	<path class="st2" d="M37.5,15.3v2.1c-4.1-1.9-8-2.8-11.9-2.8c-2.5,0-4.5,0.3-6.1,1c1,0.5,1.8,1.1,2.2,1.9s0.7,1.7,0.7,2.7
		c0,1.4-0.5,2.5-1.5,3.5c-1,1-2.2,1.5-3.5,1.5c-1.4,0-2.5-0.5-3.5-1.4c-1-1-1.4-2.1-1.4-3.5c0-2.2,1.3-4,4-5.4c2.6-1.4,6-2.2,10-2.2
		C30.1,12.6,33.7,13.5,37.5,15.3z M12.6,29.5v-2.1c4.1,1.9,8,2.8,11.9,2.8c2.5,0,4.5-0.3,6.1-1c-1-0.5-1.7-1.1-2.2-1.9
		c-0.5-0.8-0.7-1.7-0.7-2.7c0-1.4,0.5-2.5,1.5-3.5c1-1,2.2-1.5,3.5-1.5c1.4,0,2.5,0.5,3.5,1.4s1.5,2.1,1.5,3.5c0,2.2-1.3,4-4,5.4
		c-2.6,1.4-6,2.2-10,2.2C20.1,32.1,16.5,31.3,12.6,29.5z M21.3,20.2c0-1-0.4-1.9-1.1-2.6c-0.7-0.7-1.6-1.1-2.6-1.1s-1.9,0.3-2.6,1
		c-0.7,0.7-1,1.5-1,2.6c0,1,0.4,1.9,1.1,2.6c0.7,0.7,1.6,1.1,2.6,1.1c1,0,1.9-0.4,2.6-1.1C20.9,22,21.3,21.2,21.3,20.2z M28.9,24.6
		c0,1,0.4,1.8,1.1,2.6c0.7,0.7,1.6,1.1,2.6,1.1s1.9-0.3,2.6-1s1.1-1.5,1.1-2.6c0-1-0.4-1.9-1.1-2.6c-0.7-0.7-1.6-1.1-2.6-1.1
		c-1,0-1.9,0.4-2.6,1.1C29.3,22.7,28.9,23.6,28.9,24.6z"/>
</g>
</svg>
