<?xml version="1.0" encoding="UTF-8"?>
<svg id="_圖層_1" data-name="圖層 1" xmlns="http://www.w3.org/2000/svg" xmlns:xlink="http://www.w3.org/1999/xlink" viewBox="0 0 154 48.19">
  <defs>
    <style>
      .cls-1 {
        fill: #fff;
        stroke: #fff;
        stroke-miterlimit: 10;
        stroke-width: .44px;
      }

      .cls-2 {
        filter: url(#outer-glow-1);
      }
    </style>
    <filter id="outer-glow-1" filterUnits="userSpaceOnUse">
      <feOffset dx="0" dy="0"/>
      <feGaussianBlur result="blur" stdDeviation=".86"/>
      <feFlood flood-color="#231815" flood-opacity=".75"/>
      <feComposite in2="blur" operator="in"/>
      <feComposite in="SourceGraphic"/>
    </filter>
  </defs>
  <g class="cls-2">
    <path class="cls-1" d="m7.06,22.54h9.54v-13.12h2.48v13.12h9.54v2.44h-9.54v14.55h-2.48v-14.55H7.06v-2.44Z"/>
    <path class="cls-1" d="m46.94,35.92v-2.41h20.74v2.41h-20.74Zm2.27-20.48v-2.41h16.19v2.41h-16.19Z"/>
    <path class="cls-1" d="m98.2,36.26h8.83v2.14h-20.64v-2.14h9.43v-3.24h-6.73v-1.97h6.73v-2.74h-5.69c-.74,1.63-1.62,3.01-2.64,4.15l-1.44-1.81c1.54-1.98,2.77-4.44,3.68-7.36h-1.64v-12.78h17.26v12.78h-7.16v2.98h7.96v2.04h-7.96v2.74h7.03v1.97h-7.03v3.24Zm-7.66-20.41h12.45v-3.25h-12.45v3.25Zm0,1.94v3.51h12.45v-3.51h-12.45Zm.7,8.46h4.58v-2.98h-3.78c-.2.95-.47,1.94-.8,2.98Z"/>
    <path class="cls-1" d="m138.48,31.1v4.75h8.46v2.27h-18.94v-2.27h8.16v-4.75h-6.39v-2.17h6.39v-2.64l-1.44,1.21c-.85-2.21-1.61-4.18-2.28-5.92-.56,2.25-1.45,4.24-2.68,5.96l-.9-1.17c-.2,4.97-.99,9.24-2.38,12.81l-1.71-2.01c.67-2.1,1.15-4.37,1.46-6.83.3-2.45.45-5.46.45-9.03v-9.77h8.83v-2.88h2.34v2.88h8.67v2.18h-17.57v9.2c0,.65-.01,1.57-.03,2.78,1.41-3.03,2.38-6.68,2.91-10.94l2.21.23c-.18,1.32-.42,2.69-.74,4.12.98,1.94,1.93,4.15,2.84,6.62v-11.11h2.31v11.28c1.63-3.14,2.64-6.86,3.04-11.14l2.21.23c-.13,1.29-.33,2.63-.6,4.02,1.2,2.05,2.38,4.52,3.51,7.39l-1.71,1.1-2.51-6.02c-.49,2.32-1.27,4.34-2.34,6.05l-1.61-1.3v2.71h7.09v2.17h-7.09Z"/>
  </g>
</svg>