<?xml version="1.0" encoding="utf-8"?>
<!-- Generator: Adobe Illustrator 28.0.0, SVG Export Plug-In . SVG Version: 6.00 Build 0)  -->
<svg version="1.1" id="_圖層_1" xmlns="http://www.w3.org/2000/svg" xmlns:xlink="http://www.w3.org/1999/xlink" x="0px" y="0px"
	 viewBox="0 0 48.2 48.2" style="enable-background:new 0 0 48.2 48.2;" xml:space="preserve">
<style type="text/css">
	.st0{fill:#ADACAC;}
	.st1{enable-background:new    ;}
	.st2{fill:#FFFFFF;}
</style>
<path class="st0" d="M43,24.1C43,34.5,34.5,43,24.1,43S5.2,34.5,5.2,24.1S13.7,5.2,24.1,5.2S43,13.7,43,24.1L43,24.1z"/>
<g class="st1">
	<path class="st2" d="M33.2,14.4l1.3,9.6l-1.9,0.3l-1-7l-8.8,8.8l4.1,4.1l-1.4,1.4l-4.1-4.1l-6.1,6.1l-1.3-1.3l6.1-6.1L16,22
		l1.4-1.4l4.1,4.1l8.8-8.8l-7-1l0.3-1.9L33.2,14.4z"/>
</g>
</svg>
