<?xml version="1.0" encoding="utf-8"?>
<!-- Generator: Adobe Illustrator 28.0.0, SVG Export Plug-In . SVG Version: 6.00 Build 0)  -->
<svg version="1.1" id="_圖層_1" xmlns="http://www.w3.org/2000/svg" xmlns:xlink="http://www.w3.org/1999/xlink" x="0px" y="0px"
	 viewBox="0 0 48.2 48.2" style="enable-background:new 0 0 48.2 48.2;" xml:space="preserve">
<style type="text/css">
	.st0{fill:#ADACAC;}
	.st1{enable-background:new    ;}
	.st2{fill:#FFFFFF;}
</style>
<path class="st0" d="M43,24.1C43,34.5,34.5,43,24.1,43S5.2,34.5,5.2,24.1S13.7,5.2,24.1,5.2S43,13.7,43,24.1L43,24.1z"/>
<g class="st1">
	<path class="st2" d="M17.3,20.9v12.2h-2V18.9c0-2-0.5-3.7-1.6-5.3h2.1c0.7,1,1.2,2.3,1.5,3.9c0.7-1.6,1.4-2.9,2.3-3.9l1.9-0.4
		c0.9,1.1,1.4,2.6,1.7,4.5c0.4-1.4,1.2-2.8,2.4-4.1l1.9-0.4c1.1,1.5,1.6,3.1,1.6,4.9v3.7c0.5-1.5,1.1-2.7,1.7-3.5l1.6-0.6
		c1.4,2.2,2.1,4.4,2.1,6.8c0,1.9-0.4,3.6-1.2,5.3c-0.8,1.7-2.1,3.2-3.7,4.6c0.2,1.1,0.8,2.4,2,3.9h-2.3c-0.6-0.7-1-1.6-1.5-2.8
		c-1.2,0.7-2.7,1.2-4.5,1.5v-1.7c1.7-0.3,3-0.8,4.1-1.5c-0.1-0.8-0.2-1.7-0.2-2.5V19.4c0-1.9-0.3-3.4-0.8-4.4
		c-1.4,1.5-2.4,3.6-3.1,6.3v11.8h-2v-13c0-2.4-0.3-4.1-0.9-5C19,16.6,18,18.5,17.3,20.9z M29.1,32.6c1.1-1.2,2-2.4,2.6-3.7
		c0.6-1.3,0.8-2.7,0.8-4.2c0-1.6-0.3-3.1-1-4.5c-1,1.2-1.8,2.8-2.4,4.8V32.6z"/>
</g>
</svg>
