<?xml version="1.0" encoding="UTF-8"?>
<svg id="_圖層_1" data-name="圖層 1" xmlns="http://www.w3.org/2000/svg" viewBox="0 0 146 146">
  <defs>
    <style>
      .cls-1 {
        font-family: KozGoPr6N-Regular-83pv-RKSJ-H, 'Kozuka Gothic Pr6N';
        font-size: 15.7px;
      }

      .cls-1, .cls-2 {
        fill: #fff;
      }

      .cls-2 {
        stroke-width: 0px;
      }
    </style>
  </defs>
  <path class="cls-2" d="m118.36,69.69c.55,1.25-.01,2.68-1.27,3.18-1.25.5-2.72-.1-3.28-1.36-.55-1.25.01-2.68,1.27-3.18,1.25-.5,2.72.1,3.28,1.36Z"/>
  <path class="cls-2" d="m50.58,83.06c.89,2.02-.02,4.31-2.04,5.12-2.02.81-4.38-.17-5.27-2.18s.02-4.31,2.04-5.12c2.02-.81,4.38.17,5.27,2.18Z"/>
  <path class="cls-2" d="m116.98,21.05c.89,2.02-.02,4.31-2.04,5.12-2.02.81-4.38-.17-5.27-2.18-.89-2.02.02-4.31,2.04-5.12,2.02-.81,4.38.17,5.27,2.18Z"/>
  <path class="cls-2" d="m32.57,47.81c-.14-.05-.27-.16-.32-.31-.09-.25.04-.52.29-.6l73.38-23.58c.26-.09.53.05.62.31.09.25-.04.52-.29.6l-73.38,23.58c-.1.03-.21.03-.3,0Z"/>
  <path class="cls-2" d="m116.07,65.29c-.19-.06-.33-.23-.35-.44l-2.74-35.7c-.02-.27.18-.49.45-.5.27-.02.5.2.52.46l2.74,35.7c.02.27-.18.49-.45.5-.06,0-.12,0-.17-.02Z"/>
  <path class="cls-2" d="m53.77,84.42c-.16-.05-.29-.18-.33-.35-.07-.26.09-.52.35-.57l57.38-12.5c.26-.06.52.11.59.37.07.26-.09.52-.35.57l-57.38,12.5c-.09.02-.18.01-.26-.01Z"/>
  <path class="cls-2" d="m44.21,79.14c-.12-.04-.22-.12-.29-.23l-13.98-24.51c-.13-.23-.05-.53.18-.65.24-.12.53-.03.67.2l13.98,24.51c.13.23.05.53-.18.65-.12.06-.26.07-.38.03Z"/>
  <text class="cls-1" transform="translate(31.63 121.49) rotate(-1.44)"><tspan x="0" y="0">烏鴉座</tspan></text>
</svg>