<?xml version="1.0" encoding="UTF-8"?>
<svg xmlns="http://www.w3.org/2000/svg" xmlns:xlink="http://www.w3.org/1999/xlink" viewBox="0 0 759 546">
  <defs>
    <style>
      .cls-1 {
        fill: url(#_未命名漸層_264);
      }

      .cls-1, .cls-2, .cls-3, .cls-4, .cls-5, .cls-6, .cls-7, .cls-8, .cls-9, .cls-10, .cls-11, .cls-12, .cls-13, .cls-14, .cls-15 {
        stroke-width: 0px;
      }

      .cls-16, .cls-17 {
        opacity: .87;
      }

      .cls-18 {
        isolation: isolate;
      }

      .cls-2 {
        fill: url(#_未命名漸層_264-12);
      }

      .cls-3 {
        fill: url(#_未命名漸層_264-11);
      }

      .cls-4 {
        fill: url(#_未命名漸層_264-13);
      }

      .cls-5 {
        fill: url(#_未命名漸層_264-10);
      }

      .cls-6 {
        fill: url(#_未命名漸層_264-14);
      }

      .cls-7 {
        fill: #116494;
      }

      .cls-17 {
        mix-blend-mode: multiply;
      }

      .cls-8 {
        fill: url(#_未命名漸層_264-4);
      }

      .cls-9 {
        fill: url(#_未命名漸層_264-3);
      }

      .cls-10 {
        fill: url(#_未命名漸層_264-7);
      }

      .cls-11 {
        fill: url(#_未命名漸層_264-5);
      }

      .cls-12 {
        fill: url(#_未命名漸層_264-8);
      }

      .cls-13 {
        fill: url(#_未命名漸層_264-6);
      }

      .cls-14 {
        fill: url(#_未命名漸層_264-2);
      }

      .cls-15 {
        fill: url(#_未命名漸層_264-9);
      }
    </style>
    <radialGradient id="_未命名漸層_264" data-name="未命名漸層 264" cx="379.31" cy="322.24" fx="379.31" fy="322.24" r="264.82" gradientTransform="translate(.39 -2.58) rotate(-.03)" gradientUnits="userSpaceOnUse">
      <stop offset=".24" stop-color="#158abf"/>
      <stop offset="1" stop-color="#fff"/>
    </radialGradient>
    <radialGradient id="_未命名漸層_264-2" data-name="未命名漸層 264" cx="454.36" cy="87.63" fx="454.36" fy="87.63" r="13.47" xlink:href="#_未命名漸層_264"/>
    <radialGradient id="_未命名漸層_264-3" data-name="未命名漸層 264" cx="588.93" cy="124.49" fx="588.93" fy="124.49" r="27.73" xlink:href="#_未命名漸層_264"/>
    <radialGradient id="_未命名漸層_264-4" data-name="未命名漸層 264" cx="489.2" cy="97.35" fx="489.2" fy="97.35" r="23.76" xlink:href="#_未命名漸層_264"/>
    <radialGradient id="_未命名漸層_264-5" data-name="未命名漸層 264" cx="432.34" cy="93" fx="432.34" fy="93" r="11.94" xlink:href="#_未命名漸層_264"/>
    <radialGradient id="_未命名漸層_264-6" data-name="未命名漸層 264" cx="437.22" cy="127.35" fx="437.22" fy="127.35" r="19.7" xlink:href="#_未命名漸層_264"/>
    <radialGradient id="_未命名漸層_264-7" data-name="未命名漸層 264" cx="629.23" cy="189.15" fx="629.23" fy="189.15" r="24.09" xlink:href="#_未命名漸層_264"/>
    <radialGradient id="_未命名漸層_264-8" data-name="未命名漸層 264" cx="620.58" cy="142.04" fx="620.58" fy="142.04" r="26.18" xlink:href="#_未命名漸層_264"/>
    <radialGradient id="_未命名漸層_264-9" data-name="未命名漸層 264" cx="594.41" cy="214.62" fx="594.41" fy="214.62" r="17.76" xlink:href="#_未命名漸層_264"/>
    <radialGradient id="_未命名漸層_264-10" data-name="未命名漸層 264" cx="567.44" cy="187.1" fx="567.44" fy="187.1" r="35.87" xlink:href="#_未命名漸層_264"/>
    <radialGradient id="_未命名漸層_264-11" data-name="未命名漸層 264" cx="431.25" cy="235.46" fx="431.25" fy="235.46" r="9.58" xlink:href="#_未命名漸層_264"/>
    <radialGradient id="_未命名漸層_264-12" data-name="未命名漸層 264" cx="484.79" cy="180.49" fx="484.79" fy="180.49" r="75.92" xlink:href="#_未命名漸層_264"/>
    <radialGradient id="_未命名漸層_264-13" data-name="未命名漸層 264" cx="341.64" cy="328.47" fx="341.64" fy="328.47" r=".38" xlink:href="#_未命名漸層_264"/>
    <radialGradient id="_未命名漸層_264-14" data-name="未命名漸層 264" cx="284.71" cy="381.88" fx="284.71" fy="381.88" r="34.48" xlink:href="#_未命名漸層_264"/>
  </defs>
  <g class="cls-18">
    <g id="_圖層_1" data-name="圖層 1">
      <g>
        <g class="cls-16">
          <path class="cls-7" d="m694.15,446.43c-.05,0-.14-.02-.2-.03-3.59-5-6.75-10.42-10.7-15.35-11.18-13.95-24.37-25.72-40.98-32.97-23.13-10.1-47.67-17.17-70.89-27.09-30.67-13.1-12.52-33.63-1.33-54.98,13.88-26.48,22.15-54.21,20.06-82.83-15.35-.85-31.68-8.82-43.42-15.98-1.93-1.17-3.72-2.4-5.43-3.66-12.4,17.49-37.84,16.53-45.83,15.74-5.57-.56-10.7-2.66-15.68-4.86.5,3.15.47,6.51-.24,10.08-.48,2.41-1.25,4.85-2.24,7.23-3.03,7.31-8.16,13.99-13.62,17.29-11.44,6.93-23.83,8.41-34.86,4.2-11.11-4.25-19.45-14.05-22.96-27.23-.17-.95-3.48-20.22,4.63-32.22-20.95-3.35-46.63-18.4-65.36-25.56-34.65-13.24-71.19-32.46-107.67-20.91-14.3,4.53-27.92,10.64-40.88,18.59-13.53,8.32-14.79,13.68-23.21,25.72-14.21,20.3-38.08,8.57-58.96,11.76-26.93,4.09-40.96,31.28-69.99,18.95-3.79,15.54,21.77,27.99,36.12,29.46,15.99,1.63,26.9-11.89,42.97-10.12,37.38,4.11,37.16,46.55,64.72,63.55,17.75,10.95,39.52,16.42,59.94,18.52,20.17-1.38,35.21.22,44.74,1.97-.06-.09-.11-.2-.17-.29,9.28,1.13,18.16,3.89,26.04,10.47,14.62,12.24,20.26,40.96,28.43,56.73,5.12,9.88,11.55,14.17,17.1,32.71l5.37,21.65s24.2,8.19,27.04,1.33c2.85-6.86-12.1-32.45-12.1-32.45-2.34-10.98-4.32-24.08-8.45-35.56-3.87-10.79-25.96-45.88-32.34-59.79-.84-1.84-1.4-3.29-1.62-4.28-.09-.41-.14-.78-.1-1.03.12.06.23.1.35.16,29.75-72.36-30.9-111.08-33.51-112.69-1.97-1.23-2.53-3.74-1.26-5.63,1.27-1.88,3.89-2.44,5.85-1.23.7.44,69.42,44.01,36.65,122.95-.03.07-.1.13-.14.21,15.81,7.91,33.09,18.96,42.76,27.95,13.03,12.15,17.17,26.87,27.43,41.34,10.05,14.17,23.52,24.83,33.04,39.5,3.28,5.04,6.87,12.83,11.25,20.07.95,4.28,4.44,18.58,9.76,23.76,6.29,6.11,28.76,2.51,28.76,2.51l-14.33-31.96h-.05c-1.12-3.64-3.25-7.39-6.6-11.71-12.68-16.31-22.92-34.32-36.44-49.64-7.09-8.04-21.06-26.98-8.91-33,6.07-4.75,27.73-21,44.17-24.19,15.64-3.05,21.85-14.68,22.1-15.16,1.04-2.01,3.59-2.84,5.68-1.85,2.09.99,2.97,3.42,1.95,5.44-.33.63-8.17,15.69-28.04,19.55-9.74,1.89-22.24,9.52-31.06,15.62,9.44,2.65,20.86,9.17,27.68,11.78,24.77,9.47,50.06,16.5,75.03,26.02,27.69,10.55,49.22,29.18,75.41,42.17,10.58,5.25,22.5,9.05,33.95,13.07,3.15,6.37,10.89,19.92,21.33,23.91,13.82,5.28,30.95-6.72,30.95-6.72l-21.66-20.99Z"/>
          <g>
            <path class="cls-7" d="m449.74,96.33c2.43.48,5.18,1.72,8.11,4.26.06.05.11.11.15.16,10.71-10.69,7.21-23.81,3.75-31.28-2.77-.69-5.71-.91-9.02-.34-3.08.54-5.84,1.36-8.33,2.4,1.04,1.08,1.94,2.27,2.73,3.59,4.12,6.91,3.62,15.49,2.6,21.2Z"/>
            <path class="cls-7" d="m565.22,142.79c6.81-1.01,12.19-.58,17.11.87l3.71-6.39c5.87-11.03,13.51-25.25,35.74-26.58-21.87-11.96-48.92-16.88-64.8-1.8,4.27,8,10.08,21.62,8.24,33.91Z"/>
            <path class="cls-7" d="m462.93,107.49c1.04,2.22,1.75,4.71,2.1,7.39,7.43-9.29,17.67-19.22,28.56-20.87l12.54-2.51c3.69-.87,6.73-1.6,10.25-1.77-3.81-2.72-7.8-5.09-12.87-6.44-6.6-1.78-13.99-1.02-21.67-4.3-3.4-1.45-6.45-3.22-9.43-4.87,2.66,10.46,1.75,23.12-9.46,33.37Z"/>
            <path class="cls-7" d="m435.06,104.33c1.34-2.69,3.27-4.97,5.66-6.42,1.02-3.92,2.67-12.69-.96-18.76-.75-1.24-1.75-2.25-2.88-3.14-7.04,5.68-10.87,13.95-13.29,22.89,4.08.94,8.08,3.02,11.47,5.43Z"/>
            <path class="cls-7" d="m453.45,131.98c.09-.15.43-.78.96-1.67,3.41-8.62,2.81-15.84.27-20.44-.23-.17-.48-.31-.66-.54-.39-.48-.63-1.02-.78-1.58-.34-.41-.71-.79-1.09-1.11-1.97-1.71-3.72-2.5-5.23-2.41-.62.53-1.36.88-2.18.99-.97.76-1.8,1.82-2.36,3.16-.29.69-.42,1.45-.57,2.2.48,1.1.43,2.34-.13,3.4.04.29-.01.58.04.86.39,1.73,1.34,2.9,2.59,3.8.05-.29.02-.59.14-.85.57-1.38,1.95-2.35,3.64-2.47,2.34-.18,4.38,1.66,4.57,3.9l.08.93c.16,1.53.41,3.82-1.79,6.52l-1.46,1.79-2.35-.25c-7.15-.74-12.28-5.12-13.73-11.7-.23-1.04-.31-2.1-.36-3.16-2.45-2.06-7-5.47-11.29-6.49-.68,3.46-1.23,6.92-1.75,10.29-1.53,9.95-3.97,14.11,5.7,20.14,5.36,3.35,13.18,5.5,19.68,7.5,3.28-3.89,5.79-7.68,7.57-11.26.05-.53.2-1.06.47-1.56Z"/>
            <path class="cls-7" d="m612.87,164.73c2.13,6.63,1.74,15.17-1.37,22.14-.84,1.88-1.89,3.59-3.07,5.17,5.87,2.61,12.04,7.34,14.74,13.49,1.02,2.36,1.48,4.79,1.42,7.26,1.95-1.44,3.9-2.97,5.82-4.66,11.05-9.71,18.2-23.68,20.61-38.2-14.27-15.53-27.76-10.27-38.16-5.2Z"/>
            <path class="cls-7" d="m593.61,140.97l-3.44,5.87c3.31,1.69,6.66,3.76,10.39,6.08l7.92,4.82c9.6-4.71,26.5-11.85,43.48,1.75.06-15.06-5.22-29.75-17-40.03-27.67-4.17-34.62,8.87-41.34,21.51Z"/>
            <path class="cls-7" d="m615.34,208.69c-2.16-4.94-8.58-9.04-13.57-10.42-3.5,2.27-7.59,3.82-12.22,4.48-2.42.33-4.82.3-7.16-.03-.19,5.46-4.07,11.44-7.16,16.15l-1.53,2.4c8.75,3.12,16.65,4.43,23.1,3.63.18-.02.34.03.52.03,5.69-.99,11.27-2.84,16.75-5.62.08-.3.13-.61.29-.91,1.99-3.46,2.31-6.64.97-9.71Z"/>
            <path class="cls-7" d="m565.8,218.07l2.24-3.55c2.14-3.27,7.15-10.92,5.68-13.17-.39-.59-.54-1.23-.59-1.88-2.66-1.59-4.98-3.66-6.77-6.18-4.72-6.67-4.84-15.14-.32-22.7,1.17-1.94,3.76-2.62,5.8-1.5,2.03,1.12,2.74,3.61,1.56,5.56-2.95,4.93-2.96,9.93-.02,14.08,3.15,4.44,9.01,6.77,14.93,5.94,7.4-1.03,12.58-4.74,15.38-11.01.07-.18.15-.35.23-.53,3.05-7.36,1.71-15.35-.55-18.85-1.56-.95-7.43-4.52-7.43-4.52-13.94-8.66-19.72-12.24-38.07-7.05-15.55,4.4-25.82,13.7-27.47,24.89-1.71,11.69,5.88,23.6,20.83,32.72,5.01,3.06,9.87,5.61,14.56,7.74Z"/>
          </g>
          <g>
            <path class="cls-7" d="m441.61,228.85c-9.83-3.76-19.67,1.09-20.08,1.3-2.07,1.04-2.87,3.49-1.79,5.48,1.07,1.98,3.63,2.77,5.7,1.74.07-.04,6.86-3.31,13.02-.96,2.18.83,4.65-.19,5.51-2.28.87-2.08-.19-4.45-2.37-5.29Z"/>
            <path class="cls-7" d="m522.01,176.48c2.12-14.44,14.63-26.25,33.48-31.57.21-.06.4-.1.61-.16,2.98-9.1-1.06-20.66-4.93-28.7-.02.04-.05.06-.07.11l-.18-.15c-3.78-8.2-12.67-11.65-20.25-16.13-11.58-3.05-15.05-2.24-22.49-.48l-13.26,2.66c-12.91,1.95-27.25,22.23-32.93,31.91-1.32,3.18-3.09,6.43-5.29,9.73-4.16,10.91-8.36,21.91-13.69,32.1-4.56,8.67-13.66,18-21.27,27.66-.28.6-.66,1.17-1.24,1.61-8.39,6.15-7.39,23.41-6.38,29.21,2.8,10.46,9.13,18.05,17.81,21.36,8.46,3.24,18.11,1.97,27.2-3.52,4.6-2.78,10.36-10.7,12.05-19.17.77-3.84.96-9.35-2.45-13.85-1.14-1.48-1.16-3.56.05-4.99,1.21-1.43,3.19-1.95,4.95-1.2l7.27,3.1c5.29,2.39,10.3,4.64,15.32,5.14,8.74.89,29.26,1.21,38.49-13.01-9.84-9.44-14.43-20.52-12.79-31.68Zm-83.54,59.94c-6.16-2.35-12.95.93-13.02.96-2.07,1.02-4.63.24-5.7-1.74-1.08-1.99-.28-4.44,1.79-5.48.41-.21,10.25-5.06,20.08-1.3,2.18.83,3.24,3.2,2.37,5.29-.87,2.09-3.33,3.11-5.51,2.28Zm76.38-86.36c-.43,1.03-1.66,1.54-2.74,1.14-1.19-.43-9.35-2.01-16.72,1.47-4.42,2.08-7.68,5.67-9.81,10.58.55.05,1.08-.01,1.6.19l.65.27c2.27,1.02,9.18,4.15,18.48-2.45,0,0,4.92-1.48,2.52,3.27-7.52,5.35-15.19,6.31-23.21,2.68-.56-.21-1.88-.09-2.61.09l-3.64.88,1.09-3.45c2.4-7.54,6.86-12.86,13.24-15.81,8.96-4.14,18.48-2.09,19.98-1.51,1.08.42,1.6,1.58,1.18,2.63,0,0,0,0,0,.01Z"/>
          </g>
          <path class="cls-7" d="m342.4,325.34c-.11-.06-.23-.11-.35-.16-.04.25.01.61.1,1.03.04-.15.03-.31.09-.48.06-.13.09-.26.15-.38Z"/>
          <path class="cls-7" d="m279.03,367.23c3.83,6.07,7.63,12.96,12.43,18.84-.43,2.11-3.18,16.77,1.33,21.93,4.87,5.57,23.35,8.93,23.35,8.93l-3.58-17.49c3.58-8.96-3.91-32.93-14.63-54.29-6.61-1.67-21.44-4.53-43.42-3.63,6.47,8.52,19.19,17.27,24.53,25.72Z"/>
        </g>
        <g class="cls-17">
          <path class="cls-1" d="m694.15,446.43c-.05,0-.14-.02-.2-.03-3.59-5-6.75-10.42-10.7-15.35-11.18-13.95-24.37-25.72-40.98-32.97-23.13-10.1-47.67-17.17-70.89-27.09-30.67-13.1-12.52-33.63-1.33-54.98,13.88-26.48,22.15-54.21,20.06-82.83-15.35-.85-31.68-8.82-43.42-15.98-1.93-1.17-3.72-2.4-5.43-3.66-12.4,17.49-37.84,16.53-45.83,15.74-5.57-.56-10.7-2.66-15.68-4.86.5,3.15.47,6.51-.24,10.08-.48,2.41-1.25,4.85-2.24,7.23-3.03,7.31-8.16,13.99-13.62,17.29-11.44,6.93-23.83,8.41-34.86,4.2-11.11-4.25-19.45-14.05-22.96-27.23-.17-.95-3.48-20.22,4.63-32.22-20.95-3.35-46.63-18.4-65.36-25.56-34.65-13.24-71.19-32.46-107.67-20.91-14.3,4.53-27.92,10.64-40.88,18.59-13.53,8.32-14.79,13.68-23.21,25.72-14.21,20.3-38.08,8.57-58.96,11.76-26.93,4.09-40.96,31.28-69.99,18.95-3.79,15.54,21.77,27.99,36.12,29.46,15.99,1.63,26.9-11.89,42.97-10.12,37.38,4.11,37.16,46.55,64.72,63.55,17.75,10.95,39.52,16.42,59.94,18.52,20.17-1.38,35.21.22,44.74,1.97-.06-.09-.11-.2-.17-.29,9.28,1.13,18.16,3.89,26.04,10.47,14.62,12.24,20.26,40.96,28.43,56.73,5.12,9.88,11.55,14.17,17.1,32.71l5.37,21.65s24.2,8.19,27.04,1.33c2.85-6.86-12.1-32.45-12.1-32.45-2.34-10.98-4.32-24.08-8.45-35.56-3.87-10.79-25.96-45.88-32.34-59.79-.84-1.84-1.4-3.29-1.62-4.28-.09-.41-.14-.78-.1-1.03.12.06.23.1.35.16,29.75-72.36-30.9-111.08-33.51-112.69-1.97-1.23-2.53-3.74-1.26-5.63,1.27-1.88,3.89-2.44,5.85-1.23.7.44,69.42,44.01,36.65,122.95-.03.07-.1.13-.14.21,15.81,7.91,33.09,18.96,42.76,27.95,13.03,12.15,17.17,26.87,27.43,41.34,10.05,14.17,23.52,24.83,33.04,39.5,3.28,5.04,6.87,12.83,11.25,20.07.95,4.28,4.44,18.58,9.76,23.76,6.29,6.11,28.76,2.51,28.76,2.51l-14.33-31.96h-.05c-1.12-3.64-3.25-7.39-6.6-11.71-12.68-16.31-22.92-34.32-36.44-49.64-7.09-8.04-21.06-26.98-8.91-33,6.07-4.75,27.73-21,44.17-24.19,15.64-3.05,21.85-14.68,22.1-15.16,1.04-2.01,3.59-2.84,5.68-1.85,2.09.99,2.97,3.42,1.95,5.44-.33.63-8.17,15.69-28.04,19.55-9.74,1.89-22.24,9.52-31.06,15.62,9.44,2.65,20.86,9.17,27.68,11.78,24.77,9.47,50.06,16.5,75.03,26.02,27.69,10.55,49.22,29.18,75.41,42.17,10.58,5.25,22.5,9.05,33.95,13.07,3.15,6.37,10.89,19.92,21.33,23.91,13.82,5.28,30.95-6.72,30.95-6.72l-21.66-20.99Z"/>
          <g>
            <path class="cls-14" d="m449.74,96.33c2.43.48,5.18,1.72,8.11,4.26.06.05.11.11.15.16,10.71-10.69,7.21-23.81,3.75-31.28-2.77-.69-5.71-.91-9.02-.34-3.08.54-5.84,1.36-8.33,2.4,1.04,1.08,1.94,2.27,2.73,3.59,4.12,6.91,3.62,15.49,2.6,21.2Z"/>
            <path class="cls-9" d="m565.22,142.79c6.81-1.01,12.19-.58,17.11.87l3.71-6.39c5.87-11.03,13.51-25.25,35.74-26.58-21.87-11.96-48.92-16.88-64.8-1.8,4.27,8,10.08,21.62,8.24,33.91Z"/>
            <path class="cls-8" d="m462.93,107.49c1.04,2.22,1.75,4.71,2.1,7.39,7.43-9.29,17.67-19.22,28.56-20.87l12.54-2.51c3.69-.87,6.73-1.6,10.25-1.77-3.81-2.72-7.8-5.09-12.87-6.44-6.6-1.78-13.99-1.02-21.67-4.3-3.4-1.45-6.45-3.22-9.43-4.87,2.66,10.46,1.75,23.12-9.46,33.37Z"/>
            <path class="cls-11" d="m435.06,104.33c1.34-2.69,3.27-4.97,5.66-6.42,1.02-3.92,2.67-12.69-.96-18.76-.75-1.24-1.75-2.25-2.88-3.14-7.04,5.68-10.87,13.95-13.29,22.89,4.08.94,8.08,3.02,11.47,5.43Z"/>
            <path class="cls-13" d="m453.45,131.98c.09-.15.43-.78.96-1.67,3.41-8.62,2.81-15.84.27-20.44-.23-.17-.48-.31-.66-.54-.39-.48-.63-1.02-.78-1.58-.34-.41-.71-.79-1.09-1.11-1.97-1.71-3.72-2.5-5.23-2.41-.62.53-1.36.88-2.18.99-.97.76-1.8,1.82-2.36,3.16-.29.69-.42,1.45-.57,2.2.48,1.1.43,2.34-.13,3.4.04.29-.01.58.04.86.39,1.73,1.34,2.9,2.59,3.8.05-.29.02-.59.14-.85.57-1.38,1.95-2.35,3.64-2.47,2.34-.18,4.38,1.66,4.57,3.9l.08.93c.16,1.53.41,3.82-1.79,6.52l-1.46,1.79-2.35-.25c-7.15-.74-12.28-5.12-13.73-11.7-.23-1.04-.31-2.1-.36-3.16-2.45-2.06-7-5.47-11.29-6.49-.68,3.46-1.23,6.92-1.75,10.29-1.53,9.95-3.97,14.11,5.7,20.14,5.36,3.35,13.18,5.5,19.68,7.5,3.28-3.89,5.79-7.68,7.57-11.26.05-.53.2-1.06.47-1.56Z"/>
            <path class="cls-10" d="m612.87,164.73c2.13,6.63,1.74,15.17-1.37,22.14-.84,1.88-1.89,3.59-3.07,5.17,5.87,2.61,12.04,7.34,14.74,13.49,1.02,2.36,1.48,4.79,1.42,7.26,1.95-1.44,3.9-2.97,5.82-4.66,11.05-9.71,18.2-23.68,20.61-38.2-14.27-15.53-27.76-10.27-38.16-5.2Z"/>
            <path class="cls-12" d="m593.61,140.97l-3.44,5.87c3.31,1.69,6.66,3.76,10.39,6.08l7.92,4.82c9.6-4.71,26.5-11.85,43.48,1.75.06-15.06-5.22-29.75-17-40.03-27.67-4.17-34.62,8.87-41.34,21.51Z"/>
            <path class="cls-15" d="m615.34,208.69c-2.16-4.94-8.58-9.04-13.57-10.42-3.5,2.27-7.59,3.82-12.22,4.48-2.42.33-4.82.3-7.16-.03-.19,5.46-4.07,11.44-7.16,16.15l-1.53,2.4c8.75,3.12,16.65,4.43,23.1,3.63.18-.02.34.03.52.03,5.69-.99,11.27-2.84,16.75-5.62.08-.3.13-.61.29-.91,1.99-3.46,2.31-6.64.97-9.71Z"/>
            <path class="cls-5" d="m565.8,218.07l2.24-3.55c2.14-3.27,7.15-10.92,5.68-13.17-.39-.59-.54-1.23-.59-1.88-2.66-1.59-4.98-3.66-6.77-6.18-4.72-6.67-4.84-15.14-.32-22.7,1.17-1.94,3.76-2.62,5.8-1.5,2.03,1.12,2.74,3.61,1.56,5.56-2.95,4.93-2.96,9.93-.02,14.08,3.15,4.44,9.01,6.77,14.93,5.94,7.4-1.03,12.58-4.74,15.38-11.01.07-.18.15-.35.23-.53,3.05-7.36,1.71-15.35-.55-18.85-1.56-.95-7.43-4.52-7.43-4.52-13.94-8.66-19.72-12.24-38.07-7.05-15.55,4.4-25.82,13.7-27.47,24.89-1.71,11.69,5.88,23.6,20.83,32.72,5.01,3.06,9.87,5.61,14.56,7.74Z"/>
          </g>
          <g>
            <path class="cls-3" d="m441.61,228.85c-9.83-3.76-19.67,1.09-20.08,1.3-2.07,1.04-2.87,3.49-1.79,5.48,1.07,1.98,3.63,2.77,5.7,1.74.07-.04,6.86-3.31,13.02-.96,2.18.83,4.65-.19,5.51-2.28.87-2.08-.19-4.45-2.37-5.29Z"/>
            <path class="cls-2" d="m522.01,176.48c2.12-14.44,14.63-26.25,33.48-31.57.21-.06.4-.1.61-.16,2.98-9.1-1.06-20.66-4.93-28.7-.02.04-.05.06-.07.11l-.18-.15c-3.78-8.2-12.67-11.65-20.25-16.13-11.58-3.05-15.05-2.24-22.49-.48l-13.26,2.66c-12.91,1.95-27.25,22.23-32.93,31.91-1.32,3.18-3.09,6.43-5.29,9.73-4.16,10.91-8.36,21.91-13.69,32.1-4.56,8.67-13.66,18-21.27,27.66-.28.6-.66,1.17-1.24,1.61-8.39,6.15-7.39,23.41-6.38,29.21,2.8,10.46,9.13,18.05,17.81,21.36,8.46,3.24,18.11,1.97,27.2-3.52,4.6-2.78,10.36-10.7,12.05-19.17.77-3.84.96-9.35-2.45-13.85-1.14-1.48-1.16-3.56.05-4.99,1.21-1.43,3.19-1.95,4.95-1.2l7.27,3.1c5.29,2.39,10.3,4.64,15.32,5.14,8.74.89,29.26,1.21,38.49-13.01-9.84-9.44-14.43-20.52-12.79-31.68Zm-83.54,59.94c-6.16-2.35-12.95.93-13.02.96-2.07,1.02-4.63.24-5.7-1.74-1.08-1.99-.28-4.44,1.79-5.48.41-.21,10.25-5.06,20.08-1.3,2.18.83,3.24,3.2,2.37,5.29-.87,2.09-3.33,3.11-5.51,2.28Zm76.38-86.36c-.43,1.03-1.66,1.54-2.74,1.14-1.19-.43-9.35-2.01-16.72,1.47-4.42,2.08-7.68,5.67-9.81,10.58.55.05,1.08-.01,1.6.19l.65.27c2.27,1.02,9.18,4.15,18.48-2.45,0,0,4.92-1.48,2.52,3.27-7.52,5.35-15.19,6.31-23.21,2.68-.56-.21-1.88-.09-2.61.09l-3.64.88,1.09-3.45c2.4-7.54,6.86-12.86,13.24-15.81,8.96-4.14,18.48-2.09,19.98-1.51,1.08.42,1.6,1.58,1.18,2.63,0,0,0,0,0,.01Z"/>
          </g>
          <path class="cls-4" d="m342.4,325.34c-.11-.06-.23-.11-.35-.16-.04.25.01.61.1,1.03.04-.15.03-.31.09-.48.06-.13.09-.26.15-.38Z"/>
          <path class="cls-6" d="m279.03,367.23c3.83,6.07,7.63,12.96,12.43,18.84-.43,2.11-3.18,16.77,1.33,21.93,4.87,5.57,23.35,8.93,23.35,8.93l-3.58-17.49c3.58-8.96-3.91-32.93-14.63-54.29-6.61-1.67-21.44-4.53-43.42-3.63,6.47,8.52,19.19,17.27,24.53,25.72Z"/>
        </g>
      </g>
    </g>
  </g>
</svg>