<?xml version="1.0" encoding="utf-8"?>
<!-- Generator: Adobe Illustrator 28.0.0, SVG Export Plug-In . SVG Version: 6.00 Build 0)  -->
<svg version="1.1" id="_圖層_1" xmlns="http://www.w3.org/2000/svg" xmlns:xlink="http://www.w3.org/1999/xlink" x="0px" y="0px"
	 viewBox="0 0 48.2 48.2" style="enable-background:new 0 0 48.2 48.2;" xml:space="preserve">
<style type="text/css">
	.st0{fill:#ADACAC;}
	.st1{enable-background:new    ;}
	.st2{fill:#FFFFFF;}
</style>
<path class="st0" d="M43,24.1C43,34.5,34.5,43,24.1,43S5.2,34.5,5.2,24.1S13.7,5.2,24.1,5.2S43,13.7,43,24.1L43,24.1z"/>
<g class="st1">
	<path class="st2" d="M20.4,22.9c-0.9-0.3-1.6-0.8-2.1-1.3s-1.1-1.4-1.8-2.5l-0.8-1.4c-1-1.7-2-2.6-3.2-2.6h-0.4v-1.5h1
		c1.7,0,3.3,1.2,4.7,3.6l1.1,1.9c0.7,1.2,1.5,2.1,2.2,2.6c0.8,0.5,1.8,0.7,3,0.7c1.2,0,2.3-0.2,3-0.7c0.8-0.5,1.5-1.3,2.2-2.6
		l1.1-1.9c1.4-2.4,2.9-3.6,4.6-3.6h1V15h-0.3c-1.2,0-2.3,0.9-3.3,2.6L31.7,19c-0.7,1.2-1.2,2-1.8,2.5s-1.2,1-2.1,1.3
		c1.5,0.8,2.6,1.9,3.5,3.2c0.8,1.3,1.2,2.7,1.2,4.3c0,2.2-0.8,4.2-2.5,5.8c-1.7,1.7-3.6,2.5-5.9,2.5c-2.2,0-4.2-0.8-5.9-2.5
		s-2.5-3.6-2.5-5.8c0-1.5,0.4-3,1.2-4.3C17.7,24.7,18.9,23.7,20.4,22.9z M24.1,36.7c1.8,0,3.3-0.6,4.5-1.9c1.3-1.2,1.9-2.7,1.9-4.5
		c0-1.8-0.6-3.3-1.9-4.5S25.9,24,24.1,24c-1.8,0-3.3,0.6-4.6,1.9c-1.3,1.2-1.9,2.7-1.9,4.5c0,1.7,0.6,3.2,1.9,4.5
		C20.8,36,22.3,36.7,24.1,36.7z"/>
</g>
</svg>
