<?xml version="1.0" encoding="UTF-8"?>
<svg xmlns="http://www.w3.org/2000/svg" xmlns:xlink="http://www.w3.org/1999/xlink" viewBox="0 0 759 546">
  <defs>
    <style>
      .cls-1 {
        fill: url(#linear-gradient);
      }

      .cls-1, .cls-2 {
        stroke-width: 0px;
      }

      .cls-3 {
        mix-blend-mode: soft-light;
      }

      .cls-2 {
        fill: url(#_未命名漸層_264);
      }

      .cls-4 {
        isolation: isolate;
      }
    </style>
    <linearGradient id="linear-gradient" x1="215.01" y1="273" x2="543.99" y2="273" gradientUnits="userSpaceOnUse">
      <stop offset="0" stop-color="#2a5ca2"/>
      <stop offset="1" stop-color="#1a2a53"/>
    </linearGradient>
    <radialGradient id="_未命名漸層_264" data-name="未命名漸層 264" cx="379.5" cy="273" fx="379.5" fy="273" r="211.2" gradientUnits="userSpaceOnUse">
      <stop offset=".24" stop-color="#158abf"/>
      <stop offset="1" stop-color="#fff"/>
    </radialGradient>
  </defs>
  <g class="cls-4">
    <g id="_圖層_1" data-name="圖層 1">
      <path class="cls-1" d="m421.01,98.7c-3.13-17.8-6.04-15.58-21.96-29.31-11.55-9.95-45.05-41.83-8.52-32.59,5.52,1.3,6.34,7.51,3.28,4.34-9.36-2.75-11.8-1.05-5.76,7.93,4.75,7.06,14.29,6.1,22.31,6.19,15.17-.25,10.13-27.27-10.96-30.95-16.23-1.94-41.32-.13-46.18,16.02-6.93,23.22,25.6,32.76,40.43,42.21,15.93,10.15-10.61,27.79-6.43,43.57,5.42,20.55,5.1,12.75-12.75,51.64-10.25-7.15-19.72-17.78-64.58-50.67-17.87-13.11-43.87-32.84-58.8-15.76,0,0,.91,3.24,1.33,4.96,2.31,9.48,2.17,14.19,1.97,22.75-.14,6.1-.36,13.69.26,25.73l.71,12.33c1.29,20.73,2.49,40.3-2.35,59.14l-1.01,3.93c-5.31,20.9-10.84,42.5-21.54,60.18-11.72,19.37-12.85,25.71-14.21,32.39l-1.25,18.98h.2c.02,3.54.36,7.32,1.1,11.52,3.03,17.57,16.15,23.46,32.48,31.82,53.02,27.16,107.63-14.04,117.6-57.25,3.32-14.4,4.44-40.26-11.57-52.98-2.85-2.25-5.95-4.24-9.2-6-6.99-20.78-16.52-39.93-26.53-60.05l-4.57-9.2c-8-16.18-15.29-30.74-23.74-45.38-2.84-4.93-5.2-10.31-7.71-16-2.07-4.68-4.14-9.42-6.55-14.03,8.8,10.03,17.57,18.18,30.24,28.64,11.42,9.41,22.6,16.37,32.87,27.39,13.35,14.34,25.82,29.38,39.38,43.67,17.86,18.83,45.5,39.26,67.63,51.62,6.81,3.79,20.73,11.27,35.79,18.65.73,5.34,1.13,10.46.88,15.14-1.01,17.85-10.44,38.77-24.07,53.27,0,0-9.69,10.38-9.69,10.38l-19.11,20.36c-3.03,3.18-5.89,7.04-8.61,10.79-1.86,2.54-3.75,5.11-5.72,7.49-13.68,11.3-25.62,21.54-25.63,43.22-.01,17.01,5.72,36.52,20.99,47.91,15.59,11.63,37.91,9.67,53.73,9.19,18.62-.58,34.71-12.8,44.17-26.9,7.15-10.66,24.89-41.49,22.67-57.78.03-6.45-2.68-11.95-7.13-16.49-1.79-15.86-4.8-32.08-7.8-47.84l-4.5-24.48c-1.75-10.37-3.96-21.63-7.56-33.76,12.93,5.57,24.48,9.65,30.6,9.66,15.85.05,4.22-15.53,4.22-15.53-1.69-12.59-61.83-50.59-72.68-59.02-16.44-12.76-46.42-38.05-62.76-50.32-2.61-15.05.84-18.83,3.83-34.43,5.74-29.96,12.75-66.3,12.75-66.3Zm-115.37,113.32l4.58,9.25c8.83,17.69,17.23,34.64,23.74,52.43-5.02-1.75-10.1-3.01-14.97-3.76-9.4-1.43-25.03-1.86-37.07,1.15-14.97,2.9-27.75,14.96-38.3,28.06,8.54-16.89,13.43-36,18.16-54.57l1-3.93c5.17-20.11,3.93-40.37,2.6-61.81l-.71-12.23c-.57-11.68-.4-19.08-.25-25.02.1-3.76.12-7.03-.03-10.33,3.64,5.75,6.6,12.16,9.55,18.89,2.54,5.76,5.15,11.7,8.34,17.23,8.25,14.3,15.47,28.69,23.36,44.65Zm188.73,99.45c4.15,13.02,6.47,25.11,8.35,36.23l4.53,24.69c1.56,8.14,3.13,16.41,4.52,24.67.9,5.32,1.69,10.64,2.41,15.93-10.98-5.76-25.27-8.73-37.71-9.03-11.06-.27-24.33,1.38-36.08,4.89l17.28-18.38,9.67-10.36c11.67-12.46,24.64-34.24,25.98-57.99.24-4.14-.07-8.53-.56-13.01.28.14.56.27.84.4.26.66.54,1.31.75,1.98Z"/>
      <g class="cls-3">
        <path class="cls-2" d="m421.01,98.7c-3.13-17.8-6.04-15.58-21.96-29.31-11.55-9.95-45.05-41.83-8.52-32.59,5.52,1.3,6.34,7.51,3.28,4.34-9.36-2.75-11.8-1.05-5.76,7.93,4.75,7.06,14.29,6.1,22.31,6.19,15.17-.25,10.13-27.27-10.96-30.95-16.23-1.94-41.32-.13-46.18,16.02-6.93,23.22,25.6,32.76,40.43,42.21,15.93,10.15-10.61,27.79-6.43,43.57,5.42,20.55,5.1,12.75-12.75,51.64-10.25-7.15-19.72-17.78-64.58-50.67-17.87-13.11-43.87-32.84-58.8-15.76,0,0,.91,3.24,1.33,4.96,2.31,9.48,2.17,14.19,1.97,22.75-.14,6.1-.36,13.69.26,25.73l.71,12.33c1.29,20.73,2.49,40.3-2.35,59.14l-1.01,3.93c-5.31,20.9-10.84,42.5-21.54,60.18-11.72,19.37-12.85,25.71-14.21,32.39l-1.25,18.98h.2c.02,3.54.36,7.32,1.1,11.52,3.03,17.57,16.15,23.46,32.48,31.82,53.02,27.16,107.63-14.04,117.6-57.25,3.32-14.4,4.44-40.26-11.57-52.98-2.85-2.25-5.95-4.24-9.2-6-6.99-20.78-16.52-39.93-26.53-60.05l-4.57-9.2c-8-16.18-15.29-30.74-23.74-45.38-2.84-4.93-5.2-10.31-7.71-16-2.07-4.68-4.14-9.42-6.55-14.03,8.8,10.03,17.57,18.18,30.24,28.64,11.42,9.41,22.6,16.37,32.87,27.39,13.35,14.34,25.82,29.38,39.38,43.67,17.86,18.83,45.5,39.26,67.63,51.62,6.81,3.79,20.73,11.27,35.79,18.65.73,5.34,1.13,10.46.88,15.14-1.01,17.85-10.44,38.77-24.07,53.27,0,0-9.69,10.38-9.69,10.38l-19.11,20.36c-3.03,3.18-5.89,7.04-8.61,10.79-1.86,2.54-3.75,5.11-5.72,7.49-13.68,11.3-25.62,21.54-25.63,43.22-.01,17.01,5.72,36.52,20.99,47.91,15.59,11.63,37.91,9.67,53.73,9.19,18.62-.58,34.71-12.8,44.17-26.9,7.15-10.66,24.89-41.49,22.67-57.78.03-6.45-2.68-11.95-7.13-16.49-1.79-15.86-4.8-32.08-7.8-47.84l-4.5-24.48c-1.75-10.37-3.96-21.63-7.56-33.76,12.93,5.57,24.48,9.65,30.6,9.66,15.85.05,4.22-15.53,4.22-15.53-1.69-12.59-61.83-50.59-72.68-59.02-16.44-12.76-46.42-38.05-62.76-50.32-2.61-15.05.84-18.83,3.83-34.43,5.74-29.96,12.75-66.3,12.75-66.3Zm-115.37,113.32l4.58,9.25c8.83,17.69,17.23,34.64,23.74,52.43-5.02-1.75-10.1-3.01-14.97-3.76-9.4-1.43-25.03-1.86-37.07,1.15-14.97,2.9-27.75,14.96-38.3,28.06,8.54-16.89,13.43-36,18.16-54.57l1-3.93c5.17-20.11,3.93-40.37,2.6-61.81l-.71-12.23c-.57-11.68-.4-19.08-.25-25.02.1-3.76.12-7.03-.03-10.33,3.64,5.75,6.6,12.16,9.55,18.89,2.54,5.76,5.15,11.7,8.34,17.23,8.25,14.3,15.47,28.69,23.36,44.65Zm188.73,99.45c4.15,13.02,6.47,25.11,8.35,36.23l4.53,24.69c1.56,8.14,3.13,16.41,4.52,24.67.9,5.32,1.69,10.64,2.41,15.93-10.98-5.76-25.27-8.73-37.71-9.03-11.06-.27-24.33,1.38-36.08,4.89l17.28-18.38,9.67-10.36c11.67-12.46,24.64-34.24,25.98-57.99.24-4.14-.07-8.53-.56-13.01.28.14.56.27.84.4.26.66.54,1.31.75,1.98Z"/>
      </g>
    </g>
  </g>
</svg>