<?xml version="1.0" encoding="utf-8"?>
<!-- Generator: Adobe Illustrator 28.0.0, SVG Export Plug-In . SVG Version: 6.00 Build 0)  -->
<svg version="1.1" id="_圖層_1" xmlns="http://www.w3.org/2000/svg" xmlns:xlink="http://www.w3.org/1999/xlink" x="0px" y="0px"
	 viewBox="0 0 48.2 48.2" style="enable-background:new 0 0 48.2 48.2;" xml:space="preserve">
<style type="text/css">
	.st0{fill:#ADACAC;}
	.st1{enable-background:new    ;}
	.st2{fill:#FFFFFF;}
</style>
<path class="st0" d="M41,24.1C41,34.6,32.5,43,22.1,43S3.2,34.6,3.2,24.1S11.7,5.3,22.1,5.3S41,13.7,41,24.1z"/>
<g class="st1">
	<path class="st2" d="M10,30.2l7.3-4.8l1.6,3.7l5.7-3.7l1.6,3.7l5.7-3.7l2.3,5.5l-1.5,0.7l-1.6-3.7l-5.7,3.7l-1.6-3.7l-5.6,3.7
		l-1.6-3.7l-5.7,3.7L10,30.2z M10,20.1l7.3-4.8l1.6,3.7l5.7-3.7l1.6,3.7l5.7-3.7l2.3,5.5l-1.5,0.7l-1.6-3.7l-5.7,3.7l-1.6-3.7
		l-5.6,3.7l-1.6-3.7l-5.7,3.7L10,20.1z"/>
</g>
</svg>
