<?xml version="1.0" encoding="utf-8"?>
<!-- Generator: Adobe Illustrator 28.0.0, SVG Export Plug-In . SVG Version: 6.00 Build 0)  -->
<svg version="1.1" id="_圖層_1" xmlns="http://www.w3.org/2000/svg" xmlns:xlink="http://www.w3.org/1999/xlink" x="0px" y="0px"
	 viewBox="0 0 48.2 48.2" style="enable-background:new 0 0 48.2 48.2;" xml:space="preserve">
<style type="text/css">
	.st0{fill:#ADACAC;}
	.st1{enable-background:new    ;}
	.st2{fill:#FFFFFF;}
</style>
<path class="st0" d="M43,24.1C43,34.5,34.5,43,24.1,43S5.2,34.5,5.2,24.1S13.7,5.2,24.1,5.2S43,13.7,43,24.1L43,24.1z"/>
<g class="st1">
	<path class="st2" d="M22.1,23.7c0,1.6-0.4,3.3-1.1,5.1c-0.7,1.8-1.7,3.4-3,4.8h-2.1c2.9-3,4.3-6.3,4.3-9.9H16v-1.5h4.2
		c-0.2-3.1-1.6-6.2-4.3-9.1h2c2.5,2.6,3.9,5.7,4.2,9.1h4c0.4-3.4,1.8-6.5,4.2-9.1h2c-2.7,2.9-4.1,6-4.3,9.1h4.2v1.5h-4.2
		c0,3.6,1.4,6.9,4.3,9.9h-2.1c-1.3-1.4-2.3-3-3-4.8c-0.7-1.8-1.1-3.5-1.1-5.1H22.1z"/>
</g>
</svg>
