<?xml version="1.0" encoding="UTF-8"?>
<svg xmlns="http://www.w3.org/2000/svg" xmlns:xlink="http://www.w3.org/1999/xlink" viewBox="0 0 759 546">
  <defs>
    <style>
      .cls-1 {
        fill: none;
      }

      .cls-1, .cls-2, .cls-3, .cls-4, .cls-5, .cls-6, .cls-7 {
        stroke-width: 0px;
      }

      .cls-2 {
        fill: url(#linear-gradient);
      }

      .cls-8 {
        mix-blend-mode: soft-light;
      }

      .cls-3 {
        fill: url(#_未命名漸層_264);
      }

      .cls-9 {
        isolation: isolate;
      }

      .cls-4 {
        fill: #b3b3b3;
      }

      .cls-5 {
        fill: url(#_未命名漸層_264-4);
      }

      .cls-6 {
        fill: url(#_未命名漸層_264-3);
      }

      .cls-7 {
        fill: url(#_未命名漸層_264-2);
      }
    </style>
    <linearGradient id="linear-gradient" x1="226.74" y1="273" x2="532.26" y2="273" gradientUnits="userSpaceOnUse">
      <stop offset="0" stop-color="#2a5ca2"/>
      <stop offset="1" stop-color="#1a2a53"/>
    </linearGradient>
    <radialGradient id="_未命名漸層_264" data-name="未命名漸層 264" cx="406.89" cy="424.96" fx="406.89" fy="424.96" r="16.68" gradientUnits="userSpaceOnUse">
      <stop offset=".24" stop-color="#158abf"/>
      <stop offset="1" stop-color="#fff"/>
    </radialGradient>
    <radialGradient id="_未命名漸層_264-2" data-name="未命名漸層 264" cx="419.36" cy="74.01" fx="419.36" fy="74.01" r="1.48" xlink:href="#_未命名漸層_264"/>
    <radialGradient id="_未命名漸層_264-3" data-name="未命名漸層 264" cx="374.4" cy="257.1" fx="374.4" fy="257.1" r="90.05" xlink:href="#_未命名漸層_264"/>
    <radialGradient id="_未命名漸層_264-4" data-name="未命名漸層 264" cx="379.5" cy="273" fx="379.5" fy="273" r="198.44" xlink:href="#_未命名漸層_264"/>
  </defs>
  <g class="cls-9">
    <g id="_圖層_1" data-name="圖層 1">
      <g>
        <path class="cls-1" d="m390.48,408.01c2.22,14.83,16.87,22.75,25.74,28.57,2.55,1.67,4.86,3.44,7.08,5.34-1.59-1.95-3.18-3.88-4.74-5.7-8.72-10.09-18.62-19.33-28.07-28.21Z"/>
        <path class="cls-4" d="m419.52,71.93c-.12,1.39-.24,2.78-.34,4.16.28-1.5.41-2.91.34-4.16Z"/>
        <g>
          <path class="cls-1" d="m405.36,358.12l-3.74-2.4c-7.9-5.6-15.9-12.96-23.65-20.06l-2.51-2.3-4.62-4.75c-2.21-2.38-4.5-4.83-7.04-6.88l-7.27-4.73c-3.47-2-6.73-3.91-9.18-6.71-3.75-4.31-4.85-11.31-6.01-18.71l-.7-4.29c-4.29-24.84.99-43.72,11.57-67.89,5.83-13.33,9.36-26.05,13.11-39.5l1.7-7.94c.6-3.35,1.18-6.49,2.2-9.13l1.17-3.05c1.46-3.89,4.17-11.13,5.98-12.99,1.77-1.82,2.14-5.17.84-7.48-1.29-2.31-3.77-2.69-5.52-.88-3.05,3.14-5.58,9.47-8.33,16.78l-1.1,2.88c-1.5,3.83-2.22,7.82-2.92,11.67l-1.42,6.69c-3.61,13-7.04,25.28-12.5,37.78-11.32,25.9-17.36,47.59-12.49,75.81l.67,4.1c1.32,8.34,2.8,17.8,8.5,24.35,3.32,3.81,7.27,6.1,11.1,8.33l6.4,4.15c2.1,1.66,4.08,3.82,6.19,6.07l5.08,5.2,2.49,2.28c7.55,6.96,16.11,14.83,24.41,20.68l4.12,2.65c3.36,2.06,6.55,4.01,8.7,7.33,1.41,2.17,3.9,2.35,5.57.37,1.67-1.97,1.88-5.33.46-7.51-3.22-4.96-7.49-7.59-11.26-9.9Z"/>
          <path class="cls-2" d="m466.41,431.14c-5.68-8.32-13.59-16.07-17.37-19.16-12.67-10.39-5.68-18.12-16.05-31.6,3.83,1.54,6.91,4.51,10.31,7.13,6.93,5.32,19.88,16.77,25.5,22.67,47.9,50.3,56.64,43.33,63.45,42.88-3.23-5.9-53.21-58.02-57.8-61.13-4.63-3.16-7.64-7.67-11.99-11.24-4.84-3.99-7.37-4.66-11.06-10.81-3.21-5.4-5.94-11.07-9.15-16.5l-.34-1.06c1.55-8.44,1.27-17.94-.08-25.74-1.42-8.21-2.39-16.46-3.98-24.59-.92-4.69-7.72-15.42-3.16-18.43.57-1.79.66-2.19,1.64-3.81-.08-7.86-1.96-14.88-2.91-23-2.36-20.01-7.55-39.1-11.38-58.9-3.21-16.65-8.89-38.03-16.96-51.44-1.32-2.19-2.69-4.38-4.12-6.53l.29.11c-4.66-14.03,1.78-20.3,6.88-26.67,8.85-11.1,9.95-23.81,11.03-37.21-1.79,9.43-9.95,22.72-14.14,28.22-3.02,3.96-6.09,6.35-8.58,10.99-2.08,3.91-3.35,8.32-5.55,11.85-.9-.9-1.84-1.75-2.78-2.56.73-7.21,3.08-13.85,5.67-20.35,3.76-9.43,7.31-19.58,11.7-28.5,3.09-6.24,6.46-11.04,7.24-18.7-7.55,3.81-11.49,15.09-16.23,23.35-5.89,10.29-11,25.89-16.45,39.1-.23-.1-.46-.18-.68-.28,1.29-6.18,2.17-12.78,2.69-15.67,3.09-16.9,11.73-35.95,18.14-51.21-5.45,8.78-11.53,17.82-17.67,26.24-3.98,5.43-7.66,11.14-9.86,18.06-2.22,6.91-3.44,16.54-8.37,21.53-1.01-11.71,2.63-26.94,5.6-38.49,3.05-11.9,9.32-33.67,16.71-42.1-5.59,4.12-8.85,8.63-12.62,13.72-3.27,4.44-4.68,10.61-8.86,13.86-4.17,3.26-4.11,12.86-6.68,18.73-5.29,12.1-3.65,19.77-7.69,31.02-.71-.53-1.44-1.06-2.19-1.58,2.97-8.34.71-15.23-4.26-22.73-3.95-5.95-7.48-6.03-13.5-4.37-6.56,1.78-7.61,7.51-12.38,11.96-.38-.94-.84-1.9-1.44-2.9-4.8-7.9-12.84-14.83-20.31-11.29-5.2,2.45-13.17,9.28-12.46,17.66-2.18-2.55-4.3-4.67-6.02-6.09-9.08-7.41-19.07-1.21-26.97,8.52-10.57,13.02-15.86,34.96-19.67,52.54-1.82,8.39-4.24,17.9-4.76,26.22-.46,7.13,1.32,13.75,1.59,20.83,6.89-11.51,9.02-30.09,19.7-39.73-1.71,8.69-5,17-5.49,25.8-.35,6.25-1.66,12.73-3.35,19.52,5.07-1.32,11.55-11.91,15.1-17.16,4.62-6.79,9.93-13.83,13.58-21.94,7.28-16.26,11.43-6.93,19.14-23.21,4.86-10.28,3.18-10.06,3.18-10.06,3.02-.48,5.29-3.29,6.17-6.7,5.07-.42,12.24-7.91,15.57-11.85,3.42,5.92,7.35,15.89,13.03,17.08.16.04.32.02.47.06-.35.73-.55,1.17-.55,1.17-6.02.79-14.31,9.01-19.55,13.4-6.34,5.31-12.42,15.47-17,23.14-9.33,15.59-12.01,38.68-11.81,57.78.09,9.11,2.03,23.24-1.59,30.7-1.63,3.36-5.01,5.46-6.96,8.53-.62.96-1.14,1.53-1.59,2.11-5.52-.55-11.28,1.79-15.91,1.98-1.44.07-5.62-.73-6.55-1.42-1.43-1.03-2.61-5.24-4.17-5.41-3.29-.35-7.66,8.26-6.55,11.83,2.48,7.94,3.12,3.24,9.73,1.49,7.31-3.13,16.35,4.24,22.88,2.24,2.76,3.11,7.39,4.3,10.67,6.81,6.78,5.23,7.15,7.63,9.41,17.99,1.54,7,5.87,17.41,3.8,24.59-1.09,3.79-3.77,5.93-6.24,8.62-.78.86-1.43,1.64-2.01,2.37-1.98.75-3.47,1.9-3.47,1.9-6.82,2.3-12.71,9.49-19.5,12.62-6.71,3.07-5.84.27-10.03-4.86-2.7-3.32-3.61-4.2-7.13-1.84-8.42,5.67-3.12,17.1,4.81,15.6,10.32-1.97,20.47-7.84,30.79-9.82,0,0,.57-.03,1.49-.13,2.82,3.71,5.12,3.04,10.36,2.22,7.01,12.96,14.95,25.97,22.51,38.64,4.7,7.88,9.42,15.76,14.12,23.66,1.16,1.92,7.94,11.04,11.15,12.99-4.95,3.67-9.78,11.03-13,16.47-.28.49-.49.99-.68,1.49-1.24-1.76-2.6-3.5-3.78-4.52-2.5-2.12-6.88-1.04-9.32-3.64-3.43-3.68-6.11-13.24-9.14-18.31-3.55-5.93-7.88-10.71-11.33-16.51.68,8.56-2.49,17.49-1.93,26.65.24,4.02.32,7.84.29,11.66-1.32-5.87-5.41-12.2-7.61-15.87-2.98-4.97-5.67-9.6-7.9-15.21-2.02-5.14-3.04-12.51-5.72-16.72-3.38,9.14-6.27,18.14-6.42,28.34-.28,14.45,5.34,25.45,9.15,38.36,5.53,18.71,17.91,45.69,35.21,41.35,12.56-3.14,22.39-16.91,24.87-32.74.18-1.19.27-2.3.36-3.4.83,1.01,1.42,1.63,1.42,1.63,4.78,5.76,11.25,5.45,16.46.4,6.85-6.64,7.45-13.14,10.44-22.55,3.94,6.02,11.25-.4,14.87-4.31,5.88-6.33,11.1-10.82,7.42-21.32-1.69-4.77-4.8-9.78-8.49-12.3l.09-.44,3.05-.69c4.35,6.82,9.91,12.81,14.65,19.25,6.99,9.51,13.18,20.43,21.91,27.22,8.54,6.63,19.46,9.52,29.17,11.05,1.16.18,4.82-.17,5.89-.28-.71-.56-2.91-2.67-5.61-5.35-11.76-9.15-25.46-19.75-26.93-20.72-8.87-5.81-17.96-21.86-23.53-35.41,9.45,8.87,19.35,18.12,28.07,28.21,1.06,1.23,19.13,14.51,30.49,26.36,4.78,2.43,9.14,6.74,14.23,8.14,5.23,1.44,9.42,1.74,11.71.27-10.92-14.78-26.11-24.69-39.11-36.26-10.4-9.25-18.44-20.61-25.7-34.28,11.15,8.92,22.59,18.6,33.13,28.74,8.01,7.7,14.46,18.27,23.5,23.57,7.46,4.4,21.61,10.73,28.89,2.69-2.75-5.21-11.34-1.03-14.02-6.35-4.22-8.32-13.4-15.21-15.27-17.96Zm-50.24-55.61c-1.67,1.99-4.16,1.81-5.57-.37-2.15-3.32-5.33-5.27-8.7-7.33l-4.12-2.65c-8.3-5.85-16.86-13.73-24.41-20.68l-2.49-2.28-5.08-5.2c-2.1-2.25-4.09-4.41-6.19-6.07l-6.4-4.15c-3.83-2.23-7.77-4.52-11.1-8.33-5.7-6.55-7.18-16.01-8.5-24.35l-.67-4.1c-4.88-28.22,1.16-49.92,12.49-75.81,5.47-12.49,8.89-24.78,12.5-37.78l1.42-6.69c.7-3.85,1.42-7.84,2.92-11.67l1.1-2.88c2.76-7.31,5.28-13.63,8.33-16.78,1.75-1.81,4.23-1.43,5.52.88,1.3,2.31.93,5.66-.84,7.48-1.81,1.86-4.52,9.09-5.98,12.99l-1.17,3.05c-1.02,2.64-1.6,5.78-2.2,9.13l-1.7,7.94c-3.75,13.45-7.28,26.17-13.11,39.5-10.58,24.18-15.86,43.05-11.57,67.89l.7,4.29c1.16,7.41,2.26,14.4,6.01,18.71,2.44,2.8,5.71,4.71,9.18,6.71l7.27,4.73c2.54,2.05,4.83,4.5,7.04,6.88l4.62,4.75,2.51,2.3c7.75,7.1,15.74,14.46,23.65,20.06l3.74,2.4c3.77,2.31,8.04,4.94,11.26,9.9,1.42,2.18,1.21,5.54-.46,7.51Z"/>
        </g>
      </g>
      <g class="cls-8">
        <g>
          <path class="cls-3" d="m390.48,408.01c2.22,14.83,16.87,22.75,25.74,28.57,2.55,1.67,4.86,3.44,7.08,5.34-1.59-1.95-3.18-3.88-4.74-5.7-8.72-10.09-18.62-19.33-28.07-28.21Z"/>
          <path class="cls-7" d="m419.52,71.93c-.12,1.39-.24,2.78-.34,4.16.28-1.5.41-2.91.34-4.16Z"/>
          <g>
            <path class="cls-6" d="m405.36,358.12l-3.74-2.4c-7.9-5.6-15.9-12.96-23.65-20.06l-2.51-2.3-4.62-4.75c-2.21-2.38-4.5-4.83-7.04-6.88l-7.27-4.73c-3.47-2-6.73-3.91-9.18-6.71-3.75-4.31-4.85-11.31-6.01-18.71l-.7-4.29c-4.29-24.84.99-43.72,11.57-67.89,5.83-13.33,9.36-26.05,13.11-39.5l1.7-7.94c.6-3.35,1.18-6.49,2.2-9.13l1.17-3.05c1.46-3.89,4.17-11.13,5.98-12.99,1.77-1.82,2.14-5.17.84-7.48-1.29-2.31-3.77-2.69-5.52-.88-3.05,3.14-5.58,9.47-8.33,16.78l-1.1,2.88c-1.5,3.83-2.22,7.82-2.92,11.67l-1.42,6.69c-3.61,13-7.04,25.28-12.5,37.78-11.32,25.9-17.36,47.59-12.49,75.81l.67,4.1c1.32,8.34,2.8,17.8,8.5,24.35,3.32,3.81,7.27,6.1,11.1,8.33l6.4,4.15c2.1,1.66,4.08,3.82,6.19,6.07l5.08,5.2,2.49,2.28c7.55,6.96,16.11,14.83,24.41,20.68l4.12,2.65c3.36,2.06,6.55,4.01,8.7,7.33,1.41,2.17,3.9,2.35,5.57.37,1.67-1.97,1.88-5.33.46-7.51-3.22-4.96-7.49-7.59-11.26-9.9Z"/>
            <path class="cls-5" d="m466.41,431.14c-5.68-8.32-13.59-16.07-17.37-19.16-12.67-10.39-5.68-18.12-16.05-31.6,3.83,1.54,6.91,4.51,10.31,7.13,6.93,5.32,19.88,16.77,25.5,22.67,47.9,50.3,56.64,43.33,63.45,42.88-3.23-5.9-53.21-58.02-57.8-61.13-4.63-3.16-7.64-7.67-11.99-11.24-4.84-3.99-7.37-4.66-11.06-10.81-3.21-5.4-5.94-11.07-9.15-16.5l-.34-1.06c1.55-8.44,1.27-17.94-.08-25.74-1.42-8.21-2.39-16.46-3.98-24.59-.92-4.69-7.72-15.42-3.16-18.43.57-1.79.66-2.19,1.64-3.81-.08-7.86-1.96-14.88-2.91-23-2.36-20.01-7.55-39.1-11.38-58.9-3.21-16.65-8.89-38.03-16.96-51.44-1.32-2.19-2.69-4.38-4.12-6.53l.29.11c-4.66-14.03,1.78-20.3,6.88-26.67,8.85-11.1,9.95-23.81,11.03-37.21-1.79,9.43-9.95,22.72-14.14,28.22-3.02,3.96-6.09,6.35-8.58,10.99-2.08,3.91-3.35,8.32-5.55,11.85-.9-.9-1.84-1.75-2.78-2.56.73-7.21,3.08-13.85,5.67-20.35,3.76-9.43,7.31-19.58,11.7-28.5,3.09-6.24,6.46-11.04,7.24-18.7-7.55,3.81-11.49,15.09-16.23,23.35-5.89,10.29-11,25.89-16.45,39.1-.23-.1-.46-.18-.68-.28,1.29-6.18,2.17-12.78,2.69-15.67,3.09-16.9,11.73-35.95,18.14-51.21-5.45,8.78-11.53,17.82-17.67,26.24-3.98,5.43-7.66,11.14-9.86,18.06-2.22,6.91-3.44,16.54-8.37,21.53-1.01-11.71,2.63-26.94,5.6-38.49,3.05-11.9,9.32-33.67,16.71-42.1-5.59,4.12-8.85,8.63-12.62,13.72-3.27,4.44-4.68,10.61-8.86,13.86-4.17,3.26-4.11,12.86-6.68,18.73-5.29,12.1-3.65,19.77-7.69,31.02-.71-.53-1.44-1.06-2.19-1.58,2.97-8.34.71-15.23-4.26-22.73-3.95-5.95-7.48-6.03-13.5-4.37-6.56,1.78-7.61,7.51-12.38,11.96-.38-.94-.84-1.9-1.44-2.9-4.8-7.9-12.84-14.83-20.31-11.29-5.2,2.45-13.17,9.28-12.46,17.66-2.18-2.55-4.3-4.67-6.02-6.09-9.08-7.41-19.07-1.21-26.97,8.52-10.57,13.02-15.86,34.96-19.67,52.54-1.82,8.39-4.24,17.9-4.76,26.22-.46,7.13,1.32,13.75,1.59,20.83,6.89-11.51,9.02-30.09,19.7-39.73-1.71,8.69-5,17-5.49,25.8-.35,6.25-1.66,12.73-3.35,19.52,5.07-1.32,11.55-11.91,15.1-17.16,4.62-6.79,9.93-13.83,13.58-21.94,7.28-16.26,11.43-6.93,19.14-23.21,4.86-10.28,3.18-10.06,3.18-10.06,3.02-.48,5.29-3.29,6.17-6.7,5.07-.42,12.24-7.91,15.57-11.85,3.42,5.92,7.35,15.89,13.03,17.08.16.04.32.02.47.06-.35.73-.55,1.17-.55,1.17-6.02.79-14.31,9.01-19.55,13.4-6.34,5.31-12.42,15.47-17,23.14-9.33,15.59-12.01,38.68-11.81,57.78.09,9.11,2.03,23.24-1.59,30.7-1.63,3.36-5.01,5.46-6.96,8.53-.62.96-1.14,1.53-1.59,2.11-5.52-.55-11.28,1.79-15.91,1.98-1.44.07-5.62-.73-6.55-1.42-1.43-1.03-2.61-5.24-4.17-5.41-3.29-.35-7.66,8.26-6.55,11.83,2.48,7.94,3.12,3.24,9.73,1.49,7.31-3.13,16.35,4.24,22.88,2.24,2.76,3.11,7.39,4.3,10.67,6.81,6.78,5.23,7.15,7.63,9.41,17.99,1.54,7,5.87,17.41,3.8,24.59-1.09,3.79-3.77,5.93-6.24,8.62-.78.86-1.43,1.64-2.01,2.37-1.98.75-3.47,1.9-3.47,1.9-6.82,2.3-12.71,9.49-19.5,12.62-6.71,3.07-5.84.27-10.03-4.86-2.7-3.32-3.61-4.2-7.13-1.84-8.42,5.67-3.12,17.1,4.81,15.6,10.32-1.97,20.47-7.84,30.79-9.82,0,0,.57-.03,1.49-.13,2.82,3.71,5.12,3.04,10.36,2.22,7.01,12.96,14.95,25.97,22.51,38.64,4.7,7.88,9.42,15.76,14.12,23.66,1.16,1.92,7.94,11.04,11.15,12.99-4.95,3.67-9.78,11.03-13,16.47-.28.49-.49.99-.68,1.49-1.24-1.76-2.6-3.5-3.78-4.52-2.5-2.12-6.88-1.04-9.32-3.64-3.43-3.68-6.11-13.24-9.14-18.31-3.55-5.93-7.88-10.71-11.33-16.51.68,8.56-2.49,17.49-1.93,26.65.24,4.02.32,7.84.29,11.66-1.32-5.87-5.41-12.2-7.61-15.87-2.98-4.97-5.67-9.6-7.9-15.21-2.02-5.14-3.04-12.51-5.72-16.72-3.38,9.14-6.27,18.14-6.42,28.34-.28,14.45,5.34,25.45,9.15,38.36,5.53,18.71,17.91,45.69,35.21,41.35,12.56-3.14,22.39-16.91,24.87-32.74.18-1.19.27-2.3.36-3.4.83,1.01,1.42,1.63,1.42,1.63,4.78,5.76,11.25,5.45,16.46.4,6.85-6.64,7.45-13.14,10.44-22.55,3.94,6.02,11.25-.4,14.87-4.31,5.88-6.33,11.1-10.82,7.42-21.32-1.69-4.77-4.8-9.78-8.49-12.3l.09-.44,3.05-.69c4.35,6.82,9.91,12.81,14.65,19.25,6.99,9.51,13.18,20.43,21.91,27.22,8.54,6.63,19.46,9.52,29.17,11.05,1.16.18,4.82-.17,5.89-.28-.71-.56-2.91-2.67-5.61-5.35-11.76-9.15-25.46-19.75-26.93-20.72-8.87-5.81-17.96-21.86-23.53-35.41,9.45,8.87,19.35,18.12,28.07,28.21,1.06,1.23,19.13,14.51,30.49,26.36,4.78,2.43,9.14,6.74,14.23,8.14,5.23,1.44,9.42,1.74,11.71.27-10.92-14.78-26.11-24.69-39.11-36.26-10.4-9.25-18.44-20.61-25.7-34.28,11.15,8.92,22.59,18.6,33.13,28.74,8.01,7.7,14.46,18.27,23.5,23.57,7.46,4.4,21.61,10.73,28.89,2.69-2.75-5.21-11.34-1.03-14.02-6.35-4.22-8.32-13.4-15.21-15.27-17.96Zm-50.24-55.61c-1.67,1.99-4.16,1.81-5.57-.37-2.15-3.32-5.33-5.27-8.7-7.33l-4.12-2.65c-8.3-5.85-16.86-13.73-24.41-20.68l-2.49-2.28-5.08-5.2c-2.1-2.25-4.09-4.41-6.19-6.07l-6.4-4.15c-3.83-2.23-7.77-4.52-11.1-8.33-5.7-6.55-7.18-16.01-8.5-24.35l-.67-4.1c-4.88-28.22,1.16-49.92,12.49-75.81,5.47-12.49,8.89-24.78,12.5-37.78l1.42-6.69c.7-3.85,1.42-7.84,2.92-11.67l1.1-2.88c2.76-7.31,5.28-13.63,8.33-16.78,1.75-1.81,4.23-1.43,5.52.88,1.3,2.31.93,5.66-.84,7.48-1.81,1.86-4.52,9.09-5.98,12.99l-1.17,3.05c-1.02,2.64-1.6,5.78-2.2,9.13l-1.7,7.94c-3.75,13.45-7.28,26.17-13.11,39.5-10.58,24.18-15.86,43.05-11.57,67.89l.7,4.29c1.16,7.41,2.26,14.4,6.01,18.71,2.44,2.8,5.71,4.71,9.18,6.71l7.27,4.73c2.54,2.05,4.83,4.5,7.04,6.88l4.62,4.75,2.51,2.3c7.75,7.1,15.74,14.46,23.65,20.06l3.74,2.4c3.77,2.31,8.04,4.94,11.26,9.9,1.42,2.18,1.21,5.54-.46,7.51Z"/>
          </g>
        </g>
      </g>
    </g>
  </g>
</svg>