<?xml version="1.0" encoding="UTF-8"?>
<svg xmlns="http://www.w3.org/2000/svg" xmlns:xlink="http://www.w3.org/1999/xlink" viewBox="0 0 759 546">
  <defs>
    <style>
      .cls-1 {
        fill: url(#_未命名漸層_19);
      }

      .cls-1, .cls-2, .cls-3, .cls-4 {
        stroke-width: 0px;
      }

      .cls-1, .cls-5 {
        mix-blend-mode: soft-light;
      }

      .cls-2 {
        fill: url(#linear-gradient);
      }

      .cls-3 {
        fill: url(#_未命名漸層_44);
      }

      .cls-4 {
        fill: url(#linear-gradient-2);
      }

      .cls-6 {
        isolation: isolate;
      }
    </style>
    <linearGradient id="linear-gradient" x1="554.42" y1="181.36" x2="682.86" y2="181.36" gradientUnits="userSpaceOnUse">
      <stop offset="0" stop-color="#2a5ca2"/>
      <stop offset="1" stop-color="#1a2a53"/>
    </linearGradient>
    <linearGradient id="linear-gradient-2" x1="65.86" y1="274.81" x2="682.09" y2="274.81" xlink:href="#linear-gradient"/>
    <radialGradient id="_未命名漸層_44" data-name="未命名漸層 44" cx="618.64" cy="181.36" fx="618.64" fy="181.36" r="56.83" gradientUnits="userSpaceOnUse">
      <stop offset="0" stop-color="#c4d6e9"/>
      <stop offset=".54" stop-color="#158abf"/>
      <stop offset="1" stop-color="#fff"/>
    </radialGradient>
    <radialGradient id="_未命名漸層_19" data-name="未命名漸層 19" cx="374.97" cy="274.81" fx="374.97" fy="274.81" r="254.13" gradientUnits="userSpaceOnUse">
      <stop offset=".24" stop-color="#158abf"/>
      <stop offset=".74" stop-color="#f1f5fb"/>
    </radialGradient>
  </defs>
  <g class="cls-6">
    <g id="_圖層_1" data-name="圖層 1">
      <g>
        <path class="cls-2" d="m661.71,135.57c-8.69-5.05-22.22-1.45-33.52,1.26-19.22,15.21-61.22,29.94-73.76,34.13,3.2,2.92,8.75,7.99,8.75,7.99,6,5.48,20.24,2.38,26.36.4,4.59-20.18,42.58-35.27,44.25-35.92l.98-.38.89.57c11.68,7.47,27.82,8.39,27.98,8.4l3.77.2-2.13,3.18c-.13.21-14,21.29-10.29,45.18l.31,1.97-1.91.48c-11.89,2.97-22.92,7.48-23.6,9.67,0,.29-.01,2.52-.01,2.52l-2.23-.16c-.99-.08-22.32-1.71-31.84-8.14-2.03,4.5-6.05,14.72-5.31,22.73,8.81-1.56,42.54-7.26,62.17-6.51,9.89-2.39,22.63-8.66,26.56-17.3,5.81-12.74,3.72-21.73,1.46-36.01-2.15-13.45-6.99-27.4-18.85-34.28Z"/>
        <path class="cls-4" d="m681.89,253.16c-1.32-7.21-15.14-21.22-23.03-25.66h0c-17.78-3.57-70.03,6.02-70.55,6.11l-2.01.37-.43-2.02c-2.61-12.09,6.2-29.37,6.59-30.1l1.35-2.61,2.03,2.07c5.2,5.3,22.04,7.84,29.83,8.56,2.7-4.69,13.89-8.59,24.31-11.3-2.36-19.58,5.62-36.58,9.38-43.28-5.47-.66-16.39-2.66-25.56-8.17-5.63,2.32-38.54,16.64-41.01,33.55l-.2,1.3-1.23.44c-.89.32-22.15,7.69-31.62-.94l-14.27-13.05,3.57-1.15c.58-.18,59.14-19,78.58-36.8,2.31-3.24,3.5-7.1,2.31-12.05-2.22-9.25-9-14.63-17.34-17.52-11.08-3.84-24.02-3.42-35.57-5.26-16.19-2.57-29.93-6.73-46.62-5.67-36.42,2.34-73.06,4.84-109.6,6.83-19.94,1.08-39.94,3.84-59.62,5.06-2.19,10.75,12.54,10.8,14.73,18.29-12.82,2.69-24.67,11.68-37.24,15.88-16.17,5.39-32.39,11.28-47.61,19.16-11.71,6.04-23.08,12.61-34.98,18.18-6.61,3.09-15.96,10.29-22.73,11.04,7.86,9.54,20.78,6.05,31.32,5.92,13.53-.16,27.66-.86,41.19-.37-5.3,1.46-10.66,3.42-17.01,4.28,12.1,9.99,34.75,5.51,49.26,4.71,9.57-.52,18.3-.53,27.38-3.58,7.52-2.52,14.27-5.44,22.31-5.02,13.13.69,26.12,3.18,39.65-2.56,15.56-6.61,29.73-15.36,46.21-17.74.7-.1,1.4-.18,2.12-.27l14.87,11.84s-31.13,15.05-58.96,21.28l.16-.87-165.59,12.37c-11.11,4.17-21.12-5.78-29.24-11.79-4.6-3.4-12.01-9.07-17.22-10.88-7.59-2.64-5.89,2.21-11.03,2.86-8.56,1.08-17.01-13.55-22.97-18.91-8.69-7.82-12.89-2.83-23.24-2.92-11.14-.09-23.92-10.31-32.75-16.69-8.76-6.34-17-21.79-27.57-24.9-20.35-5.96-12.4,39.4-11.85,49.63.43,8.1-2.01,15.5-4.93,23.09-5.22,13.57-7.88,28.12-12.13,42.17-1.5,4.91-3.62,10.42-4.1,15.21,13.53,8.32,22.71,26.64,33.15,38.66,5.89,6.78,4.84-1.57,12.73.04-.26.07,10.39,7.88,10.13,7.94-10.22,2.28-20.85,3.02-30.54,6.29-10.06,3.39-19.9,7.59-25.9,16.89-4.48,6.93-2.87,14.89-1.09,23.26,8.36-1.06,12.93-4.73,20.33-7.66,8.84-3.52,17-5.5,26.68-7.18,3.39-.58,6.78-1.17,10.17-1.76-2.15,10.87-1.3,29.9,12.49,31.36,10.28,1.09,22.33-7.52,28.27,2.3,2.43,4.03,3.16,8.64,3.31,13.31,0,0-10.13,7.9-12.19,12.25-3.52,7.42-1.06,16.59.24,24.55,2.08,12.67,1.14,39.66,5.48,38.27,10.22,1.41,13.16-42.03,13.91-42.33l5.22-2.58c.82.86,1.6,1.75,2.23,2.78,4.41,7.14,1.56,16.99,4.04,24.23,6.29,18.46,23.78-2.94,34.12-6.78,13.63-5.06,29.91-.57,41.86-8.93,6.45-4.52,9.22-11.36,14.95-17.12,7.15-7.17,16.4-11.87,24.5-17.87,10.17-7.48,19.54-15.33,29.26-23.17,7.96-6.44,16.15-10.28,24.51-15.93,13.42-9.06,51.2-30.02,54.9-32.53,0,0,41.57-51.76,59.26-53.8,11.21-1.29,28.73-.81,40.07-.29-1.74.62-3.48,1.23-5.23,1.81-24.9,8.32-45.02,22.68-66.6,37.34-22.7,15.43-44.7,33.56-67.88,48.9-10.91,7.22-24.03,35.59-32.89,44.55-6.47,6.56-10.9,17.76-18.05,22.66,7.27-.71,14.65-2.35,21.91-3.6,32.58-5.65,51.15-14.02,73.78-36.97,8.22-8.35,27.63-22.32,36.52-29.45,6.44-5.19,59.89-28.09,72.13-31.35,30.87-8.24,61.96-15.59,92.66-24.15,15.27-4.26,28.07-12.45,42.22-19.59,8.66-4.38,24.14-10.95,22.04-22.41Zm-73.82-72.62l1.42-2.61c.56-.85,1.05-1.58,1.16-2.39.09-.75.55-1.39,1.22-1.71.68-.31,1.46-.25,2.07.16,4.68,3.22,9.94,2.12,16.03.85l4.01-.79c1.15-.22,2.21.56,2.44,1.73.2,1.17-.6,2.32-1.74,2.54l-3.89.76c-5.61,1.17-11.38,2.24-16.86-.28-.31.57-.63,1.11-.93,1.56l-.92,1.58c-.58,1.03-2.02,1.74-3.03,1.16-1.01-.58-1.53-1.53-.97-2.57Zm-63.29,47.88c-11.84-5.29-25.96-2.86-39.61-.51l-4.48.77,1.04-3.37c1.77-5.71,6.75-7.49,11.12-9.06,1.78-.63,3.48-1.24,4.88-2.07,4.94-2.89,7.86-6.27,11.59-10.55l1.71-1.95,1.55-1.73c3.3-3.67,3.5-3.89,4.35-10.14l.26-2.53c.32-3.83.68-8.16,5.35-10.89,0,0,1.88-.97,2.55.49.68,1.46.13,2.11-.2,2.84l-.26.42c-2.6,1.52-2.89,3.61-3.23,7.48l-.27,2.76c-1.01,7.38-1.67,8.28-5.44,12.48l-1.53,1.69-1.68,1.93c-3.82,4.39-7.12,8.19-12.66,11.43-1.75,1.02-3.69,1.72-5.6,2.41-2.14.77-4.08,1.51-5.64,2.6,12.96-2.16,26.14-3.74,37.9,1.52,11.83,5.28,20.21,6.43,32.02,4.38,1.15-.21,2.25.58,2.43,1.76.2,1.19-.58,2.3-1.74,2.5-12.74,2.21-21.77.98-34.44-4.68Zm48.59,46.47c-1.84.82-3.36,1.12-4.69,1.18-2.26,1.09-4.11,2.94-4.8,5.07-.29.93-.36,1.86-.22,2.78.31,1.89,1.55,3.72,3.7,5.41.44.35.7.84.79,1.35.1.58-.03,1.19-.42,1.69-.72.95-2.06,1.12-2.98.39-2.99-2.36-4.8-5.19-5.27-8.15-.26-1.58-.14-3.2.38-4.81.69-2.12,2.05-3.99,3.76-5.49-1.17-1.1-1.98-2.61-2.27-4.44-.22-1.34-.19-2.83.11-4.4.83-4.2,3.95-9.76,10.07-11.61,1.13-.34,2.3.31,2.63,1.46.03.08.04.17.04.25.18,1.07-.44,2.12-1.49,2.44-4.29,1.3-6.5,5.28-7.08,8.29-.21,1.03-.23,2.02-.09,2.85.15.93.49,1.68,1.02,2.11.37.29.87.42,1.43.47,1.42-.54,2.93-.95,4.47-1,1.03-.03,1.91.68,2.14,1.7.22,1.01-.3,2.03-1.23,2.45Zm30.03,1.77c-1.36.45-2.65.62-3.93.71-2.21.96-3.39,2.93-3.67,4.78-.09.61-.11,1.26-.02,1.87.21,1.22.83,2.3,2.01,2.61.84.23,1.42.93,1.54,1.74.05.3.04.6-.05.91-.3,1.16-1.46,1.85-2.59,1.54-2.75-.74-4.6-3.06-5.09-6.06-.17-1.02-.18-2.12,0-3.26.26-1.77,1.07-3.53,2.27-5.07-1.33-.59-2.55-1.37-3.55-2.5-1.39-1.56-2.26-3.48-2.6-5.51-.33-2.07-.09-4.24.77-6.24,1.09-2.56,3.09-4.48,5.67-5.79-4.75-2.65-9.26-6.97-9.87-10.79-.01-.1-.04-.19-.05-.29-.16-1.61.14-5.49,6.72-6.79,1.15-.23,2.25.54,2.47,1.72.23,1.17-.53,2.31-1.68,2.54-1.29.25-3.42.85-3.27,2.04.37,3.43,9.33,9.88,13.5,9.71-.07,0-.13.02-.2.02.09,0,.16-.02.26-.02,1.06-.02,1.94.76,2.13,1.8,0,.1.02.2.02.31.04,1.18-.88,2.18-2.04,2.22-.02,0-.06,0-.08,0,0,0,.02,0,.03,0-4.84.08-8.37,1.92-9.72,5.03-.51,1.21-.65,2.54-.45,3.81.2,1.23.72,2.39,1.54,3.31,1.36,1.54,3.38,2.09,5.69,1.94,1.13-.33,2.3-.59,3.69-.54,1.04.04,1.87.83,2.01,1.87.15,1.04-.48,2.03-1.46,2.36Z"/>
      </g>
      <g class="cls-5">
        <path class="cls-3" d="m661.71,135.57c-8.69-5.05-22.22-1.45-33.52,1.26-19.22,15.21-61.22,29.94-73.76,34.13,3.2,2.92,8.75,7.99,8.75,7.99,6,5.48,20.24,2.38,26.36.4,4.59-20.18,42.58-35.27,44.25-35.92l.98-.38.89.57c11.68,7.47,27.82,8.39,27.98,8.4l3.77.2-2.13,3.18c-.13.21-14,21.29-10.29,45.18l.31,1.97-1.91.48c-11.89,2.97-22.92,7.48-23.6,9.67,0,.29-.01,2.52-.01,2.52l-2.23-.16c-.99-.08-22.32-1.71-31.84-8.14-2.03,4.5-6.05,14.72-5.31,22.73,8.81-1.56,42.54-7.26,62.17-6.51,9.89-2.39,22.63-8.66,26.56-17.3,5.81-12.74,3.72-21.73,1.46-36.01-2.15-13.45-6.99-27.4-18.85-34.28Z"/>
      </g>
      <path class="cls-1" d="m682.89,253.16c-1.32-7.21-15.14-21.22-23.03-25.66h0c-17.78-3.57-70.03,6.02-70.55,6.11l-2.01.37-.43-2.02c-2.61-12.09,6.2-29.37,6.59-30.1l1.35-2.61,2.03,2.07c5.2,5.3,22.04,7.84,29.83,8.56,2.7-4.69,13.89-8.59,24.31-11.3-2.36-19.58,5.62-36.58,9.38-43.28-5.47-.66-16.39-2.66-25.56-8.17-5.63,2.32-38.54,16.64-41.01,33.55l-.2,1.3-1.23.44c-.89.32-22.15,7.69-31.62-.94l-14.27-13.05,3.57-1.15c.58-.18,59.14-19,78.58-36.8,2.31-3.24,3.5-7.1,2.31-12.05-2.22-9.25-9-14.63-17.34-17.52-11.08-3.84-24.02-3.42-35.57-5.26-16.19-2.57-29.93-6.73-46.62-5.67-36.42,2.34-73.06,4.84-109.6,6.83-19.94,1.08-39.94,3.84-59.62,5.06-2.19,10.75,12.54,10.8,14.73,18.29-12.82,2.69-24.67,11.68-37.24,15.88-16.17,5.39-32.39,11.28-47.61,19.16-11.71,6.04-23.08,12.61-34.98,18.18-6.61,3.09-15.96,10.29-22.73,11.04,7.86,9.54,20.78,6.05,31.32,5.92,13.53-.16,27.66-.86,41.19-.37-5.3,1.46-10.66,3.42-17.01,4.28,12.1,9.99,34.75,5.51,49.26,4.71,9.57-.52,18.3-.53,27.38-3.58,7.52-2.52,14.27-5.44,22.31-5.02,13.13.69,26.12,3.18,39.65-2.56,15.56-6.61,29.73-15.36,46.21-17.74.7-.1,1.4-.18,2.12-.27l14.87,11.84s-31.13,15.05-58.96,21.28l.16-.87-165.59,12.37c-11.11,4.17-21.12-5.78-29.24-11.79-4.6-3.4-12.01-9.07-17.22-10.88-7.59-2.64-5.89,2.21-11.03,2.86-8.56,1.08-17.01-13.55-22.97-18.91-8.69-7.82-12.89-2.83-23.24-2.92-11.14-.09-23.92-10.31-32.75-16.69-8.76-6.34-17-21.79-27.57-24.9-20.35-5.96-12.4,39.4-11.85,49.63.43,8.1-2.01,15.5-4.93,23.09-5.22,13.57-7.88,28.12-12.13,42.17-1.5,4.91-3.62,10.42-4.1,15.21,13.53,8.32,22.71,26.64,33.15,38.66,5.89,6.78,4.84-1.57,12.73.04-.26.07,10.39,7.88,10.13,7.94-10.22,2.28-20.85,3.02-30.54,6.29-10.06,3.39-19.9,7.59-25.9,16.89-4.48,6.93-2.87,14.89-1.09,23.26,8.36-1.06,12.93-4.73,20.33-7.66,8.84-3.52,17-5.5,26.68-7.18,3.39-.58,6.78-1.17,10.17-1.76-2.15,10.87-1.3,29.9,12.49,31.36,10.28,1.09,22.33-7.52,28.27,2.3,2.43,4.03,3.16,8.64,3.31,13.31,0,0-10.13,7.9-12.19,12.25-3.52,7.42-1.06,16.59.24,24.55,2.08,12.67,1.14,39.66,5.48,38.27,10.22,1.41,13.16-42.03,13.91-42.33l5.22-2.58c.82.86,1.6,1.75,2.23,2.78,4.41,7.14,1.56,16.99,4.04,24.23,6.29,18.46,23.78-2.94,34.12-6.78,13.63-5.06,29.91-.57,41.86-8.93,6.45-4.52,9.22-11.36,14.95-17.12,7.15-7.17,16.4-11.87,24.5-17.87,10.17-7.48,19.54-15.33,29.26-23.17,7.96-6.44,16.15-10.28,24.51-15.93,13.42-9.06,51.2-30.02,54.9-32.53,0,0,41.57-51.76,59.26-53.8,11.21-1.29,28.73-.81,40.07-.29-1.74.62-3.48,1.23-5.23,1.81-24.9,8.32-45.02,22.68-66.6,37.34-22.7,15.43-44.7,33.56-67.88,48.9-10.91,7.22-24.03,35.59-32.89,44.55-6.47,6.56-10.9,17.76-18.05,22.66,7.27-.71,14.65-2.35,21.91-3.6,32.58-5.65,51.15-14.02,73.78-36.97,8.22-8.35,27.63-22.32,36.52-29.45,6.44-5.19,59.89-28.09,72.13-31.35,30.87-8.24,61.96-15.59,92.66-24.15,15.27-4.26,28.07-12.45,42.22-19.59,8.66-4.38,24.14-10.95,22.04-22.41Z"/>
    </g>
  </g>
</svg>