<?xml version="1.0" encoding="utf-8"?>
<!-- Generator: Adobe Illustrator 28.0.0, SVG Export Plug-In . SVG Version: 6.00 Build 0)  -->
<svg version="1.1" id="_圖層_1" xmlns="http://www.w3.org/2000/svg" xmlns:xlink="http://www.w3.org/1999/xlink" x="0px" y="0px"
	 viewBox="0 0 48.2 48.2" style="enable-background:new 0 0 48.2 48.2;" xml:space="preserve">
<style type="text/css">
	.st0{fill:#ADACAC;}
	.st1{enable-background:new    ;}
	.st2{fill:#FFFFFF;}
</style>
<path class="st0" d="M43,24.1C43,34.5,34.5,43,24.1,43S5.2,34.5,5.2,24.1S13.7,5.2,24.1,5.2S43,13.7,43,24.1L43,24.1z"/>
<g class="st1">
	<path class="st2" d="M33.1,36.5c-1.5,1.4-3,2.1-4.4,2.1c-1.2,0-2.2-0.4-3.1-1.2c-0.8-0.8-1.2-1.8-1.2-3c0-1.6,0.8-4.1,2.5-7.6
		l1.3-2.7c1-2.1,1.5-3.8,1.5-5.1c0-1.7-0.5-3-1.4-4c-1-1-2.2-1.5-3.8-1.5c-1.5,0-2.7,0.4-3.6,1.3c-0.9,0.9-1.4,2.1-1.4,3.5
		c0,1.3,0.4,2.9,1.3,4.7l0.5,1.1c0.9,1.8,1.3,3.1,1.3,3.9c0,1.3-0.5,2.5-1.5,3.5c-1,1-2.2,1.5-3.6,1.5c-1.4,0-2.6-0.5-3.6-1.5
		c-1-1-1.5-2.2-1.5-3.7c0-1.4,0.5-2.6,1.5-3.6c1-1,2.2-1.5,3.5-1.5c0.5,0,1,0.1,1.6,0.3c-0.9-1.8-1.4-3.4-1.4-4.8
		c0-1.8,0.7-3.3,2-4.5c1.3-1.2,3-1.8,5-1.8c2.2,0,3.9,0.6,5.2,1.9c1.3,1.3,2,3,2,5.1c0,1.1-0.1,2-0.3,2.7c-0.2,0.8-0.7,2-1.6,3.8
		l-0.9,2c-1.6,3.5-2.4,5.8-2.4,6.8c0,0.8,0.2,1.4,0.7,1.9c0.5,0.5,1,0.7,1.7,0.7c0.9,0,2-0.5,3.2-1.6L33.1,36.5z M13.8,27.9
		c0,1,0.3,1.9,1,2.6c0.7,0.7,1.5,1.1,2.6,1.1c1,0,1.8-0.4,2.5-1.1c0.7-0.7,1-1.6,1-2.6c0-1-0.3-1.9-1-2.6c-0.7-0.7-1.5-1.1-2.6-1.1
		c-1,0-1.8,0.4-2.5,1.1C14.1,26.1,13.8,26.9,13.8,27.9z"/>
</g>
</svg>
