<?xml version="1.0" encoding="UTF-8"?>
<svg xmlns="http://www.w3.org/2000/svg" xmlns:xlink="http://www.w3.org/1999/xlink" viewBox="0 0 759 546">
  <defs>
    <style>
      .cls-1 {
        fill: url(#linear-gradient);
      }

      .cls-1, .cls-2, .cls-3, .cls-4, .cls-5, .cls-6, .cls-7, .cls-8, .cls-9, .cls-10 {
        stroke-width: 0px;
      }

      .cls-11 {
        mix-blend-mode: soft-light;
      }

      .cls-2 {
        fill: url(#_未命名漸層_264);
      }

      .cls-3 {
        fill: url(#linear-gradient-4);
      }

      .cls-4 {
        fill: url(#linear-gradient-2);
      }

      .cls-5 {
        fill: url(#linear-gradient-3);
      }

      .cls-6 {
        fill: url(#linear-gradient-5);
      }

      .cls-12 {
        isolation: isolate;
      }

      .cls-7 {
        fill: url(#_未命名漸層_264-4);
      }

      .cls-8 {
        fill: url(#_未命名漸層_264-3);
      }

      .cls-9 {
        fill: url(#_未命名漸層_264-5);
      }

      .cls-10 {
        fill: url(#_未命名漸層_264-2);
      }
    </style>
    <linearGradient id="linear-gradient" x1="442.01" y1="354.35" x2="639.9" y2="354.35" gradientUnits="userSpaceOnUse">
      <stop offset="0" stop-color="#2a5ca2"/>
      <stop offset="1" stop-color="#1a2a53"/>
    </linearGradient>
    <linearGradient id="linear-gradient-2" x1="436.7" y1="356.01" x2="439.63" y2="356.01" xlink:href="#linear-gradient"/>
    <linearGradient id="linear-gradient-3" x1="184.56" y1="170.94" x2="266.67" y2="170.94" xlink:href="#linear-gradient"/>
    <linearGradient id="linear-gradient-4" x1="202.94" y1="253.83" x2="226.15" y2="253.83" xlink:href="#linear-gradient"/>
    <linearGradient id="linear-gradient-5" x1="119.1" y1="357.14" x2="434.54" y2="357.14" xlink:href="#linear-gradient"/>
    <radialGradient id="_未命名漸層_264" data-name="未命名漸層 264" cx="540.96" cy="354.35" fx="540.96" fy="354.35" r="76.35" gradientUnits="userSpaceOnUse">
      <stop offset=".24" stop-color="#158abf"/>
      <stop offset="1" stop-color="#fff"/>
    </radialGradient>
    <radialGradient id="_未命名漸層_264-2" data-name="未命名漸層 264" cx="438.17" cy="356.01" fx="438.17" fy="356.01" r="8.27" xlink:href="#_未命名漸層_264"/>
    <radialGradient id="_未命名漸層_264-3" data-name="未命名漸層 264" cx="225.61" cy="170.94" fx="225.61" fy="170.94" r="64.35" xlink:href="#_未命名漸層_264"/>
    <radialGradient id="_未命名漸層_264-4" data-name="未命名漸層 264" cx="214.54" cy="253.83" fx="214.54" fy="253.83" r="8.27" xlink:href="#_未命名漸層_264"/>
    <radialGradient id="_未命名漸層_264-5" data-name="未命名漸層 264" cx="276.82" cy="357.14" fx="276.82" fy="357.14" r="131.73" xlink:href="#_未命名漸層_264"/>
  </defs>
  <g class="cls-12">
    <g id="_圖層_1" data-name="圖層 1">
      <g>
        <g>
          <path class="cls-1" d="m523.84,313.56c-31.95,5.66-52.58,18.43-69.36,24.76-4.36,1.64-7.75,2.5-10.42,2.88,1.13,2.91,1.6,6.82,1.6,10.81,0,1.56-.07,3.13-.2,4.65-.39,4.77-1.5,10.33-3.45,14.17,7.48,2.26,21.15,9.4,21.15,9.4,57.67,36.86,128.47,3.49,128.47,3.49,0,0,49.73-23.19,48.24-39.38-1.1-11.92-53.35-41.88-116.03-30.77Zm82.32,30.49c-3.5.51-6.75-1.92-7.26-5.41-.51-3.51,1.92-6.76,5.42-7.27,3.5-.5,6.75,1.92,7.26,5.42.51,3.5-1.92,6.75-5.41,7.26Z"/>
          <path class="cls-4" d="m437.17,356.03c-.34,4.07-.47,7-.47,9.1,0,1.13.07,1.79.13,2.49,1.01-2.18,2.17-6,2.63-11.46.12-1.46.17-2.83.17-4.1,0-3.43-.4-5.96-.86-7.65-.51,1.96-1.07,5.32-1.6,11.63Z"/>
          <path class="cls-5" d="m263.54,143.12s-15.8-52.54-32.04-53.4c-11.95-.63-40.15,46.14-45.71,76.46-5.85,31.91,10.68,54.68,14.52,72.2.79,3.61,1.17,6.53,1.3,8.94,4-1.04,9.17-1.17,13.59-.79,6.28.53,13.94,2.3,17.17,5.62,3.98-7.09,10.66-16.34,10.66-16.34,35.46-48.69,20.5-92.7,20.5-92.7Zm-43.56-13.68c-3.54,0-6.41-2.87-6.41-6.4s2.87-6.4,6.41-6.4,6.4,2.87,6.4,6.4-2.87,6.4-6.4,6.4Z"/>
          <path class="cls-3" d="m202.94,253.22c1.96.51,5.32,1.08,11.63,1.62,6.25.53,9.59.53,11.59.36-2.18-1.01-6-2.18-11.45-2.65-5.45-.46-9.43.04-11.76.67Z"/>
        </g>
        <path class="cls-6" d="m434.54,338.92c-2.48-3.6-18.31-25.68-33.84-25.16,0,0,6.3,12.86,10.85,22.35l-4.52-1.94c-3.63-1.82-8.14-4.08-13.57-3.86-5.47.22-10.88,2.38-15.64,4.29l-5.24,1.97c-10.4,3.34-17.47,9.93-23.71,15.75-4.19,3.91-8.15,7.6-12.96,10.25-7.58,4.19-12.42,2.32-20.42-.78-5.53-2.13-11.66-4.5-19.23-4.89-.4-.02-42.23-.2-52.02,16.75-2.97,5.14-2.87,11.12.27,16.84l1.48,2.69c.45.82,1.27,1.36,2.2,1.45l2.94.29c13.32,1.39,23.5,5.35,24.92,7.57,1.08,1.7,1.34,3.45.76,5.2-.66,1.99-2.29,3.55-4.33,4.18-6.36,1.96-16-7.46-22.38-13.7l-3.27-3.18c-16.89-15.95-34.32-18.56-50.42-7.58-8.06,5.49-10.5,14.24-12.47,21.27-1.28,4.56-2.48,8.84-4.68,10.17-.97.58-1.66.62-6.16-1.21-2.04-.82-4.55-1.62-7.25-2.17,3.37-2.87,6.27-6.13,7.88-10.34,1.09-2.87,1.44-5.63,1.44-8.17s-.38-5.03-.7-7.04c-.27-1.79-.49-3.26-.49-4.57,0-.96.12-1.84.44-2.68,2.06-5.54,10.23-9.68,17.44-13.32l6.36-3.33c12.38-6.93,15.93-14.71,15.93-22.36,0-4.33-1.14-8.63-2.46-12.71,0,.02-.77-2.34-.77-2.34l-1.33-4.03s-2.41-9.27-2.41-9.27c-.81-4.55-.13-5.67,2.09-9.38,1.26-2.09,2.99-4.97,4.46-8.82,1.97-5.21.97-10.23.23-13.9-.24-1.23-.44-2.47.66-5.57.72.66,1.47,1.24,2.35,1.59,7.38,9.1,26,8.55,36.17,5.03-8.54-2.47-21.28-13.35-23.39-23.57-2.88.83-7.53.84-15.69.15-8.31-.71-12.95-1.52-15.65-2.85-12.71,4.13-24.5,10.7-36.74,14.81,9.38,6.6,24.11,5.48,34.93,3.57.3-.05.62-.15.94-.25-1.02,4.7-.5,7.65-.01,10.18,0,0,0,.02,0,.02.27,1.36.72,3.64.54,4.29,0-.02-3.11,6.07-3.11,6.07-2.93,4.88-6.24,10.39-4.28,21.4,1.05,5.94,2.79,11.07,4.19,15.2,3.8,11.32,4.21,12.51-4.81,17.56l-5.86,3.07c-9.87,4.99-21.1,10.68-25.45,22.37-2.32,6.27-1.45,11.92-.81,16.03.51,3.27.7,4.93.18,6.27-1.49,3.91-9.29,8.01-15.54,11.31-11.52,6.05-28.8,15.13-21.86,33.46,2.86,7.54,7.12,11.83,12.67,12.75,9.71,1.62,16.81-8.08,23.08-16.63,1.16-1.59,4.47-6.08,5.86-7.32,1.25.05,3.16.81,4.9,1.52,5.03,2.02,12.53,5.03,20.74.09,7.84-4.72,10.21-13.2,12.12-20.02,1.55-5.54,2.76-9.86,5.81-11.93,9.61-6.55,18.49-4.84,29.7,5.75l3.09,2.98c9.22,9.02,23.18,22.68,38.89,17.85,7.1-2.19,12.76-7.74,15.13-14.84.8-2.39,1.2-4.86,1.2-7.34s-.38-4.88-1.15-7.28c0,0-2.69-5.68-2.69-5.68-4.83-7.57-16.07-11.58-26.55-13.73,7.88-3.26,23.24-5.9,32.24-5.44,4.94.26,9.33,1.95,13.97,3.74,9.09,3.51,20.17,7.79,34.38-.05,6.57-3.64,11.68-8.41,16.19-12.62,5.48-5.11,10.66-9.94,17.72-12.2l6.09-2.28c3.84-1.52,7.68-3.05,10.35-3.16,1.14-.05,3.37,1.06,5.34,2.03.16.08,2.56,1.77,2.56,1.77,1.48,1.23,3.18,2.63,6.55,4.02-6.59,7.97-14.54,20.47-7.44,41.42,0,0,15.4-24.98,29.53-27.45-.17-1.22-.29-2.6-.29-4.37,0-2.47.17-5.55.49-9.4.79-9.4,1.71-14.09,3.38-16.61Zm-28.6,8.04l-3.48-2.4c-3.02-1.49-5.68-2.8-8.26-2.7-3.64.15-7.95,1.87-12.11,3.52l-5.96,2.24c-8.13,2.6-13.76,7.85-19.72,13.4-4.48,4.18-9.12,8.5-15.07,11.8-11.89,6.56-20.8,3.12-29.41-.2-5.27-2.03-10.06-3.88-15.91-4.18-10.16-.52-37.28,3.28-42.11,11.23-.49.81-.55,1.82-.14,2.68.4.86,1.22,1.46,2.16,1.59,14.99,2.14,25.68,6.65,29.32,12.36l2.08,4.39c1.18,3.66,1.17,7.5-.02,11.07-1.8,5.38-6.07,9.57-11.42,11.22-12.49,3.84-25-8.4-33.28-16.5l-3.13-3.02c-13.2-12.45-24.88-14.46-36.8-6.33-4.75,3.23-6.35,8.95-8.05,15-1.83,6.54-3.69,13.22-9.6,16.77-5.8,3.49-11.03,1.39-15.65-.46-2.91-1.19-5.89-2.4-8.73-1.85-.31.06-.6.17-.87.33-1.72,1-4.02,3.88-7.91,9.21-5.56,7.59-11.31,15.43-17.57,14.39-3.42-.57-6.21-3.65-8.3-9.17-4.77-12.62,5.83-19.42,19.11-26.39,7.94-4.18,16.04-8.45,18.29-14.35,1.11-2.89.65-5.78.13-9.13-.61-3.92-1.29-8.34.52-13.22,3.57-9.61,13.75-14.76,22.73-19.31l5.97-3.13c13.18-7.39,11.28-13.06,7.49-24.34-1.41-4.16-3-8.86-3.98-14.38-1.58-8.92.91-13.08,3.55-17.47l3.57-7.01c.77-2.03.26-4.63-.28-7.39-.23-1.16-.47-2.41-.47-4,0-1.92.49-4.49,1.7-7.9,1.28-.44,2.52-.71,3.6-.5.84.17,1.55.49,2.22.87-1.48,3.55-2.04,5.93-2.04,7.77,0,1.01.13,1.9.31,2.83.37,1.88.8,4.02.8,6.22,0,1.52-.2,3.07-.77,4.57-1.28,3.37-2.8,5.89-4.02,7.91-1.9,3.16-3.22,5.37-3.22,9.17,0,1.19.13,2.54.41,4.12l2.6,10s1.13,3.43,1.13,3.43c-.01-.03.22.67.22.67l.74,2.27c3.47,10.72,4.88,19.6-10.77,28.37l-6.26,3.27c-8.1,4.1-17.32,8.76-20.15,16.38-1.26,3.36-.79,6.43-.25,9.97.58,3.64,1.27,8-.42,12.44-3,7.84-12.02,12.57-20.74,17.15-12.16,6.4-19.36,10.85-16.87,18.57.05.16.11.41.19.55l2.21,4.16c.69,1.29,1.9,1.35,3.26.79,2.61-1.08,5.98-5.17,10.91-11.85,4.46-6.09,7.88-10.76,11.48-11.62,4.43-1.07,8.48.57,12.06,2.01,4.68,1.9,7.71,2.94,11.24.82,4.12-2.49,5.61-7.82,7.2-13.45,1.91-6.82,3.86-13.83,10.22-18.16,14.03-9.57,28.2-7.28,43.31,6.99l3.24,3.14c7.76,7.59,18.41,18.01,27.99,15.06,3.8-1.16,6.8-4.08,8.04-7.81.34-1.01.6-2.24.6-3.64,0-1.9-.49-4.09-1.95-6.39-3.36-5.25-17.45-8.94-29.12-10.16,0,0-.73-.07-1.47-.15-.38-.69-.76-1.38-.76-1.38-1.15-2.09-1.72-4.16-1.72-6.15,0-1.79.47-3.52,1.4-5.13,6.8-11.79,39.16-14.34,46.81-13.93,6.67.35,12.35,2.54,17.36,4.47,8.33,3.22,15.43,5.97,25.32.5,5.43-2.98,9.83-7.09,14.09-11.07,6.09-5.68,12.38-11.55,21.71-14.54l5.41-2.03c4.41-1.76,9.34-3.73,13.84-3.91,3.97-.16,7.45,1.58,10.81,3.26,0,0,5.71,2.46,10.71,4.62.13.27.26.57.37.8.7,1.56-.58,3.47-2.71,6.01-3.8-1.29-5.57-2.58-6.92-3.69Zm-263.69,82.94c-2.58,3.46-4.55,5.91-5.95,7.41-.11-.36-.18-.71-.18-1.07,0-1.66,1.62-3.49,6.13-6.34Z"/>
      </g>
      <g class="cls-11">
        <g>
          <path class="cls-2" d="m523.84,313.56c-31.95,5.66-52.58,18.43-69.36,24.76-4.36,1.64-7.75,2.5-10.42,2.88,1.13,2.91,1.6,6.82,1.6,10.81,0,1.56-.07,3.13-.2,4.65-.39,4.77-1.5,10.33-3.45,14.17,7.48,2.26,21.15,9.4,21.15,9.4,57.67,36.86,128.47,3.49,128.47,3.49,0,0,49.73-23.19,48.24-39.38-1.1-11.92-53.35-41.88-116.03-30.77Zm82.32,30.49c-3.5.51-6.75-1.92-7.26-5.41-.51-3.51,1.92-6.76,5.42-7.27,3.5-.5,6.75,1.92,7.26,5.42.51,3.5-1.92,6.75-5.41,7.26Z"/>
          <path class="cls-10" d="m437.17,356.03c-.34,4.07-.47,7-.47,9.1,0,1.13.07,1.79.13,2.49,1.01-2.18,2.17-6,2.63-11.46.12-1.46.17-2.83.17-4.1,0-3.43-.4-5.96-.86-7.65-.51,1.96-1.07,5.32-1.6,11.63Z"/>
          <path class="cls-8" d="m263.54,143.12s-15.8-52.54-32.04-53.4c-11.95-.63-40.15,46.14-45.71,76.46-5.85,31.91,10.68,54.68,14.52,72.2.79,3.61,1.17,6.53,1.3,8.94,4-1.04,9.17-1.17,13.59-.79,6.28.53,13.94,2.3,17.17,5.62,3.98-7.09,10.66-16.34,10.66-16.34,35.46-48.69,20.5-92.7,20.5-92.7Zm-43.56-13.68c-3.54,0-6.41-2.87-6.41-6.4s2.87-6.4,6.41-6.4,6.4,2.87,6.4,6.4-2.87,6.4-6.4,6.4Z"/>
          <path class="cls-7" d="m202.94,253.22c1.96.51,5.32,1.08,11.63,1.62,6.25.53,9.59.53,11.59.36-2.18-1.01-6-2.18-11.45-2.65-5.45-.46-9.43.04-11.76.67Z"/>
        </g>
        <path class="cls-9" d="m434.54,338.92c-2.48-3.6-18.31-25.68-33.84-25.16,0,0,6.3,12.86,10.85,22.35l-4.52-1.94c-3.63-1.82-8.14-4.08-13.57-3.86-5.47.22-10.88,2.38-15.64,4.29l-5.24,1.97c-10.4,3.34-17.47,9.93-23.71,15.75-4.19,3.91-8.15,7.6-12.96,10.25-7.58,4.19-12.42,2.32-20.42-.78-5.53-2.13-11.66-4.5-19.23-4.89-.4-.02-42.23-.2-52.02,16.75-2.97,5.14-2.87,11.12.27,16.84l1.48,2.69c.45.82,1.27,1.36,2.2,1.45l2.94.29c13.32,1.39,23.5,5.35,24.92,7.57,1.08,1.7,1.34,3.45.76,5.2-.66,1.99-2.29,3.55-4.33,4.18-6.36,1.96-16-7.46-22.38-13.7l-3.27-3.18c-16.89-15.95-34.32-18.56-50.42-7.58-8.06,5.49-10.5,14.24-12.47,21.27-1.28,4.56-2.48,8.84-4.68,10.17-.97.58-1.66.62-6.16-1.21-2.04-.82-4.55-1.62-7.25-2.17,3.37-2.87,6.27-6.13,7.88-10.34,1.09-2.87,1.44-5.63,1.44-8.17s-.38-5.03-.7-7.04c-.27-1.79-.49-3.26-.49-4.57,0-.96.12-1.84.44-2.68,2.06-5.54,10.23-9.68,17.44-13.32l6.36-3.33c12.38-6.93,15.93-14.71,15.93-22.36,0-4.33-1.14-8.63-2.46-12.71,0,.02-.77-2.34-.77-2.34l-1.33-4.03s-2.41-9.27-2.41-9.27c-.81-4.55-.13-5.67,2.09-9.38,1.26-2.09,2.99-4.97,4.46-8.82,1.97-5.21.97-10.23.23-13.9-.24-1.23-.44-2.47.66-5.57.72.66,1.47,1.24,2.35,1.59,7.38,9.1,26,8.55,36.17,5.03-8.54-2.47-21.28-13.35-23.39-23.57-2.88.83-7.53.84-15.69.15-8.31-.71-12.95-1.52-15.65-2.85-12.71,4.13-24.5,10.7-36.74,14.81,9.38,6.6,24.11,5.48,34.93,3.57.3-.05.62-.15.94-.25-1.02,4.7-.5,7.65-.01,10.18,0,0,0,.02,0,.02.27,1.36.72,3.64.54,4.29,0-.02-3.11,6.07-3.11,6.07-2.93,4.88-6.24,10.39-4.28,21.4,1.05,5.94,2.79,11.07,4.19,15.2,3.8,11.32,4.21,12.51-4.81,17.56l-5.86,3.07c-9.87,4.99-21.1,10.68-25.45,22.37-2.32,6.27-1.45,11.92-.81,16.03.51,3.27.7,4.93.18,6.27-1.49,3.91-9.29,8.01-15.54,11.31-11.52,6.05-28.8,15.13-21.86,33.46,2.86,7.54,7.12,11.83,12.67,12.75,9.71,1.62,16.81-8.08,23.08-16.63,1.16-1.59,4.47-6.08,5.86-7.32,1.25.05,3.16.81,4.9,1.52,5.03,2.02,12.53,5.03,20.74.09,7.84-4.72,10.21-13.2,12.12-20.02,1.55-5.54,2.76-9.86,5.81-11.93,9.61-6.55,18.49-4.84,29.7,5.75l3.09,2.98c9.22,9.02,23.18,22.68,38.89,17.85,7.1-2.19,12.76-7.74,15.13-14.84.8-2.39,1.2-4.86,1.2-7.34s-.38-4.88-1.15-7.28c0,0-2.69-5.68-2.69-5.68-4.83-7.57-16.07-11.58-26.55-13.73,7.88-3.26,23.24-5.9,32.24-5.44,4.94.26,9.33,1.95,13.97,3.74,9.09,3.51,20.17,7.79,34.38-.05,6.57-3.64,11.68-8.41,16.19-12.62,5.48-5.11,10.66-9.94,17.72-12.2l6.09-2.28c3.84-1.52,7.68-3.05,10.35-3.16,1.14-.05,3.37,1.06,5.34,2.03.16.08,2.56,1.77,2.56,1.77,1.48,1.23,3.18,2.63,6.55,4.02-6.59,7.97-14.54,20.47-7.44,41.42,0,0,15.4-24.98,29.53-27.45-.17-1.22-.29-2.6-.29-4.37,0-2.47.17-5.55.49-9.4.79-9.4,1.71-14.09,3.38-16.61Zm-28.6,8.04l-3.48-2.4c-3.02-1.49-5.68-2.8-8.26-2.7-3.64.15-7.95,1.87-12.11,3.52l-5.96,2.24c-8.13,2.6-13.76,7.85-19.72,13.4-4.48,4.18-9.12,8.5-15.07,11.8-11.89,6.56-20.8,3.12-29.41-.2-5.27-2.03-10.06-3.88-15.91-4.18-10.16-.52-37.28,3.28-42.11,11.23-.49.81-.55,1.82-.14,2.68.4.86,1.22,1.46,2.16,1.59,14.99,2.14,25.68,6.65,29.32,12.36l2.08,4.39c1.18,3.66,1.17,7.5-.02,11.07-1.8,5.38-6.07,9.57-11.42,11.22-12.49,3.84-25-8.4-33.28-16.5l-3.13-3.02c-13.2-12.45-24.88-14.46-36.8-6.33-4.75,3.23-6.35,8.95-8.05,15-1.83,6.54-3.69,13.22-9.6,16.77-5.8,3.49-11.03,1.39-15.65-.46-2.91-1.19-5.89-2.4-8.73-1.85-.31.06-.6.17-.87.33-1.72,1-4.02,3.88-7.91,9.21-5.56,7.59-11.31,15.43-17.57,14.39-3.42-.57-6.21-3.65-8.3-9.17-4.77-12.62,5.83-19.42,19.11-26.39,7.94-4.18,16.04-8.45,18.29-14.35,1.11-2.89.65-5.78.13-9.13-.61-3.92-1.29-8.34.52-13.22,3.57-9.61,13.75-14.76,22.73-19.31l5.97-3.13c13.18-7.39,11.28-13.06,7.49-24.34-1.41-4.16-3-8.86-3.98-14.38-1.58-8.92.91-13.08,3.55-17.47l3.57-7.01c.77-2.03.26-4.63-.28-7.39-.23-1.16-.47-2.41-.47-4,0-1.92.49-4.49,1.7-7.9,1.28-.44,2.52-.71,3.6-.5.84.17,1.55.49,2.22.87-1.48,3.55-2.04,5.93-2.04,7.77,0,1.01.13,1.9.31,2.83.37,1.88.8,4.02.8,6.22,0,1.52-.2,3.07-.77,4.57-1.28,3.37-2.8,5.89-4.02,7.91-1.9,3.16-3.22,5.37-3.22,9.17,0,1.19.13,2.54.41,4.12l2.6,10s1.13,3.43,1.13,3.43c-.01-.03.22.67.22.67l.74,2.27c3.47,10.72,4.88,19.6-10.77,28.37l-6.26,3.27c-8.1,4.1-17.32,8.76-20.15,16.38-1.26,3.36-.79,6.43-.25,9.97.58,3.64,1.27,8-.42,12.44-3,7.84-12.02,12.57-20.74,17.15-12.16,6.4-19.36,10.85-16.87,18.57.05.16.11.41.19.55l2.21,4.16c.69,1.29,1.9,1.35,3.26.79,2.61-1.08,5.98-5.17,10.91-11.85,4.46-6.09,7.88-10.76,11.48-11.62,4.43-1.07,8.48.57,12.06,2.01,4.68,1.9,7.71,2.94,11.24.82,4.12-2.49,5.61-7.82,7.2-13.45,1.91-6.82,3.86-13.83,10.22-18.16,14.03-9.57,28.2-7.28,43.31,6.99l3.24,3.14c7.76,7.59,18.41,18.01,27.99,15.06,3.8-1.16,6.8-4.08,8.04-7.81.34-1.01.6-2.24.6-3.64,0-1.9-.49-4.09-1.95-6.39-3.36-5.25-17.45-8.94-29.12-10.16,0,0-.73-.07-1.47-.15-.38-.69-.76-1.38-.76-1.38-1.15-2.09-1.72-4.16-1.72-6.15,0-1.79.47-3.52,1.4-5.13,6.8-11.79,39.16-14.34,46.81-13.93,6.67.35,12.35,2.54,17.36,4.47,8.33,3.22,15.43,5.97,25.32.5,5.43-2.98,9.83-7.09,14.09-11.07,6.09-5.68,12.38-11.55,21.71-14.54l5.41-2.03c4.41-1.76,9.34-3.73,13.84-3.91,3.97-.16,7.45,1.58,10.81,3.26,0,0,5.71,2.46,10.71,4.62.13.27.26.57.37.8.7,1.56-.58,3.47-2.71,6.01-3.8-1.29-5.57-2.58-6.92-3.69Zm-263.69,82.94c-2.58,3.46-4.55,5.91-5.95,7.41-.11-.36-.18-.71-.18-1.07,0-1.66,1.62-3.49,6.13-6.34Z"/>
      </g>
    </g>
  </g>
</svg>