<?xml version="1.0" encoding="UTF-8"?>
<svg id="_圖層_1" data-name="圖層 1" xmlns="http://www.w3.org/2000/svg" viewBox="0 0 72.18 72.18">
  <defs>
    <style>
      .cls-1 {
        fill: #e3d04c;
        stroke-width: 0px;
      }
    </style>
  </defs>
  <path class="cls-1" d="m39.18,16.29l4.33,8.78c.5,1.02,1.47,1.72,2.59,1.88l9.69,1.41c2.82.41,3.95,3.88,1.91,5.87l-7.01,6.84c-.81.79-1.18,1.93-.99,3.05l1.66,9.65c.48,2.81-2.47,4.96-5,3.63l-8.67-4.56c-1-.53-2.2-.53-3.21,0l-8.67,4.56c-2.53,1.33-5.48-.82-5-3.63l1.66-9.65c.19-1.12-.18-2.26-.99-3.05l-7.01-6.84c-2.04-1.99-.92-5.46,1.91-5.87l9.69-1.41c1.12-.16,2.09-.87,2.59-1.88l4.33-8.78c1.26-2.56,4.91-2.56,6.18,0Z"/>
</svg>