<?xml version="1.0" encoding="utf-8"?>
<!-- Generator: Adobe Illustrator 28.0.0, SVG Export Plug-In . SVG Version: 6.00 Build 0)  -->
<svg version="1.1" id="圖層_1" xmlns="http://www.w3.org/2000/svg" xmlns:xlink="http://www.w3.org/1999/xlink" x="0px" y="0px"
	 viewBox="0 0 1440 841.9" style="enable-background:new 0 0 1440 841.9;" xml:space="preserve">
<style type="text/css">
	.st0{fill:#070001;}
	.st1{fill:#231815;}
	.st2{fill:#E2E1E1;}
</style>
<image style="overflow:visible;enable-background:new    ;" width="2999" height="1995" xlink:href="F2974E8D9EB658AE.jpeg"  transform="matrix(0.4818 0 0 0.4552 -0.1767 0.2271)">
</image>
<g>
	<path class="st0" d="M0,541.2c12.1,46.5,936.7,178.9,1440-15.1V910H0V541.2z"/>
	<path class="st0" d="M-1.5,669.1V525c1-0.1,2-0.1,3-0.3c0.4-0.1,1.1-0.7,1-0.9c-0.2-0.5-0.6-1-1.1-1.4c-0.2-0.2-0.6-0.2-1-0.2h0.1
		c-0.7-0.3-1.3-0.7-2-1v-49c0.6-0.2,1.3-0.2,1.7-0.5s0.7-1.1,0.6-1.5s-0.9-0.7-1.4-0.9c-0.2-0.1-0.6,0-0.9,0v-9.6
		c1.3,0.3,2.5,0.6,3.8,0.9c1.1,0.3,2.2,0.6,3.3,0.9c3.4,0.4,6.7,0.8,10,1.2c0.4,0.3,0.9,0.5,1.2,0.8c1.7,1.9,3.9,2.5,6.4,2.6
		c0.5,0,0.9,0.2,1.4,0.4c1,0.3,2,0.7,3,1c0,0.3,0.1,0.7,0.1,1l0,0c-0.3,0.1-0.5,0.2-0.8,0.3c0.3,0.2,0.5,0.4,0.8,0.6
		s0.5,0.4,0.8,0.6c1,0.1,2.1,0.2,3.1,0.4c0.5,1,1,1.9,1.3,2.7c1.2,0.2,2,0.3,2.8,0.4c0.1,0,0.3-0.1,0.4-0.2c0.9-2.3,0.4-4.2-1.5-5.8
		c0.8-0.1,1.7-0.5,2.3-0.3c1,0.4,1.8,1.5,2.8,1.9c3.2,1.3,6.4,2.4,9.5,3.5v1.4c4.3-0.1,4.3-0.1,8,2.8c0.7,0.6,1.8,0.8,2.7,1.2
		c1-0.3,1.9-0.6,2.9-0.8c2,0.9,4.1,1.8,6.1,2.7c2.9,2.2,6,4.2,10,4h-0.1c0,0.3,0.1,0.5,0.2,0.8c0.7,0.3,1.5,0.6,2.2,0.9h-0.1
		c0.9,1,1.9,2,2.8,3c1,1.7,1.2,3.8,3,5c1.1,1.2,2,2.4,3.2,3.5c2.3,2.2,5,2.8,8,1.2c5,0,10.1-0.7,15.1,0.9c1.1,0.3,2.1,0.9,3.2,1
		c1.6,0.1,3.2,0,4.9,0c2.5,0.9,4.8,2.1,6.8,3.9c0.9,0.9,2.1,1.5,3.2,2.2c1,1.3,2.3,1.9,4,1.7c0.4,0.1,0.8,0.2,1.2,0.3
		c1,0.2,1.9,0.4,2.9,0.6c1,0.5,2.1,1.1,3.1,1.6c1.1,1.2,2.6,1.2,4.1,1.1c0.3,0,0.6,0,0.9,0.2c0.3,0.3,0.6,0.6,0.9,0.9
		c0.2,1,0.5,1.9,1.6,2.2s2.2,0.5,3,1.5c1.4,1.7,2.8,0.8,4.4-0.2c-0.9-0.7-1.5-1.2-2.1-1.7l0,0c2,0.1,3.7-0.5,5.1-1.8
		c1.7-0.3,3.4-0.7,5.1-1c2.4,0.9,5.1,0.9,7.2,2.6c1.1,2.8,1.5,3.3,3.5,3c4.6-0.6,9.2,0.1,13.8,0.1c2.9,2.5,4.5,6,6.6,9.2
		c0.4,1.6,2.1,1.7,3.1,2.5c1.6,1.8,3.2,3.6,5.9,3.9c0.1,1.1,0.2,2.2,0.2,3.2c1.3,0.5,2.5,1.1,3.7,1.6c-0.6,1.7-0.6,1.7,0.8,1.8
		c0.8,0.1,1.6,0,2.5,0c0.6,0.1,1.2,0.1,1.9,0.2c3.7,2.7,7.3,5.4,12.2,5.6c2,1,4,2,6,2.9l0,0c1.8,1.4,3.8,2.2,6.1,2.7
		c2.2,1.1,4.5,2,7.1,2l0.3,0.2l0.4-0.1c1.3,0.9,2.8,0.9,4.4,0.7c1,0,2,0.1,3.1,0.1l0.4,0.2l0.4-0.1c3.2,1,6.4,1.5,9.6,0
		c1-0.3,2-0.7,3-1c4,1,7.9,0.9,11.5-1.2c0.4-0.2,0.9-0.4,1.4-0.6c0.3-0.1,0.6-0.1,1-0.2l3,0.2l-0.1-0.1c0.7,0.5,1.4,0.9,2.1,1.4
		c1,1,1.9,2,3,2.8c1.3,0.9,2.7,1.6,4.1,2.4c0.7,1.2,1.4,2.5,2.1,3.6c3,0.2,5.8,0,8.3,0.7c2.5,0.8,4.5,0.3,6.7-0.5
		c1.5-0.6,1.9-1.6,1.9-3l0,0c0.7-0.2,1.4-0.5,2.1-0.7c0.7-0.1,1.3-0.2,2-0.3c1.4,0,2.7,0.1,4.1,0.2c1.4,0.2,1.7,0.8,1,1.9
		c0.7,1.9,2,2.7,4.1,2.5c1.3-0.1,2.6-0.1,3.7-0.2c1.5,1.2,1,2.3,0.2,3.5c-1,0.3-2,0.6-3,0.9c-0.3,0-0.7,0-1,0
		c-0.6-0.4-1.3-0.6-1.1,0.5c0.1,0.5,0.7,1,1.1,1.5c0.3,0,0.6,0,1,0c0.1,0.9,0,1.9,0.4,2.8c0.3,0.6,1.1,1.4,1.7,1.3
		c2.9,0,5.9-0.2,8.8-0.5c2-0.2,3.1-1.6,3.2-3.6l0,0c1,0,2,0,3,0c0.7,0.3,1.3,0.7,2,1c1.1,0.7,0.7,1.9,0.9,2.9c1.7,0.1,3.4,1.3,5.1,0
		c0.7,0,1.3-0.1,2-0.1c1.2,0.4,2.3,1.2,3.3,0.8c0.3-0.8,0.4-1.7,0.7-1.7c2.5-0.6,4.9-0.3,7.1,0.9c0.5,1.6,1.9,0.8,2.9,1
		c0.8-2,0.7-2.2-0.8-2.7c-1-0.3-2.1-0.7-3.1-1c2.3-0.1,4.7-0.3,7-0.3c4.1,0,7.9-0.7,11.6-2.3c1.3-0.6,2.8-1,4.3-1.2
		c9.4-1.6,18.3-4.6,26.4-9.6c2.4-0.1,4.7-0.6,6.1-2.7c1.6,0,3.3,0,5-0.1c2.1,1.3,4.2,2.7,6.9,2.9c0.7,0.3,1.5,0.6,2.2,0.8
		c0.3,0.3,0.7,0.7,1,1c0.3,0.7,0.4,1.7,0.9,2c0.9,0.6,2.2,1,3.2,1c2-0.1,3.5,0.7,5,1.7c2,1.3,4.1,2.8,6.7,2.9
		c0.7,0.6,1.5,1.3,2.2,1.9c0.7,2.4,3,2.5,4.9,3c-1.2,1-0.8,1.9,0.1,2.8c0.7,0.3,1.3,0.6,2,1c0.4-0.8,0.9-1.6,1.3-2.4
		c2.4,0.3,4.3,1.1,6,2.6c0.6,0.5,1.6,1.3,2.1,1.1c2.4-0.8,4.5,0.6,6.8,0.6c5.1-0.1,9.7,1.6,14.4,3.2c0.5,0.2,1,0.4,1.4,0.4
		c3.5,0.1,7,0.1,10.4,0.2c0.6,0,1.1,0,1.7,0l0.3,0.2h0.4c1.1,0.3,2.2,0.6,3.3,0.9h-0.1c1,0.3,2.1,0.6,3.1,0.9c2.4,1.2,5,1.6,7.7,1.5
		c3.1-0.1,6.3,0,9.5,0.1c2.3,0.1,4.7,0.2,7,0.3c3.4,0.7,6.8,1.4,10.3,2c1.3,0.2,2.7,0.1,4-0.2c2.9-0.5,5.8-1.1,8.6-2.5
		c2.2-1.1,4.7-1.7,7-2.6c1.8-0.6,3.5-1,5.4-0.5c0.7,1.1,1.7,1.7,3.1,1.8l0,0c0.4,0.6,0.8,1.2,1.3,1.9c0.5,0.1,0.9,0.2,1.4,0.2
		c2.5,1.6,5.3,2.2,8.2,2.9c1.4,1.4,3,2.5,5.1,2.8c0.7,0.4,1.4,0.8,2.1,1.3c0.3,0.2,0.6,0.5,0.9,0.7c1.7,2.3,3.3,4.7,5.5,6.5
		c2.5-0.3,4.8-0.9,7.1-0.9c2.6,0,5.3,0.8,7.9,0.6s5.2-0.8,7.9-0.5c0.3,0.8-1.4,1.5-0.2,2.5c1.8-1.2,3.5-2.4,5.2-3.7h-0.1
		c1.2,0.5,2.5,0.9,3.7,1.4c0.8,0.3,1.8,0.6,2.2-0.2c0.3-0.6,0.1-1.5,0.1-2.2l0,0c1.2,0.1,2.3-0.1,3.2-0.9c0.8-0.7,1.7-0.7,2.7-0.5
		c1.4,0.3,2.8,0.4,4.3,0.6c0.4,0.3,0.8,0.6,1.2,0.9c0.9,0.7,1.7,1.7,2.7,2c1.9,0.6,3.9,0.7,5.9,1c2,0.7,4,1.3,6.1,2
		c3.8,2.1,7.9,3.1,12.4,3.1c12.4-0.1,24.8-0.1,37.3,0c3,0,6-0.1,8.8-1.4c1.8,0.1,3.5,0.2,4.3-1.8l0.2-0.2h0.3
		c1.2-0.2,2.3-0.5,3.4-0.7c1.2-0.1,2.4-0.2,3.6-0.2c1.9,0.2,3.8,0.4,5.4-0.7c2-1,4-2,6-3c3.6-1.4,7.3-1.4,11.1-0.5
		c1,0.2,1.9,0.4,2.9,0.5c3.5,1.3,6.9,2.7,10.4,4c2.5-1.4,4.7-2.6,7-3.8h1.2c1.1-0.3,2.3-0.7,3.4-1l0.3,0.1l0.3-0.2
		c3.5-0.3,6.9-0.6,10.4-0.9c3.2,0.5,5.8-1.3,8.6-2.1c2.1-0.7,4.2-1.3,6.4-2h0.4l0.4,0.2c-0.2,0.8-0.3,1.5,1,1.3
		c0.5-0.1,0.9-0.3,1.3-0.5c0.3,0,0.5,0,0.8,0.2c0.2,1.2,1,1.3,2,0.9l0,0c0.7,0.3,1.4,0.6,2,0.9l0,0c0.6,0.7,1.3,0.7,2,0.1l0.4-0.2
		h0.4c5.5,0,11.1,0,16.6,0l0.3-0.1l0.3,0.2c1.3,2.3,3.3,1.3,5.1,1h-0.1c0.9,0.8,2,1,3.2,0.9c0.3,0,0.6,0,0.8,0.2
		c4.4,1.4,8.8,1,13.2,0.3c0.3,0,0.6-0.3,0.8-0.5c0.3-0.3,0.7-0.6,1-0.9c1.7,0,3.3,0,5,0l0.4,0.2l0.4-0.1c1.4,0.3,2.8,0.7,4.2,1h-0.1
		c1,0.3,2,0.6,3,0.8c4.8,1.7,9.9,2.1,15,2c5.9,1.6,11.6,0.6,17.3-1.2c3.3,0,6.7,0,10,0c0.5,0.1,1.1,0.2,1.6,0.2
		c2.2,0.7,4.3,1.3,6.5,1.9c0.6,0.3,1.2,0.7,1.8,0.8c1.9,0.4,3.3,1.4,4.1,3.1c-0.1,0.1,0,0,0.2-0.2c-0.2,0-0.3,0-0.5,0.1
		c-0.1,0-0.2,0.2-0.3,0.3c0.1,0,0.3,0,0.6-0.2c1.2-0.2,2.5-0.1,1.9-1.8c-0.1-0.4,0.2-0.8,0.2-1.3c0.3,0,0.7,0,1,0
		c1.5,0.4,3,0.9,4.5,1.3v1.4c2.6-0.4,4-2.1,5.5-3.7c0.7,0,1.3,0,2,0c-0.2,0.8-0.5,1.5,0.7,2.3c1.9-1,4.1-1,6.3,0
		c0.3,0.1,0.6,0.2,0.9,0.2c1.8,0.3,2.3,0,3.2-2.5c2-1,4.1-1.9,6.2-2.9c2.8-0.2,5.6-0.5,8.4-0.7c1-0.1,2-0.3,2.9-0.5
		c2.8-0.6,5.5-1.1,8.2-1.7c2.6-0.6,5.1-1.3,7.6-1.9c1.1-0.3,2.1-0.6,3.2-0.8h0.4l0.3-0.2c2,0,4,0,6,0c0.5,0.1,1.1,0.1,1.6,0.2
		c1.5,0.3,3,0.5,4.4,0.8c0.3,0.1,0.7,0.1,1,0.2c0.3,0.3,0.7,0.6,1.1,0.8c-0.3,0.5-1,0.8-0.4,1.8c1.2-0.3,2.4-0.6,3.6-0.9
		c0.5,0,1,0,1.5,0.1c3.4,1,6.8,1.2,10.2,0.3c0.9-0.2,2-0.2,3-0.2c1.4,0.3,2.8,0.5,4.2,0.8c0.5,0.1,1.1,0.1,1.6,0.2
		c1.4,0.9,2.9,0.9,4.4,0.8c0.6,0.1,1.2,0.1,1.8,0.2c2.4,1,4.9,1,7.4,0.1l0.5,0.1l0.4-0.2c2.6,0.1,5.2,0.3,7.7,0.4
		c1.7,0.1,3.2-0.2,4.4-1.4c3.4-1.6,6.8-3.1,10.2-4.7l0,0c1-0.4,1.9-0.7,2.9-1.1c1.7,0,3.3,0.1,4.9,0.1c2.2,2,5.4,1.9,8,3.1
		c0.5,0.2,1.5-0.3,2.3-0.5c0.3,0,0.6,0,0.8,0.2c0.7,0.3,1.5,0.5,2.2,0.8h0.4l0.4,0.2c0.1,2.3,0.8,2.7,3.2,1.6c0.3,0,0.6,0.1,0.9,0.2
		c1.5,1.2,3.3,1,5,1c0.7,0,1.3,0,1.9,0c1,0.3,2,0.5,3.1,0.8l0.5,0.2h0.5c1,0.3,2,0.6,3.1,0.9c0.3,0,0.7,0,1,0
		c2.2,0.4,4.3,0.1,6.3-0.8l0.4,0.1l0.4-0.1c1,0,2-0.1,3.1-0.1c0.7,0,1.3,0,1.9-0.1c4.8-1.2,9.2-3.1,13.5-5.5
		c1.4-0.5,2.9-0.9,4.1-1.7c2.4-1.5,4.9-2,7.7-1.2c2,0.6,3.9,0.6,5.9,0.1c3.5-0.8,7-0.2,10.5-0.5c3.4-0.3,6.8-1.7,10.2-2.4
		c1.4-0.3,3-0.2,4.5-0.4c4.8,0.4,9.5-0.3,14.1-1.6c3-0.7,6.1-1.3,9.1-2l0,0c4.3-0.4,8.3-2.1,12.2-3.8l0,0c3.9,0,6.6-2.2,9-4.9
		c1.1-0.3,2.2-0.7,3.3-1c3.7-0.9,5.9-3.1,6.6-6.8c0.1-0.2,0.2-0.5,0.2-0.7c0.3,0,0.6,0,0.9,0.1c0.6,0.7,1.4,1.3,2.1,0.7
		c2.4-2,5.4-2.2,8.6-2.6c0.7-1.4,2.5-2.2,3.3-3.8c-0.6-0.3-0.9-0.4-1.2-0.5c0.2-0.3,0.3-0.6,0.5-0.8c1.3-0.9,2.6-1.7,4.4-1.6
		c0.9,0.1,1.9-0.3,2.8-0.4c1.6,0.2,3.2,0.5,4.9,0.7c3.6,0.5,7.1,1,10.7,1.5l0,0c1.8,0.9,3.6,0.6,5.3,0h-0.1c2.8,0.1,5.7,0,8.5,0.2
		c2.4,0.2,4.6-0.1,6.6-1.6c2.7-2.1,5.6-1.8,8.5-0.6s5.7,2.5,8.6,3.7c0.2,1,0.4,2.1,0.6,3.3c2.2-0.1,4.2,0.1,6-0.3
		c1.3-0.3,2.5-0.6,3.8-0.3c2.3,0.4,3.7-0.7,4.7-2.6c3.1-1.3,6.2-2.6,9.3-3.9c1.7-0.6,3.4-1.2,5.1-1.9c0.3,0,0.5,0,0.7-0.2
		c2.1-0.9,4.1-1.8,6.2-2.7c2.8-1.6,5.6-3.1,8.3-4.7c0.6-0.3,1.2-0.6,1.8-0.9c0.9-0.4,1.9-0.8,2.9-1.2c0.6-0.4,1.3-0.8,1.9-1.2
		c0.4-0.2,0.8-0.5,1.1-0.7c0.6-0.4,1.3-0.7,1.9-1.1c0.4-0.6,0.8-1.2,1.2-1.8h0.5h0.5c0.6-0.4,1.2-0.8,1.9-1.3c1-0.9,2.1-1.7,3.1-2.6
		c1.1-0.1,1.8-0.7,2.1-1.6c1.3-1.1,2.6-2.1,3.9-3.2c1.1-0.2,1.9-0.7,2.1-1.8c1.2-1.3,2.5-2.7,3.7-4c2.1,0,4.2,0.1,6.3,0.2
		c1,0.9,2,0.4,3,0c0.1,0.1,0.2,0.2,0.3,0.3c0.1,0.1,0.2,0,0.4,0c-0.2-0.1-0.5-0.2-0.7-0.3c0.3-0.7,0.6-1.4,0.9-2.1l-0.1,0.1
		c1.6-0.3,3.2-0.7,4.7-1c0.6-1.4,1.1-2.8,2.8-3.2c0.5-0.1,1-0.8,1.2-1.2c0.6-1.3,1-2.7,1.4-4c0.3,0,0.7,0,1-0.1c1.2,2,3,2,5.1,1.6
		c1.6-0.3,2.8-0.8,3-2.5c2.1-1.6,4.2-3.2,6.3-4.9c2.2,0.7,3.7,0,4.8-1.9c0.2-0.2,0.5-0.4,0.9-0.4c1.3,0.9,1.7-0.1,2-1
		c1.9-1.5,3.8-3,5.7-4.4c1-0.8,2.2-1.4,3.3-2c0.7-0.4,1.4-0.8,2.1-1.2l-0.2,0.1c2,0.2,4.1,0.6,5.7-0.9c1.5-1.4,2.7-3.2,4.9-3.6
		c0.5-1.1,1.3-1.8,2.6-2c0.1,1.8,0.2,3.5,0.2,5.3c0,56.7,0,113.4,0,170.1c0,1.8-0.1,3.5-0.2,5.3C960.5,669.1,479.6,669.1-1.5,669.1
		 M820.6,594.2c-0.7,0-1.3,0-2,0c-0.6,0.4-1.2,0.8-2.5,1.7c2.1,0.1,3.3,0.2,4.5,0.3C822,595,822,594.9,820.6,594.2 M650.1,600
		c-0.3,0.1-0.5,0.2-0.8,0.3c0.3,0.2,0.5,0.5,0.8,0.8c0.4,0.2,0.8,0.4,1.2,0.6c0.1,0,0.4,0,0.4-0.1c0-0.2,0.1-0.6,0-0.7
		C651.2,600.5,650.6,600.2,650.1,600 M803.7,598.1c-4-1-4.6-0.9-7.6,1c2.9,2.3,4.9-0.3,7.2-1.1h3.5
		C806.5,596.8,805.4,596.8,803.7,598.1 M581.3,602c-2.4-0.2-3.8-0.3-5.2,0.9C578,604.1,579.2,603.4,581.3,602 M848.9,602.6
		c-1.5-0.7-2.9-0.9-5.5,0H848.9z M1235.3,565.6c0.3-0.3,0.6-0.6,0.9-0.9c-0.2-0.1-0.5-0.3-0.7-0.3c-0.3,0.1-0.5,0.3-0.8,0.5
		C1234.9,565.1,1235.1,565.3,1235.3,565.6 M316.8,560.2c0-0.1-0.1-0.3-0.1-0.3c-0.3,0-0.6,0-0.9,0c0.1,0.2,0.1,0.6,0.2,0.6
		C316.3,560.4,316.5,560.2,316.8,560.2 M583.2,601.7c0,0.1,0,0.2,0,0.4c0.2-0.1,0.4-0.1,0.6-0.2c-0.1-0.1-0.1-0.2-0.2-0.3
		C583.4,601.6,583.3,601.7,583.2,601.7 M724.4,602.5c-0.2-0.1-0.4-0.2-0.7-0.3c-0.1,0-0.4,0.2-0.3,0.2c0.1,0.2,0.2,0.4,0.4,0.6
		C724,602.8,724.2,602.7,724.4,602.5 M602.5,602.4c-0.2,0-0.5,0-0.7-0.1c0.1,0.1,0.2,0.3,0.3,0.3
		C602.2,602.6,602.4,602.4,602.5,602.4 M813.2,601c0.1,0,0.3-0.1,0.4-0.2c0-0.1-0.1-0.2-0.1-0.4c-0.1,0.1-0.3,0.1-0.4,0.2
		S813.2,600.9,813.2,601 M635.5,599.2c-0.1,0-0.2,0.1-0.4,0.1c0.2,0.1,0.3,0.2,0.5,0.3c0,0,0.1-0.2,0.2-0.3
		C635.7,599.4,635.6,599.3,635.5,599.2 M610.6,599.5c-0.2,0-0.5,0-0.7-0.1c0.1,0.1,0.2,0.3,0.3,0.3
		C610.3,599.7,610.5,599.6,610.6,599.5 M813.6,596.3c0.1-0.2,0.1-0.4,0.2-0.6c-0.1,0-0.3,0.1-0.4,0.1
		C813.5,595.9,813.5,596.1,813.6,596.3 M485.4,579.1c-0.1,0-0.3-0.1-0.5,0c-0.1,0,0,0.2,0,0.4c0.1,0,0.3,0.1,0.5,0
		C485.4,579.5,485.4,579.2,485.4,579.1 M1235.5,568.3c0.2-0.1,0.4-0.2,0.6-0.3c-0.1,0-0.3-0.2-0.4-0.1
		C1235.7,567.9,1235.6,568.1,1235.5,568.3 M391.2,568h0.4c-0.1-0.2-0.2-0.4-0.3-0.5c-0.1,0.1-0.3,0.1-0.3,0.2
		C391,567.8,391.1,567.9,391.2,568"/>
	<polyline class="st1" points="1349.6,657.6 1339,668.2 1328.4,657.6 	"/>
</g>
<path class="st2" d="M1309.6,41.4c-1.2,0-2.1,0.9-2.1,2.1s0.9,2.1,2.1,2.1s2.1-0.9,2.1-2.1S1310.7,41.4,1309.6,41.4z"/>
<path class="st2" d="M1299.3,41.4c-1.2,0-2.1,0.9-2.1,2.1s0.9,2.1,2.1,2.1s2.1-0.9,2.1-2.1S1300.4,41.4,1299.3,41.4z"/>
</svg>
