<?xml version="1.0" encoding="UTF-8"?>
<svg xmlns="http://www.w3.org/2000/svg" xmlns:xlink="http://www.w3.org/1999/xlink" viewBox="0 0 759 546">
  <defs>
    <style>
      .cls-1 {
        fill: none;
      }

      .cls-1, .cls-2, .cls-3, .cls-4, .cls-5, .cls-6, .cls-7, .cls-8 {
        stroke-width: 0px;
      }

      .cls-2 {
        fill: url(#linear-gradient);
      }

      .cls-3 {
        fill: url(#_未命名漸層_39);
      }

      .cls-4 {
        fill: url(#_未命名漸層_39-5);
      }

      .cls-5 {
        fill: url(#_未命名漸層_39-4);
      }

      .cls-6 {
        fill: url(#_未命名漸層_39-2);
      }

      .cls-7 {
        fill: url(#_未命名漸層_39-3);
      }

      .cls-9 {
        mix-blend-mode: soft-light;
      }

      .cls-10 {
        isolation: isolate;
      }

      .cls-8 {
        fill: #b3b3b3;
      }
    </style>
    <linearGradient id="linear-gradient" x1="159.18" y1="273" x2="599.82" y2="273" gradientUnits="userSpaceOnUse">
      <stop offset="0" stop-color="#2a5ca2"/>
      <stop offset="1" stop-color="#1a2a53"/>
    </linearGradient>
    <radialGradient id="_未命名漸層_39" data-name="未命名漸層 39" cx="379.5" cy="273" fx="379.5" fy="273" r="216" gradientUnits="userSpaceOnUse">
      <stop offset="0" stop-color="#e5ecf6"/>
      <stop offset="0" stop-color="#e2eaf5"/>
      <stop offset=".06" stop-color="#b6d2e8"/>
      <stop offset=".12" stop-color="#90bedc"/>
      <stop offset=".19" stop-color="#70add3"/>
      <stop offset=".25" stop-color="#58a0cc"/>
      <stop offset=".32" stop-color="#4797c7"/>
      <stop offset=".4" stop-color="#3d91c3"/>
      <stop offset=".49" stop-color="#3a90c3"/>
      <stop offset="1" stop-color="#fff"/>
    </radialGradient>
    <radialGradient id="_未命名漸層_39-2" data-name="未命名漸層 39" cx="377.18" cy="214.09" fx="377.18" fy="214.09" r="8.86" xlink:href="#_未命名漸層_39"/>
    <radialGradient id="_未命名漸層_39-3" data-name="未命名漸層 39" cx="446.23" cy="259.51" fx="446.23" fy="259.51" r="3.66" xlink:href="#_未命名漸層_39"/>
    <radialGradient id="_未命名漸層_39-4" data-name="未命名漸層 39" cx="377.18" cy="214.09" fx="377.18" fy="214.09" r="8.86" xlink:href="#_未命名漸層_39"/>
    <radialGradient id="_未命名漸層_39-5" data-name="未命名漸層 39" cx="447.03" cy="269.8" fx="447.03" fy="269.8" r="3.97" xlink:href="#_未命名漸層_39"/>
  </defs>
  <g class="cls-10">
    <g id="_圖層_1" data-name="圖層 1">
      <g>
        <g>
          <g>
            <path class="cls-1" d="m387.64,196.76c-1.78.41-1.48,2.67-1.48,2.67.23,1,.37,2.05.42,3.12-3.95-1.93-7.81-2.44-11.52-1.47-5.17,1.36-8.63,5.25-10.31,7.61-1.55-1.82-2.79-3.81-3.81-6.52-1.73-4.67-1.43-9.81-.6-15.25.25-1.66.55-3.34.84-5.05,0,0,.85-5.05.85-5.07.2-1.29-.66-2.46-1.93-2.68-1.28-.22-2.5.7-2.71,2l-.83,4.9c-1.35,7.63-2.73,15.51,0,22.85,2.41,6.49,6.05,9.69,10.64,13.74l.31.28,4.11,4.32c2.5,2.81,5.08,5.73,7.57,7.02l3.45,1.81-.03-3.96c-.03-2.99,1.49-5.05,3.27-7.42,1.19-1.6,2.42-3.26,3.27-5.32,2.2-5.33,2.76-11.02,1.58-16.02,0,0-1.3-1.96-3.09-1.55Z"/>
            <path class="cls-2" d="m592.67,304.78c-5.87-7.53-10.53-15.18-10.73-25.71-.13-7.35,1.93-15.64,3.8-23.09l-37.98,45.1-1.48-.48c-12.21-3.98-23.79,7.42-34.01,17.46-3.91,3.84-7.59,7.46-11.05,9.94-14.15,10.13-29.38,11.88-45.5,13.71l-15.69,2.1c-5.81,1.01-10.61,5.08-13.53,11.47-.55,1.2-1.94,1.72-3.12,1.17-1.17-.56-1.68-1.98-1.13-3.18,3.58-7.88,9.63-12.91,17-14.18l15.96-2.14c15.51-1.77,30.15-3.44,43.32-12.88,3.16-2.26,6.72-5.76,10.48-9.46,10.24-10.07,22.9-22.44,37.14-18.96,1.76-2.1,39.09-46.44,39.09-46.44.12-.15.29-.24.44-.35l-80.51-114.44c-12.13-1.65-27.09,5.48-35.77,12.94-5.02,4.32-10.88,9.97-17.48,10.72-6.87.79-16.24-2.52-23.14-3.6-6.84-1.07-15.42-1.2-21.42-4.22-.31-.55.15-1.46.07-2.08-.82-.38-1.89-.87-2.58-1.45.38-1.69-.53-2.91-.36-4.45-9.84-2.14-20.17-3.47-30.19-4.78,7.16-5.23,4.95-22.38,5.81-30.47,1.35-12.65,2.03-25.23,4.25-37.89-6.63,3.59-12.92,8.03-18.16,13.6-5.43,5.78-6.56,12.63-12.42,17.83-5.78,5.14-9.72,5.93-12.23,13.85-1.06,3.37-.89,6.99-1.65,10.3,6.11,2.81,11.88,8.38,12.44,14.12.84,8.7-7.4,10.9-12.85,12.35-2.37.63-5.95,1.58-6.17,2.63-.36,1.67,3.24,4.46,5.86,6.5,3.45,2.68,6.71,5.2,6.98,8.48.13,1.5.15,3.67-1.15,5.21-1.29,1.54-3.11,1.66-4.72,1.77-1.48.1-2.89.19-4.21,1.21-1.29.98-1.95,1.9-1.98,2.74-.08,2.17,3.44,5.31,6.54,8.08,4.53,4.04,9.22,8.22,8.65,13.43-.69,6.38-6.04,6.71-9.23,6.91-3.95.25-4.97.59-5.22,3.23-.48,5.04,4.72,7.54,12.12,10.51,2.38.96,4.62,1.86,6.36,2.92l1.52.93-.46,1.74c-1.45,5.55-10.51,10.09-18.71,11.71-6.38,1.26-11.34.51-14.25-1.82-5.03,1.7-21.91,6.6-27.74-1.61-5.39,1.44-8.88-3.93-10.11-5.87-.7-1.11-.39-2.59.7-3.32,1.09-.72,2.55-.4,3.25.71,2.98,4.69,4.48,4.34,6.01,3.47l2.36-1.35.98,2.55c2.34,6,16.06,3.49,24.17.5l1.63-.61,1.04,1.42c1.31,1.78,5.76,2.28,11.08,1.23,6.56-1.3,11.81-4.2,13.95-6.66-1.07-.49-2.25-.98-3.51-1.48-6.72-2.7-15.92-6.4-15.08-15.43.02-.24.05-.46.08-.69.96-6.34,6.3-6.67,9.55-6.87,3.72-.24,4.53-.58,4.79-2.33.02-.11.03-.21.04-.32.3-2.73-3.62-6.22-7.07-9.31-4.28-3.82-8.31-7.41-8.14-11.87,0-.25.03-.5.07-.75.31-2.06,1.58-3.96,3.78-5.64,2.45-1.87,4.93-2.03,6.73-2.15,0,0,1.41-.18,1.43-.07.01-.02.04-.07.07-.26.04-.25.07-.7,0-1.45-.09-1.16-3.13-3.52-5.15-5.08-3.93-3.04-8.36-6.48-7.68-10.94.02-.13.04-.26.07-.39.84-3.91,5.29-5.09,9.58-6.24,5.98-1.6,8.9-2.87,9.34-5.76.07-.46.07-.95.02-1.49-.37-3.81-5-8.06-9.69-10.22-.06.07-.09.15-.15.23-2.86-.87-5.62-1.45-7.53-1.85-.67-.14-1.34-.29-2.01-.45,4.4-12.35,6.06-27.47,3.38-39.62-3.5-15.86-19.84-25.98-35.64-26.03-13.33-.03-19.27,12.02-25.48,21.75-7.09,11.1-13.93,21.78-26.44,28.78-15.74,8.81-52.08-2.58-65.64-15.84,0,0,25.18,47.72,78.04,38.78,0,0,26.21-7.27,32.73-23.14,0,0,6.76-17.42,6.44-10.08-.28,6.15-2,17.32-4.44,26.35-.87.71-1.72,1.51-2.55,2.41-5.74.06-7.48,4.29-7.21,11.97-4.14-.39-12.21-3.38-15.85-.81-2.76,1.96-2.45,6.63-3.21,10.3-4.75-1.39-10.71,2.04-13.23,6.09-3.68,5.92-.15,9.01,2.5,14.81-13.73-.06-5.27,16.12.58,20.48-2.64,1.23-4.92,3.02-6.82,5.13,1.64,2.49,4.15,3.45,6.48,4.69-3.68,4.98-8.52,8.51-14.13,5.76-10.31-5.07-11.83-17.28-22.65-26.62-13.75-11.88-44.22-10.04-55.94,6.59,11.39-.9,23.74,1.34,35.15,10.88,0,0,10.18,7.01,13.02,25.93,1.7,11.25,18.12,23.21,34.71,21.79,12.08-1.03,25-11.83,30.98-22.01,1.76.39,3.54.72,5.23.66,4.99,14.11,19.62,34.6,25.39,38.13,9.96,6.08,21.92,8.39,32.46,12.99,6.09,2.66,12.62,3.52,19.41,4.57,2.56.4,5.54.46,8.02,1.25,3.07.98,4.72,3.19,7.24,4.13,8.72,3.24,15.72,1.78,20.78,4.6.05-.08.07-.17.14-.25.86-.99,2.35-1.08,3.31-.2,2.25,2.04,3.88,5.03,5.11,9.19,5.3,2.36,10.94,3.72,16.93,5.08,0,0,7.42,1.89,9.93,2.53.36-.56.73-1.12.73-1.12,3.01-4.66,6.47-9.79,12.11-12.11,1.61-3.72,3.01-8.24,3.8-11.36.3-1.2.52-2.05.62-2.74.25-1.7-.18-2.38-1.67-4.73,0,0-1.63-2.61-1.63-2.61-2.48-4.09-4.13-9.34-3.47-13.75.25-1.63.81-3.14,1.77-4.44,1.84-2.5,5.76-4.99,13.91-2.65l1.21.35c.02-.11.05-.21.06-.32,1.15-5.9-1.47-8.02-5.82-11.53,0,0-5.22-4.68-5.22-4.68l-.91-.97c-4.76-5.1-11.28-12.07-13.22-18.19-.99-3.12-1.24-6.66-1.46-10.08-.25-3.66-.48-7.12-1.55-9.89-1.75-4.56-7.52-10.52-12.12-14.12-1.03-.81-1.22-2.31-.43-3.36.8-1.05,2.27-1.25,3.3-.44,4.89,3.83,11.39,10.36,13.62,16.17,1.33,3.45,1.61,7.45,1.86,11.31.22,3.28.43,6.38,1.24,8.94,1.62,5.08,7.95,11.87,12.16,16.36l.91.98,4.74,4.23c4.53,3.66,9.23,7.45,7.51,16.22-.69,3.53-4.31,20.62-10.16,24.65.2.93.2,1.89.02,3.13-.13.93-.38,2.02-.72,3.37-.89,3.54-2.53,8.78-4.39,12.9l-.44.97-1,.31c-4.77,1.51-7.78,6.19-10.7,10.72l-1.69,2.58-1.01,1.34-12.91-3.29c-6.29-1.42-12.78-2.9-18.8-5.73l-1-.47-.28-1.09c-.99-3.86-2.32-6.49-4.04-8.05-.39-.35-.6-.82-.7-1.29-11.48,1.83-30.73-4.81-40.7-6.37-5.58-.87-21.35-6.39-25.45-1.46-3.14,3.8-.32,14.13.77,18.03,2.76,9.85,2.66,17.2,2.19,27.48-.45,10.03,3.09,16.7,5.86,26,2.52,8.43.55,12.23-1.44,20.46-2.17,8.97,3.02,13.56,10.14,18.1,7.33,4.69,12.5,7.53,17.32,14.17,3.92,5.41,5.41,9.87,7.45,15.4,2.9,7.89,8.19,8.28,15.53,12.31,6.44,3.54,15.96,12.35,23.24,10.08-3.64-2.58-4.54-8.09-8.03-11.46,6.29,5.74,13.7,10.09,22.22,11.41-3.99-6.53-8.44-14.07-11.37-21.35-1.18-2.97-.15-5.32-1.89-8.2-2.12-3.48-3.58-2.49-5.28-4.5-6.57-7.7-5.58-12.66-16.06-14.25-4.81-.73-12.17-.29-16.38-2.54-4.69-2.52-5.58-6.69-6.67-11.91-.71-3.39.21-5-1.1-8.56-1.77-4.78-3.9-6.13-4.19-11.59-.48-9.05-3.21-23.19,2.32-30.9,4.09,2.13,4.42,6.92,7.53,9.71,3.4,3.05,8.91,2.67,13.51,4.19,13.61,4.5,23.93,12.5,38.11,14.7l2.91.56c-1.43,9.05.45,18.71,5.76,24.3,3.6,3.79,6.83,4.44,10.56,7.06,5.76,4.07,11.03,11.13,16.63,15.75,6.53,5.39,12.62,11.36,18.12,17.94,4.41,5.29,10.3,10.03,12.46,16.23,3.69,10.57,4.77,22.39,17.31,27.07,8.59,3.21,19.01,1.48,27.78,4.21,4.65,1.44,31.28,13.4,35.38,7.17,2.95-4.48-11.74-11.68-12.47-17.38,3.31-1.23,6.94-1.19,10.46-1.02,7.04-12.04-12.62-17.55-17.96-26.06-2.83-4.51-4.67-9.63-9.41-12.54-5.39-3.33-11.47-4.26-16.9-8.08-5.58-3.92-38.98-24.23-29.84-33.12,3.93-3.81,25.56-2.66,30.9-2.46,9.98.37,17.92,7.35,28.17,6.82,2.21-.12,4.82-.82,6.91-1.4,4.64-10.08,4.63-19.41,4.84-30.3.31-15.99,13.39-14.61,24.27-21.59,5.33-3.44,11.37-4.9,14.04-10.63,3.3-7.08-1.88-14.88-6.1-20.29Zm-203.52-90.45c-.84,2.06-2.08,3.72-3.27,5.32-1.78,2.38-3.3,4.43-3.27,7.42l.03,3.96-3.45-1.81c-2.48-1.29-5.07-4.21-7.57-7.02l-4.11-4.32-.31-.28c-4.59-4.05-8.23-7.26-10.64-13.74-2.73-7.33-1.35-15.22,0-22.85l.83-4.9c.22-1.3,1.43-2.22,2.71-2,1.26.22,2.13,1.39,1.93,2.68,0,.02-.85,5.07-.85,5.07-.29,1.71-.59,3.39-.84,5.05-.82,5.43-1.13,10.58.6,15.25,1.02,2.71,2.26,4.7,3.81,6.52,1.68-2.36,5.14-6.25,10.31-7.61,3.7-.97,7.57-.45,11.52,1.47-.06-1.07-.19-2.12-.42-3.12,0,0-.3-2.26,1.48-2.67,1.79-.41,3.09,1.55,3.09,1.55,1.18,5,.62,10.69-1.58,16.02Z"/>
          </g>
          <g>
            <path class="cls-1" d="m387.64,196.76c-1.78.41-1.48,2.67-1.48,2.67.23,1,.37,2.05.42,3.12-3.95-1.93-7.81-2.44-11.52-1.47-5.17,1.36-8.63,5.25-10.31,7.61-1.55-1.82-2.79-3.81-3.81-6.52-1.73-4.67-1.43-9.81-.6-15.25.25-1.66.55-3.34.84-5.05,0,0,.85-5.05.85-5.07.2-1.29-.66-2.46-1.93-2.68-1.28-.22-2.5.7-2.71,2l-.83,4.9c-1.35,7.63-2.73,15.51,0,22.85,2.41,6.49,6.05,9.69,10.64,13.74l.31.28,4.11,4.32c2.5,2.81,5.08,5.73,7.57,7.02l3.45,1.81-.03-3.96c-.03-2.99,1.49-5.05,3.27-7.42,1.19-1.6,2.42-3.26,3.27-5.32,2.2-5.33,2.76-11.02,1.58-16.02,0,0-1.3-1.96-3.09-1.55Zm-2.83,15.72c-.61,1.51-1.62,2.85-2.68,4.28-1.3,1.74-2.69,3.64-3.51,6.02-1.16-1.14-2.38-2.5-3.53-3.78l-4.51-4.72s-.32-.28-.32-.28c-.76-.67-1.45-1.3-2.12-1.9,1.04-1.58,3.84-5.28,8.12-6.38,3.06-.79,6.4-.09,9.92,2.05-.29,1.57-.74,3.16-1.38,4.71Z"/>
            <path class="cls-1" d="m391.91,294.9c1.72,1.57,3.05,4.2,4.04,8.05l.28,1.09,1,.47c6.02,2.83,12.51,4.31,18.8,5.73l12.91,3.29,1.01-1.34,1.69-2.58c2.92-4.53,5.93-9.21,10.7-10.72l1-.31.44-.97c1.86-4.12,3.5-9.36,4.39-12.9.33-1.34.58-2.43.72-3.37.18-1.23.18-2.19-.02-3.13,5.85-4.03,9.47-21.11,10.16-24.65,1.72-8.77-2.98-12.56-7.51-16.22l-4.74-4.23-.91-.98c-4.21-4.49-10.55-11.28-12.16-16.36-.81-2.56-1.02-5.66-1.24-8.94-.26-3.86-.53-7.85-1.86-11.31-2.23-5.81-8.74-12.34-13.62-16.17-1.03-.81-2.5-.61-3.3.44-.79,1.05-.6,2.55.43,3.36,4.6,3.61,10.37,9.56,12.12,14.12,1.07,2.77,1.3,6.23,1.55,9.89.23,3.42.48,6.96,1.46,10.08,1.94,6.12,8.46,13.09,13.22,18.19l.91.97s5.22,4.68,5.22,4.68c4.35,3.51,6.98,5.63,5.82,11.53-.02.11-.04.21-.06.32l-1.21-.35c-8.15-2.34-12.07.15-13.91,2.65-.96,1.3-1.52,2.81-1.77,4.44-.66,4.41.99,9.66,3.47,13.75,0,0,1.63,2.61,1.63,2.61,1.49,2.35,1.92,3.03,1.67,4.73-.1.68-.32,1.54-.62,2.74-.79,3.13-2.19,7.64-3.8,11.36-5.63,2.31-9.1,7.44-12.11,12.11,0,0-.37.56-.73,1.12-2.5-.64-9.93-2.53-9.93-2.53-5.99-1.36-11.63-2.72-16.93-5.08-1.23-4.16-2.85-7.15-5.11-9.19-.97-.88-2.45-.79-3.31.2-.06.08-.09.17-.14.25.66.37,1.29.8,1.9,1.35-.71.21-1.47.38-2.25.5.1.48.31.94.7,1.29Zm50.6-32.51c-.17-.02-.29.11-.46.12-.04-.72-.04-1.41.05-2.03.14-.92.44-1.72.9-2.34,1.51-2.05,4.76-1.81,7.31-1.27.05.63.18,1.33.1,1.85-.14.89-.46,1.62-.96,2.18-1.24,1.36-3.77,1.9-6.93,1.48Zm2.43,8.54c-.75-1.23-1.31-2.49-1.77-3.73,3.05.21,5.71-.28,7.74-1.46-1.37,3.87-2.83,6.94-4.12,8.15-.09-.14-.16-.28-.26-.43l-1.58-2.52Z"/>
            <path class="cls-8" d="m450.4,258.71c.08-.52-.05-1.22-.1-1.85-2.55-.54-5.8-.78-7.31,1.27-.46.62-.75,1.41-.9,2.34-.09.62-.09,1.31-.05,2.03.16-.02.29-.14.46-.12,3.17.42,5.69-.12,6.93-1.48.5-.56.82-1.29.96-2.18Z"/>
            <path class="cls-8" d="m376.27,205.71c-4.27,1.1-7.08,4.8-8.12,6.38.67.61,1.37,1.23,2.12,1.9,0,0,.32.27.32.28l4.51,4.72c1.14,1.29,2.37,2.65,3.53,3.78.81-2.38,2.21-4.28,3.51-6.02,1.06-1.43,2.07-2.78,2.68-4.28.64-1.55,1.08-3.14,1.38-4.71-3.53-2.14-6.86-2.84-9.92-2.05Z"/>
            <path class="cls-8" d="m446.78,273.88c1.29-1.21,2.75-4.28,4.12-8.15-2.03,1.18-4.69,1.67-7.74,1.46.47,1.24,1.03,2.5,1.77,3.73l1.58,2.52c.1.15.18.29.26.43Z"/>
          </g>
        </g>
        <g class="cls-9">
          <g>
            <path class="cls-3" d="m592.67,304.78c-5.87-7.53-10.53-15.18-10.73-25.71-.13-7.35,1.93-15.64,3.8-23.09l-37.98,45.1-1.48-.48c-12.21-3.98-23.79,7.42-34.01,17.46-3.91,3.84-7.59,7.46-11.05,9.94-14.15,10.13-29.38,11.88-45.5,13.71l-15.69,2.1c-5.81,1.01-10.61,5.08-13.53,11.47-.55,1.2-1.94,1.72-3.12,1.17-1.17-.56-1.68-1.98-1.13-3.18,3.58-7.88,9.63-12.91,17-14.18l15.96-2.14c15.51-1.77,30.15-3.44,43.32-12.88,3.16-2.26,6.72-5.76,10.48-9.46,10.24-10.07,22.9-22.44,37.14-18.96,1.76-2.1,39.09-46.44,39.09-46.44.12-.15.29-.24.44-.35l-80.51-114.44c-12.13-1.65-27.09,5.48-35.77,12.94-5.02,4.32-10.88,9.97-17.48,10.72-6.87.79-16.24-2.52-23.14-3.6-6.84-1.07-15.42-1.2-21.42-4.22-.31-.55.15-1.46.07-2.08-.82-.38-1.89-.87-2.58-1.45.38-1.69-.53-2.91-.36-4.45-9.84-2.14-20.17-3.47-30.19-4.78,7.16-5.23,4.95-22.38,5.81-30.47,1.35-12.65,2.03-25.23,4.25-37.89-6.63,3.59-12.92,8.03-18.16,13.6-5.43,5.78-6.56,12.63-12.42,17.83-5.78,5.14-9.72,5.93-12.23,13.85-1.06,3.37-.89,6.99-1.65,10.3,6.11,2.81,11.88,8.38,12.44,14.12.84,8.7-7.4,10.9-12.85,12.35-2.37.63-5.95,1.58-6.17,2.63-.36,1.67,3.24,4.46,5.86,6.5,3.45,2.68,6.71,5.2,6.98,8.48.13,1.5.15,3.67-1.15,5.21-1.29,1.54-3.11,1.66-4.72,1.77-1.48.1-2.89.19-4.21,1.21-1.29.98-1.95,1.9-1.98,2.74-.08,2.17,3.44,5.31,6.54,8.08,4.53,4.04,9.22,8.22,8.65,13.43-.69,6.38-6.04,6.71-9.23,6.91-3.95.25-4.97.59-5.22,3.23-.48,5.04,4.72,7.54,12.12,10.51,2.38.96,4.62,1.86,6.36,2.92l1.52.93-.46,1.74c-1.45,5.55-10.51,10.09-18.71,11.71-6.38,1.26-11.34.51-14.25-1.82-5.03,1.7-21.91,6.6-27.74-1.61-5.39,1.44-8.88-3.93-10.11-5.87-.7-1.11-.39-2.59.7-3.32,1.09-.72,2.55-.4,3.25.71,2.98,4.69,4.48,4.34,6.01,3.47l2.36-1.35.98,2.55c2.34,6,16.06,3.49,24.17.5l1.63-.61,1.04,1.42c1.31,1.78,5.76,2.28,11.08,1.23,6.56-1.3,11.81-4.2,13.95-6.66-1.07-.49-2.25-.98-3.51-1.48-6.72-2.7-15.92-6.4-15.08-15.43.02-.24.05-.46.08-.69.96-6.34,6.3-6.67,9.55-6.87,3.72-.24,4.53-.58,4.79-2.33.02-.11.03-.21.04-.32.3-2.73-3.62-6.22-7.07-9.31-4.28-3.82-8.31-7.41-8.14-11.87,0-.25.03-.5.07-.75.31-2.06,1.58-3.96,3.78-5.64,2.45-1.87,4.93-2.03,6.73-2.15,0,0,1.41-.18,1.43-.07.01-.02.04-.07.07-.26.04-.25.07-.7,0-1.45-.09-1.16-3.13-3.52-5.15-5.08-3.93-3.04-8.36-6.48-7.68-10.94.02-.13.04-.26.07-.39.84-3.91,5.29-5.09,9.58-6.24,5.98-1.6,8.9-2.87,9.34-5.76.07-.46.07-.95.02-1.49-.37-3.81-5-8.06-9.69-10.22-.06.07-.09.15-.15.23-2.86-.87-5.62-1.45-7.53-1.85-.67-.14-1.34-.29-2.01-.45,4.4-12.35,6.06-27.47,3.38-39.62-3.5-15.86-19.84-25.98-35.64-26.03-13.33-.03-19.27,12.02-25.48,21.75-7.09,11.1-13.93,21.78-26.44,28.78-15.74,8.81-52.08-2.58-65.64-15.84,0,0,25.18,47.72,78.04,38.78,0,0,26.21-7.27,32.73-23.14,0,0,6.76-17.42,6.44-10.08-.28,6.15-2,17.32-4.44,26.35-.87.71-1.72,1.51-2.55,2.41-5.74.06-7.48,4.29-7.21,11.97-4.14-.39-12.21-3.38-15.85-.81-2.76,1.96-2.45,6.63-3.21,10.3-4.75-1.39-10.71,2.04-13.23,6.09-3.68,5.92-.15,9.01,2.5,14.81-13.73-.06-5.27,16.12.58,20.48-2.64,1.23-4.92,3.02-6.82,5.13,1.64,2.49,4.15,3.45,6.48,4.69-3.68,4.98-8.52,8.51-14.13,5.76-10.31-5.07-11.83-17.28-22.65-26.62-13.75-11.88-44.22-10.04-55.94,6.59,11.39-.9,23.74,1.34,35.15,10.88,0,0,10.18,7.01,13.02,25.93,1.7,11.25,18.12,23.21,34.71,21.79,12.08-1.03,25-11.83,30.98-22.01,1.76.39,3.54.72,5.23.66,4.99,14.11,19.62,34.6,25.39,38.13,9.96,6.08,21.92,8.39,32.46,12.99,6.09,2.66,12.62,3.52,19.41,4.57,2.56.4,5.54.46,8.02,1.25,3.07.98,4.72,3.19,7.24,4.13,8.72,3.24,15.72,1.78,20.78,4.6.05-.08.07-.17.14-.25.86-.99,2.35-1.08,3.31-.2,2.25,2.04,3.88,5.03,5.11,9.19,5.3,2.36,10.94,3.72,16.93,5.08,0,0,7.42,1.89,9.93,2.53.36-.56.73-1.12.73-1.12,3.01-4.66,6.47-9.79,12.11-12.11,1.61-3.72,3.01-8.24,3.8-11.36.3-1.2.52-2.05.62-2.74.25-1.7-.18-2.38-1.67-4.73,0,0-1.63-2.61-1.63-2.61-2.48-4.09-4.13-9.34-3.47-13.75.25-1.63.81-3.14,1.77-4.44,1.84-2.5,5.76-4.99,13.91-2.65l1.21.35c.02-.11.05-.21.06-.32,1.15-5.9-1.47-8.02-5.82-11.53,0,0-5.22-4.68-5.22-4.68l-.91-.97c-4.76-5.1-11.28-12.07-13.22-18.19-.99-3.12-1.24-6.66-1.46-10.08-.25-3.66-.48-7.12-1.55-9.89-1.75-4.56-7.52-10.52-12.12-14.12-1.03-.81-1.22-2.31-.43-3.36.8-1.05,2.27-1.25,3.3-.44,4.89,3.83,11.39,10.36,13.62,16.17,1.33,3.45,1.61,7.45,1.86,11.31.22,3.28.43,6.38,1.24,8.94,1.62,5.08,7.95,11.87,12.16,16.36l.91.98,4.74,4.23c4.53,3.66,9.23,7.45,7.51,16.22-.69,3.53-4.31,20.62-10.16,24.65.2.93.2,1.89.02,3.13-.13.93-.38,2.02-.72,3.37-.89,3.54-2.53,8.78-4.39,12.9l-.44.97-1,.31c-4.77,1.51-7.78,6.19-10.7,10.72l-1.69,2.58-1.01,1.34-12.91-3.29c-6.29-1.42-12.78-2.9-18.8-5.73l-1-.47-.28-1.09c-.99-3.86-2.32-6.49-4.04-8.05-.39-.35-.6-.82-.7-1.29-11.48,1.83-30.73-4.81-40.7-6.37-5.58-.87-21.35-6.39-25.45-1.46-3.14,3.8-.32,14.13.77,18.03,2.76,9.85,2.66,17.2,2.19,27.48-.45,10.03,3.09,16.7,5.86,26,2.52,8.43.55,12.23-1.44,20.46-2.17,8.97,3.02,13.56,10.14,18.1,7.33,4.69,12.5,7.53,17.32,14.17,3.92,5.41,5.41,9.87,7.45,15.4,2.9,7.89,8.19,8.28,15.53,12.31,6.44,3.54,15.96,12.35,23.24,10.08-3.64-2.58-4.54-8.09-8.03-11.46,6.29,5.74,13.7,10.09,22.22,11.41-3.99-6.53-8.44-14.07-11.37-21.35-1.18-2.97-.15-5.32-1.89-8.2-2.12-3.48-3.58-2.49-5.28-4.5-6.57-7.7-5.58-12.66-16.06-14.25-4.81-.73-12.17-.29-16.38-2.54-4.69-2.52-5.58-6.69-6.67-11.91-.71-3.39.21-5-1.1-8.56-1.77-4.78-3.9-6.13-4.19-11.59-.48-9.05-3.21-23.19,2.32-30.9,4.09,2.13,4.42,6.92,7.53,9.71,3.4,3.05,8.91,2.67,13.51,4.19,13.61,4.5,23.93,12.5,38.11,14.7l2.91.56c-1.43,9.05.45,18.71,5.76,24.3,3.6,3.79,6.83,4.44,10.56,7.06,5.76,4.07,11.03,11.13,16.63,15.75,6.53,5.39,12.62,11.36,18.12,17.94,4.41,5.29,10.3,10.03,12.46,16.23,3.69,10.57,4.77,22.39,17.31,27.07,8.59,3.21,19.01,1.48,27.78,4.21,4.65,1.44,31.28,13.4,35.38,7.17,2.95-4.48-11.74-11.68-12.47-17.38,3.31-1.23,6.94-1.19,10.46-1.02,7.04-12.04-12.62-17.55-17.96-26.06-2.83-4.51-4.67-9.63-9.41-12.54-5.39-3.33-11.47-4.26-16.9-8.08-5.58-3.92-38.98-24.23-29.84-33.12,3.93-3.81,25.56-2.66,30.9-2.46,9.98.37,17.92,7.35,28.17,6.82,2.21-.12,4.82-.82,6.91-1.4,4.64-10.08,4.63-19.41,4.84-30.3.31-15.99,13.39-14.61,24.27-21.59,5.33-3.44,11.37-4.9,14.04-10.63,3.3-7.08-1.88-14.88-6.1-20.29Zm-203.52-90.45c-.84,2.06-2.08,3.72-3.27,5.32-1.78,2.38-3.3,4.43-3.27,7.42l.03,3.96-3.45-1.81c-2.48-1.29-5.07-4.21-7.57-7.02l-4.11-4.32-.31-.28c-4.59-4.05-8.23-7.26-10.64-13.74-2.73-7.33-1.35-15.22,0-22.85l.83-4.9c.22-1.3,1.43-2.22,2.71-2,1.26.22,2.13,1.39,1.93,2.68,0,.02-.85,5.07-.85,5.07-.29,1.71-.59,3.39-.84,5.05-.82,5.43-1.13,10.58.6,15.25,1.02,2.71,2.26,4.7,3.81,6.52,1.68-2.36,5.14-6.25,10.31-7.61,3.7-.97,7.57-.45,11.52,1.47-.06-1.07-.19-2.12-.42-3.12,0,0-.3-2.26,1.48-2.67,1.79-.41,3.09,1.55,3.09,1.55,1.18,5,.62,10.69-1.58,16.02Z"/>
            <g>
              <path class="cls-6" d="m384.82,212.48c-.61,1.51-1.62,2.85-2.68,4.28-1.3,1.74-2.69,3.64-3.51,6.02-1.16-1.14-2.38-2.5-3.53-3.78l-4.51-4.72s-.32-.28-.32-.28c-.76-.67-1.45-1.3-2.12-1.9,1.04-1.58,3.84-5.28,8.12-6.38,3.06-.79,6.4-.09,9.92,2.05-.29,1.57-.74,3.16-1.38,4.71Z"/>
              <path class="cls-7" d="m450.4,258.71c.08-.52-.05-1.22-.1-1.85-2.55-.54-5.8-.78-7.31,1.27-.46.62-.75,1.41-.9,2.34-.09.62-.09,1.31-.05,2.03.16-.02.29-.14.46-.12,3.17.42,5.69-.12,6.93-1.48.5-.56.82-1.29.96-2.18Z"/>
              <path class="cls-5" d="m376.27,205.71c-4.27,1.1-7.08,4.8-8.12,6.38.67.61,1.37,1.23,2.12,1.9,0,0,.32.27.32.28l4.51,4.72c1.14,1.29,2.37,2.65,3.53,3.78.81-2.38,2.21-4.28,3.51-6.02,1.06-1.43,2.07-2.78,2.68-4.28.64-1.55,1.08-3.14,1.38-4.71-3.53-2.14-6.86-2.84-9.92-2.05Z"/>
              <path class="cls-4" d="m446.78,273.88c1.29-1.21,2.75-4.28,4.12-8.15-2.03,1.18-4.69,1.67-7.74,1.46.47,1.24,1.03,2.5,1.77,3.73l1.58,2.52c.1.15.18.29.26.43Z"/>
            </g>
          </g>
        </g>
      </g>
    </g>
  </g>
</svg>