<?xml version="1.0" encoding="utf-8"?>
<!-- Generator: Adobe Illustrator 28.0.0, SVG Export Plug-In . SVG Version: 6.00 Build 0)  -->
<svg version="1.1" id="_圖層_1" xmlns="http://www.w3.org/2000/svg" xmlns:xlink="http://www.w3.org/1999/xlink" x="0px" y="0px"
	 viewBox="0 0 48.2 48.2" style="enable-background:new 0 0 48.2 48.2;" xml:space="preserve">
<style type="text/css">
	.st0{fill:#ADACAC;}
	.st1{enable-background:new    ;}
	.st2{fill:#FFFFFF;}
</style>
<path class="st0" d="M43,24.1C43,34.5,34.5,43,24.1,43S5.2,34.5,5.2,24.1S13.7,5.2,24.1,5.2S43,13.7,43,24.1L43,24.1z"/>
<g class="st1">
	<path class="st2" d="M16.4,27.3v-0.7c0-1.3-0.2-3.1-0.7-5.4c-0.4-2.3-0.9-3.8-1.2-4.5c-0.5-1-1.4-1.5-2.5-1.5h-0.4v-1.6H13
		c1.4,0,2.3,0.5,2.8,1.6c0.6,1.3,1.2,3.4,1.7,6.4c0.7-3.3,2-6,3.7-8l2.6-0.5c0.6,1.4,1.2,3.6,1.6,6.4l0.4,2.4
		c0.1,0.8,0.2,1.4,0.2,1.8c0.2,1.4,0.4,2.5,0.6,3.2c1.3-2.4,3-3.6,5.2-3.6c1.3,0,2.5,0.5,3.4,1.4c0.9,0.9,1.4,2,1.4,3.3
		c0,1.4-0.5,2.6-1.4,3.6c-0.9,1-2.1,1.5-3.5,1.5c-1.9,0-3.5-0.7-4.9-2.2c-1,2.6-1.9,4.3-2.6,5s-2,1.1-3.7,1.1h-1.8v-1.6h0.8
		c1.7,0,2.8-0.3,3.4-1c0.6-0.7,1.4-2.4,2.4-5.3c-0.4-0.8-0.7-1.4-0.9-1.9s-0.3-1.6-0.5-3.4L23.5,20c-0.3-2.5-0.7-4.1-1.1-5.1
		c-1.1,1.3-2.1,3.1-2.9,5.3c-0.8,2.2-1.2,4.2-1.2,6v1.1H16.4z M27.3,29.3c1.4,1.6,2.8,2.3,4.3,2.3c1,0,1.8-0.3,2.4-1s1-1.5,1-2.5
		c0-0.9-0.3-1.7-0.9-2.3c-0.6-0.6-1.4-1-2.3-1C29.9,24.8,28.4,26.3,27.3,29.3z"/>
</g>
</svg>
