<?xml version="1.0" encoding="utf-8"?>
<!-- Generator: Adobe Illustrator 28.0.0, SVG Export Plug-In . SVG Version: 6.00 Build 0)  -->
<svg version="1.1" id="_圖層_1" xmlns="http://www.w3.org/2000/svg" xmlns:xlink="http://www.w3.org/1999/xlink" x="0px" y="0px"
	 viewBox="0 0 48.2 48.2" style="enable-background:new 0 0 48.2 48.2;" xml:space="preserve">
<style type="text/css">
	.st0{fill:#ADACAC;}
	.st1{enable-background:new    ;}
	.st2{fill:#FFFFFF;}
</style>
<path class="st0" d="M43,24.1C43,34.5,34.5,43,24.1,43S5.2,34.5,5.2,24.1S13.7,5.2,24.1,5.2S43,13.7,43,24.1L43,24.1z"/>
<g class="st1">
	<path class="st2" d="M21.9,23.5v1.8h-8.3v-2h5.8c-1.1-1.1-1.6-2.3-1.6-3.6c0-1.7,0.6-3.1,1.9-4.3c1.2-1.2,2.7-1.8,4.4-1.8
		c1.7,0,3.2,0.6,4.4,1.8c1.2,1.2,1.9,2.6,1.9,4.3c0,1.3-0.5,2.6-1.6,3.6h5.8v2h-8.3v-1.8c1.4-0.9,2.1-2.1,2.1-3.7
		c0-1.2-0.4-2.2-1.3-3s-1.9-1.3-3-1.3c-1.2,0-2.2,0.4-3,1.3c-0.8,0.8-1.3,1.8-1.3,3C19.8,21.3,20.5,22.5,21.9,23.5z M13.6,31.1v-2
		h21v2H13.6z"/>
</g>
</svg>
