<?xml version="1.0" encoding="utf-8"?>
<!-- Generator: Adobe Illustrator 28.0.0, SVG Export Plug-In . SVG Version: 6.00 Build 0)  -->
<svg version="1.1" id="_圖層_1" xmlns="http://www.w3.org/2000/svg" xmlns:xlink="http://www.w3.org/1999/xlink" x="0px" y="0px"
	 viewBox="0 0 48.2 48.2" style="enable-background:new 0 0 48.2 48.2;" xml:space="preserve">
<style type="text/css">
	.st0{fill:#ADACAC;}
	.st1{enable-background:new    ;}
	.st2{fill:#FFFFFF;}
</style>
<path class="st0" d="M43,24.1C43,34.5,34.5,43,24.1,43S5.2,34.5,5.2,24.1S13.7,5.2,24.1,5.2S43,13.7,43,24.1L43,24.1z"/>
<g class="st1">
	<path class="st2" d="M14.8,33.1V19.2c0-2.3-0.5-4.2-1.6-5.6h2.1c0.7,1.1,1.2,2.4,1.5,3.8c0.6-1.5,1.4-2.8,2.3-3.8l1.9-0.4
		c0.9,1,1.4,2.5,1.7,4.4c0.5-1.4,1.3-2.7,2.4-4l1.9-0.4c1,1.4,1.6,3.1,1.6,5v12.1c0,1.3,0,2.1,0.1,2.6c0.1,0.5,0.3,0.8,0.6,1.2
		c0.6,0.6,1.5,0.9,2.8,0.9h1.2v-2l3.1,2.8l-3.1,2.7v-1.9h-1.8c-1.7,0-2.9-0.4-3.7-1.3S26.5,33,26.5,31V19.3c0-2-0.3-3.4-0.9-4.3
		c-1.5,1.7-2.5,3.8-3,6.3v11.8h-2V20c0-2.4-0.3-4-0.9-5c-1.4,1.6-2.4,3.5-3,5.9v12.2H14.8z"/>
</g>
</svg>
