<?xml version="1.0" encoding="UTF-8"?>
<svg id="_圖層_1" data-name="圖層 1" xmlns="http://www.w3.org/2000/svg" viewBox="0 0 150.99 419.93">
  <defs>
    <style>
      .cls-1 {
        fill: #f7beb5;
      }

      .cls-1, .cls-2, .cls-3, .cls-4 {
        stroke-width: 0px;
      }

      .cls-2 {
        fill: #122140;
      }

      .cls-3 {
        fill: #65759f;
      }

      .cls-4 {
        fill: #ee7e73;
      }
    </style>
  </defs>
  <path class="cls-1" d="m59.59,58.15s-4.86,15.55-1.73,27l-18.68,5.18-5.83-8.64,5.72-29.26,20.52,5.72Z"/>
  <polygon class="cls-1" points="32.35 384.51 28.87 413.42 17 413.42 16.27 384.03 32.35 384.51"/>
  <path class="cls-1" d="m71.15,382.05s1.74,18.4,1.74,21.23-.87,8.8-.87,8.8l28.69.51s-12.79-6.59-14.97-10.62c-2.18-4.03-.76-20.58-.76-20.58l-13.83.65Z"/>
  <path class="cls-2" d="m85.49,195.41s2.94,39.6,3.51,99.89c.47,49.53,0,98.34,0,98.34,0,0-21.25,2.14-21.4.71-1.98-19.03-6.37-70.62-7.35-99.05l-8.98-55.52-7.37,52.17-9.74,102.17c-.09,1.61-23.25,2.76-23.25.92l3.2-89.59c0-3.05.09-6.11.28-9.15l1.06-67.58c.14-2.28.14-4.57-.02-6.86-.37-5.4-.89-16.89.41-27.23l69.64.78Z"/>
  <path class="cls-2" d="m31.52,419.49l-16.37.44c-.49.01-.88-.43-.87-.96l.2-7.33s1.18-7.07,8.26-7.4c7.08-.32,9.12,7.13,9.12,7.13l.48,7.12c.04.53-.34.99-.83,1Z"/>
  <path class="cls-1" d="m150.89,16.2l-.43.54c-.57.92-3.38,4.25-5.58,6.59-1.39,1.48-2.59,3.12-3.58,4.89l-1.74,3.1-11.1,22.18-11.46-9.39,11.39-16.89c2.3-3,4.39-5.81,5.32-9.97,0,0,.46-2.94.86-5.04.22-1.17.78-2.26,1.59-3.13l3.66-3.89c.61-.69,2.13-.27,1.81,1.05,0,0-1.49,2.87-1.04,2.33l1.23-1.53,5.07-6.58c.34-.44.95-.56,1.43-.28.53.31.71.99.4,1.52l-4.76,7.99c.07.05.34-.39.34-.39.84-1.12,3.34.79,2.73,1.59l-.29.38c.07.06.2-.17.2-.17.59-.66,2.75,1.44,2.25,2.01,0,0-.8,1.02-.76.99l.74-.79c.87-.62,2.24,1.79,1.74,2.91Z"/>
  <path class="cls-3" d="m3.06,95.91c1.39-5.75,4.32-10.69,9.66-13.24,11.16-5.33,21.58-5.85,21.58-5.85,0,0,6.09,6.47,22.58,1.98,0,0,30.17-8.02,37.39-12.6,3.44-2.18,6.37-5.07,8.6-8.48l25.77-33.99c7.27,1.92,8.42,2.23,13.45,7.38l-19.65,42.82c-3.7,6.65-8.98,12.29-15.38,16.41l-27.33,21.11c1.8,20.3,8.28,84.92,8.28,84.92.62,3.1-.33,6.31-2.55,8.56-9.21,9.34-35.3,12.86-67.68,9.07-2.51-.29-4.3-2.57-3.98-5.07,4.82-37.55,3.94-48.38,2.38-59.15-3.76,5.07-7.4,5.02-10.08,3.73-2.63-1.27-4.39-3.84-4.76-6.74-1.08-8.51-3.06-31.09,1.72-50.85Z"/>
  <path class="cls-1" d="m27.47,33.75l32.14-10.25s3.08,5.27,6.1,12.18c.38.88.97,1.65,1.71,2.25l4.85,3.92c.16.13.3.27.41.44.64,1.01.18,2.29-.87,2.69l-2.3.88c3.38,11.23,3.51,22.38-9.6,21.92-26.12-.92-27.13.52-27.13.52l-5.32-34.56Z"/>
  <path class="cls-2" d="m62.3,14.51c-1.37-.23-2.92-.03-4.6.95-16.87-1.41-27.07,3.49-28.83,7.01-1.76,3.52-19.32,9.51-7.27,29.14,3.88,6.84,8.78,14.65,9.23,17.64.22,1.46,1.37,2.6,2.83,2.81.86.12,1.87.26,2.91.37,3.22.36,6.07-2.07,6.22-5.31.33-7.06,1.34-10.03,2.7-11.03,1.67-1.23,5.92-3.81,5.15-8.4-.78-4.59,2.62-6.79,2.62-11.07,0-8.66,7.72-7.66,11.99-11.8,3.54-3.43,1.91-9.49-2.95-10.32Z"/>
  <path class="cls-1" d="m45.86,51.85c1.5,3.41,4.56,5.36,6.84,4.36,2.28-1,2.91-4.58,1.41-7.99-1.5-3.41-4.56-5.37-6.84-4.36-2.28,1-2.91,4.58-1.41,7.99Z"/>
  <path class="cls-2" d="m16.34,149.98c-.26,0-.47-.2-.48-.46-.33-7.56-3.59-40.88-3.62-41.22-.03-.26.17-.5.43-.52.26-.03.5.17.52.43.03.34,3.29,33.68,3.62,41.27.01.26-.19.49-.46.5,0,0-.01,0-.02,0Z"/>
  <path class="cls-4" d="m57.47,68.19c-3.25-.57-6.93-1.73-6.96-1.74-.25-.08-.39-.35-.31-.6.08-.25.35-.39.6-.31.04.01,3.65,1.15,6.76,1.7.26.05.44.29.39.56-.04.23-.24.4-.47.4Z"/>
  <path class="cls-4" d="m48.44,52.64c-.12,0-.24-.04-.33-.13-1.56-1.48-2.29-2.97-2.19-4.43.13-1.88,1.62-2.97,1.68-3.01.22-.16.52-.11.67.11.15.22.11.51-.11.67-.02.02-1.19.89-1.28,2.31-.08,1.16.56,2.39,1.9,3.66.19.18.2.49.02.68-.09.1-.22.15-.35.15Z"/>
  <path class="cls-2" d="m70.07,116.49c-.19,0-.36-.11-.44-.29-.1-.24,0-.53.25-.63,2.31-.98,8.51-3.7,9.55-4.51.21-.16.51-.12.67.09s.12.51-.09.67c-1.35,1.04-9.42,4.48-9.76,4.63-.06.03-.12.04-.19.04Z"/>
  <path class="cls-2" d="m71.93,406.06c.14-1.01,1.03-1.75,2.04-1.69,1.5.08,3.58.5,4.33,2.1,1.23,2.61,5.63,3.18,8.82,2.45,1.63-.38,2.52-1.2,2.99-1.92.42-.64,1.26-.85,1.92-.47l9.66,5.49c2.98,1.69,5.42,4.2,7.02,7.22l.37.69h-36.97s-.84-9.15-.19-13.87Z"/>
</svg>