<?xml version="1.0" encoding="utf-8"?>
<!-- Generator: Adobe Illustrator 28.0.0, SVG Export Plug-In . SVG Version: 6.00 Build 0)  -->
<svg version="1.1" id="圖層_1" xmlns="http://www.w3.org/2000/svg" xmlns:xlink="http://www.w3.org/1999/xlink" x="0px" y="0px"
	 viewBox="0 0 1440 816.9" style="enable-background:new 0 0 1440 816.9;" xml:space="preserve">
<style type="text/css">
	.st0{fill:url(#SVGID_1_);}
	.st1{fill:url(#SVGID_00000124139984965915760450000008737407450243098033_);}
	.st2{fill:url(#SVGID_00000062876296536859744060000004536310578340281261_);}
	.st3{fill:none;}
	.st4{clip-path:url(#SVGID_00000114784750395526518390000009452416786558758571_);}
	.st5{fill:url(#SVGID_00000111880954126451143720000012309212569840353978_);}
	.st6{opacity:0.83;}
	.st7{fill:url(#SVGID_00000027580031335201666820000012070178733821661867_);}
	.st8{fill:url(#SVGID_00000124875748238355144020000000672148828613356731_);}
	.st9{fill:#080D27;}
	.st10{fill:#FFFFFF;}
	.st11{fill:url(#SVGID_00000108273852363762997130000004518077156962556607_);}
	.st12{fill:#869AC5;}
	.st13{fill:#A8B8DD;}
	.st14{fill:#5B73A5;}
	.st15{clip-path:url(#SVGID_00000122706879402435032710000005416764906382498492_);}
	.st16{fill:url(#SVGID_00000149367722656171245600000002473234046354572418_);}
	.st17{fill:url(#SVGID_00000076566335079757342510000012942078933474822844_);}
	.st18{fill:url(#SVGID_00000169545451334833308660000012897042729734373051_);}
	.st19{fill:url(#SVGID_00000110443314848212894220000003712436244460478597_);}
	.st20{opacity:0.1;fill:url(#XMLID_00000001653627452456029820000017023170076710058115_);}
	.st21{opacity:0.1;fill:#F6E380;}
	.st22{fill:#F6E380;}
	.st23{fill:#FBF0C2;}
</style>
<g>
	<g id="_圖層_1">
		
			<radialGradient id="SVGID_1_" cx="-300.3488" cy="113.8865" r="1257.61" gradientTransform="matrix(1.03 0 0 -0.9 1034 923.8308)" gradientUnits="userSpaceOnUse">
			<stop  offset="0" style="stop-color:#384B9E"/>
			<stop  offset="1" style="stop-color:#0C1431"/>
		</radialGradient>
		<rect x="-22.8" y="4.7" class="st0" width="1413" height="821.3"/>
		
			<radialGradient id="SVGID_00000023990318356996044560000018003304172725457596_" cx="-276.4659" cy="109.5166" r="1257.61" gradientTransform="matrix(1.09 0 0 -0.93 1061.4 931.0875)" gradientUnits="userSpaceOnUse">
			<stop  offset="0" style="stop-color:#384B9E"/>
			<stop  offset="1" style="stop-color:#0C1431"/>
		</radialGradient>
		
			<rect x="-21.3" y="-13.6" style="fill:url(#SVGID_00000023990318356996044560000018003304172725457596_);" width="1482.6" height="844"/>
		
			<radialGradient id="SVGID_00000053512810504106810550000003157184788738249863_" cx="720" cy="394.1206" r="590.4511" gradientTransform="matrix(1 0 0 -1.09 0 836.21)" gradientUnits="userSpaceOnUse">
			<stop  offset="0" style="stop-color:#2D55A5"/>
			<stop  offset="0.18" style="stop-color:#284C95"/>
			<stop  offset="0.54" style="stop-color:#1D366D"/>
			<stop  offset="1" style="stop-color:#0C1431"/>
		</radialGradient>
		<path style="fill:url(#SVGID_00000053512810504106810550000003157184788738249863_);" d="M-18,829L-20.5-8.3l1481-5.7v843H-18z"/>
		<path class="st3" d="M1.3,827.6L-1.2,4.5l1440-5.6v828.7L1.3,827.6L1.3,827.6z"/>
		<g>
			<defs>
				<rect id="SVGID_00000138567927410402532630000014638247933743117219_" x="-359" y="240" width="599.9" height="462.4"/>
			</defs>
			<clipPath id="SVGID_00000114781146629182233310000001701909605760453012_">
				<use xlink:href="#SVGID_00000138567927410402532630000014638247933743117219_"  style="overflow:visible;"/>
			</clipPath>
			<g style="clip-path:url(#SVGID_00000114781146629182233310000001701909605760453012_);">
				
					<radialGradient id="SVGID_00000092422843780655571110000006228432621774725541_" cx="-1034.9252" cy="844.9011" r="910.0897" gradientTransform="matrix(1.0345 0 0 0.8401 1074.288 68.8805)" gradientUnits="userSpaceOnUse">
					<stop  offset="0" style="stop-color:#374A9C"/>
					<stop  offset="1" style="stop-color:#0B1430"/>
				</radialGradient>
				
					<rect x="-536.2" y="227.3" style="fill:url(#SVGID_00000092422843780655571110000006228432621774725541_);" width="1022.5" height="553.6"/>
				<g class="st6">
					
						<image style="overflow:visible;" width="499" height="350" xlink:href="1BD7BD6B158FD120.png"  transform="matrix(1 0 0 1 -298 248.89)">
					</image>
				</g>
				
					<radialGradient id="SVGID_00000147192335248237248730000001639413885010847918_" cx="-1009.0327" cy="152.2117" r="910.09" gradientTransform="matrix(1.03 0 0 -0.84 1034 905.3875)" gradientUnits="userSpaceOnUse">
					<stop  offset="0" style="stop-color:#384B9E"/>
					<stop  offset="1" style="stop-color:#0C1431"/>
				</radialGradient>
				
					<rect x="-549.4" y="226.3" style="fill:url(#SVGID_00000147192335248237248730000001639413885010847918_);" width="1022.5" height="553.6"/>
				<g class="st6">
					
						<image style="overflow:visible;enable-background:new    ;" width="2072" height="1456" xlink:href="1BD7BD6B158FD121.png"  transform="matrix(0.2402 0 0 0.2402 -310.4679 247.9054)">
					</image>
				</g>
				<g>
					
						<linearGradient id="SVGID_00000119076650720938311810000008154784609950386106_" gradientUnits="userSpaceOnUse" x1="56.2139" y1="411.1055" x2="30.0639" y2="249.8655" gradientTransform="matrix(1 0 0 -1 0 817.8898)">
						<stop  offset="0" style="stop-color:#0C0E27"/>
						<stop  offset="1" style="stop-color:#1A2651"/>
					</linearGradient>
					<polygon style="fill:url(#SVGID_00000119076650720938311810000008154784609950386106_);" points="319.1,452.3 276.5,452.3 
						235.9,493 167.7,522.8 118.8,522.8 60.3,555.8 -6,555.8 -56.4,555.8 -121,573.4 -193,614.9 -288.6,659.4 319.1,659.4 					"/>
					<g>
						<rect x="158.1" y="492.9" class="st9" width="37.9" height="106.6"/>
						<rect x="162.3" y="476.4" class="st9" width="29.5" height="16.9"/>
						<rect x="153.2" y="491.4" class="st9" width="47.6" height="3.7"/>
						<polygon class="st9" points="195.9,463.4 177.7,450.2 177.7,417.4 176.3,417.4 176.3,450.3 158.1,463.4 						"/>
						<g>
							<polygon class="st10" points="191.8,476.4 162.3,476.4 158.1,463.4 196,463.4 							"/>
							<g>
								
									<image style="overflow:visible;enable-background:new    ;" width="459" height="355" xlink:href="1BD7BD6B158FD122.png"  transform="matrix(0.24 0 0 0.24 122.0121 427.354)">
								</image>
							</g>
						</g>
						<g>
							<rect x="155.1" y="480.4" class="st9" width="44" height="0.9"/>
							<g>
								<rect x="155.7" y="480.9" class="st9" width="1.1" height="11.8"/>
								<rect x="166.1" y="480.9" class="st9" width="1.1" height="11.8"/>
								<rect x="176.5" y="480.9" class="st9" width="1.1" height="11.8"/>
								<rect x="186.9" y="480.9" class="st9" width="1.1" height="11.8"/>
								<rect x="197.3" y="480.9" class="st9" width="1.1" height="11.8"/>
							</g>
						</g>
					</g>
					
						<radialGradient id="SVGID_00000166655267956914220210000006257712373413558407_" cx="-64.1595" cy="-707.1653" r="422.42" gradientTransform="matrix(1.15 0 0 -2.57 86.62 -1208.3531)" gradientUnits="userSpaceOnUse">
						<stop  offset="0" style="stop-color:#384B9E"/>
						<stop  offset="1" style="stop-color:#0C1431"/>
					</radialGradient>
					
						<rect x="-457.8" y="606.5" style="fill:url(#SVGID_00000166655267956914220210000006257712373413558407_);" width="776.9" height="86"/>
					<polygon class="st9" points="319.1,553.8 280.8,536.3 244.5,569.2 206,581 189.6,573.3 151.4,574.3 101.9,594.9 58,637.4 
						-7.2,659.6 -96.9,683.2 -143,692.4 319.1,692.4 					"/>
				</g>
				<g>
					<polygon class="st12" points="221.6,260.5 221.6,682 221.5,682 240.7,702.5 240.7,240 221.5,260.5 					"/>
					<polygon class="st13" points="-359.1,702.6 240.7,702.6 240.7,702.5 221.5,682 -338.8,680.8 -359.1,702.5 					"/>
					<polygon class="st14" points="-340,260.5 221.5,260.5 240.7,240 240.7,239.9 -359.1,239.9 -359.1,239.9 -338.8,261.7 					"/>
				</g>
			</g>
		</g>
		<g>
			<defs>
				<rect id="SVGID_00000162316056291099708940000011672786657176936069_" x="1178.2" y="240" width="599.9" height="462.4"/>
			</defs>
			<clipPath id="SVGID_00000137126668988100317960000012862937264896285839_">
				<use xlink:href="#SVGID_00000162316056291099708940000011672786657176936069_"  style="overflow:visible;"/>
			</clipPath>
			<g style="clip-path:url(#SVGID_00000137126668988100317960000012862937264896285839_);">
				
					<radialGradient id="SVGID_00000029760182330022904220000013191210986325777051_" cx="450.944" cy="844.9011" r="910.0897" gradientTransform="matrix(1.0345 0 0 0.8401 1074.288 68.8805)" gradientUnits="userSpaceOnUse">
					<stop  offset="0" style="stop-color:#374A9C"/>
					<stop  offset="1" style="stop-color:#0B1430"/>
				</radialGradient>
				
					<rect x="1001" y="227.3" style="fill:url(#SVGID_00000029760182330022904220000013191210986325777051_);" width="1022.5" height="553.6"/>
				<g class="st6">
					
						<image style="overflow:visible;" width="499" height="350" xlink:href="1BD7BD6B158FD127.png"  transform="matrix(1 0 0 1 1239 248.89)">
					</image>
				</g>
				
					<radialGradient id="SVGID_00000062170975877155004920000004231389495189222035_" cx="483.3884" cy="152.2117" r="910.09" gradientTransform="matrix(1.03 0 0 -0.84 1034 905.3875)" gradientUnits="userSpaceOnUse">
					<stop  offset="0" style="stop-color:#384B9E"/>
					<stop  offset="1" style="stop-color:#0C1431"/>
				</radialGradient>
				
					<rect x="987.8" y="226.3" style="fill:url(#SVGID_00000062170975877155004920000004231389495189222035_);" width="1022.5" height="553.6"/>
				<g class="st6">
					
						<image style="overflow:visible;enable-background:new    ;" width="2072" height="1456" xlink:href="1BD7BD6B158FD12C.png"  transform="matrix(0.2402 0 0 0.2402 1226.7257 247.9054)">
					</image>
				</g>
				<g>
					
						<linearGradient id="SVGID_00000107560862430501435810000001162764509240904848_" gradientUnits="userSpaceOnUse" x1="1593.4075" y1="411.1055" x2="1567.2574" y2="249.8655" gradientTransform="matrix(1 0 0 -1 0 817.8898)">
						<stop  offset="0" style="stop-color:#0C0E27"/>
						<stop  offset="1" style="stop-color:#1A2651"/>
					</linearGradient>
					<polygon style="fill:url(#SVGID_00000107560862430501435810000001162764509240904848_);" points="1856.3,452.3 1813.7,452.3 
						1773.1,493 1704.9,522.8 1656,522.8 1597.5,555.8 1531.1,555.8 1480.8,555.8 1416.1,573.4 1344.2,614.9 1248.6,659.4 
						1856.3,659.4 					"/>
					<g>
						<rect x="1695.3" y="492.9" class="st9" width="37.9" height="106.6"/>
						<rect x="1699.5" y="476.4" class="st9" width="29.5" height="16.9"/>
						<rect x="1690.4" y="491.4" class="st9" width="47.6" height="3.7"/>
						<polygon class="st9" points="1733.1,463.4 1714.9,450.2 1714.9,417.4 1713.5,417.4 1713.5,450.3 1695.3,463.4 						"/>
						<g>
							<polygon class="st10" points="1729,476.4 1699.5,476.4 1695.3,463.4 1733.2,463.4 							"/>
							<g>
								
									<image style="overflow:visible;enable-background:new    ;" width="459" height="355" xlink:href="1BD7BD6B158FD12D.png"  transform="matrix(0.24 0 0 0.24 1659.2057 427.354)">
								</image>
							</g>
						</g>
						<g>
							<rect x="1692.2" y="480.4" class="st9" width="44" height="0.9"/>
							<g>
								<rect x="1692.8" y="480.9" class="st9" width="1.1" height="11.8"/>
								<rect x="1703.3" y="480.9" class="st9" width="1.1" height="11.8"/>
								<rect x="1713.7" y="480.9" class="st9" width="1.1" height="11.8"/>
								<rect x="1724.1" y="480.9" class="st9" width="1.1" height="11.8"/>
								<rect x="1734.5" y="480.9" class="st9" width="1.1" height="11.8"/>
							</g>
						</g>
					</g>
					
						<radialGradient id="SVGID_00000089562357159373306770000008732443723849645958_" cx="1272.5306" cy="-707.1653" r="422.42" gradientTransform="matrix(1.15 0 0 -2.57 86.62 -1208.3531)" gradientUnits="userSpaceOnUse">
						<stop  offset="0" style="stop-color:#384B9E"/>
						<stop  offset="1" style="stop-color:#0C1431"/>
					</radialGradient>
					
						<rect x="1079.4" y="606.5" style="fill:url(#SVGID_00000089562357159373306770000008732443723849645958_);" width="776.9" height="86"/>
					<polygon class="st9" points="1856.3,553.8 1818,536.3 1781.7,569.2 1743.1,581 1726.8,573.3 1688.6,574.3 1639.1,594.9 
						1595.2,637.4 1530,659.6 1440.3,683.2 1394.2,692.4 1856.3,692.4 					"/>
				</g>
				<g>
					<polygon class="st12" points="1758.8,260.5 1758.8,682 1758.7,682 1777.9,702.5 1777.9,240 1758.7,260.5 					"/>
					<polygon class="st12" points="1197.2,682 1197.2,260.5 1197.3,260.5 1178.1,240 1178.1,702.5 1197.3,682 					"/>
					<polygon class="st13" points="1178.1,702.6 1777.9,702.6 1777.9,702.5 1758.7,682 1198.4,680.8 1178.1,702.5 					"/>
					<polygon class="st14" points="1197.2,260.5 1758.7,260.5 1777.9,240 1777.9,239.9 1178.1,239.9 1178.1,239.9 1198.4,261.7 
											"/>
				</g>
			</g>
		</g>
		
			<image style="overflow:visible;" width="1165" height="1926" xlink:href="1BD7BD6B158FD12E.png"  transform="matrix(0.2405 0 0 0.2414 1177.5586 237.77)">
		</image>
		
			<image style="overflow:visible;" width="1165" height="1926" xlink:href="1BD7BD6B158FD12F.png"  transform="matrix(-0.24 0 0 -0.2413 241.1093 704.4305)">
		</image>
		<g id="XMLID_00000001652573319837647030000005411607185930023043_">
			<g id="XMLID_00000161628292450318293150000012745577554323428534_">
				<g id="XMLID_00000055678910689481702740000011917823189282514571_">
					
						<linearGradient id="XMLID_00000061465953651312582750000002442742654450873750_" gradientUnits="userSpaceOnUse" x1="1668.0873" y1="465.9036" x2="1883.8331" y2="461.4089" gradientTransform="matrix(1.5845 -1.145828e-02 -0.537 1.0978 -69.7638 234.1607)">
						<stop  offset="0" style="stop-color:#F4EC4C"/>
						<stop  offset="1" style="stop-color:#F4EC4C;stop-opacity:0"/>
					</linearGradient>
					
						<path id="XMLID_00000160191465631229374560000008187597022107528612_" style="opacity:0.1;fill:url(#XMLID_00000061465953651312582750000002442742654450873750_);" d="
						M2648.2,659.6c-0.1,2.2-2.6,4.5-8.2,6.2c-59.8,18.7-119.1,39.1-177.4,61.7c-28.9,11.2-57.5,22.9-85.8,35.3
						c-11.6,5.1-23.2,9.8-33.8,16c-11,6.4-21.1,11.7-34.1,13.7c-26.1,4.1-51.4-4.6-48.1-28.7c2.9-21.6,37.8-33,58.8-39.6
						c30.2-9.5,59.9-21.1,90.7-30.1c68.9-20,139.6-36.1,209.9-39.2c6.3-0.3,16-2.9,21.7-1C2645.9,655.4,2648.2,657.5,2648.2,659.6z"
						/>
				</g>
				
					<ellipse id="XMLID_00000065037625122560082600000016357453378757007269_" transform="matrix(0.1197 -0.9928 0.9928 0.1197 1260.5715 2953.6082)" class="st21" cx="2295.9" cy="765.9" rx="40.9" ry="40.9"/>
			</g>
			
				<ellipse id="XMLID_00000104708526707580189500000008899561252787996048_" transform="matrix(0.1197 -0.9928 0.9928 0.1197 1260.5717 2953.6082)" class="st21" cx="2295.9" cy="765.9" rx="33.2" ry="33.2"/>
			<g id="XMLID_00000047023685970236752330000013184818400052817852_">
				<polygon id="XMLID_00000150080938044816403880000010498699138286092172_" class="st22" points="2287.9,742 2298.7,754.9 
					2315.5,753.3 2306.6,767.6 2313.3,783.1 2297,779 2284.3,790.2 2283.1,773.4 2268.6,764.8 2284.2,758.5 				"/>
				<polygon id="XMLID_00000098185164743891077950000002560376891480009379_" class="st23" points="2289.7,749.5 2296.9,758.1 
					2308.1,757 2302.2,766.5 2306.6,776.8 2295.8,774.1 2287.4,781.5 2286.6,770.3 2276.9,764.7 2287.3,760.4 				"/>
			</g>
		</g>
	</g>
</g>
</svg>
