<?xml version="1.0" encoding="utf-8"?>
<!-- Generator: Adobe Illustrator 28.0.0, SVG Export Plug-In . SVG Version: 6.00 Build 0)  -->
<svg version="1.1" id="圖層_1" xmlns="http://www.w3.org/2000/svg" xmlns:xlink="http://www.w3.org/1999/xlink" x="0px" y="0px"
	 viewBox="0 0 599.9 462.4" style="enable-background:new 0 0 599.9 462.4;" xml:space="preserve">
<style type="text/css">
	.st0{clip-path:url(#SVGID_00000070083071386324541390000017835518440160085945_);}
	.st1{fill:url(#SVGID_00000061467815385570889280000004036879115505963961_);}
	.st2{opacity:0.83;}
	.st3{fill:url(#SVGID_00000057857550784899247380000007528538167094736792_);}
	.st4{fill:url(#SVGID_00000032615912163281287300000003027141248057456297_);}
	.st5{fill:#080D27;}
	.st6{fill:#FFFFFF;}
	.st7{fill:url(#SVGID_00000098201092212035135350000006737308835937367218_);}
	.st8{opacity:0.1;fill:url(#SVGID_00000090998694502529248170000002829265019703096728_);enable-background:new    ;}
	.st9{opacity:0.1;fill:#F7E481;enable-background:new    ;}
	.st10{fill:#F7E481;}
	.st11{fill:#FCF2C3;}
	.st12{fill:#869AC5;}
	.st13{fill:#A8B8DD;}
	.st14{fill:#5B73A5;}
</style>
<g>
	<g id="_圖層_1">
		<g>
			<defs>
				<rect id="SVGID_1_" y="0" width="599.9" height="462.4"/>
			</defs>
			<clipPath id="SVGID_00000139293761143669830280000012083592613907838357_">
				<use xlink:href="#SVGID_1_"  style="overflow:visible;"/>
			</clipPath>
			<g style="clip-path:url(#SVGID_00000139293761143669830280000012083592613907838357_);">
				
					<radialGradient id="SVGID_00000092421569326381575180000009269149638600333977_" cx="-780.4918" cy="2.7193" r="910.09" gradientTransform="matrix(1.03 0 0 -0.84 1156.9199 539.8875)" gradientUnits="userSpaceOnUse">
					<stop  offset="0" style="stop-color:#384B9E"/>
					<stop  offset="1" style="stop-color:#0C1431"/>
				</radialGradient>
				
					<rect x="-190.4" y="-13.7" style="fill:url(#SVGID_00000092421569326381575180000009269149638600333977_);" width="1022.5" height="553.6"/>
				<g class="st2">
					
						<image style="overflow:visible;enable-background:new    ;" width="2072" height="1456" xlink:href="8FAFD1657B9B04E1.png"  transform="matrix(0.2402 0 0 0.2402 48.58 7.9414)">
					</image>
				</g>
				<g>
					
						<linearGradient id="SVGID_00000004511681511831023210000000093644444191653249_" gradientUnits="userSpaceOnUse" x1="-96.77" y1="112.8448" x2="48.37" y2="112.8448" gradientTransform="matrix(1 0 0 -1 0 461.8898)">
						<stop  offset="0" style="stop-color:#0C0E27"/>
						<stop  offset="1" style="stop-color:#1A2651"/>
					</linearGradient>
					<polygon style="fill:url(#SVGID_00000004511681511831023210000000093644444191653249_);" points="144.9,382.9 92.3,349.1 
						57.1,349.1 3.5,336.8 -23.5,310.7 -73.5,328.2 -98.8,296.4 -98.8,401.7 					"/>
					
						<linearGradient id="SVGID_00000023249564204876837570000003763103579288892032_" gradientUnits="userSpaceOnUse" x1="415.2014" y1="295.0712" x2="389.0614" y2="133.8312" gradientTransform="matrix(1 0 0 -1 0 461.8898)">
						<stop  offset="0" style="stop-color:#0C0E27"/>
						<stop  offset="1" style="stop-color:#1A2651"/>
					</linearGradient>
					<polygon style="fill:url(#SVGID_00000023249564204876837570000003763103579288892032_);" points="678.1,212.3 635.5,212.3 
						595,253.1 526.7,282.8 477.8,282.8 419.3,315.9 353,315.9 302.6,315.9 238,333.5 166,374.9 70.4,419.4 678.1,419.4 					"/>
					<g>
						<rect x="517.1" y="252.9" class="st5" width="37.9" height="106.6"/>
						<rect x="521.3" y="236.4" class="st5" width="29.5" height="16.9"/>
						<rect x="512.2" y="251.5" class="st5" width="47.6" height="3.7"/>
						<polygon class="st5" points="554.9,223.4 536.7,210.2 536.7,177.4 535.3,177.4 535.3,210.3 517.1,223.4 						"/>
						<g>
							<polygon class="st6" points="550.8,236.4 521.3,236.4 517.1,223.4 555,223.4 							"/>
							<g>
								
									<image style="overflow:visible;enable-background:new    ;" width="459" height="355" xlink:href="8FAFD1657B9B04E3.png"  transform="matrix(0.24 0 0 0.24 481.06 187.39)">
								</image>
							</g>
						</g>
						<g>
							<rect x="514" y="240.4" class="st5" width="44" height="0.9"/>
							<g>
								<rect x="514.7" y="240.9" class="st5" width="1.1" height="11.8"/>
								<rect x="525.1" y="240.9" class="st5" width="1.1" height="11.8"/>
								<rect x="535.5" y="240.9" class="st5" width="1.1" height="11.8"/>
								<rect x="545.9" y="240.9" class="st5" width="1.1" height="11.8"/>
								<rect x="556.3" y="240.9" class="st5" width="1.1" height="11.8"/>
							</g>
						</g>
					</g>
					
						<radialGradient id="SVGID_00000000935002513585910280000003052591582811038338_" cx="-214.3791" cy="-715.8901" r="422.42" gradientTransform="matrix(1.15 0 0 -2.57 617.78 -1471.3832)" gradientUnits="userSpaceOnUse">
						<stop  offset="0" style="stop-color:#384B9E"/>
						<stop  offset="1" style="stop-color:#0C1431"/>
					</radialGradient>
					
						<rect x="-98.8" y="366.5" style="fill:url(#SVGID_00000000935002513585910280000003052591582811038338_);" width="776.9" height="86"/>
					<polygon class="st5" points="678.1,313.8 639.8,296.4 603.5,329.2 565,341 548.6,333.3 510.4,334.4 460.9,354.9 417,397.4 
						351.8,419.6 262.1,443.2 216,452.5 678.1,452.5 					"/>
				</g>
				<g>
					<g>
						
							<linearGradient id="SVGID_00000067220637937625545040000005161548162092709820_" gradientUnits="userSpaceOnUse" x1="-895.9387" y1="472.0715" x2="-680.1987" y2="476.5615" gradientTransform="matrix(1.58 -1.130615e-02 0.5356 -1.0939 1360.1233 660.4393)">
							<stop  offset="0" style="stop-color:#F5ED4D"/>
							<stop  offset="1" style="stop-color:#F5ED4D;stop-opacity:0"/>
						</linearGradient>
						
							<path style="opacity:0.1;fill:url(#SVGID_00000067220637937625545040000005161548162092709820_);enable-background:new    ;" d="
							M518.2,87.3c-0.1,2.2-2.6,4.5-8.2,6.2c-59.8,18.7-119.1,39.1-177.4,61.7c-28.9,11.2-57.5,22.9-85.8,35.3
							c-11.6,5.1-23.2,9.8-33.8,16c-11,6.4-21.1,11.7-34.1,13.7c-26.1,4.1-51.4-4.6-48.1-28.7c2.9-21.6,37.8-33,58.8-39.6
							c30.2-9.4,59.9-21.1,90.7-30.1c68.9-20,139.6-36.1,209.9-39.2c6.3-0.3,16-2.9,21.7-1C516,83.2,518.3,85.2,518.2,87.3
							L518.2,87.3z"/>
						<circle class="st9" cx="166" cy="193.7" r="40.9"/>
					</g>
					<circle class="st9" cx="166" cy="193.7" r="33.2"/>
					<g>
						<polygon class="st10" points="157.9,169.8 168.8,182.7 185.6,181.1 176.6,195.4 183.4,210.8 167,206.8 154.4,218 153.2,201.1 
							138.7,192.6 154.3,186.3 						"/>
						<polygon class="st11" points="159.8,177.3 167,185.9 178.1,184.8 172.2,194.3 176.7,204.6 165.8,201.9 157.4,209.3 
							156.6,198.1 146.9,192.4 157.4,188.2 						"/>
					</g>
				</g>
				<g>
					<polygon class="st12" points="580.6,20.5 580.6,442 580.5,442 599.8,462.5 599.8,0 580.5,20.5 					"/>
					<polygon class="st13" points="-0.1,462.6 599.8,462.6 599.8,462.5 580.5,442 20.2,440.8 -0.1,462.6 					"/>
					<polygon class="st14" points="19,20.5 580.5,20.5 599.8,0 599.8,-0.1 -0.1,-0.1 -0.1,-0.1 20.2,21.7 					"/>
					<polygon class="st12" points="19.2,442 20.2,440.8 20.2,21.7 -0.1,-0.1 -0.1,462.6 					"/>
				</g>
			</g>
		</g>
	</g>
</g>
</svg>
