<?xml version="1.0" encoding="UTF-8"?>
<svg id="_圖層_1" data-name="圖層 1" xmlns="http://www.w3.org/2000/svg" viewBox="0 0 129.59 391.3">
  <defs>
    <style>
      .cls-1 {
        fill: #f7beb5;
      }

      .cls-1, .cls-2, .cls-3, .cls-4, .cls-5 {
        stroke-width: 0px;
      }

      .cls-2 {
        fill: #3c4d6b;
      }

      .cls-3 {
        fill: #122140;
      }

      .cls-4 {
        fill: #b2daf4;
      }

      .cls-5 {
        fill: #65759f;
      }
    </style>
  </defs>
  <path class="cls-1" d="m46.45,31.04c.45,3.48-.78,6.51-2.75,6.77-1.97.26-3.94-2.36-4.4-5.84-.45-3.48.78-6.51,2.75-6.77,1.97-.26,3.94,2.36,4.4,5.84Z"/>
  <path class="cls-1" d="m77.43,28.93c-.45,3.48.78,6.51,2.75,6.77,1.97.26,3.94-2.36,4.4-5.84.45-3.48-.78-6.51-2.75-6.77-1.97-.26-3.94,2.36-4.4,5.84Z"/>
  <path class="cls-1" d="m52.17,41.03c-.22,6.59-1.44,19.41-1.44,19.41h21.56l-1.92-19.89-18.21.48Z"/>
  <path class="cls-1" d="m7.67,179.17l-5.13,20.76c-.1.38-.14.78-.14,1.17v9.68c0,1.67.36,3.31,1.05,4.83l2.83,6.23.5.63c.52.67,1.44.88,2.2.51.86-.42,1.24-1.45.86-2.32l-2.16-5.01-.62-8.98,1.82-3.2,2.04,8.3c.18.73.89,1.2,1.63,1.06.68-.12,1.17-.71,1.17-1.4v-10.54l-1.6-9.78,8.18-17.42-12.62,5.48Z"/>
  <path class="cls-5" d="m32.61,63.77l-1.7.7c-6.42,2.66-10.93,8.53-11.85,15.42l-7.88,58.96L0,193.19c4.63,3.02,10.1,4.32,16.14,4.45l16.47-59.9,8.68-41.78-8.68-32.2Z"/>
  <path class="cls-5" d="m75.65,54.18c-4.09-.64-14.45-1.85-25.93-.04-1.24.2-2.18,1.23-2.25,2.48-.17,3.39.14,3.39.14,3.39l-2.91.59c-7.75,1.57-8.81,1.6-15.8,4.78l1.74,34.76,7.01,52.29,55.01-.03,3.85-37.91,9.53,10.7-14.92,35.46,8.54,19.7,28.11-49.66c2.28-4.64,2.41-10.05.39-14.81-7.69-18.08-14.99-30.84-30.26-47.2-3.19-3.41-7.43-5.66-12.05-6.35l-7.08-1.06-.94-4.99c-.21-1.1-1.08-1.94-2.19-2.12Z"/>
  <path class="cls-3" d="m96.51,114.97c-.31-.03-.5-.26-.47-.52l1.94-17.3c.03-.26.26-.44.52-.41.26.03.44.26.41.52l-1.94,17.3c-.03.24-.23.42-.47.42Z"/>
  <path class="cls-3" d="m106.61,125.67c-.17,0-.34-.09-.42-.26-.12-.23-.02-.51.21-.63l6.5-3.28c.23-.12.51-.02.63.21.12.23.02.51-.21.63l-6.5,3.28c-.07.03-.14.05-.21.05Z"/>
  <path class="cls-3" d="m63.98.17c-4.22-.51-8.52.16-12.32,2.05-6.06,3.02-12.54,9.82-9.94,25.16,4.24,25.01,15.47,23.53,18.87,23.53,6.36,0,21.2,0,21.62-23.53.39-21.63-5.85-25.7-18.22-27.21Z"/>
  <polygon class="cls-1" points="36.68 308.91 38.47 378.52 50.87 378.52 55.9 309.04 36.68 308.91"/>
  <polygon class="cls-1" points="88.06 308.91 86.27 378.52 73.87 378.52 68.84 309.04 88.06 308.91"/>
  <path class="cls-3" d="m90.24,391.3h-20.44l3.82-16.21s1.71-3.81,6.82-3.6c5.11.21,6.39,4.47,6.39,4.47l3.41,15.33Z"/>
  <path class="cls-4" d="m91.44,148.6s9.83,11.68,15.36,52.16c4.44,43.94,15.23,143.92,15.94,159.35.31,6.82-117.24,5.39-117.33-1.71-.24-18.72,13.9-145.87,15.79-161.03,4.06-33.91,17.69-48.77,17.69-48.77h52.55Z"/>
  <path class="cls-3" d="m63.85,205.95c-6.41,0-13.57-.71-20.64-2.83-.25-.07-.39-.34-.31-.58.07-.25.34-.39.58-.31,20.84,6.25,42.5.06,42.72,0,.25-.07.51.07.58.32.07.25-.07.51-.32.58-.15.04-9.89,2.82-22.61,2.82Z"/>
  <polygon class="cls-2" points="93.39 145.66 94.19 153.18 36.04 152.42 36.64 144.85 93.39 145.66"/>
  <path class="cls-3" d="m34.48,129.22c-.24,0-.45-.19-.47-.43l-2.54-33.89c-.02-.26.17-.48.43-.5.26-.02.48.17.5.43l2.54,33.89c.02.26-.17.48-.43.5-.01,0-.02,0-.04,0Z"/>
  <path class="cls-3" d="m34.5,391.3h20.44l-3.82-16.21s-1.71-3.81-6.82-3.6c-5.11.21-6.39,4.47-6.39,4.47l-3.41,15.33Z"/>
  <path class="cls-3" d="m66.78,22.97s12.94,20.14,8.62,46.61c-4.31,26.47-15.64,38.26-15.6,43.99.03,5.73-5.56-33.39-3.16-45.3,2.4-11.91,2.13-44.07,2.13-44.07l8.02-1.23Z"/>
</svg>