<?xml version="1.0" encoding="UTF-8"?>
<svg id="_圖層_1" data-name="圖層 1" xmlns="http://www.w3.org/2000/svg" viewBox="0 0 334 69">
  <defs>
    <style>
      .cls-1 {
        fill: #f7e481;
        stroke-width: 0px;
      }
    </style>
  </defs>
  <path class="cls-1" d="m104.27,27.38c.16-.02.26,0,.29-.03.62-.95,1.63-.86,2.57-.97.4-.05.64.16.85.47.47.71.53,1.45.26,2.24-.3.87-.7,1.72-.87,2.62-.31,1.62-.62,3.28-.33,4.93.24,1.38,1.21,2.33,2.31,3.12,1.13.82,2.43,1.27,3.81,1.2.78-.04,1.59-.34,2.29-.7,1.04-.54,2-1.25,3.02-1.9-.76-2.52-.59-4.95-.12-7.37.35-1.77,1.09-3.33,2.82-4.2.27-.14.57-.26.86-.31,1.86-.32,3.57-.2,5.01,1.28.81.83.76,1.82.94,2.79.23,1.2-.27,2.3-.58,3.43-.41,1.51-1.62,2.52-2.35,3.83-.24.43-.72.73-1.17,1.17.36.29.62.61.95.74.89.34,1.75.73,2.75.83,2.28.21,4.51-.09,6.76-.3,1.71-.16,3.41-.38,5.13-.41.69-.01,1.38-.19,2.07-.22,1.19-.04,2.39-.09,3.58-.01,1.23.08,2.45.29,3.68.46.13.02.25.11.4.17-.08.81-.72,1.16-1.25,1.48-1.2.73-2.38,1.55-3.77,1.93-.36.1-.73.18-1.09.25-1.4.26-2.79.52-4.19.75-1.13.19-2.27.34-3.41.49-.23.03-.47-.02-.71-.03-.2-.01-.44-.11-.6-.04-.91.4-1.88.18-2.82.29-.96.11-1.95.29-2.89.16-1.31-.18-2.65-.03-3.94-.61-1.26-.57-2.46-1.18-3.52-2.05-.44-.36-.71-.47-1.24-.05-.81.64-1.73,1.18-2.65,1.65-.74.38-1.57.58-2.42.62-.07,0-.16-.04-.2,0-.77.53-1.61.31-2.46.29-.8-.02-1.54-.12-2.3-.37-1.69-.55-3.13-1.51-4.51-2.76-.15.25-.28.43-.36.64-.19.49-.3,1.02-.55,1.47-.23.41-.51.76-1.18.6-.55-.13-1.17.05-1.7.09-.86-.83-1.19-1.79-1.27-2.88-.03-.4-.19-.79-.26-1.19-.44-2.79-.18-5.56.08-8.34.12-1.27.24-2.54.37-3.86-.19.05-.35.04-.37.1-.52,1.14-1.01,2.3-1.55,3.43-.28.59-.64,1.15-.97,1.72-.79,1.37-1.53,2.77-2.38,4.1-.62.96-1.51,1.76-2.04,2.77-.63,1.21-1.82,1.81-2.65,2.78-.29.34-.83.47-1.21.76-.99.75-2.3.16-3.32.93-.63-.71-1.63-.51-2.33-1.12-1.36-1.18-2.15-2.62-2.35-4.4-.04-.33-.05-.67-.09-1.25-.45.55-.77.9-1.05,1.28-.73.99-1.49,1.96-2.16,3-1.02,1.59-2.61,2.57-3.99,3.76-.31.26-.73.45-1.28.36-.59-.09-1.23.21-1.86.26-1.42.12-2.58-.57-3.18-1.89-.6-1.33-.76-2.68-.55-4.17.33-2.39.95-4.7,1.97-6.85,1.4-2.94,3.37-5.46,6.66-6.5,1.06-.33,2.2-.42,3.33-.23,1.21.21,2.4.4,3.49,1.08.48.3,1.2.32,1.8.28.44-.03.6.09.83.41.24.32.61.54,1,.86-.22,1.6-.62,3.21-.6,4.82.02,1.53-.05,3.12.56,4.61.26.64.65.88,1.18.48.92-.68,1.87-1.38,2.62-2.24,1.01-1.16,1.9-2.43,2.72-3.73,1.16-1.86,2.25-3.76,3.3-5.69,1.15-2.12,2.22-4.28,3.31-6.44.72-1.44,1.41-2.9,2.12-4.34.15-.32.31-.63.49-.93.52-.85,1.54-1.24,2.46-.85.53.23.99.63.95,1.35-.07,1.25-.06,2.5-.17,3.75-.15,1.64-.51,3.26-.53,4.92,0,.5-.15,1-.23,1.52Zm-33.23,15.88c.64-.38,1.11-.55,1.44-.88.84-.83,1.7-1.67,2.41-2.61,1.83-2.39,3.59-4.82,5.36-7.25.53-.73,1-1.51,1.5-2.26-.59-.56-1.3-.44-1.94-.55-1.72-.31-3.28.04-4.62,1.18-1.48,1.25-2.46,2.84-3.12,4.64-.21.58-.29,1.21-.52,1.79-.59,1.52-.73,3.1-.77,4.7,0,.32.13.65.25,1.23Zm51.04-8.74c.34-.43.6-.67.76-.97.43-.79.87-1.59,1.21-2.42.23-.58-.07-.92-.7-1.01-.51-.07-.73.22-.93.65-.54,1.15-.52,2.34-.34,3.76Z"/>
  <path class="cls-1" d="m270.93,46.48c-.21-.78-.94-.95-1.44-1.35-.94-.75-2.09-1.15-3.12-1.77-1.37-.83-2.52-1.89-3.28-3.31-.61-1.15-.56-2.32-.16-3.54.38-1.13,1.03-2.06,1.83-2.92,1.71-1.83,3.59-3.43,5.89-4.49.44-.2.92-.34,1.39-.48.53-.16,1.07-.17,1.47.27.44.49.16.99-.12,1.46-.08.14-.22.25-.37.4-.23-.15-.43-.27-.73-.46-1.21,1.22-2.45,2.4-3.6,3.67-.67.74-1.21,1.61-1.74,2.46-.49.78-.19,1.81.62,2.27,1.33.75,2.68,1.45,4.01,2.2.82.46,1.54,1.04,2.19,1.76.81.89.91,1.04,1.89.23,2.05-1.7,4.12-3.38,6.12-5.15,2.59-2.3,5.14-4.64,7.67-7.02,1.5-1.42,2.91-2.93,4.37-4.4.25-.25.57-.44.75-.72.57-.91,1.52-.68,2.33-.8.48-.07.81.43.95.93.35,1.21-.46,2.05-.88,3.01-.44.99-.99,1.93-1.42,2.93-.43,1.02-.79,2.07-1.13,3.12-.37,1.15-.68,2.32-1.01,3.48-.14.52-.26,1.04-.45,1.84.44-.32.68-.49.9-.67,1.08-.88,2.31-1.34,3.7-1.16.45.06.99.28,1.28.61.69.79,1.2,1.7,1.43,2.76.11.53.37,1.04.47,1.57.13.7.53,1.11,1.19,1.39,1.42-.28,2.62-1.17,3.92-1.83,1.69-.87,3.2-2.08,5.05-2.63,1.71-.51,3.41-1.06,5.11-1.58.15-.05.33,0,.53,0,.1.49-.21.76-.45,1.04-.78.9-1.51,1.84-2.37,2.66-1.21,1.16-2.25,2.5-3.66,3.44-1.26.84-2.51,1.72-3.85,2.41-.44.22-.95.45-1.43.65-.47.19-.9.3-1.4.27-.55-.03-1.12.01-1.67.09-1.34.18-2.41-.4-3.33-1.26-1.03-.97-1.88-2.06-1.97-3.58-.02-.34-.33-.66-.58-1.1-.47.54-.92,1.01-1.31,1.53-.97,1.29-1.92,2.59-2.87,3.9-.78,1.07-1.99,1.27-3.15,1.56-.09.02-.21-.03-.3-.08-.76-.47-1.39-1.88-1.19-2.76.38-1.74.74-3.48,1.21-5.2.6-2.19,1.3-4.34,1.95-6.52.07-.24.1-.5-.02-.82-1.16,1.15-2.31,2.32-3.5,3.44-.79.74-1.67,1.39-2.49,2.1-.87.75-1.68,1.56-2.56,2.29-1.81,1.52-3.65,2.99-5.46,4.52-.2.17-.34.51-.37.78-.06.46-.04.92-.51,1.19-.06.03-.13.1-.13.15-.04.9-.72,1.29-1.36,1.71-.66.44-1.31.88-1.97,1.3-.37.24-.79.62-1.17.59-.7-.05-1.18.71-1.9.39-.11-.05-.27.02-.41.03-1.05.09-1.7-.48-1.75-1.54-.06-1.31.71-2.17,1.59-2.95.89-.78,1.83-1.5,2.82-2.3Z"/>
  <path class="cls-1" d="m51.26,32.19c-1.09-.08-1.61.75-2.36,1.15-.86.46-1.51,1.17-2.18,1.88-.72.76-1.33,1.65-2.12,2.31-.55.46-.73,1.11-1.22,1.6-1.35,1.36-2.35,3.02-3.78,4.32-.28.25-.5.61-.83.76-.47.22-.9.59-1.55.33-.45-.18-1.03-.05-1.54-.09-.22-.02-.53-.04-.63-.18-.5-.73-1.18-1.37-1.23-2.34-.02-.39-.04-.77-.04-1.16,0-1.81.13-3.63-.03-5.42-.15-1.66-.27-3.35-.84-4.95-.1-.29-.27-.55-.41-.84-1.04.27-1.74.93-2.42,1.53-.78.68-1.42,1.53-2.08,2.35-.85,1.06-1.7,2.12-2.46,3.24-.67.98-1.25,2.03-1.82,3.08-1.15,2.09-2.25,4.19-3.4,6.28-.28.52-.64,1.01-1.01,1.47-.31.39-.94.49-1.33.29-.45-.23-.64-.67-.43-1.26.28-.79.63-1.56.98-2.33.94-2.07,1.79-4.2,2.88-6.19,1.44-2.64,2.91-5.29,4.89-7.58,1.09-1.27,2.27-2.48,3.65-3.46,1.18-.84,2.47-1.11,3.87-.78.81.19,1.38.79,1.87,1.41.36.46.69,1,.84,1.56.44,1.55.85,3.12,1.14,4.71.22,1.22.23,2.48.35,3.88.28-.26.46-.39.6-.55.87-1.07,1.72-2.16,2.61-3.22.45-.54.93-1.05,1.43-1.53,1.87-1.78,3.73-3.59,6.11-4.7.46-.21.99-.31,1.5-.38.58-.08,1.17-.14,1.75-.11.98.06,1.79.36,2.58,1.11.92.88,1.55,1.8,1.92,2.99.14.44.52.78.58,1.31.14,1.26.21,2.55.56,3.76.4,1.39.28,2.8.38,4.18.09,1.24.29,2.54-.22,3.78-.14.35-.08.78-.08,1.18,0,1.07-.79,1.9-.92,2.93-.03.2-.09.41-.06.6.08.55-.21.7-.67.68-.51-.02-.99-.16-1.29-.6-.43-.64-.93-1.26-1.2-1.96-.49-1.25-.97-2.49-.93-3.92.04-1.55-.23-3.1-.35-4.66-.05-.69-.1-1.38-.11-2.07,0-1.29-.37-2.51-.66-3.74-.05-.23-.2-.45-.29-.66Z"/>
  <path class="cls-1" d="m222.19,38.33c-.87.63-1.18,1.48-2.01,1.71-.28.87-1.09,1.3-1.65,1.94-.33.38-.81.63-1.22.95-.13.1-.3.19-.37.33-.59,1.09-1.66,1.32-2.74,1.51-.39.07-.81,0-1.21,0-1.21,0-2.57-1.02-3.08-2.27-.63-1.52-.32-3,.15-4.47.96-2.93,2.29-5.7,3.63-8.47.18-.37.45-.71.74-1.01.47-.48.93-.5,1.52-.19.35.18.55.43.44.84-.21.81-.42,1.61-.64,2.42-.19.71-.39,1.41-.6,2.11-.45,1.52-.94,3.04-1.36,4.57-.17.61-.33,1.26-.2,2.17.55-.45.95-.71,1.28-1.04,1.55-1.52,3.05-3.1,4.65-4.58.94-.87,2.03-1.58,3.05-2.37.06-.04.11-.09.17-.12.77-.36,2.89.09,3.33.83.34.57.58,1.27.65,1.94.11,1.1.15,2.21-.14,3.31-.1.39.01.84-.02,1.25-.03.45-.12.89-.2,1.47.27-.18.5-.27.63-.43.72-.89,1.42-1.8,2.12-2.71.88-1.13,1.77-2.26,2.63-3.41.67-.89,1.33-1.78,1.95-2.7.72-1.06,1.81-1.26,2.95-1.28.59-.01.91.47.97,1.12.14,1.62-.49,2.99-1.4,4.26-.78,1.09-1.7,2.07-2.22,3.33-.14.34-.47.59-.72.88-1.23,1.46-2.18,3.17-3.65,4.41-.77.65-1.39,1.62-2.62,1.52-.12,0-.26.1-.36.19-.22.21-.36.38-.69.08-.14-.12-.53.02-.8.06-1.07.16-1.87-.28-2.34-1.26-.2-.43-.54-.8-.67-1.25-.39-1.29-.24-2.61-.12-3.93.05-.51.09-1.02.15-1.75Z"/>
  <path class="cls-1" d="m182.59,37.99c-.56.8-.95,1.47-1.45,2.04-.95,1.08-1.88,2.21-3.28,2.76-.18.07-.33.22-.5.33-.17.11-.34.3-.53.32-1.45.18-2.92.7-4.37.12-.57-.23-1.16-.55-1.6-.98-1.49-1.49-2.14-3.34-1.85-5.43.53-3.84,2.18-7.14,4.98-9.83.81-.78,1.73-1.37,2.84-1.75.95-.32,1.83-.63,2.83-.4.21.05.4.12.61.17.37.1.55.38.47.71-.07.27-.25.58-.47.73-.25.16-.6.17-.91.24-.73.17-1.36.47-1.95.96-1.27,1.08-2.31,2.37-3.05,3.82-.86,1.67-1.69,3.41-1.7,5.39,0,.69.13,1.32.55,1.87.57.75,1.38.95,2.25.61.94-.36,1.61-1.03,2.31-1.73,1.91-1.9,3.1-4.23,4.05-6.69.27-.71.35-1.5.45-2.25.11-.84.51-1.53,1.01-2.17.32-.41.7-.71,1.26-.39.09.05.21.03.31.06,1.26.32,1.19.33,1.29,1.7.05.59-.12,1.08-.18,1.62-.11,1.05-.29,2.1.09,3.18.36,1.01.42,2.13.71,3.17.13.48.53.87.74,1.33.49,1.15,1.06,2.25,1.77,3.27.48.68,1.02,1.32,1.5,2,.55.76,1.07,1.54,1.6,2.31.3.43.58.87.89,1.28.28.38.27.68-.16.81-.82.25-1.65.38-2.54.41-1.39.05-2.45-.6-3.4-1.36-.77-.62-1.37-1.49-1.94-2.32-1.18-1.74-1.91-3.71-2.65-5.93Z"/>
  <path class="cls-1" d="m252.01,30.01c.42.07.92-.16,1.22.37.33.57.27,1.13.04,1.72-.29.76-.54,1.54-.85,2.3-.48,1.17-.99,2.32-1.47,3.48-.15.37-.23.76-.35,1.14-.2.62-.43,1.23-.6,1.85-.47,1.69-.95,3.39-1.37,5.1-.16.66-.18,1.35-.82,1.8-.14.1-.19.36-.25.56-.23.72-.49.89-1.21.78-1.33-.2-2.31-1.21-2.3-2.57,0-1.98.08-3.95,1.11-5.75.34-.6.45-1.33.76-1.96.94-1.94,1.9-3.88,2.91-5.78.44-.83,1.03-1.58,1.57-2.35.39-.54.89-.87,1.61-.69Z"/>
  <path class="cls-1" d="m259.38,20.52c-.36.36-.45.81-.3,1.39.08.3-.21.69-.33,1.05-.43,1.33-1.52,1.56-2.71,1.56-.41,0-.8.33-1.27-.1-.65-.61-1.42-1.1-1.59-2.04-.14-.78-.07-1.61.23-2.3.26-.6.79-1.19,1.35-1.53.46-.28,1.09-.66,1.74-.27.03.02.06.05.1.04,1.52-.14,2.29.74,2.78,2.21Z"/>
</svg>