<svg width="115" height="129" viewBox="0 0 115 129" fill="none" xmlns="http://www.w3.org/2000/svg">
<path d="M102.2 49.465L94.4727 54.315L76.2909 20.85L84.0181 16L102.2 49.465ZM47.2 44.615L60.8363 69.835L88.5636 52.86L74.9272 27.64L47.2 44.615ZM54.4727 67.895L45.3818 50.92L25.8363 63.045L34.9272 80.02L54.4727 67.895ZM12.2 77.11L16.7454 85.355L28.5636 78.08L24.0181 69.835L12.2 77.11ZM57.6545 74.2L56.2909 72.26L36.7454 84.385L38.109 86.325C39.0181 87.78 40.3818 89.235 41.7454 90.205L34.4727 113H43.5636L49.9272 92.145H50.3818L57.1999 113H66.2909L57.6545 85.84C59.9272 82.445 59.9272 78.08 57.6545 74.2Z" fill="#28294F"/>
</svg>
