<svg width="93" height="129" viewBox="0 0 93 129" fill="none" xmlns="http://www.w3.org/2000/svg">
<path d="M63.2 31.0208V26.2381C63.2 23.7012 62.3044 21.2681 60.7104 19.4743C59.1163 17.6804 56.9543 16.6726 54.7 16.6726H37.7C35.4456 16.6726 33.2836 17.6804 31.6895 19.4743C30.0955 21.2681 29.2 23.7012 29.2 26.2381V31.0208C24.6913 31.0208 20.3673 33.0364 17.1791 36.6241C13.991 40.2119 12.2 45.0779 12.2 50.1518V102.762C12.2 105.299 13.0955 107.732 14.6895 109.526C16.2836 111.32 18.4456 112.327 20.7 112.327H71.7C73.9543 112.327 76.1163 111.32 77.7104 109.526C79.3044 107.732 80.2 105.299 80.2 102.762V50.1518C80.2 45.0779 78.4089 40.2119 75.2208 36.6241C72.0326 33.0364 67.7086 31.0208 63.2 31.0208ZM37.7 26.2381H54.7V31.0208H37.7V26.2381ZM46.2 50.1518L54.7 59.7172L46.2 69.2827L37.7 59.7172L46.2 50.1518ZM71.7 83.6309H33.45V93.1964H29.2V83.6309H20.7V78.8482H71.7V83.6309Z" fill="#28294F"/>
</svg>
