<svg width="121" height="129" viewBox="0 0 121 129" fill="none" xmlns="http://www.w3.org/2000/svg">
<path d="M89.8831 65.7471L96.5645 94.9857L71.2933 79.4657L46.0221 94.9857L52.6581 65.7471L30.3867 46.0238L59.794 43.5295L71.2933 16L82.7926 43.5295L112.2 46.0238L89.8831 65.7471ZM16.7511 68.7957C17.6147 68.7957 18.4783 68.5186 19.251 68.0105L33.7955 58.2643L26.6596 51.9824L14.2513 60.2967C12.1559 61.6824 11.5741 64.5 12.9332 66.8095C13.8422 68.0567 15.2967 68.7957 16.7511 68.7957ZM12.9332 110.921C13.8422 112.261 15.2967 113 16.7511 113C17.6147 113 18.4783 112.769 19.251 112.261L37.9317 99.7433L39.477 93.4152L40.886 86.7176L14.2513 104.501C12.1559 105.933 11.5741 108.797 12.9332 110.921ZM14.2513 82.4219C13.2475 83.0919 12.5454 84.1384 12.2984 85.3327C12.0515 86.5271 12.2797 87.7723 12.9332 88.7962C13.8422 90.1819 15.2967 90.8747 16.7511 90.8747C17.6147 90.8747 18.4783 90.6438 19.251 90.1357L43.8858 73.7381L45.113 68.2414L40.9315 64.5L14.2513 82.4219Z" fill="#28294F"/>
</svg>
