<svg width="160" height="160" viewBox="0 0 160 160" fill="none" xmlns="http://www.w3.org/2000/svg">
<path d="M68.2867 108.761L40 80.4673L49.4267 71.0407L68.2867 89.894L105.993 52.1807L115.427 61.614L68.2867 108.761Z" fill="#9187B9"/>
<path fill-rule="evenodd" clip-rule="evenodd" d="M6.66797 80.0003C6.66797 39.5003 39.5013 6.66699 80.0013 6.66699C120.501 6.66699 153.335 39.5003 153.335 80.0003C153.335 120.5 120.501 153.334 80.0013 153.334C39.5013 153.334 6.66797 120.5 6.66797 80.0003ZM80.0013 140C72.122 140 64.3198 138.448 57.0403 135.433C49.7608 132.418 43.1464 127.998 37.5749 122.427C32.0034 116.855 27.5838 110.241 24.5685 102.961C21.5532 95.6818 20.0013 87.8796 20.0013 80.0003C20.0013 72.121 21.5532 64.3188 24.5685 57.0393C27.5838 49.7598 32.0034 43.1454 37.5749 37.5739C43.1464 32.0024 49.7608 27.5828 57.0403 24.5676C64.3198 21.5523 72.122 20.0003 80.0013 20.0003C95.9143 20.0003 111.176 26.3217 122.428 37.5739C133.68 48.8261 140.001 64.0873 140.001 80.0003C140.001 95.9133 133.68 111.175 122.428 122.427C111.176 133.679 95.9143 140 80.0013 140Z" fill="#9187B9"/>
</svg>
