<svg width="300" height="300" viewBox="0 0 300 300" fill="none" xmlns="http://www.w3.org/2000/svg">
<path fill-rule="evenodd" clip-rule="evenodd" d="M235.638 80.6351C236.707 79.5675 237.555 78.2997 238.134 76.9043C238.713 75.5088 239.012 74.013 239.013 72.5022C239.014 70.9914 238.717 69.4952 238.14 68.099C237.562 66.7028 236.716 65.4341 235.648 64.3651C234.58 63.2961 233.313 62.4479 231.917 61.8689C230.522 61.2899 229.026 60.9914 227.515 60.9905C226.004 60.9895 224.508 61.2862 223.112 61.8635C221.716 62.4408 220.447 63.2874 219.378 64.3551L149.998 133.735L80.638 64.3551C78.4792 62.1962 75.5511 60.9834 72.498 60.9834C69.4449 60.9834 66.5169 62.1962 64.358 64.3551C62.1992 66.514 60.9863 69.442 60.9863 72.4951C60.9863 75.5482 62.1992 78.4762 64.358 80.6351L133.738 149.995L64.358 219.355C63.2891 220.424 62.4411 221.693 61.8626 223.09C61.2841 224.486 60.9863 225.983 60.9863 227.495C60.9863 229.007 61.2841 230.504 61.8626 231.9C62.4411 233.297 63.2891 234.566 64.358 235.635C66.5169 237.794 69.4449 239.007 72.498 239.007C74.0098 239.007 75.5067 238.709 76.9034 238.13C78.3 237.552 79.5691 236.704 80.638 235.635L149.998 166.255L219.378 235.635C221.537 237.791 224.464 239.002 227.515 239C230.566 238.998 233.492 237.784 235.648 235.625C237.804 233.466 239.015 230.539 239.013 227.488C239.011 224.437 237.797 221.511 235.638 219.355L166.258 149.995L235.638 80.6351Z" fill="black"/>
</svg>
