<svg width="36" height="36" viewBox="0 0 36 36" fill="none" xmlns="http://www.w3.org/2000/svg">
<path d="M19.5001 30.0001C19.8979 30.0001 20.2794 30.1581 20.5607 30.4394C20.842 30.7207 21.0001 31.1023 21.0001 31.5001C21.0001 31.8979 20.842 32.2794 20.5607 32.5607C20.2794 32.842 19.8979 33.0001 19.5001 33.0001C19.1022 33.0001 18.7207 32.842 18.4394 32.5607C18.1581 32.2794 18.0001 31.8979 18.0001 31.5001C18.0001 31.1023 18.1581 30.7207 18.4394 30.4394C18.7207 30.1581 19.1022 30.0001 19.5001 30.0001ZM14.2501 28.5001C14.6479 28.5001 15.0294 28.6581 15.3107 28.9394C15.592 29.2207 15.7501 29.6023 15.7501 30.0001C15.7501 30.3979 15.592 30.7794 15.3107 31.0607C15.0294 31.342 14.6479 31.5001 14.2501 31.5001C13.8522 31.5001 13.4707 31.342 13.1894 31.0607C12.9081 30.7794 12.7501 30.3979 12.7501 30.0001C12.7501 29.6023 12.9081 29.2207 13.1894 28.9394C13.4707 28.6581 13.8522 28.5001 14.2501 28.5001ZM24.7501 28.5001C25.1479 28.5001 25.5294 28.6581 25.8107 28.9394C26.092 29.2207 26.2501 29.6023 26.2501 30.0001C26.2501 30.3979 26.092 30.7794 25.8107 31.0607C25.5294 31.342 25.1479 31.5001 24.7501 31.5001C24.3522 31.5001 23.9707 31.342 23.6894 31.0607C23.4081 30.7794 23.2501 30.3979 23.2501 30.0001C23.2501 29.6023 23.4081 29.2207 23.6894 28.9394C23.9707 28.6581 24.3522 28.5001 24.7501 28.5001ZM19.5031 9.01358C24.2551 9.01358 26.9521 12.1591 27.3436 15.9586H27.4636C28.19 15.9576 28.9094 16.0997 29.5809 16.3768C30.2524 16.654 30.8627 17.0606 31.3769 17.5737C31.8912 18.0867 32.2994 18.696 32.5781 19.3668C32.8569 20.0376 33.0008 20.7567 33.0016 21.4831C33.0006 22.2094 32.8565 22.9283 32.5777 23.5989C32.2989 24.2696 31.8907 24.8787 31.3764 25.3915C30.8622 25.9044 30.2519 26.3109 29.5806 26.588C28.9092 26.865 28.1898 27.0071 27.4636 27.0061H11.5411C10.8148 27.0071 10.0954 26.865 9.42405 26.588C8.75268 26.3109 8.14245 25.9044 7.6282 25.3915C7.11395 24.8787 6.70575 24.2696 6.42691 23.5989C6.14806 22.9283 6.00404 22.2094 6.00305 21.4831C6.00384 20.7567 6.14772 20.0376 6.42647 19.3668C6.70523 18.696 7.1134 18.0867 7.62767 17.5737C8.14194 17.0606 8.75224 16.654 9.4237 16.3768C10.0952 16.0997 10.8147 15.9576 11.5411 15.9586H11.6611C12.0556 12.1336 14.7511 9.01358 19.5031 9.01358ZM19.5031 11.2591C16.3951 11.2591 13.6876 13.7101 13.6876 17.0941C13.6876 17.6296 13.2091 18.0511 12.6616 18.0511H11.6266C9.73355 18.0511 8.20055 19.5511 8.20055 21.4051C8.20055 23.2576 9.73355 24.7591 11.6251 24.7591H27.3796C29.2711 24.7591 30.8041 23.2591 30.8041 21.4051C30.8041 19.5526 29.2711 18.0511 27.3796 18.0511H26.3446C25.7971 18.0511 25.3186 17.6311 25.3186 17.0941C25.3186 13.6666 22.6096 11.2591 19.5031 11.2591ZM6.55055 15.2461C6.65486 15.4973 6.66462 15.7778 6.57803 16.0356C6.49143 16.2935 6.31435 16.5113 6.07955 16.6486L5.94305 16.7161L4.55255 17.2921C4.28952 17.3993 3.99567 17.403 3.72999 17.3026C3.46431 17.2021 3.24647 17.0048 3.1202 16.7504C2.99393 16.496 2.96858 16.2032 3.04924 15.9308C3.1299 15.6585 3.31059 15.4267 3.55505 15.2821L3.69155 15.2131L5.08205 14.6371C5.21856 14.5805 5.36487 14.5514 5.51263 14.5514C5.66038 14.5514 5.80669 14.5805 5.9432 14.6371C6.07971 14.6936 6.20373 14.7765 6.3082 14.881C6.41267 14.9855 6.49403 15.1096 6.55055 15.2461ZM16.2826 7.99658L16.0261 8.08358C15.2457 8.35661 14.5083 8.73946 13.8361 9.22058C13.1137 8.98552 12.3362 8.98083 11.6111 9.20714C10.886 9.43346 10.2492 9.8796 9.78888 10.4838C9.32852 11.088 9.06739 11.8204 9.04162 12.5795C9.01585 13.3387 9.22673 14.0871 9.64505 14.7211C8.91336 14.926 8.22053 15.2504 7.59455 15.6811C6.90706 14.4994 6.65025 13.116 6.86785 11.7664C7.08544 10.4167 7.76399 9.18412 8.78802 8.2784C9.81204 7.37267 11.1183 6.84976 12.4844 6.79865C13.8506 6.74755 15.1922 7.1714 16.2811 7.99808M4.41155 8.04458L4.56905 8.09708L5.95805 8.67308C6.21855 8.78289 6.42815 8.98675 6.54516 9.24409C6.66217 9.50143 6.67801 9.79339 6.58952 10.0619C6.50103 10.3304 6.31471 10.5557 6.06762 10.693C5.82053 10.8304 5.53079 10.8697 5.25605 10.8031L5.09705 10.7521L3.70805 10.1761C3.44687 10.0666 3.23658 9.86263 3.11918 9.6049C3.00179 9.34717 2.98591 9.05465 3.07473 8.78573C3.16355 8.51681 3.35053 8.29129 3.59833 8.15418C3.84613 8.01707 4.13653 7.97697 4.41155 8.04458ZM10.1341 3.56708L10.2016 3.70358L10.7776 5.09258C10.8863 5.35585 10.8912 5.65057 10.7911 5.91727C10.6911 6.18398 10.4936 6.4028 10.2385 6.52958C9.98342 6.65635 9.68974 6.68165 9.41674 6.60036C9.14374 6.51907 8.91173 6.33725 8.76755 6.09158L8.69855 5.95358L8.12255 4.56458C8.01534 4.30155 8.0116 4.0077 8.11207 3.74202C8.21255 3.47634 8.4098 3.2585 8.66423 3.13223C8.91867 3.00596 9.21145 2.98062 9.4838 3.06127C9.75615 3.14193 9.98941 3.32263 10.1341 3.56708ZM16.6621 3.08858C16.9114 3.19168 17.1153 3.38095 17.2368 3.62188C17.3582 3.8628 17.389 4.13934 17.3236 4.40108L17.2711 4.55858L16.6966 5.94758C16.5883 6.21049 16.3846 6.42268 16.1263 6.54149C15.868 6.66029 15.5743 6.67689 15.3043 6.58796C15.0343 6.49902 14.8079 6.31114 14.6708 6.0621C14.5336 5.81307 14.4959 5.52134 14.5651 5.24558L14.6176 5.08658L15.1921 3.69758C15.2486 3.56106 15.3314 3.43702 15.4359 3.33253C15.5404 3.22803 15.6644 3.14514 15.8009 3.08859C15.9374 3.03204 16.0837 3.00293 16.2315 3.00293C16.3792 3.00293 16.5255 3.03203 16.6621 3.08858Z" fill="black"/>
</svg>
