<svg width="290" height="290" viewBox="0 0 290 290" fill="none" xmlns="http://www.w3.org/2000/svg">
<path d="M103.559 49.789C121.901 16.8958 131.065 0.449219 144.775 0.449219C158.485 0.449219 167.649 16.8958 185.992 49.789L190.74 58.3018C195.952 67.6544 198.558 72.3307 202.612 75.4144C206.665 78.4981 211.732 79.6418 221.866 81.9293L231.074 84.0141C266.688 92.0781 284.48 96.1029 288.722 109.726C292.949 123.335 280.818 137.538 256.539 165.929L250.256 173.269C243.365 181.333 239.905 185.372 238.356 190.352C236.807 195.347 237.328 200.733 238.37 211.49L239.326 221.291C242.989 259.179 244.827 278.116 233.738 286.527C222.648 294.939 205.97 287.266 172.644 271.919L164.001 267.952C154.533 263.58 149.799 261.408 144.775 261.408C139.752 261.408 135.018 263.58 125.55 267.952L116.921 271.919C83.5803 287.266 66.9025 294.939 55.8275 286.542C44.7235 278.116 46.5621 259.179 50.2248 221.291L51.1803 211.504C52.2226 200.733 52.7438 195.347 51.1803 190.367C49.6457 185.372 46.1857 181.333 39.2945 173.283L33.0114 165.929C8.73316 137.552 -3.39874 123.35 0.828602 109.726C5.05594 96.1029 22.8774 92.0637 58.4913 84.0141L67.6988 81.9293C77.8183 79.6418 82.8709 78.4981 86.939 75.4144C91.0071 72.3307 93.5985 67.6544 98.8103 58.3018L103.559 49.789Z" fill="#444444"/>
</svg>
