<svg width="36" height="36" viewBox="0 0 36 36" fill="none" xmlns="http://www.w3.org/2000/svg">
<path d="M19.503 10.5135C24.255 10.5135 26.952 13.659 27.3435 17.4585H27.4635C28.1899 17.4575 28.9094 17.5996 29.5808 17.8768C30.2523 18.1539 30.8626 18.5606 31.3769 19.0736C31.8911 19.5866 32.2993 20.1959 32.5781 20.8667C32.8568 21.5375 33.0007 22.2566 33.0015 22.983C33.0005 23.7093 32.8565 24.4282 32.5776 25.0989C32.2988 25.7695 31.8906 26.3786 31.3763 26.8915C30.8621 27.4043 30.2518 27.8109 29.5805 28.0879C28.9091 28.3649 28.1898 28.507 27.4635 28.506H11.541C10.8147 28.507 10.0953 28.3649 9.42398 28.0879C8.75261 27.8109 8.14238 27.4043 7.62813 26.8915C7.11387 26.3786 6.70567 25.7695 6.42683 25.0989C6.14799 24.4282 6.00396 23.7093 6.00298 22.983C6.00376 22.2566 6.14764 21.5375 6.4264 20.8667C6.70516 20.1959 7.11332 19.5866 7.6276 19.0736C8.14187 18.5606 8.75216 18.1539 9.42363 17.8768C10.0951 17.5996 10.8146 17.4575 11.541 17.4585H11.661C12.0555 13.6335 14.751 10.5135 19.503 10.5135ZM19.503 12.759C16.395 12.759 13.6875 15.21 13.6875 18.594C13.6875 19.1295 13.209 19.551 12.6615 19.551H11.6265C9.73348 19.551 8.20048 21.051 8.20048 22.905C8.20048 24.7575 9.73348 26.259 11.625 26.259H27.3795C29.271 26.259 30.804 24.759 30.804 22.905C30.804 21.0525 29.271 19.551 27.3795 19.551H26.3445C25.7955 19.551 25.317 19.131 25.317 18.594C25.317 15.1665 22.6095 12.759 19.503 12.759ZM15 6C17.4255 6 19.575 7.2225 20.85 9.093C20.4028 9.04126 19.9531 9.01471 19.503 9.0135C18.91 9.0135 18.3405 9.056 17.7945 9.141C17.1306 8.67047 16.3586 8.37529 15.5502 8.28286C14.7417 8.19043 13.923 8.30374 13.1701 8.61228C12.4172 8.92082 11.7544 9.41459 11.2433 10.0477C10.7321 10.6809 10.3893 11.4329 10.2465 12.234L10.137 12.855C10.0759 13.2025 9.89434 13.5174 9.62411 13.7443C9.35388 13.9712 9.01232 14.0955 8.65948 14.0955H7.92448C7.39594 14.0949 6.8791 14.2511 6.43929 14.5442C5.99947 14.8373 5.65643 15.2542 5.45351 15.7423C5.25059 16.2303 5.19691 16.7675 5.29925 17.2861C5.40159 17.8046 5.65536 18.2812 6.02848 18.6555C5.55598 19.2555 5.18098 19.938 4.92598 20.676C4.12853 20.0644 3.53737 19.2234 3.23192 18.2659C2.92647 17.3085 2.92136 16.2805 3.21728 15.3201C3.5132 14.3596 4.09597 13.5128 4.88729 12.8933C5.67862 12.2737 6.6406 11.9113 7.64398 11.8545L8.02948 11.8455C8.31953 10.2075 9.17706 8.72397 10.4517 7.65509C11.7263 6.5862 13.3365 6.00025 15 6Z" fill="black"/>
</svg>
