<svg width="290" height="290" viewBox="0 0 290 290" fill="none" xmlns="http://www.w3.org/2000/svg">
<path d="M145.225 11.8682C146.604 11.8682 149.367 12.3319 155.03 19.7266C160.7 27.1295 167.11 38.5694 176.468 55.3506L176.469 55.3516L181.215 63.8594V63.8604C185.93 72.3221 189.746 79.6318 196.147 84.502V84.5029C202.635 89.4384 210.658 91.0044 219.802 93.0684V93.0674L229.001 95.1514C247.196 99.2713 259.507 102.091 267.924 105.409C275.612 108.44 277.457 110.894 278.146 112.757L278.269 113.121C278.892 115.136 279.011 118.408 274.105 126.201C269.119 134.123 260.695 144.025 248.313 158.503L242.03 165.843L242.024 165.851C235.759 173.182 230.31 179.218 227.901 186.961L227.898 186.97C225.509 194.673 226.504 202.782 227.454 212.591L227.455 212.598L228.409 222.389V222.39C230.276 241.702 231.529 254.937 231.105 264.455C230.682 273.955 228.681 276.372 227.286 277.43C226.073 278.35 223.655 279.599 215.124 277.155C206.448 274.67 194.895 269.387 177.869 261.547L177.863 261.544L177.856 261.541L169.214 257.574H169.213C160.69 253.638 153.332 249.989 145.225 249.989C138.124 249.989 131.598 252.788 124.36 256.128L121.229 257.577L112.601 261.544L112.596 261.547C95.5625 269.387 84.0055 274.669 75.3271 277.157C67.3215 279.452 64.7025 278.496 63.416 277.616L63.1758 277.442C61.7685 276.373 59.7699 273.943 59.3457 264.454C58.9202 254.937 60.1727 241.707 62.0391 222.4L62.9941 212.613L62.9951 212.604C63.9416 202.822 64.9382 194.703 62.5439 187.013H62.5449C62.5381 186.991 62.5313 186.968 62.5244 186.946H62.5234C60.4211 180.163 55.9849 174.695 50.7256 168.548L48.418 165.857L42.1426 158.512L42.1367 158.505C29.7543 144.032 21.3298 134.134 16.3438 126.213C11.435 118.414 11.5549 115.136 12.1836 113.11C12.7707 111.218 14.3181 108.639 22.5264 105.403C30.9472 102.084 43.2649 99.2644 61.458 95.1523L61.4619 95.1514L70.666 93.0674C79.8105 91.0003 87.7945 89.4354 94.2861 84.5146C100.719 79.6381 104.53 72.3001 109.233 63.8594L113.98 55.3516L113.981 55.3506C123.339 38.5694 129.75 27.1295 135.419 19.7266C141.082 12.3318 143.845 11.8682 145.225 11.8682Z" stroke="#444444" stroke-width="22.8378"/>
</svg>
