<svg width="36" height="36" viewBox="0 0 36 36" fill="none" xmlns="http://www.w3.org/2000/svg">
<path d="M25 26.55C24.6287 26.55 24.2726 26.4025 24.01 26.1399C23.7475 25.8774 23.6 25.5213 23.6 25.15C23.6 24.7787 23.7475 24.4226 24.01 24.16C24.2726 23.8975 24.6287 23.75 25 23.75C27.3156 23.75 29.2 21.8656 29.2 19.55C29.2 17.2344 27.3156 15.35 25 15.35C24.6668 15.35 24.3056 15.4088 23.8618 15.5334L22.3624 15.9548L22.102 14.4176C21.8875 13.1134 21.2164 11.928 20.2085 11.073C19.2006 10.218 17.9217 9.74904 16.6 9.74996C15.7693 9.75122 14.9492 9.93706 14.1991 10.294C13.449 10.651 12.7876 11.1702 12.2627 11.8141C11.7378 12.458 11.3625 13.2104 11.164 14.0171C10.9654 14.8237 10.9487 15.6644 11.1148 16.4784L11.4788 18.2144L9.4684 18.1416C8.0544 18.15 6.8 19.4058 6.8 20.95C6.8 22.4942 8.0544 23.75 9.6 23.75C9.9713 23.75 10.3274 23.8975 10.5899 24.16C10.8525 24.4226 11 24.7787 11 25.15C11 25.5213 10.8525 25.8774 10.5899 26.1399C10.3274 26.4025 9.9713 26.55 9.6 26.55C6.513 26.55 4 24.0384 4 20.95C4.00224 19.7085 4.41595 18.5027 5.17641 17.5214C5.93686 16.54 7.00116 15.8384 8.2028 15.5264L8.2 15.35C8.2 10.7174 11.9674 6.94996 16.6 6.94996C18.3392 6.94758 20.0358 7.48781 21.4534 8.49538C22.8711 9.50294 23.9391 10.9277 24.5086 12.571C28.6036 12.2336 32 15.5278 32 19.55C32 23.4098 28.8598 26.55 25 26.55ZM18.8946 20.95L12.5946 26.6214L16.7946 28.65L14.6946 33.55L20.9946 27.88L16.7946 25.85L18.8946 20.95Z" fill="black"/>
</svg>
