<svg width="48" height="48" viewBox="0 0 48 48" fill="none" xmlns="http://www.w3.org/2000/svg">
<path d="M4.90668 32.1226C5.46926 32.685 6.23219 33.001 7.02768 33.001C7.82317 33.001 8.5861 32.685 9.14868 32.1226L23.9987 17.2726L38.8487 32.1226C39.4145 32.6691 40.1723 32.9715 40.9589 32.9646C41.7455 32.9578 42.4979 32.6423 43.0541 32.0861C43.6104 31.5298 43.9259 30.7774 43.9327 29.9908C43.9395 29.2042 43.6372 28.4464 43.0907 27.8806L26.1197 10.9096C25.5571 10.3472 24.7942 10.0312 23.9987 10.0312C23.2032 10.0312 22.4403 10.3472 21.8777 10.9096L4.90668 27.8806C4.34427 28.4432 4.02832 29.2061 4.02832 30.0016C4.02832 30.7971 4.34427 31.56 4.90668 32.1226Z" fill="#9187B9"/>
</svg>
