<svg width="32" height="32" viewBox="0 0 32 32" fill="none" xmlns="http://www.w3.org/2000/svg">
<path fill-rule="evenodd" clip-rule="evenodd" d="M25.1334 8.60155C25.2474 8.48767 25.3379 8.35244 25.3997 8.2036C25.4614 8.05475 25.4933 7.89519 25.4934 7.73404C25.4935 7.57289 25.4618 7.41329 25.4003 7.26437C25.3387 7.11544 25.2484 6.98011 25.1345 6.86609C25.0206 6.75206 24.8854 6.66159 24.7365 6.59983C24.5877 6.53806 24.4281 6.50622 24.267 6.50613C24.1058 6.50603 23.9462 6.53767 23.7973 6.59925C23.6484 6.66083 23.513 6.75114 23.399 6.86502L15.9985 14.2656L8.60009 6.86502C8.36981 6.63474 8.05748 6.50537 7.73182 6.50537C7.40616 6.50537 7.09383 6.63474 6.86355 6.86502C6.63328 7.0953 6.50391 7.40762 6.50391 7.73329C6.50391 8.05895 6.63328 8.37127 6.86355 8.60155L14.2641 16L6.86355 23.3984C6.74953 23.5124 6.65908 23.6477 6.59738 23.7967C6.53567 23.9457 6.50391 24.1054 6.50391 24.2666C6.50391 24.4279 6.53567 24.5875 6.59738 24.7365C6.65908 24.8855 6.74953 25.0209 6.86355 25.1349C7.09383 25.3652 7.40616 25.4945 7.73182 25.4945C7.89307 25.4945 8.05275 25.4628 8.20172 25.4011C8.3507 25.3394 8.48606 25.2489 8.60009 25.1349L15.9985 17.7344L23.399 25.1349C23.6293 25.3649 23.9415 25.494 24.267 25.4938C24.5924 25.4936 24.9045 25.3641 25.1345 25.1338C25.3645 24.9035 25.4936 24.5913 25.4934 24.2659C25.4932 23.9404 25.3637 23.6283 25.1334 23.3984L17.7329 16L25.1334 8.60155Z" fill="white"/>
</svg>
