<svg width="32" height="32" viewBox="0 0 32 32" fill="none" xmlns="http://www.w3.org/2000/svg">
<g clip-path="url(#clip0_2106_6631)">
<path d="M32 16C32 24.8471 24.8471 32 16 32C7.15294 32 0 24.8471 0 16C0 7.15294 7.15294 -1.19209e-07 16 -1.19209e-07C24.8471 -1.19209e-07 32 7.15294 32 16ZM1.88235 16C1.88235 23.8118 8.18824 30.1176 16 30.1176C23.8118 30.1176 30.1176 23.8118 30.1176 16C30.1176 8.18824 23.8118 1.88235 16 1.88235C8.18824 1.88235 1.88235 8.18824 1.88235 16Z" fill="white"/>
<path d="M17.8432 7.0434L9.2865 15.6001L17.8432 24.1568L16.3999 25.6001L6.3999 15.6001L16.3999 5.6001L17.8432 7.0434Z" fill="white"/>
<path d="M7.81982 17V15L24.8198 15V17H7.81982Z" fill="white"/>
</g>
<defs>
<clipPath id="clip0_2106_6631">
<rect width="32" height="32" fill="white" transform="matrix(0 -1 1 0 0 32)"/>
</clipPath>
</defs>
</svg>
