<svg width="36" height="36" viewBox="0 0 36 36" fill="none" xmlns="http://www.w3.org/2000/svg">
<g clip-path="url(#clip0_2106_6639)">
<path d="M18 8.05305C16.1804 8.05305 14.4017 8.59262 12.8888 9.60353C11.3758 10.6144 10.1966 12.0513 9.50031 13.7324C8.80398 15.4134 8.62179 17.2633 8.97678 19.0479C9.33176 20.8325 10.208 22.4718 11.4946 23.7584C12.7813 25.0451 14.4205 25.9213 16.2052 26.2763C17.9898 26.6313 19.8396 26.4491 21.5207 25.7527C23.2018 25.0564 24.6386 23.8772 25.6495 22.3643C26.6604 20.8514 27.2 19.0726 27.2 17.2531C27.1967 14.8141 26.2263 12.4759 24.5017 10.7513C22.7771 9.0267 20.439 8.05636 18 8.05305ZM18 23.9531C16.6749 23.9531 15.3795 23.5601 14.2777 22.8239C13.1759 22.0877 12.3171 21.0413 11.81 19.817C11.3029 18.5928 11.1702 17.2456 11.4287 15.9459C11.6873 14.6463 12.3254 13.4524 13.2624 12.5154C14.1994 11.5784 15.3932 10.9403 16.6929 10.6818C17.9926 10.4233 19.3397 10.556 20.564 11.0631C21.7882 11.5702 22.8346 12.4289 23.5708 13.5307C24.3071 14.6325 24.7 15.9279 24.7 17.2531C24.6967 19.029 23.9897 20.7312 22.734 21.987C21.4782 23.2428 19.7759 23.9497 18 23.9531ZM18 6.59055C18.3315 6.59055 18.6495 6.45886 18.8839 6.22444C19.1183 5.99002 19.25 5.67207 19.25 5.34055V3.50305C19.25 3.17153 19.1183 2.85359 18.8839 2.61917C18.6495 2.38475 18.3315 2.25305 18 2.25305C17.6685 2.25305 17.3505 2.38475 17.1161 2.61917C16.8817 2.85359 16.75 3.17153 16.75 3.50305V5.34055C16.75 5.67207 16.8817 5.99002 17.1161 6.22444C17.3505 6.45886 17.6685 6.59055 18 6.59055ZM8.6875 9.75305C8.8043 9.8689 8.94282 9.96056 9.09512 10.0228C9.24741 10.085 9.41049 10.1165 9.575 10.1156C9.74577 10.1216 9.91596 10.0925 10.0751 10.0301C10.2342 9.9678 10.3788 9.87349 10.5 9.75305C10.6229 9.63628 10.7208 9.49572 10.7877 9.33992C10.8546 9.18412 10.8891 9.01635 10.8891 8.8468C10.8891 8.67726 10.8546 8.50948 10.7877 8.35368C10.7208 8.19789 10.6229 8.05733 10.5 7.94055L9.25 6.69055C9.02125 6.44357 8.70376 6.29757 8.36736 6.28468C8.03097 6.27179 7.70323 6.39305 7.45625 6.6218C7.20927 6.85055 7.06327 7.16804 7.05038 7.50444C7.03748 7.84083 7.15875 8.16857 7.3875 8.41555L8.6875 9.75305ZM6.0875 16.0031H4.25C3.91848 16.0031 3.60054 16.1347 3.36612 16.3692C3.1317 16.6036 3 16.9215 3 17.2531C3 17.5846 3.1317 17.9025 3.36612 18.1369C3.60054 18.3714 3.91848 18.5031 4.25 18.5031H6.0875C6.41902 18.5031 6.73696 18.3714 6.97138 18.1369C7.2058 17.9025 7.3375 17.5846 7.3375 17.2531C7.3375 16.9215 7.2058 16.6036 6.97138 16.3692C6.73696 16.1347 6.41902 16.0031 6.0875 16.0031ZM8.6875 24.7531L7.4375 26.0031C7.32034 26.1193 7.22735 26.2575 7.16389 26.4098C7.10042 26.5622 7.06775 26.7255 7.06775 26.8906C7.06775 27.0556 7.10042 27.2189 7.16389 27.3713C7.22735 27.5236 7.32034 27.6618 7.4375 27.7781C7.5543 27.8939 7.69282 27.9856 7.84512 28.0478C7.99741 28.11 8.16049 28.1415 8.325 28.1406C8.48951 28.1415 8.65259 28.11 8.80488 28.0478C8.95718 27.9856 9.0957 27.8939 9.2125 27.7781L10.4625 26.5281C10.579 26.4115 10.6715 26.2731 10.7346 26.1209C10.7976 25.9686 10.8301 25.8054 10.8301 25.6406C10.8301 25.4757 10.7976 25.3125 10.7346 25.1602C10.6715 25.008 10.579 24.8696 10.4625 24.7531C10.346 24.6365 10.2076 24.5441 10.0553 24.481C9.90303 24.4179 9.73982 24.3854 9.575 24.3854C9.41018 24.3854 9.24697 24.4179 9.09469 24.481C8.94241 24.5441 8.80405 24.6365 8.6875 24.7531Z" fill="black"/>
<path d="M18 27.9155C17.6685 27.9155 17.3505 28.0472 17.1161 28.2816C16.8817 28.516 16.75 28.8339 16.75 29.1655V31.003C16.75 31.3345 16.8817 31.6524 17.1161 31.8869C17.3505 32.1213 17.6685 32.253 18 32.253C18.3315 32.253 18.6495 32.1213 18.8839 31.8869C19.1183 31.6524 19.25 31.3345 19.25 31.003V29.1655C19.25 28.8339 19.1183 28.516 18.8839 28.2816C18.6495 28.0472 18.3315 27.9155 18 27.9155ZM27.3125 24.753C27.1935 24.634 27.0522 24.5396 26.8967 24.4751C26.7412 24.4107 26.5746 24.3776 26.4063 24.3776C26.2379 24.3776 26.0713 24.4107 25.9158 24.4751C25.7603 24.5396 25.619 24.634 25.5 24.753C25.381 24.872 25.2866 25.0133 25.2222 25.1688C25.1578 25.3243 25.1246 25.4909 25.1246 25.6592C25.1246 25.8275 25.1578 25.9942 25.2222 26.1497C25.2866 26.3052 25.381 26.4465 25.5 26.5655L26.75 27.8155C26.8668 27.9313 27.0053 28.023 27.1576 28.0852C27.3099 28.1474 27.473 28.1789 27.6375 28.178C27.802 28.1789 27.9651 28.1474 28.1174 28.0852C28.2697 28.023 28.4082 27.9313 28.525 27.8155C28.6422 27.6993 28.7352 27.561 28.7986 27.4087C28.8621 27.2564 28.8947 27.093 28.8947 26.928C28.8947 26.763 28.8621 26.5996 28.7986 26.4472C28.7352 26.2949 28.6422 26.1567 28.525 26.0405L27.3125 24.753ZM31.75 16.003H29.9125C29.581 16.003 29.263 16.1347 29.0286 16.3691C28.7942 16.6035 28.6625 16.9214 28.6625 17.253C28.6625 17.5845 28.7942 17.9024 29.0286 18.1368C29.263 18.3713 29.581 18.503 29.9125 18.503H31.75C32.0815 18.503 32.3995 18.3713 32.6339 18.1368C32.8683 17.9024 33 17.5845 33 17.253C33 16.9214 32.8683 16.6035 32.6339 16.3691C32.3995 16.1347 32.0815 16.003 31.75 16.003ZM26.425 10.078C26.752 10.09 27.0706 9.97328 27.3125 9.75297L28.5625 8.50297C28.679 8.38642 28.7715 8.24805 28.8346 8.09578C28.8977 7.9435 28.9301 7.78029 28.9301 7.61547C28.9301 7.45064 28.8977 7.28743 28.8346 7.13515C28.7715 6.98288 28.679 6.84451 28.5625 6.72797C28.446 6.61142 28.3076 6.51897 28.1553 6.45589C28.003 6.39282 27.8398 6.36035 27.675 6.36035C27.5102 6.36035 27.347 6.39282 27.1947 6.45589C27.0424 6.51897 26.904 6.61142 26.7875 6.72797L25.5375 7.97797C25.4179 8.09167 25.3219 8.22795 25.2552 8.37894C25.1885 8.52993 25.1524 8.69263 25.1489 8.85765C25.1454 9.02268 25.1746 9.18676 25.2349 9.34043C25.2952 9.49409 25.3853 9.63431 25.5 9.75297C25.6243 9.86668 25.7703 9.95409 25.9293 10.0099C26.0883 10.0658 26.2569 10.0889 26.425 10.078Z" fill="black"/>
</g>
<defs>
<clipPath id="clip0_2106_6639">
<rect width="30" height="30" fill="white" transform="translate(3 2.25305)"/>
</clipPath>
</defs>
</svg>
