<svg width="36" height="36" viewBox="0 0 36 36" fill="none" xmlns="http://www.w3.org/2000/svg">
<path d="M18 6.00146C22.7535 6.00146 25.449 9.14696 25.8405 12.9465H25.9605C26.687 12.9453 27.4067 13.0873 28.0783 13.3643C28.7499 13.6413 29.3604 14.048 29.8749 14.561C30.3893 15.074 30.7976 15.6834 31.0764 16.3543C31.3553 17.0252 31.4992 17.7444 31.5 18.471C31.499 19.1972 31.355 19.9162 31.0761 20.5868C30.7973 21.2574 30.3891 21.8666 29.8749 22.3794C29.3606 22.8923 28.7504 23.2988 28.079 23.5759C27.4076 23.8529 26.6883 23.995 25.962 23.994H25.089L22.716 27.9465C22.5739 28.1944 22.3427 28.379 22.0694 28.4627C21.7962 28.5464 21.5013 28.5229 21.2447 28.3971C20.9881 28.2713 20.789 28.0525 20.6878 27.7852C20.5867 27.5179 20.591 27.2222 20.7 26.958L20.7675 26.8215L22.491 23.994H19.287L16.914 27.9465C16.7719 28.1944 16.5407 28.379 16.2674 28.4627C15.9942 28.5464 15.6993 28.5229 15.4427 28.3971C15.1861 28.2713 14.987 28.0525 14.8858 27.7852C14.7847 27.5179 14.789 27.2222 14.898 26.958L14.9655 26.8215L16.6875 23.994H13.4805L11.1105 27.9465C10.97 28.1976 10.7386 28.3853 10.4639 28.471C10.1892 28.5567 9.89216 28.534 9.63376 28.4074C9.37536 28.2808 9.1753 28.06 9.07472 27.7904C8.97414 27.5208 8.98068 27.2229 9.093 26.958L9.1605 26.8215L10.8825 23.994H10.0395C9.3131 23.9951 8.59358 23.8532 7.92204 23.5763C7.2505 23.2993 6.64009 22.8928 6.12568 22.38C5.61127 21.8671 5.20293 21.2579 4.924 20.5872C4.64506 19.9165 4.50098 19.1974 4.5 18.471C4.50059 17.7443 4.64437 17.0249 4.92314 16.3538C5.2019 15.6828 5.61017 15.0732 6.12462 14.56C6.63907 14.0468 7.24961 13.6401 7.92134 13.3629C8.59308 13.0858 9.31285 12.9438 10.0395 12.945H10.1595C10.5525 9.11997 13.2465 6.00146 18 6.00146ZM18 8.24697C14.8935 8.24697 12.1845 10.6965 12.1845 14.0805C12.1845 14.616 11.706 15.0375 11.1585 15.0375H10.1235C8.232 15.0375 6.6975 16.539 6.6975 18.3915C6.6975 20.244 8.232 21.75 10.125 21.75H25.875C27.7665 21.75 29.301 20.247 29.301 18.3945C29.301 16.542 27.7665 15.0405 25.875 15.0405H24.84C24.2925 15.0405 23.814 14.6205 23.814 14.0835C23.814 10.656 21.105 8.24847 17.9985 8.24847" fill="black"/>
</svg>
