<svg width="36" height="36" viewBox="0 0 36 36" fill="none" xmlns="http://www.w3.org/2000/svg">
<path d="M14.5837 10.09C16.104 7.36366 16.8636 6.00049 18 6.00049C19.1364 6.00049 19.896 7.36366 21.4163 10.09L21.8099 10.7956C22.2419 11.5708 22.4579 11.9583 22.7939 12.2139C23.1299 12.4695 23.5499 12.5643 24.3898 12.7539L25.153 12.9267C28.105 13.5951 29.5797 13.9287 29.9313 15.0579C30.2817 16.1858 29.2761 17.363 27.2638 19.7162L26.743 20.3246C26.1718 20.9929 25.885 21.3277 25.7566 21.7405C25.6282 22.1545 25.6714 22.6009 25.7578 23.4925L25.837 24.3049C26.1406 27.4452 26.293 29.0147 25.3738 29.7119C24.4546 30.4091 23.0723 29.7731 20.3099 28.5012L19.5936 28.1724C18.8088 27.81 18.4164 27.63 18 27.63C17.5836 27.63 17.1912 27.81 16.4064 28.1724L15.6913 28.5012C12.9277 29.7731 11.5454 30.4091 10.6274 29.7131C9.70699 29.0147 9.85939 27.4452 10.163 24.3049L10.2422 23.4937C10.3286 22.6009 10.3718 22.1545 10.2422 21.7417C10.115 21.3277 9.82819 20.9929 9.25701 20.3258L8.73622 19.7162C6.72387 17.3642 5.71829 16.187 6.06868 15.0579C6.41907 13.9287 7.89624 13.5939 10.8482 12.9267L11.6113 12.7539C12.4501 12.5643 12.8689 12.4695 13.2061 12.2139C13.5433 11.9583 13.7581 11.5708 14.1901 10.7956L14.5837 10.09Z" fill="white"/>
</svg>
