<svg width="300" height="300" viewBox="0 0 300 300" fill="none" xmlns="http://www.w3.org/2000/svg">
<path d="M188.64 130.11C198.995 130.11 207.39 121.716 207.39 111.36C207.39 101.005 198.995 92.6104 188.64 92.6104C178.284 92.6104 169.89 101.005 169.89 111.36C169.89 121.716 178.284 130.11 188.64 130.11Z" fill="black"/>
<path d="M43.75 207.125C43.9794 220.234 49.3484 232.728 58.7005 241.916C68.0525 251.104 80.6394 256.252 93.75 256.25H137.25M43.75 207.125V93.75C43.75 80.4892 49.0178 67.7715 58.3947 58.3947C67.7715 49.0178 80.4892 43.75 93.75 43.75H206.25C219.511 43.75 232.229 49.0178 241.605 58.3947C250.982 67.7715 256.25 80.4892 256.25 93.75V137.25M43.75 207.125L45.975 204.625L86.05 156.788C88.3965 153.987 91.3283 151.735 94.639 150.19C97.9497 148.644 101.559 147.844 105.212 147.844C108.866 147.844 112.475 148.644 115.786 150.19C119.097 151.735 122.029 153.987 124.375 156.788L139.9 175.312" stroke="black" stroke-width="18.75" stroke-linecap="round" stroke-linejoin="round"/>
<path fill-rule="evenodd" clip-rule="evenodd" d="M218.75 287.5C236.984 287.5 254.47 280.257 267.364 267.364C280.257 254.47 287.5 236.984 287.5 218.75C287.5 200.516 280.257 183.03 267.364 170.136C254.47 157.243 236.984 150 218.75 150C200.516 150 183.03 157.243 170.136 170.136C157.243 183.03 150 200.516 150 218.75C150 236.984 157.243 254.47 170.136 267.364C183.03 280.257 200.516 287.5 218.75 287.5ZM218.75 175.087C220.408 175.087 221.997 175.746 223.169 176.918C224.342 178.09 225 179.68 225 181.337V212.5H256.163C257.82 212.5 259.41 213.158 260.582 214.331C261.754 215.503 262.413 217.092 262.413 218.75C262.413 220.408 261.754 221.997 260.582 223.169C259.41 224.342 257.82 225 256.163 225H225V256.175C225 257.833 224.342 259.422 223.169 260.594C221.997 261.767 220.408 262.425 218.75 262.425C217.092 262.425 215.503 261.767 214.331 260.594C213.158 259.422 212.5 257.833 212.5 256.175V225H181.337C179.68 225 178.09 224.342 176.918 223.169C175.746 221.997 175.087 220.408 175.087 218.75C175.087 217.092 175.746 215.503 176.918 214.331C178.09 213.158 179.68 212.5 181.337 212.5H212.5V181.337C212.5 179.68 213.158 178.09 214.331 176.918C215.503 175.746 217.092 175.087 218.75 175.087Z" fill="black"/>
</svg>
