<svg width="300" height="300" viewBox="0 0 300 300" fill="none" xmlns="http://www.w3.org/2000/svg">
<g clip-path="url(#clip0_778_773)">
<path d="M300.001 150C300.001 232.941 232.942 300 150.001 300C67.0598 300 0.000976563 232.941 0.000976563 150C0.000976563 67.0588 67.0598 0 150.001 0C232.942 0 300.001 67.0588 300.001 150ZM17.648 150C17.648 223.235 76.7657 282.353 150.001 282.353C223.236 282.353 282.354 223.235 282.354 150C282.354 76.7647 223.236 17.6471 150.001 17.6471C76.7657 17.6471 17.648 76.7647 17.648 150Z" fill="black"/>
<path d="M167.281 66.027L87.0618 146.246L167.281 226.465L153.75 239.996L60 146.246L153.75 52.4961L167.281 66.027Z" fill="black"/>
<path d="M73.3115 159.375V140.625H232.687V159.375H73.3115Z" fill="black"/>
</g>
<defs>
<clipPath id="clip0_778_773">
<rect width="300" height="300" fill="white" transform="matrix(0 -1 1 0 0 300)"/>
</clipPath>
</defs>
</svg>
