<svg width="230" height="146" viewBox="0 0 230 146" fill="none" xmlns="http://www.w3.org/2000/svg">
<path fill-rule="evenodd" clip-rule="evenodd" d="M115.001 133.415C157.022 133.415 195.064 109.978 215.501 72.9987C195.064 36.0195 157.022 12.582 115.001 12.582C72.9805 12.582 34.9388 36.0195 14.5013 72.9987C34.9388 109.978 72.9805 133.415 115.001 133.415ZM115.001 0.0820312C165.085 0.0820312 208.46 29.7487 229.585 72.9987C208.46 116.249 165.085 145.915 115.001 145.915C64.918 145.915 21.543 116.249 0.417969 72.9987C21.543 29.7487 64.918 0.0820312 115.001 0.0820312ZM115.001 102.165C122.737 102.165 130.155 99.0925 135.625 93.6226C141.095 88.1528 144.168 80.7342 144.168 72.9987C144.168 65.2632 141.095 57.8446 135.625 52.3747C130.155 46.9049 122.737 43.832 115.001 43.832C107.266 43.832 99.8472 46.9049 94.3773 52.3747C88.9075 57.8446 85.8346 65.2632 85.8346 72.9987C85.8346 80.7342 88.9075 88.1528 94.3773 93.6226C99.8472 99.0925 107.266 102.165 115.001 102.165ZM115.001 114.665C103.951 114.665 93.3525 110.275 85.5385 102.461C77.7245 94.6475 73.3346 84.0494 73.3346 72.9987C73.3346 61.948 77.7245 51.3499 85.5385 43.5359C93.3525 35.7219 103.951 31.332 115.001 31.332C126.052 31.332 136.65 35.7219 144.464 43.5359C152.278 51.3499 156.668 61.948 156.668 72.9987C156.668 84.0494 152.278 94.6475 144.464 102.461C136.65 110.275 126.052 114.665 115.001 114.665Z" fill="black"/>
</svg>
