<svg width="250" height="250" viewBox="0 0 250 250" fill="none" xmlns="http://www.w3.org/2000/svg">
<path d="M208.333 114.585C205.785 96.2537 197.281 79.2687 184.131 66.2462C170.981 53.2236 153.913 44.886 135.558 42.5176C117.203 40.1492 98.5787 43.8814 82.5535 53.1394C66.5283 62.3973 53.9915 76.6674 46.8743 93.7514M41.666 52.0848V93.7514H83.3327M41.666 135.418C44.2135 153.749 52.7174 170.734 65.8677 183.757C79.018 196.779 96.0852 205.117 114.44 207.485C132.795 209.854 151.42 206.121 167.445 196.863C183.47 187.605 196.007 173.335 203.124 156.251M208.333 197.918V156.251H166.666" stroke="black" stroke-width="20.8333" stroke-linecap="round" stroke-linejoin="round"/>
</svg>
