<svg width="16" height="16" viewBox="0 0 16 16" fill="none" xmlns="http://www.w3.org/2000/svg">
<path d="M14.5467 4.95399C14.4854 4.86537 14.4035 4.79294 14.3081 4.7429C14.2126 4.69286 14.1065 4.6667 13.9987 4.66666H4.88736L4.11803 2.81999C4.01745 2.5766 3.84671 2.36864 3.62755 2.22261C3.40839 2.07658 3.15072 1.99909 2.88736 1.99999H1.33203V3.33333H2.88736L6.05003 10.9233C6.10069 11.0448 6.18615 11.1485 6.29565 11.2215C6.40515 11.2944 6.53379 11.3333 6.66536 11.3333H11.9987C12.2767 11.3333 12.5254 11.1607 12.6234 10.9013L14.6234 5.56799C14.6612 5.46707 14.6739 5.35849 14.6606 5.25156C14.6472 5.14462 14.6082 5.04252 14.5467 4.95399Z" fill="white"/>
<path d="M7 14C7.55228 14 8 13.5523 8 13C8 12.4477 7.55228 12 7 12C6.44772 12 6 12.4477 6 13C6 13.5523 6.44772 14 7 14Z" fill="white"/>
<path d="M11.668 14C12.2203 14 12.668 13.5523 12.668 13C12.668 12.4477 12.2203 12 11.668 12C11.1157 12 10.668 12.4477 10.668 13C10.668 13.5523 11.1157 14 11.668 14Z" fill="white"/>
</svg>
