<?xml version="1.0" encoding="UTF-8"?>
<svg xmlns="http://www.w3.org/2000/svg" xmlns:xlink="http://www.w3.org/1999/xlink" viewBox="0 0 829 580">
  <defs>
    <style>
      .cls-1 {
        fill: none;
      }

      .cls-1, .cls-2, .cls-3, .cls-4, .cls-5, .cls-6, .cls-7, .cls-8, .cls-9, .cls-10, .cls-11, .cls-12, .cls-13, .cls-14, .cls-15, .cls-16, .cls-17, .cls-18, .cls-19, .cls-20, .cls-21 {
        stroke-width: 0px;
      }

      .cls-2 {
        fill: url(#linear-gradient);
      }

      .cls-3 {
        fill: url(#_未命名漸層_33);
      }

      .cls-4 {
        fill: url(#radial-gradient);
      }

      .cls-5 {
        fill: url(#_未命名漸層_33-8);
      }

      .cls-6 {
        fill: url(#_未命名漸層_33-9);
      }

      .cls-7 {
        fill: url(#_未命名漸層_33-3);
      }

      .cls-8 {
        fill: url(#_未命名漸層_33-2);
      }

      .cls-9 {
        fill: url(#_未命名漸層_33-6);
      }

      .cls-10 {
        fill: url(#_未命名漸層_33-4);
      }

      .cls-11 {
        fill: url(#_未命名漸層_33-5);
      }

      .cls-12 {
        fill: url(#_未命名漸層_33-7);
      }

      .cls-22 {
        mix-blend-mode: overlay;
      }

      .cls-23 {
        font-family: KozGoPr6N-Regular-83pv-RKSJ-H, 'Kozuka Gothic Pr6N';
        font-size: 15.7px;
      }

      .cls-23, .cls-15 {
        fill: #fff;
      }

      .cls-24 {
        isolation: isolate;
      }

      .cls-14 {
        fill: #b3b3b3;
      }

      .cls-16 {
        fill: url(#_未命名漸層_33-13);
      }

      .cls-17 {
        fill: url(#_未命名漸層_33-14);
      }

      .cls-18 {
        fill: url(#_未命名漸層_33-11);
      }

      .cls-19 {
        fill: url(#_未命名漸層_33-12);
      }

      .cls-20 {
        fill: url(#_未命名漸層_33-10);
      }

      .cls-21 {
        fill: url(#_未命名漸層_33-15);
      }
    </style>
    <radialGradient id="radial-gradient" cx="147.16" cy="411.37" fx="147.16" fy="411.37" r="842.55" gradientUnits="userSpaceOnUse">
      <stop offset=".17" stop-color="#df928e"/>
      <stop offset=".38" stop-color="#a78f9d"/>
      <stop offset=".58" stop-color="#7b8daa"/>
      <stop offset=".75" stop-color="#5b8cb3"/>
      <stop offset=".9" stop-color="#488bb9"/>
      <stop offset="1" stop-color="#418bbb"/>
    </radialGradient>
    <linearGradient id="linear-gradient" x1="135.14" y1="305.54" x2="763.86" y2="305.54" gradientUnits="userSpaceOnUse">
      <stop offset="0" stop-color="#2a5ca2"/>
      <stop offset="1" stop-color="#1a2a53"/>
    </linearGradient>
    <radialGradient id="_未命名漸層_33" data-name="未命名漸層 33" cx="313.48" cy="537.09" fx="313.48" fy="537.09" r="1.04" gradientUnits="userSpaceOnUse">
      <stop offset="0" stop-color="#fff"/>
      <stop offset=".59" stop-color="#158abf"/>
      <stop offset=".93" stop-color="#fff"/>
    </radialGradient>
    <radialGradient id="_未命名漸層_33-2" data-name="未命名漸層 33" cx="147.16" cy="411.37" fx="147.16" fy="411.37" r="842.55" xlink:href="#_未命名漸層_33"/>
    <radialGradient id="_未命名漸層_33-3" data-name="未命名漸層 33" cx="524.28" cy="102.47" fx="524.28" fy="102.47" r=".16" xlink:href="#_未命名漸層_33"/>
    <radialGradient id="_未命名漸層_33-4" data-name="未命名漸層 33" cx="715.94" cy="364.11" fx="715.94" fy="364.11" r="10.19" xlink:href="#_未命名漸層_33"/>
    <radialGradient id="_未命名漸層_33-5" data-name="未命名漸層 33" cx="622.74" cy="323.35" fx="622.74" fy="323.35" r="16.02" xlink:href="#_未命名漸層_33"/>
    <radialGradient id="_未命名漸層_33-6" data-name="未命名漸層 33" cx="524.28" cy="102.47" fx="524.28" fy="102.47" r=".16" xlink:href="#_未命名漸層_33"/>
    <radialGradient id="_未命名漸層_33-7" data-name="未命名漸層 33" cx="551.37" cy="136.07" fx="551.37" fy="136.07" r="35.84" xlink:href="#_未命名漸層_33"/>
    <radialGradient id="_未命名漸層_33-8" data-name="未命名漸層 33" cx="726.98" cy="356.64" fx="726.98" fy="356.64" r="8.47" xlink:href="#_未命名漸層_33"/>
    <radialGradient id="_未命名漸層_33-9" data-name="未命名漸層 33" cx="715.94" cy="364.11" fx="715.94" fy="364.11" r="10.19" xlink:href="#_未命名漸層_33"/>
    <radialGradient id="_未命名漸層_33-10" data-name="未命名漸層 33" cx="622.74" cy="323.35" fx="622.74" fy="323.35" r="16.02" xlink:href="#_未命名漸層_33"/>
    <radialGradient id="_未命名漸層_33-11" data-name="未命名漸層 33" cx="524.28" cy="102.47" fx="524.28" fy="102.47" r=".16" xlink:href="#_未命名漸層_33"/>
    <radialGradient id="_未命名漸層_33-12" data-name="未命名漸層 33" cx="551.37" cy="136.07" fx="551.37" fy="136.07" r="35.84" xlink:href="#_未命名漸層_33"/>
    <radialGradient id="_未命名漸層_33-13" data-name="未命名漸層 33" cx="727.23" cy="357.84" fx="727.23" fy="357.84" r="9.23" xlink:href="#_未命名漸層_33"/>
    <radialGradient id="_未命名漸層_33-14" data-name="未命名漸層 33" cx="743.79" cy="331.34" fx="743.79" fy="331.34" r="8.29" xlink:href="#_未命名漸層_33"/>
    <radialGradient id="_未命名漸層_33-15" data-name="未命名漸層 33" cx="449.5" cy="305.54" fx="449.5" fy="305.54" r="275.47" xlink:href="#_未命名漸層_33"/>
  </defs>
  <g class="cls-24">
    <g id="_圖層_1" data-name="圖層 1">
      <g>
        <g>
          <path class="cls-14" d="m313.36,535.63c.13.98.18,1.96.15,2.92.16-1.03.09-1.99-.15-2.92Z"/>
          <path class="cls-4" d="m709.61,158.9c-.14-.63-.29-1.3-.47-2.07-1.39-5.87-4.49-9.35-9.06-11.79-2.98,2.01-8,5.36-11.02,7.38,4.44,1.39,13.82,4.36,20.55,6.49Z"/>
          <path class="cls-13" d="m524.07,102.54c.11-.04.21-.04.31-.08.04-.01.09-.04.12-.05l-.43.13Z"/>
          <g>
            <path class="cls-1" d="m708.23,352.95c-1.02.85-.85,2.32.42,3.3,5.11,3.96,10.09,10.97,9.72,16.71-.08,1.26,1.18,2.52,2.81,2.81,1.64.27,3.02-.51,3.11-1.78.48-7.62-5.82-16.11-11.89-20.81-1.27-.98-3.14-1.08-4.17-.24Z"/>
            <path class="cls-1" d="m636.78,333.01c-9.29.09-12.14-3.94-16.36-11.07-2.49-4.22-5.33-9-10.68-12.34-1.37-.85-3.21-.78-4.08.18-.87.96-.45,2.43.93,3.3,3.96,2.47,6.18,6.23,8.54,10.21,3.84,6.48,8.61,14.54,22.73,14.4,1.6-.03,2.66-1.08,2.37-2.38-.3-1.3-1.85-2.32-3.45-2.3Z"/>
            <path class="cls-1" d="m524.07,102.54c.11-.04.21-.04.31-.08.04-.01.09-.04.12-.05l-.43.13Z"/>
            <path class="cls-1" d="m586.93,106.67c1.24-.68,1.32-2.13.22-3.22-1.1-1.1-2.97-1.44-4.19-.74-3.19,1.82-5.37,4.79-7.47,7.66-2.53,3.46-4.91,6.72-8.35,7.02-2.1.17-4.88-.79-8.27-2.84l-6.22-4.4c-7.24-5.49-16.24-12.27-28.28-7.7-6.42,1.48-10.06,6.06-9.49,11.71.06.58.17,1.15.31,1.74,1.66,6.85,8.45,12.23,17.27,13.71.18.03,6.83,1.1,6.83,1.1,3.36.59,6.8,1.21,9.98,1.44.33,2.6.86,6.83.86,6.83,1.15,10.42,2.34,21.23,9.29,30.76.87,1.19,2.7,1.76,4.08,1.28,1.38-.49,1.79-1.86.93-3.06-6.19-8.48-7.3-18.7-8.4-28.58l-1.53-12-3.21.17c-3.2.11-7.5-.66-11.67-1.4l-7.08-1.12c-7.08-1.2-10.64-5.56-11.54-9.23-.8-3.31.26-7.61,5.97-8.87l.22-.06.2-.07c8.18-3.22,13.52.35,21.57,6.45l6.84,4.83c4.91,2.98,9.15,4.26,12.94,3.95,5.91-.51,9.01-4.75,12-8.84,1.87-2.53,3.78-5.15,6.18-6.52Z"/>
            <path class="cls-1" d="m718.97,349.73c.04,1.29,1.4,2.47,3.04,2.65,3.36.4,4.46,2.43,5.87,7.99.48,1.89.94,3.68,1.79,5.17-.71-1.24-.09-2.54,1.39-2.89,1.46-.37,3.24.36,3.95,1.6-.53-.94-.91-2.43-1.32-4.02-1.16-4.55-2.91-11.44-11.83-12.47-1.63-.2-2.92.69-2.89,1.97Z"/>
            <g>
              <path class="cls-1" d="m708.23,352.95c-1.02.85-.85,2.32.42,3.3,5.11,3.96,10.09,10.97,9.72,16.71-.08,1.26,1.18,2.52,2.81,2.81,1.64.27,3.02-.51,3.11-1.78.48-7.62-5.82-16.11-11.89-20.81-1.27-.98-3.14-1.08-4.17-.24Z"/>
              <path class="cls-1" d="m636.78,333.01c-9.29.09-12.14-3.94-16.36-11.07-2.49-4.22-5.33-9-10.68-12.34-1.37-.85-3.21-.78-4.08.18-.87.96-.45,2.43.93,3.3,3.96,2.47,6.18,6.23,8.54,10.21,3.84,6.48,8.61,14.54,22.73,14.4,1.6-.03,2.66-1.08,2.37-2.38-.3-1.3-1.85-2.32-3.45-2.3Z"/>
              <path class="cls-1" d="m524.07,102.54c.11-.04.21-.04.31-.08.04-.01.09-.04.12-.05l-.43.13Z"/>
              <path class="cls-1" d="m586.93,106.67c1.24-.68,1.32-2.13.22-3.22-1.1-1.1-2.97-1.44-4.19-.74-3.19,1.82-5.37,4.79-7.47,7.66-2.53,3.46-4.91,6.72-8.35,7.02-2.1.17-4.88-.79-8.27-2.84l-6.22-4.4c-7.24-5.49-16.24-12.27-28.28-7.7-6.42,1.48-10.06,6.06-9.49,11.71.06.58.17,1.15.31,1.74,1.66,6.85,8.45,12.23,17.27,13.71.18.03,6.83,1.1,6.83,1.1,3.36.59,6.8,1.21,9.98,1.44.33,2.6.86,6.83.86,6.83,1.15,10.42,2.34,21.23,9.29,30.76.87,1.19,2.7,1.76,4.08,1.28,1.38-.49,1.79-1.86.93-3.06-6.19-8.48-7.3-18.7-8.4-28.58l-1.53-12-3.21.17c-3.2.11-7.5-.66-11.67-1.4l-7.08-1.12c-7.08-1.2-10.64-5.56-11.54-9.23-.8-3.31.26-7.61,5.97-8.87l.22-.06.2-.07c8.18-3.22,13.52.35,21.57,6.45l6.84,4.83c4.91,2.98,9.15,4.26,12.94,3.95,5.91-.51,9.01-4.75,12-8.84,1.87-2.53,3.78-5.15,6.18-6.52Z"/>
              <path class="cls-1" d="m718.97,349.73c.04,1.29,1.4,2.47,3.04,2.65,3.36.4,4.46,2.43,5.87,7.99.48,1.89.94,3.68,1.79,5.17,0,0,1.92,2.72,4.42,2.37,2.47-.35.91-3.66.91-3.66-.53-.94-.91-2.43-1.32-4.02-1.16-4.55-2.91-11.44-11.83-12.47-1.63-.2-2.92.69-2.89,1.97Z"/>
              <path class="cls-1" d="m739.25,322.45c-1.63-.26-3.01.56-3.06,1.82-.06,1.27,1.22,2.51,2.86,2.78,1.52.24,2.73.83,3.71,1.79,1.88,1.85,2.91,5.15,2.68,8.56-.08,1.27,1.17,2.51,2.8,2.8,1.63.29,3.02-.51,3.11-1.76.14-2.25.04-7.93-4.23-12.12-2.05-2.03-4.77-3.35-7.88-3.87Z"/>
              <path class="cls-2" d="m754.98,320.23c-15.09-13.22-41.84-11.51-61.18-12.9-9.64-.7-19.46.26-26.06-5.12-6.83-5.58-3.29-12.31-7.06-18.39l-.32-1.46c8.17,1.61,13.82.95,12.4-4.83-1.5-6.03-15.07-14.73-19.76-19.83-4.19-4.55-7.41-9.68-10.28-14.12,5.55.15,11.3.84,16.85.97-1.73-6.49-11.32-13.04-15.04-19.73-4.02-7.23-4.16-14.43-4.96-22.25l-.12-1.6c4.99.32,10,.61,14.96,1.11,17.06,1.73,28,6.8,44.7,6.01-.88-3.51,3.41-10.3.84-13.16-2.7-2.99-1.7-.66-6.64-1.05l2.27-7.48s-4.04,4.78-9.42,6.07c-7.24-1.85-14.03-4.35-19.95-6.1,4.7-2.81,23.43-6.86,34.88-10,.34,4.55-.13,9.11-.13,9.11,2.09-.26,3.93-6.17,5.03-10.55,2.58-.84,4.2-1.57,4.24-2.12-.25-4.99.09-6.79.02-8.97l-27.63-8.73c-1.05-.33-1.88-1.04-2.18-1.88-.3-.84-.03-1.67.71-2.16l12.76-8.54c-2.51-.8-5.27-1.5-8.28-2.23-8.88-2.09-19.33-2.84-26.4-9.12-6.53-5.8-4.47-15.21-12.15-20.27l-1.37-.88c-5.13-4.55-4.49-6.38-10.39-8.61l-.09-1.19c10.22-25.28-28.79-21.36-38.47-23.29-14.66-2.94-28.24-.46-42.82-1.37-10.11-.65-10.51,3.42-15.82,7.16-1.85,1.28-1.23,3.83-3.17,5.21-.74.54-7.37,2.22-8.71,2.34-14.96,1.33-33.86-2.32-49.5-3.46,9.67.27,21.71,14.69,32.67,12.04-5.61,6.66-25.41,7.88-36.91,5.51,7.78,3.58,12.51,16.92,22.49,17.17-9.37,3.38-23.51,11.57-24.17,15.05-1.59,8.27,18.99,20.32,3.05,24.29-6.57,1.63-50.92-9.25-42.03,3.78,1.53,2.24,7.87,2.57,9.36,5.55,1.81,3.6-1.85,4.99-3.04,7.51-2.56,5.47-7.25,11.74-4.95,18.38,7.11.79,14.37.96,21.48,1.76l-7.35,11.85c-.64,15.47-37.58,8-51.59,7.99-30.34-.05-60.39-1.26-91.26-3.49-11.88-.86-25.67-3.64-35.56-.24-9.34,3.2-17.81,10.14-24.39,15.57-7.06,5.83-13.78,12.42-20.06,18.56-6.22,6.1-13.51,8.2-21.8,11.79-.49.24-.99.48-1.48.74,0,0-38.58,7.73-36.81-19.29,1.15-17.61,7.41-35.89,20.35-47.19,4.82-4.21,32.25-7.34,53.99.51,21.72,7.85,62.48,3.97,62.48,3.97,29.21,4.09,62.65-14.21,71.03-19.15-3.53-.22-11.21-1.45-27.27-5.04-37.67-8.45-51.9,15.05-51.9,15.05-26.3,11.21-90.83-12.44-90.83-12.44-35.42-12.61-52.53,19.46-60.71,39.53-5.63,13.83-12.78,45.12,4.27,58.85,12.06,9.71,27.71,15.71,43.43,14.8,4.9-.28,18.87-1.65,28.14-3.71-6.15,9.09,1.59,32.41,6.31,39.2,13.91,20,45.18,35.02,54.35,55.99,6.22,14.23,8.45,33.7,2.33,47.4-3.2,7.19-8.6,12.93-12.92,18.86-4.33,5.96-5.93,12.6-11.82,17.64-5.1,4.37-11.43,6.51-19.07,7.04l-1.01-.06c1.86,18.24,6.11,39.73,26.96,51.66,13.07,7.48,17.93,3.12,29.94,2.48,9.07-.47,19.27,2.79,20.89,8.91-.37-2.87-1.4-5.8-2.84-8.25,7.55-1.03,10,3.97,16.12,5.62-.52-4.04-4.97-8.16-6.91-11.96,6.99-.38,13.9,2.73,20.84,2.81.87-17.58-15.4-28.64-33.93-34.57-4.36-6.42-4.57-10.48.23-13.84,8.52-5.98,14.09-9.5,16.97-18.98,1.39-4.52.9-6.65,3.97-10.78,3.1-4.16,6.54-6.39,10.73-9.6,5.94-4.58,9.94-9.54,14.23-14.38,5.23-5.9,15.83-10.92,19.44-17.21,3.12-5.42-.86-12.86.98-18.83,1.95-6.31,7.52-11.76,12.14-17.1,1.43-1.66,2.67-3.45,3.81-5.32,14.85.12,28.97-5.43,45.73-3.61,16.65,1.79,33.44,3.91,50.02,5.21l.7-.24c.59,6.12-.75,19.99,1.91,25.32,3.12,6.24,6.72,6.23,10.93,11.92,2.67,3.59,8.41,5.08,13.73,7.96,4.78,2.58,12,2.31,17.16,2.81,10.88,1.06,16.18-.98,25.29-3.85,14.95-4.72,30.98-8.34,45.5-12.97,25.48-8.09,56.15-21.36,85.74-20.28,17.44.65,34.3,3.27,49.19-1.23.06-.44.13-.86.2-1.3,3.99-1.37,8.63-1.16,13.37-1.62-.51-14.09-9.73-26.05-24.45-31.95,3.47.14,6.96.31,10.52.57,5.26.38,21.84,3.81,25.94,1.94,7.84-3.57-.27-17.04-5.62-21.7Zm-186.24-198.19c-3.79.31-8.03-.97-12.94-3.95l-6.84-4.83c-8.05-6.1-13.39-9.67-21.57-6.45l-.2.07-.22.06c-5.7,1.26-6.77,5.56-5.97,8.87.9,3.67,4.46,8.03,11.54,9.23l7.08,1.12c4.17.74,8.47,1.51,11.67,1.4l3.21-.17,1.53,12c1.1,9.88,2.21,20.1,8.4,28.58.86,1.2.45,2.56-.93,3.06-1.38.49-3.22-.09-4.08-1.28-6.95-9.53-8.14-20.34-9.29-30.76,0,0-.53-4.24-.86-6.83-3.17-.23-6.62-.85-9.98-1.44,0,0-6.65-1.07-6.83-1.1-8.81-1.48-15.6-6.86-17.27-13.71-.15-.59-.26-1.17-.31-1.74-.57-5.65,3.07-10.23,9.49-11.71-.1.04-.2.04-.31.08l.43-.13s-.08.04-.12.05c12.04-4.57,21.04,2.21,28.28,7.7l6.22,4.4c3.38,2.05,6.16,3.01,8.27,2.84,3.44-.3,5.82-3.56,8.35-7.02,2.1-2.88,4.28-5.85,7.47-7.66,1.22-.69,3.09-.36,4.19.74,1.1,1.09,1.01,2.54-.22,3.22-2.4,1.37-4.31,3.99-6.18,6.52-3,4.09-6.1,8.34-12,8.84Zm69.12,215.65c-14.12.14-18.89-7.92-22.73-14.4-2.36-3.98-4.58-7.73-8.54-10.21-1.38-.86-1.8-2.34-.93-3.3.88-.97,2.71-1.03,4.08-.18,5.35,3.34,8.19,8.12,10.68,12.34,4.22,7.13,7.07,11.16,16.36,11.07,1.61-.02,3.15,1,3.45,2.3.29,1.3-.77,2.35-2.37,2.38Zm86.43,36.31c-.08,1.26-1.47,2.05-3.11,1.78-1.63-.29-2.89-1.55-2.81-2.81.38-5.75-4.61-12.75-9.72-16.71-1.28-.97-1.45-2.45-.42-3.3,1.03-.84,2.9-.73,4.17.24,6.07,4.69,12.37,13.18,11.89,20.81Zm9.39-13.76c.41,1.59.79,3.08,1.32,4.02,0,0,1.56,3.32-.91,3.66-2.5.36-4.42-2.37-4.42-2.37-.86-1.49-1.31-3.28-1.79-5.17-1.41-5.56-2.5-7.59-5.87-7.99-1.63-.18-2.99-1.36-3.04-2.65-.04-1.27,1.26-2.16,2.89-1.97,8.91,1.04,10.66,7.92,11.83,12.47Zm17.68-21.79c-.09,1.26-1.48,2.05-3.11,1.76-1.63-.29-2.88-1.53-2.8-2.8.22-3.42-.8-6.71-2.68-8.56-.98-.97-2.2-1.56-3.71-1.79-1.64-.28-2.91-1.51-2.86-2.78.05-1.26,1.43-2.08,3.06-1.82,3.11.52,5.83,1.85,7.88,3.87,4.27,4.19,4.37,9.87,4.23,12.12Z"/>
            </g>
          </g>
        </g>
        <g class="cls-22">
          <g>
            <path class="cls-3" d="m313.36,535.63c.13.98.18,1.96.15,2.92.16-1.03.09-1.99-.15-2.92Z"/>
            <path class="cls-8" d="m709.61,158.9c-.14-.63-.29-1.3-.47-2.07-1.39-5.87-4.49-9.35-9.06-11.79-2.98,2.01-8,5.36-11.02,7.38,4.44,1.39,13.82,4.36,20.55,6.49Z"/>
            <path class="cls-7" d="m524.07,102.54c.11-.04.21-.04.31-.08.04-.01.09-.04.12-.05l-.43.13Z"/>
            <g>
              <path class="cls-10" d="m708.23,352.95c-1.02.85-.85,2.32.42,3.3,5.11,3.96,10.09,10.97,9.72,16.71-.08,1.26,1.18,2.52,2.81,2.81,1.64.27,3.02-.51,3.11-1.78.48-7.62-5.82-16.11-11.89-20.81-1.27-.98-3.14-1.08-4.17-.24Z"/>
              <path class="cls-11" d="m636.78,333.01c-9.29.09-12.14-3.94-16.36-11.07-2.49-4.22-5.33-9-10.68-12.34-1.37-.85-3.21-.78-4.08.18-.87.96-.45,2.43.93,3.3,3.96,2.47,6.18,6.23,8.54,10.21,3.84,6.48,8.61,14.54,22.73,14.4,1.6-.03,2.66-1.08,2.37-2.38-.3-1.3-1.85-2.32-3.45-2.3Z"/>
              <path class="cls-9" d="m524.07,102.54c.11-.04.21-.04.31-.08.04-.01.09-.04.12-.05l-.43.13Z"/>
              <path class="cls-12" d="m586.93,106.67c1.24-.68,1.32-2.13.22-3.22-1.1-1.1-2.97-1.44-4.19-.74-3.19,1.82-5.37,4.79-7.47,7.66-2.53,3.46-4.91,6.72-8.35,7.02-2.1.17-4.88-.79-8.27-2.84l-6.22-4.4c-7.24-5.49-16.24-12.27-28.28-7.7-6.42,1.48-10.06,6.06-9.49,11.71.06.58.17,1.15.31,1.74,1.66,6.85,8.45,12.23,17.27,13.71.18.03,6.83,1.1,6.83,1.1,3.36.59,6.8,1.21,9.98,1.44.33,2.6.86,6.83.86,6.83,1.15,10.42,2.34,21.23,9.29,30.76.87,1.19,2.7,1.76,4.08,1.28,1.38-.49,1.79-1.86.93-3.06-6.19-8.48-7.3-18.7-8.4-28.58l-1.53-12-3.21.17c-3.2.11-7.5-.66-11.67-1.4l-7.08-1.12c-7.08-1.2-10.64-5.56-11.54-9.23-.8-3.31.26-7.61,5.97-8.87l.22-.06.2-.07c8.18-3.22,13.52.35,21.57,6.45l6.84,4.83c4.91,2.98,9.15,4.26,12.94,3.95,5.91-.51,9.01-4.75,12-8.84,1.87-2.53,3.78-5.15,6.18-6.52Z"/>
              <path class="cls-5" d="m718.97,349.73c.04,1.29,1.4,2.47,3.04,2.65,3.36.4,4.46,2.43,5.87,7.99.48,1.89.94,3.68,1.79,5.17-.71-1.24-.09-2.54,1.39-2.89,1.46-.37,3.24.36,3.95,1.6-.53-.94-.91-2.43-1.32-4.02-1.16-4.55-2.91-11.44-11.83-12.47-1.63-.2-2.92.69-2.89,1.97Z"/>
              <g>
                <path class="cls-6" d="m708.23,352.95c-1.02.85-.85,2.32.42,3.3,5.11,3.96,10.09,10.97,9.72,16.71-.08,1.26,1.18,2.52,2.81,2.81,1.64.27,3.02-.51,3.11-1.78.48-7.62-5.82-16.11-11.89-20.81-1.27-.98-3.14-1.08-4.17-.24Z"/>
                <path class="cls-20" d="m636.78,333.01c-9.29.09-12.14-3.94-16.36-11.07-2.49-4.22-5.33-9-10.68-12.34-1.37-.85-3.21-.78-4.08.18-.87.96-.45,2.43.93,3.3,3.96,2.47,6.18,6.23,8.54,10.21,3.84,6.48,8.61,14.54,22.73,14.4,1.6-.03,2.66-1.08,2.37-2.38-.3-1.3-1.85-2.32-3.45-2.3Z"/>
                <path class="cls-18" d="m524.07,102.54c.11-.04.21-.04.31-.08.04-.01.09-.04.12-.05l-.43.13Z"/>
                <path class="cls-19" d="m586.93,106.67c1.24-.68,1.32-2.13.22-3.22-1.1-1.1-2.97-1.44-4.19-.74-3.19,1.82-5.37,4.79-7.47,7.66-2.53,3.46-4.91,6.72-8.35,7.02-2.1.17-4.88-.79-8.27-2.84l-6.22-4.4c-7.24-5.49-16.24-12.27-28.28-7.7-6.42,1.48-10.06,6.06-9.49,11.71.06.58.17,1.15.31,1.74,1.66,6.85,8.45,12.23,17.27,13.71.18.03,6.83,1.1,6.83,1.1,3.36.59,6.8,1.21,9.98,1.44.33,2.6.86,6.83.86,6.83,1.15,10.42,2.34,21.23,9.29,30.76.87,1.19,2.7,1.76,4.08,1.28,1.38-.49,1.79-1.86.93-3.06-6.19-8.48-7.3-18.7-8.4-28.58l-1.53-12-3.21.17c-3.2.11-7.5-.66-11.67-1.4l-7.08-1.12c-7.08-1.2-10.64-5.56-11.54-9.23-.8-3.31.26-7.61,5.97-8.87l.22-.06.2-.07c8.18-3.22,13.52.35,21.57,6.45l6.84,4.83c4.91,2.98,9.15,4.26,12.94,3.95,5.91-.51,9.01-4.75,12-8.84,1.87-2.53,3.78-5.15,6.18-6.52Z"/>
                <path class="cls-16" d="m718.97,349.73c.04,1.29,1.4,2.47,3.04,2.65,3.36.4,4.46,2.43,5.87,7.99.48,1.89.94,3.68,1.79,5.17,0,0,1.92,2.72,4.42,2.37,2.47-.35.91-3.66.91-3.66-.53-.94-.91-2.43-1.32-4.02-1.16-4.55-2.91-11.44-11.83-12.47-1.63-.2-2.92.69-2.89,1.97Z"/>
                <path class="cls-17" d="m739.25,322.45c-1.63-.26-3.01.56-3.06,1.82-.06,1.27,1.22,2.51,2.86,2.78,1.52.24,2.73.83,3.71,1.79,1.88,1.85,2.91,5.15,2.68,8.56-.08,1.27,1.17,2.51,2.8,2.8,1.63.29,3.02-.51,3.11-1.76.14-2.25.04-7.93-4.23-12.12-2.05-2.03-4.77-3.35-7.88-3.87Z"/>
                <g>
                  <path class="cls-1" d="m712.4,353.19c-1.27-.98-3.14-1.08-4.17-.24-1.02.85-.85,2.32.42,3.3,5.11,3.96,10.09,10.97,9.72,16.71-.08,1.26,1.18,2.52,2.81,2.81,1.64.27,3.02-.51,3.11-1.77.48-7.62-5.82-16.11-11.89-20.81Z"/>
                  <path class="cls-1" d="m636.78,333.01c-9.29.09-12.14-3.94-16.36-11.07-2.49-4.22-5.33-9-10.68-12.34-1.37-.85-3.21-.78-4.08.18-.87.96-.45,2.43.93,3.3,3.96,2.47,6.18,6.23,8.54,10.21,3.84,6.48,8.61,14.54,22.73,14.4,1.6-.03,2.66-1.08,2.37-2.38-.3-1.3-1.85-2.32-3.45-2.3Z"/>
                  <path class="cls-1" d="m582.96,102.71c-3.19,1.82-5.37,4.79-7.47,7.66-2.53,3.46-4.91,6.72-8.35,7.02-2.1.17-4.88-.79-8.27-2.84l-6.22-4.4c-7.24-5.49-16.24-12.27-28.28-7.7-6.42,1.48-10.06,6.06-9.49,11.71.06.58.17,1.15.31,1.74,1.66,6.85,8.45,12.23,17.27,13.71.18.03,6.83,1.1,6.83,1.1,3.36.59,6.8,1.21,9.98,1.44.33,2.6.86,6.83.86,6.83,1.15,10.42,2.34,21.23,9.29,30.76.87,1.19,2.7,1.76,4.08,1.28,1.38-.5,1.79-1.86.93-3.06-6.19-8.48-7.3-18.7-8.4-28.58l-1.53-12-3.21.17c-3.2.11-7.5-.66-11.67-1.4l-7.08-1.12c-7.08-1.2-10.64-5.56-11.54-9.23-.8-3.31.26-7.61,5.97-8.87l.22-.06.2-.07c8.18-3.22,13.52.35,21.57,6.45l6.84,4.83c4.91,2.98,9.15,4.26,12.94,3.95,5.91-.51,9.01-4.75,12-8.84,1.87-2.53,3.78-5.15,6.18-6.52,1.24-.68,1.32-2.13.22-3.22-1.1-1.1-2.97-1.44-4.19-.74Z"/>
                  <path class="cls-1" d="m524.07,102.54c.11-.04.21-.04.31-.08.04-.01.09-.04.12-.05l-.43.13Z"/>
                  <path class="cls-1" d="m739.25,322.45c-1.63-.26-3.01.56-3.06,1.82-.06,1.27,1.22,2.51,2.86,2.78,1.52.24,2.73.83,3.71,1.79,1.88,1.85,2.91,5.15,2.68,8.56-.08,1.27,1.17,2.51,2.8,2.8,1.63.29,3.02-.51,3.11-1.76.14-2.25.04-7.93-4.23-12.12-2.05-2.03-4.77-3.35-7.88-3.87Z"/>
                  <path class="cls-1" d="m718.97,349.73c.04,1.29,1.4,2.47,3.04,2.65,3.36.4,4.46,2.43,5.87,7.99.48,1.89.94,3.68,1.79,5.17,0,0,1.92,2.72,4.42,2.37,2.47-.35.91-3.66.91-3.66-.53-.94-.91-2.43-1.32-4.02-1.16-4.55-2.91-11.44-11.83-12.47-1.63-.2-2.92.69-2.89,1.97Z"/>
                  <path class="cls-21" d="m754.98,320.23c-15.09-13.22-41.84-11.51-61.18-12.9-9.64-.7-19.46.26-26.06-5.12-6.83-5.58-3.29-12.31-7.06-18.39l-.32-1.46c8.17,1.61,13.82.95,12.4-4.83-1.5-6.03-15.07-14.73-19.76-19.83-4.19-4.55-7.41-9.68-10.28-14.12,5.55.15,11.3.84,16.85.97-1.73-6.49-11.32-13.04-15.04-19.73-4.02-7.23-4.16-14.43-4.96-22.25l-.12-1.6c4.99.32,10,.61,14.96,1.11,17.06,1.73,28,6.8,44.7,6.01-.88-3.51,3.41-10.3.84-13.16-2.7-2.99-1.7-.66-6.64-1.05l2.27-7.48s-4.04,4.78-9.42,6.07c-7.24-1.85-14.03-4.35-19.95-6.1,4.7-2.81,23.43-6.86,34.88-10,.34,4.55-.13,9.1-.13,9.1,2.09-.26,3.93-6.17,5.03-10.55,2.58-.84,4.2-1.57,4.24-2.12-.25-4.99.09-6.79.02-8.97l-27.63-8.73c-1.05-.33-1.88-1.04-2.18-1.88-.3-.84-.03-1.67.71-2.16l12.76-8.54c-2.51-.8-5.27-1.5-8.28-2.23-8.88-2.09-19.33-2.84-26.4-9.12-6.53-5.8-4.47-15.21-12.15-20.27l-1.37-.88c-5.13-4.55-4.49-6.38-10.39-8.61l-.09-1.19c10.22-25.28-28.79-21.36-38.47-23.29-14.66-2.94-28.24-.46-42.82-1.37-10.11-.65-10.51,3.42-15.82,7.16-1.85,1.28-1.23,3.83-3.17,5.21-.74.54-7.37,2.22-8.71,2.34-14.64,1.3-33.04-2.16-48.48-3.38,9.49,1.18,21.08,14.51,31.65,11.96-5.61,6.66-25.41,7.88-36.91,5.51,7.78,3.58,12.51,16.92,22.49,17.17-9.37,3.38-23.51,11.57-24.17,15.05-1.59,8.27,18.99,20.32,3.05,24.29-6.57,1.63-50.93-9.25-42.03,3.78,1.53,2.24,7.87,2.57,9.36,5.55,1.81,3.6-1.85,4.99-3.04,7.51-2.56,5.47-7.25,11.74-4.96,18.38,7.11.79,14.37.96,21.48,1.76l-7.35,11.85c-.64,15.47-37.58,8-51.59,7.99-30.33-.05-60.39-1.26-91.26-3.49-11.88-.86-25.67-3.64-35.56-.24-9.34,3.2-17.81,10.14-24.39,15.57-7.06,5.83-13.78,12.42-20.06,18.56-6.22,6.1-13.51,8.2-21.8,11.79-.49.24-.99.48-1.48.74,0,0-38.58,7.73-36.81-19.29,1.15-17.61,7.41-35.89,20.35-47.19,4.82-4.21,32.25-7.34,53.99.51,21.72,7.85,62.48,3.97,62.48,3.97,29.21,4.1,62.65-14.21,71.03-19.15-3.53-.22-11.21-1.45-27.27-5.04-37.67-8.45-51.9,15.05-51.9,15.05-26.3,11.21-90.83-12.44-90.83-12.44-35.42-12.61-52.53,19.46-60.71,39.53-5.63,13.83-12.78,45.12,4.27,58.85,12.06,9.71,27.71,15.71,43.43,14.8,4.9-.28,18.87-1.65,28.14-3.71-6.15,9.09,1.59,32.41,6.31,39.2,13.91,20,45.18,35.02,54.35,55.99,6.22,14.23,8.45,33.7,2.33,47.4-3.2,7.19-8.6,12.93-12.92,18.86-4.33,5.96-5.93,12.6-11.82,17.64-5.1,4.37-11.43,6.51-19.07,7.04l-1.01-.06c1.86,18.24,6.11,39.73,26.96,51.66,13.07,7.48,17.93,3.12,29.94,2.48,9.07-.47,19.27,2.79,20.89,8.91-.36-2.87-1.4-5.8-2.84-8.25,7.55-1.03,10,3.97,16.12,5.62-.52-4.04-4.97-8.16-6.91-11.96,6.99-.38,13.9,2.73,20.84,2.81.87-17.58-15.4-28.64-33.93-34.57-4.36-6.42-4.57-10.48.23-13.84,8.52-5.98,14.09-9.5,16.97-18.98,1.39-4.52.9-6.65,3.97-10.78,3.1-4.16,6.54-6.39,10.73-9.6,5.94-4.58,9.94-9.54,14.23-14.38,5.23-5.9,15.83-10.92,19.44-17.21,3.12-5.42-.86-12.86.98-18.83,1.95-6.31,7.52-11.76,12.14-17.1,1.43-1.66,2.67-3.45,3.81-5.32,14.85.12,28.97-5.43,45.73-3.61,16.65,1.79,33.44,3.91,50.02,5.21l.7-.24c.59,6.12-.75,19.99,1.91,25.32,3.12,6.24,6.72,6.23,10.93,11.92,2.67,3.59,8.41,5.08,13.73,7.96,4.78,2.58,12,2.31,17.16,2.81,10.88,1.06,16.18-.98,25.29-3.85,14.95-4.72,30.98-8.34,45.5-12.97,25.48-8.09,56.15-21.36,85.74-20.28,17.44.65,34.3,3.27,49.19-1.23.05-.44.13-.86.2-1.3,3.99-1.37,8.63-1.16,13.37-1.62-.51-14.09-9.73-26.05-24.45-31.95,3.47.14,6.96.31,10.52.57,5.26.38,21.84,3.81,25.94,1.94,7.84-3.57-.27-17.04-5.62-21.7Z"/>
                </g>
              </g>
            </g>
          </g>
        </g>
      </g>
      <text class="cls-23" transform="translate(577.41 263.79) rotate(.45)"><tspan x="0" y="0">軒轅十二</tspan></text>
      <text class="cls-23" transform="translate(634.38 363.78) rotate(.51)"><tspan x="0" y="0">軒轅十四</tspan></text>
      <text class="cls-23" transform="translate(160.47 349.95) rotate(.13)"><tspan x="0" y="0">五帝座一</tspan></text>
      <g>
        <ellipse class="cls-15" cx="92.74" cy="101.94" rx="2.83" ry="2.94" transform="translate(-40.23 138.17) rotate(-62.95)"/>
        <path class="cls-15" d="m184.05,76.92c.69,1.19.27,2.66-.92,3.3-1.19.63-2.72.19-3.4-1-.69-1.19-.27-2.66.92-3.3,1.19-.63,2.72-.19,3.4,1Z"/>
        <path class="cls-15" d="m233.36,79.38c.69,1.19.27,2.66-.92,3.3-1.19.63-2.72.19-3.4-1-.69-1.19-.27-2.66.92-3.3,1.19-.63,2.72-.19,3.4,1Z"/>
        <path class="cls-15" d="m324.01,90.77c.69,1.19.27,2.66-.92,3.3-1.19.63-2.72.19-3.4-1-.69-1.19-.27-2.66.92-3.3,1.19-.63,2.72-.19,3.4,1Z"/>
        <path class="cls-15" d="m144.89,68.28c1.1,1.91.44,4.28-1.48,5.31-1.92,1.02-4.37.3-5.47-1.61-1.1-1.91-.44-4.28,1.48-5.31,1.92-1.02,4.37-.3,5.47,1.61Z"/>
        <path class="cls-15" d="m258.06,111.32c1.1,1.91.44,4.28-1.48,5.31-1.92,1.02-4.37.3-5.47-1.61-1.1-1.91-.44-4.28,1.48-5.31,1.92-1.02,4.37-.3,5.47,1.61Z"/>
        <path class="cls-15" d="m317.44,42.56c1.1,1.91.44,4.28-1.48,5.31-1.92,1.02-4.37.3-5.47-1.61-1.1-1.91-.44-4.28,1.48-5.31,1.92-1.02,4.37-.3,5.47,1.61Z"/>
        <path class="cls-15" d="m97.51,98.43c-.13-.03-.25-.1-.32-.22-.15-.23-.08-.52.15-.66l37.4-22.5c.23-.13.53-.06.68.16.15.23.08.52-.15.66l-37.4,22.5c-.11.06-.24.08-.35.06Z"/>
        <path class="cls-15" d="m148.08,71.52c-.26-.05-.44-.3-.39-.56.04-.26.29-.43.56-.38l28.6,5.41s0,0,0,0c.26.05.44.3.39.56-.04.26-.29.43-.56.38l-28.6-5.41s0,0,0,0Z"/>
        <path class="cls-15" d="m187.03,79.17c-.23-.05-.4-.25-.4-.49,0-.26.22-.47.49-.46l39.37,1.52c.27,0,.49.23.48.5,0,.26-.22.47-.49.46l-39.37-1.52s-.06,0-.08-.01Z"/>
        <path class="cls-15" d="m236.38,78.19c-.15-.03-.28-.13-.35-.27-.12-.24-.02-.52.23-.63l70.44-31.3c.24-.11.54,0,.65.24.12.24.02.52-.23.63l-70.44,31.3c-.1.04-.2.05-.3.03Z"/>
        <path class="cls-15" d="m321.27,86.64c-.19-.04-.36-.19-.39-.4l-6.54-35.2c-.05-.26.13-.51.39-.54.26-.05.52.14.57.4l6.54,35.2c.05.26-.13.51-.39.54-.06.01-.12,0-.18,0Z"/>
        <path class="cls-15" d="m261.37,112.32c-.16-.03-.31-.15-.37-.31-.09-.25.03-.52.29-.61l55.71-18.57c.25-.08.53.05.63.3.09.25-.03.52-.29.61l-55.71,18.57c-.09.03-.17.03-.26.01Z"/>
        <path class="cls-15" d="m251.31,108.1c-.12-.02-.23-.09-.31-.2l-16.52-22.87c-.16-.22-.11-.52.11-.66.22-.15.53-.09.68.13l16.52,22.87c.16.22.11.52-.11.66-.11.08-.25.1-.37.07Z"/>
      </g>
      <text class="cls-23" transform="translate(67.42 133.61) rotate(-.03)"><tspan x="0" y="0">北斗七星</tspan></text>
      <text class="cls-23" transform="translate(326.42 42.61) rotate(-.03)"><tspan x="0" y="0">天樞</tspan></text>
      <text class="cls-23" transform="translate(331.42 100.61) rotate(-.03)"><tspan x="0" y="0">天璇</tspan></text>
    </g>
  </g>
</svg>