<?xml version="1.0" encoding="UTF-8"?>
<svg xmlns="http://www.w3.org/2000/svg" xmlns:xlink="http://www.w3.org/1999/xlink" viewBox="0 0 759 546">
  <defs>
    <style>
      .cls-1 {
        fill: none;
      }

      .cls-1, .cls-2, .cls-3, .cls-4, .cls-5, .cls-6, .cls-7 {
        stroke-width: 0px;
      }

      .cls-2 {
        fill: url(#linear-gradient);
      }

      .cls-8 {
        fill: #fff;
        font-family: KozGoPr6N-Regular-83pv-RKSJ-H, 'Kozuka Gothic Pr6N';
        font-size: 15.7px;
      }

      .cls-9 {
        mix-blend-mode: soft-light;
      }

      .cls-3 {
        fill: url(#_未命名漸層_264);
      }

      .cls-10 {
        isolation: isolate;
      }

      .cls-4 {
        fill: #b3b3b3;
      }

      .cls-5 {
        fill: url(#_未命名漸層_264-4);
      }

      .cls-6 {
        fill: url(#_未命名漸層_264-3);
      }

      .cls-7 {
        fill: url(#_未命名漸層_264-2);
      }
    </style>
    <linearGradient id="linear-gradient" x1="268.74" y1="271" x2="574.26" y2="271" gradientTransform="translate(712.22 -61.46) rotate(98.56)" gradientUnits="userSpaceOnUse">
      <stop offset="0" stop-color="#2a5ca2"/>
      <stop offset="1" stop-color="#1a2a53"/>
    </linearGradient>
    <radialGradient id="_未命名漸層_264" data-name="未命名漸層 264" cx="448.89" cy="422.96" fx="448.89" fy="422.96" r="16.68" gradientTransform="translate(712.22 -61.46) rotate(98.56)" gradientUnits="userSpaceOnUse">
      <stop offset=".24" stop-color="#158abf"/>
      <stop offset="1" stop-color="#fff"/>
    </radialGradient>
    <radialGradient id="_未命名漸層_264-2" data-name="未命名漸層 264" cx="461.36" cy="72.01" fx="461.36" fy="72.01" r="1.48" xlink:href="#_未命名漸層_264"/>
    <radialGradient id="_未命名漸層_264-3" data-name="未命名漸層 264" cx="416.4" cy="255.1" fx="416.4" fy="255.1" r="90.05" xlink:href="#_未命名漸層_264"/>
    <radialGradient id="_未命名漸層_264-4" data-name="未命名漸層 264" cx="421.5" cy="271" fx="421.5" fy="271" r="198.44" xlink:href="#_未命名漸層_264"/>
  </defs>
  <g class="cls-10">
    <g id="_圖層_1" data-name="圖層 1">
      <g>
        <path class="cls-1" d="m246.36,305.76c-14.99-.01-25.01,13.29-32.08,21.2-2.03,2.27-4.13,4.29-6.33,6.2,2.17-1.28,4.31-2.57,6.34-3.84,11.28-7.12,21.89-15.53,32.07-23.56Z"/>
        <path class="cls-4" d="m574.37,384.51c-1.36-.33-2.71-.65-4.06-.96,1.45.5,2.82.84,4.06.96Z"/>
        <g>
          <path class="cls-1" d="m293.48,327.9l2.92-3.34c6.71-6.98,15.18-13.8,23.36-20.4l2.65-2.14,5.38-3.86c2.68-1.83,5.45-3.73,7.85-5.94l5.76-6.49c2.5-3.13,4.87-6.08,8.01-8.07,4.82-3.07,11.9-3.11,19.4-3.16l4.35-.05c25.2-.55,43.08,7.49,65.42,21.55,12.32,7.75,24.37,13.14,37.11,18.84l7.6,2.87c3.22,1.09,6.24,2.13,8.7,3.54l2.85,1.61c3.63,2.02,10.39,5.78,11.95,7.85,1.53,2.02,4.79,2.89,7.27,1.94,2.48-.93,3.22-3.33,1.7-5.33-2.66-3.48-8.54-6.92-15.35-10.74l-2.68-1.52c-3.57-2.05-7.4-3.36-11.1-4.63l-6.41-2.4c-12.31-5.5-23.95-10.72-35.49-17.99-23.92-15.05-44.48-24.25-73.11-23.63l-4.15.05c-8.44.06-18.02.12-25.34,4.78-4.26,2.72-7.12,6.28-9.89,9.73l-5.06,5.71c-1.96,1.83-4.38,3.47-6.92,5.22l-5.9,4.25-2.62,2.13c-8,6.43-17.06,13.73-24.09,21.06l-3.24,3.68c-2.54,3.02-4.94,5.88-8.54,7.51-2.36,1.07-2.91,3.51-1.19,5.45,1.7,1.94,4.99,2.65,7.36,1.57,5.38-2.45,8.62-6.28,11.47-9.67Z"/>
          <path class="cls-2" d="m212.18,377.4c9.08-4.38,17.91-11.05,21.53-14.32,12.16-10.98,18.76-2.92,33.63-11.16-2.09,3.56-5.49,6.17-8.59,9.13-6.29,6.06-19.54,17.16-26.21,21.84-56.87,39.88-51.28,49.56-51.84,56.36,6.31-2.32,65.29-43.98,69.06-48.06,3.81-4.11,8.72-6.42,12.9-10.18,4.66-4.19,5.71-6.59,12.34-9.32,5.82-2.37,11.83-4.23,17.68-6.59l1.1-.18c8.12,2.79,17.55,3.92,25.47,3.75,8.33-.18,16.63.09,24.91-.27,4.78-.21,16.4-5.34,18.7-.38,1.68.82,2.06.98,3.53,2.19,7.78,1.09,15,.28,23.18.55,20.14.64,39.79-1.65,59.93-2.49,16.94-.69,38.93-3.13,53.39-9.11,2.37-.98,4.73-2,7.07-3.1l-.15.27c14.57-2.52,19.81,4.78,25.35,10.77,9.66,10.4,22.07,13.38,35.15,16.45-9.06-3.18-20.99-13.22-25.8-18.18-3.46-3.58-5.37-6.97-9.59-10.12-3.55-2.64-7.73-4.55-10.89-7.25,1.03-.76,2.01-1.56,2.94-2.37,7.02,1.79,13.23,5.11,19.28,8.63,8.77,5.12,18.28,10.14,26.44,15.82,5.71,3.98,9.96,8.03,17.42,9.94-2.65-8.03-13.21-13.61-20.67-19.52-9.3-7.35-23.96-14.73-36.22-22.09.13-.21.25-.43.38-.63,5.92,2.2,12.32,4.05,15.1,5,16.25,5.57,33.8,16.95,47.93,25.56-7.87-6.69-15.91-14.05-23.32-21.38-4.77-4.74-9.87-9.24-16.39-12.44-6.51-3.22-15.84-5.86-20.05-11.49,11.73.74,26.24,6.61,37.23,11.27,11.31,4.79,31.91,14.23,39.15,22.79-3.25-6.14-7.21-10.04-11.69-14.52-3.9-3.89-9.79-6.21-12.39-10.82-2.6-4.61-12.11-5.98-17.53-9.39-11.18-7.03-19.01-6.55-29.53-12.22.63-.63,1.27-1.27,1.89-1.93,7.8,4.18,14.96,2.97,23.11-.83,6.47-3.02,7.08-6.5,6.33-12.7-.79-6.75-6.29-8.64-9.98-14.03.99-.24,2.01-.55,3.08-.99,8.53-3.57,16.57-10.49,14.19-18.41-1.65-5.51-7.22-14.41-15.61-14.95,2.85-1.77,5.26-3.55,6.92-5.04,8.68-7.88,4.03-18.68-4.41-27.94-11.3-12.39-32.21-20.89-49.03-27.27-8.03-3.05-17.07-6.86-25.22-8.61-6.98-1.52-13.79-.75-20.83-1.53,10.36,8.53,28.41,13.4,36.36,25.39-8.34-2.98-16.06-7.47-24.7-9.27-6.13-1.28-12.34-3.53-18.8-6.22.55,5.21,10.06,13.19,14.72,17.48,6.03,5.58,12.2,11.88,19.67,16.7,14.99,9.62,5.16,12.33,20.1,22.38,9.44,6.34,9.48,4.65,9.48,4.65.03,3.06,2.47,5.72,5.7,7.1-.34,5.08,6,13.28,9.4,17.16-6.36,2.5-16.81,4.9-18.83,10.34-.06.15-.06.31-.12.46-.67-.45-1.07-.72-1.07-.72.12-6.07-6.78-15.49-10.34-21.33-4.31-7.07-13.45-14.58-20.35-20.25-14.03-11.55-36.46-17.64-55.38-20.28-9.02-1.27-23.28-1.45-30.12-6.14-3.08-2.11-4.65-5.77-7.4-8.15-.86-.75-1.34-1.35-1.85-1.89,1.37-5.38-.1-11.42.41-16.02.14-1.44,1.56-5.45,2.38-6.26,1.23-1.26,5.57-1.8,5.97-3.32.83-3.2-7.03-8.81-10.72-8.23-8.22,1.27-3.66,2.61-2.92,9.4,2,7.69-6.63,15.53-5.62,22.29-3.49,2.26-5.35,6.67-8.32,9.54-6.18,5.92-8.6,5.94-19.19,6.63-7.15.48-18.08,3.21-24.88.1-3.59-1.64-5.3-4.61-7.6-7.45-.73-.9-1.41-1.65-2.05-2.34-.45-2.07-1.37-3.72-1.37-3.72-1.26-7.08-7.49-13.98-9.58-21.16-2.04-7.09.6-5.81,6.3-9.2,3.69-2.17,4.69-2.95,2.88-6.77-4.35-9.17-16.45-5.63-16.14,2.44.41,10.5,4.7,21.41,5.12,31.91,0,0-.05.57-.09,1.49-4.09,2.24-3.77,4.61-3.74,9.91-13.86,5-27.9,10.92-41.56,16.5-8.49,3.48-16.99,6.97-25.5,10.44-2.07.86-12.1,6.21-14.51,9.09-2.89-5.44-9.45-11.31-14.35-15.3-.44-.35-.91-.63-1.37-.9,1.92-.97,3.85-2.05,5.03-3.07,2.47-2.15,2.05-6.65,4.99-8.67,4.14-2.84,14-4.07,19.47-6.31,6.39-2.62,11.76-6.19,18.01-8.74-8.57-.6-16.93-5.06-26.07-5.88-4.01-.36-7.8-.85-11.58-1.44,6-.43,12.86-3.53,16.83-5.16,5.36-2.2,10.33-4.17,16.22-5.54,5.38-1.23,12.82-1.14,17.39-3.17-8.54-4.7-17.01-8.9-27.07-10.57-14.25-2.42-25.96,1.5-39.3,3.34-19.32,2.69-47.84,10.91-46.13,28.66,1.23,12.88,13.39,24.66,28.67,29.47,1.15.35,2.23.61,3.3.86-1.12.67-1.82,1.16-1.82,1.16-6.4,3.87-7.06,10.31-2.84,16.21,5.55,7.76,11.88,9.32,20.74,13.68-6.54,3-1.27,11.18,2.05,15.35,5.38,6.75,9.05,12.59,19.98,10.51,4.97-.96,10.38-3.29,13.43-6.56l.42.15.23,3.12c-7.39,3.29-14.14,7.9-21.22,11.62-10.44,5.5-22.17,10-30.18,17.62-7.82,7.45-12.31,17.82-15.27,27.2-.35,1.12-.55,4.79-.6,5.87.66-.62,3.08-2.48,6.12-4.75,10.8-10.26,23.32-22.23,24.49-23.55,7.07-7.91,24.29-14.51,38.52-18-10.18,8.02-20.79,16.44-32.07,23.56-1.38.87-17.19,16.76-30.61,26.23-3.12,4.37-8.03,8.04-10.17,12.86-2.2,4.95-3.12,9.06-2.01,11.54,16.24-8.6,28.31-22.15,41.68-33.28,10.7-8.91,23.13-15.17,37.72-20.31-10.48,9.7-21.76,19.57-33.35,28.48-8.8,6.78-20.22,11.58-26.81,19.73-5.46,6.72-13.83,19.78-6.96,28.17,5.56-1.95,2.71-11.06,8.36-12.92,8.86-2.94,17.04-10.98,20.04-12.43Zm62.47-41.4c-1.72-1.95-1.17-4.38,1.19-5.45,3.61-1.63,6-4.49,8.54-7.51l3.24-3.68c7.02-7.33,16.08-14.63,24.09-21.06l2.62-2.13,5.9-4.25c2.54-1.75,4.96-3.39,6.92-5.22l5.06-5.71c2.77-3.45,5.63-7.01,9.89-9.73,7.32-4.66,16.9-4.72,25.34-4.78l4.15-.05c28.63-.62,49.19,8.58,73.11,23.63,11.54,7.26,23.18,12.48,35.49,17.99l6.41,2.4c3.7,1.27,7.54,2.57,11.1,4.63l2.68,1.52c6.81,3.81,12.69,7.26,15.35,10.74,1.53,2,.78,4.39-1.7,5.33-2.48.95-5.74.07-7.27-1.94-1.57-2.07-8.32-5.82-11.95-7.85l-2.85-1.61c-2.46-1.41-5.48-2.44-8.7-3.54l-7.6-2.87c-12.74-5.71-24.79-11.1-37.11-18.84-22.33-14.06-40.21-22.09-65.42-21.55l-4.35.05c-7.5.05-14.57.09-19.4,3.16-3.14,2-5.51,4.94-8.01,8.07l-5.76,6.49c-2.4,2.2-5.17,4.11-7.85,5.94l-5.38,3.86-2.65,2.14c-8.18,6.6-16.64,13.42-23.36,20.4l-2.92,3.34c-2.85,3.39-6.08,7.22-11.47,9.67-2.37,1.08-5.66.37-7.36-1.57Z"/>
        </g>
      </g>
      <g class="cls-9">
        <g>
          <path class="cls-3" d="m246.36,305.76c-14.99-.01-25.01,13.29-32.08,21.2-2.03,2.27-4.13,4.29-6.33,6.2,2.17-1.28,4.31-2.57,6.34-3.84,11.28-7.12,21.89-15.53,32.07-23.56Z"/>
          <path class="cls-7" d="m574.37,384.51c-1.36-.33-2.71-.65-4.06-.96,1.45.5,2.82.84,4.06.96Z"/>
          <g>
            <path class="cls-6" d="m293.48,327.9l2.92-3.34c6.71-6.98,15.18-13.8,23.36-20.4l2.65-2.14,5.38-3.86c2.68-1.83,5.45-3.73,7.85-5.94l5.76-6.49c2.5-3.13,4.87-6.08,8.01-8.07,4.82-3.07,11.9-3.11,19.4-3.16l4.35-.05c25.2-.55,43.08,7.49,65.42,21.55,12.32,7.75,24.37,13.14,37.11,18.84l7.6,2.87c3.22,1.09,6.24,2.13,8.7,3.54l2.85,1.61c3.63,2.02,10.39,5.78,11.95,7.85,1.53,2.02,4.79,2.89,7.27,1.94,2.48-.93,3.22-3.33,1.7-5.33-2.66-3.48-8.54-6.92-15.35-10.74l-2.68-1.52c-3.57-2.05-7.4-3.36-11.1-4.63l-6.41-2.4c-12.31-5.5-23.95-10.72-35.49-17.99-23.92-15.05-44.48-24.25-73.11-23.63l-4.15.05c-8.44.06-18.02.12-25.34,4.78-4.26,2.72-7.12,6.28-9.89,9.73l-5.06,5.71c-1.96,1.83-4.38,3.47-6.92,5.22l-5.9,4.25-2.62,2.13c-8,6.43-17.06,13.73-24.09,21.06l-3.24,3.68c-2.54,3.02-4.94,5.88-8.54,7.51-2.36,1.07-2.91,3.51-1.19,5.45,1.7,1.94,4.99,2.65,7.36,1.57,5.38-2.45,8.62-6.28,11.47-9.67Z"/>
            <path class="cls-5" d="m212.18,377.4c9.08-4.38,17.91-11.05,21.53-14.32,12.16-10.98,18.76-2.92,33.63-11.16-2.09,3.56-5.49,6.17-8.59,9.13-6.29,6.06-19.54,17.16-26.21,21.84-56.87,39.88-51.28,49.56-51.84,56.36,6.31-2.32,65.29-43.98,69.06-48.06,3.81-4.11,8.72-6.42,12.9-10.18,4.66-4.19,5.71-6.59,12.34-9.32,5.82-2.37,11.83-4.23,17.68-6.59l1.1-.18c8.12,2.79,17.55,3.92,25.47,3.75,8.33-.18,16.63.09,24.91-.27,4.78-.21,16.4-5.34,18.7-.38,1.68.82,2.06.98,3.53,2.19,7.78,1.09,15,.28,23.18.55,20.14.64,39.79-1.65,59.93-2.49,16.94-.69,38.93-3.13,53.39-9.11,2.37-.98,4.73-2,7.07-3.1l-.15.27c14.57-2.52,19.81,4.78,25.35,10.77,9.66,10.4,22.07,13.38,35.15,16.45-9.06-3.18-20.99-13.22-25.8-18.18-3.46-3.58-5.37-6.97-9.59-10.12-3.55-2.64-7.73-4.55-10.89-7.25,1.03-.76,2.01-1.56,2.94-2.37,7.02,1.79,13.23,5.11,19.28,8.63,8.77,5.12,18.28,10.14,26.44,15.82,5.71,3.98,9.96,8.03,17.42,9.94-2.65-8.03-13.21-13.61-20.67-19.52-9.3-7.35-23.96-14.73-36.22-22.09.13-.21.25-.43.38-.63,5.92,2.2,12.32,4.05,15.1,5,16.25,5.57,33.8,16.95,47.93,25.56-7.87-6.69-15.91-14.05-23.32-21.38-4.77-4.74-9.87-9.24-16.39-12.44-6.51-3.22-15.84-5.86-20.05-11.49,11.73.74,26.24,6.61,37.23,11.27,11.31,4.79,31.91,14.23,39.15,22.79-3.25-6.14-7.21-10.04-11.69-14.52-3.9-3.89-9.79-6.21-12.39-10.82-2.6-4.61-12.11-5.98-17.53-9.39-11.18-7.03-19.01-6.55-29.53-12.22.63-.63,1.27-1.27,1.89-1.93,7.8,4.18,14.96,2.97,23.11-.83,6.47-3.02,7.08-6.5,6.33-12.7-.79-6.75-6.29-8.64-9.98-14.03.99-.24,2.01-.55,3.08-.99,8.53-3.57,16.57-10.49,14.19-18.41-1.65-5.51-7.22-14.41-15.61-14.95,2.85-1.77,5.26-3.55,6.92-5.04,8.68-7.88,4.03-18.68-4.41-27.94-11.3-12.39-32.21-20.89-49.03-27.27-8.03-3.05-17.07-6.86-25.22-8.61-6.98-1.52-13.79-.75-20.83-1.53,10.36,8.53,28.41,13.4,36.36,25.39-8.34-2.98-16.06-7.47-24.7-9.27-6.13-1.28-12.34-3.53-18.8-6.22.55,5.21,10.06,13.19,14.72,17.48,6.03,5.58,12.2,11.88,19.67,16.7,14.99,9.62,5.16,12.33,20.1,22.38,9.44,6.34,9.48,4.65,9.48,4.65.03,3.06,2.47,5.72,5.7,7.1-.34,5.08,6,13.28,9.4,17.16-6.36,2.5-16.81,4.9-18.83,10.34-.06.15-.06.31-.12.46-.67-.45-1.07-.72-1.07-.72.12-6.07-6.78-15.49-10.34-21.33-4.31-7.07-13.45-14.58-20.35-20.25-14.03-11.55-36.46-17.64-55.38-20.28-9.02-1.27-23.28-1.45-30.12-6.14-3.08-2.11-4.65-5.77-7.4-8.15-.86-.75-1.34-1.35-1.85-1.89,1.37-5.38-.1-11.42.41-16.02.14-1.44,1.56-5.45,2.38-6.26,1.23-1.26,5.57-1.8,5.97-3.32.83-3.2-7.03-8.81-10.72-8.23-8.22,1.27-3.66,2.61-2.92,9.4,2,7.69-6.63,15.53-5.62,22.29-3.49,2.26-5.35,6.67-8.32,9.54-6.18,5.92-8.6,5.94-19.19,6.63-7.15.48-18.08,3.21-24.88.1-3.59-1.64-5.3-4.61-7.6-7.45-.73-.9-1.41-1.65-2.05-2.34-.45-2.07-1.37-3.72-1.37-3.72-1.26-7.08-7.49-13.98-9.58-21.16-2.04-7.09.6-5.81,6.3-9.2,3.69-2.17,4.69-2.95,2.88-6.77-4.35-9.17-16.45-5.63-16.14,2.44.41,10.5,4.7,21.41,5.12,31.91,0,0-.05.57-.09,1.49-4.09,2.24-3.77,4.61-3.74,9.91-13.86,5-27.9,10.92-41.56,16.5-8.49,3.48-16.99,6.97-25.5,10.44-2.07.86-12.1,6.21-14.51,9.09-2.89-5.44-9.45-11.31-14.35-15.3-.44-.35-.91-.63-1.37-.9,1.92-.97,3.85-2.05,5.03-3.07,2.47-2.15,2.05-6.65,4.99-8.67,4.14-2.84,14-4.07,19.47-6.31,6.39-2.62,11.76-6.19,18.01-8.74-8.57-.6-16.93-5.06-26.07-5.88-4.01-.36-7.8-.85-11.58-1.44,6-.43,12.86-3.53,16.83-5.16,5.36-2.2,10.33-4.17,16.22-5.54,5.38-1.23,12.82-1.14,17.39-3.17-8.54-4.7-17.01-8.9-27.07-10.57-14.25-2.42-25.96,1.5-39.3,3.34-19.32,2.69-47.84,10.91-46.13,28.66,1.23,12.88,13.39,24.66,28.67,29.47,1.15.35,2.23.61,3.3.86-1.12.67-1.82,1.16-1.82,1.16-6.4,3.87-7.06,10.31-2.84,16.21,5.55,7.76,11.88,9.32,20.74,13.68-6.54,3-1.27,11.18,2.05,15.35,5.38,6.75,9.05,12.59,19.98,10.51,4.97-.96,10.38-3.29,13.43-6.56l.42.15.23,3.12c-7.39,3.29-14.14,7.9-21.22,11.62-10.44,5.5-22.17,10-30.18,17.62-7.82,7.45-12.31,17.82-15.27,27.2-.35,1.12-.55,4.79-.6,5.87.66-.62,3.08-2.48,6.12-4.75,10.8-10.26,23.32-22.23,24.49-23.55,7.07-7.91,24.29-14.51,38.52-18-10.18,8.02-20.79,16.44-32.07,23.56-1.38.87-17.19,16.76-30.61,26.23-3.12,4.37-8.03,8.04-10.17,12.86-2.2,4.95-3.12,9.06-2.01,11.54,16.24-8.6,28.31-22.15,41.68-33.28,10.7-8.91,23.13-15.17,37.72-20.31-10.48,9.7-21.76,19.57-33.35,28.48-8.8,6.78-20.22,11.58-26.81,19.73-5.46,6.72-13.83,19.78-6.96,28.17,5.56-1.95,2.71-11.06,8.36-12.92,8.86-2.94,17.04-10.98,20.04-12.43Zm62.47-41.4c-1.72-1.95-1.17-4.38,1.19-5.45,3.61-1.63,6-4.49,8.54-7.51l3.24-3.68c7.02-7.33,16.08-14.63,24.09-21.06l2.62-2.13,5.9-4.25c2.54-1.75,4.96-3.39,6.92-5.22l5.06-5.71c2.77-3.45,5.63-7.01,9.89-9.73,7.32-4.66,16.9-4.72,25.34-4.78l4.15-.05c28.63-.62,49.19,8.58,73.11,23.63,11.54,7.26,23.18,12.48,35.49,17.99l6.41,2.4c3.7,1.27,7.54,2.57,11.1,4.63l2.68,1.52c6.81,3.81,12.69,7.26,15.35,10.74,1.53,2,.78,4.39-1.7,5.33-2.48.95-5.74.07-7.27-1.94-1.57-2.07-8.32-5.82-11.95-7.85l-2.85-1.61c-2.46-1.41-5.48-2.44-8.7-3.54l-7.6-2.87c-12.74-5.71-24.79-11.1-37.11-18.84-22.33-14.06-40.21-22.09-65.42-21.55l-4.35.05c-7.5.05-14.57.09-19.4,3.16-3.14,2-5.51,4.94-8.01,8.07l-5.76,6.49c-2.4,2.2-5.17,4.11-7.85,5.94l-5.38,3.86-2.65,2.14c-8.18,6.6-16.64,13.42-23.36,20.4l-2.92,3.34c-2.85,3.39-6.08,7.22-11.47,9.67-2.37,1.08-5.66.37-7.36-1.57Z"/>
          </g>
        </g>
      </g>
      <text class="cls-8" transform="translate(394.21 347.88) rotate(.51)"><tspan x="0" y="0">b 星</tspan></text>
      <text class="cls-8" transform="translate(394.21 237.88) rotate(.51)"><tspan x="0" y="0">b 星</tspan></text>
    </g>
  </g>
</svg>