<?xml version="1.0" encoding="UTF-8"?>
<svg xmlns="http://www.w3.org/2000/svg" xmlns:xlink="http://www.w3.org/1999/xlink" viewBox="0 0 759 546">
  <defs>
    <style>
      .cls-1 {
        fill: url(#linear-gradient);
      }

      .cls-1, .cls-2 {
        stroke-width: 0px;
      }

      .cls-3 {
        fill: #fff;
        font-family: KozGoPr6N-Regular-83pv-RKSJ-H, 'Kozuka Gothic Pr6N';
        font-size: 15.7px;
      }

      .cls-4 {
        mix-blend-mode: soft-light;
      }

      .cls-2 {
        fill: url(#_未命名漸層_264);
      }

      .cls-5 {
        isolation: isolate;
      }
    </style>
    <linearGradient id="linear-gradient" x1="93.14" y1="270.27" x2="627.02" y2="270.27" gradientUnits="userSpaceOnUse">
      <stop offset="0" stop-color="#2a5ca2"/>
      <stop offset="1" stop-color="#1a2a53"/>
    </linearGradient>
    <radialGradient id="_未命名漸層_264" data-name="未命名漸層 264" cx="360.08" cy="270.27" fx="360.08" fy="270.27" r="249.95" gradientUnits="userSpaceOnUse">
      <stop offset=".24" stop-color="#158abf"/>
      <stop offset="1" stop-color="#fff"/>
    </radialGradient>
  </defs>
  <g class="cls-5">
    <g id="_圖層_1" data-name="圖層 1">
      <path class="cls-1" d="m583.4,481.31s-.55-.21-1.41-.5c-.04-.04-.07-.07-.12-.1-4.13-3.11-47.63-22.99-57.07-30.48-6.06-4.81-54.69-27.52-44.31-78.2,3.47-16.92.75-47.3,0-68.64l2.32-1.5c8.28,15.35,6.86,34.07,15.07,50.66,11.8,6.78,31.1,9.72,43.5,12.01,10.47-12.69,5.54-34.8,9.93-51.07,14.65-4.15,29.76-20.49,29.57-39.1,15.1-2.49,49.94-15.84,45.82-31.08-18.81-5.6-35.84-5.21-53.57-5.72l-1.09-5.07c-.74-32.43-20.83-69.87-40.01-99.96-13.9-21.82-36.44-43.48-58.19-57.97-19.21-12.8-45.26-28.91-66.32-36.05,13.22,6.74,30.81,22.92,42.42,33.75,6.54,6.09,15.65,13.17,21.39,20.75,21.9,28.97,37.26,65.84,37.26,65.84-22.86-5.59-49.11-14.35-68.86-12.88-21.59,1.61-19.62,18.23-36.14,27.08-6.83,3.66-16.84,3.07-23.68,7.19-8.36,5.02-16.68,11.95-24.72,18.25-18.24,14.26-31.71,20.31-59.37,13.56-24.87-6.08-46.84-18.07-71.15-25.48-10.93-6.08-24.06-10.41-38.09-12.39-.05-1.66.11-2.97.62-3.62,1.9-2.34,21.55-1.74,25.75-2.56,17.55-3.46,41.82-12.66,38.53-36.94-11.69,11.08-46.76-2.22-64.43-6.48-16.09-3.87-21.05-11.69-34.72-23.63-12.27-10.7-24.91-16.88-39.13-22.95,10.81,11.68,39.84,59.19,39.26,76.96-.22,6.49-.81,13.01-1.55,19.46-28.79,4.55-49.22,19.41-54.02,37.71-3.06,7.56-4.29,16.9-3.52,27.62,2.65,36.67,14.4,65.91,48.13,86.95,17.3,10.79,41.84,19.19,63.23,21.41,14.88,9.87,32.34,14.29,49.13,18.4,10.93,2.67,22.32,4.54,32.77,9.69,5.03,2.48,18.54,10.08,30.49,16.6,4.21,6.29,8.78,12.34,14.06,17.89,5.46,5.77,16.23,18.54,21.73,22.56,9.53,6.98,22,6.05,31.53,6.98,28.27,2.79,59.76,9.3,88.86,18.95,27.87,9.23,36.85,18.02,66.36,25.23,17.62,4.3,6.72,4.22,24.54,8.44,5.01,7.96,16.88,9.15,16.88,9.15l17.08-.08-14.76-20.61Zm-81.34-154.45c.59-.94,1.83-1.22,2.77-.63,10.32,6.5,16.42,15.39,18.11,26.4.17,1.1-.58,2.12-1.68,2.29-1.1.17-2.12-.58-2.29-1.68-1.51-9.82-6.99-17.76-16.28-23.62-.94-.59-1.22-1.83-.63-2.77Z"/>
      <g class="cls-4">
        <path class="cls-2" d="m583.4,481.31s-.55-.21-1.41-.5c-.04-.04-.07-.07-.12-.1-4.13-3.11-47.63-22.99-57.07-30.48-6.06-4.81-54.69-27.52-44.31-78.2,3.47-16.92.75-47.3,0-68.64l2.32-1.5c8.28,15.35,6.86,34.07,15.07,50.66,11.8,6.78,31.1,9.72,43.5,12.01,10.47-12.69,5.54-34.8,9.93-51.07,14.65-4.15,29.76-20.49,29.57-39.1,15.1-2.49,49.94-15.84,45.82-31.08-18.81-5.6-35.84-5.21-53.57-5.72l-1.09-5.07c-.74-32.43-20.83-69.87-40.01-99.96-13.9-21.82-36.44-43.48-58.19-57.97-19.21-12.8-45.26-28.91-66.32-36.05,13.22,6.74,30.81,22.92,42.42,33.75,6.54,6.09,15.65,13.17,21.39,20.75,21.9,28.97,37.26,65.84,37.26,65.84-22.86-5.59-49.11-14.35-68.86-12.88-21.59,1.61-19.62,18.23-36.14,27.08-6.83,3.66-16.84,3.07-23.68,7.19-8.36,5.02-16.68,11.95-24.72,18.25-18.24,14.26-31.71,20.31-59.37,13.56-24.87-6.08-46.84-18.07-71.15-25.48-10.93-6.08-24.06-10.41-38.09-12.39-.05-1.66.11-2.97.62-3.62,1.9-2.34,21.55-1.74,25.75-2.56,17.55-3.46,41.82-12.66,38.53-36.94-11.69,11.08-46.76-2.22-64.43-6.48-16.09-3.87-21.05-11.69-34.72-23.63-12.27-10.7-24.91-16.88-39.13-22.95,10.81,11.68,39.84,59.19,39.26,76.96-.22,6.49-.81,13.01-1.55,19.46-28.79,4.55-49.22,19.41-54.02,37.71-3.06,7.56-4.29,16.9-3.52,27.62,2.65,36.67,14.4,65.91,48.13,86.95,17.3,10.79,41.84,19.19,63.23,21.41,14.88,9.87,32.34,14.29,49.13,18.4,10.93,2.67,22.32,4.54,32.77,9.69,5.03,2.48,18.54,10.08,30.49,16.6,4.21,6.29,8.78,12.34,14.06,17.89,5.46,5.77,16.23,18.54,21.73,22.56,9.53,6.98,22,6.05,31.53,6.98,28.27,2.79,59.76,9.3,88.86,18.95,27.87,9.23,36.85,18.02,66.36,25.23,17.62,4.3,6.72,4.22,24.54,8.44,5.01,7.96,16.88,9.15,16.88,9.15l17.08-.08-14.76-20.61Zm-81.34-154.45c.59-.94,1.83-1.22,2.77-.63,10.32,6.5,16.42,15.39,18.11,26.4.17,1.1-.58,2.12-1.68,2.29-1.1.17-2.12-.58-2.29-1.68-1.51-9.82-6.99-17.76-16.28-23.62-.94-.59-1.22-1.83-.63-2.77Z"/>
      </g>
      <text class="cls-3" transform="translate(553.21 152.88) rotate(.51)"><tspan x="0" y="0">牛宿二</tspan></text>
      <text class="cls-3" transform="translate(126.21 253.88) rotate(.51)"><tspan x="0" y="0">壁壘陣四</tspan></text>
      <text class="cls-3" transform="translate(533.21 226.88) rotate(.51)"><tspan x="0" y="0">牛宿一</tspan></text>
    </g>
  </g>
</svg>