<?xml version="1.0" encoding="UTF-8"?>
<svg xmlns="http://www.w3.org/2000/svg" xmlns:xlink="http://www.w3.org/1999/xlink" viewBox="0 0 759 546">
  <defs>
    <style>
      .cls-1 {
        fill: url(#_未命名漸層_18);
        mix-blend-mode: soft-light;
      }

      .cls-1, .cls-2 {
        stroke-width: 0px;
      }

      .cls-2 {
        fill: url(#linear-gradient);
      }

      .cls-3 {
        fill: #fff;
        font-family: KozGoPr6N-Regular-83pv-RKSJ-H, 'Kozuka Gothic Pr6N';
        font-size: 15.7px;
      }

      .cls-4 {
        isolation: isolate;
      }
    </style>
    <linearGradient id="linear-gradient" x1="61.98" y1="273" x2="697.02" y2="273" gradientUnits="userSpaceOnUse">
      <stop offset="0" stop-color="#2a5ca2"/>
      <stop offset="1" stop-color="#1a2a53"/>
    </linearGradient>
    <radialGradient id="_未命名漸層_18" data-name="未命名漸層 18" cx="379.5" cy="273" fx="379.5" fy="273" r="263.12" gradientUnits="userSpaceOnUse">
      <stop offset="0" stop-color="#158abf"/>
      <stop offset=".16" stop-color="#60afd3"/>
      <stop offset=".32" stop-color="#a4d1e6"/>
      <stop offset=".45" stop-color="#d5eaf3"/>
      <stop offset=".55" stop-color="#f3f9fb"/>
      <stop offset=".6" stop-color="#fff"/>
    </radialGradient>
  </defs>
  <g class="cls-4">
    <g id="_圖層_1" data-name="圖層 1">
      <path class="cls-2" d="m693.48,211.09l3.53-1.84c-9.32-5.73-17.75-15.98-29.28-17.15.83,4.51,1.87,8.88,2.63,13.23l-67.97,5.74c-1.13-3.97-3.18-7.77-4.64-11.1-7.35-16.81-15.76-25.54-24.37-42.02-18.13-34.78,9.97-55.72,12.11-78.98-43.24,20.35-45.41,47.13-45.41,71.04,0,18.79,6.79,21.87,13.98,31.73,4.99,6.87,10.09,20.7,11.37,30.72-11.37-.53-23.56-.17-27.98-.45-14.45-.93-24.08-4.55-33.09-12.96-3.22-3.03-5.62-5.9-8.31-9.34-4.66-6.02-7.33-4.39-15.13-6.99-4.64-2.93-5.46-3.95-6.91-7.4-1.82-10.55,12.73-3.8,19.78-11.66,4-4.46,7.59-12.26,8.03-17.72.57-7.09,1.41-13.54,2.1-20.24.63-6.53-.83-19.46-4.97-23.94-10.57-11.5-42.31-3.61-54.26,9.62-8.19,9.06-3.66,13.07-4.5,22.68-.42,4.5-1.59,9.72-2.59,14.28-.89,4.04,1.51,4.09,1.25,8.11-.19,2.76,6.3,5.62,6.24,7.05-.03.99-.71,3.64-1.79,6.56-1-5.41-4.26-11.09-9.57-15.55-7.75-6.51-17.33-8.35-23.95-5.34-1.3-3.72-2.3-7.42-2.81-10.99-2.58-17.75,10.78-38.27-.59-53.54-7.54-10.09-23.53-4.5-36.63.25-26,9.42-50.44,6.86-76.11,12.96-87.57,2.12-44.18,23.29-44.04,24.16,13.05,7.92,17.46.13,22.07,4.56,6.82,6.51-51.93,22.25-15.16,22.63,20.15-.33,44.23-10.86,66.22-16.88,2.12,12.89-47.88,15.84-34.44,26.41,5.41,4.25,42.5.58,41.27,8.49-.77,4.94-5.74,7.11-3.97,11.63,2.12,5.47,13.64,3.93,14.8,11,.65,3.97-3.15,6.47-3.42,9.32-.74,7.82,4.43,8.91,11.52,12.07.19.59.38,1.17.68,1.79,3.7,8.12,27.77,11.06,36.37,12.96,2.27.5,4.54.8,6.82.98l11.08,28.08c.97,2.07,1.06,5.31,1.37,7.64-21.1,9.46-28.84,2.84-39.98-9.8-11.17-12.71-18.12-22.39-38.02-24.84-19.84-2.44-39.28.66-60.68,6.61-10.17,2.84-23.37,7.02-33.17,12.48-8.56,4.77-13.66,13.8-18.31,22.71-5.79,11.17-11.66,19.16-25.29,22.27-11.84,2.72-20.21-4.53-33.82-1.11-17.53,4.41-25.05,16.63-38.17,29.56-8.62,8.5-18.07,22.27-28.94,27.37-9.73,4.55-17.1,1.27-26.45,1.21,14.78,22.95,61.75,23.66,85.53-4.43,10.06-11.86,15.46-23.3,31.14-28.99,16.44-5.97,27.93-9.64,39.46-23.64,2.2,6.8-3.55,16.26-3.69,23.51-.12,6.75,7.08,13.41,3.93,19.43-7.13,13.62-27.32,19.53-40.92,25.6-4.17,17.91,5.58,49.17,13.31,62.85,3.94,6.98,9.29,9.27,11.83,18.15,2.08,7.33,6.02,13.34,7.39,21.1,10.39-4.28,20.89-5,31.6-9.78-2.64-10.99-17.94-14.85-23.22-24.96-6.3-11.98-15.58-29.71-13.13-45.35,2-12.76,12.57-18.67,24.42-23.21,5.53,18.7,31.65,23.26,42.91,34.52,4.53,4.51,15.18,18.14,18.61,23.72,4.73,7.69.71,17.92,1.41,26.09,4.51,2.25,12.84,3.96,20.02,4.75,7.68.87,9.35-4.2,9.01-4,1.72-8.39-1.39-19.2-2.11-27.35-.9-10.57,1.9-12.26-6.43-17.77-7.1-4.66-11.72-10.45-18.62-14.35-8.95-5.03-6.39-15.08-6.63-27.88,12.01-2.25,16.31-5.23,26.99-13.82.59.86,1.18,1.69,1.77,2.45,8.93,11.37,14.57,20.88,31.43,22.53,10.12.98,18.56-2.6,29.13-6.88,2.71,3,6.04,5.71,10.45,8.04,10.73,5.67,25.11,15.03,43.6,5.67,13.35-12.35,47.37-44.93,25.94,16.49-3.93,11.26,22.88-.61-4.63,31.96-3.51,4.16-12.58,7.38-14.97,11.97-5.17,9.9,25.81,26.7,28,31.46,13.93-16.1,14.76-33.14,14.48-52.84-.08-5.53.07-14.47,1.29-24.81.8-6.93,6.44-13.29,10.6-19.66,9.44-14.46,15.87-26.51,1.87-35.14-1.97-1.19-4.92-2.6-8.13-4.2,2.97-20.9-23.14-17.48-7.66-34.09-.88-2.88,3.76-9.11,3.76-9.11,14.41-18.46,9.58-40.6,9.08-43.08-.51-2.47-.26-5.05-.26-5.05,7.36-2.84,11.4,1.72,16.54,3.42,7.37,2.43,14.53,3.48,23.15,1.72,7.82-1.58,19.99-3.42,27.81-6.17,3.79-1.32,7.57-1.21,11.26-1.49l1.23,7.4c12.25,71.12,40.62,75.11,55.33,86.63,15.95,12.52,31.86,13.87,52.28-3.87-.13-.13-.82-1.95-.88-2.19-5.16,1.49-13.37.81-18.47-.05-19.69-3.29-60.81-61.97-63.19-82.62-1.19-10.37,4.53-13.08,7.07-21.47.44-1.46.55-2.93.51-4.39l67.93-5.74c.37,3.42.51,6.86.13,10.4,7.34-3.03,15.03-5.98,22.24-9.53Zm-192.68-68.53c-.85,3.88-4.03,7.52-8.75,9.96-1.01.54-2.07.27-2.38-.63-.03-.07-.06-.14-.06-.21-.17-.84.38-1.85,1.32-2.34,1.77-.93,4.64-2.89,5.77-5.81-.24-.18-.51-.36-.51-.36-1.07-.71-2.08-1.39-2.35-2.47l-1.55-6.59-.18-.94c-.19-.92.48-2.03,1.54-2.45,0,0,0,0,0,0,1.04-.42,2.03,0,2.21.94l.2.97s1.41,6.01,1.48,6.29c0,0,0,0,0,0l1.28,1.01,1.59,1.17.62.44-.23,1.01Zm-30.38-12.1c-2.67,1.61-5.59,2.74-8.54,3.8.07.41.13.86.13.86.97,6.56.37,10.12-1.97,11.92-2.75,2.1-5.98.42-8.8-1.09-.39-.2-.92-.46-1.38-.7.04.47.07.94.15,1.4.77,3.83,2.88,8.15,4.75,11.54.34-.1,1.65-.46,1.65-.46.95-.27,1.46.19,1.63.98,0,.09.01.18.03.28.07.97-1.08,2.09-2.09,2.41l-.8.26-1.83.53-1.01.31-.55-1c-2.7-4.87-5.84-11.15-5.92-16.37-.04-1.57.44-2.74,1.52-3.51,1.89-1.32,3.8-.31,6.23.97,1.2.64,3.76,1.95,4.47,1.77.03-.04.86-1.35.21-6.83-.51-.15-.99-.36-1.46-.58l-1.15-.47s.33-.07.41-.08c0-.02-.71-3.38-.71-3.38.03-.01,4.26-1.57,4.26-1.57,3.27-1.15,6.6-2.34,9.32-3.99,1.31-.8,2.26-1.81,3.27-2.92,1.78-1.97,4.06-4.41,8.37-4.97l2.32-.29-.71,2.25c-.15.58-.13,1.1,0,1.68.03.25.1.51.18.78,0,0,.05.49.07.84,5.03-2.4,10.99-8.94,14.76-13.11l1.61-1.77c.77-.84,1.97-1.07,2.71-.51.71.57.64,1.74-.13,2.6l-1.55,1.72c-4.9,5.43-12.29,13.6-18.98,15.41l-1.76.09-.49-3.64c-.05-.28-.15-.59-.22-.89-.06-.31-.06-.65-.1-.98-1.39.58-2.31,1.56-3.52,2.89-1.17,1.25-2.47,2.67-4.4,3.84Z"/>
      <path class="cls-1" d="m693.48,211.09l3.53-1.84c-9.32-5.73-17.75-15.98-29.28-17.15.83,4.51,1.87,8.88,2.63,13.23l-67.97,5.74c-1.13-3.97-3.18-7.77-4.64-11.1-7.35-16.81-15.76-25.54-24.37-42.02-18.13-34.78,9.97-55.72,12.11-78.98-43.24,20.35-45.41,47.13-45.41,71.04,0,18.79,6.79,21.87,13.98,31.73,4.99,6.87,10.09,20.7,11.37,30.72-11.37-.53-23.56-.17-27.98-.45-14.45-.93-24.08-4.55-33.09-12.96-3.22-3.03-5.62-5.9-8.31-9.34-4.66-6.02-7.33-4.39-15.13-6.99-4.64-2.93-5.46-3.95-6.91-7.4-1.82-10.55,12.73-3.8,19.78-11.66,4-4.46,7.59-12.26,8.03-17.72.57-7.09,1.41-13.54,2.1-20.24.63-6.53-.83-19.46-4.97-23.94-10.57-11.5-42.31-3.61-54.26,9.62-8.19,9.06-3.66,13.07-4.5,22.68-.42,4.5-1.59,9.72-2.59,14.28-.89,4.04,1.51,4.09,1.25,8.11-.19,2.76,6.3,5.62,6.24,7.05-.03.99-.71,3.64-1.79,6.56-1-5.41-4.26-11.09-9.57-15.55-7.75-6.51-17.33-8.35-23.95-5.34-1.3-3.72-2.3-7.42-2.81-10.99-2.58-17.75,10.78-38.27-.59-53.54-7.54-10.09-23.53-4.5-36.63.25-26,9.42-50.44,6.86-76.11,12.96-87.57,2.12-44.18,23.29-44.04,24.16,13.05,7.92,17.46.13,22.07,4.56,6.82,6.51-51.93,22.25-15.16,22.63,20.15-.33,44.23-10.86,66.22-16.88,2.12,12.89-47.88,15.84-34.44,26.41,5.41,4.25,42.5.58,41.27,8.49-.77,4.94-5.74,7.11-3.97,11.63,2.12,5.47,13.64,3.93,14.8,11,.65,3.97-3.15,6.47-3.42,9.32-.74,7.82,4.43,8.91,11.52,12.07.19.59.38,1.17.68,1.79,3.7,8.12,27.77,11.06,36.37,12.96,2.27.5,4.54.8,6.82.98l11.08,28.08c.97,2.07,1.06,5.31,1.37,7.64-21.1,9.46-28.84,2.84-39.98-9.8-11.17-12.71-18.12-22.39-38.02-24.84-19.84-2.44-39.28.66-60.68,6.61-10.17,2.84-23.37,7.02-33.17,12.48-8.56,4.77-13.66,13.8-18.31,22.71-5.79,11.17-11.66,19.16-25.29,22.27-11.84,2.72-20.21-4.53-33.82-1.11-17.53,4.41-25.05,16.63-38.17,29.56-8.62,8.5-18.07,22.27-28.94,27.37-9.73,4.55-17.1,1.27-26.45,1.21,14.78,22.95,61.75,23.66,85.53-4.43,10.06-11.86,15.46-23.3,31.14-28.99,16.44-5.97,27.93-9.64,39.46-23.64,2.2,6.8-3.55,16.26-3.69,23.51-.12,6.75,7.08,13.41,3.93,19.43-7.13,13.62-27.32,19.53-40.92,25.6-4.17,17.91,5.58,49.17,13.31,62.85,3.94,6.98,9.29,9.27,11.83,18.15,2.08,7.33,6.02,13.34,7.39,21.1,10.39-4.28,20.89-5,31.6-9.78-2.64-10.99-17.94-14.85-23.22-24.96-6.3-11.98-15.58-29.71-13.13-45.35,2-12.76,12.57-18.67,24.42-23.21,5.53,18.7,31.65,23.26,42.91,34.52,4.53,4.51,15.18,18.14,18.61,23.72,4.73,7.69.71,17.92,1.41,26.09,4.51,2.25,12.84,3.96,20.02,4.75,7.68.87,9.35-4.2,9.01-4,1.72-8.39-1.39-19.2-2.11-27.35-.9-10.57,1.9-12.26-6.43-17.77-7.1-4.66-11.72-10.45-18.62-14.35-8.95-5.03-6.39-15.08-6.63-27.88,12.01-2.25,16.31-5.23,26.99-13.82.59.86,1.18,1.69,1.77,2.45,8.93,11.37,14.57,20.88,31.43,22.53,10.12.98,18.56-2.6,29.13-6.88,2.71,3,6.04,5.71,10.45,8.04,10.73,5.67,25.11,15.03,43.6,5.67,13.35-12.35,47.37-44.93,25.94,16.49-3.93,11.26,22.88-.61-4.63,31.96-3.51,4.16-12.58,7.38-14.97,11.97-5.17,9.9,25.81,26.7,28,31.46,13.93-16.1,14.76-33.14,14.48-52.84-.08-5.53.07-14.47,1.29-24.81.8-6.93,6.44-13.29,10.6-19.66,9.44-14.46,15.87-26.51,1.87-35.14-1.97-1.19-4.92-2.6-8.13-4.2,2.97-20.9-23.14-17.48-7.66-34.09-.88-2.88,3.76-9.11,3.76-9.11,14.41-18.46,9.58-40.6,9.08-43.08-.51-2.47-.26-5.05-.26-5.05,7.36-2.84,11.4,1.72,16.54,3.42,7.37,2.43,14.53,3.48,23.15,1.72,7.82-1.58,19.99-3.42,27.81-6.17,3.79-1.32,7.57-1.21,11.26-1.49l1.23,7.4c12.25,71.12,40.62,75.11,55.33,86.63,15.95,12.52,31.86,13.87,52.28-3.87-.13-.13-.82-1.95-.88-2.19-5.16,1.49-13.37.81-18.47-.05-19.69-3.29-60.81-61.97-63.19-82.62-1.19-10.37,4.53-13.08,7.07-21.47.44-1.46.55-2.93.51-4.39l67.93-5.74c.37,3.42.51,6.86.13,10.4,7.34-3.03,15.03-5.98,22.24-9.53Zm-192.68-68.53c-.85,3.88-4.03,7.52-8.75,9.96-1.01.54-2.07.27-2.38-.63-.03-.07-.06-.14-.06-.21-.17-.84.38-1.85,1.32-2.34,1.77-.93,4.64-2.89,5.77-5.81-.24-.18-.51-.36-.51-.36-1.07-.71-2.08-1.39-2.35-2.47l-1.55-6.59-.18-.94c-.19-.92.48-2.03,1.54-2.45,0,0,0,0,0,0,1.04-.42,2.03,0,2.21.94l.2.97s1.41,6.01,1.48,6.29c0,0,0,0,0,0l1.28,1.01,1.59,1.17.62.44-.23,1.01Zm-30.38-12.1c-2.67,1.61-5.59,2.74-8.54,3.8.07.41.13.86.13.86.97,6.56.37,10.12-1.97,11.92-2.75,2.1-5.98.42-8.8-1.09-.39-.2-.92-.46-1.38-.7.04.47.07.94.15,1.4.77,3.83,2.88,8.15,4.75,11.54.34-.1,1.65-.46,1.65-.46.95-.27,1.46.19,1.63.98,0,.09.01.18.03.28.07.97-1.08,2.09-2.09,2.41l-.8.26-1.83.53-1.01.31-.55-1c-2.7-4.87-5.84-11.15-5.92-16.37-.04-1.57.44-2.74,1.52-3.51,1.89-1.32,3.8-.31,6.23.97,1.2.64,3.76,1.95,4.47,1.77.03-.04.86-1.35.21-6.83-.51-.15-.99-.36-1.46-.58l-1.15-.47s.33-.07.41-.08c0-.02-.71-3.38-.71-3.38.03-.01,4.26-1.57,4.26-1.57,3.27-1.15,6.6-2.34,9.32-3.99,1.31-.8,2.26-1.81,3.27-2.92,1.78-1.97,4.06-4.41,8.37-4.97l2.32-.29-.71,2.25c-.15.58-.13,1.1,0,1.68.03.25.1.51.18.78,0,0,.05.49.07.84,5.03-2.4,10.99-8.94,14.76-13.11l1.61-1.77c.77-.84,1.97-1.07,2.71-.51.71.57.64,1.74-.13,2.6l-1.55,1.72c-4.9,5.43-12.29,13.6-18.98,15.41l-1.76.09-.49-3.64c-.05-.28-.15-.59-.22-.89-.06-.31-.06-.65-.1-.98-1.39.58-2.31,1.56-3.52,2.89-1.17,1.25-2.47,2.67-4.4,3.84Z"/>
      <text class="cls-3" transform="translate(325.24 407.9) rotate(.45)"><tspan x="0" y="0">軒轅十二</tspan></text>
      <text class="cls-3" transform="translate(325.24 248.9) rotate(.45)"><tspan x="0" y="0">參宿四</tspan></text>
      <text class="cls-3" transform="translate(489.24 304.9) rotate(.45)"><tspan x="0" y="0">參宿五</tspan></text>
      <text class="cls-3" transform="translate(491.21 444.88) rotate(.51)"><tspan x="0" y="0">軒轅十四</tspan></text>
    </g>
  </g>
</svg>