<?xml version="1.0" encoding="UTF-8"?>
<svg xmlns="http://www.w3.org/2000/svg" xmlns:xlink="http://www.w3.org/1999/xlink" viewBox="0 0 759 546">
  <defs>
    <style>
      .cls-1 {
        fill: url(#_未命名漸層_30);
        mix-blend-mode: soft-light;
      }

      .cls-1, .cls-2, .cls-3 {
        stroke-width: 0px;
      }

      .cls-2 {
        fill: url(#linear-gradient);
      }

      .cls-4 {
        font-family: KozGoPr6N-Regular-83pv-RKSJ-H, 'Kozuka Gothic Pr6N';
        font-size: 15.7px;
      }

      .cls-4, .cls-3 {
        fill: #fff;
      }

      .cls-5 {
        isolation: isolate;
      }
    </style>
    <linearGradient id="linear-gradient" x1="125.59" y1="262" x2="597.41" y2="262" gradientUnits="userSpaceOnUse">
      <stop offset="0" stop-color="#2a5ca2"/>
      <stop offset="1" stop-color="#1a2a53"/>
    </linearGradient>
    <radialGradient id="_未命名漸層_30" data-name="未命名漸層 30" cx="361.5" cy="262" fx="361.5" fy="262" r="236.54" gradientUnits="userSpaceOnUse">
      <stop offset="0" stop-color="#b7cde5"/>
      <stop offset=".56" stop-color="#3e91c3"/>
      <stop offset="1" stop-color="#fff"/>
    </radialGradient>
  </defs>
  <g class="cls-5">
    <g id="_圖層_1" data-name="圖層 1">
      <g>
        <path class="cls-2" d="m575.08,342.42c-5.86.26-10.65,3.34-16.26,3.92-6.41.68-13.13-2.34-19.68-3.11,9.61.51,19.22,1.42,26.67-4.5,6.84-5.42,25.88-7.29,27.59-17.8-23.44-.62-43.8-3.79-63.01-1.48-5.82.71-12.63,1.12-18.82.18-3.63-.55-4.76-.43-8.12-2.81-2.67-1.88-5.4-7.24-8.16-8.7-5.34-2.83-11.04,1.35-16.07-3.49-3.19-3.08-3.15-5.99-4.95-9.45-4.73-9.03-11.91-15.6-16.3-24.28-3.93-7.8-7.1-16.06-12.15-23.12-3.96-5.55-6.32-7.19-9.91-7.72-1.03-8.21-4.08-16.71-5.54-26.31-2.28-.24-5.31-6.95-6.68-4.95-1.56-8.89-8.9-10.55-16.11-10.45l-.33-3.17c.53-2.46.3-11.06-1.12-14.29-2.13-4.86-6.07-4.99-8.94-8.58-4.3-5.4-2.88-11.2-5.56-17.91-1.83-4.57-5.74-7.59-8.35-11.59-3.85-5.92-14.47-19.1-14.19-26.21.43-10.54,10.3-14.65,8.71-27.7,15.1-.61,26.08,1.86,38.66-7.35,6.14-4.52,12.66-9.28,15.49-18.02,2.28-7.05,1.43-17.64,2.12-25.6-4.74.4-7.32,6.63-11.74,8.11-3.74,1.25-8.33.81-12.38.33,4.55-7.99,13.39-9.69,14.33-21.31-4.33-1.26-6.46,2.63-9.87,3.84-2.88,1.03-6.56.26-9.66.58-7.48.78-13.73,3.58-18.46,10.69-4.22,6.34-6.32,15.17-9.45,22.53-3.89,9.12-9.86,11.57-16.37,17.87-6.61,6.4-2.34,9.19-3.69,18.64-.93,6.42-7.24,9.51-8.88,14.78-2.63,8.47,2.57,19.94,4.23,28.86,2.62,14.12.91,27.5,13.04,36.1,4.02,2.86,14.81,16.53,20.74,24.23-8.87,5.47-16.11,15.03-25.52,20.17-4.91-3.59-7.94-13.2-10.12-17.72-5.1-10.52-7.47-15-12.32-26.24-4.47-10.38-6.89-25.64-7.73-37-.21-2.77,1.22-7.04,2.05-11.15.85-4.34,2.39-6.14,1.9-11.36-12.4,11.78-7.14,40.85-4.31,59.62,1.99,13.18,7,21.76,14.01,32.68,3,4.67,5.49,9.69,7.95,14.64-1.2.38-2.41.76-3.63,1.15-9.6-12.48-17.15-35.9-21.74-48.24-4.71-12.62-6.35-29.01-7.8-42.49-5.97,12.05-3.49,23.27-1.45,41.3,1.01,8.87,8.38,30.04,11.74,38.49,1.96,4.92,5.24,9.63,6.2,14.77-.87.26-1.74.55-2.61.84-18.37-25.57-27.59-61.32-31.21-93.32-2.65,5.78-3.09,4.17-1.8,28.7.47,9.15,3.3,18.27,4.35,27.46,1.47,13.05,8.69,27.37,11.41,45.53-.05.02-.11.05-.16.11-1.88-5.4-8.02-12.1-10.27-17.45-4.05-9.6-5.44-19.14-8.3-29.31-3.35-11.92-4.3-25.07-8.54-36.54-4.71,14.01.27,39.46,2.83,55.39,2.4,15,9.03,25.43,14.46,37.85-.55.68-1.09,1.4-1.62,2.09-3.14-3.84-5.53-11.1-7.87-15.97-4.6-9.57-7.79-20.58-10.84-30.68-1.85-6.1-10.96-31.65-12.62-31.86-6.29-.77,1.45,22.1,3.15,29.01,2.75,11.19,7.46,21.37,10.96,32.27,2.01,6.23,3.83,12.85,6.37,18.72,1.18,2.74,2.9,5.14,4.36,7.82-5.04,7.9-9.52,16.65-13.19,25.87-4.41,11.06-8.39,23.91-11.33,36.02-3.05,12.55-2.27,21.61-.71,35.47l-1.1,1.66c-11.85,1.6-10.2,33.43-5.47,44.49-7.21,5.4-11.43,25.2-3.76,35.25-8.83-.89-6.86,10.66-6.28,19.45-6.27,1.45-16.5-5.58-18.1,5.7-5.13-12.29-19.31-10.84-24.86-6.09-4.54,3.9-3.24,5.43-10.83,2.49-8.59-3.34-13.52-1.26-22.05-2.4-.23-3.78-6.78-10.07-9.48-12.85-6.38-6.59-4.84-7.72-1.06-17.73,1.62-4.27-.41-7.42,2.13-10.22,1.73-1.91,4.27-2.78,6.29-4.19,13.97-9.77,1.28-18.36,1.4-38.41.07-11.33-6.72-18.3-2.82-28.41,3.93-10.18,9.36-18.72,15.39-26.06-7.87-.78-14.67,14.68-20.56,20.5-6.72,6.65-8.17,16.49-12.83,24.44-5.09-8.11-4.83-30.12-5.81-40.53-6.94,13.37-23.84,29.21-25.99,45.02-2.01,14.84.26,56.7,28.89,54.61-10.79,2.24-9.51,9.61-9.93,22.04-.33,9.47,2.19,13.67,6.06,20.88,3.81,7.09,8.82,14.29,18.63,13.83.73-.64,4.36.8,5.01-.55,2.29,11.54,14.45,17.55,22,16.26,5.61-.96,10.56-5.75,13.62-10.79,10.4,7.62,19.86,15.01,27.61,5.05,2.69-3.44,1.61-9.67,4.25-6.46,3.77,4.59,11.52,8.15,18.49,1.64,2.01-2.94,3.25-3.41,2.86-7.86,9.07-2.57,22.12-3.84,24.61-17.24,1-5.38-.04-11.33-.66-17.06-.93-8.6-.47-6.4,3.8-12.68,4.81-7.08,2.32-11.52,2.14-20.84-.09-4.95,1.19-8.42,1.8-13.28,1.17-9.38-2.35-15.95,6.81-14.22,7.73,1.47,11.38,3.76,18.54,2.04,3.93-.93,8.46-2.12,12.46-3.1,3.74-.89,9.06-1.21,12.52-3.19,4.95-2.87,7.26-6.86,13.42-8.09.03-1.38.8-3.11,1.93-4.94,3.06,11.27,15,25.47,20.53,33.52,11.56,16.82,29.89,36.25,46.91,39.14-7.46-5.26-13.31-12.46-19.98-21.81-9.27-13.01-27.93-31.21-39.67-60.88.73-.89,1.39-1.68,1.88-2.36.14-.19.3-.37.43-.55,7.24,11.48,17.05,25.78,21.02,31.82,12.41,18.87,28.84,35.77,42.59,41.29-13.06-8.17-21.46-24.75-31.02-38.75-7.63-11.19-17.55-29.46-22.28-45,.8-.69,1.6-1.37,2.39-2.06,7.11,12.55,17.43,30.04,24.11,37.1,7.14,7.56,15.4,15.49,23.68,20.25,5.74,3.3,17.85,11.05,22.05,9.74-5.81-4.56-11.04-9.08-16.77-14.58-9.51-9.15-17.52-21.53-25.33-33.25-2.54-3.81-14.05-17.42-19.88-26.17.27-.25.54-.51.79-.75,19.78,25.99,57.63,57.51,81.63,56.51-29.47-20.53-33.36-23.96-39.29-29.12-9.72-8.45-25.93-22.06-34.78-35.58.93-1.14,1.83-2.3,2.7-3.5,27.28,18.27,67.27,52.96,93.89,37-4.91.09-13.68-1.1-18.59-2.39-8.09-2.16-10.28-4.62-18.46-8.67-12.67-6.27-43.8-22.03-45.54-42.75,12.98,20.43,21.73,21.51,34.56,30.71,16.67,11.96,36.29,18.84,49.7,13.66-13.05.43-27.85-9.94-41.14-18.18-13.03-8.1-32.55-23.83-39.73-41.4l-.64-.83c1.74-2.25,4.24-4.33,5.15-6.59,1.2-3,5.88-7.36,6.48-10.54,1.58-8.24,4.67-11.94,6.67-19.21,2.23,2.2,4.32,4.62,5.96,7.6,2.34,4.24,2.88,8.79,4.81,12.76,3.35,6.84,8.56,5.96,11.28,11.94,1.47,3.22,1,9.98,1.53,13.57,1.72,11.73,6.09,19.02,13.35,27.43,4.9,5.69,9.43,8.31,16.06,8.82,4.24.33,7.99-2.4,12.11-1.23,2.87,22.02,27.56,29.37,41.15,29.68,11.48.26,22.86,1.54,33.31-2.45,6.57-2.51,22.92-13.8,22.77-23.02-7.52,1.16-14.43,3.21-22.32,3.54Z"/>
        <path class="cls-1" d="m575.08,342.42c-5.86.26-10.65,3.34-16.26,3.92-6.41.68-13.13-2.34-19.68-3.11,9.61.51,19.22,1.42,26.67-4.5,6.84-5.42,25.88-7.29,27.59-17.8-23.44-.62-43.8-3.79-63.01-1.48-5.82.71-12.63,1.12-18.82.18-3.63-.55-4.76-.43-8.12-2.81-2.67-1.88-5.4-7.24-8.16-8.7-5.34-2.83-11.04,1.35-16.07-3.49-3.19-3.08-3.15-5.99-4.95-9.45-4.73-9.03-11.91-15.6-16.3-24.28-3.93-7.8-7.1-16.06-12.15-23.12-3.96-5.55-6.32-7.19-9.91-7.72-1.03-8.21-4.08-16.71-5.54-26.31-2.28-.24-5.31-6.95-6.68-4.95-1.56-8.89-8.9-10.55-16.11-10.45l-.33-3.17c.53-2.46.3-11.06-1.12-14.29-2.13-4.86-6.07-4.99-8.94-8.58-4.3-5.4-2.88-11.2-5.56-17.91-1.83-4.57-5.74-7.59-8.35-11.59-3.85-5.92-14.47-19.1-14.19-26.21.43-10.54,10.3-14.65,8.71-27.7,15.1-.61,26.08,1.86,38.66-7.35,6.14-4.52,12.66-9.28,15.49-18.02,2.28-7.05,1.43-17.64,2.12-25.6-4.74.4-7.32,6.63-11.74,8.11-3.74,1.25-8.33.81-12.38.33,4.55-7.99,13.39-9.69,14.33-21.31-4.33-1.26-6.46,2.63-9.87,3.84-2.88,1.03-6.56.26-9.66.58-7.48.78-13.73,3.58-18.46,10.69-4.22,6.34-6.32,15.17-9.45,22.53-3.89,9.12-9.86,11.57-16.37,17.87-6.61,6.4-2.34,9.19-3.69,18.64-.93,6.42-7.24,9.51-8.88,14.78-2.63,8.47,2.57,19.94,4.23,28.86,2.62,14.12.91,27.5,13.04,36.1,4.02,2.86,14.81,16.53,20.74,24.23-8.87,5.47-16.11,15.03-25.52,20.17-4.91-3.59-7.94-13.2-10.12-17.72-5.1-10.52-7.47-15-12.32-26.24-4.47-10.38-6.89-25.64-7.73-37-.21-2.77,1.22-7.04,2.05-11.15.85-4.34,2.39-6.14,1.9-11.36-12.4,11.78-7.14,40.85-4.31,59.62,1.99,13.18,7,21.76,14.01,32.68,3,4.67,5.49,9.69,7.95,14.64-1.2.38-2.41.76-3.63,1.15-9.6-12.48-17.15-35.9-21.74-48.24-4.71-12.62-6.35-29.01-7.8-42.49-5.97,12.05-3.49,23.27-1.45,41.3,1.01,8.87,8.38,30.04,11.74,38.49,1.96,4.92,5.24,9.63,6.2,14.77-.87.26-1.74.55-2.61.84-18.37-25.57-27.59-61.32-31.21-93.32-2.65,5.78-3.09,4.17-1.8,28.7.47,9.15,3.3,18.27,4.35,27.46,1.47,13.05,8.69,27.37,11.41,45.53-.05.02-.11.05-.16.11-1.88-5.4-8.02-12.1-10.27-17.45-4.05-9.6-5.44-19.14-8.3-29.31-3.35-11.92-4.3-25.07-8.54-36.54-4.71,14.01.27,39.46,2.83,55.39,2.4,15,9.03,25.43,14.46,37.85-.55.68-1.09,1.4-1.62,2.09-3.14-3.84-5.53-11.1-7.87-15.97-4.6-9.57-7.79-20.58-10.84-30.68-1.85-6.1-10.96-31.65-12.62-31.86-6.29-.77,1.45,22.1,3.15,29.01,2.75,11.19,7.46,21.37,10.96,32.27,2.01,6.23,3.83,12.85,6.37,18.72,1.18,2.74,2.9,5.14,4.36,7.82-5.04,7.9-9.52,16.65-13.19,25.87-4.41,11.06-8.39,23.91-11.33,36.02-3.05,12.55-2.27,21.61-.71,35.47l-1.1,1.66c-11.85,1.6-10.2,33.43-5.47,44.49-7.21,5.4-11.43,25.2-3.76,35.25-8.83-.89-6.86,10.66-6.28,19.45-6.27,1.45-16.5-5.58-18.1,5.7-5.13-12.29-19.31-10.84-24.86-6.09-4.54,3.9-3.24,5.43-10.83,2.49-8.59-3.34-13.52-1.26-22.05-2.4-.23-3.78-6.78-10.07-9.48-12.85-6.38-6.59-4.84-7.72-1.06-17.73,1.62-4.27-.41-7.42,2.13-10.22,1.73-1.91,4.27-2.78,6.29-4.19,13.97-9.77,1.28-18.36,1.4-38.41.07-11.33-6.72-18.3-2.82-28.41,3.93-10.18,9.36-18.72,15.39-26.06-7.87-.78-14.67,14.68-20.56,20.5-6.72,6.65-8.17,16.49-12.83,24.44-5.09-8.11-4.83-30.12-5.81-40.53-6.94,13.37-23.84,29.21-25.99,45.02-2.01,14.84.26,56.7,28.89,54.61-10.79,2.24-9.51,9.61-9.93,22.04-.33,9.47,2.19,13.67,6.06,20.88,3.81,7.09,8.82,14.29,18.63,13.83.73-.64,4.36.8,5.01-.55,2.29,11.54,14.45,17.55,22,16.26,5.61-.96,10.56-5.75,13.62-10.79,10.4,7.62,19.86,15.01,27.61,5.05,2.69-3.44,1.61-9.67,4.25-6.46,3.77,4.59,11.52,8.15,18.49,1.64,2.01-2.94,3.25-3.41,2.86-7.86,9.07-2.57,22.12-3.84,24.61-17.24,1-5.38-.04-11.33-.66-17.06-.93-8.6-.47-6.4,3.8-12.68,4.81-7.08,2.32-11.52,2.14-20.84-.09-4.95,1.19-8.42,1.8-13.28,1.17-9.38-2.35-15.95,6.81-14.22,7.73,1.47,11.38,3.76,18.54,2.04,3.93-.93,8.46-2.12,12.46-3.1,3.74-.89,9.06-1.21,12.52-3.19,4.95-2.87,7.26-6.86,13.42-8.09.03-1.38.8-3.11,1.93-4.94,3.06,11.27,15,25.47,20.53,33.52,11.56,16.82,29.89,36.25,46.91,39.14-7.46-5.26-13.31-12.46-19.98-21.81-9.27-13.01-27.93-31.21-39.67-60.88.73-.89,1.39-1.68,1.88-2.36.14-.19.3-.37.43-.55,7.24,11.48,17.05,25.78,21.02,31.82,12.41,18.87,28.84,35.77,42.59,41.29-13.06-8.17-21.46-24.75-31.02-38.75-7.63-11.19-17.55-29.46-22.28-45,.8-.69,1.6-1.37,2.39-2.06,7.11,12.55,17.43,30.04,24.11,37.1,7.14,7.56,15.4,15.49,23.68,20.25,5.74,3.3,17.85,11.05,22.05,9.74-5.81-4.56-11.04-9.08-16.77-14.58-9.51-9.15-17.52-21.53-25.33-33.25-2.54-3.81-14.05-17.42-19.88-26.17.27-.25.54-.51.79-.75,19.78,25.99,57.63,57.51,81.63,56.51-29.47-20.53-33.36-23.96-39.29-29.12-9.72-8.45-25.93-22.06-34.78-35.58.93-1.14,1.83-2.3,2.7-3.5,27.28,18.27,67.27,52.96,93.89,37-4.91.09-13.68-1.1-18.59-2.39-8.09-2.16-10.28-4.62-18.46-8.67-12.67-6.27-43.8-22.03-45.54-42.75,12.98,20.43,21.73,21.51,34.56,30.71,16.67,11.96,36.29,18.84,49.7,13.66-13.05.43-27.85-9.94-41.14-18.18-13.03-8.1-32.55-23.83-39.73-41.4l-.64-.83c1.74-2.25,4.24-4.33,5.15-6.59,1.2-3,5.88-7.36,6.48-10.54,1.58-8.24,4.67-11.94,6.67-19.21,2.23,2.2,4.32,4.62,5.96,7.6,2.34,4.24,2.88,8.79,4.81,12.76,3.35,6.84,8.56,5.96,11.28,11.94,1.47,3.22,1,9.98,1.53,13.57,1.72,11.73,6.09,19.02,13.35,27.43,4.9,5.69,9.43,8.31,16.06,8.82,4.24.33,7.99-2.4,12.11-1.23,2.87,22.02,27.56,29.37,41.15,29.68,11.48.26,22.86,1.54,33.31-2.45,6.57-2.51,22.92-13.8,22.77-23.02-7.52,1.16-14.43,3.21-22.32,3.54Z"/>
      </g>
      <text class="cls-4" transform="translate(341.41 298.79) rotate(.45)"><tspan x="0" y="0">心宿二</tspan></text>
      <text class="cls-4" transform="translate(492.41 483.79) rotate(.45)"><tspan x="0" y="0">Ｍ３</tspan></text>
      <circle class="cls-3" cx="505.79" cy="451.27" r="8.9"/>
    </g>
  </g>
</svg>