<?xml version="1.0" encoding="UTF-8"?>
<svg xmlns="http://www.w3.org/2000/svg" xmlns:xlink="http://www.w3.org/1999/xlink" viewBox="0 0 759 546">
  <defs>
    <style>
      .cls-1 {
        fill: url(#linear-gradient);
      }

      .cls-1, .cls-2, .cls-3 {
        stroke-width: 0px;
      }

      .cls-4 {
        font-family: KozGoPr6N-Regular-83pv-RKSJ-H, 'Kozuka Gothic Pr6N';
        font-size: 15.7px;
      }

      .cls-4, .cls-3 {
        fill: #fff;
      }

      .cls-2 {
        fill: url(#_未命名漸層_264);
        mix-blend-mode: soft-light;
      }

      .cls-5 {
        isolation: isolate;
      }
    </style>
    <linearGradient id="linear-gradient" x1="134.31" y1="273" x2="624.69" y2="273" gradientUnits="userSpaceOnUse">
      <stop offset="0" stop-color="#2a5ca2"/>
      <stop offset="1" stop-color="#1a2a53"/>
    </linearGradient>
    <radialGradient id="_未命名漸層_264" data-name="未命名漸層 264" cx="379.5" cy="273" fx="379.5" fy="273" r="240.1" gradientUnits="userSpaceOnUse">
      <stop offset=".24" stop-color="#158abf"/>
      <stop offset="1" stop-color="#fff"/>
    </radialGradient>
  </defs>
  <g class="cls-5">
    <g id="_圖層_1" data-name="圖層 1">
      <g>
        <path class="cls-1" d="m579.76,318.87c-13.77-10.75-21.14-16.13-35.27-27.54-15.97-12.91-31.38-29.78-33.8-32.43-5.8-6.39-9.32-11.03-7.84-20.3,1.75-11.05,4.74-18.22-1.79-25.31-4.39-4.78-15.96-12.79-21.39-14.03.97-6.27,1.78-10.18,3.31-13.61,8.34,9.36,17.48,13.14,29.97,5.7,14.59-8.69,8.72-20.97,5.22-23.95-8.96-4.27,4.25-34.63,4.34-45.86.11-16.16-13.75-28.36-27.94-32.62-10.43-3.13-22.86,2.47-32.51,8.7-9.23,5.96-16.06,17.71-6.82,28.17-7.1,12.9-2.34,45.18,9.49,46.77-4.63.07-8.02,7.61-15.05-3.4-6.05-9.48-14.25-11.74-23.71-10.89-10.35.93-26.5,12-38.36,15.68.47-9.32,1.48-17.47,8.06-22.63,11.21-8.77,26.49-12.8,31.2-33.12,6.63-28.63,2.1-61.55-18.59-73.09-14.72-8.23-28.96-10.08-43.1-.77-15.04,9.91-28.31,23.78-27.24,49.06.67,15.25,8.64,28.53-6.79,34.95-8.6,1.76-13.29,16.4-5.93,23.71-5.04,5.65-8.21,6.51-10.6,17.21-2.52,11.24-5.47,16-13.5,17.96-10.22,2.51-23.72-3.39-34.01-6.42-14.29-4.2-27.69,3.08-41.36,7.53-25.65,8.36-43.82,34.04-63.78,56.76-16.18,18.42-34.72,44.87-24.97,76.43,7.75,25.05,26.28,40.23,33.77,64.34,7.19,23.15,20.9,37.42,30.95,58.02,4.26,8.75,5.81,12.13,4.39,23.3-1.03,8.15-5.46,18.14-2.54,25.34,3.49,8.59,26.42,16.31,34.19,15.26,8.19-36.28-19.17-66.89-14.55-104.39,1.44-11.8,4.37-20.18-.55-30.88-5.23-11.35-12.36-21.73-19.71-30.04-10.93-12.36-29.46-29.67-28.89-51.58.6-22.66,30.43-27.72,41.2-40.89,16.84-20.59,30.39-25.48,51.6-17.95,37.6,13.34,79.79-3.36,90.6-59.62.04-.23.29-1.43.63-3.11,2.68,17.19,6.47,36.54,8.39,39.77,3.92,6.62,25.47-5.94,42.81-4.64-6.46-.39-16.93,40.53-21.64,46.54-2.89,3.69-7.16,9.15-10.94,11.08l-10.62-1.34c-5.71-3.84-10.09,1.11-13.4,9.14-15.61-14.86-29.92-31.82-59.69-31.8-19.36.02-24.92,52.13-29.12,74.02-5.05,26.23-16.87,37.76-30.14,55.69-3.72,5.04-10.04,14.35-7.17,21.51,4.71,11.66,19.16,2.66,26.05-3.44,6.65-5.9,13.66.81,15.34-10.28,2.08-13.65,3.28-18.81,10.39-28.83,5.63-7.99,9.99-15.55,13.9-24.83,3.21-7.55,7.92-14.65,9.54-24.85,7.58,1.68,14.73,10.51,22.79,13.38,4.12,1.46,11.44,6.24,17.57,9.97-.22,3.53.15,6.87,1.72,10.26-3.02,2.56-6.2,5.02-8.41,8.86-4.32,7.6-12.11,13.22-16.5,21.03-10.45,18.53-16.09,40.35-2.49,57.65,10.72,13.65,69.94,51.7,73.88,55.43,3.13,2.98,29.29,20.11,27.51,5.39-1.17-9.75-7.77-31.06-12.87-34.89-7.12-5.36-12.6,6.99-16.64-2.76-2.5-6.01-13.27-15.49-16.93-20.73-5.73-8.21-15.69-13.23-16.85-27.42-1.75-21.78,33.73-14.07,41.76-20.53.26-.21.68-.49,1.22-.83,5.29.67,10.44-1.08,15.12-7.2,5.18-6.84,8.52-14.13,15.34-18.59,7.15-4.68,13.2-9.71,5.64-20.96l-.51-.75c4.91-18.02,15.65-27.02,29.73-42.79,3.81-5.14,11.63-2.9,13.21-10.05,4.28,3.43,24.28,26.53,44.91,43.97,22.66,19.15,46.08,32.67,50.62,33.67,11.76,2.6,34.02,13.01,50.14-4.45,15.25-16.53-33.28-19.07-41.98-25.86ZM364.29,60.06c10.56-1.3,19.09-.79,28.95,5.75l1.79,1.17c8.01,5.22,21.46,13.96,22.02,26.04.09,1.9-.93,3.56-2.29,3.72-1.35.15-2.52-1.24-2.61-3.14-.38-8.07-13.13-16.37-19.26-20.35l-1.81-1.19c-8.86-5.89-16.69-6.32-26.43-5.12-1.35.17-2.53-1.23-2.61-3.13-.1-1.89.92-3.57,2.27-3.73Zm-18.56,51.41c.35-1.84,1.7-2.96,3.01-2.49,18,6.39,29.4,12.91,41.81,30.83.95,1.35.9,3.54-.06,4.87-.99,1.33-2.56,1.32-3.48-.03-11.68-16.87-22.06-22.79-39.56-29-1.3-.46-2.08-2.33-1.72-4.17Zm125.48,17.55c-.15,1.29-1.48,12.71-3.24,16.53,0,0-1.08,2.28-1.71,3.62,1.06,1.33,3.68,4.6,3.68,4.6.29.37.44.81.44,1.25,0,.59-.26,1.17-.75,1.57-.87.69-2.13.55-2.83-.31l-4.46-5.58-.76-1.02,2.74-5.82c1.26-2.73,2.52-11.97,2.9-15.29.13-1.1,1.12-1.89,2.23-1.77,1.02.12,1.78.99,1.78,1.99,0,.07,0,.15-.01.23Z"/>
        <path class="cls-2" d="m579.76,318.87c-13.77-10.75-21.14-16.13-35.27-27.54-15.97-12.91-31.38-29.78-33.8-32.43-5.8-6.39-9.32-11.03-7.84-20.3,1.75-11.05,4.74-18.22-1.79-25.31-4.39-4.78-15.96-12.79-21.39-14.03.97-6.27,1.78-10.18,3.31-13.61,8.34,9.36,17.48,13.14,29.97,5.7,14.59-8.69,8.72-20.97,5.22-23.95-8.96-4.27,4.25-34.63,4.34-45.86.11-16.16-13.75-28.36-27.94-32.62-10.43-3.13-22.86,2.47-32.51,8.7-9.23,5.96-16.06,17.71-6.82,28.17-7.1,12.9-2.34,45.18,9.49,46.77-4.63.07-8.02,7.61-15.05-3.4-6.05-9.48-14.25-11.74-23.71-10.89-10.35.93-26.5,12-38.36,15.68.47-9.32,1.48-17.47,8.06-22.63,11.21-8.77,26.49-12.8,31.2-33.12,6.63-28.63,2.1-61.55-18.59-73.09-14.72-8.23-28.96-10.08-43.1-.77-15.04,9.91-28.31,23.78-27.24,49.06.67,15.25,8.64,28.53-6.79,34.95-8.6,1.76-13.29,16.4-5.93,23.71-5.04,5.65-8.21,6.51-10.6,17.21-2.52,11.24-5.47,16-13.5,17.96-10.22,2.51-23.72-3.39-34.01-6.42-14.29-4.2-27.69,3.08-41.36,7.53-25.65,8.36-43.82,34.04-63.78,56.76-16.18,18.42-34.72,44.87-24.97,76.43,7.75,25.05,26.28,40.23,33.77,64.34,7.19,23.15,20.9,37.42,30.95,58.02,4.26,8.75,5.81,12.13,4.39,23.3-1.03,8.15-5.46,18.14-2.54,25.34,3.49,8.59,26.42,16.31,34.19,15.26,8.19-36.28-19.17-66.89-14.55-104.39,1.44-11.8,4.37-20.18-.55-30.88-5.23-11.35-12.36-21.73-19.71-30.04-10.93-12.36-29.46-29.67-28.89-51.58.6-22.66,30.43-27.72,41.2-40.89,16.84-20.59,30.39-25.48,51.6-17.95,37.6,13.34,79.79-3.36,90.6-59.62.04-.23.29-1.43.63-3.11,2.68,17.19,6.47,36.54,8.39,39.77,3.92,6.62,25.47-5.94,42.81-4.64-6.46-.39-16.93,40.53-21.64,46.54-2.89,3.69-7.16,9.15-10.94,11.08l-10.62-1.34c-5.71-3.84-10.09,1.11-13.4,9.14-15.61-14.86-29.92-31.82-59.69-31.8-19.36.02-24.92,52.13-29.12,74.02-5.05,26.23-16.87,37.76-30.14,55.69-3.72,5.04-10.04,14.35-7.17,21.51,4.71,11.66,19.16,2.66,26.05-3.44,6.65-5.9,13.66.81,15.34-10.28,2.08-13.65,3.28-18.81,10.39-28.83,5.63-7.99,9.99-15.55,13.9-24.83,3.21-7.55,7.92-14.65,9.54-24.85,7.58,1.68,14.73,10.51,22.79,13.38,4.12,1.46,11.44,6.24,17.57,9.97-.22,3.53.15,6.87,1.72,10.26-3.02,2.56-6.2,5.02-8.41,8.86-4.32,7.6-12.11,13.22-16.5,21.03-10.45,18.53-16.09,40.35-2.49,57.65,10.72,13.65,69.94,51.7,73.88,55.43,3.13,2.98,29.29,20.11,27.51,5.39-1.17-9.75-7.77-31.06-12.87-34.89-7.12-5.36-12.6,6.99-16.64-2.76-2.5-6.01-13.27-15.49-16.93-20.73-5.73-8.21-15.69-13.23-16.85-27.42-1.75-21.78,33.73-14.07,41.76-20.53.26-.21.68-.49,1.22-.83,5.29.67,10.44-1.08,15.12-7.2,5.18-6.84,8.52-14.13,15.34-18.59,7.15-4.68,13.2-9.71,5.64-20.96l-.51-.75c4.91-18.02,15.65-27.02,29.73-42.79,3.81-5.14,11.63-2.9,13.21-10.05,4.28,3.43,24.28,26.53,44.91,43.97,22.66,19.15,46.08,32.67,50.62,33.67,11.76,2.6,34.02,13.01,50.14-4.45,15.25-16.53-33.28-19.07-41.98-25.86ZM364.29,60.06c10.56-1.3,19.09-.79,28.95,5.75l1.79,1.17c8.01,5.22,21.46,13.96,22.02,26.04.09,1.9-.93,3.56-2.29,3.72-1.35.15-2.52-1.24-2.61-3.14-.38-8.07-13.13-16.37-19.26-20.35l-1.81-1.19c-8.86-5.89-16.69-6.32-26.43-5.12-1.35.17-2.53-1.23-2.61-3.13-.1-1.89.92-3.57,2.27-3.73Zm-18.56,51.41c.35-1.84,1.7-2.96,3.01-2.49,18,6.39,29.4,12.91,41.81,30.83.95,1.35.9,3.54-.06,4.87-.99,1.33-2.56,1.32-3.48-.03-11.68-16.87-22.06-22.79-39.56-29-1.3-.46-2.08-2.33-1.72-4.17Zm125.48,17.55c-.15,1.29-1.48,12.71-3.24,16.53,0,0-1.08,2.28-1.71,3.62,1.06,1.33,3.68,4.6,3.68,4.6.29.37.44.81.44,1.25,0,.59-.26,1.17-.75,1.57-.87.69-2.13.55-2.83-.31l-4.46-5.58-.76-1.02,2.74-5.82c1.26-2.73,2.52-11.97,2.9-15.29.13-1.1,1.12-1.89,2.23-1.77,1.02.12,1.78.99,1.78,1.99,0,.07,0,.15-.01.23Z"/>
      </g>
      <text class="cls-4" transform="translate(587.75 224.54) rotate(.45)"><tspan x="0" y="0">Ｍ2</tspan></text>
      <circle class="cls-3" cx="601.13" cy="192.02" r="8.9"/>
      <text class="cls-4" transform="translate(403.9 253.56) rotate(.13)"><tspan x="0" y="0">危宿一</tspan></text>
    </g>
  </g>
</svg>