<?xml version="1.0" encoding="utf-8"?>
<!-- Generator: Adobe Illustrator 28.0.0, SVG Export Plug-In . SVG Version: 6.00 Build 0)  -->
<svg version="1.1" id="圖層_1" xmlns="http://www.w3.org/2000/svg" xmlns:xlink="http://www.w3.org/1999/xlink" x="0px" y="0px"
	 viewBox="0 0 32 32" style="enable-background:new 0 0 32 32;" xml:space="preserve">
<style type="text/css">
	.st0{fill:#0B0E2C;}
	.st1{fill:#E3D04C;}
	.st2{fill:#FFFFFF;}
	.st3{fill:#E2CEC5;}
</style>
<circle class="st0" cx="16" cy="16" r="16"/>
<g>
	<g>
		<g>
			<g>
				<g>
					<g>
						<path class="st1" d="M9.5,17.7c-0.1,0-0.2,0.2-0.2,0.2C9.3,18,9.2,18,9.1,18.1S9,18.2,8.9,18.3c-0.1,0.2-0.2,0.2-0.2,0.3
							c-0.1,0.1-0.1,0.1-0.2,0.2c-0.1,0.1-0.2,0.2-0.3,0.2C8,19.1,8,19.1,8,19.3c-0.1,0.1-0.1,0.2-0.1,0.2c0,0.1-0.1,0.2-0.1,0.2
							c-0.1,0.1-0.1,0.2-0.2,0.3c-0.1,0.1-0.2,0.3-0.3,0.4c-0.1,0.1-0.3,0.4-0.5,0.4c-0.1,0-0.2,0.2-0.3,0.2c-0.1,0-0.2,0.1-0.3,0.2
							c-0.1,0.1-0.2,0.1-0.3,0.1H5.8c-0.1-0.1-0.2,0-0.2-0.2c0-0.1-0.1-0.2-0.1-0.2s0-0.2,0.1-0.3c-0.1-0.2-0.1-0.2,0.1-0.3
							C5.7,20.1,5.7,20,5.9,20c0.1,0,0.2-0.1,0.2-0.1c0.1,0,0.2-0.1,0.2-0.1c0,0,0,0,0.1,0c0.1,0,0.2-0.1,0.2-0.1h0.1
							c0.1,0,0.2,0.1,0.2,0.2s0,0.2,0,0.2v0.1c0.1,0,0.2-0.2,0.2-0.2c0-0.1,0.2-0.2,0.2-0.2c0-0.1,0.1-0.2,0.2-0.2
							c0-0.1,0.1-0.2,0.1-0.2l0,0c-0.1,0-0.2,0.1-0.2,0.1c-0.2,0-0.2,0.1-0.2,0.1c0,0-0.1,0-0.1-0.1c0-0.1,0.2-0.1,0.3-0.2
							c0.1,0,0.3-0.1,0.3-0.2c0.1-0.1,0.1-0.2,0.2-0.3c0-0.1,0.1-0.2,0.1-0.2c0.2-0.2,0.2-0.3,0.4-0.5c0.2-0.2,0.3-0.2,0.5-0.3
							c0.2-0.2,0.2-0.1,0.3-0.2c0.1,0,0.1-0.1,0.2-0.1h0.1c0.1,0,0.2,0,0.2,0.1C9.6,17.6,9.6,17.7,9.5,17.7z M6.8,20.4
							c-0.1-0.1-0.2-0.1-0.2-0.2c-0.1-0.1,0-0.2-0.2-0.2c-0.1,0-0.1,0-0.2,0c-0.1,0-0.2,0.1-0.2,0.1s-0.2,0.1-0.2,0.1
							c-0.1,0-0.2,0.2-0.2,0.2s-0.1,0.2-0.1,0.2c0,0.1,0.1,0.2,0.2,0.3h0.1h0.1h0.1C6,21,6,20.9,6.1,20.9c0.1,0,0.1,0,0.2-0.1
							c0.1,0,0.2-0.1,0.2-0.1c0.1,0,0.2-0.1,0.2-0.2C6.7,20.6,6.7,20.5,6.8,20.4L6.8,20.4L6.8,20.4z M9.2,17.7
							c-0.2,0-0.2,0.2-0.3,0.2c-0.1,0-0.2,0.1-0.2,0.2c-0.2,0.1-0.2,0.3-0.3,0.5c0,0.1-0.1,0.2-0.1,0.2l0,0c0.1,0,0.2-0.2,0.3-0.2
							c0,0,0.1-0.1,0.2-0.1s0.1-0.2,0.2-0.2C8.9,18.2,9,18.1,9.1,18C9.2,18,9.3,17.9,9.2,17.7C9.3,17.7,9.2,17.7,9.2,17.7z"/>
						<path class="st1" d="M13.6,19.3c-0.1,0-0.2,0-0.2,0c-0.1,0-0.1,0-0.2,0h-0.1c-0.1,0-0.2,0-0.2,0s-0.2,0-0.2,0
							c-0.1,0-0.2,0-0.3,0s-0.2,0-0.2,0c-0.1,0-0.1,0-0.2,0c-0.1,0-0.2,0-0.2,0c-0.2,0-0.3,0-0.6,0H11c-0.1,0-0.2,0.1-0.2,0.1
							c-0.1,0.1-0.2,0.1-0.2,0.2c0,0.1-0.2,0.2-0.2,0.2c-0.1,0.2-0.2,0.2-0.2,0.3c0,0.1-0.1,0.1-0.2,0.2c0,0.1,0,0.2,0,0.2
							c0,0.2,0.1,0.2,0.2,0.2h0.1c0.1,0,0.2,0,0.2-0.1c0.1,0,0.2-0.1,0.2-0.1s0.2-0.1,0.2-0.1c0,0,0.1,0,0.1,0.1
							c0,0-0.2,0.2-0.2,0.2c-0.1,0-0.1,0.1-0.2,0.1c-0.1,0-0.2,0.1-0.2,0.1c-0.1,0-0.2,0.1-0.3,0.1c-0.1,0-0.3-0.1-0.3-0.2v-0.2
							v-0.1c0.1-0.1,0.1-0.2,0.2-0.3C10,20,10,20,10.1,19.9c0-0.1,0.2-0.1,0.2-0.2c0,0,0,0,0-0.1l0,0l0,0l-0.1,0.1
							C10,19.8,10,19.9,10,20c-0.1,0.1-0.2,0.1-0.2,0.2c-0.1,0.1-0.2,0.1-0.2,0.2c-0.1,0-0.1,0.1-0.2,0.2c-0.1,0-0.2,0.1-0.2,0.1
							l-0.1,0.1c0,0-0.1,0-0.1-0.1c0-0.1,0.2-0.2,0.3-0.2c0.1-0.1,0.2-0.2,0.2-0.2c0.1,0,0.2-0.2,0.2-0.2c0.2-0.1,0.2-0.2,0.3-0.3
							c0,0,0.2-0.2,0.2-0.3l0,0c-0.1,0-0.2,0-0.2,0s-0.1,0-0.2,0H9.8c-0.1,0-0.1,0-0.2,0H9.6H9.5c-0.1,0-0.1,0-0.1,0
							c-0.1,0-0.2,0-0.2,0c0,0-0.1,0-0.1-0.1c0-0.1,0-0.1,0.1-0.1h0.1c0.1,0,0.2,0,0.3,0c0.2,0,0.2,0,0.4,0c0.1,0,0.2,0,0.2,0
							c0.1,0,0.2,0,0.2,0c0.2,0,0.2-0.2,0.3-0.2c0.2-0.1,0.2-0.1,0.2-0.2c0.1,0,0.1-0.2,0.2-0.2c0.1,0,0.2-0.2,0.2-0.2
							c0.1,0,0.1,0.1,0.1,0.1c0,0.1-0.2,0.2-0.2,0.2c-0.1,0.1-0.2,0.2-0.2,0.2l0,0c0,0,0.1,0.1,0.2,0.1c0.1,0,0.1,0,0.2,0
							s0.2,0,0.2,0s0.2,0,0.2,0c0.1,0,0.2,0,0.2,0s0.1,0,0.2,0s0.2,0,0.2,0s0.2,0,0.2,0c0.1,0,0.1,0,0.1,0c0.1,0,0.1,0,0.2,0
							c0.1,0,0.2,0,0.3,0c0.1,0,0.2,0,0.2,0c0.1,0,0.1,0,0.1,0.1C13.6,19.3,13.6,19.3,13.6,19.3z"/>
						<path class="st1" d="M13.9,20.6c-0.1,0.1-0.4,0.2-0.5,0.2c-0.1,0-0.1,0.1-0.2,0.1S13.1,21,13,21c-0.2,0-0.2-0.2-0.2-0.2
							c-0.1,0-0.2,0.1-0.3,0.1c-0.1,0-0.2,0-0.2,0S12,20.8,12,20.7c0-0.2,0.2-0.3,0.4-0.4c0.1-0.1,0.2-0.2,0.4-0.2l0,0
							c0.1,0,0.1,0,0.2,0c0.1,0,0.2,0.2,0.2,0.2c0,0.2-0.1,0.2-0.1,0.3c0,0.1,0,0.2,0.1,0.2s0.4-0.1,0.4-0.2
							C13.6,20.7,13.8,20.6,13.9,20.6C13.9,20.4,13.9,20.4,13.9,20.6C13.9,20.5,13.9,20.6,13.9,20.6z M12.9,20.2
							c-0.2,0-0.3,0.2-0.5,0.3l-0.1,0.1c0,0.1,0.1,0.1,0.1,0.1c0.1,0,0.3-0.2,0.3-0.2C12.8,20.3,13,20.3,12.9,20.2
							C13,20.2,12.9,20.2,12.9,20.2z"/>
						<path class="st1" d="M17.2,20.4c-0.1,0.1-0.2,0.2-0.3,0.2c-0.1,0-0.1,0-0.1,0c-0.1,0-0.2,0-0.2-0.1c-0.1-0.1-0.1-0.1-0.2-0.2
							c0,0,0,0,0-0.1v-0.1c0-0.1,0-0.1,0-0.2c0-0.1,0-0.1-0.1-0.1c-0.1,0-0.1,0.1-0.2,0.2c-0.1,0.1-0.2,0.1-0.2,0.2
							c-0.1,0-0.1,0.1-0.2,0.2c-0.2,0.2-0.2,0.2-0.3,0.4c-0.1,0.1-0.1,0.2-0.2,0.2c-0.1,0-0.1,0-0.1-0.1c0-0.1,0.2-0.2,0.2-0.2
							c0.1-0.1,0.1-0.2,0.2-0.2c0.1-0.1,0.1-0.1,0.1-0.2c0,0,0,0-0.1,0s-0.2,0.2-0.2,0.2s-0.2,0.1-0.2,0.1s-0.2,0.1-0.2,0.1
							s-0.1,0-0.1-0.1c0-0.1,0.2-0.2,0.2-0.2c0.1-0.1,0.2-0.2,0.3-0.2s0.2-0.2,0.3-0.2c0.1,0,0.2,0,0.2,0.1l0,0c0.1,0,0.1,0,0.2-0.1
							c0.1-0.1,0.1-0.1,0.2-0.2c0,0,0.2-0.1,0.2-0.1s0.2,0.2,0.2,0.2v0.1c0,0.1,0,0.2,0,0.2v0.1c0,0.1,0.1,0.1,0.2,0.1
							C16.9,20.5,17.1,20.3,17.2,20.4C17.2,20.3,17.2,20.3,17.2,20.4L17.2,20.4z"/>
						<path class="st1" d="M19.4,20c0,0.1-0.2,0-0.2,0.2c0,0.1,0,0.1,0,0.2c0,0.1,0,0.2-0.1,0.2c0,0.1-0.1,0.2-0.1,0.2
							c-0.1,0-0.2,0.1-0.2,0.1c-0.1,0-0.1,0-0.2,0.1h-0.1h-0.1c-0.1,0-0.2,0.1-0.2,0.1c-0.1,0-0.2-0.1-0.2-0.2
							c0-0.1,0.2-0.2,0.2-0.2c0,0,0,0,0.1,0h0.1c0.1,0,0,0,0.1,0c0.1,0,0.1,0,0.2,0c0.1,0,0.2-0.2,0.2-0.3l-0.1-0.1
							c0,0-0.1,0.1-0.2,0.1c-0.1,0-0.2,0.2-0.3,0.2c-0.1,0-0.3,0.2-0.4,0.2c0,0-0.1,0-0.1-0.1c0-0.1,0.2-0.1,0.2-0.2
							c0.2-0.2,0.7-0.3,0.7-0.4c0.1-0.1,0.1-0.1,0.2-0.2c0.1-0.1,0.2-0.1,0.2-0.1c0.1,0,0.2,0,0.2,0.1C19.5,19.9,19.4,20,19.4,20z
							 M18.4,20.8C18.4,20.8,18.3,20.8,18.4,20.8C18.3,20.9,18.3,20.9,18.4,20.8L18.4,20.8L18.4,20.8z"/>
					</g>
				</g>
			</g>
			<g>
				<g>
					<path class="st2" d="M9.6,17.2l-0.5-0.5c0,0-0.1-0.1-0.2-0.1c-0.1,0-0.1,0-0.2,0.1l-0.5,0.5H7.5v-0.8h1.5
						c0.1,0,0.2-0.1,0.2-0.2c0,0,0-0.1-0.1-0.2l-0.3-0.3c0-0.1-0.1-0.1-0.2-0.1c-0.1,0-0.1,0-0.2,0.1L8.1,16H7.5v-0.7h1.9
						c0.1,0,0.2-0.1,0.2-0.2c0,0,0-0.1-0.1-0.2L9,14.5c0-0.1-0.1-0.1-0.2-0.1c-0.1,0-0.1,0-0.2,0.1L8.3,15H7.5v-0.6l0,0
						c0.1,0,0.1-0.1,0.1-0.2c0-0.2-0.1-0.2-0.2-0.2L6.5,14c-0.1,0-0.1,0-0.1,0.1V15h-1c0.1-0.2,0.2-0.3,0.3-0.6l0,0
						c0.1,0,0.2-0.1,0.2-0.2s-0.1-0.2-0.2-0.2l-1-0.2c-0.1,0-0.2,0-0.2,0.1c-0.1,0.6-0.3,1.3-0.7,2.1c0,0,0,0,0,0.1
						c0,0.1,0,0.1,0.1,0.1c0.5-0.2,0.9-0.6,1.1-0.9h1.2v0.7h-1c-0.1,0-0.2,0.1-0.2,0.2c0,0.1,0.1,0.2,0.2,0.2h1.1v0.8h-2
						c-0.1,0-0.2,0.1-0.2,0.2c0,0.1,0.1,0.2,0.2,0.2h5.2c0.1,0,0.2-0.1,0.2-0.2C9.7,17.2,9.7,17.2,9.6,17.2z"/>
					<path class="st2" d="M5,13.7l0.7-0.1c0.1,0,0.1,0,0.2-0.1C6,13.5,6,13.5,6,13.4v-0.1h2.1v0.2c0,0.1,0,0.1,0.1,0.1
						c0,0,0.1,0.1,0.1,0l0.5,0c0.2,0,0.2-0.2,0.2-0.3V12l0.2-0.2c0.1-0.1,0.1-0.1,0.1-0.2c0,0,0-0.1-0.1-0.1l-0.5-0.6
						c0,0-0.1-0.1-0.2-0.1c-0.1,0-0.1,0-0.2,0.1L8,11.5h-2l-1-0.3c0,0,0,0-0.1,0s-0.1,0.1-0.1,0.2l0.1,2.3C4.9,13.7,4.9,13.7,5,13.7
						z M8,11.7v0.5v0.3V13H5.9v-0.5v-0.3v-0.5H8z"/>
				</g>
				<path class="st2" d="M17.4,14v1.5c0,0.2-0.1,0.4-0.3,0.4L16.5,16c-0.2,0-0.2-0.1-0.2-0.2v-0.2h-0.9l-0.2,1.2H16l0.5-0.4
					c0.1-0.1,0.1-0.1,0.2-0.1s0.1,0,0.2,0.1l0.6,0.5c0.1,0,0.1,0.1,0.1,0.2s0,0.1-0.1,0.2l-0.2,0.2c-0.1,0.7-0.2,1.4-0.3,1.8
					c-0.1,0.2-0.2,0.4-0.3,0.5c-0.2,0.2-0.3,0.2-0.6,0.2c-0.2,0-0.3-0.1-0.4-0.2c0-0.1-0.1-0.2-0.1-0.3s-0.1-0.2-0.2-0.2L14.9,19
					c-0.1,0-0.2-0.1-0.2-0.2c0-0.1,0.1-0.1,0.2-0.1h0.6c0.2,0,0.2,0,0.2,0c0.1,0,0.1-0.1,0.2-0.2c0.1-0.2,0.2-0.7,0.2-1.4h-0.7v0.2
					c-0.1,0.2-0.1,0.2-0.2,0.2l-0.7-0.1c-0.1,0-0.2-0.1-0.2-0.2l0.2-2.3c0-0.1,0.1-0.2,0.2-0.1l0.9,0.3h0.9v-1.5h-1.7
					c-0.1,0-0.2-0.1-0.2-0.2c0-0.1,0.1-0.2,0.2-0.2h1.7l0.4-0.4c0.1-0.1,0.1-0.1,0.2-0.1c0.1,0,0.2,0,0.2,0.1l0.6,0.5
					c0.1,0,0.1,0.1,0.1,0.2c0,0.1,0,0.1-0.1,0.2L17.4,14z M20.7,14.6L20.7,14.6l-0.1,4c0,0.2,0,0.3-0.1,0.4
					c-0.1,0.1-0.2,0.1-0.4,0.2h-0.6c-0.1,0-0.1,0-0.2-0.1c-0.1-0.1-0.1-0.1-0.1-0.2v-4.7c0-0.1,0-0.1,0.1-0.1l1.1,0.1
					c0.1,0,0.1,0,0.2,0.1s0.1,0.1,0.1,0.2C20.8,14.4,20.8,14.5,20.7,14.6z"/>
				<path class="st2" d="M27.7,13.5c-0.1,1.2-0.2,2.3-0.3,3.2c-0.1,0.2-0.2,0.5-0.3,0.6c-0.2,0.2-0.3,0.3-0.6,0.3
					c-0.2,0-0.3-0.1-0.4-0.2c0,0-0.1-0.2-0.2-0.4c-0.1-0.2-0.2-0.2-0.4-0.3l-0.3-0.1c-0.1,0-0.2-0.1-0.2-0.2c0-0.1,0.1-0.1,0.2-0.1
					H26c0.2,0,0.2,0,0.3-0.1c0.1-0.1,0.1-0.2,0.1-0.2c0.1-1,0.2-1.9,0.2-2.7h-1.6c-0.1,1.1-0.4,2.1-0.9,2.8c-0.4,0.6-1.1,1.1-2,1.5
					c-0.2,0.1-0.2,0.1-0.2,0c0-0.1,0-0.1,0-0.2c0.6-0.7,1.1-1.4,1.4-2c0.2-0.6,0.3-1.2,0.4-2h-1.6c-0.1,0-0.2-0.1-0.2-0.2
					c0-0.1,0.1-0.2,0.2-0.2h1.6c0-0.5,0-1.1,0-1.9c0-0.1,0.1-0.2,0.2-0.2l1.1,0.1c0.2,0,0.3,0.1,0.3,0.2c0,0.2-0.1,0.2-0.2,0.3
					c0,0,0,0,0,0.1c0,0.4,0,0.8,0,1.4h1.5l0.6-0.5c0.1-0.1,0.1-0.1,0.2-0.1c0.1,0,0.2,0,0.2,0.1l0.6,0.5c0.1,0.1,0.1,0.1,0.1,0.2
					c0,0.1,0,0.1-0.1,0.2L27.7,13.5z"/>
			</g>
		</g>
		<g>
			<g>
				<path class="st3" d="M11.9,15.5c0-0.2,0.2-0.3,0.4-0.3c0.2,0,0.3,0.2,0.3,0.4c0,0.2-0.2,0.3-0.4,0.3
					C12.1,15.8,11.9,15.6,11.9,15.5z"/>
			</g>
		</g>
		<g>
			<g>
				<path class="st3" d="M11.9,15C11.9,15,11.9,15,11.9,15C11.9,15,11.9,15,11.9,15L10.1,13l0,0v-0.1h0.1L11.9,15L11.9,15z"/>
			</g>
		</g>
		<g>
			<g>
				<path class="st3" d="M24.7,19.1c-0.2-0.1-0.2-0.2-0.2-0.5c0.1-0.2,0.3-0.2,0.5-0.2c0.2,0.1,0.2,0.2,0.2,0.5
					C25.2,19.1,24.9,19.2,24.7,19.1z"/>
			</g>
		</g>
		<g>
			<g>
				<path class="st3" d="M24.3,19.1C24.3,19,24.3,19.1,24.3,19.1C24.4,19.1,24.3,19.1,24.3,19.1L22,20.5l0,0h-0.1v-0.1L24.3,19.1
					L24.3,19.1z"/>
			</g>
		</g>
		<g>
			<g>
				<polygon class="st1" points="7.6,12.5 7.2,12.4 7.3,12.1 7.1,12.3 7,11.8 6.9,12.3 6.7,12.1 6.7,12.4 6.3,12.5 6.7,12.6 
					6.7,12.9 6.9,12.8 7,13.2 7.1,12.8 7.3,12.9 7.2,12.6 				"/>
			</g>
		</g>
	</g>
</g>
</svg>
