<svg width="4482" height="1898" viewBox="0 0 4482 1898" fill="none" xmlns="http://www.w3.org/2000/svg">
<g clip-path="url(#clip0_1177_8206)">
<rect width="4481.01" height="1898" fill="black"/>
<path d="M1026.54 1256.37C1014.07 1260.85 999.117 1282.29 992.635 1294.26C982.664 1309.71 965.215 1319.18 954.247 1333.14C945.273 1346.11 932.809 1354.08 922.339 1365.05C907.383 1381.5 880.461 1398.95 869.991 1414.41C861.017 1429.86 850.547 1433.35 836.089 1441.33C814.651 1451.8 800.692 1474.23 779.254 1486.2C750.836 1502.65 752.332 1507.14 736.378 1539.05C730.894 1551.01 724.911 1563.97 720.424 1576.94C713.445 1596.88 711.45 1610.84 699.984 1628.79C687.52 1647.73 679.543 1668.67 669.572 1688.61C659.102 1707.56 621.71 1746.45 604.759 1760.41C588.806 1773.37 536.956 1832.2 519.507 1832.2C498.069 1832.2 479.622 1866.1 452.7 1866.1C444.723 1866.1 408.329 1886.04 389.384 1889.53C369.94 1893.02 348.502 1898.01 328.061 1898.01C322.577 1898.01 318.09 1898.01 313.603 1894.52C298.647 1884.05 278.206 1891.03 269.232 1868.59C263.748 1852.14 248.791 1839.18 248.791 1819.24C248.791 1799.29 248.791 1773.37 259.261 1754.42C268.235 1736.97 276.212 1714.54 294.658 1703.57C312.606 1693.1 316.096 1670.67 337.534 1666.18C354.485 1661.69 367.946 1649.73 385.395 1647.23C401.349 1646.24 420.793 1633.27 430.764 1633.27C434.254 1633.27 437.743 1634.27 440.735 1634.27C458.683 1634.27 476.132 1624.8 493.083 1624.8C500.063 1624.8 505.547 1625.8 512.527 1628.29C526.985 1635.27 562.382 1640.25 562.382 1661.19C562.382 1676.65 560.388 1691.6 560.388 1708.06C560.388 1711.55 560.388 1720.02 565.872 1720.02C581.826 1720.02 610.244 1682.13 614.731 1668.17C620.215 1649.23 639.658 1643.25 644.145 1621.31C649.629 1602.36 664.586 1589.4 669.073 1570.95C671.566 1560.48 681.537 1539.05 681.537 1531.07C681.537 1527.58 679.044 1526.58 677.05 1526.58C663.589 1526.58 653.119 1539.55 628.192 1539.55C597.78 1539.55 598.777 1561.98 583.82 1561.98C579.333 1561.98 566.869 1557.49 566.869 1551.51C566.869 1535.06 612.238 1529.08 623.705 1525.59C638.163 1519.6 685.027 1510.13 691.508 1500.66C703.972 1485.2 712.946 1461.77 718.929 1442.83C726.906 1422.88 738.372 1405.43 746.349 1386.49C770.28 1333.64 782.744 1330.15 820.135 1294.75C847.556 1269.83 881.458 1254.87 907.383 1229.94C939.29 1200.53 950.258 1210 974.189 1193.55C984.16 1187.57 994.63 1179.59 1007.09 1179.59C1014.07 1179.59 1019.56 1182.08 1025.04 1184.08C1036.51 1190.06 1050.97 1188.56 1050.97 1205.51C1050.97 1220.97 1042.99 1251.38 1027.04 1257.36L1026.54 1256.37ZM530.973 1750.43C516.017 1740.96 505.048 1738.47 495.576 1722.02C486.602 1705.56 500.063 1670.17 461.674 1670.17C450.207 1670.17 438.741 1671.16 427.772 1671.16C411.819 1671.16 400.352 1685.12 384.897 1688.61C370.439 1692.1 356.479 1700.58 342.021 1705.07C322.577 1712.05 293.162 1735.48 289.673 1757.91C287.18 1773.37 278.206 1786.33 278.206 1802.78C278.206 1819.24 292.664 1847.65 307.621 1857.13C311.11 1858.12 316.595 1859.62 322.079 1859.62C327.563 1859.62 333.545 1858.62 336.537 1858.62C341.024 1858.62 345.511 1859.62 349.998 1859.62C361.465 1859.62 371.436 1849.15 386.392 1849.15C404.34 1846.66 407.83 1836.19 422.787 1832.7C438.741 1830.2 449.709 1816.24 464.665 1811.76C476.132 1809.26 489.593 1790.82 503.054 1783.34C514.521 1777.36 518.011 1764.39 528.979 1757.41C529.976 1756.42 531.472 1754.92 531.472 1753.92C531.472 1752.93 530.475 1751.43 530.475 1750.43H530.973ZM963.719 1251.38C918.351 1252.38 926.328 1276.31 895.916 1285.28C874.478 1292.26 869.991 1307.72 851.544 1318.19C825.619 1334.64 805.179 1378.01 792.715 1405.43C788.228 1414.91 776.761 1440.83 776.761 1448.81C776.761 1452.3 777.758 1454.79 780.251 1454.79C793.712 1454.79 824.622 1422.88 839.08 1414.91C854.037 1407.93 863.011 1386.49 878.965 1379.51C894.919 1372.53 899.406 1353.58 912.867 1344.11C928.82 1333.64 938.791 1317.19 953.748 1305.22C961.725 1298.24 980.67 1268.83 980.67 1258.36C980.67 1252.38 970.699 1251.38 963.719 1251.38Z" fill="#E3D04C"/>
<path d="M1784.83 1553C1773.36 1553 1760.9 1547.02 1748.43 1547.02C1736.97 1547.02 1727 1549.51 1713.04 1549.51H1704.06C1689.11 1549.51 1674.65 1550.51 1659.69 1550.51C1647.23 1550.51 1634.76 1548.02 1622.3 1548.02C1601.86 1548.02 1581.42 1551.51 1560.98 1551.51C1548.51 1551.51 1537.05 1547.02 1525.58 1547.02C1515.61 1547.02 1507.63 1550.51 1497.16 1550.51C1481.21 1550.51 1465.25 1547.02 1449.3 1547.02C1416.4 1547.02 1383.49 1551.51 1350.59 1551.51H1318.68C1305.22 1551.51 1282.28 1559.98 1274.31 1572.45C1265.33 1586.41 1245.89 1591.39 1238.91 1608.84C1231.93 1627.79 1202.52 1635.76 1192.54 1659.19C1182.57 1684.12 1157.65 1689.61 1150.67 1707.55C1145.18 1724.01 1130.22 1729.99 1126.73 1740.46C1122.25 1753.42 1121.25 1765.39 1121.25 1777.85C1121.25 1801.28 1139.2 1807.27 1158.64 1807.27C1164.13 1807.27 1171.11 1806.27 1176.59 1803.78C1193.54 1797.79 1211.99 1797.79 1227.44 1789.82C1239.91 1782.84 1253.37 1780.34 1265.83 1773.36C1278.3 1766.38 1296.24 1754.42 1310.2 1754.42C1314.69 1754.42 1322.67 1757.91 1322.67 1763.89C1322.67 1770.87 1289.76 1787.32 1281.79 1789.82C1267.33 1793.31 1260.35 1807.27 1244.39 1809.76C1228.44 1812.25 1213.98 1823.72 1196.53 1826.21C1177.09 1829.7 1159.14 1836.68 1139.7 1836.68C1116.76 1836.68 1074.89 1823.72 1074.89 1794.3V1758.91C1074.89 1752.92 1074.89 1746.94 1078.37 1742.45C1090.84 1722.51 1095.33 1697.58 1114.77 1684.62C1132.72 1672.66 1131.72 1669.17 1142.19 1654.21C1149.17 1644.74 1170.61 1631.77 1178.58 1620.31C1179.58 1619.31 1180.58 1615.82 1180.58 1611.83C1180.58 1610.84 1179.58 1609.34 1177.09 1609.34L1173.6 1612.83C1168.11 1619.81 1164.62 1624.79 1154.16 1629.28C1123.74 1646.73 1130.22 1661.19 1116.76 1669.17C1100.81 1678.64 1091.84 1691.6 1079.37 1704.56C1066.91 1717.53 1053.45 1727 1038.49 1734.98C1027.02 1741.95 1021.54 1754.92 1009.08 1759.9C995.615 1765.89 981.655 1772.87 969.191 1780.84C962.212 1785.33 954.733 1790.31 946.258 1790.31C941.771 1790.31 934.791 1786.83 934.791 1780.84C934.791 1771.37 980.16 1747.94 989.134 1740.96C1005.09 1730.49 1018.55 1716.03 1034.5 1705.56C1050.46 1695.09 1063.92 1678.64 1080.87 1667.67C1104.8 1652.22 1115.77 1627.79 1135.21 1608.84C1140.69 1602.86 1183.07 1556.99 1183.07 1554.5C1183.07 1553.5 1182.07 1552.01 1181.08 1551.01C1167.62 1547.52 1149.17 1548.52 1134.71 1547.52C1125.74 1545.03 1117.76 1545.03 1105.3 1545.03H1080.37C1071.4 1545.03 1062.42 1548.52 1052.95 1548.52C1048.46 1548.52 1044.97 1547.52 1040.48 1547.52C1036.99 1547.52 1030.51 1551.01 1026.03 1551.01C1017.05 1551.01 1018.05 1548.52 1009.08 1548.52C993.122 1548.52 978.664 1549.51 963.707 1549.51C956.727 1549.51 946.756 1548.52 946.756 1539.04C946.756 1528.57 949.249 1520.1 961.713 1520.1C968.693 1520.1 975.174 1522.59 982.154 1522.59C1001.6 1522.59 1019.55 1521.59 1038.99 1521.59C1062.92 1521.59 1087.85 1522.59 1112.78 1522.59C1126.24 1522.59 1139.7 1516.61 1154.65 1516.61C1167.12 1516.61 1180.58 1519.1 1193.04 1519.1C1242.9 1519.1 1226.94 1495.67 1256.36 1483.7C1280.29 1475.23 1280.29 1461.27 1296.24 1455.29C1312.2 1449.3 1317.68 1429.36 1334.63 1421.38C1348.09 1415.4 1368.53 1397.95 1382.49 1397.95C1390.47 1397.95 1398.45 1406.43 1398.45 1414.4C1398.45 1423.88 1374.52 1462.76 1366.54 1467.25C1353.08 1476.72 1339.62 1508.63 1329.15 1510.63C1328.15 1511.62 1324.66 1511.62 1324.66 1514.12C1324.66 1521.1 1339.62 1523.59 1353.08 1523.59C1363.05 1523.59 1373.52 1522.59 1377.01 1522.59C1393.96 1522.59 1412.41 1525.08 1429.36 1525.08C1442.82 1525.08 1455.28 1520.6 1469.24 1520.6C1485.2 1520.6 1502.15 1524.09 1518.1 1524.09C1529.57 1524.09 1539.54 1521.59 1550.01 1521.59C1564.96 1521.59 1578.43 1526.08 1593.38 1526.08C1606.84 1526.08 1619.31 1522.59 1631.77 1522.59C1639.75 1522.59 1646.73 1523.59 1653.21 1523.59C1664.68 1523.59 1673.65 1519.1 1683.62 1519.1C1701.57 1519.1 1720.02 1522.59 1737.96 1522.59C1751.42 1522.59 1763.89 1515.61 1778.85 1515.61C1786.82 1515.61 1794.8 1518.1 1794.8 1531.07C1794.8 1540.54 1794.8 1551.01 1783.33 1551.01L1784.83 1553Z" fill="#E3D04C"/>
<path d="M1841.19 1776.87C1827.73 1786.34 1771.89 1810.77 1754.94 1816.75C1743.47 1820.24 1733.5 1827.22 1723.03 1833.2C1715.06 1836.69 1690.13 1841.68 1681.15 1841.68C1655.23 1841.68 1656.23 1813.26 1638.28 1813.26C1622.32 1813.26 1608.86 1835.7 1579.45 1835.7C1565.99 1835.7 1553.52 1832.21 1541.06 1828.72C1519.62 1822.73 1509.15 1818.25 1509.15 1792.32C1509.15 1758.42 1554.52 1725.51 1580.45 1710.06C1601.88 1698.09 1624.82 1677.15 1653.23 1677.15H1657.72C1669.19 1677.15 1679.16 1672.67 1689.63 1672.67C1707.58 1672.67 1713.56 1696.1 1713.56 1711.56C1713.56 1734.99 1693.12 1757.42 1693.12 1773.87C1693.12 1784.34 1700.1 1799.8 1711.07 1799.8C1720.04 1799.8 1780.37 1782.35 1790.34 1776.37C1800.31 1770.38 1828.73 1756.43 1840.19 1756.43C1844.68 1756.43 1851.66 1758.92 1851.66 1763.41C1851.66 1769.39 1844.68 1775.37 1841.19 1777.36V1776.87ZM1662.21 1709.56C1637.28 1709.56 1596.4 1752.94 1573.96 1765.9C1566.98 1770.38 1560.5 1776.37 1560.5 1785.84C1560.5 1796.31 1570.47 1802.29 1579.95 1802.29C1600.39 1802.29 1634.29 1772.88 1644.26 1755.43C1651.24 1742.47 1673.68 1735.49 1673.68 1723.52C1673.68 1716.54 1669.19 1709.56 1662.21 1709.56Z" fill="#E3D04C"/>
<path d="M2464.39 1757.91C2450.93 1768.38 2414.54 1789.81 2400.08 1793.3C2392.1 1795.8 2385.12 1796.79 2377.14 1796.79C2363.68 1796.79 2348.73 1793.3 2336.26 1786.32C2315.82 1774.36 2322.8 1767.38 2307.85 1756.91C2303.36 1753.42 2302.36 1749.93 2302.36 1744.94C2302.36 1739.96 2303.36 1735.47 2303.36 1729.49C2303.36 1720.02 2310.34 1713.04 2310.34 1703.56C2310.34 1695.09 2305.85 1688.11 2297.87 1688.11C2286.41 1688.11 2277.43 1707.05 2272.95 1716.53C2263.97 1730.49 2248.02 1738.96 2233.06 1743.45C2219.6 1747.94 2212.62 1760.9 2200.16 1768.38C2161.77 1791.81 2162.77 1816.74 2135.35 1837.68C2121.88 1848.15 2120.39 1866.09 2089.98 1866.09C2082 1866.09 2070.53 1862.6 2070.53 1852.13C2070.53 1838.17 2100.95 1813.25 2111.41 1805.27C2124.88 1794.8 2130.86 1779.35 2145.32 1769.87C2157.78 1761.4 2164.76 1750.93 2164.76 1735.97C2164.76 1731.48 2160.27 1728.99 2155.79 1728.99C2138.84 1728.99 2126.37 1752.42 2112.91 1752.42C2102.94 1752.42 2085.49 1768.88 2074.52 1772.37C2063.06 1774.86 2046.1 1787.82 2038.13 1787.82C2032.64 1787.82 2028.16 1784.33 2028.16 1778.35C2028.16 1762.89 2064.55 1754.92 2074.52 1744.45C2090.48 1728.99 2113.91 1719.52 2133.35 1710.54C2141.33 1706.06 2178.72 1677.64 2186.7 1677.64C2194.67 1680.13 2212.62 1684.62 2212.62 1694.09C2212.62 1698.58 2214.62 1700.07 2218.11 1700.07C2227.08 1700.07 2238.55 1693.1 2245.53 1687.11C2260.48 1675.15 2254.5 1667.17 2275.94 1662.18C2282.92 1659.69 2313.33 1648.23 2315.32 1648.23C2330.28 1648.23 2341.25 1673.15 2341.25 1686.12V1696.58C2341.25 1710.54 2345.74 1721.51 2345.74 1735.47C2345.74 1742.45 2346.73 1748.43 2349.23 1756.41C2353.71 1766.88 2365.18 1770.37 2375.15 1770.37C2407.06 1770.37 2455.92 1734.97 2461.4 1734.97C2466.88 1734.97 2471.87 1740.96 2471.87 1745.44C2471.87 1751.43 2467.38 1755.91 2463.89 1758.41L2464.39 1757.91Z" fill="#E3D04C"/>
<path d="M2871.7 1682.63C2867.22 1693.1 2833.32 1687.11 2833.32 1721.51C2833.32 1731.98 2838.8 1741.46 2838.8 1753.42C2838.8 1767.38 2834.31 1788.82 2825.34 1799.29C2818.36 1808.76 2813.87 1824.22 2803.9 1828.7C2791.44 1833.19 2778.97 1846.15 2767.51 1848.65C2757.54 1849.64 2751.55 1853.13 2742.58 1860.61C2740.09 1861.61 2734.6 1863.1 2729.12 1863.1C2723.63 1863.1 2717.65 1862.11 2714.16 1862.11C2700.7 1862.11 2690.23 1870.58 2677.77 1870.58C2665.3 1870.58 2644.86 1855.13 2644.86 1841.17C2644.86 1828.2 2680.26 1799.79 2692.72 1799.79C2696.21 1799.79 2699.7 1800.78 2704.19 1800.78C2709.67 1800.78 2716.65 1799.79 2722.14 1799.79C2730.11 1799.79 2727.62 1804.27 2739.09 1804.27C2749.06 1804.27 2758.53 1803.28 2768.5 1803.28C2787.95 1803.28 2796.92 1751.43 2796.92 1737.47C2796.92 1730.49 2788.94 1717.53 2782.46 1717.53C2775.98 1717.53 2766.51 1730.49 2752.05 1730.49C2742.08 1730.49 2715.66 1758.91 2698.71 1762.4C2677.27 1764.89 2630.9 1795.3 2618.44 1795.3C2613.95 1795.3 2605.97 1794.3 2605.97 1786.82C2605.97 1774.86 2638.88 1764.39 2647.85 1757.41C2676.27 1732.48 2776.98 1702.07 2788.45 1675.15C2798.92 1654.21 2805.4 1657.7 2815.87 1643.24C2824.84 1629.28 2846.28 1623.3 2862.23 1623.3C2873.7 1623.3 2896.13 1626.79 2896.13 1643.24C2896.13 1653.71 2876.69 1670.16 2872.2 1683.12L2871.7 1682.63ZM2694.72 1825.21C2691.23 1825.21 2682.25 1828.7 2682.25 1833.69C2682.25 1837.18 2686.74 1840.67 2690.23 1840.67C2694.72 1840.67 2701.7 1834.69 2701.7 1830.2C2701.7 1826.71 2698.21 1825.71 2694.72 1825.71V1825.21Z" fill="#E3D04C"/>
<path d="M1051.45 1139.71L966.699 1054.95C959.719 1047.97 951.244 1044.98 939.777 1044.98C931.301 1044.98 922.826 1047.97 915.846 1054.95L831.092 1139.71H654.603V987.151H931.301C948.252 987.151 956.728 977.18 956.728 958.733C956.728 951.754 952.739 943.278 941.272 933.307L878.953 869.991C871.973 861.515 863.498 857.527 855.022 857.527C845.051 857.527 836.576 861.515 828.101 869.991L765.781 933.307H654.105V803.683H1016.55C1033.51 803.683 1043.48 795.207 1043.48 778.257C1043.48 771.277 1036.5 761.306 1025.03 749.839L940.275 663.589C933.296 655.113 924.82 651.125 916.345 651.125C906.374 651.125 897.898 655.113 889.423 663.589L806.164 748.343H653.606V639.658C653.606 639.658 655.102 635.67 657.594 635.67C670.058 628.69 676.041 618.719 677.537 604.759C679.032 580.829 666.07 567.866 642.139 567.866L472.63 559.391C461.164 557.895 455.68 563.379 455.68 577.837V748.343H272.211C292.153 718.928 310.101 686.024 328.548 649.629C330.044 646.638 332.536 645.641 335.528 645.641C356.467 645.641 369.43 635.67 370.925 614.73C372.421 597.78 362.45 586.313 344.003 580.829L169.01 543.936C153.555 538.451 145.08 543.936 142.088 560.886C125.137 671.067 78.7718 799.196 0.997191 947.765C-0.498475 951.754 -1.99414 954.745 -1.99414 957.736C-1.99414 970.2 4.98563 973.192 17.9481 966.212C106.691 919.846 177.486 866.002 229.834 803.683H455.68L454.184 933.307H260.745C243.794 933.307 233.823 941.783 233.823 958.733C233.823 977.18 243.794 987.151 260.745 987.151H454.184V1139.71H69.2993C52.3484 1139.71 43.8729 1148.18 43.8729 1166.63C43.8729 1185.08 52.3484 1193.55 69.2993 1193.55H1042.98C1059.93 1193.55 1068.4 1185.08 1068.4 1169.62C1068.4 1161.15 1062.92 1151.18 1051.45 1140.21V1139.71Z" fill="white"/>
<path d="M191.937 502.046L326.049 486.591C334.524 485.095 342.999 481.107 349.979 471.136C358.455 461.164 361.446 451.193 359.95 442.718V424.271H749.322L747.826 455.182C747.826 463.657 750.818 470.637 757.797 476.121C763.282 481.605 770.261 484.597 778.737 483.101L894.402 471.634C922.819 468.643 938.274 446.208 938.274 403.831L945.254 172.501L976.165 144.083C984.64 135.608 988.629 128.628 988.629 120.153C988.629 113.173 984.64 106.193 976.165 99.2134L878.946 12.9633C871.967 7.47918 863.491 2.99219 853.52 2.99219C841.056 2.99219 832.581 5.98352 825.102 11.4676L745.832 82.2625H354.965L181.966 24.9286C178.975 23.433 176.482 23.433 171.995 23.433C159.531 23.433 152.053 31.9084 152.053 47.3636L160.528 473.628C160.528 494.568 170.499 504.539 191.439 502.046H191.937ZM754.806 136.605L753.31 225.348L751.815 279.192L748.823 370.926H359.452L356.46 279.192L354.965 225.348L353.469 136.605H754.308H754.806Z" fill="white"/>
<path d="M2498.76 548.427L2495.27 837.09C2493.77 882.957 2473.83 907.885 2437.93 912.372L2326.26 928.824C2301.83 932.314 2290.36 920.848 2290.36 892.928V853.543H2124.84L2109.88 1079.89H2247.49L2332.74 1004.6C2342.71 994.634 2354.18 989.648 2364.15 989.648C2374.12 989.648 2383.59 994.634 2393.56 1002.61L2500.25 1096.34C2508.23 1102.82 2511.72 1112.79 2511.72 1122.76C2511.72 1134.23 2508.23 1142.21 2500.25 1149.19L2465.85 1177.1C2454.39 1318.2 2436.44 1429.87 2411.51 1508.64C2400.04 1548.03 2378.61 1579.44 2349.19 1603.87C2317.78 1628.3 2283.38 1641.76 2244 1641.76C2204.61 1641.76 2181.68 1628.8 2168.71 1605.86C2165.22 1597.89 2158.74 1576.45 2152.26 1540.05C2145.78 1513.63 2134.31 1499.17 2116.37 1495.68L2037.59 1479.23C2021.14 1475.74 2014.66 1467.76 2014.66 1456.3C2014.66 1443.33 2022.64 1436.85 2041.08 1436.85H2141.29C2165.72 1436.85 2182.17 1435.36 2187.16 1433.36C2200.12 1426.88 2208.6 1415.41 2215.08 1397.47C2226.55 1353.1 2238.01 1267.84 2247.98 1143.2H2105.4V1167.63C2097.42 1192.06 2083.96 1205.52 2066.01 1207.02L1939.88 1215C1918.44 1213.5 1906.97 1202.03 1908.47 1177.1L1936.39 753.832C1936.39 732.394 1947.85 725.912 1967.8 734.388L2128.33 791.722H2290.86L2294.35 519.511H1969.29C1949.85 519.511 1939.88 508.044 1939.88 486.606C1939.88 467.162 1949.85 457.191 1969.29 457.191H2280.89L2361.16 378.419C2369.13 370.443 2380.6 366.953 2394.06 366.953C2407.52 366.953 2418.49 370.443 2428.46 378.419L2530.17 463.672C2540.14 470.154 2545.12 478.629 2545.12 488.102C2545.12 497.574 2540.14 507.545 2530.17 517.516L2498.76 548.925V548.427ZM3120.46 658.109C3115.47 661.599 3112.48 668.08 3112.48 676.057V1407.94C3112.48 1442.34 3106 1466.77 3091.04 1481.72C3076.08 1494.68 3051.66 1503.16 3015.76 1504.66L2904.08 1511.14C2892.62 1512.63 2882.64 1507.65 2874.67 1499.67C2866.69 1489.7 2861.71 1480.23 2861.71 1468.26V582.827C2861.71 569.865 2868.19 563.383 2883.14 563.383L3101.51 571.36C3112.98 571.36 3122.95 576.346 3130.93 586.317C3138.9 597.784 3142.39 607.755 3140.9 619.222C3140.9 635.674 3134.42 648.636 3121.45 658.607L3120.46 658.109Z" fill="white"/>
<path d="M4434.15 468.153C4426.18 690.509 4407.73 887.937 4380.81 1059.94C4371.33 1111.79 4354.38 1152.17 4324.47 1185.08C4293.06 1220.97 4252.68 1238.42 4203.82 1238.42C4167.92 1238.42 4143 1228.95 4128.54 1208.51C4125.55 1204.02 4116.07 1177.1 4100.12 1130.23C4090.65 1101.82 4065.72 1084.87 4024.84 1076.89L3960.53 1064.43C3938.59 1057.94 3929.12 1048.97 3930.61 1034.51C3933.6 1020.55 3944.57 1014.07 3966.51 1014.07L4096.63 1017.06C4121.56 1017.06 4140.5 1012.58 4149.98 999.613C4159.45 990.141 4165.43 973.19 4168.92 947.763C4190.86 767.785 4203.32 601.766 4206.31 448.211H3907.18C3889.73 664.085 3835.39 836.586 3741.16 961.723C3665.88 1061.93 3540.74 1152.67 3365.25 1233.93C3341.82 1246.4 3325.86 1246.4 3319.88 1235.43C3313.4 1227.45 3315.39 1217.98 3324.37 1209.01C3449.51 1078.88 3537.25 952.25 3589.1 830.104C3631.48 725.408 3656.41 598.276 3662.89 446.715L3359.27 445.22C3340.32 445.22 3332.84 432.756 3332.84 407.828C3332.84 387.387 3342.32 377.915 3361.26 377.915L3666.38 379.41C3667.87 283.688 3667.87 166.527 3667.87 26.9318C3667.87 7.98671 3677.35 -1.48584 3694.3 -1.48584L3896.21 12.4737C3935.6 15.465 3955.54 29.9231 3957.04 56.3466C3958.53 82.77 3947.56 101.715 3921.14 111.188C3916.65 112.683 3914.66 115.675 3914.66 120.66C3914.66 189.461 3911.67 275.711 3908.18 378.912H4183.88L4288.57 285.183C4296.55 277.207 4307.52 274.215 4321.48 274.215C4338.93 274.215 4352.89 278.702 4365.35 289.67L4465.56 377.416C4475.03 385.393 4479.52 394.866 4479.52 405.834C4479.52 418.298 4475.03 427.77 4465.56 437.243L4432.66 467.156L4434.15 468.153Z" fill="white"/>
<path d="M1487.21 819.619C1491.7 781.729 1525.6 755.804 1562.99 761.787C1600.38 767.769 1626.31 803.167 1621.82 841.057C1617.33 878.947 1583.43 904.872 1546.04 898.889C1508.65 892.907 1482.72 857.509 1487.21 819.619Z" fill="#E2CEC5"/>
<path d="M1477.2 741.85C1480.2 745.34 1480.2 750.824 1477.2 753.815C1473.71 756.807 1468.73 756.807 1465.74 753.317L1126.72 380.397C1123.73 376.908 1123.73 371.423 1126.72 368.432C1130.21 365.441 1135.2 365.441 1138.19 368.931L1477.2 741.85Z" fill="#E2CEC5"/>
<path d="M3873.75 1510.62C3837.86 1497.16 3820.91 1458.27 3835.36 1423.38C3849.82 1388.48 3890.7 1371.53 3926.1 1384.99C3962 1398.45 3978.95 1437.34 3964.49 1472.23C3950.03 1507.13 3909.15 1524.08 3873.75 1510.62Z" fill="#E2CEC5"/>
<path d="M3795.51 1502.16C3799.5 1500.16 3804.49 1501.66 3806.98 1505.15C3809.47 1509.14 3807.48 1514.12 3803.49 1516.62L3360.77 1757.42C3356.78 1759.41 3351.8 1757.92 3349.31 1754.43C3346.81 1750.44 3348.81 1745.45 3352.8 1742.96L3795.51 1502.16Z" fill="#E2CEC5"/>
<path d="M678.548 276.699L599.278 255.261L616.727 211.887L573.353 233.325L557.898 149.568L542.941 233.325L499.567 211.887L517.016 255.261L437.746 276.699L517.016 297.639L499.567 341.511L542.941 319.575L557.898 403.332L573.353 319.575L616.727 341.511L599.278 297.639L678.548 276.699Z" fill="#E3D04C"/>
</g>
<defs>
<clipPath id="clip0_1177_8206">
<rect width="4481.01" height="1898" fill="white"/>
</clipPath>
</defs>
</svg>
