<svg width="250" height="126" viewBox="0 0 250 126" fill="none" xmlns="http://www.w3.org/2000/svg">
<g clip-path="url(#clip0_946_7962)">
<path d="M57.272 80.1478C56.5767 80.3981 55.7422 81.5941 55.3806 82.2617C54.8243 83.1239 53.8508 83.6524 53.2389 84.4312C52.7382 85.1544 52.0428 85.5995 51.4587 86.2114C50.6243 87.1293 49.1223 88.1028 48.5382 88.9651C48.0375 89.8273 47.4534 90.022 46.6468 90.4671C45.4507 91.0512 44.6719 92.3028 43.4759 92.9704C41.8904 93.8883 41.9739 94.1386 41.0838 95.9188C40.7778 96.5863 40.4441 97.3095 40.1937 98.0327C39.8043 99.1453 39.6931 99.9241 39.0533 100.925C38.3579 101.982 37.9129 103.151 37.3566 104.263C36.7725 105.32 34.6864 107.49 33.7407 108.269C32.8506 108.992 29.9578 112.274 28.9843 112.274C27.7883 112.274 26.7591 114.165 25.2571 114.165C24.8121 114.165 22.7816 115.278 21.7247 115.473C20.6399 115.667 19.4438 115.945 18.3034 115.945C17.9975 115.945 17.7471 115.945 17.4968 115.751C16.6623 115.167 15.5219 115.556 15.0213 114.304C14.7153 113.387 13.8809 112.663 13.8809 111.551C13.8809 110.438 13.8809 108.992 14.465 107.935C14.9656 106.961 15.4107 105.71 16.4398 105.098C17.4412 104.514 17.6359 103.262 18.8319 103.012C19.7776 102.761 20.5286 102.094 21.5021 101.955C22.3922 101.899 23.477 101.176 24.0333 101.176C24.228 101.176 24.4227 101.231 24.5896 101.231C25.5909 101.231 26.5644 100.703 27.5101 100.703C27.8996 100.703 28.2055 100.759 28.5949 100.898C29.4016 101.287 31.3764 101.565 31.3764 102.733C31.3764 103.596 31.2651 104.43 31.2651 105.348C31.2651 105.543 31.2651 106.016 31.5711 106.016C32.4612 106.016 34.0466 103.902 34.297 103.123C34.6029 102.066 35.6877 101.732 35.938 100.508C36.244 99.4513 37.0785 98.7281 37.3288 97.6989C37.4679 97.1148 38.0242 95.9188 38.0242 95.4737C38.0242 95.279 37.8851 95.2234 37.7738 95.2234C37.0228 95.2234 36.4387 95.9466 35.048 95.9466C33.3513 95.9466 33.4069 97.1983 32.5724 97.1983C32.3221 97.1983 31.6267 96.9479 31.6267 96.6142C31.6267 95.6963 34.1579 95.3625 34.7976 95.1678C35.6043 94.834 38.2189 94.3055 38.5805 93.777C39.2758 92.9148 39.7765 91.6075 40.1103 90.5505C40.5553 89.4379 41.1951 88.4644 41.6401 87.4074C42.9752 84.4591 43.6706 84.2643 45.7567 82.2895C47.2865 80.8987 49.1779 80.0643 50.6243 78.6736C52.4044 77.0325 53.0164 77.561 54.3515 76.6431C54.9078 76.3093 55.4919 75.8643 56.1873 75.8643C56.5767 75.8643 56.8826 76.0033 57.1886 76.1146C57.8283 76.4484 58.635 76.3649 58.635 77.3106C58.635 78.1729 58.1899 79.8696 57.2999 80.2034L57.272 80.1478ZM29.6241 107.712C28.7896 107.184 28.1777 107.045 27.6492 106.127C27.1485 105.209 27.8996 103.234 25.7578 103.234C25.1181 103.234 24.4783 103.29 23.8664 103.29C22.9763 103.29 22.3366 104.069 21.4743 104.263C20.6677 104.458 19.8889 104.931 19.0822 105.181C17.9975 105.571 16.3564 106.878 16.1617 108.13C16.0226 108.992 15.5219 109.715 15.5219 110.633C15.5219 111.551 16.3286 113.136 17.163 113.665C17.3577 113.72 17.6637 113.804 17.9696 113.804C18.2756 113.804 18.6094 113.748 18.7763 113.748C19.0266 113.748 19.2769 113.804 19.5273 113.804C20.167 113.804 20.7233 113.22 21.5578 113.22C22.5591 113.081 22.7538 112.496 23.5882 112.302C24.4783 112.163 25.0902 111.384 25.9247 111.134C26.5644 110.994 27.3154 109.965 28.0664 109.548C28.7062 109.214 28.9009 108.491 29.5128 108.102C29.5684 108.046 29.6519 107.963 29.6519 107.907C29.6519 107.851 29.5963 107.768 29.5963 107.712H29.6241ZM53.7674 79.8696C51.2362 79.9252 51.6813 81.2603 49.9845 81.761C48.7885 82.1504 48.5382 83.0127 47.509 83.5968C46.0627 84.5147 44.9222 86.9346 44.2269 88.4644C43.9765 88.9929 43.3368 90.4392 43.3368 90.8843C43.3368 91.079 43.3924 91.2181 43.5315 91.2181C44.2825 91.2181 46.007 89.4379 46.8137 88.9929C47.6481 88.6035 48.1488 87.4074 49.0388 87.018C49.9289 86.6286 50.1793 85.5716 50.9303 85.0432C51.8203 84.4591 52.3766 83.5412 53.2111 82.8736C53.6561 82.4842 54.7131 80.8431 54.7131 80.259C54.7131 79.9252 54.1568 79.8696 53.7674 79.8696Z" fill="#E3D04C"/>
<path d="M99.5767 96.6973C98.9369 96.6973 98.2416 96.3635 97.5462 96.3635C96.9065 96.3635 96.3502 96.5026 95.5714 96.5026H95.0707C94.2362 96.5026 93.4296 96.5582 92.5952 96.5582C91.8998 96.5582 91.2044 96.4191 90.509 96.4191C89.3686 96.4191 88.2282 96.6139 87.0878 96.6139C86.3924 96.6139 85.7527 96.3635 85.113 96.3635C84.5567 96.3635 84.1116 96.5582 83.5275 96.5582C82.6374 96.5582 81.7474 96.3635 80.8573 96.3635C79.0215 96.3635 77.1857 96.6139 75.3499 96.6139H73.5698C72.8188 96.6139 71.5393 97.0867 71.0943 97.7821C70.5936 98.5609 69.5088 98.839 69.1194 99.8126C68.73 100.87 67.0889 101.315 66.5326 102.622C65.9763 104.013 64.5856 104.319 64.1962 105.32C63.8902 106.238 63.0558 106.572 62.8611 107.156C62.6107 107.879 62.5551 108.546 62.5551 109.242C62.5551 110.549 63.5564 110.883 64.6412 110.883C64.9472 110.883 65.3366 110.827 65.6426 110.688C66.5883 110.354 67.6174 110.354 68.4797 109.909C69.175 109.52 69.926 109.381 70.6214 108.991C71.3168 108.602 72.3181 107.934 73.0969 107.934C73.3473 107.934 73.7923 108.129 73.7923 108.463C73.7923 108.852 71.9565 109.77 71.5115 109.909C70.7049 110.104 70.3154 110.883 69.4254 111.022C68.5353 111.161 67.7287 111.801 66.7551 111.94C65.6704 112.135 64.669 112.524 63.5843 112.524C62.3048 112.524 59.9683 111.801 59.9683 110.16V108.185C59.9683 107.851 59.9683 107.517 60.163 107.267C60.8584 106.154 61.1087 104.764 62.1935 104.04C63.1948 103.373 63.1392 103.178 63.7233 102.344C64.1127 101.815 65.3088 101.092 65.7538 100.452C65.8094 100.397 65.8651 100.202 65.8651 99.9795C65.8651 99.9238 65.8094 99.8404 65.6704 99.8404L65.4757 100.035C65.1697 100.424 64.975 100.703 64.3909 100.953C62.6942 101.926 63.0558 102.733 62.3048 103.178C61.4147 103.707 60.914 104.43 60.2187 105.153C59.5233 105.876 58.7723 106.405 57.9378 106.85C57.2981 107.239 56.9921 107.962 56.2968 108.24C55.5458 108.574 54.7669 108.964 54.0716 109.409C53.6822 109.659 53.2649 109.937 52.7921 109.937C52.5418 109.937 52.1523 109.742 52.1523 109.409C52.1523 108.88 54.6835 107.573 55.1842 107.183C56.0742 106.599 56.8252 105.793 57.7153 105.209C58.6054 104.625 59.3564 103.707 60.3021 103.095C61.6372 102.232 62.2491 100.87 63.3339 99.8126C63.6399 99.4788 66.0041 96.9198 66.0041 96.7807C66.0041 96.7251 65.9485 96.6417 65.8929 96.586C65.1419 96.3913 64.1127 96.447 63.3061 96.3913C62.8054 96.2523 62.3604 96.2523 61.665 96.2523H60.2743C59.7736 96.2523 59.273 96.447 58.7445 96.447C58.4941 96.447 58.2994 96.3913 58.0491 96.3913C57.8544 96.3913 57.4928 96.586 57.2425 96.586C56.7418 96.586 56.7974 96.447 56.2968 96.447C55.4067 96.447 54.6001 96.5026 53.7656 96.5026C53.3762 96.5026 52.8199 96.447 52.8199 95.9185C52.8199 95.3344 52.959 94.8615 53.6543 94.8615C54.0438 94.8615 54.4053 95.0006 54.7948 95.0006C55.8795 95.0006 56.8809 94.945 57.9657 94.945C59.3008 94.945 60.6915 95.0006 62.0822 95.0006C62.8333 95.0006 63.5843 94.6668 64.4187 94.6668C65.1141 94.6668 65.8651 94.8059 66.5604 94.8059C69.3419 94.8059 68.4519 93.4986 70.0929 92.831C71.428 92.3582 71.428 91.5794 72.3181 91.2456C73.2082 90.9118 73.5142 89.7992 74.4599 89.3542C75.2109 89.0204 76.3513 88.0469 77.1301 88.0469C77.5751 88.0469 78.0202 88.5197 78.0202 88.9648C78.0202 89.4932 76.6851 91.6628 76.24 91.9131C75.489 92.4416 74.738 94.2218 74.1539 94.333C74.0983 94.3887 73.9036 94.3887 73.9036 94.5277C73.9036 94.9171 74.738 95.0562 75.489 95.0562C76.0453 95.0562 76.6294 95.0006 76.8241 95.0006C77.7698 95.0006 78.799 95.1397 79.7447 95.1397C80.4957 95.1397 81.1911 94.8893 81.9699 94.8893C82.86 94.8893 83.8057 95.084 84.6957 95.084C85.3355 95.084 85.8918 94.945 86.4759 94.945C87.3103 94.945 88.0613 95.1953 88.8958 95.1953C89.6468 95.1953 90.3422 95.0006 91.0375 95.0006C91.4826 95.0006 91.872 95.0562 92.2336 95.0562C92.8733 95.0562 93.374 94.8059 93.9303 94.8059C94.9316 94.8059 95.9608 95.0006 96.9621 95.0006C97.7131 95.0006 98.4085 94.6112 99.2429 94.6112C99.688 94.6112 100.133 94.7503 100.133 95.4734C100.133 96.0019 100.133 96.586 99.4932 96.586L99.5767 96.6973Z" fill="#E3D04C"/>
<path d="M102.721 109.187C101.97 109.716 98.8547 111.079 97.909 111.413C97.2693 111.607 96.713 111.997 96.1289 112.33C95.6838 112.525 94.2931 112.803 93.7924 112.803C92.346 112.803 92.4017 111.218 91.4003 111.218C90.5103 111.218 89.7593 112.469 88.1182 112.469C87.3672 112.469 86.6718 112.275 85.9764 112.08C84.7804 111.746 84.1963 111.496 84.1963 110.05C84.1963 108.158 86.7274 106.322 88.1738 105.46C89.3699 104.793 90.6493 103.624 92.2348 103.624H92.4851C93.1249 103.624 93.6812 103.374 94.2653 103.374C95.2666 103.374 95.6004 104.681 95.6004 105.544C95.6004 106.851 94.46 108.103 94.46 109.02C94.46 109.605 94.8494 110.467 95.4613 110.467C95.962 110.467 99.3276 109.493 99.8839 109.16C100.44 108.826 102.026 108.047 102.665 108.047C102.916 108.047 103.305 108.186 103.305 108.436C103.305 108.77 102.916 109.104 102.721 109.215V109.187ZM92.7355 105.432C91.3447 105.432 89.0639 107.852 87.8122 108.575C87.4228 108.826 87.0612 109.16 87.0612 109.688C87.0612 110.272 87.6175 110.606 88.146 110.606C89.2864 110.606 91.1778 108.965 91.7341 107.991C92.1235 107.268 93.3752 106.879 93.3752 106.211C93.3752 105.822 93.1249 105.432 92.7355 105.432Z" fill="#E3D04C"/>
<path d="M137.49 108.131C136.739 108.715 134.709 109.911 133.902 110.106C133.457 110.245 133.068 110.301 132.623 110.301C131.872 110.301 131.037 110.106 130.342 109.716C129.202 109.049 129.591 108.659 128.756 108.075C128.506 107.881 128.451 107.686 128.451 107.408C128.451 107.13 128.506 106.879 128.506 106.546C128.506 106.017 128.896 105.628 128.896 105.099C128.896 104.626 128.645 104.237 128.2 104.237C127.56 104.237 127.06 105.294 126.809 105.822C126.309 106.601 125.419 107.074 124.584 107.324C123.833 107.575 123.444 108.298 122.748 108.715C120.607 110.022 120.662 111.413 119.133 112.581C118.382 113.165 118.298 114.167 116.601 114.167C116.156 114.167 115.517 113.972 115.517 113.388C115.517 112.609 117.213 111.218 117.797 110.773C118.548 110.189 118.882 109.327 119.689 108.799C120.384 108.326 120.774 107.742 120.774 106.907C120.774 106.657 120.523 106.518 120.273 106.518C119.327 106.518 118.632 107.825 117.881 107.825C117.325 107.825 116.351 108.743 115.739 108.938C115.099 109.077 114.154 109.8 113.709 109.8C113.403 109.8 113.152 109.605 113.152 109.271C113.152 108.409 115.183 107.964 115.739 107.38C116.629 106.518 117.937 105.989 119.021 105.489C119.466 105.238 121.552 103.653 121.997 103.653C122.443 103.792 123.444 104.042 123.444 104.571C123.444 104.821 123.555 104.904 123.75 104.904C124.25 104.904 124.89 104.515 125.28 104.181C126.114 103.514 125.78 103.069 126.976 102.791C127.366 102.651 129.062 102.012 129.174 102.012C130.008 102.012 130.62 103.402 130.62 104.126V104.71C130.62 105.489 130.87 106.101 130.87 106.879C130.87 107.269 130.926 107.603 131.065 108.048C131.315 108.632 131.955 108.826 132.511 108.826C134.292 108.826 137.017 106.851 137.323 106.851C137.629 106.851 137.908 107.185 137.908 107.436C137.908 107.769 137.657 108.02 137.463 108.159L137.49 108.131Z" fill="#E3D04C"/>
<path d="M160.215 103.93C159.965 104.514 158.073 104.18 158.073 106.1C158.073 106.684 158.379 107.212 158.379 107.88C158.379 108.659 158.129 109.855 157.628 110.439C157.239 110.967 156.988 111.83 156.432 112.08C155.737 112.33 155.041 113.053 154.402 113.192C153.845 113.248 153.512 113.443 153.011 113.86C152.872 113.916 152.566 113.999 152.26 113.999C151.954 113.999 151.62 113.943 151.425 113.943C150.674 113.943 150.09 114.416 149.395 114.416C148.7 114.416 147.559 113.554 147.559 112.775C147.559 112.052 149.534 110.467 150.229 110.467C150.424 110.467 150.619 110.522 150.869 110.522C151.175 110.522 151.565 110.467 151.871 110.467C152.316 110.467 152.176 110.717 152.816 110.717C153.373 110.717 153.901 110.661 154.457 110.661C155.542 110.661 156.043 107.769 156.043 106.99C156.043 106.6 155.598 105.877 155.236 105.877C154.875 105.877 154.346 106.6 153.539 106.6C152.983 106.6 151.509 108.186 150.563 108.38C149.367 108.52 146.78 110.216 146.085 110.216C145.835 110.216 145.39 110.161 145.39 109.743C145.39 109.076 147.225 108.492 147.726 108.102C149.312 106.712 154.93 105.015 155.57 103.513C156.154 102.345 156.516 102.539 157.1 101.733C157.6 100.954 158.796 100.62 159.686 100.62C160.326 100.62 161.578 100.815 161.578 101.733C161.578 102.317 160.493 103.235 160.243 103.958L160.215 103.93ZM150.341 111.885C150.146 111.885 149.645 112.08 149.645 112.358C149.645 112.553 149.896 112.747 150.09 112.747C150.341 112.747 150.73 112.414 150.73 112.163C150.73 111.969 150.535 111.913 150.341 111.913V111.885Z" fill="#E3D04C"/>
<path d="M58.6615 73.6421L53.933 68.9136C53.5436 68.5242 53.0707 68.3573 52.431 68.3573C51.9581 68.3573 51.4853 68.5242 51.0958 68.9136L46.3673 73.6421H36.5209V65.1308H51.9581C52.9038 65.1308 53.3767 64.5745 53.3767 63.5453C53.3767 63.1559 53.1541 62.6831 52.5144 62.1268L49.0375 58.5943C48.6481 58.1214 48.1753 57.8989 47.7024 57.8989C47.1461 57.8989 46.6733 58.1214 46.2004 58.5943L42.7236 62.1268H36.493V54.8949H56.7144C57.6602 54.8949 58.2165 54.4221 58.2165 53.4764C58.2165 53.0869 57.827 52.5307 57.1873 51.8909L52.4588 47.0789C52.0694 46.6061 51.5965 46.3836 51.1237 46.3836C50.5674 46.3836 50.0945 46.6061 49.6217 47.0789L44.9766 51.8075H36.4652V45.7438C36.4652 45.7438 36.5487 45.5213 36.6877 45.5213C37.3831 45.1319 37.7169 44.5756 37.8003 43.7968C37.8838 42.4617 37.1606 41.7385 35.8255 41.7385L26.3684 41.2656C25.7287 41.1822 25.4227 41.4881 25.4227 42.2948V51.8075H15.1868C16.2994 50.1664 17.3008 48.3306 18.3299 46.3001C18.4134 46.1332 18.5524 46.0776 18.7193 46.0776C19.8876 46.0776 20.6107 45.5213 20.6942 44.3531C20.7776 43.4074 20.2213 42.7676 19.1922 42.4617L9.42917 40.4034C8.56691 40.0974 8.09406 40.4034 7.92717 41.3491C6.98146 47.4962 4.39468 54.6446 0.0555611 62.9334C-0.0278835 63.1559 -0.111328 63.3228 -0.111328 63.4897C-0.111328 64.1851 0.27808 64.352 1.00127 63.9626C5.95231 61.3758 9.90202 58.3718 12.8226 54.8949H25.4227L25.3393 62.1268H14.5471C13.6014 62.1268 13.0451 62.5996 13.0451 63.5453C13.0451 64.5745 13.6014 65.1308 14.5471 65.1308H25.3393V73.6421H3.8662C2.92049 73.6421 2.44764 74.115 2.44764 75.1441C2.44764 76.1733 2.92049 76.6461 3.8662 76.6461H58.1886C59.1343 76.6461 59.6072 76.1733 59.6072 75.311C59.6072 74.8382 59.3012 74.2819 58.6615 73.6699V73.6421Z" fill="white"/>
<path d="M10.7086 38.0653L18.1908 37.2031C18.6636 37.1196 19.1365 36.8971 19.5259 36.3408C19.9988 35.7845 20.1656 35.2282 20.0822 34.7554V33.7262H41.8056L41.7222 35.4507C41.7222 35.9236 41.889 36.313 42.2785 36.619C42.5844 36.9249 42.9738 37.0918 43.4467 37.0084L49.8997 36.3686C51.4852 36.2017 52.3474 34.9501 52.3474 32.5858L52.7368 19.6797L54.4614 18.0943C54.9342 17.6214 55.1567 17.232 55.1567 16.7592C55.1567 16.3697 54.9342 15.9803 54.4614 15.5909L49.0375 10.779C48.6481 10.473 48.1752 10.2227 47.6189 10.2227C46.9235 10.2227 46.4507 10.3895 46.0335 10.6955L41.6109 14.6452H19.804L10.1523 11.4465C9.9854 11.3631 9.84633 11.3631 9.59599 11.3631C8.90062 11.3631 8.4834 11.8359 8.4834 12.6982L8.95625 36.4799C8.95625 37.6481 9.51255 38.2044 10.6808 38.0653H10.7086ZM42.1116 17.677L42.0281 22.6281L41.9447 25.6321L41.7778 30.75H20.0544L19.8875 25.6321L19.804 22.6281L19.7206 17.677H42.0838H42.1116Z" fill="white"/>
<path d="M139.408 40.652L139.213 56.7568C139.13 59.3157 138.017 60.7065 136.014 60.9568L129.784 61.8747C128.421 62.0694 127.781 61.4297 127.781 59.872V57.6747H118.547L117.712 70.3026H125.389L130.145 66.1026C130.702 65.5463 131.342 65.2681 131.898 65.2681C132.454 65.2681 132.983 65.5463 133.539 65.9913L139.491 71.2205C139.936 71.5821 140.131 72.1384 140.131 72.6947C140.131 73.3344 139.936 73.7795 139.491 74.1689L137.572 75.7265C136.932 83.5981 135.931 89.8286 134.54 94.2234C133.9 96.4208 132.704 98.1731 131.063 99.536C129.311 100.899 127.392 101.65 125.194 101.65C122.997 101.65 121.718 100.927 120.994 99.6473C120.8 99.2022 120.438 98.0062 120.076 95.9757C119.715 94.5015 119.075 93.6949 118.074 93.5002L113.679 92.5823C112.761 92.3876 112.4 91.9426 112.4 91.3028C112.4 90.5796 112.845 90.218 113.874 90.218H119.465C120.828 90.218 121.745 90.1346 122.024 90.0233C122.747 89.6617 123.22 89.022 123.581 88.0207C124.221 85.5451 124.861 80.7888 125.417 73.8351H117.462V75.198C117.017 76.5609 116.266 77.3119 115.265 77.3954L108.227 77.8404C107.031 77.757 106.392 77.1172 106.475 75.7265L108.033 52.1117C108.033 50.9156 108.672 50.554 109.785 51.0269L118.741 54.2256H127.809L128.004 39.0387H109.868C108.784 39.0387 108.227 38.399 108.227 37.2029C108.227 36.1181 108.784 35.5618 109.868 35.5618H127.253L131.731 31.1671C132.176 30.722 132.816 30.5273 133.567 30.5273C134.318 30.5273 134.93 30.722 135.486 31.1671L141.16 35.9234C141.716 36.285 141.995 36.7579 141.995 37.2864C141.995 37.8148 141.716 38.3711 141.16 38.9274L139.408 40.6798V40.652ZM174.093 46.7712C173.815 46.9659 173.648 47.3275 173.648 47.7726V88.6048C173.648 90.524 173.286 91.8869 172.452 92.7214C171.617 93.4446 170.255 93.9174 168.252 94.0009L162.021 94.3625C161.382 94.4459 160.825 94.1678 160.38 93.7227C159.935 93.1664 159.657 92.6379 159.657 91.9704V42.5712C159.657 41.848 160.019 41.4864 160.853 41.4864L173.036 41.9314C173.676 41.9314 174.232 42.2096 174.677 42.7659C175.122 43.4056 175.317 43.9619 175.233 44.6017C175.233 45.5196 174.872 46.2427 174.149 46.799L174.093 46.7712Z" fill="white"/>
<path d="M247.385 36.1752C246.94 48.5807 245.911 59.5954 244.409 69.1915C243.881 72.0842 242.935 74.3372 241.266 76.173C239.514 78.1757 237.261 79.1492 234.535 79.1492C232.532 79.1492 231.141 78.6207 230.335 77.4803C230.168 77.23 229.639 75.728 228.749 73.1134C228.221 71.5279 226.83 70.5822 224.549 70.1372L220.961 69.4418C219.737 69.0802 219.209 68.5796 219.292 67.7729C219.459 66.9941 220.071 66.6325 221.295 66.6325L228.555 66.7994C229.945 66.7994 231.002 66.5491 231.531 65.8259C232.059 65.2974 232.393 64.3517 232.588 62.9331C233.812 52.892 234.507 43.6296 234.674 35.0626H217.985C217.012 47.1065 213.98 56.7304 208.723 63.712C204.523 69.3027 197.541 74.3651 187.75 78.8989C186.443 79.5942 185.553 79.5942 185.219 78.9823C184.858 78.5373 184.969 78.0088 185.469 77.5081C192.451 70.2484 197.346 63.1835 200.239 56.3688C202.603 50.5277 203.994 43.4349 204.356 34.9792L187.417 34.8958C186.36 34.8958 185.942 34.2004 185.942 32.8096C185.942 31.6692 186.471 31.1407 187.528 31.1407L204.55 31.2242C204.634 25.8837 204.634 19.3472 204.634 11.5591C204.634 10.5021 205.162 9.97363 206.108 9.97363L217.373 10.7524C219.571 10.9193 220.683 11.726 220.767 13.2002C220.85 14.6743 220.238 15.7313 218.764 16.2598C218.514 16.3432 218.402 16.5101 218.402 16.7883C218.402 20.6267 218.235 25.4387 218.041 31.1964H233.422L239.263 25.9672C239.708 25.5221 240.32 25.3553 241.099 25.3553C242.073 25.3553 242.852 25.6056 243.547 26.2175L249.138 31.1129C249.666 31.558 249.917 32.0865 249.917 32.6984C249.917 33.3937 249.666 33.9222 249.138 34.4507L247.302 36.1196L247.385 36.1752Z" fill="white"/>
<path d="M82.9725 55.7822C83.2228 53.6683 85.1142 52.2219 87.2003 52.5557C89.2865 52.8895 90.7328 54.8643 90.4825 56.9783C90.2322 59.0922 88.3407 60.5386 86.2546 60.2048C84.1685 59.871 82.7221 57.8962 82.9725 55.7822Z" fill="#E2CEC5"/>
<path d="M82.4144 51.4445C82.5813 51.6392 82.5813 51.9452 82.4144 52.112C82.2197 52.2789 81.9415 52.2789 81.7746 52.0842L62.8605 31.2787C62.6936 31.084 62.6936 30.778 62.8605 30.6111C63.0552 30.4443 63.3334 30.4443 63.5003 30.639L82.4144 51.4445Z" fill="#E2CEC5"/>
<path d="M216.12 94.3361C214.117 93.5851 213.171 91.4155 213.978 89.4685C214.785 87.5214 217.065 86.5757 219.04 87.3267C221.043 88.0777 221.989 90.2473 221.182 92.1943C220.375 94.1414 218.095 95.0871 216.12 94.3361Z" fill="#E2CEC5"/>
<path d="M211.755 93.8614C211.978 93.7501 212.256 93.8335 212.395 94.0282C212.534 94.2508 212.423 94.5289 212.2 94.668L187.501 108.103C187.278 108.214 187 108.13 186.861 107.936C186.722 107.713 186.833 107.435 187.056 107.296L211.755 93.8614Z" fill="#E2CEC5"/>
<path d="M37.8565 25.4912L33.4339 24.2952L34.4074 21.8753L31.9875 23.0713L31.1253 18.3984L30.2908 23.0713L27.8709 21.8753L28.8444 24.2952L24.4219 25.4912L28.8444 26.6595L27.8709 29.1072L30.2908 27.8833L31.1253 32.5562L31.9875 27.8833L34.4074 29.1072L33.4339 26.6595L37.8565 25.4912Z" fill="#E3D04C"/>
</g>
<defs>
<clipPath id="clip0_946_7962">
<rect width="250" height="105.891" fill="white" transform="translate(0 10.0547)"/>
</clipPath>
</defs>
</svg>
