<?xml version="1.0" encoding="UTF-8"?>
<svg id="_圖層_1" data-name="圖層 1" xmlns="http://www.w3.org/2000/svg" xmlns:xlink="http://www.w3.org/1999/xlink" viewBox="0 0 1440 853.74">
  <defs>
    <style>
      .cls-1 {
        fill: url(#radial-gradient);
      }

      .cls-1, .cls-2 {
        stroke-width: 0px;
      }

      .cls-2 {
        fill: #fff;
      }
    </style>
    <radialGradient id="radial-gradient" cx="-158.43" cy="-609.49" fx="-158.43" fy="-609.49" r="1281.66" gradientTransform="translate(935.84 1510.13) scale(1.09 1.01)" gradientUnits="userSpaceOnUse">
      <stop offset="0" stop-color="#374a9c"/>
      <stop offset="1" stop-color="#0b1430"/>
    </radialGradient>
  </defs>
  <rect class="cls-1" x="-41.22" y="-42.97" width="1522.44" height="939.67"/>
  <path class="cls-2" d="m637.22,444.64c0,1.51-1.22,2.73-2.73,2.73s-2.73-1.22-2.73-2.73,1.22-2.73,2.73-2.73,2.73,1.22,2.73,2.73Z"/>
  <path class="cls-2" d="m881.82,618.78c0,1.51-1.22,2.73-2.73,2.73s-2.73-1.22-2.73-2.73,1.22-2.73,2.73-2.73,2.73,1.22,2.73,2.73Z"/>
  <path class="cls-2" d="m922.59,249.62c0,1.51-1.22,2.73-2.73,2.73s-2.73-1.22-2.73-2.73,1.22-2.73,2.73-2.73,2.73,1.22,2.73,2.73Z"/>
  <path class="cls-2" d="m558.98,244.16c0,1.51-1.22,2.73-2.73,2.73s-2.73-1.22-2.73-2.73,1.22-2.73,2.73-2.73,2.73,1.22,2.73,2.73Z"/>
  <circle class="cls-2" cx="454.9" cy="456.6" r="1.37"/>
  <path class="cls-2" d="m769.08,285.23c0,.75-.61,1.37-1.37,1.37s-1.37-.61-1.37-1.37.61-1.37,1.37-1.37,1.37.61,1.37,1.37Z"/>
  <path class="cls-2" d="m301.83,347.05c0,.75-.61,1.37-1.37,1.37s-1.37-.61-1.37-1.37.61-1.37,1.37-1.37,1.37.61,1.37,1.37Z"/>
  <path class="cls-2" d="m358.88,515.18c0,.75-.61,1.37-1.37,1.37s-1.37-.61-1.37-1.37.61-1.37,1.37-1.37,1.37.61,1.37,1.37Z"/>
  <path class="cls-2" d="m478.23,636.01c0,.75-.61,1.37-1.37,1.37s-1.37-.61-1.37-1.37.61-1.37,1.37-1.37,1.37.61,1.37,1.37Z"/>
  <path class="cls-2" d="m299.1,643.78c0,.75-.61,1.37-1.37,1.37s-1.37-.61-1.37-1.37.61-1.37,1.37-1.37,1.37.61,1.37,1.37Z"/>
  <path class="cls-2" d="m1103.16,485.31c0,.75-.61,1.37-1.37,1.37s-1.37-.61-1.37-1.37.61-1.37,1.37-1.37,1.37.61,1.37,1.37Z"/>
  <path class="cls-2" d="m466.61,118.88c0,.75-.61,1.37-1.37,1.37s-1.37-.61-1.37-1.37.61-1.37,1.37-1.37,1.37.61,1.37,1.37Z"/>
  <path class="cls-2" d="m748.59,274.37c0,.75-.61,1.37-1.37,1.37s-1.37-.61-1.37-1.37.61-1.37,1.37-1.37,1.37.61,1.37,1.37Z"/>
  <circle class="cls-2" cx="728.05" cy="526.36" r="1.37"/>
  <path class="cls-2" d="m1167.16,593.99c0,.75-.61,1.37-1.37,1.37s-1.37-.61-1.37-1.37.61-1.37,1.37-1.37,1.37.61,1.37,1.37Z"/>
  <path class="cls-2" d="m772.4,656.38c0,.75-.61,1.37-1.37,1.37s-1.37-.61-1.37-1.37.61-1.37,1.37-1.37,1.37.61,1.37,1.37Z"/>
  <path class="cls-2" d="m434.01,259.25c0,.75-.61,1.37-1.37,1.37s-1.37-.61-1.37-1.37.61-1.37,1.37-1.37,1.37.61,1.37,1.37Z"/>
  <circle class="cls-2" cx="824.31" cy="373.26" r="1.37"/>
  <path class="cls-2" d="m896.66,386.13c0,.75-.61,1.37-1.37,1.37s-1.37-.61-1.37-1.37.61-1.37,1.37-1.37,1.37.61,1.37,1.37Z"/>
  <path class="cls-2" d="m592.64,252.35c0,.75-.61,1.37-1.37,1.37s-1.37-.61-1.37-1.37.61-1.37,1.37-1.37,1.37.61,1.37,1.37Z"/>
  <path class="cls-2" d="m960.23,449.23c0,2.54-2.06,4.6-4.6,4.6s-4.6-2.06-4.6-4.6,2.06-4.6,4.6-4.6,4.6,2.06,4.6,4.6Z"/>
  <path class="cls-2" d="m1053.4,682.51c0,2.54-2.06,4.6-4.6,4.6s-4.6-2.06-4.6-4.6,2.06-4.6,4.6-4.6,4.6,2.06,4.6,4.6Z"/>
  <path class="cls-2" d="m276.91,374.63c0,2.54-2.06,4.6-4.6,4.6s-4.6-2.06-4.6-4.6,2.06-4.6,4.6-4.6,4.6,2.06,4.6,4.6Z"/>
  <path class="cls-2" d="m424.78,592.62c0,2.54-2.06,4.6-4.6,4.6s-4.6-2.06-4.6-4.6,2.06-4.6,4.6-4.6,4.6,2.06,4.6,4.6Z"/>
  <path class="cls-2" d="m1174.99,141.52c0,2.54-2.06,4.6-4.6,4.6s-4.6-2.06-4.6-4.6,2.06-4.6,4.6-4.6,4.6,2.06,4.6,4.6Z"/>
</svg>