<?xml version="1.0" encoding="utf-8"?>
<!-- Generator: Adobe Illustrator 28.0.0, SVG Export Plug-In . SVG Version: 6.00 Build 0)  -->
<svg version="1.1" id="圖層_1" xmlns="http://www.w3.org/2000/svg" xmlns:xlink="http://www.w3.org/1999/xlink" x="0px" y="0px"
	 viewBox="0 0 1440 870.1" style="enable-background:new 0 0 1440 870.1;" xml:space="preserve">
<style type="text/css">
	.st0{clip-path:url(#SVGID_00000078029221809743069410000002890774205100681124_);}
	.st1{clip-path:url(#SVGID_00000112623434366468793400000005063178987196522379_);}
	.st2{fill:url(#SVGID_00000000925401422840421360000004382364796597405367_);}
	.st3{fill:#FFFFFF;}
</style>
<g>
	<g>
		<g>
			<defs>
				<rect id="SVGID_1_" x="-804.1" y="-4688" width="1473" height="1441"/>
			</defs>
			<clipPath id="SVGID_00000083770282866197422360000003832296720580261001_">
				<use xlink:href="#SVGID_1_"  style="overflow:visible;"/>
			</clipPath>
			<g style="clip-path:url(#SVGID_00000083770282866197422360000003832296720580261001_);">
				<g>
					<g>
						<g>
							<defs>
								
									<rect id="SVGID_00000088117316568785370500000014766281333066402999_" x="-788.2" y="-4761.7" width="1440" height="4418.5"/>
							</defs>
							<clipPath id="SVGID_00000064337742570437917910000002731319986448207522_">
								<use xlink:href="#SVGID_00000088117316568785370500000014766281333066402999_"  style="overflow:visible;"/>
							</clipPath>
							<g style="clip-path:url(#SVGID_00000064337742570437917910000002731319986448207522_);">
								<g id="bright-light-black-background.tif" transform="translate(-1247.14 -1889) scale(.48)">
								</g>
							</g>
						</g>
					</g>
				</g>
			</g>
		</g>
	</g>
</g>
<g>
	
		<radialGradient id="SVGID_00000176018651261381198120000006021624696169770153_" cx="-304.1928" cy="194.9041" r="1281.6638" gradientTransform="matrix(1.0345 0 0 1.0227 1074.288 699.4901)" gradientUnits="userSpaceOnUse">
		<stop  offset="0" style="stop-color:#374A9C"/>
		<stop  offset="1" style="stop-color:#0B1430"/>
	</radialGradient>
	
		<rect x="-0.7" y="-46.4" style="fill:url(#SVGID_00000176018651261381198120000006021624696169770153_);" width="1440" height="949"/>
	<path class="st3" d="M880.3,667.3c0,1.5-1.2,2.7-2.7,2.7c-1.5,0-2.7-1.2-2.7-2.7c0-1.5,1.2-2.7,2.7-2.7
		C879.1,664.5,880.3,665.8,880.3,667.3z"/>
	<path class="st3" d="M921.1,298.1c0,1.5-1.2,2.7-2.7,2.7c-1.5,0-2.7-1.2-2.7-2.7c0-1.5,1.2-2.7,2.7-2.7
		C919.9,295.4,921.1,296.6,921.1,298.1z"/>
	<circle class="st3" cx="453.4" cy="505.1" r="1.4"/>
	<path class="st3" d="M300.3,395.5c0,0.8-0.6,1.4-1.4,1.4s-1.4-0.6-1.4-1.4c0-0.8,0.6-1.4,1.4-1.4S300.3,394.8,300.3,395.5z"/>
	<path class="st3" d="M357.4,563.7c0,0.8-0.6,1.4-1.4,1.4c-0.8,0-1.4-0.6-1.4-1.4c0-0.8,0.6-1.4,1.4-1.4
		C356.8,562.3,357.4,562.9,357.4,563.7z"/>
	<path class="st3" d="M476.7,684.5c0,0.8-0.6,1.4-1.4,1.4c-0.8,0-1.4-0.6-1.4-1.4s0.6-1.4,1.4-1.4
		C476.1,683.1,476.7,683.7,476.7,684.5z"/>
	<path class="st3" d="M297.6,692.3c0,0.8-0.6,1.4-1.4,1.4c-0.8,0-1.4-0.6-1.4-1.4s0.6-1.4,1.4-1.4
		C297,690.9,297.6,691.5,297.6,692.3z"/>
	<path class="st3" d="M1101.6,533.8c0,0.8-0.6,1.4-1.4,1.4c-0.8,0-1.4-0.6-1.4-1.4c0-0.8,0.6-1.4,1.4-1.4
		C1101,532.4,1101.6,533,1101.6,533.8z"/>
	<path class="st3" d="M465.1,167.4c0,0.8-0.6,1.4-1.4,1.4c-0.8,0-1.4-0.6-1.4-1.4c0-0.8,0.6-1.4,1.4-1.4
		C464.5,166,465.1,166.6,465.1,167.4z"/>
	<path class="st3" d="M1165.6,642.5c0,0.8-0.6,1.4-1.4,1.4c-0.8,0-1.4-0.6-1.4-1.4c0-0.8,0.6-1.4,1.4-1.4
		C1165,641.1,1165.6,641.7,1165.6,642.5z"/>
	<path class="st3" d="M432.5,307.7c0,0.8-0.6,1.4-1.4,1.4c-0.8,0-1.4-0.6-1.4-1.4c0-0.8,0.6-1.4,1.4-1.4
		C431.9,306.4,432.5,307,432.5,307.7z"/>
	<path class="st3" d="M895.1,434.6c0,0.8-0.6,1.4-1.4,1.4c-0.8,0-1.4-0.6-1.4-1.4c0-0.8,0.6-1.4,1.4-1.4
		C894.5,433.3,895.1,433.9,895.1,434.6z"/>
	<path class="st3" d="M958.7,497.7c0,2.5-2.1,4.6-4.6,4.6c-2.5,0-4.6-2.1-4.6-4.6c0-2.5,2.1-4.6,4.6-4.6
		C956.7,493.1,958.7,495.2,958.7,497.7z"/>
	<path class="st3" d="M1051.9,731c0,2.5-2.1,4.6-4.6,4.6s-4.6-2.1-4.6-4.6c0-2.5,2.1-4.6,4.6-4.6S1051.9,728.5,1051.9,731z"/>
	<path class="st3" d="M275.4,423.1c0,2.5-2.1,4.6-4.6,4.6s-4.6-2.1-4.6-4.6c0-2.5,2.1-4.6,4.6-4.6S275.4,420.6,275.4,423.1z"/>
	<path class="st3" d="M423.3,641.1c0,2.5-2.1,4.6-4.6,4.6s-4.6-2.1-4.6-4.6c0-2.5,2.1-4.6,4.6-4.6S423.3,638.6,423.3,641.1z"/>
	<path class="st3" d="M1173.5,190c0,2.5-2.1,4.6-4.6,4.6c-2.5,0-4.6-2.1-4.6-4.6c0-2.5,2.1-4.6,4.6-4.6
		C1171.4,185.4,1173.5,187.5,1173.5,190z"/>
</g>
</svg>
