<?xml version="1.0" encoding="UTF-8"?>
<svg id="_圖層_1" data-name="圖層 1" xmlns="http://www.w3.org/2000/svg" xmlns:xlink="http://www.w3.org/1999/xlink" viewBox="0 0 387.71 140.17">
  <defs>
    <style>
      .cls-1 {
        fill: url(#linear-gradient);
        opacity: .1;
        stroke-width: 0px;
      }
    </style>
    <linearGradient id="linear-gradient" x1="-902.28" y1="-132.02" x2="-686.54" y2="-136.52" gradientTransform="translate(1421.38 207.77) rotate(-.41) scale(1.58 1.09) skewX(-18.98)" gradientUnits="userSpaceOnUse">
      <stop offset="0" stop-color="#f5ed4d"/>
      <stop offset="1" stop-color="#f5ed4d" stop-opacity="0"/>
    </linearGradient>
  </defs>
  <path class="cls-1" d="m387.71,6.24c-.06,2.21-2.64,4.5-8.22,6.25-59.76,18.71-119.05,39.08-177.41,61.71-28.85,11.19-57.48,22.93-85.78,35.3-11.64,5.09-23.17,9.81-33.82,16.04-10.97,6.41-21.14,11.66-34.08,13.67-26.15,4.05-51.38-4.57-48.12-28.68,2.92-21.62,37.81-32.99,58.81-39.56,30.18-9.45,59.91-21.12,90.66-30.06C218.66,20.87,289.4,4.85,359.66,1.72c6.34-.28,15.97-2.94,21.66-1.04,4.18,1.4,6.45,3.44,6.39,5.56Z"/>
</svg>