<?xml version="1.0" encoding="UTF-8"?>
<svg xmlns="http://www.w3.org/2000/svg" viewBox="0 0 198.43 198.43">
  <defs>
    <style>
      .cls-1 {
        mix-blend-mode: multiply;
      }

      .cls-2 {
        isolation: isolate;
      }

      .cls-3 {
        fill: #4b3f80;
      }

      .cls-3, .cls-4, .cls-5, .cls-6, .cls-7, .cls-8, .cls-9, .cls-10 {
        stroke-width: 0px;
      }

      .cls-4 {
        fill: #8378b4;
      }

      .cls-5 {
        fill: #4f4186;
      }

      .cls-6 {
        fill: #5c4b90;
      }

      .cls-7 {
        fill: #191a3c;
      }

      .cls-8 {
        fill: #fff;
      }

      .cls-9 {
        fill: #edd848;
      }

      .cls-10 {
        fill: #fbe0de;
      }
    </style>
  </defs>
  <g class="cls-2">
    <g id="_圖層_1" data-name="圖層 1">
      <g>
        <path class="cls-9" d="m68.98,78c-.63,1.98-2.34,3.41-4.4,3.67-10.3,1.28-40.34,6.14-41.36,19.17-1.17,14.85,20.82,29.71,28.8,34.59,1.71,1.05,2.68,2.98,2.5,4.98-.93,10.45-2.82,42.3,8.15,46.45,10.73,4.06,32.83-10.82,40.6-16.43,1.69-1.22,3.93-1.33,5.74-.3,9.12,5.24,36.65,19.82,46.08,10.68,9.44-9.15,2.96-37.66.49-47.07-.49-1.87.08-3.86,1.48-5.19,6.82-6.45,26.04-25.94,21.84-36.96-4.71-12.38-35.09-14.98-45.33-15.51-2.03-.1-3.82-1.36-4.61-3.23-3.8-8.99-16.01-34.31-32.17-32.44-15.18,1.75-24.84,28.18-27.81,37.59Z"/>
        <g>
          <path class="cls-5" d="m74.25,103.97c3.45,1.62,6.91,3.25,10.36,4.87.75.35,1.66.21,2.11-.55.39-.67.2-1.75-.55-2.11-3.45-1.62-6.91-3.25-10.36-4.87-.75-.35-1.66-.21-2.11.55-.39.67-.2,1.75.55,2.11h0Z"/>
          <path class="cls-5" d="m130.5,101.74c-3.45,1.62-6.91,3.25-10.36,4.87-.75.35-.95,1.44-.55,2.11.45.77,1.35.91,2.11.55,3.45-1.62,6.91-3.25,10.36-4.87.75-.35.95-1.44.55-2.11-.45-.77-1.35-.91-2.11-.55h0Z"/>
          <path class="cls-3" d="m109.72,115.88c.3,3.46-2.25,6.6-5.87,6.56s-6.05-3.3-5.67-6.73c.1-.92-.86-1.71-1.71-1.71-1.01,0-1.61.79-1.71,1.71-.59,5.34,3.78,10.1,9.1,10.16s9.75-4.64,9.29-9.98c-.08-.92-.73-1.71-1.71-1.71-.86,0-1.79.79-1.71,1.71h0Z"/>
          <g>
            <path class="cls-5" d="m89.57,112.35c0,4.02-3.26,7.27-7.27,7.27s-7.27-3.26-7.27-7.27,3.26-7.27,7.27-7.27,7.27,3.25,7.27,7.27Z"/>
            <path class="cls-8" d="m87.02,109.99c0,1.3-1.06,2.36-2.36,2.36s-2.36-1.06-2.36-2.36,1.06-2.36,2.36-2.36,2.36,1.06,2.36,2.36Z"/>
          </g>
          <g>
            <circle class="cls-5" cx="124.79" cy="112.35" r="7.27" transform="translate(-6.14 217.47) rotate(-80.76)"/>
            <path class="cls-8" d="m129.51,109.99c0,1.3-1.06,2.36-2.36,2.36s-2.36-1.06-2.36-2.36,1.06-2.36,2.36-2.36,2.36,1.06,2.36,2.36Z"/>
          </g>
        </g>
        <g>
          <g class="cls-1">
            <path class="cls-9" d="m110.68,92.72c14.97-4.22,26.69-10.22,35.51-16.53-10.17-7.04-22.5-11.17-35.81-11.17-.09,0-.18,0-.27,0-3.03.93-6.08,1.78-9.15,2.54-6.09,1.5-12.49,2.86-18.83,4.14-11.72,5.89-21.34,15.33-27.46,26.91,14.15,1.49,33.78.37,56.01-5.89Z"/>
          </g>
          <path class="cls-6" d="m33.31,84.25c3.14,7.97,35.92,15.77,78.76,5.02,42.84-10.75,59.93-36.63,58.03-43.79-1.9-7.17-34.35,11.29-67.02,18.37s-74.02,9.64-69.78,20.4Z"/>
          <path class="cls-6" d="m71.03,75.49l-2.78-37.26s-6.16,2.3-5.39-2.26c0,0-10.31,8.82-12.63,7.42-2.32-1.4,8.93-23.83,14.3-27.53,5.37-3.7,26.97-1.03,31.9.76,4.93,1.78,32.28,43.8,32.28,43.8,0,0-18.48,18.69-57.69,15.08Z"/>
          <path class="cls-7" d="m121.98,50.25c-5.71,4.46-22.64,15.19-51.83,13.47l.88,11.77c39.21,3.61,57.69-15.08,57.69-15.08,0,0-2.79-4.28-6.74-10.17Z"/>
          <path class="cls-10" d="m110.03,54.31c-1.86-.57-14.05,2.88-14.81,4.29-.83,1.55,2.63,18.28,4.74,18.4,2.11.12,17.55-3.81,18.17-5.58.62-1.77-6.39-16.59-8.11-17.11Zm2.63,15.04c-.15.45-8.49,3.52-9.65,2.9-1.16-.63-2.98-9.45-2.8-10.16.24-.92,7.46-2.92,8.38-2.7.91.22,4.22,9.51,4.07,9.96Z"/>
          <path class="cls-4" d="m143.39,72.36c-.26,0-.51-.14-.63-.39-.17-.35-.03-.77.32-.95,9.48-4.68,17.22-12.5,21.82-22.02.17-.35.59-.5.94-.33.35.17.5.59.33.94-4.73,9.8-12.7,17.86-22.46,22.68-.1.05-.21.07-.31.07Z"/>
          <g>
            <path class="cls-4" d="m98.22,23.27c-.15,0-.3-.05-.43-.14l-3.57-2.72c-.31-.24-.37-.68-.13-.99.24-.31.68-.37.99-.13l3.57,2.72c.31.24.37.68.13.99-.14.18-.35.28-.56.28Z"/>
            <path class="cls-4" d="m95.46,24.48c-.13,0-.26-.04-.38-.11l-2-1.29c-.33-.21-.42-.65-.21-.98.21-.33.65-.42.98-.21l2,1.29c.33.21.42.65.21.98-.13.21-.36.32-.59.32Z"/>
          </g>
          <path class="cls-5" d="m58.75,90.82c-7.49,0-15.05-2.17-21.38-6.17-.33-.21-.43-.64-.22-.97.21-.33.64-.43.97-.22,6.39,4.03,14.06,6.14,21.61,5.94.39-.01.71.3.72.69.01.39-.3.71-.69.72-.34,0-.68.01-1.02.01Z"/>
          <g>
            <path class="cls-5" d="m72.48,59.85c-.35,0-.65-.26-.7-.62l-.97-7.72c-.05-.39.23-.74.61-.79.39-.05.74.23.79.61l.97,7.72c.05.39-.23.74-.61.79-.03,0-.06,0-.09,0Z"/>
            <path class="cls-5" d="m74.55,58.78c-.39,0-.71-.32-.71-.71v-2.71c0-.39.32-.71.71-.71s.71.32.71.71v2.71c0,.39-.32.71-.71.71Z"/>
          </g>
        </g>
      </g>
    </g>
  </g>
</svg>