<?xml version="1.0" encoding="UTF-8"?>
<svg id="_圖層_1" data-name="圖層 1" xmlns="http://www.w3.org/2000/svg" viewBox="0 0 198.43 198.43">
  <defs>
    <style>
      .cls-1 {
        fill: #9686be;
      }

      .cls-1, .cls-2, .cls-3 {
        fill-rule: evenodd;
      }

      .cls-1, .cls-2, .cls-3, .cls-4, .cls-5, .cls-6 {
        stroke-width: 0px;
      }

      .cls-2 {
        fill: #e7824e;
      }

      .cls-3 {
        fill: #f29fa7;
      }

      .cls-4 {
        fill: #4f4186;
      }

      .cls-5 {
        fill: #fff;
      }

      .cls-6 {
        fill: #edd848;
      }
    </style>
  </defs>
  <g>
    <path class="cls-1" d="m169.53,40.11c-9.97,2.11-19.97,4.1-29.92,6.34-1.54-11.06-3.07-22.05-4.61-33.11-1.14.9-2.29,1.83-3.43,2.74-1.17.94-2.34,1.88-3.51,2.82-.66.53-1.33,1.06-1.99,1.59-6.62,5.27-13.24,10.55-19.81,15.88-5.04-7.91-10.04-15.74-15.08-23.64-.12.2-.18.28-.21.37-10.47,26.35-16.65,52.33-19.37,80.57-.09,3.34-.08,6.68-.12,10.01,0,.73-.02,1.46-.03,2.2l48.84,16.24c.07.1.14.2.21.3.12-.23.25-.45.37-.68,6.94-13.24,14.43-26.4,22.07-39.35,6.13-10.39,12.67-20.53,19.38-30.56,2.39-3.56,4.82-7.1,7.22-10.65.24-.35.46-.71.77-1.2-.37.06-.58.08-.78.13Z"/>
    <path class="cls-3" d="m139.61,46.45c-1.54-11.06-3.07-22.05-4.61-33.11-1.14.9-2.29,1.83-3.43,2.74-1.17.94-2.34,1.88-3.51,2.82-.66.53-1.33,1.06-1.99,1.59-6.56,5.23-13.11,10.46-19.63,15.73-9.22,31.1-20.94,72.29-20.94,72.29l.72,2.28,17.75,5.9c10.7-18.28,24.77-47.02,35.76-70.28-.04,0-.08.02-.12.03Z"/>
    <path class="cls-2" d="m106.46,117.53l13.83,4.6c.07.1.14.2.21.3.12-.23.25-.45.37-.68,6.94-13.24,14.43-26.4,22.07-39.35,6.13-10.39,12.67-20.53,19.38-30.56,2.39-3.56,4.82-7.1,7.22-10.65.24-.35.46-.71.77-1.2-.37.06-.58.08-.78.13-9.97,2.11-19.97,4.1-29.92,6.34-.31-2.22-.62-4.44-.92-6.65l-32.22,77.73Z"/>
  </g>
  <path class="cls-6" d="m69.75,90.36c-4.81,9.78-6.35,11.42-20.62,12.45-5.02.36-20.22-1.26-20.85,6.74-1,12.77,13.94,23.57,20.81,27.77,1.47.9,2.31,2.56,2.15,4.28-.8,8.99,1.54,38.36,10.97,41.93,9.23,3.49,18.33-13.27,25.01-18.09,1.45-1.05,3.38-1.15,4.94-.25,7.84,4.51,41.42,21.01,49.53,13.15,8.12-7.87,2.54-32.39.42-40.48-.42-1.61.07-3.32,1.28-4.46,5.87-5.55,22.4-22.31,18.79-31.78-4.05-10.64-26.99-2.29-35.8-2.75-1.75-.09-6.47-11.76-7.15-13.37-3.27-7.73-13.77-29.51-27.67-27.9-8.97,1.04-13.49,11.67-16.2,19.02-1.56,4.22-3.33,9.14-5.61,13.76Z"/>
  <path class="cls-5" d="m36.14,80.35c-.3-.29-.89-4.3-1.43-4.27-.54.03-1.01,4.01-1.26,4.28-.5.53-4.21.9-4.18,1.41.03.51,3.66.75,4.18,1.24.29.28.89,4.3,1.43,4.27.54-.03,1-4,1.26-4.27.49-.51,4.22-.9,4.19-1.41-.03-.51-3.7-.77-4.19-1.25Z"/>
  <path class="cls-5" d="m46.68,91.97c-3.29,0-3.29,5.1,0,5.1s3.28-5.1,0-5.1Z"/>
  <g>
    <path class="cls-4" d="m80.43,129.75c-2.11,3.5-.55,8.01,3.25,9.46,3.57,1.36,7.51-.89,8.45-4.52l-2.71.35c.82,1.69,2.1,3.29,3.86,4.06,1.88.83,4.06.48,5.71-.72s2.75-3,2.9-5.01-.88-4.19-2.34-5.64c-1.36-1.34-3.46.75-2.1,2.1,1.8,1.78,2.04,4.57-.17,6.14-2.32,1.65-4.3-.34-5.3-2.42-.56-1.17-2.4-.82-2.71.35-.52,2-2.56,3.25-4.56,2.53-2.16-.77-2.87-3.28-1.72-5.19.99-1.64-1.58-3.13-2.56-1.5h0Z"/>
    <path class="cls-4" d="m63.06,120.44c-.02.21-.03.42-.03.64,0,4.16,3.37,7.52,7.52,7.52s7.52-3.37,7.52-7.52c0-.21-.01-.43-.03-.64h-14.98Z"/>
    <circle class="cls-5" cx="73.59" cy="123.21" r="1.8"/>
    <path class="cls-4" d="m101.63,120.64c-.02.21-.03.42-.03.64,0,4.16,3.37,7.52,7.52,7.52s7.52-3.37,7.52-7.52c0-.21-.01-.43-.03-.64h-14.98Z"/>
    <path class="cls-5" d="m113.96,123.42c0,.99-.8,1.8-1.8,1.8s-1.8-.8-1.8-1.8.8-1.8,1.8-1.8,1.8.8,1.8,1.8Z"/>
    <path class="cls-4" d="m78.23,118.1c-6.1.11-12.2-.07-18.28-.53-1.9-.14-1.9,2.82,0,2.97,6.08.46,12.18.63,18.28.53,1.91-.03,1.91-3,0-2.97h0Z"/>
    <path class="cls-4" d="m101.06,121.06c5.78.61,11.6.65,17.39.11.8-.07,1.48-.63,1.48-1.48,0-.74-.68-1.56-1.48-1.48-5.79.54-11.61.5-17.39-.11-.8-.08-1.48.74-1.48,1.48,0,.87.68,1.4,1.48,1.48h0Z"/>
  </g>
</svg>