<?xml version="1.0" encoding="UTF-8"?>
<svg id="_圖層_1" data-name="圖層 1" xmlns="http://www.w3.org/2000/svg" viewBox="0 0 610.29 610.29">
  <defs>
    <style>
      .cls-1 {
        fill: #fff;
        stroke-width: 0px;
      }
    </style>
  </defs>
  <g>
    <path class="cls-1" d="m117.87,477.27c.87,1.05.46,2.83-.93,3.98s-3.21,1.23-4.09.17-.46-2.84.92-3.99,3.22-1.22,4.09-.17Z"/>
    <path class="cls-1" d="m123.87,474.54c.33.4.17,1.08-.35,1.51s-1.22.47-1.55.07-.17-1.08.35-1.52,1.22-.46,1.55-.06Z"/>
    <path class="cls-1" d="m136.99,482.34c.4.48.21,1.3-.43,1.83s-1.48.56-1.88.08-.21-1.31.42-1.83,1.48-.56,1.88-.08Z"/>
    <path class="cls-1" d="m134.16,491.62c.35.43.19,1.14-.37,1.61s-1.3.5-1.65.07-.18-1.14.38-1.61,1.3-.49,1.65-.07Z"/>
    <path class="cls-1" d="m151.99,497.25c.34.42.18,1.12-.36,1.57s-1.26.48-1.61.07-.18-1.12.37-1.57,1.26-.48,1.61-.07Z"/>
    <path class="cls-1" d="m141.39,535.62c.86,1.03.45,2.77-.9,3.9s-3.14,1.2-4,.17-.45-2.77.91-3.9,3.14-1.2,4-.17Z"/>
    <path class="cls-1" d="m179.54,518.17c.68.82.36,2.2-.72,3.09s-2.5.96-3.18.14-.35-2.2.72-3.1,2.5-.95,3.17-.13Z"/>
    <path class="cls-1" d="m193.23,532.04c.78.94.41,2.54-.82,3.56s-2.87,1.1-3.65.15-.41-2.54.83-3.56,2.87-1.09,3.65-.15Z"/>
    <path class="cls-1" d="m213.2,534.84c.65.79.34,2.12-.69,2.98s-2.4.92-3.05.13-.34-2.12.69-2.98,2.4-.91,3.05-.13Z"/>
    <path class="cls-1" d="m231.65,543.84c.69.84.36,2.25-.73,3.16s-2.55.97-3.24.14-.36-2.25.73-3.16,2.55-.97,3.24-.14Z"/>
    <path class="cls-1" d="m244.21,538.55c.7.84.36,2.26-.74,3.17s-2.56.98-3.26.14-.36-2.26.74-3.18,2.56-.97,3.25-.14Z"/>
    <path class="cls-1" d="m257.34,533.74c.66.8.35,2.15-.7,3.02s-2.44.93-3.1.13-.35-2.16.7-3.03,2.44-.93,3.1-.13Z"/>
    <path class="cls-1" d="m259.35,567.15c.77.93.41,2.49-.81,3.49s-2.82,1.08-3.59.15-.4-2.49.81-3.5,2.82-1.07,3.58-.15Z"/>
    <path class="cls-1" d="m271.85,554.98c.74.89.39,2.39-.78,3.35s-2.71,1.04-3.44.15-.39-2.39.78-3.36,2.71-1.03,3.44-.14Z"/>
    <path class="cls-1" d="m291.38,547.16c.8.97.42,2.61-.85,3.67s-2.96,1.13-3.77.16-.42-2.61.85-3.67c1.27-1.06,2.96-1.13,3.76-.16Z"/>
    <path class="cls-1" d="m313.71,528.18c.61.73.32,1.98-.64,2.78s-2.24.86-2.85.12-.32-1.98.65-2.78,2.24-.85,2.85-.12Z"/>
    <path class="cls-1" d="m325.52,545.98c.27.32.14.86-.28,1.21s-.98.37-1.25.05-.14-.86.28-1.21.98-.37,1.24-.06Z"/>
    <path class="cls-1" d="m351.83,522.27c.3.37.16.98-.32,1.38s-1.11.43-1.41.06-.16-.98.32-1.38,1.11-.42,1.41-.06Z"/>
    <path class="cls-1" d="m356.05,572.86c.39.47.21,1.26-.41,1.78s-1.43.55-1.82.08-.2-1.26.41-1.77,1.43-.54,1.82-.08Z"/>
    <path class="cls-1" d="m368.65,540.35c.57.69.3,1.87-.61,2.62s-2.12.81-2.69.12-.3-1.87.61-2.62,2.12-.81,2.69-.11Z"/>
    <path class="cls-1" d="m371.66,558.52c.35.43.19,1.14-.37,1.61s-1.29.5-1.65.07-.18-1.14.37-1.61,1.3-.49,1.65-.07Z"/>
    <path class="cls-1" d="m373.18,525.6c.62.75.33,2.03-.66,2.85-.99.82-2.3.88-2.92.12s-.33-2.03.66-2.85,2.3-.87,2.92-.12Z"/>
    <path class="cls-1" d="m394.79,521.39c.7.85.37,2.28-.75,3.2s-2.59.99-3.29.14-.37-2.29.75-3.21,2.59-.98,3.29-.14Z"/>
    <path class="cls-1" d="m413.03,539.23c.89,1.07.47,2.87-.93,4.03s-3.25,1.24-4.14.18-.46-2.87.94-4.03,3.25-1.23,4.13-.17Z"/>
    <path class="cls-1" d="m432.13,549.53c.38.45.2,1.22-.4,1.71s-1.38.52-1.75.07-.19-1.21.4-1.7,1.38-.52,1.75-.08Z"/>
    <path class="cls-1" d="m438.38,529.5c.38.46.2,1.23-.4,1.72s-1.39.53-1.77.08-.2-1.23.4-1.73,1.39-.53,1.77-.07Z"/>
    <path class="cls-1" d="m455.9,526.03c.5.6.26,1.63-.53,2.28s-1.84.7-2.34.1-.26-1.62.53-2.28,1.84-.7,2.34-.1Z"/>
    <path class="cls-1" d="m478.57,518.04c.75.91.4,2.44-.8,3.44s-2.77,1.06-3.52.15-.39-2.45.8-3.43,2.77-1.05,3.52-.15Z"/>
    <path class="cls-1" d="m475.16,494.2c.75.9.4,2.43-.79,3.42s-2.76,1.05-3.51.15-.39-2.43.8-3.42,2.76-1.05,3.5-.15Z"/>
    <path class="cls-1" d="m492.2,510.21c.58.7.31,1.89-.61,2.65s-2.14.81-2.72.11-.3-1.89.62-2.65,2.14-.81,2.72-.12Z"/>
    <path class="cls-1" d="m501.9,493.34c.53.64.28,1.73-.56,2.43s-1.96.75-2.49.1-.28-1.73.57-2.43,1.96-.74,2.49-.11Z"/>
    <path class="cls-1" d="m482.25,466.08c.5.6.26,1.63-.53,2.28s-1.84.7-2.34.1-.26-1.62.53-2.28,1.84-.7,2.34-.1Z"/>
    <path class="cls-1" d="m504.92,458.09c.75.91.4,2.44-.8,3.44s-2.77,1.06-3.52.15-.39-2.45.8-3.43,2.77-1.05,3.52-.15Z"/>
    <path class="cls-1" d="m501.51,434.24c.75.9.4,2.43-.79,3.42s-2.76,1.05-3.51.15-.39-2.43.8-3.42,2.76-1.05,3.5-.15Z"/>
    <path class="cls-1" d="m518.55,450.25c.58.7.31,1.89-.61,2.65s-2.14.81-2.72.11-.3-1.89.62-2.65,2.14-.81,2.72-.12Z"/>
    <path class="cls-1" d="m528.25,433.39c.53.64.28,1.73-.56,2.43s-1.96.75-2.49.1-.28-1.73.57-2.43,1.96-.74,2.49-.11Z"/>
    <path class="cls-1" d="m81.58,391.75c.87,1.05.46,2.83-.93,3.98s-3.21,1.23-4.09.17-.46-2.84.92-3.99,3.22-1.22,4.09-.17Z"/>
    <path class="cls-1" d="m87.59,389.02c.33.4.17,1.08-.35,1.51s-1.22.47-1.55.07-.17-1.08.35-1.52,1.22-.46,1.55-.06Z"/>
    <path class="cls-1" d="m100.71,396.82c.4.48.21,1.3-.43,1.83s-1.48.56-1.88.08-.21-1.31.42-1.83,1.48-.56,1.88-.08Z"/>
    <path class="cls-1" d="m97.88,406.1c.35.43.19,1.14-.37,1.61s-1.3.5-1.65.07-.18-1.14.38-1.61,1.3-.49,1.65-.07Z"/>
    <path class="cls-1" d="m105.11,450.1c.86,1.03.45,2.77-.9,3.9s-3.14,1.2-4,.17-.45-2.77.91-3.9,3.14-1.2,4-.17Z"/>
  </g>
  <g>
    <path class="cls-1" d="m110.87,413.14c-.54-1.44-2.27-2.12-3.88-1.53-1.61.6-2.48,2.25-1.94,3.69s2.28,2.13,3.89,1.53,2.48-2.26,1.94-3.7Z"/>
    <path class="cls-1" d="m115.88,409.2c-.2-.55-.86-.81-1.48-.58-.61.23-.94.85-.74,1.4s.87.81,1.48.58c.61-.23.94-.86.74-1.4Z"/>
    <path class="cls-1" d="m114.83,392.34c-.25-.66-1.04-.98-1.78-.7s-1.14,1.03-.89,1.7,1.05.98,1.79.7,1.14-1.04.89-1.7Z"/>
    <path class="cls-1" d="m105.49,389.41c-.22-.58-.92-.86-1.56-.62s-1,.91-.79,1.49c.22.58.92.86,1.57.61.65-.24,1-.91.78-1.49Z"/>
    <path class="cls-1" d="m108.39,369.47c-.21-.57-.89-.84-1.53-.6-.63.23-.98.88-.76,1.45.21.56.9.83,1.53.6.63-.24.97-.89.76-1.45Z"/>
    <path class="cls-1" d="m70.27,356.33c-.53-1.41-2.22-2.08-3.8-1.49-1.57.59-2.43,2.2-1.9,3.61.52,1.41,2.22,2.08,3.8,1.49,1.57-.59,2.42-2.2,1.9-3.61Z"/>
    <path class="cls-1" d="m102.21,331.35c-.42-1.12-1.77-1.65-3.01-1.19s-1.93,1.75-1.51,2.87c.41,1.11,1.77,1.65,3.02,1.18,1.25-.46,1.92-1.75,1.51-2.87Z"/>
    <path class="cls-1" d="m96.11,310.33c-.48-1.29-2.03-1.9-3.47-1.37s-2.22,2.01-1.74,3.3,2.03,1.9,3.47,1.36c1.44-.53,2.21-2.02,1.73-3.3Z"/>
    <path class="cls-1" d="m102.42,290.11c-.4-1.08-1.7-1.59-2.9-1.14s-1.85,1.68-1.45,2.76c.4,1.07,1.7,1.59,2.9,1.14,1.2-.45,1.85-1.69,1.45-2.76Z"/>
    <path class="cls-1" d="m102.65,267.56c-.43-1.15-1.8-1.69-3.08-1.21-1.27.47-1.96,1.78-1.54,2.93.42,1.14,1.8,1.68,3.08,1.21,1.28-.47,1.96-1.79,1.54-2.93Z"/>
    <path class="cls-1" d="m112.78,259.08c-.43-1.15-1.81-1.69-3.09-1.22s-1.98,1.79-1.55,2.94c.42,1.14,1.81,1.69,3.1,1.22,1.28-.48,1.97-1.8,1.55-2.94Z"/>
    <path class="cls-1" d="m122.73,249.76c-.41-1.09-1.73-1.61-2.95-1.16s-1.88,1.71-1.48,2.8c.41,1.09,1.73,1.61,2.95,1.16s1.88-1.71,1.47-2.8Z"/>
    <path class="cls-1" d="m94.46,227.88c-.47-1.27-1.99-1.87-3.4-1.34-1.41.52-2.18,1.98-1.71,3.24s2,1.86,3.41,1.34c1.41-.52,2.17-1.98,1.7-3.24Z"/>
    <path class="cls-1" d="m110.55,223.56c-.45-1.22-1.92-1.79-3.27-1.29-1.36.5-2.09,1.89-1.64,3.11.45,1.21,1.92,1.79,3.27,1.29,1.35-.5,2.08-1.9,1.63-3.11Z"/>
    <path class="cls-1" d="m125.94,210.11c-.49-1.33-2.09-1.96-3.57-1.41-1.48.55-2.28,2.07-1.79,3.4s2.1,1.96,3.58,1.41c1.48-.55,2.28-2.07,1.79-3.4Z"/>
    <path class="cls-1" d="m152.29,200.73c-.37-1.01-1.58-1.48-2.71-1.07-1.12.42-1.73,1.57-1.36,2.58.37,1,1.59,1.48,2.71,1.06,1.12-.42,1.73-1.57,1.35-2.58Z"/>
    <path class="cls-1" d="m142.93,181.78c-.14-.38-.65-.54-1.14-.36s-.77.64-.63,1.02.65.53,1.14.35.77-.64.63-1.01Z"/>
    <path class="cls-1" d="m175.07,171.34c-.16-.43-.74-.61-1.3-.4s-.88.72-.72,1.15.74.61,1.3.4c.56-.21.88-.72.72-1.15Z"/>
    <path class="cls-1" d="m135.01,143.11c-.21-.56-.95-.79-1.67-.52s-1.13.93-.93,1.49.96.79,1.67.52c.72-.27,1.13-.93.92-1.48Z"/>
    <path class="cls-1" d="m167.99,148.44c-.3-.82-1.41-1.16-2.47-.77-1.06.39-1.67,1.38-1.37,2.2.3.82,1.41,1.16,2.47.77,1.06-.39,1.67-1.38,1.37-2.2Z"/>
    <path class="cls-1" d="m154.31,137.05c-.19-.51-.86-.71-1.51-.47s-1.03.84-.84,1.35c.19.5.86.71,1.51.47.65-.24,1.02-.84.84-1.34Z"/>
    <path class="cls-1" d="m182.39,151.85c-.33-.89-1.53-1.26-2.68-.84s-1.81,1.49-1.48,2.38c.33.89,1.53,1.26,2.68.84s1.81-1.5,1.48-2.38Z"/>
    <path class="cls-1" d="m196.1,135.83c-.37-1-1.72-1.42-3.02-.94-1.29.48-2.05,1.68-1.67,2.68s1.73,1.42,3.02.94c1.3-.48,2.04-1.69,1.67-2.68Z"/>
    <path class="cls-1" d="m189.89,111.85c-.47-1.26-2.16-1.79-3.79-1.18-1.63.6-2.57,2.11-2.1,3.37.47,1.25,2.17,1.79,3.8,1.18,1.63-.6,2.56-2.12,2.09-3.37Z"/>
    <path class="cls-1" d="m190.35,90.84c-.2-.53-.92-.76-1.61-.5s-1.09.9-.89,1.43.92.75,1.61.5,1.09-.9.89-1.43Z"/>
    <path class="cls-1" d="m209.96,95.39c-.2-.54-.93-.77-1.62-.51s-1.1.9-.9,1.44.93.77,1.62.51,1.1-.91.9-1.44Z"/>
    <path class="cls-1" d="m221.12,82.42c-.27-.71-1.23-1.01-2.15-.67-.92.34-1.45,1.2-1.19,1.91s1.23,1.01,2.15.67c.92-.34,1.45-1.2,1.19-1.91Z"/>
    <path class="cls-1" d="m239.16,67.83c-1.08-.97-2.75-.85-3.74.25-.98,1.1-.91,2.78.17,3.74,1.08.96,2.76.85,3.74-.25.99-1.1.91-2.78-.17-3.74Z"/>
    <path class="cls-1" d="m254.92,61.16c-1.08-.96-2.74-.85-3.72.25-.98,1.1-.91,2.76.17,3.73,1.07.96,2.74.85,3.72-.25.98-1.1.9-2.77-.17-3.72Z"/>
    <path class="cls-1" d="m246.57,54.64c-.83-.74-2.12-.66-2.89.19s-.7,2.14.13,2.89,2.12.66,2.88-.19.7-2.14-.13-2.89Z"/>
    <path class="cls-1" d="m264.39,47.22c-.76-.68-1.95-.61-2.65.18-.7.78-.64,1.97.12,2.65.76.68,1.95.6,2.64-.18.7-.78.64-1.97-.12-2.65Z"/>
  </g>
  <g>
    <path class="cls-1" d="m504.22,411.4c.54-1.44,2.27-2.12,3.88-1.53,1.61.6,2.48,2.25,1.94,3.69s-2.28,2.13-3.89,1.53-2.48-2.26-1.94-3.7Z"/>
    <path class="cls-1" d="m499.21,407.46c.2-.55.86-.81,1.48-.58.61.23.94.85.74,1.4s-.87.81-1.48.58c-.61-.23-.94-.86-.74-1.4Z"/>
    <path class="cls-1" d="m500.26,390.61c.25-.66,1.04-.98,1.78-.7s1.14,1.03.89,1.7-1.05.98-1.79.7-1.14-1.04-.89-1.7Z"/>
    <path class="cls-1" d="m509.6,387.67c.22-.58.92-.86,1.56-.62s1,.91.79,1.49c-.22.58-.92.86-1.57.61-.65-.24-1-.91-.78-1.49Z"/>
    <path class="cls-1" d="m506.7,367.73c.21-.57.89-.84,1.53-.6.63.23.98.88.76,1.45-.21.56-.9.83-1.53.6-.63-.24-.97-.89-.76-1.45Z"/>
    <path class="cls-1" d="m544.82,354.59c.53-1.41,2.22-2.08,3.8-1.49,1.57.59,2.43,2.2,1.9,3.61-.52,1.41-2.22,2.08-3.8,1.49-1.57-.59-2.42-2.2-1.9-3.61Z"/>
    <path class="cls-1" d="m512.88,329.61c.42-1.12,1.77-1.65,3.01-1.19s1.93,1.75,1.51,2.87c-.41,1.11-1.77,1.65-3.02,1.18-1.25-.46-1.92-1.75-1.51-2.87Z"/>
    <path class="cls-1" d="m518.98,308.59c.48-1.29,2.03-1.9,3.47-1.37s2.22,2.01,1.74,3.3-2.03,1.9-3.47,1.36c-1.44-.53-2.21-2.02-1.73-3.3Z"/>
    <path class="cls-1" d="m512.67,288.37c.4-1.08,1.7-1.59,2.9-1.14s1.85,1.68,1.45,2.76c-.4,1.07-1.7,1.59-2.9,1.14-1.2-.45-1.85-1.69-1.45-2.76Z"/>
    <path class="cls-1" d="m512.44,265.83c.43-1.15,1.8-1.69,3.08-1.21,1.27.47,1.96,1.78,1.54,2.93-.42,1.14-1.8,1.68-3.08,1.21-1.28-.47-1.96-1.79-1.54-2.93Z"/>
    <path class="cls-1" d="m502.31,257.34c.43-1.15,1.81-1.69,3.09-1.22s1.98,1.79,1.55,2.94-1.81,1.69-3.1,1.22c-1.28-.48-1.97-1.8-1.55-2.94Z"/>
    <path class="cls-1" d="m492.36,248.03c.41-1.09,1.73-1.61,2.95-1.16s1.88,1.71,1.48,2.8c-.41,1.09-1.73,1.61-2.95,1.16s-1.88-1.71-1.47-2.8Z"/>
    <path class="cls-1" d="m520.63,226.14c.47-1.27,1.99-1.87,3.4-1.34,1.41.52,2.18,1.98,1.71,3.24s-2,1.86-3.41,1.34c-1.41-.52-2.17-1.98-1.7-3.24Z"/>
    <path class="cls-1" d="m504.53,221.82c.45-1.22,1.92-1.79,3.27-1.29s2.09,1.89,1.64,3.11c-.45,1.21-1.92,1.79-3.27,1.29-1.35-.5-2.08-1.9-1.63-3.11Z"/>
    <path class="cls-1" d="m489.15,208.37c.49-1.33,2.09-1.96,3.57-1.41,1.48.55,2.28,2.07,1.79,3.4s-2.1,1.96-3.58,1.41c-1.48-.55-2.28-2.07-1.79-3.4Z"/>
    <path class="cls-1" d="m462.8,199c.37-1.01,1.58-1.48,2.71-1.07,1.12.42,1.73,1.57,1.36,2.58-.37,1-1.59,1.48-2.71,1.06-1.12-.42-1.73-1.57-1.35-2.58Z"/>
    <path class="cls-1" d="m472.16,180.05c.14-.38.65-.54,1.14-.36s.77.64.63,1.02-.65.53-1.14.35-.77-.64-.63-1.01Z"/>
    <path class="cls-1" d="m440.02,169.61c.16-.43.74-.61,1.3-.4s.88.72.72,1.15-.74.61-1.3.4c-.56-.21-.88-.72-.72-1.15Z"/>
    <path class="cls-1" d="m480.07,141.38c.21-.56.95-.79,1.67-.52s1.13.93.93,1.49-.96.79-1.67.52c-.72-.27-1.13-.93-.92-1.48Z"/>
    <path class="cls-1" d="m447.1,146.71c.3-.82,1.41-1.16,2.47-.77,1.06.39,1.67,1.38,1.37,2.2-.3.82-1.41,1.16-2.47.77-1.06-.39-1.67-1.38-1.37-2.2Z"/>
    <path class="cls-1" d="m460.78,135.32c.19-.51.86-.71,1.51-.47s1.03.84.84,1.35c-.19.5-.86.71-1.51.47-.65-.24-1.02-.84-.84-1.34Z"/>
    <path class="cls-1" d="m432.7,150.12c.33-.89,1.53-1.26,2.68-.84s1.81,1.49,1.48,2.38c-.33.89-1.53,1.26-2.68.84s-1.81-1.5-1.48-2.38Z"/>
    <path class="cls-1" d="m418.99,134.09c.37-1,1.72-1.42,3.02-.94,1.29.48,2.05,1.68,1.67,2.68s-1.73,1.42-3.02.94c-1.3-.48-2.04-1.69-1.67-2.68Z"/>
    <path class="cls-1" d="m425.2,110.11c.47-1.26,2.16-1.79,3.79-1.18,1.63.6,2.57,2.11,2.1,3.37-.47,1.25-2.17,1.79-3.8,1.18-1.63-.6-2.56-2.12-2.09-3.37Z"/>
    <path class="cls-1" d="m424.74,89.11c.2-.53.92-.76,1.61-.5s1.09.9.89,1.43-.92.75-1.61.5-1.09-.9-.89-1.43Z"/>
    <path class="cls-1" d="m405.13,93.65c.2-.54.93-.77,1.62-.51s1.1.9.9,1.44-.93.77-1.62.51-1.1-.91-.9-1.44Z"/>
    <path class="cls-1" d="m393.97,80.69c.27-.71,1.23-1.01,2.15-.67.92.34,1.45,1.2,1.19,1.91s-1.23,1.01-2.15.67c-.92-.34-1.45-1.2-1.19-1.91Z"/>
    <path class="cls-1" d="m375.93,66.1c1.08-.97,2.75-.85,3.74.25.98,1.1.91,2.78-.17,3.74-1.08.96-2.76.85-3.74-.25-.99-1.1-.91-2.78.17-3.74Z"/>
    <path class="cls-1" d="m360.17,59.42c1.08-.96,2.74-.85,3.72.25.98,1.1.91,2.76-.17,3.73-1.07.96-2.74.85-3.72-.25-.98-1.1-.9-2.77.17-3.72Z"/>
    <path class="cls-1" d="m368.51,52.9c.83-.74,2.12-.66,2.89.19s.7,2.14-.13,2.89-2.12.66-2.88-.19-.7-2.14.13-2.89Z"/>
    <path class="cls-1" d="m350.7,45.48c.76-.68,1.95-.61,2.65.18.7.78.64,1.97-.12,2.65-.76.68-1.95.6-2.64-.18-.7-.78-.64-1.97.12-2.65Z"/>
  </g>
</svg>