<?xml version="1.0" encoding="UTF-8"?>
<svg id="_圖層_1" data-name="圖層 1" xmlns="http://www.w3.org/2000/svg" viewBox="0 0 610.29 610.29">
  <defs>
    <style>
      .cls-1 {
        fill: #fff;
        stroke-width: 0px;
      }
    </style>
  </defs>
  <g>
    <path class="cls-1" d="m66.54,351.07c0,.97-1.01,1.75-2.27,1.75s-2.27-.78-2.27-1.75,1.02-1.76,2.27-1.76,2.27.79,2.27,1.76Z"/>
    <path class="cls-1" d="m70.98,352.3c0,.37-.39.67-.86.67s-.86-.3-.86-.67.39-.67.86-.67.86.3.86.67Z"/>
    <path class="cls-1" d="m74.54,362.49c0,.45-.47.81-1.04.81s-1.04-.36-1.04-.81.47-.81,1.04-.81,1.04.36,1.04.81Z"/>
    <path class="cls-1" d="m68.9,366.27c0,.39-.41.71-.91.71s-.92-.32-.92-.71.41-.71.92-.71.91.32.91.71Z"/>
    <path class="cls-1" d="m75.96,377.42c0,.38-.4.69-.89.69s-.89-.31-.89-.69.4-.69.89-.69.89.31.89.69Z"/>
    <path class="cls-1" d="m53.21,393.55c0,.95-.99,1.72-2.22,1.72s-2.22-.77-2.22-1.72.99-1.72,2.22-1.72,2.22.77,2.22,1.72Z"/>
    <path class="cls-1" d="m81.43,401.29c0,.76-.79,1.36-1.76,1.36s-1.77-.61-1.77-1.36.79-1.36,1.77-1.36,1.76.61,1.76,1.36Z"/>
    <path class="cls-1" d="m82.6,415.05c0,.87-.91,1.57-2.03,1.57s-2.03-.7-2.03-1.57.91-1.57,2.03-1.57,2.03.71,2.03,1.57Z"/>
    <path class="cls-1" d="m92.07,425.61c0,.72-.76,1.31-1.7,1.31s-1.7-.59-1.7-1.31.76-1.31,1.7-1.31,1.7.59,1.7,1.31Z"/>
    <path class="cls-1" d="m97.96,438.88c0,.77-.8,1.39-1.8,1.39s-1.8-.62-1.8-1.39.81-1.39,1.8-1.39,1.8.63,1.8,1.39Z"/>
    <path class="cls-1" d="m107.05,441.67c0,.77-.81,1.4-1.81,1.4s-1.81-.62-1.81-1.4.81-1.4,1.81-1.4,1.81.63,1.81,1.4Z"/>
    <path class="cls-1" d="m116.23,444.99c0,.73-.77,1.33-1.72,1.33s-1.72-.6-1.72-1.33.77-1.33,1.72-1.33,1.72.6,1.72,1.33Z"/>
    <path class="cls-1" d="m102.45,464.12c0,.85-.89,1.54-1.99,1.54s-1.99-.69-1.99-1.54.89-1.54,1.99-1.54,1.99.69,1.99,1.54Z"/>
    <path class="cls-1" d="m114.57,463.14c0,.82-.86,1.48-1.91,1.48s-1.91-.66-1.91-1.48.86-1.48,1.91-1.48,1.91.67,1.91,1.48Z"/>
    <path class="cls-1" d="m128.52,467.71c0,.89-.93,1.62-2.09,1.62s-2.09-.72-2.09-1.62.94-1.62,2.09-1.62,2.09.72,2.09,1.62Z"/>
    <path class="cls-1" d="m148.94,467.46c0,.68-.71,1.22-1.58,1.22s-1.58-.55-1.58-1.22.71-1.22,1.58-1.22,1.58.55,1.58,1.22Z"/>
    <path class="cls-1" d="m147.35,482.51c0,.3-.31.54-.69.54s-.69-.24-.69-.54.31-.53.69-.53.69.24.69.53Z"/>
    <path class="cls-1" d="m172.01,481.48c0,.34-.35.61-.78.61s-.79-.27-.79-.61.35-.6.79-.6.78.27.78.6Z"/>
    <path class="cls-1" d="m151.78,510.99c0,.43-.45.78-1.01.78s-1.01-.35-1.01-.78.45-.78,1.01-.78,1.01.35,1.01.78Z"/>
    <path class="cls-1" d="m172.99,498.95c0,.64-.67,1.16-1.49,1.16s-1.49-.52-1.49-1.16.67-1.16,1.49-1.16,1.49.52,1.49,1.16Z"/>
    <path class="cls-1" d="m166.53,510.23c0,.39-.41.71-.91.71s-.92-.31-.92-.71.41-.71.92-.71.91.32.91.71Z"/>
    <path class="cls-1" d="m181.98,492.96c0,.69-.73,1.25-1.62,1.25s-1.62-.56-1.62-1.25.73-1.25,1.62-1.25,1.62.56,1.62,1.25Z"/>
    <path class="cls-1" d="m195.44,500.44c0,.78-.82,1.41-1.83,1.41s-1.83-.63-1.83-1.41.82-1.41,1.83-1.41,1.83.63,1.83,1.41Z"/>
    <path class="cls-1" d="m197.29,518.43c0,.98-1.02,1.77-2.29,1.77s-2.3-.79-2.3-1.77,1.03-1.77,2.3-1.77,2.29.8,2.29,1.77Z"/>
    <path class="cls-1" d="m202.95,532.68c0,.42-.43.75-.97.75s-.97-.34-.97-.75.44-.75.97-.75.97.34.97.75Z"/>
    <path class="cls-1" d="m215.21,524.58c0,.42-.44.76-.98.76s-.98-.34-.98-.76.44-.76.98-.76.98.34.98.76Z"/>
    <path class="cls-1" d="m226.15,530.62c0,.56-.58,1.01-1.3,1.01s-1.3-.45-1.3-1.01.58-1,1.3-1,1.3.45,1.3,1Z"/>
    <path class="cls-1" d="m241.86,536.52c0,.84-.87,1.51-1.96,1.51s-1.96-.68-1.96-1.51.88-1.51,1.96-1.51,1.96.68,1.96,1.51Z"/>
    <path class="cls-1" d="m250.64,521.96c0,.83-.87,1.51-1.94,1.51s-1.95-.67-1.95-1.51.87-1.5,1.95-1.5,1.94.68,1.94,1.5Z"/>
    <path class="cls-1" d="m252.66,538.4c0,.64-.67,1.17-1.51,1.17s-1.51-.52-1.51-1.17.68-1.17,1.51-1.17,1.51.52,1.51,1.17Z"/>
    <path class="cls-1" d="m265.36,533.59c0,.59-.62,1.07-1.38,1.07s-1.38-.48-1.38-1.07.62-1.07,1.38-1.07,1.38.48,1.38,1.07Z"/>
  </g>
  <g>
    <path class="cls-1" d="m530.82,341.72c0,.97,1.01,1.75,2.27,1.75,1.25,0,2.27-.78,2.27-1.75s-1.02-1.76-2.27-1.76-2.27.79-2.27,1.76Z"/>
    <path class="cls-1" d="m526.39,342.95c0,.37.39.67.86.67s.86-.3.86-.67c0-.37-.39-.67-.86-.67s-.86.3-.86.67Z"/>
    <path class="cls-1" d="m522.82,353.14c0,.45.47.81,1.04.81s1.04-.36,1.04-.81c0-.44-.47-.81-1.04-.81s-1.04.36-1.04.81Z"/>
    <path class="cls-1" d="m528.46,356.92c0,.39.41.71.91.71.51,0,.92-.32.92-.71s-.41-.71-.92-.71-.91.32-.91.71Z"/>
    <path class="cls-1" d="m521.4,368.06c0,.38.4.69.89.69s.89-.31.89-.69c0-.38-.4-.69-.89-.69s-.89.31-.89.69Z"/>
    <path class="cls-1" d="m544.15,384.2c0,.95.99,1.72,2.22,1.72,1.23,0,2.22-.77,2.22-1.72s-.99-1.72-2.22-1.72c-1.23,0-2.22.77-2.22,1.72Z"/>
    <path class="cls-1" d="m515.93,391.94c0,.76.79,1.36,1.76,1.36s1.77-.61,1.77-1.36c0-.75-.79-1.36-1.77-1.36s-1.76.61-1.76,1.36Z"/>
    <path class="cls-1" d="m514.76,405.7c0,.87.91,1.57,2.03,1.57s2.03-.7,2.03-1.57-.91-1.57-2.03-1.57c-1.12,0-2.03.71-2.03,1.57Z"/>
    <path class="cls-1" d="m505.3,416.26c0,.72.76,1.31,1.7,1.31s1.7-.59,1.7-1.31c0-.72-.76-1.31-1.7-1.31s-1.7.59-1.7,1.31Z"/>
    <path class="cls-1" d="m499.4,429.53c0,.77.8,1.39,1.8,1.39s1.8-.62,1.8-1.39c0-.76-.81-1.39-1.8-1.39-.99,0-1.8.63-1.8,1.39Z"/>
    <path class="cls-1" d="m490.31,432.32c0,.77.81,1.4,1.81,1.4,1,0,1.81-.62,1.81-1.4,0-.77-.81-1.4-1.81-1.4-1,0-1.81.63-1.81,1.4Z"/>
    <path class="cls-1" d="m481.13,435.63c0,.73.77,1.33,1.72,1.33s1.72-.6,1.72-1.33c0-.73-.77-1.33-1.72-1.33-.95,0-1.72.6-1.72,1.33Z"/>
    <path class="cls-1" d="m494.91,454.77c0,.85.89,1.54,1.99,1.54,1.1,0,1.99-.69,1.99-1.54s-.89-1.54-1.99-1.54c-1.1,0-1.99.69-1.99,1.54Z"/>
    <path class="cls-1" d="m482.8,453.79c0,.82.86,1.48,1.91,1.48,1.06,0,1.91-.66,1.91-1.48,0-.81-.86-1.48-1.91-1.48-1.05,0-1.91.67-1.91,1.48Z"/>
    <path class="cls-1" d="m468.85,458.35c0,.89.93,1.62,2.09,1.62s2.09-.72,2.09-1.62-.94-1.62-2.09-1.62c-1.15,0-2.09.72-2.09,1.62Z"/>
    <path class="cls-1" d="m448.43,458.11c0,.68.71,1.22,1.58,1.22s1.58-.55,1.58-1.22c0-.67-.71-1.22-1.58-1.22s-1.58.55-1.58,1.22Z"/>
    <path class="cls-1" d="m450.01,473.16c0,.3.31.54.69.54s.69-.24.69-.54c0-.29-.31-.53-.69-.53s-.69.24-.69.53Z"/>
    <path class="cls-1" d="m425.36,472.13c0,.34.35.61.78.61s.79-.27.79-.61c0-.33-.35-.6-.79-.6s-.78.27-.78.6Z"/>
    <path class="cls-1" d="m445.59,501.64c0,.43.45.78,1.01.78s1.01-.35,1.01-.78-.45-.78-1.01-.78-1.01.35-1.01.78Z"/>
    <path class="cls-1" d="m424.38,489.6c0,.64.67,1.16,1.49,1.16.82,0,1.49-.52,1.49-1.16,0-.64-.67-1.16-1.49-1.16s-1.49.52-1.49,1.16Z"/>
    <path class="cls-1" d="m430.84,500.88c0,.39.41.71.91.71.5,0,.92-.31.92-.71,0-.39-.41-.71-.92-.71s-.91.32-.91.71Z"/>
    <path class="cls-1" d="m415.39,483.61c0,.69.73,1.25,1.62,1.25s1.62-.56,1.62-1.25c0-.69-.73-1.25-1.62-1.25s-1.62.56-1.62,1.25Z"/>
    <path class="cls-1" d="m401.93,491.08c0,.78.82,1.41,1.83,1.41,1.01,0,1.83-.63,1.83-1.41s-.82-1.41-1.83-1.41c-1.01,0-1.83.63-1.83,1.41Z"/>
    <path class="cls-1" d="m400.08,509.07c0,.98,1.02,1.77,2.29,1.77,1.27,0,2.3-.79,2.3-1.77s-1.03-1.77-2.3-1.77-2.29.8-2.29,1.77Z"/>
    <path class="cls-1" d="m394.42,523.33c0,.42.43.75.97.75s.97-.34.97-.75c0-.41-.44-.75-.97-.75s-.97.34-.97.75Z"/>
    <path class="cls-1" d="m382.15,515.23c0,.42.44.76.98.76s.98-.34.98-.76c0-.42-.44-.76-.98-.76s-.98.34-.98.76Z"/>
    <path class="cls-1" d="m371.22,521.27c0,.56.58,1.01,1.3,1.01s1.3-.45,1.3-1.01-.58-1-1.3-1-1.3.45-1.3,1Z"/>
    <path class="cls-1" d="m355.5,527.16c0,.84.87,1.51,1.96,1.51s1.96-.68,1.96-1.51-.88-1.51-1.96-1.51-1.96.68-1.96,1.51Z"/>
    <path class="cls-1" d="m346.73,512.61c0,.83.87,1.51,1.94,1.51,1.08,0,1.95-.67,1.95-1.51,0-.83-.87-1.5-1.95-1.5s-1.94.68-1.94,1.5Z"/>
    <path class="cls-1" d="m344.71,529.05c0,.64.67,1.17,1.51,1.17s1.51-.52,1.51-1.17c0-.64-.68-1.17-1.51-1.17s-1.51.52-1.51,1.17Z"/>
    <path class="cls-1" d="m332,524.24c0,.59.62,1.07,1.38,1.07s1.38-.48,1.38-1.07c0-.59-.62-1.07-1.38-1.07-.77,0-1.38.48-1.38,1.07Z"/>
  </g>
  <g>
    <path class="cls-1" d="m530.82,258.46c0-.97,1.01-1.75,2.27-1.75s2.27.78,2.27,1.75-1.02,1.76-2.27,1.76-2.27-.79-2.27-1.76Z"/>
    <path class="cls-1" d="m526.39,257.24c0-.37.39-.67.86-.67s.86.3.86.67-.39.67-.86.67-.86-.3-.86-.67Z"/>
    <path class="cls-1" d="m522.82,247.04c0-.45.47-.81,1.04-.81s1.04.36,1.04.81-.47.81-1.04.81-1.04-.36-1.04-.81Z"/>
    <path class="cls-1" d="m528.46,243.26c0-.39.41-.71.91-.71s.92.32.92.71-.41.71-.92.71-.91-.32-.91-.71Z"/>
    <path class="cls-1" d="m521.4,232.12c0-.38.4-.69.89-.69s.89.31.89.69-.4.69-.89.69-.89-.31-.89-.69Z"/>
    <path class="cls-1" d="m544.15,215.98c0-.95.99-1.72,2.22-1.72s2.22.77,2.22,1.72-.99,1.72-2.22,1.72-2.22-.77-2.22-1.72Z"/>
    <path class="cls-1" d="m515.93,208.24c0-.76.79-1.36,1.76-1.36s1.77.61,1.77,1.36-.79,1.36-1.77,1.36-1.76-.61-1.76-1.36Z"/>
    <path class="cls-1" d="m514.76,194.48c0-.87.91-1.57,2.03-1.57s2.03.7,2.03,1.57-.91,1.57-2.03,1.57-2.03-.71-2.03-1.57Z"/>
    <path class="cls-1" d="m505.3,183.92c0-.72.76-1.31,1.7-1.31s1.7.59,1.7,1.31-.76,1.31-1.7,1.31-1.7-.59-1.7-1.31Z"/>
    <path class="cls-1" d="m499.4,170.66c0-.77.8-1.39,1.8-1.39s1.8.62,1.8,1.39-.81,1.39-1.8,1.39-1.8-.63-1.8-1.39Z"/>
    <path class="cls-1" d="m490.31,167.87c0-.77.81-1.4,1.81-1.4s1.81.62,1.81,1.4-.81,1.4-1.81,1.4-1.81-.63-1.81-1.4Z"/>
    <path class="cls-1" d="m481.13,164.55c0-.73.77-1.33,1.72-1.33s1.72.6,1.72,1.33-.77,1.33-1.72,1.33-1.72-.6-1.72-1.33Z"/>
    <path class="cls-1" d="m494.91,145.41c0-.85.89-1.54,1.99-1.54s1.99.69,1.99,1.54-.89,1.54-1.99,1.54-1.99-.69-1.99-1.54Z"/>
    <path class="cls-1" d="m482.8,146.39c0-.82.86-1.48,1.91-1.48s1.91.66,1.91,1.48-.86,1.48-1.91,1.48-1.91-.67-1.91-1.48Z"/>
    <path class="cls-1" d="m468.85,141.83c0-.89.93-1.62,2.09-1.62s2.09.72,2.09,1.62-.94,1.62-2.09,1.62-2.09-.72-2.09-1.62Z"/>
    <path class="cls-1" d="m448.43,142.07c0-.68.71-1.22,1.58-1.22s1.58.55,1.58,1.22-.71,1.22-1.58,1.22-1.58-.55-1.58-1.22Z"/>
    <path class="cls-1" d="m450.01,127.02c0-.3.31-.54.69-.54s.69.24.69.54-.31.53-.69.53-.69-.24-.69-.53Z"/>
    <path class="cls-1" d="m425.36,128.05c0-.34.35-.61.78-.61s.79.27.79.61-.35.6-.79.6-.78-.27-.78-.6Z"/>
    <path class="cls-1" d="m445.59,98.54c0-.43.45-.78,1.01-.78s1.01.35,1.01.78-.45.78-1.01.78-1.01-.35-1.01-.78Z"/>
    <path class="cls-1" d="m424.38,110.58c0-.64.67-1.16,1.49-1.16s1.49.52,1.49,1.16-.67,1.16-1.49,1.16-1.49-.52-1.49-1.16Z"/>
    <path class="cls-1" d="m430.84,99.3c0-.39.41-.71.91-.71s.92.31.92.71-.41.71-.92.71-.91-.32-.91-.71Z"/>
    <path class="cls-1" d="m415.39,116.58c0-.69.73-1.25,1.62-1.25s1.62.56,1.62,1.25-.73,1.25-1.62,1.25-1.62-.56-1.62-1.25Z"/>
    <path class="cls-1" d="m401.93,109.1c0-.78.82-1.41,1.83-1.41s1.83.63,1.83,1.41-.82,1.41-1.83,1.41-1.83-.63-1.83-1.41Z"/>
    <path class="cls-1" d="m400.08,91.11c0-.98,1.02-1.77,2.29-1.77s2.3.79,2.3,1.77-1.03,1.77-2.3,1.77-2.29-.8-2.29-1.77Z"/>
    <path class="cls-1" d="m394.42,76.85c0-.42.43-.75.97-.75s.97.34.97.75-.44.75-.97.75-.97-.34-.97-.75Z"/>
    <path class="cls-1" d="m382.15,84.95c0-.42.44-.76.98-.76s.98.34.98.76-.44.76-.98.76-.98-.34-.98-.76Z"/>
    <path class="cls-1" d="m371.22,78.92c0-.56.58-1.01,1.3-1.01s1.3.45,1.3,1.01-.58,1-1.3,1-1.3-.45-1.3-1Z"/>
    <path class="cls-1" d="m355.5,73.02c0-.84.87-1.51,1.96-1.51s1.96.68,1.96,1.51-.88,1.51-1.96,1.51-1.96-.68-1.96-1.51Z"/>
    <path class="cls-1" d="m346.73,87.57c0-.83.87-1.51,1.94-1.51s1.95.67,1.95,1.51-.87,1.5-1.95,1.5-1.94-.68-1.94-1.5Z"/>
    <path class="cls-1" d="m344.71,71.13c0-.64.67-1.17,1.51-1.17s1.51.52,1.51,1.17-.68,1.17-1.51,1.17-1.51-.52-1.51-1.17Z"/>
    <path class="cls-1" d="m332,75.94c0-.59.62-1.07,1.38-1.07s1.38.48,1.38,1.07-.62,1.07-1.38,1.07-1.38-.48-1.38-1.07Z"/>
  </g>
  <g>
    <path class="cls-1" d="m66.54,267.81c0-.97-1.01-1.75-2.27-1.75-1.25,0-2.27.78-2.27,1.75s1.02,1.76,2.27,1.76,2.27-.79,2.27-1.76Z"/>
    <path class="cls-1" d="m70.98,266.59c0-.37-.39-.67-.86-.67s-.86.3-.86.67c0,.37.39.67.86.67.48,0,.86-.3.86-.67Z"/>
    <path class="cls-1" d="m74.54,256.4c0-.45-.47-.81-1.04-.81s-1.04.36-1.04.81.47.81,1.04.81,1.04-.36,1.04-.81Z"/>
    <path class="cls-1" d="m68.9,252.61c0-.39-.41-.71-.91-.71s-.92.32-.92.71c0,.39.41.71.92.71.5,0,.91-.32.91-.71Z"/>
    <path class="cls-1" d="m75.96,241.47c0-.38-.4-.69-.89-.69-.49,0-.89.31-.89.69,0,.38.4.69.89.69s.89-.31.89-.69Z"/>
    <path class="cls-1" d="m53.21,225.33c0-.95-.99-1.72-2.22-1.72s-2.22.77-2.22,1.72c0,.95.99,1.72,2.22,1.72,1.23,0,2.22-.77,2.22-1.72Z"/>
    <path class="cls-1" d="m81.43,217.59c0-.76-.79-1.36-1.76-1.36s-1.77.61-1.77,1.36c0,.75.79,1.36,1.77,1.36s1.76-.61,1.76-1.36Z"/>
    <path class="cls-1" d="m82.6,203.83c0-.87-.91-1.57-2.03-1.57s-2.03.7-2.03,1.57.91,1.57,2.03,1.57c1.12,0,2.03-.71,2.03-1.57Z"/>
    <path class="cls-1" d="m92.07,193.27c0-.72-.76-1.31-1.7-1.31s-1.7.59-1.7,1.31c0,.72.76,1.31,1.7,1.31s1.7-.59,1.7-1.31Z"/>
    <path class="cls-1" d="m97.96,180.01c0-.77-.8-1.39-1.8-1.39-.99,0-1.8.62-1.8,1.39,0,.76.81,1.39,1.8,1.39.99,0,1.8-.63,1.8-1.39Z"/>
    <path class="cls-1" d="m107.05,177.22c0-.77-.81-1.4-1.81-1.4s-1.81.62-1.81,1.4c0,.77.81,1.4,1.81,1.4,1,0,1.81-.63,1.81-1.4Z"/>
    <path class="cls-1" d="m116.23,173.9c0-.73-.77-1.33-1.72-1.33s-1.72.6-1.72,1.33c0,.73.77,1.33,1.72,1.33s1.72-.6,1.72-1.33Z"/>
    <path class="cls-1" d="m102.45,154.76c0-.85-.89-1.54-1.99-1.54-1.1,0-1.99.69-1.99,1.54s.89,1.54,1.99,1.54c1.1,0,1.99-.69,1.99-1.54Z"/>
    <path class="cls-1" d="m114.57,155.74c0-.82-.86-1.48-1.91-1.48s-1.91.66-1.91,1.48c0,.81.86,1.48,1.91,1.48s1.91-.67,1.91-1.48Z"/>
    <path class="cls-1" d="m128.52,151.18c0-.89-.93-1.62-2.09-1.62-1.15,0-2.09.72-2.09,1.62s.94,1.62,2.09,1.62c1.15,0,2.09-.72,2.09-1.62Z"/>
    <path class="cls-1" d="m148.94,151.43c0-.68-.71-1.22-1.58-1.22s-1.58.55-1.58,1.22c0,.67.71,1.22,1.58,1.22s1.58-.55,1.58-1.22Z"/>
    <path class="cls-1" d="m147.35,136.37c0-.3-.31-.54-.69-.54s-.69.24-.69.54c0,.29.31.53.69.53s.69-.24.69-.53Z"/>
    <path class="cls-1" d="m172.01,137.4c0-.34-.35-.61-.78-.61s-.79.27-.79.61c0,.33.35.6.79.6s.78-.27.78-.6Z"/>
    <path class="cls-1" d="m151.78,107.89c0-.43-.45-.78-1.01-.78s-1.01.35-1.01.78.45.78,1.01.78c.56,0,1.01-.35,1.01-.78Z"/>
    <path class="cls-1" d="m172.99,119.93c0-.64-.67-1.16-1.49-1.16s-1.49.52-1.49,1.16c0,.64.67,1.16,1.49,1.16s1.49-.52,1.49-1.16Z"/>
    <path class="cls-1" d="m166.53,108.66c0-.39-.41-.71-.91-.71s-.92.31-.92.71c0,.39.41.71.92.71s.91-.32.91-.71Z"/>
    <path class="cls-1" d="m181.98,125.93c0-.69-.73-1.25-1.62-1.25s-1.62.56-1.62,1.25c0,.69.73,1.25,1.62,1.25s1.62-.56,1.62-1.25Z"/>
    <path class="cls-1" d="m195.44,118.45c0-.78-.82-1.41-1.83-1.41-1.01,0-1.83.63-1.83,1.41s.82,1.41,1.83,1.41c1.01,0,1.83-.63,1.83-1.41Z"/>
    <path class="cls-1" d="m197.29,100.46c0-.98-1.02-1.77-2.29-1.77-1.27,0-2.3.79-2.3,1.77,0,.98,1.03,1.77,2.3,1.77,1.27,0,2.29-.8,2.29-1.77Z"/>
    <path class="cls-1" d="m202.95,86.2c0-.42-.43-.75-.97-.75s-.97.34-.97.75c0,.41.44.75.97.75s.97-.34.97-.75Z"/>
    <path class="cls-1" d="m215.21,94.3c0-.42-.44-.76-.98-.76s-.98.34-.98.76c0,.42.44.76.98.76s.98-.34.98-.76Z"/>
    <path class="cls-1" d="m226.15,88.27c0-.56-.58-1.01-1.3-1.01s-1.3.45-1.3,1.01.58,1,1.3,1c.72,0,1.3-.45,1.3-1Z"/>
    <path class="cls-1" d="m241.86,82.37c0-.84-.87-1.51-1.96-1.51-1.08,0-1.96.68-1.96,1.51,0,.83.88,1.51,1.96,1.51s1.96-.68,1.96-1.51Z"/>
    <path class="cls-1" d="m250.64,96.92c0-.83-.87-1.51-1.94-1.51-1.08,0-1.95.67-1.95,1.51,0,.83.87,1.5,1.95,1.5,1.08,0,1.94-.68,1.94-1.5Z"/>
    <path class="cls-1" d="m252.66,80.48c0-.64-.67-1.17-1.51-1.17s-1.51.52-1.51,1.17c0,.64.68,1.17,1.51,1.17s1.51-.52,1.51-1.17Z"/>
    <path class="cls-1" d="m265.36,85.29c0-.59-.62-1.07-1.38-1.07s-1.38.48-1.38,1.07c0,.59.62,1.07,1.38,1.07s1.38-.48,1.38-1.07Z"/>
  </g>
</svg>