<?xml version="1.0" encoding="UTF-8"?>
<svg id="_圖層_1" data-name="圖層 1" xmlns="http://www.w3.org/2000/svg" viewBox="0 0 610.29 610.29">
  <defs>
    <style>
      .cls-1 {
        fill: #fff;
        stroke-width: 0px;
      }
    </style>
  </defs>
  <path class="cls-1" d="m521.67,100.13c-.85-1.07-.4-2.84,1.01-3.96s3.24-1.16,4.09-.09.4,2.85-1,3.97c-1.41,1.12-3.24,1.16-4.09.09Z"/>
  <path class="cls-1" d="m515.61,102.74c-.32-.41-.15-1.08.38-1.51s1.23-.44,1.55-.04.15,1.08-.38,1.51-1.23.44-1.56.03Z"/>
  <path class="cls-1" d="m502.65,94.68c-.39-.49-.19-1.31.46-1.82s1.49-.53,1.88-.04.19,1.31-.46,1.82-1.49.53-1.88.04Z"/>
  <path class="cls-1" d="m505.66,85.46c-.34-.43-.16-1.15.4-1.6s1.31-.47,1.65-.04.16,1.15-.41,1.6-1.31.47-1.65.04Z"/>
  <path class="cls-1" d="m487.94,79.47c-.34-.42-.16-1.12.4-1.56s1.27-.46,1.61-.04.15,1.12-.4,1.56-1.27.46-1.61.04Z"/>
  <path class="cls-1" d="m436.28,90.21c-.96-1.21-.48-3.2,1.09-4.44s3.61-1.28,4.58-.07.47,3.2-1.09,4.45-3.61,1.27-4.57.06Z"/>
  <path class="cls-1" d="m391,75.82c-.75-.94-.45-2.43.68-3.32s2.64-.86,3.39.08.44,2.43-.68,3.32-2.64.85-3.39-.08Z"/>
  <path class="cls-1" d="m366.73,71.54c-.86-1.08-.51-2.79.78-3.82s3.04-.99,3.9.1c.86,1.08.51,2.79-.78,3.82s-3.04.98-3.9-.1Z"/>
  <path class="cls-1" d="m367.93,86.51c-.72-.9-.43-2.33.65-3.19s2.54-.83,3.26.08.43,2.34-.65,3.2-2.54.82-3.26-.08Z"/>
  <path class="cls-1" d="m347.94,75.36c-.77-.96-.45-2.48.69-3.39s2.69-.88,3.46.09.45,2.48-.69,3.39-2.7.87-3.46-.08Z"/>
  <path class="cls-1" d="m324.54,90.31c-.05-1.23,1.1-2.28,2.57-2.34s2.71.89,2.76,2.12-1.1,2.28-2.58,2.34-2.7-.9-2.75-2.12Z"/>
  <path class="cls-1" d="m310.8,85.57c-.05-1.17,1.05-2.17,2.45-2.23s2.58.85,2.62,2.02-1.05,2.17-2.45,2.23-2.58-.85-2.62-2.02Z"/>
  <path class="cls-1" d="m329.87,54.23c-.06-1.36,1.21-2.51,2.83-2.57s2.98.98,3.04,2.34-1.22,2.51-2.84,2.58-2.97-.99-3.03-2.34Z"/>
  <path class="cls-1" d="m312.08,56.52c-.05-1.3,1.17-2.41,2.72-2.47s2.86.94,2.91,2.24-1.17,2.41-2.72,2.47-2.86-.95-2.91-2.24Z"/>
  <path class="cls-1" d="m291.21,50.08c-.06-1.42,1.27-2.63,2.97-2.7s3.13,1.03,3.19,2.45-1.28,2.63-2.98,2.7c-1.7.07-3.12-1.03-3.18-2.45Z"/>
  <path class="cls-1" d="m280.64,63.47c-1.1,0-2-1.15-2-2.58s.89-2.58,2-2.58,2,1.16,2,2.58-.9,2.58-2,2.58Z"/>
  <path class="cls-1" d="m256.1,60.89c-.48,0-.87-.5-.87-1.13s.39-1.13.87-1.13.87.51.87,1.13-.39,1.13-.87,1.13Z"/>
  <path class="cls-1" d="m264.79,79.73c-.48,0-.86-.5-.86-1.13s.38-1.13.86-1.13.85.51.85,1.13-.38,1.13-.85,1.13Z"/>
  <path class="cls-1" d="m215.81,67.57c-.61,0-1.1-.65-1.1-1.45s.49-1.45,1.1-1.45,1.1.65,1.1,1.45-.5,1.45-1.1,1.45Z"/>
  <path class="cls-1" d="m240.14,81.15c-.9,0-1.63-.96-1.63-2.14s.73-2.15,1.63-2.15,1.63.96,1.63,2.15-.73,2.15-1.63,2.15Z"/>
  <path class="cls-1" d="m192.62,59.31c-.35-.43-.16-1.15.4-1.6s1.3-.47,1.65-.04.16,1.15-.41,1.6-1.31.47-1.65.04Z"/>
  <path class="cls-1" d="m190.45,92.19c-.61-.76-.29-2.03.72-2.83,1.01-.8,2.31-.83,2.92-.07s.29,2.03-.72,2.83-2.31.83-2.92.06Z"/>
  <path class="cls-1" d="m168.76,95.97c-.69-.86-.32-2.29.81-3.19s2.61-.94,3.29-.08.32,2.29-.81,3.19-2.61.93-3.29.07Z"/>
  <path class="cls-1" d="m150.87,77.77c-.86-1.09-.41-2.87,1.01-4.01s3.27-1.18,4.14-.09.4,2.88-1.02,4.01-3.28,1.17-4.13.09Z"/>
  <path class="cls-1" d="m131.99,67.09c-.37-.46-.17-1.22.43-1.7s1.39-.5,1.75-.04.17,1.22-.43,1.7-1.39.5-1.75.04Z"/>
  <path class="cls-1" d="m125.33,87c-.37-.46-.18-1.23.43-1.72s1.4-.5,1.77-.04.17,1.23-.44,1.72-1.4.5-1.77.04Z"/>
  <path class="cls-1" d="m107.75,90.11c-.49-.61-.23-1.63.58-2.27s1.85-.67,2.34-.05.23,1.63-.58,2.27-1.86.66-2.34.05Z"/>
  <path class="cls-1" d="m84.92,97.65c-.74-.92-.35-2.45.87-3.42s2.79-1,3.53-.08.34,2.45-.87,3.42-2.79,1-3.53.08Z"/>
  <path class="cls-1" d="m87.86,121.55c-.73-.92-.35-2.44.86-3.4s2.78-1,3.51-.08.34,2.44-.86,3.4-2.78.99-3.51.08Z"/>
  <path class="cls-1" d="m71.14,105.21c-.57-.71-.27-1.89.67-2.64s2.15-.77,2.72-.06.26,1.89-.67,2.64-2.15.77-2.72.06Z"/>
  <path class="cls-1" d="m61.1,121.88c-.52-.65-.25-1.73.61-2.42s1.98-.71,2.5-.05.24,1.74-.61,2.42-1.98.71-2.49.06Z"/>
  <path class="cls-1" d="m79.49,135.51c-.49-.61-.23-1.63.58-2.27s1.85-.67,2.34-.05.23,1.63-.58,2.27-1.86.66-2.34.05Z"/>
  <path class="cls-1" d="m56.66,143.05c-.74-.92-.35-2.45.87-3.42s2.79-1,3.53-.08.34,2.45-.87,3.42-2.79,1-3.53.08Z"/>
  <path class="cls-1" d="m59.59,166.96c-.73-.92-.35-2.44.86-3.4s2.78-1,3.51-.08.34,2.44-.86,3.4-2.78.99-3.51.08Z"/>
  <path class="cls-1" d="m42.88,150.61c-.57-.71-.27-1.89.67-2.64s2.15-.77,2.72-.06.26,1.89-.67,2.64-2.15.77-2.72.06Z"/>
  <path class="cls-1" d="m32.84,167.28c-.52-.65-.25-1.73.61-2.42s1.98-.71,2.5-.05.24,1.74-.61,2.42-1.98.71-2.49.06Z"/>
  <path class="cls-1" d="m555.51,172.34c-.85-1.07-.4-2.84,1.01-3.96s3.24-1.16,4.09-.09.4,2.85-1,3.97c-1.41,1.12-3.24,1.16-4.09.09Z"/>
  <path class="cls-1" d="m549.46,174.95c-.32-.41-.15-1.08.38-1.51s1.23-.44,1.55-.04.15,1.08-.38,1.51-1.23.44-1.56.03Z"/>
  <path class="cls-1" d="m536.5,166.89c-.39-.49-.19-1.31.46-1.82s1.49-.53,1.88-.04.19,1.31-.46,1.82-1.49.53-1.88.04Z"/>
  <path class="cls-1" d="m539.51,157.67c-.34-.43-.16-1.15.4-1.6s1.31-.47,1.65-.04.16,1.15-.41,1.6-1.31.47-1.65.04Z"/>
  <path class="cls-1" d="m533.87,127.55c-.84-1.05-.4-2.78.98-3.88s3.17-1.14,4-.09.39,2.78-.99,3.88-3.17,1.13-4,.09Z"/>
  <path class="cls-1" d="m500.19,67.38c-1.11-.47-1.55-1.92-.98-3.24s1.92-2.01,3.03-1.54,1.54,1.93.98,3.25-1.92,2-3.02,1.53Z"/>
  <path class="cls-1" d="m476.28,62.29c-1.27-.54-1.78-2.22-1.13-3.73s2.2-2.31,3.48-1.77,1.77,2.22,1.13,3.73-2.21,2.31-3.47,1.77Z"/>
  <path class="cls-1" d="m460.04,81.61c-1.06-.45-1.48-1.85-.94-3.12s1.84-1.93,2.91-1.48,1.48,1.85.94,3.12-1.85,1.93-2.91,1.48Z"/>
  <path class="cls-1" d="m429.36,71.13c-1.13-.48-1.58-1.96-1-3.31s1.95-2.05,3.08-1.57,1.57,1.97,1,3.31-1.96,2.05-3.08,1.57Z"/>
  <path class="cls-1" d="m416.8,91.65c-1.14-.49-1.58-1.97-1.01-3.33s1.96-2.06,3.1-1.58,1.58,1.97,1,3.33-1.97,2.06-3.1,1.57Z"/>
  <path class="cls-1" d="m393.94,85.77c-1.08-.46-1.51-1.88-.96-3.17s1.87-1.96,2.95-1.5,1.51,1.88.96,3.17-1.88,1.96-2.95,1.5Z"/>
  <path class="cls-1" d="m48.77,198.01c-1.16-.2-1.88-1.59-1.62-3.11s1.41-2.59,2.56-2.4,1.88,1.59,1.62,3.11-1.41,2.59-2.56,2.39Z"/>
  <path class="cls-1" d="m29.03,216.07c-.82-.14-1.34-1.13-1.16-2.21s1-1.84,1.83-1.7,1.34,1.13,1.15,2.21-1,1.84-1.82,1.7Z"/>
  <path class="cls-1" d="m61.69,223.97c-.77-.13-1.26-1.06-1.09-2.08s.94-1.73,1.71-1.6,1.26,1.06,1.08,2.08-.94,1.73-1.71,1.6Z"/>
  <path class="cls-1" d="m49.69,244.8c-1.16-.2-1.89-1.6-1.63-3.13s1.41-2.61,2.58-2.41,1.89,1.6,1.63,3.13-1.42,2.6-2.58,2.41Z"/>
  <path class="cls-1" d="m67.8,260.68c-1.16-.2-1.88-1.59-1.62-3.11s1.41-2.59,2.56-2.4,1.88,1.59,1.62,3.11c-.26,1.52-1.41,2.59-2.56,2.39Z"/>
  <path class="cls-1" d="m44.45,259.62c-.9-.15-1.46-1.23-1.26-2.41s1.09-2.01,1.99-1.86,1.46,1.24,1.26,2.41-1.09,2.01-1.99,1.86Z"/>
  <path class="cls-1" d="m48.06,278.74c-.82-.14-1.34-1.13-1.16-2.21s1-1.84,1.83-1.7,1.34,1.13,1.15,2.21-1,1.84-1.82,1.7Z"/>
  <path class="cls-1" d="m46.45,313.99c-1.16-.2-1.88-1.59-1.62-3.11s1.41-2.59,2.56-2.4,1.88,1.59,1.62,3.11-1.41,2.59-2.56,2.39Z"/>
  <path class="cls-1" d="m26.71,332.05c-.82-.14-1.34-1.13-1.16-2.21s1-1.84,1.83-1.7,1.34,1.13,1.15,2.21-1,1.84-1.82,1.7Z"/>
  <path class="cls-1" d="m59.38,339.95c-.77-.13-1.26-1.06-1.09-2.08s.94-1.73,1.71-1.6,1.26,1.06,1.08,2.08-.94,1.73-1.71,1.6Z"/>
  <path class="cls-1" d="m47.37,360.78c-1.16-.2-1.89-1.6-1.63-3.13s1.41-2.61,2.58-2.41,1.89,1.6,1.63,3.13-1.42,2.6-2.58,2.41Z"/>
  <path class="cls-1" d="m65.49,376.65c-1.16-.2-1.88-1.59-1.62-3.11s1.41-2.59,2.56-2.4,1.88,1.59,1.62,3.11c-.26,1.52-1.41,2.59-2.56,2.39Z"/>
  <path class="cls-1" d="m42.13,375.59c-.9-.15-1.46-1.23-1.26-2.41s1.09-2.01,1.99-1.86,1.46,1.24,1.26,2.41-1.09,2.01-1.99,1.86Z"/>
  <path class="cls-1" d="m45.75,394.71c-.82-.14-1.34-1.13-1.16-2.21s1-1.84,1.83-1.7,1.34,1.13,1.15,2.21-1,1.84-1.82,1.7Z"/>
  <path class="cls-1" d="m47.2,419.78c-1.16-.2-1.89-1.6-1.63-3.13s1.41-2.61,2.58-2.41,1.89,1.6,1.63,3.13-1.42,2.6-2.58,2.41Z"/>
  <path class="cls-1" d="m65.31,435.66c-1.16-.2-1.88-1.59-1.62-3.11s1.41-2.59,2.56-2.4,1.88,1.59,1.62,3.11-1.41,2.59-2.56,2.39Z"/>
  <path class="cls-1" d="m41.96,434.6c-.9-.15-1.46-1.23-1.26-2.41s1.09-2.01,1.99-1.86,1.46,1.24,1.26,2.41-1.09,2.01-1.99,1.86Z"/>
  <path class="cls-1" d="m45.57,453.72c-.82-.14-1.34-1.13-1.16-2.21s1-1.84,1.83-1.7,1.34,1.13,1.15,2.21-1,1.84-1.82,1.7Z"/>
  <path class="cls-1" d="m546.1,429.73c-1.16-.2-1.89-1.6-1.63-3.13s1.41-2.61,2.58-2.41,1.89,1.6,1.63,3.13-1.42,2.6-2.58,2.41Z"/>
  <path class="cls-1" d="m564.21,445.61c-1.16-.2-1.88-1.59-1.62-3.11s1.41-2.59,2.56-2.4,1.88,1.59,1.62,3.11c-.26,1.52-1.41,2.59-2.56,2.39Z"/>
  <path class="cls-1" d="m540.86,444.55c-.9-.15-1.46-1.23-1.26-2.41s1.09-2.01,1.99-1.86,1.46,1.24,1.26,2.41-1.09,2.01-1.99,1.86Z"/>
  <path class="cls-1" d="m544.47,463.67c-.82-.14-1.34-1.13-1.16-2.21s1-1.84,1.83-1.7,1.34,1.13,1.15,2.21-1,1.84-1.82,1.7Z"/>
  <path class="cls-1" d="m556.67,208.14c-1.16-.2-1.88-1.59-1.62-3.11s1.41-2.59,2.56-2.4,1.88,1.59,1.62,3.11-1.41,2.59-2.56,2.39Z"/>
  <path class="cls-1" d="m536.93,226.2c-.82-.14-1.34-1.13-1.16-2.21s1-1.84,1.83-1.7,1.34,1.13,1.15,2.21-1,1.84-1.82,1.7Z"/>
  <path class="cls-1" d="m569.59,234.1c-.77-.13-1.26-1.06-1.09-2.08s.94-1.73,1.71-1.6,1.26,1.06,1.08,2.08-.94,1.73-1.71,1.6Z"/>
  <path class="cls-1" d="m557.59,254.93c-1.16-.2-1.89-1.6-1.63-3.13s1.41-2.61,2.58-2.41,1.89,1.6,1.63,3.13-1.42,2.6-2.58,2.41Z"/>
  <path class="cls-1" d="m575.7,270.8c-1.16-.2-1.88-1.59-1.62-3.11s1.41-2.59,2.56-2.4,1.88,1.59,1.62,3.11c-.26,1.52-1.41,2.59-2.56,2.39Z"/>
  <path class="cls-1" d="m552.35,269.75c-.9-.15-1.46-1.23-1.26-2.41s1.09-2.01,1.99-1.86,1.46,1.24,1.26,2.41-1.09,2.01-1.99,1.86Z"/>
  <path class="cls-1" d="m555.96,288.87c-.82-.14-1.34-1.13-1.16-2.21s1-1.84,1.83-1.7,1.34,1.13,1.15,2.21-1,1.84-1.82,1.7Z"/>
  <path class="cls-1" d="m554.35,324.12c-1.16-.2-1.88-1.59-1.62-3.11s1.41-2.59,2.56-2.4,1.88,1.59,1.62,3.11-1.41,2.59-2.56,2.39Z"/>
  <path class="cls-1" d="m534.61,342.18c-.82-.14-1.34-1.13-1.16-2.21s1-1.84,1.83-1.7,1.34,1.13,1.15,2.21-1,1.84-1.82,1.7Z"/>
  <path class="cls-1" d="m567.28,350.08c-.77-.13-1.26-1.06-1.09-2.08s.94-1.73,1.71-1.6,1.26,1.06,1.08,2.08-.94,1.73-1.71,1.6Z"/>
  <path class="cls-1" d="m555.27,370.9c-1.16-.2-1.89-1.6-1.63-3.13s1.41-2.61,2.58-2.41,1.89,1.6,1.63,3.13-1.42,2.6-2.58,2.41Z"/>
  <path class="cls-1" d="m573.39,386.78c-1.16-.2-1.88-1.59-1.62-3.11s1.41-2.59,2.56-2.4,1.88,1.59,1.62,3.11c-.26,1.52-1.41,2.59-2.56,2.39Z"/>
  <path class="cls-1" d="m550.03,385.72c-.9-.15-1.46-1.23-1.26-2.41s1.09-2.01,1.99-1.86,1.46,1.24,1.26,2.41-1.09,2.01-1.99,1.86Z"/>
  <path class="cls-1" d="m553.64,404.84c-.82-.14-1.34-1.13-1.16-2.21s1-1.84,1.83-1.7,1.34,1.13,1.15,2.21-1,1.84-1.82,1.7Z"/>
  <path class="cls-1" d="m77.3,514.28c.85,1.07.4,2.84-1.01,3.96s-3.24,1.16-4.09.09-.4-2.85,1-3.97,3.24-1.16,4.09-.09Z"/>
  <path class="cls-1" d="m83.36,511.67c.32.41.15,1.08-.38,1.51s-1.23.44-1.55.04-.15-1.08.38-1.51,1.23-.44,1.56-.03Z"/>
  <path class="cls-1" d="m96.32,519.73c.39.49.19,1.31-.46,1.82s-1.49.53-1.88.04-.19-1.31.46-1.82,1.49-.53,1.88-.04Z"/>
  <path class="cls-1" d="m93.31,528.95c.34.43.16,1.15-.4,1.6s-1.31.47-1.65.04-.16-1.15.41-1.6,1.31-.47,1.65-.04Z"/>
  <path class="cls-1" d="m111.03,534.94c.34.42.16,1.12-.4,1.56s-1.27.46-1.61.04-.15-1.12.4-1.56,1.27-.46,1.61-.04Z"/>
  <path class="cls-1" d="m162.69,524.2c.96,1.21.48,3.2-1.09,4.44-1.57,1.25-3.61,1.28-4.58.07s-.47-3.2,1.09-4.45c1.57-1.25,3.61-1.27,4.57-.06Z"/>
  <path class="cls-1" d="m207.97,538.59c.75.94.45,2.43-.68,3.32-1.13.9-2.64.86-3.39-.08s-.44-2.43.68-3.32,2.64-.85,3.39.08Z"/>
  <path class="cls-1" d="m232.24,542.87c.86,1.08.51,2.79-.78,3.82s-3.04.99-3.9-.1c-.86-1.08-.51-2.79.78-3.82s3.04-.98,3.9.1Z"/>
  <path class="cls-1" d="m231.04,527.9c.72.9.43,2.33-.65,3.19s-2.54.83-3.26-.08-.43-2.34.65-3.2,2.54-.82,3.26.08Z"/>
  <path class="cls-1" d="m251.03,539.05c.77.96.45,2.48-.69,3.39s-2.69.88-3.46-.09-.45-2.48.69-3.39,2.7-.87,3.46.08Z"/>
  <path class="cls-1" d="m274.43,524.1c.05,1.23-1.1,2.28-2.57,2.34s-2.71-.89-2.76-2.12,1.1-2.28,2.58-2.34,2.7.9,2.75,2.12Z"/>
  <path class="cls-1" d="m288.17,528.84c.05,1.17-1.05,2.17-2.45,2.23s-2.58-.85-2.62-2.02,1.05-2.17,2.45-2.23,2.58.85,2.62,2.02Z"/>
  <path class="cls-1" d="m269.1,560.18c.06,1.36-1.21,2.51-2.83,2.57-1.62.07-2.98-.98-3.04-2.34s1.22-2.51,2.84-2.58,2.97.99,3.03,2.34Z"/>
  <path class="cls-1" d="m286.89,557.89c.05,1.3-1.17,2.41-2.72,2.47s-2.86-.94-2.91-2.24,1.17-2.41,2.72-2.47,2.86.95,2.91,2.24Z"/>
  <path class="cls-1" d="m307.75,564.33c.06,1.42-1.27,2.63-2.97,2.7s-3.13-1.03-3.19-2.45,1.28-2.63,2.98-2.7c1.7-.07,3.12,1.03,3.18,2.45Z"/>
  <path class="cls-1" d="m318.33,550.94c1.1,0,2,1.15,2,2.58s-.89,2.58-2,2.58-2-1.16-2-2.58.9-2.58,2-2.58Z"/>
  <path class="cls-1" d="m342.87,553.52c.48,0,.87.5.87,1.13s-.39,1.13-.87,1.13-.87-.51-.87-1.13.39-1.13.87-1.13Z"/>
  <path class="cls-1" d="m334.18,534.68c.48,0,.86.5.86,1.13s-.38,1.13-.86,1.13-.85-.51-.85-1.13.38-1.13.85-1.13Z"/>
  <path class="cls-1" d="m383.16,546.85c.61,0,1.1.65,1.1,1.45s-.49,1.45-1.1,1.45-1.1-.65-1.1-1.45.5-1.45,1.1-1.45Z"/>
  <path class="cls-1" d="m358.83,533.26c.9,0,1.63.96,1.63,2.14s-.73,2.15-1.63,2.15-1.63-.96-1.63-2.15.73-2.15,1.63-2.15Z"/>
  <path class="cls-1" d="m406.35,555.1c.35.43.16,1.15-.4,1.6s-1.3.47-1.65.04-.16-1.15.41-1.6,1.31-.47,1.65-.04Z"/>
  <path class="cls-1" d="m408.52,522.22c.61.76.29,2.03-.72,2.83s-2.31.83-2.92.07-.29-2.03.72-2.83,2.31-.83,2.92-.06Z"/>
  <path class="cls-1" d="m430.21,518.44c.69.86.32,2.29-.81,3.19s-2.61.94-3.29.08-.32-2.29.81-3.19,2.61-.93,3.29-.07Z"/>
  <path class="cls-1" d="m448.1,536.65c.86,1.09.41,2.87-1.01,4.01s-3.27,1.18-4.14.09-.4-2.88,1.02-4.01,3.28-1.17,4.13-.09Z"/>
  <path class="cls-1" d="m466.98,547.32c.37.46.17,1.22-.43,1.7s-1.39.5-1.75.04-.17-1.22.43-1.7,1.39-.5,1.75-.04Z"/>
  <path class="cls-1" d="m473.64,527.42c.37.46.18,1.23-.43,1.72s-1.4.5-1.77.04-.17-1.23.44-1.72,1.4-.5,1.77-.04Z"/>
  <path class="cls-1" d="m491.22,524.3c.49.61.23,1.63-.58,2.27s-1.85.67-2.34.05-.23-1.63.58-2.27,1.86-.66,2.34-.05Z"/>
  <path class="cls-1" d="m514.05,516.76c.74.92.35,2.45-.87,3.42s-2.79,1-3.53.08-.34-2.45.87-3.42,2.79-1,3.53-.08Z"/>
  <path class="cls-1" d="m511.11,492.86c.73.92.35,2.44-.86,3.4s-2.78,1-3.51.08-.34-2.44.86-3.4,2.78-.99,3.51-.08Z"/>
  <path class="cls-1" d="m527.83,509.2c.57.71.27,1.89-.67,2.64s-2.15.77-2.72.06-.26-1.89.67-2.64,2.15-.77,2.72-.06Z"/>
  <path class="cls-1" d="m537.87,492.53c.52.65.25,1.73-.61,2.42s-1.98.71-2.5.05-.24-1.74.61-2.42,1.98-.71,2.49-.06Z"/>
  <path class="cls-1" d="m65.09,486.86c.84,1.05.4,2.78-.98,3.88-1.38,1.1-3.17,1.14-4,.09s-.39-2.78.99-3.88,3.17-1.13,4-.09Z"/>
  <path class="cls-1" d="m98.78,547.03c1.11.47,1.55,1.92.98,3.24s-1.92,2.01-3.03,1.54-1.54-1.93-.98-3.25,1.92-2,3.02-1.53Z"/>
  <path class="cls-1" d="m122.69,552.12c1.27.54,1.78,2.22,1.13,3.73s-2.2,2.31-3.48,1.77-1.77-2.22-1.13-3.73,2.21-2.31,3.47-1.77Z"/>
  <path class="cls-1" d="m138.93,532.81c1.06.45,1.48,1.85.94,3.12s-1.84,1.93-2.91,1.48-1.48-1.85-.94-3.12,1.85-1.93,2.91-1.48Z"/>
  <path class="cls-1" d="m169.61,543.28c1.13.48,1.58,1.96,1,3.31s-1.95,2.05-3.08,1.57-1.57-1.97-1-3.31,1.96-2.05,3.08-1.57Z"/>
  <path class="cls-1" d="m182.17,522.76c1.14.49,1.58,1.97,1.01,3.33s-1.96,2.06-3.1,1.58-1.58-1.97-1-3.33,1.97-2.06,3.1-1.57Z"/>
  <path class="cls-1" d="m205.03,528.65c1.08.46,1.51,1.88.96,3.17s-1.87,1.96-2.95,1.5-1.51-1.88-.96-3.17,1.88-1.96,2.95-1.5Z"/>
</svg>