<?xml version="1.0" encoding="UTF-8"?>
<svg id="_圖層_1" data-name="圖層 1" xmlns="http://www.w3.org/2000/svg" viewBox="0 0 732.29 610.29">
  <defs>
    <style>
      .cls-1 {
        fill: #fff;
        stroke-width: 0px;
      }
    </style>
  </defs>
  <g>
    <path class="cls-1" d="m100.35,167.59c.83-1.36.19-3.39-1.44-4.55s-3.61-1-4.44.36-.18,3.4,1.44,4.55,3.61.99,4.44-.36Z"/>
    <path class="cls-1" d="m107.14,169.96c.31-.51.07-1.29-.55-1.73s-1.37-.38-1.69.13-.07,1.29.55,1.73,1.37.38,1.69-.14Z"/>
    <path class="cls-1" d="m120.47,159c.38-.62.09-1.56-.66-2.09s-1.66-.46-2.04.16-.09,1.56.66,2.09,1.66.45,2.04-.17Z"/>
    <path class="cls-1" d="m116.39,148.51c.33-.55.07-1.37-.58-1.83s-1.46-.4-1.79.14-.07,1.37.58,1.84,1.46.4,1.79-.15Z"/>
    <path class="cls-1" d="m135.05,139.44c.33-.54.07-1.33-.57-1.79s-1.42-.39-1.75.14-.07,1.33.57,1.79,1.42.39,1.74-.14Z"/>
    <path class="cls-1" d="m119.39,95.88c.81-1.33.18-3.32-1.41-4.45s-3.53-.98-4.34.35-.18,3.32,1.41,4.45,3.53.97,4.34-.35Z"/>
    <path class="cls-1" d="m162.54,111.09c.65-1.06.15-2.64-1.11-3.53s-2.81-.78-3.45.28-.14,2.63,1.12,3.53,2.8.77,3.44-.28Z"/>
    <path class="cls-1" d="m175.82,92.93c.74-1.21.17-3.03-1.28-4.06s-3.23-.89-3.97.32-.16,3.03,1.29,4.06,3.23.88,3.96-.32Z"/>
    <path class="cls-1" d="m197.1,86.9c.62-1.01.14-2.53-1.08-3.4s-2.7-.75-3.32.27-.14,2.54,1.07,3.4,2.7.74,3.32-.27Z"/>
    <path class="cls-1" d="m222.98,92.04c.85-.91.65-2.6-.44-3.78s-2.65-1.4-3.5-.49-.64,2.6.44,3.78,2.66,1.39,3.5.49Z"/>
    <path class="cls-1" d="m236,99.53c.85-.92.65-2.61-.44-3.8s-2.67-1.41-3.52-.49-.65,2.61.44,3.8,2.67,1.4,3.51.49Z"/>
    <path class="cls-1" d="m249.69,106.5c.81-.87.62-2.49-.42-3.62s-2.54-1.34-3.35-.47-.62,2.49.42,3.62,2.54,1.34,3.35.47Z"/>
    <path class="cls-1" d="m255.65,67.52c.94-1.01.72-2.88-.48-4.18s-2.94-1.55-3.88-.54-.72,2.88.49,4.19,2.94,1.54,3.87.54Z"/>
    <path class="cls-1" d="m267.83,83.06c.9-.97.69-2.76-.47-4.01s-2.82-1.49-3.72-.52-.69,2.76.47,4.02,2.82,1.48,3.71.52Z"/>
    <path class="cls-1" d="m288.13,94.23c.98-1.05.75-3.02-.51-4.39s-3.09-1.63-4.07-.57-.75,3.02.51,4.39,3.08,1.62,4.06.57Z"/>
    <path class="cls-1" d="m310.21,118.76c.74-.8.57-2.29-.39-3.33s-2.34-1.23-3.08-.43-.57,2.29.39,3.33,2.34,1.23,3.08.43Z"/>
    <path class="cls-1" d="m325.02,99.08c.33-.35.25-1-.17-1.45s-1.02-.54-1.35-.19-.25,1,.17,1.45,1.02.54,1.34.19Z"/>
    <path class="cls-1" d="m290.55,119.16c.46-.49.35-1.41-.24-2.04s-1.43-.76-1.89-.26-.35,1.4.24,2.04,1.43.76,1.89.27Z"/>
    <path class="cls-1" d="m295.07,143.31c.46-.5.35-1.42-.24-2.06s-1.45-.77-1.91-.27-.35,1.42.24,2.07,1.45.76,1.91.27Z"/>
    <path class="cls-1" d="m313.68,149.15c.61-.66.47-1.88-.32-2.73s-1.92-1.01-2.53-.35-.47,1.88.32,2.73,1.92,1.01,2.53.36Z"/>
    <path class="cls-1" d="m337.37,160.83c.92-.99.71-2.83-.48-4.11s-2.88-1.52-3.8-.53c-.92.98-.7,2.83.48,4.11,1.18,1.28,2.89,1.52,3.8.53Z"/>
    <path class="cls-1" d="m330.98,188.45c.92-.99.7-2.81-.47-4.09s-2.87-1.52-3.79-.53-.7,2.81.48,4.09,2.87,1.51,3.78.53Z"/>
    <path class="cls-1" d="m351.26,171.41c.71-.76.55-2.18-.37-3.17s-2.23-1.17-2.94-.41-.54,2.18.37,3.17,2.23,1.17,2.93.41Z"/>
    <path class="cls-1" d="m359.88,192.18c.65-.7.5-2-.34-2.91s-2.04-1.08-2.69-.38-.5,2,.34,2.91,2.04,1.07,2.69.38Z"/>
    <path class="cls-1" d="m83.87,222.62c.03,1.63-1.51,2.98-3.46,3.02-1.94.05-3.55-1.23-3.58-2.85s1.52-2.98,3.46-3.03,3.55,1.24,3.58,2.86Z"/>
    <path class="cls-1" d="m90.78,224.51c.01.62-.58,1.13-1.32,1.15-.74.02-1.35-.47-1.36-1.08-.01-.62.58-1.13,1.32-1.15.74-.02,1.35.47,1.36,1.09Z"/>
    <path class="cls-1" d="m96.66,241.45c.02.75-.69,1.37-1.59,1.39s-1.63-.56-1.64-1.31.7-1.37,1.59-1.39,1.63.57,1.64,1.31Z"/>
    <path class="cls-1" d="m88.04,247.99c.01.66-.61,1.2-1.39,1.22-.79.02-1.43-.5-1.45-1.15-.01-.65.61-1.2,1.4-1.22.78-.02,1.43.5,1.44,1.15Z"/>
    <path class="cls-1" d="m99.37,266.4c.01.64-.6,1.17-1.36,1.19-.76.02-1.39-.48-1.41-1.12-.01-.63.6-1.17,1.36-1.19.76-.02,1.39.49,1.41,1.12Z"/>
    <path class="cls-1" d="m64.63,294.27c.03,1.59-1.48,2.91-3.38,2.96-1.9.05-3.47-1.2-3.5-2.79-.03-1.58,1.48-2.91,3.39-2.96,1.9-.05,3.47,1.21,3.5,2.79Z"/>
    <path class="cls-1" d="m108.66,306.2c.03,1.27-1.18,2.31-2.68,2.35-1.51.04-2.76-.96-2.79-2.22-.03-1.26,1.18-2.31,2.69-2.35,1.51-.04,2.75.96,2.78,2.22Z"/>
    <path class="cls-1" d="m110.95,329.2c.03,1.46-1.35,2.66-3.09,2.7s-3.17-1.1-3.2-2.56,1.36-2.66,3.09-2.7c1.73-.04,3.17,1.11,3.2,2.55Z"/>
    <path class="cls-1" d="m125.99,346.54c.02,1.21-1.13,2.22-2.58,2.26s-2.65-.92-2.67-2.13c-.02-1.21,1.14-2.23,2.59-2.26,1.45-.03,2.65.93,2.67,2.14Z"/>
    <path class="cls-1" d="m135.58,368.55c.03,1.29-1.2,2.36-2.74,2.4-1.54.04-2.81-.98-2.84-2.27-.03-1.28,1.2-2.36,2.74-2.39,1.54-.04,2.81.98,2.84,2.26Z"/>
    <path class="cls-1" d="m149.78,372.89c.03,1.3-1.21,2.37-2.75,2.41-1.55.04-2.83-.98-2.85-2.28-.03-1.29,1.21-2.37,2.76-2.41,1.55-.04,2.82.99,2.85,2.28Z"/>
    <path class="cls-1" d="m164.13,378.11c.02,1.23-1.15,2.26-2.63,2.29s-2.69-.94-2.72-2.17c-.02-1.23,1.15-2.26,2.63-2.3s2.69.94,2.72,2.17Z"/>
    <path class="cls-1" d="m143.4,410.67c.03,1.43-1.33,2.61-3.03,2.65-1.71.04-3.11-1.08-3.14-2.51s1.33-2.61,3.04-2.65c1.71-.04,3.11,1.09,3.14,2.51Z"/>
    <path class="cls-1" d="m162.16,408.58c.03,1.37-1.28,2.51-2.91,2.55s-2.99-1.03-3.02-2.4c-.03-1.36,1.28-2.51,2.92-2.55,1.63-.04,2.98,1.05,3.01,2.41Z"/>
    <path class="cls-1" d="m183.96,415.72c.03,1.49-1.39,2.74-3.18,2.78-1.79.04-3.27-1.14-3.3-2.63s1.4-2.74,3.19-2.78c1.79-.04,3.26,1.14,3.29,2.63Z"/>
    <path class="cls-1" d="m215.62,414.55c.02,1.13-1.05,2.08-2.41,2.11-1.36.03-2.48-.86-2.5-1.99-.02-1.13,1.06-2.08,2.42-2.11,1.36-.03,2.47.86,2.49,1.99Z"/>
    <path class="cls-1" d="m213.68,439.83c.01.5-.46.91-1.05.92-.59.01-1.08-.37-1.09-.87s.46-.9,1.05-.92c.59-.01,1.08.37,1.09.87Z"/>
    <path class="cls-1" d="m251.88,437.2c.01.56-.52,1.03-1.2,1.05s-1.23-.42-1.24-.99.53-1.03,1.2-1.04c.67-.02,1.23.43,1.24.98Z"/>
    <path class="cls-1" d="m221.51,487.37c.01.73-.67,1.33-1.54,1.35s-1.58-.55-1.6-1.27.68-1.32,1.54-1.35c.87-.02,1.58.55,1.59,1.27Z"/>
    <path class="cls-1" d="m254,466.42c.02,1.07-1,1.96-2.28,1.99-1.28.03-2.34-.81-2.36-1.88-.02-1.07,1-1.96,2.28-1.99,1.28-.03,2.34.81,2.36,1.88Z"/>
    <path class="cls-1" d="m244.36,485.55c.01.66-.61,1.2-1.39,1.22s-1.43-.49-1.44-1.15c-.01-.65.61-1.2,1.4-1.22.78-.02,1.43.5,1.44,1.15Z"/>
    <path class="cls-1" d="m267.74,456.05c.02,1.16-1.08,2.13-2.47,2.16s-2.54-.88-2.56-2.04c-.02-1.16,1.08-2.13,2.47-2.16s2.53.88,2.55,2.04Z"/>
    <path class="cls-1" d="m288.87,468.09c.03,1.31-1.22,2.39-2.78,2.43-1.56.04-2.86-.99-2.88-2.3s1.22-2.4,2.79-2.43c1.57-.04,2.85,1,2.88,2.3Z"/>
    <path class="cls-1" d="m292.35,498.15c.03,1.65-1.53,3.01-3.49,3.06-1.97.05-3.59-1.24-3.62-2.89-.03-1.63,1.54-3.01,3.5-3.06,1.97-.05,3.58,1.26,3.61,2.89Z"/>
    <path class="cls-1" d="m301.61,521.83c.01.7-.65,1.28-1.48,1.3s-1.52-.53-1.53-1.23c-.01-.69.65-1.27,1.48-1.29s1.52.53,1.53,1.22Z"/>
    <path class="cls-1" d="m320.37,507.81c.01.7-.65,1.29-1.49,1.31-.84.02-1.54-.53-1.55-1.24-.01-.7.66-1.29,1.5-1.31.84-.02,1.53.54,1.55,1.24Z"/>
    <path class="cls-1" d="m337.53,517.52c.02.93-.87,1.71-1.98,1.73-1.11.03-2.03-.71-2.05-1.64s.87-1.7,1.98-1.73c1.11-.03,2.03.71,2.05,1.64Z"/>
    <path class="cls-1" d="m360.56,508.26c.01.56-.52,1.03-1.2,1.05s-1.23-.42-1.24-.99.53-1.03,1.2-1.04c.67-.02,1.23.43,1.24.98Z"/>
    <path class="cls-1" d="m362.68,537.49c.02,1.07-1,1.96-2.28,1.99-1.28.03-2.34-.81-2.36-1.88-.02-1.07,1-1.96,2.28-1.99,1.28-.03,2.34.81,2.36,1.88Z"/>
    <path class="cls-1" d="m353.04,556.61c.01.66-.61,1.2-1.39,1.22s-1.43-.49-1.44-1.15c-.01-.65.61-1.2,1.4-1.22.78-.02,1.43.5,1.44,1.15Z"/>
    <path class="cls-1" d="m376.42,527.11c.02,1.16-1.08,2.13-2.47,2.16s-2.54-.88-2.56-2.04c-.02-1.16,1.08-2.13,2.47-2.16,1.39-.03,2.53.88,2.55,2.04Z"/>
    <path class="cls-1" d="m397.55,539.15c.03,1.31-1.22,2.39-2.78,2.43-1.56.04-2.86-.99-2.88-2.3s1.22-2.4,2.79-2.43c1.57-.04,2.85,1,2.88,2.3Z"/>
  </g>
  <g>
    <path class="cls-1" d="m640.63,159.95c-.83-1.36-.19-3.39,1.44-4.55s3.61-1,4.44.36.18,3.4-1.44,4.55c-1.63,1.16-3.61.99-4.44-.36Z"/>
    <path class="cls-1" d="m633.84,162.33c-.31-.51-.07-1.29.55-1.73s1.37-.38,1.69.13.07,1.29-.55,1.73-1.37.38-1.69-.14Z"/>
    <path class="cls-1" d="m620.51,151.37c-.38-.62-.09-1.56.66-2.09s1.66-.46,2.04.16.09,1.56-.66,2.09-1.66.45-2.04-.17Z"/>
    <path class="cls-1" d="m624.59,140.87c-.33-.55-.07-1.37.58-1.83s1.46-.4,1.79.14.07,1.37-.58,1.84-1.46.4-1.79-.15Z"/>
    <path class="cls-1" d="m605.92,131.8c-.33-.54-.07-1.33.57-1.79s1.42-.39,1.75.14.07,1.33-.57,1.79-1.42.39-1.74-.14Z"/>
    <path class="cls-1" d="m621.59,88.24c-.81-1.33-.18-3.32,1.41-4.45,1.59-1.13,3.53-.98,4.34.35s.18,3.32-1.41,4.45-3.53.97-4.34-.35Z"/>
    <path class="cls-1" d="m578.44,103.46c-.65-1.06-.15-2.64,1.11-3.53s2.81-.78,3.45.28.14,2.63-1.12,3.53-2.8.77-3.44-.28Z"/>
    <path class="cls-1" d="m565.16,85.3c-.74-1.21-.17-3.03,1.28-4.06,1.45-1.03,3.23-.89,3.97.32s.16,3.03-1.29,4.06-3.23.88-3.96-.32Z"/>
    <path class="cls-1" d="m543.88,79.27c-.62-1.01-.14-2.53,1.08-3.4s2.7-.75,3.32.27.14,2.54-1.07,3.4-2.7.74-3.32-.27Z"/>
    <path class="cls-1" d="m518,84.4c-.85-.91-.65-2.6.44-3.78s2.65-1.4,3.5-.49.64,2.6-.44,3.78-2.66,1.39-3.5.49Z"/>
    <path class="cls-1" d="m504.98,91.9c-.85-.92-.65-2.61.44-3.8s2.67-1.41,3.52-.49.65,2.61-.44,3.8-2.67,1.4-3.51.49Z"/>
    <path class="cls-1" d="m491.28,98.87c-.81-.87-.62-2.49.42-3.62,1.04-1.13,2.54-1.34,3.35-.47s.62,2.49-.42,3.62-2.54,1.34-3.35.47Z"/>
    <path class="cls-1" d="m485.33,59.88c-.94-1.01-.72-2.88.48-4.18s2.94-1.55,3.88-.54.72,2.88-.49,4.19-2.94,1.54-3.87.54Z"/>
    <path class="cls-1" d="m473.14,75.43c-.9-.97-.69-2.76.47-4.01s2.82-1.49,3.72-.52.69,2.76-.47,4.02-2.82,1.48-3.71.52Z"/>
    <path class="cls-1" d="m452.85,86.59c-.98-1.05-.75-3.02.51-4.39s3.09-1.63,4.07-.57.75,3.02-.51,4.39-3.08,1.62-4.06.57Z"/>
    <path class="cls-1" d="m430.77,111.12c-.74-.8-.57-2.29.39-3.33s2.34-1.23,3.08-.43.57,2.29-.39,3.33-2.34,1.23-3.08.43Z"/>
    <path class="cls-1" d="m415.96,91.45c-.33-.35-.25-1,.17-1.45s1.02-.54,1.35-.19.25,1-.17,1.45-1.02.54-1.34.19Z"/>
    <path class="cls-1" d="m450.43,111.53c-.46-.49-.35-1.41.24-2.04s1.43-.76,1.89-.26.35,1.4-.24,2.04-1.43.76-1.89.27Z"/>
    <path class="cls-1" d="m445.91,135.67c-.46-.5-.35-1.42.24-2.06s1.45-.77,1.91-.27.35,1.42-.24,2.07-1.45.76-1.91.27Z"/>
    <path class="cls-1" d="m427.3,141.51c-.61-.66-.47-1.88.32-2.73s1.92-1.01,2.53-.35.47,1.88-.32,2.73-1.92,1.01-2.53.36Z"/>
    <path class="cls-1" d="m403.61,153.2c-.92-.99-.71-2.83.48-4.11s2.88-1.52,3.8-.53c.92.98.7,2.83-.48,4.11-1.18,1.28-2.89,1.52-3.8.53Z"/>
    <path class="cls-1" d="m410,180.82c-.92-.99-.7-2.81.47-4.09s2.87-1.52,3.79-.53.7,2.81-.48,4.09-2.87,1.51-3.78.53Z"/>
    <path class="cls-1" d="m389.72,163.78c-.71-.76-.55-2.18.37-3.17s2.23-1.17,2.94-.41.54,2.18-.37,3.17c-.91.99-2.23,1.17-2.93.41Z"/>
    <path class="cls-1" d="m381.09,184.55c-.65-.7-.5-2,.34-2.91s2.04-1.08,2.69-.38.5,2-.34,2.91-2.04,1.07-2.69.38Z"/>
    <path class="cls-1" d="m657.11,214.99c-.03,1.63,1.51,2.98,3.46,3.02,1.94.05,3.55-1.23,3.58-2.85s-1.52-2.98-3.46-3.03-3.55,1.24-3.58,2.86Z"/>
    <path class="cls-1" d="m650.19,216.88c-.01.62.58,1.13,1.32,1.15.74.02,1.35-.47,1.36-1.08.01-.62-.58-1.13-1.32-1.15-.74-.02-1.35.47-1.36,1.09Z"/>
    <path class="cls-1" d="m644.31,233.82c-.02.75.69,1.37,1.59,1.39s1.63-.56,1.64-1.31-.7-1.37-1.59-1.39-1.63.57-1.64,1.31Z"/>
    <path class="cls-1" d="m652.94,240.36c-.01.66.61,1.2,1.39,1.22.79.02,1.43-.5,1.45-1.15.01-.65-.61-1.2-1.4-1.22-.78-.02-1.43.5-1.44,1.15Z"/>
    <path class="cls-1" d="m641.61,258.77c-.01.64.6,1.17,1.36,1.19.76.02,1.39-.48,1.41-1.12.01-.63-.6-1.17-1.36-1.19-.76-.02-1.39.49-1.41,1.12Z"/>
    <path class="cls-1" d="m676.35,286.63c-.03,1.59,1.48,2.91,3.38,2.96,1.9.05,3.47-1.2,3.5-2.79.03-1.58-1.48-2.91-3.39-2.96-1.9-.05-3.47,1.21-3.5,2.79Z"/>
    <path class="cls-1" d="m632.31,298.56c-.03,1.27,1.18,2.31,2.68,2.35,1.51.04,2.76-.96,2.79-2.22.03-1.26-1.18-2.31-2.69-2.35-1.51-.04-2.75.96-2.78,2.22Z"/>
    <path class="cls-1" d="m630.03,321.57c-.03,1.46,1.35,2.66,3.09,2.7s3.17-1.1,3.2-2.56-1.36-2.66-3.09-2.7c-1.73-.04-3.17,1.11-3.2,2.55Z"/>
    <path class="cls-1" d="m614.99,338.91c-.02,1.21,1.13,2.22,2.58,2.26s2.65-.92,2.67-2.13c.02-1.21-1.14-2.23-2.59-2.26-1.45-.03-2.65.93-2.67,2.14Z"/>
    <path class="cls-1" d="m605.4,360.92c-.03,1.29,1.2,2.36,2.74,2.4,1.54.04,2.81-.98,2.84-2.27.03-1.28-1.2-2.36-2.74-2.39-1.54-.04-2.81.98-2.84,2.26Z"/>
    <path class="cls-1" d="m591.2,365.26c-.03,1.3,1.21,2.37,2.75,2.41,1.55.04,2.83-.98,2.85-2.28.03-1.29-1.21-2.37-2.76-2.41-1.55-.04-2.82.99-2.85,2.28Z"/>
    <path class="cls-1" d="m576.85,370.48c-.02,1.23,1.15,2.26,2.63,2.29,1.47.03,2.69-.94,2.72-2.17.02-1.23-1.15-2.26-2.63-2.3s-2.69.94-2.72,2.17Z"/>
    <path class="cls-1" d="m597.57,403.04c-.03,1.43,1.33,2.61,3.03,2.65,1.71.04,3.11-1.08,3.14-2.51s-1.33-2.61-3.04-2.65c-1.71-.04-3.11,1.09-3.14,2.51Z"/>
    <path class="cls-1" d="m578.81,400.95c-.03,1.37,1.28,2.51,2.91,2.55s2.99-1.03,3.02-2.4c.03-1.36-1.28-2.51-2.92-2.55-1.63-.04-2.98,1.05-3.01,2.41Z"/>
    <path class="cls-1" d="m557.02,408.08c-.03,1.49,1.39,2.74,3.18,2.78,1.79.04,3.27-1.14,3.3-2.63s-1.4-2.74-3.19-2.78c-1.79-.04-3.26,1.14-3.29,2.63Z"/>
    <path class="cls-1" d="m525.36,406.92c-.02,1.13,1.05,2.08,2.41,2.11,1.36.03,2.48-.86,2.5-1.99.02-1.13-1.06-2.08-2.42-2.11-1.36-.03-2.47.86-2.49,1.99Z"/>
    <path class="cls-1" d="m527.3,432.19c-.01.5.46.91,1.05.92.59.01,1.08-.37,1.09-.87s-.46-.9-1.05-.92c-.59-.01-1.08.37-1.09.87Z"/>
    <path class="cls-1" d="m489.1,429.56c-.01.56.52,1.03,1.2,1.05s1.23-.42,1.24-.99-.53-1.03-1.2-1.04c-.67-.02-1.23.43-1.24.98Z"/>
    <path class="cls-1" d="m519.47,479.74c-.01.73.67,1.33,1.54,1.35s1.58-.55,1.6-1.27-.68-1.32-1.54-1.35c-.87-.02-1.58.55-1.59,1.27Z"/>
    <path class="cls-1" d="m486.98,458.79c-.02,1.07,1,1.96,2.28,1.99,1.28.03,2.34-.81,2.36-1.88.02-1.07-1-1.96-2.28-1.99-1.28-.03-2.34.81-2.36,1.88Z"/>
    <path class="cls-1" d="m496.62,477.92c-.01.66.61,1.2,1.39,1.22s1.43-.49,1.44-1.15c.01-.65-.61-1.2-1.4-1.22-.78-.02-1.43.5-1.44,1.15Z"/>
    <path class="cls-1" d="m473.24,448.42c-.02,1.16,1.08,2.13,2.47,2.16s2.54-.88,2.56-2.04c.02-1.16-1.08-2.13-2.47-2.16s-2.53.88-2.55,2.04Z"/>
    <path class="cls-1" d="m452.11,460.45c-.03,1.31,1.22,2.39,2.78,2.43,1.56.04,2.86-.99,2.88-2.3s-1.22-2.4-2.79-2.43c-1.57-.04-2.85,1-2.88,2.3Z"/>
    <path class="cls-1" d="m448.63,490.52c-.03,1.65,1.53,3.01,3.49,3.06,1.97.05,3.59-1.24,3.62-2.89.03-1.63-1.54-3.01-3.5-3.06-1.97-.05-3.58,1.26-3.61,2.89Z"/>
    <path class="cls-1" d="m439.36,514.19c-.01.7.65,1.28,1.48,1.3s1.52-.53,1.53-1.23c.01-.69-.65-1.27-1.48-1.29s-1.52.53-1.53,1.22Z"/>
    <path class="cls-1" d="m420.61,500.17c-.01.7.65,1.29,1.49,1.31.84.02,1.54-.53,1.55-1.24.01-.7-.66-1.29-1.5-1.31-.84-.02-1.53.54-1.55,1.24Z"/>
    <path class="cls-1" d="m403.45,509.88c-.02.93.87,1.71,1.98,1.73,1.11.03,2.03-.71,2.05-1.64s-.87-1.7-1.98-1.73c-1.11-.03-2.03.71-2.05,1.64Z"/>
  </g>
</svg>