<svg width="36" height="36" viewBox="0 0 36 36" fill="none" xmlns="http://www.w3.org/2000/svg">
<g clip-path="url(#clip0_417_324)">
<path d="M21.8672 13.8375V19.5539C21.8672 19.7016 21.7547 19.8141 21.607 19.8141H20.693C20.6016 19.8141 20.5242 19.7649 20.482 19.7086L17.8594 16.1719V19.5609C17.8594 19.7086 17.7469 19.8211 17.5992 19.8211H16.6852C16.5375 19.8211 16.425 19.7086 16.425 19.5609V13.8445C16.425 13.6969 16.5375 13.5844 16.6852 13.5844H17.5922C17.6695 13.5844 17.7609 13.6266 17.8031 13.6969L20.4258 17.2336V13.8445C20.4258 13.6969 20.5383 13.5844 20.6859 13.5844H21.6C21.7477 13.5774 21.8672 13.6969 21.8672 13.8305V13.8375ZM15.2789 13.5774H14.3649C14.2172 13.5774 14.1047 13.6899 14.1047 13.8375V19.5539C14.1047 19.7016 14.2172 19.8141 14.3649 19.8141H15.2789C15.4266 19.8141 15.5391 19.7016 15.5391 19.5539V13.8375C15.5391 13.7039 15.4266 13.5774 15.2789 13.5774ZM13.0711 18.3656H10.568V13.8375C10.568 13.6899 10.4555 13.5774 10.3078 13.5774H9.39376C9.24611 13.5774 9.13361 13.6899 9.13361 13.8375V19.5539C9.13361 19.6242 9.1547 19.6805 9.20392 19.7297C9.25314 19.7719 9.30939 19.8 9.3797 19.8H13.05C13.1977 19.8 13.3102 19.6875 13.3102 19.5399V18.6258C13.3102 18.4922 13.1977 18.3656 13.0641 18.3656H13.0711ZM26.6906 13.5774H23.0133C22.8797 13.5774 22.7531 13.6899 22.7531 13.8375V19.5539C22.7531 19.6875 22.8656 19.8141 23.0133 19.8141H26.6836C26.8313 19.8141 26.9438 19.7016 26.9438 19.5539V18.6328C26.9438 18.4852 26.8313 18.3727 26.6836 18.3727H24.1875V17.4164H26.6836C26.8313 17.4164 26.9438 17.3039 26.9438 17.1563V16.2352C26.9438 16.0875 26.8313 15.975 26.6836 15.975H24.1875V15.0117H26.6836C26.8313 15.0117 26.9438 14.8992 26.9438 14.7516V13.8375C26.9367 13.7039 26.8242 13.5774 26.6836 13.5774H26.6906ZM36 6.5672V29.4891C35.993 33.0891 33.0399 36.007 29.4328 36H6.51095C2.91095 35.993 -0.00701857 33.0328 1.26804e-05 29.4328V6.51095C0.00704393 2.91095 2.9672 -0.00701857 6.5672 1.26804e-05H29.4891C33.0891 0.00704393 36.007 2.96017 36 6.5672ZM31.05 16.418C31.05 10.5539 25.1649 5.7797 17.9438 5.7797C10.7227 5.7797 4.83751 10.5539 4.83751 16.418C4.83751 21.6703 9.49923 26.0789 15.7992 26.9156C17.332 27.2461 17.1563 27.8086 16.8117 29.8758C16.7555 30.2063 16.5445 31.1695 17.9438 30.5859C19.343 30.0024 25.4883 26.1422 28.2445 22.9781C30.143 20.8899 31.05 18.7734 31.05 16.432V16.418Z" fill="#22D94A"/>
</g>
<defs>
<clipPath id="clip0_417_324">
<rect width="36" height="36" fill="white"/>
</clipPath>
</defs>
</svg>
