<?xml version="1.0" encoding="UTF-8"?>
<svg id="_圖層_1" data-name="圖層 1" xmlns="http://www.w3.org/2000/svg" xmlns:xlink="http://www.w3.org/1999/xlink" viewBox="0 0 1023.7 402.48">
  <defs>
    <style>
      .cls-1 {
        fill: url(#linear-gradient);
        opacity: .1;
      }

      .cls-1, .cls-2, .cls-3 {
        stroke-width: 0px;
      }

      .cls-2 {
        fill: #f7e481;
      }

      .cls-3 {
        fill: #fcf2c3;
      }
    </style>
    <linearGradient id="linear-gradient" x1="-450.08" y1="-345.03" x2="88.66" y2="-356.26" gradientTransform="translate(739.79 556.35) rotate(-.41) scale(1.58 1.09) skewX(-18.98)" gradientUnits="userSpaceOnUse">
      <stop offset="0" stop-color="#f5ed4d"/>
      <stop offset="1" stop-color="#f5ed4d" stop-opacity="0"/>
    </linearGradient>
  </defs>
  <path class="cls-1" d="m1023.69,15.58c-.15,5.51-6.6,11.24-20.51,15.6-149.22,46.72-297.28,97.58-443.01,154.09-72.05,27.94-143.53,57.26-214.21,88.16-29.08,12.71-57.85,24.5-84.45,40.05-27.39,16.01-52.79,29.13-85.1,34.14-65.29,10.12-128.3-11.42-120.17-71.61,7.3-53.98,94.42-82.37,146.86-98.8,75.36-23.61,149.6-52.75,226.38-75.07C601.54,52.11,778.21,12.11,953.65,4.3c15.84-.71,39.87-7.35,54.08-2.61,10.45,3.49,16.11,8.59,15.96,13.88Z"/>
  <g>
    <polygon class="cls-2" points="89.78 177.99 140.37 238.12 218.59 230.54 177.03 297.24 208.42 369.28 132.14 350.37 73.32 402.48 67.74 324.09 0 284.25 72.83 254.72 89.78 177.99"/>
    <polygon class="cls-3" points="98.34 212.79 131.99 252.79 184.01 247.75 156.37 292.11 177.24 340.03 126.51 327.45 87.38 362.11 83.67 309.97 38.62 283.47 87.06 263.83 98.34 212.79"/>
  </g>
</svg>