<?xml version="1.0" encoding="UTF-8"?>
<svg id="_圖層_1" data-name="圖層 1" xmlns="http://www.w3.org/2000/svg" viewBox="0 0 208.28 129.32">
  <defs>
    <style>
      .cls-1 {
        fill: #fbe0d3;
        stroke-width: 0px;
      }
    </style>
  </defs>
  <ellipse class="cls-1" cx="205.56" cy="126.53" rx="2.71" ry="2.81" transform="translate(-34.63 102.59) rotate(-25.92)"/>
  <path class="cls-1" d="m121.52,93.08c.16-1.3,1.32-2.19,2.6-1.99,1.28.2,2.18,1.42,2.02,2.72s-1.32,2.19-2.6,1.99c-1.28-.2-2.18-1.42-2.02-2.72Z"/>
  <path class="cls-1" d="m85.33,62.85c.16-1.3,1.32-2.19,2.6-1.99,1.28.2,2.18,1.42,2.02,2.72-.16,1.3-1.32,2.19-2.6,1.99-1.28-.2-2.18-1.42-2.02-2.72Z"/>
  <path class="cls-1" d="m22.75,2.02c.16-1.3,1.32-2.19,2.6-1.99,1.28.2,2.18,1.42,2.02,2.72-.16,1.3-1.32,2.19-2.6,1.99-1.28-.2-2.18-1.42-2.02-2.72Z"/>
  <path class="cls-1" d="m146.42,122.2c.26-2.09,2.13-3.52,4.18-3.2,2.05.32,3.5,2.28,3.25,4.37-.26,2.09-2.13,3.52-4.18,3.2-2.05-.32-3.5-2.28-3.25-4.37Z"/>
  <path class="cls-1" d="m84.86,24.28c.26-2.09,2.13-3.52,4.18-3.2,2.05.32,3.5,2.28,3.25,4.37-.26,2.09-2.13,3.52-4.18,3.2s-3.5-2.28-3.25-4.37Z"/>
  <path class="cls-1" d="m.03,42.57c.26-2.09,2.13-3.52,4.18-3.2,2.05.32,3.5,2.28,3.25,4.37-.26,2.09-2.13,3.52-4.18,3.2-2.05-.32-3.5-2.28-3.25-4.37Z"/>
  <path class="cls-1" d="m199.9,126.46c.08.09.13.22.12.35-.02.26-.24.44-.49.42l-41.46-4.35c-.25-.03-.44-.26-.42-.51.02-.26.24-.44.49-.42l41.46,4.35c.12.01.23.07.3.16Z"/>
  <path class="cls-1" d="m145.86,117.9c.17.19.16.48-.02.65-.18.17-.47.16-.65-.03l-18.7-20.58s0,0,0,0c-.17-.19-.16-.48.02-.65.18-.17.47-.16.65.03l18.7,20.58s0,0,0,0Z"/>
  <path class="cls-1" d="m120.55,89.66c.15.17.16.42.03.6-.15.2-.44.23-.64.07l-29.16-23.8c-.21-.15-.24-.46-.08-.66.15-.2.44-.23.64-.07l29.16,23.8s.04.04.06.06Z"/>
  <path class="cls-1" d="m82.35,62.02c.09.11.14.26.11.41-.05.25-.29.41-.54.35L10.2,46.13c-.25-.06-.41-.31-.36-.56.05-.25.29-.41.54-.35l71.73,16.65c.1.02.19.08.25.15Z"/>
  <path class="cls-1" d="m22.46,6.74c.12.14.16.35.07.53l-15.26,30.61c-.11.23-.39.31-.61.19-.23-.12-.32-.41-.2-.63L21.72,6.83c.11-.23.39-.31.61-.19.05.03.1.06.13.1Z"/>
  <path class="cls-1" d="m82.92,21.61c.11.12.15.29.1.45-.07.25-.33.38-.57.3L29.28,4.48c-.24-.08-.38-.34-.31-.59.07-.25.33-.38.57-.3l53.17,17.88c.08.03.15.08.21.14Z"/>
  <path class="cls-1" d="m88.17,30.62c.08.09.12.2.12.33l-.55,26.95c0,.26-.21.46-.47.44-.25-.01-.45-.24-.45-.49l.55-26.95c0-.26.21-.46.47-.44.13,0,.25.07.33.16Z"/>
</svg>