<?xml version="1.0" encoding="UTF-8"?>
<svg id="_圖層_1" data-name="圖層 1" xmlns="http://www.w3.org/2000/svg" viewBox="0 0 149.5 107.58">
  <defs>
    <style>
      .cls-1 {
        fill: #fbe0d3;
        stroke-width: 0px;
      }
    </style>
  </defs>
  <path class="cls-1" d="m48.26,5.3c1.33-.68,1.88-2.36,1.22-3.74-.66-1.38-2.27-1.95-3.61-1.27-1.33.68-1.88,2.36-1.22,3.74.66,1.38,2.27,1.95,3.61,1.27Z"/>
  <path class="cls-1" d="m61.3,58.9c1.33-.68,1.88-2.36,1.22-3.74-.66-1.38-2.27-1.95-3.61-1.27-1.33.68-1.88,2.36-1.22,3.74.66,1.38,2.27,1.95,3.61,1.27Z"/>
  <path class="cls-1" d="m148,107.29c1.33-.68,1.88-2.36,1.22-3.74-.66-1.38-2.27-1.95-3.61-1.27-1.33.68-1.88,2.36-1.22,3.74.66,1.38,2.27,1.95,3.61,1.27Z"/>
  <path class="cls-1" d="m6.25,16.55c2.14-1.1,3.03-3.79,1.97-6.02s-3.65-3.14-5.8-2.04C.27,9.58-.61,12.28.45,14.5c1.06,2.23,3.65,3.14,5.8,2.04Z"/>
  <ellipse class="cls-1" cx="100.77" cy="40.59" rx="4.33" ry="4.49"/>
  <path class="cls-1" d="m10.44,10.59c-.28.07-.45.36-.38.66.07.29.35.48.64.41l30.49-7.45s0,0,.01,0c.28-.07.45-.36.38-.66-.07-.29-.35-.48-.64-.41l-30.49,7.45s0,0,0,0Z"/>
  <path class="cls-1" d="m49.3,7.58c-.1-.24-.35-.38-.61-.32-.28.07-.46.36-.39.66l9.68,43.01c.05.29.35.48.63.41s.46-.36.39-.66L49.33,7.67s-.02-.06-.03-.09Z"/>
  <path class="cls-1" d="m106.21,45.83c-.16-.07-.36-.06-.52.06-.24.18-.29.52-.12.77l37.53,54.09c.17.24.5.3.74.12.24-.18.29-.52.12-.77l-37.53-54.09c-.06-.08-.13-.14-.22-.18Z"/>
  <path class="cls-1" d="m94.77,43.27c-.12-.05-.26-.06-.39-.01l-28.61,10.99c-.27.11-.41.42-.31.7.1.29.41.43.68.32l28.61-10.99c.27-.11.41-.42.31-.7-.05-.15-.16-.26-.29-.31Z"/>
</svg>