<?xml version="1.0" encoding="UTF-8"?>
<svg id="_圖層_1" data-name="圖層 1" xmlns="http://www.w3.org/2000/svg" xmlns:xlink="http://www.w3.org/1999/xlink" viewBox="0 0 450.47 615">
  <defs>
    <style>
      .cls-1 {
        clip-path: url(#clippath);
      }

      .cls-2 {
        fill: none;
      }

      .cls-2, .cls-3, .cls-4, .cls-5, .cls-6, .cls-7, .cls-8, .cls-9, .cls-10, .cls-11, .cls-12, .cls-13, .cls-14, .cls-15, .cls-16, .cls-17, .cls-18, .cls-19, .cls-20 {
        stroke-width: 0px;
      }

      .cls-3 {
        fill: url(#linear-gradient);
      }

      .cls-4 {
        fill: url(#linear-gradient-2);
      }

      .cls-5 {
        fill: #836074;
      }

      .cls-6 {
        fill: #502c63;
      }

      .cls-7 {
        fill: #28285a;
      }

      .cls-8 {
        fill: #272d7a;
      }

      .cls-9 {
        fill: #5d375e;
      }

      .cls-10 {
        fill: #5868a2;
      }

      .cls-11 {
        fill: #947d8a;
      }

      .cls-12 {
        fill: #3a4383;
      }

      .cls-13 {
        fill: #352042;
      }

      .cls-14 {
        fill: #2e2658;
      }

      .cls-15 {
        fill: #2e3387;
      }

      .cls-16 {
        fill: #1b1a3c;
      }

      .cls-17 {
        fill: #412d7a;
      }

      .cls-18 {
        fill: #1f2b5f;
      }

      .cls-19 {
        fill: #85635e;
      }

      .cls-20 {
        fill: #816174;
      }
    </style>
    <clipPath id="clippath">
      <rect class="cls-2" width="450.47" height="615"/>
    </clipPath>
    <linearGradient id="linear-gradient" x1="3111.68" y1="-12235.18" x2="3136.05" y2="-12246.81" gradientTransform="translate(-1495.1 -7194.44) scale(.6 -.6)" gradientUnits="userSpaceOnUse">
      <stop offset="0" stop-color="#8b6a63"/>
      <stop offset="1" stop-color="#af8b82"/>
    </linearGradient>
    <linearGradient id="linear-gradient-2" x1="2793.37" y1="-12212.18" x2="2827.42" y2="-12320.09" gradientTransform="translate(-1495.1 -7194.44) scale(.6 -.6)" gradientUnits="userSpaceOnUse">
      <stop offset="0" stop-color="#6d5854"/>
      <stop offset="1" stop-color="#5d3d4a"/>
    </linearGradient>
  </defs>
  <g class="cls-1">
    <g>
      <path class="cls-19" d="m421.2,41.99l.68-.18,11.58-4.04c-3.54,4.78-7.63,7.72-11.44,11.96,2.94.53,8.31-1.21,9.72.81-2.58,2.81-6.14,3.79-9.62,5.04l-4.74-3.15v-2.4c1.41-1.65,3.15-2.52,5.19-3.2l.55-.16.95-1.9-2.88-2.78Z"/>
      <path class="cls-3" d="m392.31,73.16c2.05-1.79,4.38-4.22,6.85-5.36,1.97-.91,2.15-1.02,4.15-.25-6.07,8.79-10.81,18.26-16.18,27.46-8.18,14.02-17.42,28.58-27.31,41.47-4.18,5.46-9.77,9.3-14.14,14.5.74,2.38.65,2.65,0,4.92-1.55-1.76-2.7-3.89-3.91-5.89l-.69-.82c.61-5.07,13.44-17.19,17.02-21.95,12.92-17.18,22.49-36.2,34.19-54.08Z"/>
      <path class="cls-19" d="m397.56,50.26c3.12-4.97,7.98-9.49,12.07-13.7,5.28-5.45,10.53-11.3,16.37-16.13l1.52,1.38c-.74,3.15-3.54,5.26-5.78,7.47,1.12.43.71.2,1.68.86l.66.47,4.79-2.78,1.03,1.15c-2.06,4.31-3.81,7.6-7.42,10.77-1,.88-.9,1.03-1.28,2.24l2.88,2.78-.95,1.9-.55.16c-2.04.68-3.79,1.55-5.2,3.2v2.4s4.75,3.15,4.75,3.15l-4.1,1.96c-4.51,4.19-9.33,7.05-14.71,10-2.01-.76-2.18-.66-4.15.25-2.47,1.14-4.8,3.57-6.85,5.36,1.76-4.12,5.12-7.73,7.9-11.23-.59-3.77-.84-7.96-2.98-11.21l.33-.46Z"/>
      <path class="cls-19" d="m397.56,50.26c3.73-2.18,7.49-4.86,11.41-6.64,2.48,3.71,5.71,7.72,7.41,11.83.49,1.18.56,1.46,1.63,2.09-4.51,4.19-9.33,7.05-14.71,10-2.01-.76-2.18-.66-4.15.25-2.47,1.14-4.8,3.57-6.85,5.36,1.76-4.12,5.12-7.73,7.9-11.23-.59-3.77-.84-7.96-2.98-11.21l.33-.46Z"/>
      <path class="cls-5" d="m209.84,68.15l.65,1.25c4.84,6.63,8.97,13.38,12.54,20.77l-.34.73c-3,1.82-4.21,2.29-5.8,5.53l.93,1.45c2.53-.63,3.11-1.66,4.89-3.51,3.49,2.87,8.64,11.53,9.79,15.93-.87,2.49-2.46,3.25-4.63,4.61,1.39,5.26,5.12,5.42,1.91,11.5l.53.74c1.52,2.19,2.81,4.24,2.43,7.01-.42,3.12-1.34,3.86-3.6,5.78-5.06-4.11-11.07-8.48-14.56-14.04-3.57-5.69-5.17-13.59-7.44-19.94l-8.47-26.2,11.16-11.62Z"/>
      <path class="cls-11" d="m210.49,69.41c4.84,6.63,8.97,13.38,12.54,20.77l-.34.73c-1.13-1.78-1.61-1.93-3.43-2.86-1.36.4-2.3.68-3.5,1.48-1.09.73-.99.59-2.24.6-2.31-6.11-3-14.22-3.02-20.72Z"/>
      <path class="cls-19" d="m397.23,50.72c2.14,3.25,2.39,7.44,2.98,11.21-2.78,3.5-6.14,7.11-7.9,11.23-11.69,17.88-21.27,36.9-34.19,54.08-3.58,4.76-16.41,16.88-17.02,21.95-2.89-1.71-4.85-5.39-6.77-8.09l-15.76-24.02c10.62-5.29,21.2-14.97,30.37-22.62,16.84-14.06,33.2-27.77,48.29-43.74Z"/>
      <path class="cls-8" d="m218.05,159.7c6.97,2.75,15.81,3.39,23.28,4.26,2,.23,5.2.99,7.05.45,2.98-.87,7.11-4.46,9.74-6.22l43.43-30.58c5.32-3.56,11.02-8.27,17.02-10.53l15.76,24.02c1.92,2.7,3.87,6.38,6.77,8.09l.69.82c-3.92.76-6.69,3.86-9.56,6.44l-18.75,16.83-47,35.58c-6.72,4.84-14.33,9.14-20.61,14.51.71-5.59,1.39-12.85.65-18.42-2.39-17.95-32.99-34.05-46.21-44.12,4.17.11,13.05,1.36,16.61-.5l1.13-.65Z"/>
      <path class="cls-16" d="m172.03,143.68c-13.71-23.39-32.84-45.11-32.87-73.79,4.45-3.84,11.4-5.9,16.87-7.84,14.44-5.12,29.68-8.64,43.9-14.2,4.89-1.91,8.8-5.41,13.58-7.52.85,2.14.13,5.07-.13,7.32l1.08.2c1.47-2.85,1.48-5.68,1.7-8.81,1.78,2.77,3.18,5.75,3.34,9.09.36,7.63-4.86,14.71-9.67,20.03l-11.16,11.62,8.47,26.2c2.27,6.35,3.87,14.25,7.44,19.94,3.49,5.57,9.51,9.93,14.56,14.04-6.54,1.11-12.9-.15-19.09.77v11.98s2.06,3.85,2.06,3.85l-8.28-2.02c-11.97-2.72-23.74-3.21-35.96-2.93l4.15-7.92Z"/>
      <path class="cls-9" d="m207.14,105.98c2.27,6.35,3.87,14.25,7.44,19.94,3.49,5.57,9.51,9.93,14.56,14.04-6.54,1.11-12.9-.15-19.09.77v11.98c-2.82-3.26-4.33-6.96-6.04-10.87l-1.98-4.25c-1.34-.52-2.3-.88-3.45-1.78-1.16-.9-.9-1.62-1.11-3.01,1.39-2.74.39-5.33.99-8.13,1.25-5.81,1.12-11.8,1.33-17.77l.96,3.89c.51,2.1.96,3.69.52,5.85-.21,1.03-.37,1.82-.35,2.89.03,1.44.23,2.7-.26,4.09-1.21,3.46-.9,6.06-.55,9.65.76,1.41,1.38,1.83,2.75,2.54.83.43,1.52.71,2.19,1.37l.33.39c1.07-.07,2-.23,2.98.28,2.09,1.07,3.22,1.19,5.57.81l.54-.12,1.44.95c3.12.11,5.63.2,8.61-.96-5.14-3.97-11.14-8.55-13.12-15.07-.86-2.82-3.1-5.98-3.43-8.78-.14-1.15,0-1.85-.69-2.87-.81-1.21-.23-4.26-.14-5.84Z"/>
      <path class="cls-4" d="m188.57,111.11c-4.14-3.92-7.38-8.28-7.9-14.11-.21-2.32-.54-4.23,1.26-6.03,1.95-1.96,4.03-2.54,6.7-2.69,2.75,1.07,4.42,3.2,6.4,5.3,2.18,3.72,4.92,8.91,4.76,13.33-.2,5.97-.08,11.95-1.33,17.77-.6,2.8.4,5.39-.99,8.13.21,1.38-.05,2.1,1.11,3.01,1.15.89,2.11,1.26,3.45,1.78l1.98,4.25c1.72,3.91,3.22,7.61,6.05,10.87l2.05,3.85-8.28-2.02c-11.97-2.72-23.74-3.21-35.96-2.93l4.15-7.92.75-.33c7.45-3.54,7.68-9.51,10.14-16.37l5.64-15.87Z"/>
      <path class="cls-9" d="m192.14,94.24c2.34,3.65,2.33,3.66,1.66,7.95-1.08.97-2.1,1.95-3.39,2.64l-2-5.51c.43-2.48,1.91-3.47,3.73-5.08Z"/>
      <path class="cls-20" d="m204.01,141.84c1.72,3.91,3.22,7.61,6.05,10.87l2.05,3.85-8.28-2.02c-.25-4.32-.21-8.39.17-12.69Z"/>
      <path class="cls-18" d="m341.79,150.02c-3.92.76-6.69,3.86-9.56,6.44l-18.75,16.83-47,35.58c-6.72,4.84-14.33,9.14-20.61,14.51.71-5.59,1.39-12.85.65-18.42-2.39-17.95-32.99-34.05-46.21-44.12,4.17.11,13.05,1.36,16.61-.5l1.13-.65-5.93-3.14-8.28-2.02c-11.97-2.72-23.74-3.21-35.96-2.93-7.54,2.15-7.41,4.79-12.32,10.33-1.85,2.09-4.69,3.64-7.02,5.14-11.83,7.56-25.94,12.64-38.82,18.21-3.92,1.7-7.25,11.1-8.9,14.91l-54.54,107.96c-1.57,3.81-3.02,7.21-3.32,11.37,1.66.79,3.26,1.42,4.52,2.81,6.86,4.9,14.35,9.2,22.01,12.74,4.27,1.97,9.92,3.69,13.71,6.28,1.61-.31,3.31-.56,4.82-1.21,3.27-1.39,6.42-12.46,7.89-16.2l1.41-3.68,5.38-15.9,5.2-7.96c2.29,10.09,4.61,21.4,4.86,31.75l.58,4-.37,15.56-1.89,31.46-.98,8.91-1.21,7.17c-.12,2.97-1.23,8.01.74,10.23.72.81,1.54,1.22,2.48,1.73,6.96,2.96,13.82,4.67,21.41,4.72,17.75,2.79,35,2.87,52.82.86,10.85-1.37,21.86-2.57,32.52-5.09,13.5-3.19,26.53-8.13,39.58-12.76l3.47-1.89,2.12-1.25c-.21-11.27-5.36-21.08-8.18-31.71-.9-7.2-.09-15.2.17-22.49.75-21.22,3.2-42.08,5.87-63.13l4.91-44.36c2.68-8.63,15.85-15.95,22.8-21.2,6.1-4.62,11.53-11.04,17.32-16.2,12.43-11.08,31.24-21.65,38.77-36.83-1.55-1.76-2.7-3.89-3.91-5.89Z"/>
      <path class="cls-8" d="m111.1,379.19c15.03,3.84,31.55,6.14,46.99,7.47,6.67.58,13.36.13,20.03,1,3.51.85,6.79-.22,10.3-.6l31.86-4.47c6.95,4.78,16.17,3.82,23.1,8.17l12.11-6.17c2.75,2.39,5.55,5.21,8.55,7.25l-2.12,1.25-3.47,1.89c-13.05,4.63-26.08,9.57-39.58,12.76-10.66,2.52-21.67,3.71-32.52,5.09-17.82,2.01-35.07,1.94-52.82-.86-7.59-.05-14.45-1.76-21.41-4.72-.94-.51-1.76-.92-2.48-1.73-1.97-2.22-.87-7.27-.74-10.23l1.21-7.17.98-8.91Z"/>
      <path class="cls-17" d="m108.9,395.27c7.8,8.18,15.53,10.66,24.63,16.69-7.59-.05-14.45-1.76-21.41-4.72-.94-.51-1.76-.92-2.48-1.73-1.97-2.22-.87-7.27-.74-10.23Z"/>
      <path class="cls-12" d="m243.38,390.75l12.11-6.17c2.75,2.39,5.55,5.21,8.55,7.25l-2.12,1.25c-8.9-.77-17.09,3.39-25.4,6.25-2.87.99-5.8,1.79-8.59.45.47-.78.78-1.35,1.53-1.91l13.91-7.11Z"/>
      <path class="cls-14" d="m111.1,379.19c15.03,3.84,31.55,6.14,46.99,7.47,6.67.58,13.36.13,20.03,1l-45.96.8c-6.78.08-15.62,1.35-22.04-.36l.98-8.91Z"/>
      <path class="cls-7" d="m100.82,200.19c1.73,31.06,1,63.02,8.35,93.49l-1.26,2.74-5.2,7.96-5.38,15.9-1.41,3.68c-1.47,3.74-4.63,14.81-7.89,16.2-1.52.65-3.21.9-4.82,1.21-3.79-2.59-9.44-4.31-13.71-6.28-7.66-3.54-15.15-7.84-22.01-12.74-1.26-1.39-2.86-2.02-4.52-2.81.3-4.16,1.75-7.56,3.32-11.37l54.54-107.96Z"/>
      <path class="cls-18" d="m97.32,320.27l-2.52-.92c-2.79-1.15-3.45-2.1-4.49-4.74l12.39-10.24-5.38,15.9Z"/>
      <path class="cls-15" d="m341.79,150.02c1.21,2,2.36,4.13,3.91,5.89-7.54,15.19-26.34,25.75-38.77,36.83-5.79,5.16-11.22,11.58-17.32,16.2-6.95,5.25-20.11,12.57-22.8,21.2l-4.91,44.36c-2.67,21.05-5.12,41.9-5.87,63.13-.26,7.29-1.07,15.29-.17,22.49,2.83,10.63,7.97,20.44,8.18,31.71-3-2.04-5.8-4.85-8.55-7.25l-12.11,6.17c-6.93-4.35-16.15-3.39-23.1-8.17,4.54-.3,11.82-.86,15.48-3.66-2.18-.81-4.99.25-7.25.61-5.49.9-11.36,1.68-16.9,2.06-9.64.66-18.06,0-27.57-1.62l19.42-6.75c24.66-11.27,35.92-34.56,44.67-58.63-17.93,18.85-35.32,32.94-61.4,38.11,10.24-7.21,20.09-15.86,26.95-26.44,9.09-14,14.09-32.26,18.67-48.22,5.21-18.17,10.01-36.05,13.53-54.66,6.28-5.37,13.89-9.67,20.61-14.51l47-35.58,18.75-16.83c2.86-2.58,5.63-5.69,9.56-6.44Z"/>
      <path class="cls-10" d="m266.81,230.14l-4.91,44.36c-2.67,21.05-5.12,41.9-5.87,63.13-.26,7.29-1.07,15.29-.17,22.49,2.83,10.63,7.97,20.44,8.18,31.71-3-2.04-5.8-4.85-8.55-7.25-5.59-4.47-11.3-7.96-16.62-12.92,3.98-6,8.14-11.12,10.75-17.89l-5.16-10.3c2.17-10.08,5.7-20.06,7.45-30.15,3.68-21.25,3.95-42.95,8.78-64,1.44-6.3,2.87-13.53,6.12-19.17Z"/>
      <path class="cls-13" d="m111.64,768.64c2.84-27.78,9.11-54.9,14.78-82.19,4.28-20.63,7.89-41.39,13.44-61.74l10.06-31.55c3.26-11.32,4.13-27.63,12.85-36.02,4.1-3.94,7.52-5.34,12.99-5.2l-20.74,65.84c-6.54,18.25-12.57,36.23-16.23,55.34-1.82,9.49-2.43,19.29-3.74,28.88-3.26,13.22-4.24,27.47-5.64,41-.81,7.86-1.3,15.99-3.85,23.53-1.11.7-1.77.96-2.4,2.14l-3.26-.03h-8.27Z"/>
      <g>
        <path class="cls-16" d="m228.68,784.22l-2.21-1.77c-3.43-3.09-5.75-7.09-7.2-11.45-2.8-8.42-2.98-19.16-3.32-28.03l-.38-40.02c.88-32.84,7.37-67.17,3.82-99.81-2.1-19.31-5.54-38.51-10.33-57.34l-13.79-51.3c-5.81-26.65-7.71-54.48-8.9-81.69-17.82,2.01-35.07,1.94-52.82-.86-7.59-.05-14.45-1.76-21.41-4.72-4.38,20.38-4.37,41.1-4.15,61.83,1.75,22.32,1.08,45.58.03,67.96-.8,17.01-1.59,34.69-4.53,51.47l-1.34,8.73c-6.9,25.87-17.72,51.04-19.31,78.14-1.08,11.77-4.14,77.05-.29,83.01l17.9,9.18c3.74.58,7.42,1.24,11.22,1.1h8.27s3.26.03,3.26.03c.63-1.18,1.3-1.44,2.4-2.14,2.55-7.54,3.04-15.67,3.85-23.53,1.4-13.53,2.38-27.78,5.64-41,1.31-9.58,1.92-19.39,3.74-28.88,3.66-19.11,9.68-37.08,16.23-55.34l20.74-65.84,5.81-22.13,17.73,87.94c-.02,4.28-.24,8.69-1.94,12.7-11.29,23.48-14.35,50.6-12.77,76.33l11.43,68.79,2.32,13.34,11.06,1.26.66,3.72-1.3,5.21c6.57,1.49,11.96,2.38,18.77,1.71,2.66-1.52,4.44-3.43,6.52-5.62-.78-1.42-1.24-3.06-1.8-4.59l-.96-4.76-2.12-.1-.49-1.51Z"/>
        <path class="cls-13" d="m258.36,398.26l.09-3.29c-13.05,4.63-26.08,9.57-39.58,12.76-10.66,2.52-21.67,3.71-32.52,5.09,1.19,27.21,3.09,55.04,8.9,81.69l13.79,51.3c4.79,18.83,8.23,38.03,10.33,57.34,3.55,32.64-2.94,66.97-3.82,99.81l.38,40.02c.34,8.87.52,19.61,3.32,28.03,1.45,4.36,3.77,8.36,7.2,11.45l2.21,1.77.49,1.51,2.12.1c2.01-2.21,4.72-3.45,7.3-4.88l1.26-.22c2.11-9.92,1.36-21.65,2.47-31.9.97-8.96,3.68-18.08,3.92-27.08-1.5-6.94.26-15.88.79-23.02l4.23-52.06,1.68-25.57c.16-2.79.49-5.42,1.03-8.16l5.6-69,.41-8.77c1.54-13.39,1.58-27.21,1.97-40.68.92-32.3.04-64.11-3.6-96.24Z"/>
      </g>
      <path class="cls-6" d="m249.93,408.33c-1.81,4.21-2.92,7.91-3.25,12.5-2.22,30.57-.26,62.2-.45,92.92l-.92,56.11c-.06,4.83-.9,9.6-.76,14.42-2.99-15.34-8.36-29.81-11.91-44.98-6.37-27.24-11.35-56.8-11.83-84.78-.16-9.36-.06-20.71,3.83-29.32,4.68-10.36,15.58-13.31,25.3-16.86Z"/>
      <path class="cls-9" d="m258.36,398.26c3.64,32.13,4.52,63.94,3.6,96.24-.39,13.47-.42,27.29-1.97,40.68l-.41,8.77-5.6,69c-.54,2.74-.87,5.38-1.03,8.16l-1.68,25.57-4.23,52.06c-.53,7.14-2.29,16.08-.79,23.02-.24,9-2.95,18.12-3.92,27.08-1.11,10.25-.36,21.98-2.47,31.9l-1.26.22c-2.58,1.43-5.29,2.67-7.3,4.88l-2.12-.1-.49-1.51-.38-6.59c-.29-24.32,1.15-48.66,4.43-72.77,5.48-40.26,14.57-79.76,11.81-120.6-.14-4.82.7-9.58.76-14.42l.92-56.11c.19-30.71-1.78-62.35.45-92.92.33-4.59,1.45-8.29,3.25-12.5l8.42-10.07Z"/>
      <path class="cls-7" d="m77.46,467.51l.15,1.03c1.26,8.2,7.93,13.88,8.76,21.57-6.56-5.78-10-12.27-15-19.2l6.09-3.4Z"/>
      <path class="cls-9" d="m47.47,322.33c6.86,4.9,14.35,9.2,22.01,12.74,4.27,1.97,9.92,3.69,13.71,6.28l-.83,2.53c-6.73,26.26-8.85,54.58-10.07,81.6,10.64,14.03,20.5,28.24,26.2,45.06-3.41-4.04-8.8-13-12.84-15.7-1.55-1.38-2.55-2.44-4.72-2.69-1.7,2.82-1.36,4.92-1.43,8.1,1.11,4.55,2.07,9.79,4.85,13.65.3,1.81.6,2.56-.07,4.3l-6.12-11.06-.71.35-6.09,3.4-.83.15c1.86,6.81,5.1,13.25,7.98,19.68-3.58-4.24-7.34-8.49-9.95-13.42-6.07-11.48-8.23-26.1-10.49-38.78l-10.9-94.02.29-22.2Z"/>
    </g>
  </g>
</svg>