<?xml version="1.0" encoding="UTF-8"?>
<svg id="_圖層_1" data-name="圖層 1" xmlns="http://www.w3.org/2000/svg" viewBox="0 0 198.43 198.43">
  <defs>
    <style>
      .cls-1 {
        fill: #f7dce6;
      }

      .cls-1, .cls-2, .cls-3, .cls-4, .cls-5 {
        stroke-width: 0px;
      }

      .cls-2 {
        fill: #4c3f80;
      }

      .cls-3 {
        fill: #ae8bba;
      }

      .cls-4 {
        fill: #fff;
      }

      .cls-5 {
        fill: #ebda47;
      }
    </style>
  </defs>
  <path class="cls-5" d="m67.68,71.53c-.62,1.95-2.31,3.36-4.34,3.61-10.14,1.27-39.72,6.04-40.73,18.88-1.15,14.63,20.5,29.25,28.36,34.06,1.69,1.03,2.64,2.93,2.47,4.9-.91,10.29-2.77,41.65,8.03,45.74,10.57,4,32.33-10.65,39.98-16.18,1.66-1.2,3.87-1.31,5.65-.29,8.98,5.16,36.09,19.52,45.38,10.52,9.3-9.01,2.91-37.09.48-46.35-.48-1.84.08-3.8,1.46-5.11,6.72-6.36,29.84-47.94,25.71-58.79-4.64-12.19-38.75,7.65-48.84,7.13-2-.1-3.76-1.34-4.54-3.18-3.74-8.85-15.76-33.78-31.67-31.95-14.94,1.73-24.46,27.75-27.39,37.01h-.01Z"/>
  <g>
    <g>
      <circle class="cls-2" cx="78.66" cy="100.5" r="7.46"/>
      <path class="cls-4" d="m83.5,98.08c0,1.34-1.08,2.42-2.42,2.42s-2.42-1.08-2.42-2.42,1.08-2.42,2.42-2.42,2.42,1.08,2.42,2.42Z"/>
    </g>
    <g>
      <circle class="cls-2" cx="122.27" cy="100.5" r="7.46"/>
      <circle class="cls-4" cx="124.69" cy="98.08" r="2.42"/>
    </g>
    <path class="cls-1" d="m78.66,113.1c0,2.65-2.15,4.8-4.8,4.8s-4.8-2.15-4.8-4.8,2.15-4.8,4.8-4.8,4.8,2.15,4.8,4.8Z"/>
    <path class="cls-1" d="m132.81,113.1c0,2.65-2.15,4.8-4.8,4.8s-4.8-2.15-4.8-4.8,2.15-4.8,4.8-4.8,4.8,2.15,4.8,4.8Z"/>
    <path class="cls-2" d="m109.99,105.94c.78-1.97,1.07-4.59-1.13-5.32-1.6-.54-3.13.81-4.62,1.6-1.96,1.04-4.4,1.14-6.44.25-1.58-.69-3.22-1.95-4.82-1.32-.83.33-1.42,1.14-1.62,2.01-.2.87-.07,1.79.2,2.65,1.5,4.61,6.56,6.62,11.08,5.85,2.62-.45,5.09-1.97,6.56-4.19.27-.41.55-.94.78-1.53h.01Z"/>
  </g>
  <path class="cls-3" d="m145.69,35.36c-1.44-1.17-3.96-1.03-6.42.17-1.86-2-4.16-3.05-5.92-2.48-2.49.8-2.98,4.53-1.09,8.31.3.59.63,1.15,1,1.67,1,1.41,2.22,2.52,3.46,3.19.33.18.7.25,1.07.2,1.39-.17,2.93-.77,4.38-1.72.53-.35,1.05-.75,1.54-1.19,3.14-2.85,4.03-6.49,1.99-8.14h-.01Z"/>
  <path class="cls-3" d="m171.06,29.55c-.92-1.61-3.32-2.39-6.04-2.18-1.01-2.54-2.77-4.35-4.62-4.46-2.62-.16-4.42,3.13-4.04,7.35.06.66.17,1.3.32,1.92.42,1.68,1.15,3.15,2.06,4.23.24.28.56.48.93.57,1.36.35,3.01.35,4.7-.01.62-.13,1.25-.32,1.86-.56,3.95-1.51,6.11-4.58,4.82-6.86h0Z"/>
  <path class="cls-3" d="m53.74,33.67c-2.69-.02-5.43,2.42-7.14,6.01-3.93-.59-7.49.31-8.97,2.55-2.1,3.17.72,7.84,6.3,10.43.87.4,1.76.74,2.65.99,2.41.7,4.81.85,6.81.48.53-.1,1.02-.35,1.4-.74,1.43-1.46,2.64-3.53,3.41-5.92.28-.88.51-1.8.66-2.75.98-6.07-1.31-11.02-5.12-11.05Z"/>
</svg>